<?xml version="1.0" encoding="utf-8"?>
<!-- Generator: Adobe Illustrator 21.0.0, SVG Export Plug-In . SVG Version: 6.00 Build 0)  -->
<svg version="1.1" id="Capa_1" xmlns="http://www.w3.org/2000/svg" xmlns:xlink="http://www.w3.org/1999/xlink" x="0px" y="0px"
	 viewBox="-659.1 402.2 355.1 236" style="enable-background:new -659.1 402.2 355.1 236;" xml:space="preserve">
<style type="text/css">
	.st0{fill:none;stroke:#000000;stroke-miterlimit:10;}
	.st1{fill:none;stroke:#5B79B5;stroke-width:5;stroke-miterlimit:10;}
	.st2{fill:none;stroke:#353D54;stroke-width:5;stroke-miterlimit:10;}
	.st3{fill:#FFFFFF;stroke:#9E9E9E;stroke-width:0.5;stroke-miterlimit:10;}
	.st4{enable-background:new    ;}
	.st5{fill:#FFFFFF;}
	.st6{fill:none;stroke:#747373;stroke-miterlimit:10;}
	.st7{fill:#5B79B5;}
	.st8{fill:#353D54;}
</style>
<line class="st0" x1="-620.4" y1="425.5" x2="-620.4" y2="623.2"/>
<line class="st0" x1="-328" y1="616.5" x2="-630.6" y2="616.5"/>
<path class="st1" d="M-619.9,427c6.2,15.8,65.6,153.8,262.3,168.9"/>
<path class="st2" d="M-355.6,498.2c-145.8-13.8-251.6-65.9-263.7-72.1"/>
<circle class="st3" cx="-550.9" cy="454.7" r="16"/>
<circle class="st3" cx="-477.9" cy="475.7" r="16"/>
<circle class="st3" cx="-477.9" cy="566" r="16"/>
<circle class="st3" cx="-416.2" cy="488.9" r="16"/>
<circle class="st3" cx="-416.2" cy="585.6" r="16"/>
<circle class="st3" cx="-357.6" cy="593.9" r="16"/>
<circle class="st3" cx="-357.6" cy="497.9" r="16"/>
<circle class="st3" cx="-550.9" cy="521" r="16"/>
<g class="st4">
	<path d="M-657.1,535.1v2h5.5v0.8h-5.5v2h-0.7v-4.9H-657.1z"/>
	<path d="M-651.6,534.3h-6.2v-2c0-0.6,0.1-1.2,0.4-1.5c0.3-0.4,0.7-0.5,1.3-0.5c0.3,0,0.5,0.1,0.7,0.2s0.4,0.4,0.5,0.7
		c0.1-0.4,0.2-0.7,0.5-1c0.3-0.2,0.6-0.4,1-0.4c0.6,0,1,0.2,1.3,0.6c0.3,0.4,0.4,0.9,0.4,1.5V534.3z M-655.2,533.4v-1.4
		c0-0.3-0.1-0.6-0.3-0.8c-0.2-0.2-0.4-0.3-0.7-0.3c-0.3,0-0.6,0.1-0.8,0.3c-0.2,0.2-0.2,0.5-0.2,0.9v1.2H-655.2z M-654.5,533.4h2.2
		v-1.6c0-0.4-0.1-0.7-0.3-0.9c-0.2-0.2-0.5-0.3-0.8-0.3c-0.3,0-0.6,0.1-0.8,0.3c-0.2,0.2-0.3,0.5-0.3,0.9v0.1V533.4z"/>
	<path d="M-653.8,527.5l0.8-0.1l0,0l-0.8-0.1l-4-1.1v-0.8l4-1.1l0.8-0.1v0l-0.8-0.1l-4-0.9v-0.9l6.2,1.5v0.7l-4.3,1.2l-0.6,0.1v0
		l0.6,0.1l4.3,1.3v0.7l-6.2,1.5v-0.9L-653.8,527.5z"/>
	<path d="M-652.3,520.4v-3h0.7v3.9h-6.2v-0.8H-652.3z"/>
	<path d="M-654.1,514.4c-1.1,0-2.1-0.2-2.9-0.7s-1.3-0.9-1.6-1.4l0,0l0.5-0.2c0.3,0.4,0.8,0.7,1.5,1c0.7,0.3,1.5,0.4,2.5,0.4h0.1
		c1,0,1.8-0.1,2.5-0.4s1.2-0.6,1.5-1l0.5,0.2v0c-0.3,0.5-0.8,1-1.6,1.4C-652,514.2-653,514.4-654.1,514.4L-654.1,514.4z"/>
	<path d="M-656.6,511.7c-0.4,0-0.7-0.1-0.9-0.3c-0.2-0.2-0.4-0.5-0.4-0.9c0-0.4,0.1-0.7,0.4-0.9c0.2-0.2,0.5-0.3,0.9-0.3h0.3
		c0.4,0,0.7,0.1,0.9,0.3c0.2,0.2,0.4,0.5,0.4,0.9c0,0.4-0.1,0.7-0.4,0.9c-0.2,0.2-0.5,0.4-0.9,0.4H-656.6z M-656.3,511
		c0.2,0,0.4-0.1,0.5-0.2c0.1-0.1,0.2-0.3,0.2-0.5c0-0.2-0.1-0.4-0.2-0.5s-0.3-0.2-0.5-0.2h-0.3c-0.2,0-0.4,0.1-0.5,0.2
		c-0.1,0.1-0.2,0.3-0.2,0.5c0,0.2,0.1,0.4,0.2,0.5c0.1,0.1,0.3,0.2,0.5,0.2H-656.3z M-652.1,510.2l-0.3,0.5l-4.8-3l0.3-0.5
		L-652.1,510.2z M-653.1,508.7c-0.4,0-0.7-0.1-0.9-0.3c-0.2-0.2-0.4-0.5-0.4-0.9c0-0.4,0.1-0.7,0.4-0.9c0.2-0.2,0.5-0.4,0.9-0.4h0.3
		c0.4,0,0.7,0.1,0.9,0.3c0.2,0.2,0.4,0.5,0.4,0.9c0,0.4-0.1,0.7-0.4,0.9s-0.5,0.4-0.9,0.4H-653.1z M-652.8,508
		c0.2,0,0.4-0.1,0.5-0.2c0.1-0.1,0.2-0.3,0.2-0.5c0-0.2-0.1-0.4-0.2-0.5c-0.1-0.1-0.3-0.2-0.5-0.2h-0.3c-0.2,0-0.4,0.1-0.5,0.2
		s-0.2,0.3-0.2,0.5c0,0.2,0.1,0.4,0.2,0.5s0.3,0.2,0.5,0.2H-652.8z"/>
	<path d="M-654.1,503.4c1.1,0,2.1,0.2,2.9,0.7c0.8,0.5,1.3,0.9,1.6,1.4v0l-0.5,0.2c-0.3-0.4-0.8-0.7-1.5-1c-0.7-0.3-1.5-0.4-2.5-0.4
		h-0.1c-1,0-1.8,0.2-2.5,0.4s-1.2,0.6-1.5,1l-0.5-0.2v0c0.3-0.5,0.8-1,1.6-1.4S-655.2,503.4-654.1,503.4L-654.1,503.4z"/>
</g>
<g class="st4">
	<path d="M-617.9,633.4c0,0.7-0.2,1.3-0.5,1.7c-0.4,0.4-0.8,0.6-1.4,0.6c-0.6,0-1.1-0.2-1.4-0.6s-0.5-1-0.5-1.7v-1.8
		c0-0.7,0.2-1.2,0.5-1.7c0.4-0.4,0.8-0.6,1.4-0.6c0.6,0,1.1,0.2,1.4,0.6c0.4,0.4,0.5,1,0.5,1.7V633.4z M-618.8,631.4
		c0-0.4-0.1-0.8-0.3-1.1c-0.2-0.3-0.5-0.4-0.8-0.4c-0.4,0-0.6,0.1-0.8,0.4s-0.3,0.6-0.3,1.1v2.2c0,0.4,0.1,0.8,0.3,1.1
		c0.2,0.3,0.5,0.4,0.8,0.4c0.4,0,0.6-0.1,0.8-0.4c0.2-0.3,0.3-0.6,0.3-1.1V631.4z"/>
</g>
<g class="st4">
	<path d="M-546.6,632c0.4,0,0.6-0.1,0.8-0.3c0.2-0.2,0.2-0.4,0.2-0.8c0-0.3-0.1-0.6-0.3-0.8c-0.2-0.2-0.4-0.3-0.8-0.3
		c-0.3,0-0.6,0.1-0.8,0.3c-0.2,0.2-0.3,0.5-0.3,0.8h-0.8l0,0c0-0.5,0.2-0.9,0.5-1.2s0.8-0.5,1.4-0.5c0.6,0,1,0.1,1.4,0.4
		c0.3,0.3,0.5,0.7,0.5,1.3c0,0.3-0.1,0.6-0.2,0.8s-0.4,0.4-0.6,0.6c0.3,0.1,0.5,0.3,0.7,0.6s0.2,0.6,0.2,0.9c0,0.6-0.2,1-0.5,1.3
		c-0.4,0.3-0.8,0.5-1.4,0.5c-0.5,0-1-0.2-1.4-0.5c-0.4-0.3-0.6-0.7-0.6-1.2l0,0h0.8c0,0.3,0.1,0.6,0.3,0.8c0.2,0.2,0.5,0.3,0.8,0.3
		c0.3,0,0.6-0.1,0.8-0.3c0.2-0.2,0.3-0.5,0.3-0.8c0-0.4-0.1-0.7-0.3-0.9c-0.2-0.2-0.5-0.3-0.8-0.3h-0.7V632H-546.6z"/>
</g>
<g class="st4">
	<path d="M-477.6,629.3c0.2,0,0.5,0,0.7,0.1c0.2,0,0.4,0.1,0.6,0.2l-0.2,0.6c-0.2-0.1-0.3-0.1-0.5-0.2c-0.2,0-0.4-0.1-0.6-0.1
		c-0.4,0-0.7,0.2-0.9,0.5c-0.2,0.3-0.4,0.8-0.4,1.3v0.5c0.2-0.2,0.4-0.3,0.6-0.4c0.2-0.1,0.5-0.1,0.8-0.1c0.5,0,1,0.2,1.3,0.5
		c0.3,0.4,0.5,0.8,0.5,1.4c0,0.6-0.2,1.1-0.5,1.5c-0.3,0.4-0.8,0.6-1.4,0.6c-0.6,0-1.1-0.2-1.4-0.7c-0.4-0.4-0.6-1-0.6-1.8v-1.4
		c0-0.7,0.2-1.3,0.6-1.8C-478.7,629.5-478.2,629.3-477.6,629.3z M-477.8,632.2c-0.3,0-0.5,0.1-0.7,0.2c-0.2,0.1-0.3,0.3-0.4,0.5v0.4
		c0,0.5,0.1,0.9,0.3,1.2c0.2,0.3,0.5,0.5,0.8,0.5c0.3,0,0.6-0.1,0.8-0.4c0.2-0.3,0.3-0.6,0.3-1c0-0.4-0.1-0.7-0.3-1
		S-477.4,632.2-477.8,632.2z"/>
</g>
<g class="st4">
	<path d="M-416.6,635c0.4,0,0.7-0.1,1-0.4c0.2-0.3,0.4-0.7,0.4-1.2v-0.5c-0.1,0.2-0.3,0.4-0.5,0.5s-0.4,0.2-0.7,0.2
		c-0.6,0-1.1-0.2-1.4-0.6s-0.5-0.9-0.5-1.5c0-0.6,0.2-1.1,0.5-1.5c0.4-0.4,0.8-0.6,1.3-0.6c0.6,0,1.1,0.2,1.5,0.6
		c0.4,0.4,0.6,0.9,0.6,1.6v1.9c0,0.7-0.2,1.3-0.6,1.7s-0.9,0.6-1.6,0.6c-0.2,0-0.4,0-0.7-0.1c-0.2,0-0.4-0.1-0.6-0.2l0.1-0.6
		c0.2,0.1,0.4,0.2,0.6,0.2S-416.8,635-416.6,635z M-416.4,632.8c0.3,0,0.5-0.1,0.7-0.2c0.2-0.1,0.3-0.3,0.4-0.5v-0.7
		c0-0.5-0.1-0.8-0.3-1.1s-0.5-0.4-0.9-0.4c-0.3,0-0.6,0.1-0.8,0.4c-0.2,0.3-0.3,0.6-0.3,1.1c0,0.4,0.1,0.8,0.3,1
		C-417,632.7-416.7,632.8-416.4,632.8z"/>
</g>
<g class="st4">
	<path d="M-357.4,635.6h-0.8v-5.4l-1.3,0v-0.6l2.2-0.2V635.6z"/>
	<path d="M-351,635.6h-3.8V635l1.9-2.3c0.3-0.4,0.6-0.8,0.7-1c0.1-0.2,0.2-0.5,0.2-0.8c0-0.3-0.1-0.5-0.3-0.7
		c-0.2-0.2-0.4-0.3-0.7-0.3c-0.4,0-0.6,0.1-0.8,0.3c-0.2,0.2-0.3,0.5-0.3,0.8h-0.8l0,0c0-0.5,0.2-0.9,0.5-1.3
		c0.4-0.4,0.8-0.5,1.4-0.5c0.6,0,1,0.2,1.3,0.5c0.3,0.3,0.5,0.7,0.5,1.2c0,0.3-0.1,0.6-0.3,1s-0.5,0.7-0.8,1.2l-1.6,1.8l0,0h2.8
		V635.6z"/>
</g>
<g class="st4">
	<path d="M-332,634.4L-332,634.4l2-5h1v6.2h-0.8v-4.6l0,0l-1.9,4.6h-0.6l-1.9-4.8l0,0v4.8h-0.8v-6.2h1.1L-332,634.4z"/>
	<path d="M-327.8,633.2c0-0.7,0.2-1.2,0.6-1.7s0.9-0.7,1.5-0.7c0.6,0,1.1,0.2,1.5,0.7s0.6,1,0.6,1.7v0.1c0,0.7-0.2,1.2-0.6,1.7
		c-0.4,0.4-0.9,0.7-1.5,0.7s-1.1-0.2-1.5-0.7C-327.7,634.5-327.8,634-327.8,633.2L-327.8,633.2z M-327,633.3c0,0.5,0.1,0.9,0.3,1.2
		s0.5,0.5,0.9,0.5c0.4,0,0.7-0.2,0.9-0.5s0.3-0.7,0.3-1.2v-0.1c0-0.5-0.1-0.9-0.3-1.2s-0.5-0.5-0.9-0.5c-0.4,0-0.7,0.2-0.9,0.5
		S-327,632.7-327,633.3L-327,633.3z"/>
	<path d="M-321.9,631l0.1,0.7c0.2-0.2,0.3-0.4,0.6-0.6c0.2-0.1,0.5-0.2,0.8-0.2c0.5,0,0.9,0.1,1.2,0.4c0.3,0.3,0.4,0.7,0.4,1.3v2.9
		h-0.8v-2.9c0-0.4-0.1-0.7-0.2-0.9s-0.4-0.3-0.7-0.3c-0.3,0-0.5,0.1-0.7,0.2c-0.2,0.1-0.3,0.2-0.4,0.4v3.4h-0.8V631H-321.9z"/>
	<path d="M-316.6,629.8v1.1h0.9v0.6h-0.9v2.8c0,0.2,0,0.4,0.1,0.5c0.1,0.1,0.2,0.1,0.4,0.1c0,0,0.1,0,0.2,0s0.1,0,0.1,0l0.1,0.6
		c-0.1,0.1-0.2,0.1-0.3,0.1c-0.1,0-0.2,0-0.4,0c-0.3,0-0.6-0.1-0.8-0.3c-0.2-0.2-0.3-0.5-0.3-1v-2.8h-0.7V631h0.7v-1.1H-316.6z"/>
	<path d="M-314,631.6c0.2-0.2,0.4-0.4,0.6-0.5c0.2-0.1,0.5-0.2,0.8-0.2c0.5,0,0.9,0.1,1.1,0.4c0.3,0.3,0.4,0.7,0.4,1.4v2.9h-0.8
		v-2.9c0-0.4-0.1-0.7-0.2-0.8c-0.2-0.2-0.4-0.3-0.7-0.3c-0.2,0-0.5,0-0.7,0.1c-0.2,0.1-0.3,0.2-0.4,0.4v3.4h-0.8v-6.6h0.8V631.6z"/>
	<path d="M-307.2,634.3c0-0.2-0.1-0.3-0.2-0.5s-0.4-0.2-0.8-0.3c-0.5-0.1-1-0.3-1.2-0.5c-0.3-0.2-0.4-0.5-0.4-0.8
		c0-0.4,0.2-0.7,0.5-1c0.3-0.3,0.7-0.4,1.2-0.4c0.5,0,0.9,0.1,1.3,0.4c0.3,0.3,0.5,0.6,0.5,1l0,0h-0.8c0-0.2-0.1-0.4-0.3-0.5
		c-0.2-0.2-0.4-0.2-0.7-0.2c-0.3,0-0.5,0.1-0.7,0.2c-0.1,0.1-0.2,0.3-0.2,0.5c0,0.2,0.1,0.3,0.2,0.4c0.1,0.1,0.4,0.2,0.8,0.3
		c0.6,0.1,1,0.3,1.3,0.5c0.3,0.2,0.4,0.5,0.4,0.9c0,0.4-0.2,0.7-0.5,1c-0.3,0.3-0.8,0.4-1.3,0.4c-0.6,0-1-0.1-1.4-0.4
		s-0.5-0.6-0.5-1l0,0h0.8c0,0.3,0.1,0.5,0.3,0.7c0.2,0.1,0.4,0.2,0.7,0.2c0.3,0,0.5-0.1,0.7-0.2
		C-307.3,634.7-307.2,634.5-307.2,634.3z"/>
</g>
<g class="st4">
	<path d="M-557.5,455.8h-2.9v-0.8h2.9V455.8z"/>
	<path d="M-551.5,458.4h-4.4v-0.7l2.2-2.7c0.4-0.5,0.7-0.9,0.8-1.2c0.1-0.3,0.2-0.6,0.2-0.9c0-0.3-0.1-0.6-0.3-0.8
		c-0.2-0.2-0.5-0.3-0.8-0.3c-0.4,0-0.7,0.1-1,0.4s-0.3,0.6-0.3,1h-0.9l0,0c0-0.6,0.2-1.1,0.6-1.5c0.4-0.4,1-0.6,1.6-0.6
		c0.6,0,1.1,0.2,1.5,0.5s0.5,0.8,0.5,1.4c0,0.4-0.1,0.7-0.3,1.1s-0.5,0.8-0.9,1.3l-1.8,2.1l0,0h3.2V458.4z"/>
	<path d="M-549.3,458.4h-1v-1h1V458.4z"/>
	<path d="M-543.1,452.1c-0.9,1.1-1.5,2-1.8,2.8s-0.5,1.7-0.5,2.7v0.8h-1v-0.8c0-1.1,0.2-2,0.6-2.9c0.4-0.9,1-1.8,1.7-2.7h-3.8v-0.8
		h4.7V452.1z"/>
</g>
<g class="st4">
	<path d="M-484.8,476h-2.9v-0.8h2.9V476z"/>
	<path d="M-479.6,476.2h1v0.8h-1v1.6h-1V477h-3.1v-0.5l3-4.9h1V476.2z M-482.6,476.2h2v-3.3l0,0l-0.1,0.2L-482.6,476.2z"/>
	<path d="M-476.6,478.6h-1v-1h1V478.6z"/>
	<path d="M-470.8,473.3c0,0.4-0.1,0.7-0.3,1c-0.2,0.3-0.5,0.5-0.8,0.6c0.4,0.1,0.7,0.4,1,0.7s0.4,0.7,0.4,1.1c0,0.7-0.2,1.2-0.6,1.5
		s-1,0.5-1.6,0.5c-0.7,0-1.3-0.2-1.7-0.5s-0.7-0.9-0.7-1.5c0-0.4,0.1-0.8,0.4-1.1s0.6-0.5,1-0.7c-0.4-0.1-0.7-0.3-0.9-0.6
		c-0.2-0.3-0.3-0.6-0.3-1c0-0.6,0.2-1.1,0.6-1.4s0.9-0.5,1.6-0.5c0.6,0,1.1,0.2,1.5,0.5C-470.9,472.2-470.8,472.7-470.8,473.3z
		 M-471.5,476.6c0-0.4-0.1-0.7-0.4-1s-0.6-0.4-0.9-0.4c-0.4,0-0.7,0.1-1,0.4s-0.4,0.6-0.4,1c0,0.4,0.1,0.7,0.4,1s0.6,0.4,1,0.4
		c0.4,0,0.7-0.1,0.9-0.4C-471.6,477.4-471.5,477-471.5,476.6z M-471.7,473.3c0-0.3-0.1-0.6-0.3-0.8s-0.5-0.3-0.8-0.3
		c-0.3,0-0.6,0.1-0.9,0.3c-0.2,0.2-0.3,0.5-0.3,0.9c0,0.4,0.1,0.7,0.3,0.9s0.5,0.3,0.9,0.3c0.3,0,0.6-0.1,0.8-0.3
		S-471.7,473.7-471.7,473.3z"/>
</g>
<g class="st4">
	<path d="M-422.9,489.4h-2.9v-0.8h2.9V489.4z"/>
	<path d="M-421.2,488.9l0.4-4h3.6v0.9h-2.7l-0.2,2c0.2-0.1,0.3-0.2,0.5-0.3c0.2-0.1,0.4-0.1,0.6-0.1c0.7,0,1.2,0.2,1.5,0.6
		c0.4,0.4,0.6,1,0.6,1.7c0,0.7-0.2,1.3-0.6,1.7s-0.9,0.6-1.7,0.6c-0.6,0-1.1-0.2-1.5-0.5s-0.6-0.8-0.6-1.5l0,0h0.9
		c0,0.4,0.1,0.7,0.3,0.9c0.2,0.2,0.5,0.3,0.9,0.3c0.4,0,0.7-0.1,0.9-0.4s0.3-0.7,0.3-1.2c0-0.5-0.1-0.8-0.3-1.1s-0.5-0.4-0.9-0.4
		c-0.4,0-0.7,0.1-0.8,0.2s-0.3,0.3-0.4,0.5L-421.2,488.9z"/>
	<path d="M-414.7,492.1h-1v-1h1V492.1z"/>
	<path d="M-409.4,489.7h1v0.8h-1v1.6h-1v-1.6h-3.1v-0.5l3-4.9h1V489.7z M-412.4,489.7h2v-3.3l0,0l-0.1,0.2L-412.4,489.7z"/>
</g>
<g class="st4">
	<path d="M-365,499.6h-2.9v-0.8h2.9V499.6z"/>
	<path d="M-361.1,495c0.3,0,0.6,0,0.8,0.1s0.5,0.1,0.7,0.2l-0.2,0.7c-0.2-0.1-0.4-0.1-0.6-0.2c-0.2-0.1-0.4-0.1-0.7-0.1
		c-0.4,0-0.8,0.2-1.1,0.6s-0.4,0.9-0.4,1.4v0.6c0.2-0.2,0.4-0.4,0.7-0.5s0.6-0.2,0.9-0.2c0.6,0,1.1,0.2,1.5,0.6s0.5,0.9,0.5,1.6
		c0,0.7-0.2,1.3-0.6,1.7c-0.4,0.4-0.9,0.7-1.6,0.7c-0.7,0-1.2-0.3-1.7-0.7c-0.4-0.5-0.7-1.2-0.7-2v-1.6c0-0.8,0.2-1.5,0.7-2.1
		S-361.8,495-361.1,495z M-361.3,498.4c-0.3,0-0.6,0.1-0.8,0.2c-0.2,0.1-0.4,0.3-0.5,0.5v0.5c0,0.6,0.1,1.1,0.4,1.4
		c0.3,0.3,0.6,0.5,1,0.5c0.4,0,0.7-0.2,0.9-0.5c0.2-0.3,0.3-0.7,0.3-1.2c0-0.5-0.1-0.8-0.3-1.1S-360.9,498.4-361.3,498.4z"/>
	<path d="M-356.8,502.2h-1v-1h1V502.2z"/>
	<path d="M-350.7,495.8c-0.9,1.1-1.5,2-1.8,2.8s-0.5,1.7-0.5,2.7v0.8h-1v-0.8c0-1.1,0.2-2,0.6-2.9c0.4-0.9,1-1.8,1.7-2.7h-3.8v-0.8
		h4.7V495.8z"/>
</g>
<g class="st4">
	<path d="M-367.1,594.9h-2.9v-0.8h2.9V594.9z"/>
	<path d="M-362.8,597.5h-1v-6.2l-1.5,0v-0.7l2.5-0.3V597.5z"/>
	<path d="M-357.9,593.5c0.4,0,0.7-0.1,0.9-0.3c0.2-0.2,0.3-0.5,0.3-0.9c0-0.4-0.1-0.6-0.3-0.9c-0.2-0.2-0.5-0.3-0.9-0.3
		c-0.4,0-0.7,0.1-0.9,0.3c-0.2,0.2-0.4,0.5-0.4,0.9h-0.9l0,0c0-0.5,0.2-1,0.6-1.4s1-0.6,1.6-0.6c0.7,0,1.2,0.2,1.6,0.5
		c0.4,0.3,0.6,0.8,0.6,1.5c0,0.3-0.1,0.6-0.3,0.9s-0.4,0.5-0.7,0.6c0.4,0.1,0.6,0.4,0.8,0.7c0.2,0.3,0.3,0.6,0.3,1.1
		c0,0.7-0.2,1.2-0.6,1.5c-0.4,0.4-0.9,0.6-1.6,0.6c-0.6,0-1.1-0.2-1.6-0.5c-0.5-0.4-0.7-0.8-0.7-1.4l0,0h0.9c0,0.3,0.1,0.6,0.4,0.9
		c0.2,0.2,0.6,0.4,1,0.4c0.4,0,0.7-0.1,0.9-0.4c0.2-0.2,0.3-0.6,0.3-0.9c0-0.4-0.1-0.8-0.3-1s-0.5-0.3-1-0.3h-0.8v-0.7H-357.9z"/>
	<path d="M-353.3,597.5h-1v-1h1V597.5z"/>
	<path d="M-348,595.1h1v0.8h-1v1.6h-1v-1.6h-3.1v-0.5l3-4.9h1V595.1z M-351,595.1h2v-3.3l0,0l-0.1,0.2L-351,595.1z"/>
</g>
<g class="st4">
	<path d="M-425,586h-2.9v-0.8h2.9V586z"/>
	<path d="M-420.8,588.6h-1v-6.2l-1.5,0v-0.7l2.5-0.3V588.6z"/>
	<path d="M-413.5,586.1c0,0.8-0.2,1.4-0.6,1.9s-1,0.7-1.6,0.7c-0.7,0-1.2-0.2-1.6-0.7s-0.6-1.1-0.6-1.9V584c0-0.8,0.2-1.4,0.6-1.9
		s1-0.7,1.6-0.7c0.7,0,1.2,0.2,1.7,0.7s0.6,1.1,0.6,1.9V586.1z M-414.5,583.8c0-0.5-0.1-0.9-0.3-1.2s-0.6-0.4-1-0.4
		c-0.4,0-0.7,0.1-1,0.4s-0.3,0.7-0.3,1.2v2.5c0,0.5,0.1,0.9,0.3,1.2s0.5,0.4,1,0.4c0.4,0,0.7-0.1,1-0.4c0.2-0.3,0.3-0.7,0.3-1.2
		V583.8z"/>
	<path d="M-411.2,588.6h-1v-1h1V588.6z"/>
	<path d="M-405.1,582.2c-0.9,1.1-1.5,2-1.8,2.8s-0.5,1.7-0.5,2.7v0.8h-1v-0.8c0-1.1,0.2-2,0.6-2.9c0.4-0.9,1-1.8,1.7-2.7h-3.8v-0.8
		h4.7V582.2z"/>
</g>
<g class="st4">
	<path d="M-484.7,567.6h-2.9v-0.8h2.9V567.6z"/>
	<path d="M-478.9,564.9c0,0.4-0.1,0.7-0.3,1c-0.2,0.3-0.5,0.5-0.8,0.6c0.4,0.1,0.7,0.4,1,0.7s0.4,0.7,0.4,1.1c0,0.7-0.2,1.2-0.6,1.5
		s-1,0.5-1.6,0.5c-0.7,0-1.3-0.2-1.7-0.5s-0.7-0.9-0.7-1.5c0-0.4,0.1-0.8,0.4-1.1s0.6-0.5,1-0.7c-0.4-0.1-0.7-0.3-0.9-0.6
		c-0.2-0.3-0.3-0.6-0.3-1c0-0.6,0.2-1.1,0.6-1.4s0.9-0.5,1.6-0.5c0.6,0,1.1,0.2,1.5,0.5C-479.1,563.8-478.9,564.3-478.9,564.9z
		 M-479.7,568.2c0-0.4-0.1-0.7-0.4-1s-0.6-0.4-0.9-0.4c-0.4,0-0.7,0.1-1,0.4s-0.4,0.6-0.4,1c0,0.4,0.1,0.7,0.4,1s0.6,0.4,1,0.4
		c0.4,0,0.7-0.1,0.9-0.4C-479.8,569-479.7,568.6-479.7,568.2z M-479.9,564.9c0-0.3-0.1-0.6-0.3-0.8s-0.5-0.3-0.8-0.3
		c-0.3,0-0.6,0.1-0.9,0.3c-0.2,0.2-0.3,0.5-0.3,0.9c0,0.4,0.1,0.7,0.3,0.9s0.5,0.3,0.9,0.3c0.3,0,0.6-0.1,0.8-0.3
		S-479.9,565.3-479.9,564.9z"/>
	<path d="M-476.5,570.2h-1v-1h1V570.2z"/>
	<path d="M-470.6,564.9c0,0.4-0.1,0.7-0.3,1c-0.2,0.3-0.5,0.5-0.8,0.6c0.4,0.1,0.7,0.4,1,0.7s0.4,0.7,0.4,1.1c0,0.7-0.2,1.2-0.6,1.5
		s-1,0.5-1.6,0.5c-0.7,0-1.3-0.2-1.7-0.5s-0.7-0.9-0.7-1.5c0-0.4,0.1-0.8,0.4-1.1s0.6-0.5,1-0.7c-0.4-0.1-0.7-0.3-0.9-0.6
		c-0.2-0.3-0.3-0.6-0.3-1c0-0.6,0.2-1.1,0.6-1.4s0.9-0.5,1.6-0.5c0.6,0,1.1,0.2,1.5,0.5C-470.8,563.8-470.6,564.3-470.6,564.9z
		 M-471.4,568.2c0-0.4-0.1-0.7-0.4-1s-0.6-0.4-0.9-0.4c-0.4,0-0.7,0.1-1,0.4s-0.4,0.6-0.4,1c0,0.4,0.1,0.7,0.4,1s0.6,0.4,1,0.4
		c0.4,0,0.7-0.1,0.9-0.4C-471.5,569-471.4,568.6-471.4,568.2z M-471.6,564.9c0-0.3-0.1-0.6-0.3-0.8s-0.5-0.3-0.8-0.3
		c-0.3,0-0.6,0.1-0.9,0.3c-0.2,0.2-0.3,0.5-0.3,0.9c0,0.4,0.1,0.7,0.3,0.9s0.5,0.3,0.9,0.3c0.3,0,0.6-0.1,0.8-0.3
		S-471.6,565.3-471.6,564.9z"/>
</g>
<g class="st4">
	<path d="M-554.5,522.5h-2.9v-0.8h2.9V522.5z"/>
	<path d="M-550.6,517.9c0.3,0,0.6,0,0.8,0.1s0.5,0.1,0.7,0.2l-0.2,0.7c-0.2-0.1-0.4-0.1-0.6-0.2c-0.2-0.1-0.4-0.1-0.7-0.1
		c-0.4,0-0.8,0.2-1.1,0.6s-0.4,0.9-0.4,1.4v0.6c0.2-0.2,0.4-0.4,0.7-0.5s0.6-0.2,0.9-0.2c0.6,0,1.1,0.2,1.5,0.6s0.5,0.9,0.5,1.6
		c0,0.7-0.2,1.3-0.6,1.7c-0.4,0.4-0.9,0.7-1.6,0.7c-0.7,0-1.2-0.3-1.7-0.7c-0.4-0.5-0.7-1.2-0.7-2v-1.6c0-0.8,0.2-1.5,0.7-2.1
		S-551.3,517.9-550.6,517.9z M-550.8,521.3c-0.3,0-0.6,0.1-0.8,0.2c-0.2,0.1-0.4,0.3-0.5,0.5v0.5c0,0.6,0.1,1.1,0.4,1.4
		c0.3,0.3,0.6,0.5,1,0.5c0.4,0,0.7-0.2,0.9-0.5c0.2-0.3,0.3-0.7,0.3-1.2c0-0.5-0.1-0.8-0.3-1.1S-550.4,521.3-550.8,521.3z"/>
</g>
<image style="overflow:visible;opacity:0.11;enable-background:new    ;" width="186" height="185" xlink:href="CFF9A1A5.png"  transform="matrix(0.2387 0 0 0.2387 -641.2765 402.2052)">
</image>
<circle class="st5" cx="-619.2" cy="424.2" r="11.1"/>
<circle cx="-619.2" cy="424.2" r="7"/>
<polyline class="st6" points="-332.6,613.4 -327.6,616.5 -332.6,619.8 "/>
<g class="st4">
	<path d="M-590.4,593.5h-0.8l-3-4.7l0,0v4.7h-0.8v-6.2h0.8l3,4.7l0,0v-4.7h0.8V593.5z"/>
	<path d="M-589.2,591.2c0-0.7,0.2-1.2,0.6-1.7s0.9-0.7,1.5-0.7c0.6,0,1.1,0.2,1.5,0.7s0.6,1,0.6,1.7v0.1c0,0.7-0.2,1.2-0.6,1.7
		c-0.4,0.4-0.9,0.7-1.5,0.7s-1.1-0.2-1.5-0.7C-589.1,592.5-589.2,591.9-589.2,591.2L-589.2,591.2z M-588.4,591.3
		c0,0.5,0.1,0.9,0.3,1.2s0.5,0.5,0.9,0.5c0.4,0,0.7-0.2,0.9-0.5s0.3-0.7,0.3-1.2v-0.1c0-0.5-0.1-0.9-0.3-1.2s-0.5-0.5-0.9-0.5
		c-0.4,0-0.7,0.2-0.9,0.5S-588.4,590.7-588.4,591.3L-588.4,591.3z"/>
	<path d="M-583.3,588.9l0.1,0.7c0.2-0.2,0.3-0.4,0.6-0.6c0.2-0.1,0.5-0.2,0.8-0.2c0.5,0,0.9,0.1,1.2,0.4c0.3,0.3,0.4,0.7,0.4,1.3
		v2.9h-0.8v-2.9c0-0.4-0.1-0.7-0.2-0.9s-0.4-0.3-0.7-0.3c-0.3,0-0.5,0.1-0.7,0.2c-0.2,0.1-0.3,0.2-0.4,0.4v3.4h-0.8v-4.6H-583.3z"/>
	<path d="M-576.5,591.2h-2.5v-0.7h2.5V591.2z"/>
	<path d="M-574.3,591v2.5h-0.8v-6.2h2.4c0.7,0,1.2,0.2,1.5,0.5c0.4,0.3,0.6,0.8,0.6,1.3c0,0.6-0.2,1-0.6,1.3
		c-0.4,0.3-0.9,0.5-1.5,0.5H-574.3z M-574.3,590.4h1.5c0.4,0,0.7-0.1,0.9-0.3s0.3-0.5,0.3-0.9c0-0.3-0.1-0.6-0.3-0.9
		s-0.5-0.3-0.9-0.3h-1.5V590.4z"/>
	<path d="M-568.8,589.5c0.2-0.2,0.4-0.4,0.6-0.5c0.2-0.1,0.5-0.2,0.8-0.2c0.5,0,0.9,0.1,1.1,0.4c0.3,0.3,0.4,0.7,0.4,1.4v2.9h-0.8
		v-2.9c0-0.4-0.1-0.7-0.2-0.8c-0.2-0.2-0.4-0.3-0.7-0.3c-0.2,0-0.5,0-0.7,0.1c-0.2,0.1-0.3,0.2-0.4,0.4v3.4h-0.8v-6.6h0.8V589.5z"/>
	<path d="M-562.8,593.6c-0.7,0-1.2-0.2-1.5-0.6c-0.4-0.4-0.6-1-0.6-1.7v-0.2c0-0.7,0.2-1.2,0.6-1.6s0.8-0.6,1.4-0.6
		c0.6,0,1.1,0.2,1.4,0.6s0.5,0.9,0.5,1.5v0.4h-2.9l0,0c0,0.5,0.1,0.8,0.3,1.1c0.2,0.3,0.5,0.4,0.9,0.4c0.3,0,0.5,0,0.7-0.1
		c0.2-0.1,0.4-0.2,0.6-0.3l0.3,0.5c-0.2,0.2-0.4,0.3-0.7,0.4S-562.4,593.6-562.8,593.6z M-563,589.5c-0.3,0-0.5,0.1-0.7,0.3
		c-0.2,0.2-0.3,0.5-0.4,0.9l0,0h2.1v-0.1c0-0.3-0.1-0.6-0.2-0.8C-562.4,589.6-562.6,589.5-563,589.5z"/>
	<path d="M-559.4,588.9l0.1,0.7c0.2-0.2,0.3-0.4,0.6-0.6c0.2-0.1,0.5-0.2,0.8-0.2c0.5,0,0.9,0.1,1.2,0.4c0.3,0.3,0.4,0.7,0.4,1.3
		v2.9h-0.8v-2.9c0-0.4-0.1-0.7-0.2-0.9s-0.4-0.3-0.7-0.3c-0.3,0-0.5,0.1-0.7,0.2c-0.2,0.1-0.3,0.2-0.4,0.4v3.4h-0.8v-4.6H-559.4z"/>
	<path d="M-555.4,591.2c0-0.7,0.2-1.2,0.6-1.7s0.9-0.7,1.5-0.7c0.6,0,1.1,0.2,1.5,0.7s0.6,1,0.6,1.7v0.1c0,0.7-0.2,1.2-0.6,1.7
		c-0.4,0.4-0.9,0.7-1.5,0.7s-1.1-0.2-1.5-0.7C-555.2,592.5-555.4,591.9-555.4,591.2L-555.4,591.2z M-554.6,591.3
		c0,0.5,0.1,0.9,0.3,1.2s0.5,0.5,0.9,0.5c0.4,0,0.7-0.2,0.9-0.5s0.3-0.7,0.3-1.2v-0.1c0-0.5-0.1-0.9-0.3-1.2s-0.5-0.5-0.9-0.5
		c-0.4,0-0.7,0.2-0.9,0.5S-554.6,590.7-554.6,591.3L-554.6,591.3z"/>
	<path d="M-549.1,587.8v1.1h0.9v0.6h-0.9v2.8c0,0.2,0,0.4,0.1,0.5c0.1,0.1,0.2,0.1,0.4,0.1c0,0,0.1,0,0.2,0s0.1,0,0.1,0l0.1,0.6
		c-0.1,0.1-0.2,0.1-0.3,0.1c-0.1,0-0.2,0-0.4,0c-0.3,0-0.6-0.1-0.8-0.3c-0.2-0.2-0.3-0.5-0.3-1v-2.8h-0.7v-0.6h0.7v-1.1H-549.1z"/>
	<path d="M-545.9,591.8l0.1,0.6h0l1.1-3.5h0.9l-1.9,5.3c-0.1,0.3-0.3,0.6-0.5,0.8c-0.2,0.2-0.5,0.3-0.9,0.3c-0.1,0-0.2,0-0.3,0
		c-0.1,0-0.2,0-0.2,0l0.1-0.7c0,0,0,0,0.2,0c0.1,0,0.2,0,0.2,0c0.2,0,0.3-0.1,0.4-0.2c0.1-0.2,0.2-0.3,0.3-0.5l0.2-0.5l-1.7-4.5h0.9
		L-545.9,591.8z"/>
	<path d="M-539,591.4c0,0.7-0.2,1.2-0.5,1.6c-0.3,0.4-0.8,0.6-1.3,0.6c-0.3,0-0.5,0-0.7-0.1c-0.2-0.1-0.4-0.2-0.5-0.4v2.3h-0.8v-6.4
		h0.6l0.1,0.6c0.1-0.2,0.3-0.4,0.6-0.5c0.2-0.1,0.5-0.2,0.8-0.2c0.6,0,1,0.2,1.3,0.7C-539.2,590-539,590.6-539,591.4L-539,591.4z
		 M-539.9,591.3c0-0.5-0.1-1-0.3-1.3s-0.5-0.5-0.9-0.5c-0.2,0-0.4,0.1-0.6,0.2c-0.2,0.1-0.3,0.3-0.4,0.4v2.2
		c0.1,0.2,0.2,0.3,0.4,0.4c0.2,0.1,0.4,0.2,0.6,0.2c0.4,0,0.7-0.1,0.9-0.4C-540,592.2-539.9,591.8-539.9,591.3L-539.9,591.3z"/>
	<path d="M-536.1,593.6c-0.7,0-1.2-0.2-1.5-0.6c-0.4-0.4-0.6-1-0.6-1.7v-0.2c0-0.7,0.2-1.2,0.6-1.6s0.8-0.6,1.4-0.6
		c0.6,0,1.1,0.2,1.4,0.6s0.5,0.9,0.5,1.5v0.4h-2.9l0,0c0,0.5,0.1,0.8,0.3,1.1c0.2,0.3,0.5,0.4,0.9,0.4c0.3,0,0.5,0,0.7-0.1
		c0.2-0.1,0.4-0.2,0.6-0.3l0.3,0.5c-0.2,0.2-0.4,0.3-0.7,0.4S-535.7,593.6-536.1,593.6z M-536.2,589.5c-0.3,0-0.5,0.1-0.7,0.3
		c-0.2,0.2-0.3,0.5-0.4,0.9l0,0h2.1v-0.1c0-0.3-0.1-0.6-0.2-0.8C-535.6,589.6-535.9,589.5-536.2,589.5z"/>
	<path d="M-526.7,592.7c-0.1,0.2-0.4,0.4-0.8,0.6c-0.4,0.2-0.8,0.3-1.4,0.3c-0.7,0-1.3-0.2-1.8-0.7s-0.7-1.1-0.7-1.8v-1.3
		c0-0.8,0.2-1.4,0.7-1.8s1-0.7,1.7-0.7c0.7,0,1.2,0.2,1.6,0.6c0.4,0.4,0.6,0.8,0.6,1.4l0,0h-0.8c0-0.4-0.1-0.7-0.4-0.9
		s-0.6-0.4-1-0.4c-0.5,0-0.9,0.2-1.1,0.5s-0.4,0.8-0.4,1.3v1.3c0,0.5,0.2,1,0.5,1.4c0.3,0.4,0.7,0.5,1.2,0.5c0.4,0,0.7,0,0.9-0.1
		c0.2-0.1,0.4-0.2,0.5-0.3v-1.4h-1.4v-0.7h2.2V592.7z"/>
	<path d="M-522.5,592.8c-0.1,0.2-0.3,0.4-0.6,0.6c-0.2,0.1-0.5,0.2-0.8,0.2c-0.5,0-0.9-0.2-1.2-0.5s-0.4-0.8-0.4-1.5v-2.7h0.8v2.7
		c0,0.5,0.1,0.8,0.2,1c0.1,0.2,0.4,0.3,0.7,0.3c0.3,0,0.5-0.1,0.7-0.2c0.2-0.1,0.3-0.3,0.4-0.5v-3.3h0.8v4.6h-0.8L-522.5,592.8z"/>
	<path d="M-519.5,587.7h-0.8v-0.9h0.8V587.7z M-519.5,593.5h-0.8v-4.6h0.8V593.5z"/>
	<path d="M-518.4,591.3c0-0.7,0.2-1.3,0.5-1.8c0.3-0.5,0.8-0.7,1.3-0.7c0.3,0,0.5,0,0.7,0.1c0.2,0.1,0.4,0.2,0.5,0.4v-2.5h0.8v6.6
		h-0.6l-0.1-0.6c-0.2,0.2-0.3,0.4-0.6,0.5s-0.5,0.2-0.8,0.2c-0.6,0-1-0.2-1.3-0.6C-518.3,592.6-518.4,592.1-518.4,591.3
		L-518.4,591.3z M-517.6,591.4c0,0.5,0.1,0.8,0.3,1.1s0.5,0.4,0.9,0.4c0.2,0,0.5-0.1,0.6-0.2c0.2-0.1,0.3-0.3,0.4-0.5v-2.1
		c-0.1-0.2-0.2-0.3-0.4-0.5c-0.2-0.1-0.4-0.2-0.6-0.2c-0.4,0-0.7,0.2-0.9,0.5S-517.6,590.8-517.6,591.4L-517.6,591.4z"/>
	<path d="M-511.4,593.6c-0.7,0-1.2-0.2-1.5-0.6c-0.4-0.4-0.6-1-0.6-1.7v-0.2c0-0.7,0.2-1.2,0.6-1.6s0.8-0.6,1.4-0.6
		c0.6,0,1.1,0.2,1.4,0.6s0.5,0.9,0.5,1.5v0.4h-2.9l0,0c0,0.5,0.1,0.8,0.3,1.1c0.2,0.3,0.5,0.4,0.9,0.4c0.3,0,0.5,0,0.7-0.1
		c0.2-0.1,0.4-0.2,0.6-0.3l0.3,0.5c-0.2,0.2-0.4,0.3-0.7,0.4S-511,593.6-511.4,593.6z M-511.5,589.5c-0.3,0-0.5,0.1-0.7,0.3
		c-0.2,0.2-0.3,0.5-0.4,0.9l0,0h2.1v-0.1c0-0.3-0.1-0.6-0.2-0.8C-510.9,589.6-511.2,589.5-511.5,589.5z"/>
	<path d="M-508.9,591.3c0-0.7,0.2-1.3,0.5-1.8c0.3-0.5,0.8-0.7,1.3-0.7c0.3,0,0.5,0,0.7,0.1c0.2,0.1,0.4,0.2,0.5,0.4v-2.5h0.8v6.6
		h-0.6l-0.1-0.6c-0.2,0.2-0.3,0.4-0.6,0.5s-0.5,0.2-0.8,0.2c-0.6,0-1-0.2-1.3-0.6C-508.8,592.6-508.9,592.1-508.9,591.3
		L-508.9,591.3z M-508.1,591.4c0,0.5,0.1,0.8,0.3,1.1s0.5,0.4,0.9,0.4c0.2,0,0.5-0.1,0.6-0.2c0.2-0.1,0.3-0.3,0.4-0.5v-2.1
		c-0.1-0.2-0.2-0.3-0.4-0.5c-0.2-0.1-0.4-0.2-0.6-0.2c-0.4,0-0.7,0.2-0.9,0.5S-508.1,590.8-508.1,591.4L-508.1,591.4z"/>
</g>
<g class="st4">
	<path d="M-594.1,601.7v2.5h-0.8V598h2.4c0.7,0,1.2,0.2,1.5,0.5c0.4,0.3,0.6,0.8,0.6,1.3c0,0.6-0.2,1-0.6,1.3
		c-0.4,0.3-0.9,0.5-1.5,0.5H-594.1z M-594.1,601h1.5c0.4,0,0.7-0.1,0.9-0.3s0.3-0.5,0.3-0.9c0-0.3-0.1-0.6-0.3-0.9s-0.5-0.3-0.9-0.3
		h-1.5V601z"/>
	<path d="M-588.7,600.2c0.2-0.2,0.4-0.4,0.6-0.5c0.2-0.1,0.5-0.2,0.8-0.2c0.5,0,0.9,0.1,1.1,0.4c0.3,0.3,0.4,0.7,0.4,1.4v2.9h-0.8
		v-2.9c0-0.4-0.1-0.7-0.2-0.8c-0.2-0.2-0.4-0.3-0.7-0.3c-0.2,0-0.5,0-0.7,0.1c-0.2,0.1-0.3,0.2-0.4,0.4v3.4h-0.8v-6.6h0.8V600.2z"/>
	<path d="M-582.7,604.3c-0.7,0-1.2-0.2-1.5-0.6c-0.4-0.4-0.6-1-0.6-1.7v-0.2c0-0.7,0.2-1.2,0.6-1.6s0.8-0.6,1.4-0.6
		c0.6,0,1.1,0.2,1.4,0.6s0.5,0.9,0.5,1.5v0.4h-2.9l0,0c0,0.5,0.1,0.8,0.3,1.1c0.2,0.3,0.5,0.4,0.9,0.4c0.3,0,0.5,0,0.7-0.1
		c0.2-0.1,0.4-0.2,0.6-0.3l0.3,0.5c-0.2,0.2-0.4,0.3-0.7,0.4S-582.3,604.3-582.7,604.3z M-582.8,600.2c-0.3,0-0.5,0.1-0.7,0.3
		c-0.2,0.2-0.3,0.5-0.4,0.9l0,0h2.1v-0.1c0-0.3-0.1-0.6-0.2-0.8C-582.2,600.3-582.5,600.2-582.8,600.2z"/>
	<path d="M-579.3,599.6l0.1,0.7c0.2-0.2,0.3-0.4,0.6-0.6c0.2-0.1,0.5-0.2,0.8-0.2c0.5,0,0.9,0.1,1.2,0.4c0.3,0.3,0.4,0.7,0.4,1.3
		v2.9h-0.8v-2.9c0-0.4-0.1-0.7-0.2-0.9s-0.4-0.3-0.7-0.3c-0.3,0-0.5,0.1-0.7,0.2c-0.2,0.1-0.3,0.2-0.4,0.4v3.4h-0.8v-4.6H-579.3z"/>
	<path d="M-575.3,601.8c0-0.7,0.2-1.2,0.6-1.7s0.9-0.7,1.5-0.7c0.6,0,1.1,0.2,1.5,0.7s0.6,1,0.6,1.7v0.1c0,0.7-0.2,1.2-0.6,1.7
		c-0.4,0.4-0.9,0.7-1.5,0.7s-1.1-0.2-1.5-0.7C-575.1,603.2-575.3,602.6-575.3,601.8L-575.3,601.8z M-574.4,601.9
		c0,0.5,0.1,0.9,0.3,1.2s0.5,0.5,0.9,0.5c0.4,0,0.7-0.2,0.9-0.5s0.3-0.7,0.3-1.2v-0.1c0-0.5-0.1-0.9-0.3-1.2s-0.5-0.5-0.9-0.5
		c-0.4,0-0.7,0.2-0.9,0.5S-574.4,601.4-574.4,601.9L-574.4,601.9z"/>
	<path d="M-569,598.5v1.1h0.9v0.6h-0.9v2.8c0,0.2,0,0.4,0.1,0.5c0.1,0.1,0.2,0.1,0.4,0.1c0,0,0.1,0,0.2,0s0.1,0,0.1,0l0.1,0.6
		c-0.1,0.1-0.2,0.1-0.3,0.1c-0.1,0-0.2,0-0.4,0c-0.3,0-0.6-0.1-0.8-0.3c-0.2-0.2-0.3-0.5-0.3-1v-2.8h-0.7v-0.6h0.7v-1.1H-569z"/>
	<path d="M-565.8,602.5l0.1,0.6h0l1.1-3.5h0.9l-1.9,5.3c-0.1,0.3-0.3,0.6-0.5,0.8c-0.2,0.2-0.5,0.3-0.9,0.3c-0.1,0-0.2,0-0.3,0
		c-0.1,0-0.2,0-0.2,0l0.1-0.7c0,0,0,0,0.2,0c0.1,0,0.2,0,0.2,0c0.2,0,0.3-0.1,0.4-0.2c0.1-0.2,0.2-0.3,0.3-0.5l0.2-0.5l-1.7-4.5h0.9
		L-565.8,602.5z"/>
	<path d="M-558.9,602.1c0,0.7-0.2,1.2-0.5,1.6c-0.3,0.4-0.8,0.6-1.3,0.6c-0.3,0-0.5,0-0.7-0.1c-0.2-0.1-0.4-0.2-0.5-0.4v2.3h-0.8
		v-6.4h0.6l0.1,0.6c0.1-0.2,0.3-0.4,0.6-0.5c0.2-0.1,0.5-0.2,0.8-0.2c0.6,0,1,0.2,1.3,0.7C-559.1,600.6-558.9,601.2-558.9,602.1
		L-558.9,602.1z M-559.7,602c0-0.5-0.1-1-0.3-1.3s-0.5-0.5-0.9-0.5c-0.2,0-0.4,0.1-0.6,0.2c-0.2,0.1-0.3,0.3-0.4,0.4v2.2
		c0.1,0.2,0.2,0.3,0.4,0.4c0.2,0.1,0.4,0.2,0.6,0.2c0.4,0,0.7-0.1,0.9-0.4C-559.8,602.9-559.7,602.5-559.7,602L-559.7,602z"/>
	<path d="M-556,604.3c-0.7,0-1.2-0.2-1.5-0.6c-0.4-0.4-0.6-1-0.6-1.7v-0.2c0-0.7,0.2-1.2,0.6-1.6s0.8-0.6,1.4-0.6
		c0.6,0,1.1,0.2,1.4,0.6s0.5,0.9,0.5,1.5v0.4h-2.9l0,0c0,0.5,0.1,0.8,0.3,1.1c0.2,0.3,0.5,0.4,0.9,0.4c0.3,0,0.5,0,0.7-0.1
		c0.2-0.1,0.4-0.2,0.6-0.3l0.3,0.5c-0.2,0.2-0.4,0.3-0.7,0.4S-555.6,604.3-556,604.3z M-556.1,600.2c-0.3,0-0.5,0.1-0.7,0.3
		c-0.2,0.2-0.3,0.5-0.4,0.9l0,0h2.1v-0.1c0-0.3-0.1-0.6-0.2-0.8C-555.5,600.3-555.8,600.2-556.1,600.2z"/>
	<path d="M-546.6,603.4c-0.1,0.2-0.4,0.4-0.8,0.6c-0.4,0.2-0.8,0.3-1.4,0.3c-0.7,0-1.3-0.2-1.8-0.7s-0.7-1.1-0.7-1.8v-1.3
		c0-0.8,0.2-1.4,0.7-1.8s1-0.7,1.7-0.7c0.7,0,1.2,0.2,1.6,0.6c0.4,0.4,0.6,0.8,0.6,1.4l0,0h-0.8c0-0.4-0.1-0.7-0.4-0.9
		s-0.6-0.4-1-0.4c-0.5,0-0.9,0.2-1.1,0.5s-0.4,0.8-0.4,1.3v1.3c0,0.5,0.2,1,0.5,1.4c0.3,0.4,0.7,0.5,1.2,0.5c0.4,0,0.7,0,0.9-0.1
		c0.2-0.1,0.4-0.2,0.5-0.3v-1.4h-1.4v-0.7h2.2V603.4z"/>
	<path d="M-542.3,603.5c-0.1,0.2-0.3,0.4-0.6,0.6c-0.2,0.1-0.5,0.2-0.8,0.2c-0.5,0-0.9-0.2-1.2-0.5s-0.4-0.8-0.4-1.5v-2.7h0.8v2.7
		c0,0.5,0.1,0.8,0.2,1c0.1,0.2,0.4,0.3,0.7,0.3c0.3,0,0.5-0.1,0.7-0.2c0.2-0.1,0.3-0.3,0.4-0.5v-3.3h0.8v4.6h-0.8L-542.3,603.5z"/>
	<path d="M-539.4,598.4h-0.8v-0.9h0.8V598.4z M-539.4,604.2h-0.8v-4.6h0.8V604.2z"/>
	<path d="M-538.3,602c0-0.7,0.2-1.3,0.5-1.8c0.3-0.5,0.8-0.7,1.3-0.7c0.3,0,0.5,0,0.7,0.1c0.2,0.1,0.4,0.2,0.5,0.4v-2.5h0.8v6.6
		h-0.6l-0.1-0.6c-0.2,0.2-0.3,0.4-0.6,0.5s-0.5,0.2-0.8,0.2c-0.6,0-1-0.2-1.3-0.6C-538.1,603.3-538.3,602.7-538.3,602L-538.3,602z
		 M-537.5,602.1c0,0.5,0.1,0.8,0.3,1.1s0.5,0.4,0.9,0.4c0.2,0,0.5-0.1,0.6-0.2c0.2-0.1,0.3-0.3,0.4-0.5v-2.1
		c-0.1-0.2-0.2-0.3-0.4-0.5c-0.2-0.1-0.4-0.2-0.6-0.2c-0.4,0-0.7,0.2-0.9,0.5S-537.5,601.4-537.5,602.1L-537.5,602.1z"/>
	<path d="M-531.3,604.3c-0.7,0-1.2-0.2-1.5-0.6c-0.4-0.4-0.6-1-0.6-1.7v-0.2c0-0.7,0.2-1.2,0.6-1.6s0.8-0.6,1.4-0.6
		c0.6,0,1.1,0.2,1.4,0.6s0.5,0.9,0.5,1.5v0.4h-2.9l0,0c0,0.5,0.1,0.8,0.3,1.1c0.2,0.3,0.5,0.4,0.9,0.4c0.3,0,0.5,0,0.7-0.1
		c0.2-0.1,0.4-0.2,0.6-0.3l0.3,0.5c-0.2,0.2-0.4,0.3-0.7,0.4S-530.9,604.3-531.3,604.3z M-531.4,600.2c-0.3,0-0.5,0.1-0.7,0.3
		c-0.2,0.2-0.3,0.5-0.4,0.9l0,0h2.1v-0.1c0-0.3-0.1-0.6-0.2-0.8C-530.8,600.3-531,600.2-531.4,600.2z"/>
	<path d="M-528.8,602c0-0.7,0.2-1.3,0.5-1.8c0.3-0.5,0.8-0.7,1.3-0.7c0.3,0,0.5,0,0.7,0.1c0.2,0.1,0.4,0.2,0.5,0.4v-2.5h0.8v6.6
		h-0.6l-0.1-0.6c-0.2,0.2-0.3,0.4-0.6,0.5s-0.5,0.2-0.8,0.2c-0.6,0-1-0.2-1.3-0.6C-528.6,603.3-528.8,602.7-528.8,602L-528.8,602z
		 M-528,602.1c0,0.5,0.1,0.8,0.3,1.1s0.5,0.4,0.9,0.4c0.2,0,0.5-0.1,0.6-0.2c0.2-0.1,0.3-0.3,0.4-0.5v-2.1c-0.1-0.2-0.2-0.3-0.4-0.5
		c-0.2-0.1-0.4-0.2-0.6-0.2c-0.4,0-0.7,0.2-0.9,0.5S-528,601.4-528,602.1L-528,602.1z"/>
</g>
<path class="st2" d="M-608.8,589.3h5.2c0.9,0,1.6,0.7,1.6,1.6l0,0c0,0.9-0.7,1.6-1.6,1.6h-5.2c-0.9,0-1.6-0.7-1.6-1.6l0,0
	C-610.4,590-609.7,589.3-608.8,589.3z"/>
<path class="st1" d="M-608.8,599.7h5.2c0.9,0,1.6,0.7,1.6,1.6l0,0c0,0.9-0.7,1.6-1.6,1.6h-5.2c-0.9,0-1.6-0.7-1.6-1.6l0,0
	C-610.4,600.4-609.7,599.7-608.8,599.7z"/>
<g class="st4">
	<path d="M-576,412.3v3.1h-1.1v-7.8h3c0.8,0,1.5,0.2,1.9,0.6c0.5,0.4,0.7,1,0.7,1.7c0,0.7-0.2,1.3-0.7,1.7c-0.5,0.4-1.1,0.6-1.9,0.6
		H-576z M-576,411.4h1.9c0.5,0,0.9-0.1,1.2-0.4c0.3-0.3,0.4-0.6,0.4-1.1s-0.1-0.8-0.4-1.1c-0.3-0.3-0.7-0.4-1.2-0.4h-1.9V411.4z"/>
	<path d="M-567.9,415.5c-0.8,0-1.5-0.3-2-0.8c-0.5-0.5-0.7-1.2-0.7-2.1v-0.2c0-0.8,0.2-1.5,0.7-2.1c0.5-0.5,1.1-0.8,1.8-0.8
		c0.8,0,1.4,0.2,1.7,0.7c0.4,0.5,0.6,1.1,0.6,1.9v0.6h-3.7l0,0c0,0.6,0.1,1.1,0.4,1.4s0.7,0.5,1.2,0.5c0.4,0,0.7-0.1,0.9-0.2
		c0.3-0.1,0.5-0.2,0.7-0.4l0.4,0.7c-0.2,0.2-0.5,0.4-0.8,0.5S-567.4,415.5-567.9,415.5z M-568.1,410.3c-0.4,0-0.7,0.1-0.9,0.4
		c-0.2,0.3-0.4,0.6-0.4,1.1l0,0h2.6v-0.1c0-0.4-0.1-0.8-0.3-1S-567.6,410.3-568.1,410.3z"/>
	<path d="M-561.8,410.5l-0.5,0c-0.3,0-0.5,0.1-0.7,0.2c-0.2,0.1-0.3,0.3-0.4,0.6v4.2h-1.1v-5.8h0.9l0.1,0.8c0.2-0.3,0.4-0.5,0.6-0.7
		c0.2-0.2,0.5-0.3,0.8-0.3c0.1,0,0.2,0,0.2,0s0.1,0,0.2,0L-561.8,410.5z"/>
	<path d="M-558.5,414.7c0.3,0,0.6-0.1,0.9-0.3s0.4-0.5,0.4-0.8h1l0,0c0,0.5-0.2,0.9-0.6,1.3s-1,0.6-1.5,0.6c-0.8,0-1.4-0.3-1.9-0.8
		s-0.7-1.2-0.7-2.1v-0.2c0-0.8,0.2-1.5,0.7-2.1c0.4-0.6,1.1-0.8,1.9-0.8c0.6,0,1.2,0.2,1.6,0.6c0.4,0.4,0.6,0.9,0.6,1.5l0,0h-1
		c0-0.4-0.1-0.7-0.3-0.9c-0.2-0.2-0.5-0.4-0.9-0.4c-0.5,0-0.9,0.2-1.1,0.6c-0.2,0.4-0.4,0.9-0.4,1.5v0.2c0,0.6,0.1,1.1,0.4,1.5
		C-559.4,414.5-559,414.7-558.5,414.7z"/>
	<path d="M-552.6,415.5c-0.8,0-1.5-0.3-2-0.8c-0.5-0.5-0.7-1.2-0.7-2.1v-0.2c0-0.8,0.2-1.5,0.7-2.1c0.5-0.5,1.1-0.8,1.8-0.8
		c0.8,0,1.4,0.2,1.7,0.7c0.4,0.5,0.6,1.1,0.6,1.9v0.6h-3.7l0,0c0,0.6,0.1,1.1,0.4,1.4s0.7,0.5,1.2,0.5c0.4,0,0.7-0.1,0.9-0.2
		c0.3-0.1,0.5-0.2,0.7-0.4l0.4,0.7c-0.2,0.2-0.5,0.4-0.8,0.5S-552.2,415.5-552.6,415.5z M-552.8,410.3c-0.4,0-0.7,0.1-0.9,0.4
		c-0.2,0.3-0.4,0.6-0.4,1.1l0,0h2.6v-0.1c0-0.4-0.1-0.8-0.3-1S-552.4,410.3-552.8,410.3z"/>
	<path d="M-548.3,409.6l0.1,0.9c0.2-0.3,0.4-0.5,0.7-0.7c0.3-0.2,0.6-0.3,1-0.3c0.6,0,1.1,0.2,1.5,0.6s0.5,0.9,0.5,1.7v3.7h-1.1
		v-3.6c0-0.5-0.1-0.9-0.3-1.1c-0.2-0.2-0.5-0.3-0.9-0.3c-0.3,0-0.6,0.1-0.8,0.2c-0.2,0.1-0.4,0.3-0.5,0.6v4.3h-1.1v-5.8H-548.3z"/>
	<path d="M-541.6,408.2v1.4h1.1v0.8h-1.1v3.5c0,0.3,0.1,0.5,0.2,0.6c0.1,0.1,0.3,0.2,0.4,0.2c0.1,0,0.1,0,0.2,0c0.1,0,0.1,0,0.2-0.1
		l0.1,0.7c-0.1,0.1-0.2,0.1-0.3,0.2s-0.3,0.1-0.5,0.1c-0.4,0-0.8-0.1-1-0.4s-0.4-0.7-0.4-1.2v-3.5h-0.9v-0.8h0.9v-1.4H-541.6z"/>
	<path d="M-535.8,415.4c0-0.2-0.1-0.3-0.1-0.5c0-0.1,0-0.3,0-0.4c-0.2,0.3-0.5,0.5-0.8,0.7c-0.3,0.2-0.7,0.3-1,0.3
		c-0.6,0-1.1-0.2-1.4-0.5c-0.3-0.3-0.5-0.7-0.5-1.3c0-0.6,0.2-1,0.7-1.3c0.4-0.3,1.1-0.5,1.8-0.5h1.1v-0.6c0-0.3-0.1-0.6-0.3-0.8
		c-0.2-0.2-0.5-0.3-0.9-0.3c-0.3,0-0.6,0.1-0.8,0.3s-0.3,0.4-0.3,0.6l-1,0l0,0c0-0.4,0.2-0.8,0.6-1.2c0.4-0.4,1-0.5,1.6-0.5
		c0.7,0,1.2,0.2,1.6,0.5s0.6,0.8,0.6,1.4v2.8c0,0.2,0,0.4,0,0.6s0.1,0.4,0.1,0.6H-535.8z M-537.5,414.6c0.4,0,0.7-0.1,1-0.3
		c0.3-0.2,0.5-0.4,0.6-0.7v-0.9h-1.2c-0.4,0-0.8,0.1-1,0.3c-0.3,0.2-0.4,0.5-0.4,0.8c0,0.3,0.1,0.5,0.2,0.6
		S-537.8,414.6-537.5,414.6z"/>
	<path d="M-533.5,412.6c0-0.9,0.2-1.7,0.6-2.3c0.4-0.6,1-0.9,1.7-0.9c0.4,0,0.7,0.1,1,0.2s0.5,0.4,0.7,0.6l0.1-0.8h0.8v5.8
		c0,0.7-0.2,1.3-0.6,1.7s-1.1,0.6-1.9,0.6c-0.3,0-0.6,0-0.9-0.1c-0.3-0.1-0.6-0.2-0.9-0.3l0.2-0.8c0.2,0.1,0.5,0.2,0.7,0.3
		c0.3,0.1,0.6,0.1,0.9,0.1c0.5,0,0.9-0.1,1.1-0.4c0.2-0.2,0.4-0.6,0.4-1.1v-0.7c-0.2,0.2-0.4,0.4-0.7,0.6s-0.6,0.2-0.9,0.2
		c-0.7,0-1.3-0.3-1.7-0.8c-0.4-0.5-0.6-1.2-0.6-2V412.6z M-532.4,412.7c0,0.6,0.1,1.1,0.4,1.4s0.6,0.5,1.1,0.5
		c0.3,0,0.6-0.1,0.8-0.2c0.2-0.1,0.4-0.4,0.5-0.6v-2.7c-0.1-0.2-0.3-0.4-0.5-0.6c-0.2-0.1-0.5-0.2-0.8-0.2c-0.5,0-0.9,0.2-1.1,0.6
		c-0.2,0.4-0.4,1-0.4,1.6V412.7z"/>
	<path d="M-524.6,415.5c-0.8,0-1.5-0.3-2-0.8c-0.5-0.5-0.7-1.2-0.7-2.1v-0.2c0-0.8,0.2-1.5,0.7-2.1c0.5-0.5,1.1-0.8,1.8-0.8
		c0.8,0,1.4,0.2,1.7,0.7c0.4,0.5,0.6,1.1,0.6,1.9v0.6h-3.7l0,0c0,0.6,0.1,1.1,0.4,1.4s0.7,0.5,1.2,0.5c0.4,0,0.7-0.1,0.9-0.2
		c0.3-0.1,0.5-0.2,0.7-0.4l0.4,0.7c-0.2,0.2-0.5,0.4-0.8,0.5S-524.1,415.5-524.6,415.5z M-524.8,410.3c-0.4,0-0.7,0.1-0.9,0.4
		c-0.2,0.3-0.4,0.6-0.4,1.1l0,0h2.6v-0.1c0-0.4-0.1-0.8-0.3-1S-524.4,410.3-524.8,410.3z"/>
	<path d="M-518.8,412.4c0-0.9,0.2-1.6,0.7-2.1s1.1-0.8,1.9-0.8c0.8,0,1.4,0.3,1.9,0.8c0.5,0.6,0.7,1.3,0.7,2.1v0.1
		c0,0.9-0.2,1.6-0.7,2.1c-0.5,0.6-1.1,0.8-1.9,0.8s-1.4-0.3-1.9-0.8c-0.5-0.6-0.7-1.3-0.7-2.1V412.4z M-517.7,412.6
		c0,0.6,0.1,1.1,0.4,1.5c0.3,0.4,0.6,0.6,1.2,0.6c0.5,0,0.9-0.2,1.1-0.6c0.3-0.4,0.4-0.9,0.4-1.5v-0.1c0-0.6-0.1-1.1-0.4-1.5
		c-0.3-0.4-0.6-0.6-1.2-0.6c-0.5,0-0.9,0.2-1.1,0.6c-0.3,0.4-0.4,0.9-0.4,1.5V412.6z"/>
	<path d="M-511.8,415.4v-5h-0.9v-0.8h0.9v-0.7c0-0.6,0.2-1.1,0.5-1.4c0.3-0.3,0.8-0.5,1.4-0.5c0.1,0,0.2,0,0.4,0
		c0.1,0,0.3,0,0.4,0.1l-0.1,0.8c-0.1,0-0.1,0-0.2,0c-0.1,0-0.2,0-0.3,0c-0.3,0-0.5,0.1-0.7,0.3s-0.2,0.5-0.2,0.8v0.7h1.1v0.8h-1.1v5
		H-511.8z"/>
	<path d="M-500.3,408.4h-2.6v7h-1.1v-7h-2.5v-0.8h6.2V408.4z"/>
	<path d="M-500.1,412.4c0-0.9,0.2-1.6,0.7-2.1s1.1-0.8,1.9-0.8c0.8,0,1.4,0.3,1.9,0.8c0.5,0.6,0.7,1.3,0.7,2.1v0.1
		c0,0.9-0.2,1.6-0.7,2.1c-0.5,0.6-1.1,0.8-1.9,0.8s-1.4-0.3-1.9-0.8c-0.5-0.6-0.7-1.3-0.7-2.1V412.4z M-499.1,412.6
		c0,0.6,0.1,1.1,0.4,1.5c0.3,0.4,0.6,0.6,1.2,0.6c0.5,0,0.9-0.2,1.1-0.6c0.3-0.4,0.4-0.9,0.4-1.5v-0.1c0-0.6-0.1-1.1-0.4-1.5
		c-0.3-0.4-0.6-0.6-1.2-0.6c-0.5,0-0.9,0.2-1.1,0.6c-0.3,0.4-0.4,0.9-0.4,1.5V412.6z"/>
	<path d="M-492.2,408.2v1.4h1.1v0.8h-1.1v3.5c0,0.3,0.1,0.5,0.2,0.6c0.1,0.1,0.3,0.2,0.4,0.2c0.1,0,0.1,0,0.2,0c0.1,0,0.1,0,0.2-0.1
		l0.1,0.7c-0.1,0.1-0.2,0.1-0.3,0.2s-0.3,0.1-0.5,0.1c-0.4,0-0.8-0.1-1-0.4s-0.4-0.7-0.4-1.2v-3.5h-0.9v-0.8h0.9v-1.4H-492.2z"/>
	<path d="M-486.4,415.4c0-0.2-0.1-0.3-0.1-0.5c0-0.1,0-0.3,0-0.4c-0.2,0.3-0.5,0.5-0.8,0.7c-0.3,0.2-0.7,0.3-1,0.3
		c-0.6,0-1.1-0.2-1.4-0.5c-0.3-0.3-0.5-0.7-0.5-1.3c0-0.6,0.2-1,0.7-1.3c0.4-0.3,1.1-0.5,1.8-0.5h1.1v-0.6c0-0.3-0.1-0.6-0.3-0.8
		c-0.2-0.2-0.5-0.3-0.9-0.3c-0.3,0-0.6,0.1-0.8,0.3s-0.3,0.4-0.3,0.6l-1,0l0,0c0-0.4,0.2-0.8,0.6-1.2c0.4-0.4,1-0.5,1.6-0.5
		c0.7,0,1.2,0.2,1.6,0.5s0.6,0.8,0.6,1.4v2.8c0,0.2,0,0.4,0,0.6s0.1,0.4,0.1,0.6H-486.4z M-488.1,414.6c0.4,0,0.7-0.1,1-0.3
		c0.3-0.2,0.5-0.4,0.6-0.7v-0.9h-1.2c-0.4,0-0.8,0.1-1,0.3c-0.3,0.2-0.4,0.5-0.4,0.8c0,0.3,0.1,0.5,0.2,0.6
		S-488.4,414.6-488.1,414.6z"/>
	<path d="M-482.7,415.4h-1.1V407h1.1V415.4z"/>
	<path d="M-478.2,415.4v-7.8h2.6c0.8,0,1.5,0.2,1.9,0.5s0.7,0.9,0.7,1.6c0,0.3-0.1,0.6-0.3,0.9s-0.5,0.5-0.8,0.6
		c0.5,0.1,0.9,0.3,1.2,0.7c0.3,0.4,0.4,0.8,0.4,1.3c0,0.7-0.2,1.3-0.7,1.6s-1.1,0.6-1.9,0.6H-478.2z M-477.2,410.9h1.7
		c0.4,0,0.7-0.1,1-0.3s0.4-0.5,0.4-0.9c0-0.4-0.1-0.7-0.4-0.9c-0.3-0.2-0.7-0.3-1.2-0.3h-1.5V410.9z M-477.2,411.7v2.8h2
		c0.5,0,0.9-0.1,1.1-0.4c0.3-0.2,0.4-0.6,0.4-1c0-0.4-0.1-0.8-0.4-1s-0.6-0.4-1.1-0.4h-0.1H-477.2z"/>
	<path d="M-471.6,412.4c0-0.9,0.2-1.6,0.7-2.1s1.1-0.8,1.9-0.8c0.8,0,1.4,0.3,1.9,0.8c0.5,0.6,0.7,1.3,0.7,2.1v0.1
		c0,0.9-0.2,1.6-0.7,2.1c-0.5,0.6-1.1,0.8-1.9,0.8s-1.4-0.3-1.9-0.8c-0.5-0.6-0.7-1.3-0.7-2.1V412.4z M-470.6,412.6
		c0,0.6,0.1,1.1,0.4,1.5c0.3,0.4,0.6,0.6,1.2,0.6c0.5,0,0.9-0.2,1.1-0.6c0.3-0.4,0.4-0.9,0.4-1.5v-0.1c0-0.6-0.1-1.1-0.4-1.5
		c-0.3-0.4-0.6-0.6-1.2-0.6c-0.5,0-0.9,0.2-1.1,0.6c-0.3,0.4-0.4,0.9-0.4,1.5V412.6z"/>
	<path d="M-465.4,412.6c0-0.9,0.2-1.7,0.6-2.3c0.4-0.6,1-0.9,1.7-0.9c0.3,0,0.6,0.1,0.9,0.2c0.3,0.1,0.5,0.3,0.7,0.5V407h1.1v8.4
		h-0.8l-0.2-0.7c-0.2,0.3-0.4,0.5-0.7,0.6c-0.3,0.1-0.6,0.2-1,0.2c-0.7,0-1.3-0.3-1.7-0.8s-0.6-1.2-0.6-2V412.6z M-464.3,412.7
		c0,0.6,0.1,1.1,0.4,1.4s0.6,0.5,1.1,0.5c0.3,0,0.6-0.1,0.8-0.2c0.2-0.1,0.4-0.3,0.5-0.6v-2.7c-0.1-0.2-0.3-0.4-0.5-0.6
		c-0.2-0.1-0.5-0.2-0.8-0.2c-0.5,0-0.9,0.2-1.1,0.6c-0.2,0.4-0.4,1-0.4,1.6V412.7z"/>
	<path d="M-457.1,413.3l0.2,0.7h0l1.4-4.4h1.2l-2.4,6.7c-0.1,0.4-0.4,0.7-0.6,1c-0.3,0.3-0.6,0.4-1.1,0.4c-0.1,0-0.2,0-0.3,0
		s-0.2,0-0.3-0.1l0.1-0.8c0,0,0,0,0.2,0c0.1,0,0.2,0,0.3,0c0.2,0,0.4-0.1,0.6-0.3c0.1-0.2,0.3-0.4,0.4-0.7l0.3-0.6l-2.2-5.7h1.2
		L-457.1,413.3z"/>
	<path d="M-448.9,412.7l0.1,1l0,0l0.2-1l1.4-5.1h1l1.4,5.1l0.2,1h0l0.1-1l1.1-5.1h1.1l-1.9,7.8h-0.9l-1.6-5.4l-0.1-0.7h0l-0.1,0.7
		l-1.6,5.4h-0.9l-1.9-7.8h1.1L-448.9,412.7z"/>
	<path d="M-438.9,415.5c-0.8,0-1.5-0.3-2-0.8c-0.5-0.5-0.7-1.2-0.7-2.1v-0.2c0-0.8,0.2-1.5,0.7-2.1c0.5-0.5,1.1-0.8,1.8-0.8
		c0.8,0,1.4,0.2,1.7,0.7c0.4,0.5,0.6,1.1,0.6,1.9v0.6h-3.7l0,0c0,0.6,0.1,1.1,0.4,1.4s0.7,0.5,1.2,0.5c0.4,0,0.7-0.1,0.9-0.2
		c0.3-0.1,0.5-0.2,0.7-0.4l0.4,0.7c-0.2,0.2-0.5,0.4-0.8,0.5S-438.4,415.5-438.9,415.5z M-439.1,410.3c-0.4,0-0.7,0.1-0.9,0.4
		c-0.2,0.3-0.4,0.6-0.4,1.1l0,0h2.6v-0.1c0-0.4-0.1-0.8-0.3-1S-438.6,410.3-439.1,410.3z"/>
	<path d="M-434.4,408.1h-1.1V407h1.1V408.1z M-434.4,415.4h-1.1v-5.8h1.1V415.4z"/>
	<path d="M-433,412.6c0-0.9,0.2-1.7,0.6-2.3c0.4-0.6,1-0.9,1.7-0.9c0.4,0,0.7,0.1,1,0.2s0.5,0.4,0.7,0.6l0.1-0.8h0.8v5.8
		c0,0.7-0.2,1.3-0.6,1.7s-1.1,0.6-1.9,0.6c-0.3,0-0.6,0-0.9-0.1c-0.3-0.1-0.6-0.2-0.9-0.3l0.2-0.8c0.2,0.1,0.5,0.2,0.7,0.3
		c0.3,0.1,0.6,0.1,0.9,0.1c0.5,0,0.9-0.1,1.1-0.4c0.2-0.2,0.4-0.6,0.4-1.1v-0.7c-0.2,0.2-0.4,0.4-0.7,0.6s-0.6,0.2-0.9,0.2
		c-0.7,0-1.3-0.3-1.7-0.8c-0.4-0.5-0.6-1.2-0.6-2V412.6z M-431.9,412.7c0,0.6,0.1,1.1,0.4,1.4s0.6,0.5,1.1,0.5
		c0.3,0,0.6-0.1,0.8-0.2c0.2-0.1,0.4-0.4,0.5-0.6v-2.7c-0.1-0.2-0.3-0.4-0.5-0.6c-0.2-0.1-0.5-0.2-0.8-0.2c-0.5,0-0.9,0.2-1.1,0.6
		c-0.2,0.4-0.4,1-0.4,1.6V412.7z"/>
	<path d="M-425.5,410.4c0.2-0.3,0.4-0.5,0.7-0.7c0.3-0.2,0.6-0.2,1-0.2c0.6,0,1.1,0.2,1.4,0.6c0.3,0.4,0.5,0.9,0.5,1.7v3.6h-1.1
		v-3.7c0-0.5-0.1-0.8-0.3-1.1c-0.2-0.2-0.5-0.3-0.9-0.3c-0.3,0-0.6,0.1-0.8,0.2c-0.2,0.1-0.4,0.3-0.6,0.5v4.4h-1.1V407h1.1V410.4z"
		/>
	<path d="M-418.8,408.2v1.4h1.1v0.8h-1.1v3.5c0,0.3,0.1,0.5,0.2,0.6c0.1,0.1,0.3,0.2,0.4,0.2c0.1,0,0.1,0,0.2,0c0.1,0,0.1,0,0.2-0.1
		l0.1,0.7c-0.1,0.1-0.2,0.1-0.3,0.2s-0.3,0.1-0.5,0.1c-0.4,0-0.8-0.1-1-0.4s-0.4-0.7-0.4-1.2v-3.5h-0.9v-0.8h0.9v-1.4H-418.8z"/>
	<path d="M-412.6,414.6h3.8v0.8h-4.9v-7.8h1.1V414.6z"/>
	<path d="M-408,412.4c0-0.9,0.2-1.6,0.7-2.1s1.1-0.8,1.9-0.8c0.8,0,1.4,0.3,1.9,0.8c0.5,0.6,0.7,1.3,0.7,2.1v0.1
		c0,0.9-0.2,1.6-0.7,2.1c-0.5,0.6-1.1,0.8-1.9,0.8s-1.4-0.3-1.9-0.8c-0.5-0.6-0.7-1.3-0.7-2.1V412.4z M-407,412.6
		c0,0.6,0.1,1.1,0.4,1.5c0.3,0.4,0.6,0.6,1.2,0.6c0.5,0,0.9-0.2,1.1-0.6c0.3-0.4,0.4-0.9,0.4-1.5v-0.1c0-0.6-0.1-1.1-0.4-1.5
		c-0.3-0.4-0.6-0.6-1.2-0.6c-0.5,0-0.9,0.2-1.1,0.6c-0.3,0.4-0.4,0.9-0.4,1.5V412.6z"/>
	<path d="M-398.2,413.8c0-0.2-0.1-0.4-0.3-0.6c-0.2-0.1-0.5-0.3-1-0.4c-0.7-0.1-1.2-0.4-1.6-0.6c-0.4-0.3-0.6-0.6-0.6-1.1
		c0-0.5,0.2-0.9,0.6-1.2c0.4-0.3,0.9-0.5,1.6-0.5c0.7,0,1.2,0.2,1.6,0.5s0.6,0.8,0.6,1.3l0,0h-1c0-0.3-0.1-0.5-0.3-0.7
		c-0.2-0.2-0.5-0.3-0.8-0.3c-0.4,0-0.7,0.1-0.8,0.3c-0.2,0.2-0.3,0.4-0.3,0.6c0,0.2,0.1,0.4,0.2,0.5c0.2,0.1,0.5,0.2,1,0.3
		c0.7,0.2,1.3,0.4,1.6,0.6s0.6,0.6,0.6,1.1c0,0.5-0.2,0.9-0.6,1.3c-0.4,0.3-1,0.5-1.6,0.5c-0.7,0-1.3-0.2-1.8-0.6s-0.6-0.8-0.6-1.3
		l0,0h1c0,0.4,0.2,0.7,0.4,0.8s0.6,0.3,0.9,0.3c0.4,0,0.7-0.1,0.9-0.2C-398.3,414.3-398.2,414.1-398.2,413.8z"/>
	<path d="M-392.4,413.8c0-0.2-0.1-0.4-0.3-0.6c-0.2-0.1-0.5-0.3-1-0.4c-0.7-0.1-1.2-0.4-1.6-0.6c-0.4-0.3-0.6-0.6-0.6-1.1
		c0-0.5,0.2-0.9,0.6-1.2c0.4-0.3,0.9-0.5,1.6-0.5c0.7,0,1.2,0.2,1.6,0.5s0.6,0.8,0.6,1.3l0,0h-1c0-0.3-0.1-0.5-0.3-0.7
		c-0.2-0.2-0.5-0.3-0.8-0.3c-0.4,0-0.7,0.1-0.8,0.3c-0.2,0.2-0.3,0.4-0.3,0.6c0,0.2,0.1,0.4,0.2,0.5c0.2,0.1,0.5,0.2,1,0.3
		c0.7,0.2,1.3,0.4,1.6,0.6s0.6,0.6,0.6,1.1c0,0.5-0.2,0.9-0.6,1.3c-0.4,0.3-1,0.5-1.6,0.5c-0.7,0-1.3-0.2-1.8-0.6s-0.6-0.8-0.6-1.3
		l0,0h1c0,0.4,0.2,0.7,0.4,0.8s0.6,0.3,0.9,0.3c0.4,0,0.7-0.1,0.9-0.2C-392.5,414.3-392.4,414.1-392.4,413.8z"/>
</g>
</svg>
