<?xml version="1.0" encoding="utf-8"?>
<!-- Generator: Adobe Illustrator 21.0.0, SVG Export Plug-In . SVG Version: 6.00 Build 0)  -->
<svg version="1.1" id="Capa_1" xmlns="http://www.w3.org/2000/svg" xmlns:xlink="http://www.w3.org/1999/xlink" x="0px" y="0px"
	 viewBox="-659.1 402.2 355.1 236" style="enable-background:new -659.1 402.2 355.1 236;" xml:space="preserve">
<style type="text/css">
	.st0{fill:none;stroke:#000000;stroke-miterlimit:10;}
	.st1{fill:none;stroke:#5B79B5;stroke-width:5;stroke-miterlimit:10;}
	.st2{fill:none;stroke:#353D54;stroke-width:5;stroke-miterlimit:10;}
	.st3{fill:#FFFFFF;}
	.st4{font-family:'Roboto-Regular';}
	.st5{font-size:8.71px;}
	.st6{font-size:11px;}
	.st7{fill:none;stroke:#747373;stroke-miterlimit:10;}
	.st8{fill:#5B79B5;}
	.st9{fill:#353D54;}
</style>
<line class="st0" x1="-620.4" y1="425.5" x2="-620.4" y2="623.2"/>
<line class="st0" x1="-328" y1="616.5" x2="-630.6" y2="616.5"/>
<path class="st1" d="M-619.9,427c6.2,15.8,65.6,153.8,262.3,168.9"/>
<path class="st2" d="M-355.6,498.2c-145.8-13.8-251.6-65.9-263.7-72.1"/>
<image style="overflow:visible;opacity:0.3;enable-background:new    ;" width="189" height="191" xlink:href="D9C1808C.png"  transform="matrix(0.24 0 0 0.2375 -573.5965 432.6852)">
</image>
<circle class="st3" cx="-550.9" cy="454.7" r="16"/>
<image style="overflow:visible;opacity:0.3;enable-background:new    ;" width="190" height="189" xlink:href="D9C1808E.png"  transform="matrix(0.2387 0 0 0.2387 -500.6365 453.8052)">
</image>
<circle class="st3" cx="-477.9" cy="475.7" r="16"/>
<image style="overflow:visible;opacity:0.3;enable-background:new    ;" width="190" height="191" xlink:href="D9C1808A.png"  transform="matrix(0.2387 0 0 0.2375 -500.6365 544.0452)">
</image>
<circle class="st3" cx="-477.9" cy="566" r="16"/>
<image style="overflow:visible;opacity:0.3;enable-background:new    ;" width="190" height="191" xlink:href="D9C1808B.png"  transform="matrix(0.2387 0 0 0.2375 -438.9565 467.0052)">
</image>
<circle class="st3" cx="-416.2" cy="488.9" r="16"/>
<image style="overflow:visible;opacity:0.3;enable-background:new    ;" width="190" height="189" xlink:href="D9C18084.png"  transform="matrix(0.2387 0 0 0.2387 -438.9565 563.7252)">
</image>
<circle class="st3" cx="-416.2" cy="585.6" r="16"/>
<image style="overflow:visible;opacity:0.3;enable-background:new    ;" width="190" height="189" xlink:href="D9C18099.png"  transform="matrix(0.2387 0 0 0.2387 -380.1565 572.1252)">
</image>
<circle class="st3" cx="-357.6" cy="593.9" r="16"/>
<image style="overflow:visible;opacity:0.3;enable-background:new    ;" width="190" height="189" xlink:href="D9C1809A.png"  transform="matrix(0.2387 0 0 0.2387 -380.1565 476.1252)">
</image>
<circle class="st3" cx="-357.6" cy="497.9" r="16"/>
<image style="overflow:visible;opacity:0.3;enable-background:new    ;" width="189" height="190" xlink:href="D9C1809B.png"  transform="matrix(0.24 0 0 0.2375 -573.5965 499.1652)">
</image>
<circle class="st3" cx="-550.9" cy="521" r="16"/>
<text transform="matrix(0 -1 1 0 -651.6064 540.1949)" class="st4 st5">TBWL (%)</text>
<text transform="matrix(1 0 0 1 -622.3665 635.5552)" class="st4 st5">0</text>
<text transform="matrix(1 0 0 1 -549.0665 635.5552)" class="st4 st5">3</text>
<text transform="matrix(1 0 0 1 -480.3265 635.5552)" class="st4 st5">6</text>
<text transform="matrix(1 0 0 1 -418.6865 635.5552)" class="st4 st5">9</text>
<text transform="matrix(1 0 0 1 -360.4265 635.5552)" class="st4 st5">12</text>
<text transform="matrix(1 0 0 1 -335.8165 635.5552)" class="st4 st5">Months</text>
<text transform="matrix(1 0 0 1 -563.1465 458.4453)" class="st4 st6">-2.7</text>
<text transform="matrix(1 0 0 1 -490.4965 479.6152)" class="st4 st6">-4.8</text>
<text transform="matrix(1 0 0 1 -427.6065 492.0652)" class="st4 st6">-5.4</text>
<text transform="matrix(1 0 0 1 -369.6965 502.1852)" class="st4 st6">-6.7</text>
<text transform="matrix(1 0 0 1 -372.8165 598.5153)" class="st4 st6">-13.4</text>
<text transform="matrix(1 0 0 1 -430.7365 589.5852)" class="st4 st6">-10.7</text>
<text transform="matrix(1 0 0 1 -490.3665 569.2152)" class="st4 st6">-8.8</text>
<text transform="matrix(1 0 0 1 -558.2165 525.0952)" class="st4 st6">-6</text>
<image style="overflow:visible;opacity:0.11;enable-background:new    ;" width="186" height="185" xlink:href="D9C1809C.png"  transform="matrix(0.2387 0 0 0.2387 -641.2765 402.2052)">
</image>
<circle class="st3" cx="-619.2" cy="424.2" r="11.1"/>
<circle cx="-619.2" cy="424.2" r="7"/>
<polyline class="st7" points="-332.6,613.4 -327.6,616.5 -332.6,619.8 "/>
<text transform="matrix(1 0 0 1 -595.7865 593.5153)" class="st4 st5">Non-Phenotype Guided</text>
<text transform="matrix(1 0 0 1 -595.6965 604.1852)" class="st4 st5">Phenotype Guided</text>
<path class="st2" d="M-608.8,589.3h5.2c0.9,0,1.6,0.7,1.6,1.6l0,0c0,0.9-0.7,1.6-1.6,1.6h-5.2c-0.9,0-1.6-0.7-1.6-1.6l0,0
	C-610.4,590-609.7,589.3-608.8,589.3z"/>
<path class="st1" d="M-608.8,599.7h5.2c0.9,0,1.6,0.7,1.6,1.6l0,0c0,0.9-0.7,1.6-1.6,1.6h-5.2c-0.9,0-1.6-0.7-1.6-1.6l0,0
	C-610.4,600.4-609.7,599.7-608.8,599.7z"/>
<text transform="matrix(1 0 0 1 -570.6063 413.1953)" class="st4 st6">Percentage of Total Body Weight Loss</text>
</svg>
