<?xml version="1.0" encoding="utf-8"?>
<!-- Generator: Adobe Illustrator 21.0.0, SVG Export Plug-In . SVG Version: 6.00 Build 0)  -->
<svg version="1.1" id="Capa_1" xmlns="http://www.w3.org/2000/svg" xmlns:xlink="http://www.w3.org/1999/xlink" x="0px" y="0px"
	 viewBox="0 0 354.7 200.1" style="enable-background:new 0 0 354.7 200.1;" xml:space="preserve">
<style type="text/css">
	.st0{enable-background:new    ;}
	.st1{fill:none;stroke:#353D54;stroke-width:5;stroke-miterlimit:10;}
	.st2{fill:none;stroke:#5B79B5;stroke-width:5;stroke-miterlimit:10;}
	.st3{fill:#5B79B5;}
	.st4{fill:#353D54;}
	.st5{fill:none;stroke:#000000;stroke-miterlimit:10;}
</style>
<g class="st0">
	<path d="M236.6,36.1h-0.8l-3-4.7l0,0v4.7H232v-6.2h0.8l3,4.7l0,0v-4.7h0.8V36.1z"/>
	<path d="M237.8,33.8c0-0.7,0.2-1.2,0.6-1.7c0.4-0.4,0.9-0.7,1.5-0.7c0.6,0,1.1,0.2,1.5,0.7s0.6,1,0.6,1.7v0.1
		c0,0.7-0.2,1.2-0.6,1.7c-0.4,0.4-0.9,0.7-1.5,0.7c-0.6,0-1.1-0.2-1.5-0.7C238,35.1,237.8,34.5,237.8,33.8L237.8,33.8z M238.6,33.9
		c0,0.5,0.1,0.9,0.3,1.2c0.2,0.3,0.5,0.5,0.9,0.5c0.4,0,0.7-0.2,0.9-0.5s0.3-0.7,0.3-1.2v-0.1c0-0.5-0.1-0.9-0.3-1.2
		c-0.2-0.3-0.5-0.5-0.9-0.5c-0.4,0-0.7,0.2-0.9,0.5C238.7,32.9,238.6,33.3,238.6,33.9L238.6,33.9z"/>
	<path d="M243.7,31.5l0.1,0.7c0.2-0.2,0.3-0.4,0.6-0.6c0.2-0.1,0.5-0.2,0.8-0.2c0.5,0,0.9,0.1,1.2,0.4c0.3,0.3,0.4,0.7,0.4,1.3v2.9
		h-0.8v-2.9c0-0.4-0.1-0.7-0.2-0.9s-0.4-0.3-0.7-0.3c-0.3,0-0.5,0.1-0.7,0.2c-0.2,0.1-0.3,0.2-0.4,0.4v3.4h-0.8v-4.6H243.7z"/>
	<path d="M250.5,33.8H248v-0.7h2.5V33.8z"/>
	<path d="M252.7,33.6v2.5h-0.8v-6.2h2.4c0.7,0,1.2,0.2,1.5,0.5c0.4,0.3,0.6,0.8,0.6,1.3c0,0.6-0.2,1-0.6,1.3
		c-0.4,0.3-0.9,0.5-1.5,0.5H252.7z M252.7,33h1.5c0.4,0,0.7-0.1,0.9-0.3s0.3-0.5,0.3-0.9c0-0.3-0.1-0.6-0.3-0.9
		c-0.2-0.2-0.5-0.3-0.9-0.3h-1.5V33z"/>
	<path d="M258.2,32.1c0.2-0.2,0.4-0.4,0.6-0.5c0.2-0.1,0.5-0.2,0.8-0.2c0.5,0,0.9,0.1,1.1,0.4c0.3,0.3,0.4,0.7,0.4,1.4v2.9h-0.8
		v-2.9c0-0.4-0.1-0.7-0.2-0.8c-0.2-0.2-0.4-0.3-0.7-0.3c-0.3,0-0.5,0-0.7,0.1s-0.3,0.2-0.4,0.4v3.4h-0.8v-6.6h0.8V32.1z"/>
	<path d="M264.2,36.2c-0.7,0-1.2-0.2-1.5-0.6c-0.4-0.4-0.6-1-0.6-1.7v-0.2c0-0.7,0.2-1.2,0.6-1.6c0.4-0.4,0.8-0.6,1.4-0.6
		c0.6,0,1.1,0.2,1.4,0.6s0.5,0.9,0.5,1.5V34H263l0,0c0,0.5,0.1,0.8,0.3,1.1c0.2,0.3,0.5,0.4,0.9,0.4c0.3,0,0.5,0,0.7-0.1
		c0.2-0.1,0.4-0.2,0.6-0.3l0.3,0.5c-0.2,0.2-0.4,0.3-0.7,0.4S264.6,36.2,264.2,36.2z M264.1,32.1c-0.3,0-0.5,0.1-0.7,0.3
		s-0.3,0.5-0.4,0.9l0,0h2.1v-0.1c0-0.3-0.1-0.6-0.2-0.8C264.7,32.2,264.4,32.1,264.1,32.1z"/>
	<path d="M267.6,31.5l0.1,0.7c0.2-0.2,0.3-0.4,0.6-0.6c0.2-0.1,0.5-0.2,0.8-0.2c0.5,0,0.9,0.1,1.2,0.4c0.3,0.3,0.4,0.7,0.4,1.3v2.9
		h-0.8v-2.9c0-0.4-0.1-0.7-0.2-0.9s-0.4-0.3-0.7-0.3c-0.3,0-0.5,0.1-0.7,0.2c-0.2,0.1-0.3,0.2-0.4,0.4v3.4h-0.8v-4.6H267.6z"/>
	<path d="M271.6,33.8c0-0.7,0.2-1.2,0.6-1.7c0.4-0.4,0.9-0.7,1.5-0.7c0.6,0,1.1,0.2,1.5,0.7s0.6,1,0.6,1.7v0.1
		c0,0.7-0.2,1.2-0.6,1.7c-0.4,0.4-0.9,0.7-1.5,0.7c-0.6,0-1.1-0.2-1.5-0.7C271.8,35.1,271.6,34.5,271.6,33.8L271.6,33.8z
		 M272.4,33.9c0,0.5,0.1,0.9,0.3,1.2c0.2,0.3,0.5,0.5,0.9,0.5c0.4,0,0.7-0.2,0.9-0.5s0.3-0.7,0.3-1.2v-0.1c0-0.5-0.1-0.9-0.3-1.2
		c-0.2-0.3-0.5-0.5-0.9-0.5c-0.4,0-0.7,0.2-0.9,0.5C272.5,32.9,272.4,33.3,272.4,33.9L272.4,33.9z"/>
	<path d="M277.9,30.4v1.1h0.9v0.6h-0.9v2.8c0,0.2,0,0.4,0.1,0.5s0.2,0.1,0.4,0.1c0,0,0.1,0,0.2,0s0.1,0,0.1,0l0.1,0.6
		c-0.1,0.1-0.2,0.1-0.3,0.1c-0.1,0-0.2,0-0.4,0c-0.3,0-0.6-0.1-0.8-0.3c-0.2-0.2-0.3-0.5-0.3-1v-2.8h-0.7v-0.6h0.7v-1.1H277.9z"/>
	<path d="M281.1,34.4l0.1,0.6h0l1.1-3.5h0.9l-1.9,5.3c-0.1,0.3-0.3,0.6-0.5,0.8c-0.2,0.2-0.5,0.3-0.9,0.3c-0.1,0-0.2,0-0.3,0
		c-0.1,0-0.2,0-0.2,0l0.1-0.7c0,0,0,0,0.2,0s0.2,0,0.2,0c0.2,0,0.3-0.1,0.4-0.2c0.1-0.2,0.2-0.3,0.3-0.5l0.2-0.5l-1.7-4.5h0.9
		L281.1,34.4z"/>
	<path d="M288,34c0,0.7-0.2,1.2-0.5,1.6c-0.3,0.4-0.8,0.6-1.3,0.6c-0.3,0-0.5,0-0.7-0.1c-0.2-0.1-0.4-0.2-0.5-0.4v2.3h-0.8v-6.4h0.6
		l0.1,0.6c0.1-0.2,0.3-0.4,0.6-0.5c0.2-0.1,0.5-0.2,0.8-0.2c0.6,0,1,0.2,1.3,0.7C287.8,32.5,288,33.1,288,34L288,34z M287.1,33.9
		c0-0.5-0.1-1-0.3-1.3c-0.2-0.3-0.5-0.5-0.9-0.5c-0.2,0-0.4,0.1-0.6,0.2c-0.2,0.1-0.3,0.3-0.4,0.4v2.2c0.1,0.2,0.2,0.3,0.4,0.4
		c0.2,0.1,0.4,0.2,0.6,0.2c0.4,0,0.7-0.1,0.9-0.4C287,34.8,287.1,34.4,287.1,33.9L287.1,33.9z"/>
	<path d="M290.9,36.2c-0.7,0-1.2-0.2-1.5-0.6c-0.4-0.4-0.6-1-0.6-1.7v-0.2c0-0.7,0.2-1.2,0.6-1.6c0.4-0.4,0.8-0.6,1.4-0.6
		c0.6,0,1.1,0.2,1.4,0.6s0.5,0.9,0.5,1.5V34h-2.9l0,0c0,0.5,0.1,0.8,0.3,1.1c0.2,0.3,0.5,0.4,0.9,0.4c0.3,0,0.5,0,0.7-0.1
		c0.2-0.1,0.4-0.2,0.6-0.3l0.3,0.5c-0.2,0.2-0.4,0.3-0.7,0.4S291.3,36.2,290.9,36.2z M290.8,32.1c-0.3,0-0.5,0.1-0.7,0.3
		c-0.2,0.2-0.3,0.5-0.4,0.9l0,0h2.1v-0.1c0-0.3-0.1-0.6-0.2-0.8C291.4,32.2,291.1,32.1,290.8,32.1z"/>
	<path d="M300.3,35.3c-0.1,0.2-0.4,0.4-0.8,0.6c-0.4,0.2-0.8,0.3-1.4,0.3c-0.7,0-1.3-0.2-1.8-0.7s-0.7-1.1-0.7-1.8v-1.3
		c0-0.8,0.2-1.4,0.7-1.8c0.5-0.5,1-0.7,1.7-0.7c0.7,0,1.2,0.2,1.6,0.6s0.6,0.8,0.6,1.4l0,0h-0.8c0-0.4-0.1-0.7-0.4-0.9
		c-0.2-0.3-0.6-0.4-1-0.4c-0.5,0-0.9,0.2-1.1,0.5s-0.4,0.8-0.4,1.3v1.3c0,0.5,0.2,1,0.5,1.4c0.3,0.4,0.7,0.5,1.2,0.5
		c0.4,0,0.7,0,0.9-0.1s0.4-0.2,0.5-0.3v-1.4h-1.4V33h2.2V35.3z"/>
	<path d="M304.6,35.4c-0.1,0.2-0.3,0.4-0.6,0.6c-0.2,0.1-0.5,0.2-0.8,0.2c-0.5,0-0.9-0.2-1.2-0.5c-0.3-0.3-0.4-0.8-0.4-1.5v-2.7h0.8
		v2.7c0,0.5,0.1,0.8,0.2,1c0.1,0.2,0.4,0.3,0.7,0.3c0.3,0,0.5-0.1,0.7-0.2c0.2-0.1,0.3-0.3,0.4-0.5v-3.3h0.8v4.6h-0.8L304.6,35.4z"
		/>
	<path d="M307.5,30.3h-0.8v-0.9h0.8V30.3z M307.5,36.1h-0.8v-4.6h0.8V36.1z"/>
	<path d="M308.6,33.9c0-0.7,0.2-1.3,0.5-1.8c0.3-0.5,0.8-0.7,1.3-0.7c0.3,0,0.5,0,0.7,0.1c0.2,0.1,0.4,0.2,0.5,0.4v-2.5h0.8v6.6
		h-0.6l-0.1-0.6c-0.2,0.2-0.3,0.4-0.6,0.5c-0.2,0.1-0.5,0.2-0.8,0.2c-0.6,0-1-0.2-1.3-0.6C308.7,35.2,308.6,34.6,308.6,33.9
		L308.6,33.9z M309.4,34c0,0.5,0.1,0.8,0.3,1.1c0.2,0.3,0.5,0.4,0.9,0.4c0.2,0,0.5-0.1,0.6-0.2c0.2-0.1,0.3-0.3,0.4-0.5v-2.1
		c-0.1-0.2-0.2-0.3-0.4-0.5c-0.2-0.1-0.4-0.2-0.6-0.2c-0.4,0-0.7,0.2-0.9,0.5S309.4,33.4,309.4,34L309.4,34z"/>
	<path d="M315.6,36.2c-0.7,0-1.2-0.2-1.5-0.6c-0.4-0.4-0.6-1-0.6-1.7v-0.2c0-0.7,0.2-1.2,0.6-1.6c0.4-0.4,0.8-0.6,1.4-0.6
		c0.6,0,1.1,0.2,1.4,0.6s0.5,0.9,0.5,1.5V34h-2.9l0,0c0,0.5,0.1,0.8,0.3,1.1c0.2,0.3,0.5,0.4,0.9,0.4c0.3,0,0.5,0,0.7-0.1
		c0.2-0.1,0.4-0.2,0.6-0.3l0.3,0.5c-0.2,0.2-0.4,0.3-0.7,0.4S316,36.2,315.6,36.2z M315.5,32.1c-0.3,0-0.5,0.1-0.7,0.3
		s-0.3,0.5-0.4,0.9l0,0h2.1v-0.1c0-0.3-0.1-0.6-0.2-0.8C316.1,32.2,315.8,32.1,315.5,32.1z"/>
	<path d="M318.1,33.9c0-0.7,0.2-1.3,0.5-1.8c0.3-0.5,0.8-0.7,1.3-0.7c0.3,0,0.5,0,0.7,0.1c0.2,0.1,0.4,0.2,0.5,0.4v-2.5h0.8v6.6
		h-0.6l-0.1-0.6c-0.2,0.2-0.3,0.4-0.6,0.5c-0.2,0.1-0.5,0.2-0.8,0.2c-0.6,0-1-0.2-1.3-0.6C318.3,35.2,318.1,34.6,318.1,33.9
		L318.1,33.9z M318.9,34c0,0.5,0.1,0.8,0.3,1.1c0.2,0.3,0.5,0.4,0.9,0.4c0.2,0,0.5-0.1,0.6-0.2c0.2-0.1,0.3-0.3,0.4-0.5v-2.1
		c-0.1-0.2-0.2-0.3-0.4-0.5c-0.2-0.1-0.4-0.2-0.6-0.2c-0.4,0-0.7,0.2-0.9,0.5S318.9,33.4,318.9,34L318.9,34z"/>
</g>
<g class="st0">
	<path d="M232.9,44.3v2.5H232v-6.2h2.4c0.7,0,1.2,0.2,1.5,0.5c0.4,0.3,0.6,0.8,0.6,1.3c0,0.6-0.2,1-0.6,1.3
		c-0.4,0.3-0.9,0.5-1.5,0.5H232.9z M232.9,43.6h1.5c0.4,0,0.7-0.1,0.9-0.3s0.3-0.5,0.3-0.9c0-0.3-0.1-0.6-0.3-0.9
		c-0.2-0.2-0.5-0.3-0.9-0.3h-1.5V43.6z"/>
	<path d="M238.3,42.8c0.2-0.2,0.4-0.4,0.6-0.5c0.2-0.1,0.5-0.2,0.8-0.2c0.5,0,0.9,0.1,1.1,0.4c0.3,0.3,0.4,0.7,0.4,1.4v2.9h-0.8
		v-2.9c0-0.4-0.1-0.7-0.2-0.8c-0.2-0.2-0.4-0.3-0.7-0.3c-0.3,0-0.5,0-0.7,0.1s-0.3,0.2-0.4,0.4v3.4h-0.8v-6.6h0.8V42.8z"/>
	<path d="M244.3,46.9c-0.7,0-1.2-0.2-1.5-0.6c-0.4-0.4-0.6-1-0.6-1.7v-0.2c0-0.7,0.2-1.2,0.6-1.6c0.4-0.4,0.8-0.6,1.4-0.6
		c0.6,0,1.1,0.2,1.4,0.6s0.5,0.9,0.5,1.5v0.4h-2.9l0,0c0,0.5,0.1,0.8,0.3,1.1c0.2,0.3,0.5,0.4,0.9,0.4c0.3,0,0.5,0,0.7-0.1
		c0.2-0.1,0.4-0.2,0.6-0.3l0.3,0.5c-0.2,0.2-0.4,0.3-0.7,0.4S244.7,46.9,244.3,46.9z M244.2,42.7c-0.3,0-0.5,0.1-0.7,0.3
		s-0.3,0.5-0.4,0.9l0,0h2.1v-0.1c0-0.3-0.1-0.6-0.2-0.8C244.8,42.8,244.5,42.7,244.2,42.7z"/>
	<path d="M247.7,42.2l0.1,0.7c0.2-0.2,0.3-0.4,0.6-0.6c0.2-0.1,0.5-0.2,0.8-0.2c0.5,0,0.9,0.1,1.2,0.4c0.3,0.3,0.4,0.7,0.4,1.3v2.9
		h-0.8v-2.9c0-0.4-0.1-0.7-0.2-0.9s-0.4-0.3-0.7-0.3c-0.3,0-0.5,0.1-0.7,0.2c-0.2,0.1-0.3,0.2-0.4,0.4v3.4H247v-4.6H247.7z"/>
	<path d="M251.7,44.4c0-0.7,0.2-1.2,0.6-1.7c0.4-0.4,0.9-0.7,1.5-0.7c0.6,0,1.1,0.2,1.5,0.7s0.6,1,0.6,1.7v0.1
		c0,0.7-0.2,1.2-0.6,1.7c-0.4,0.4-0.9,0.7-1.5,0.7c-0.6,0-1.1-0.2-1.5-0.7C251.9,45.8,251.7,45.2,251.7,44.4L251.7,44.4z
		 M252.6,44.5c0,0.5,0.1,0.9,0.3,1.2c0.2,0.3,0.5,0.5,0.9,0.5c0.4,0,0.7-0.2,0.9-0.5s0.3-0.7,0.3-1.2v-0.1c0-0.5-0.1-0.9-0.3-1.2
		c-0.2-0.3-0.5-0.5-0.9-0.5c-0.4,0-0.7,0.2-0.9,0.5C252.7,43.5,252.6,43.9,252.6,44.5L252.6,44.5z"/>
	<path d="M258,41.1v1.1h0.9v0.6H258v2.8c0,0.2,0,0.4,0.1,0.5s0.2,0.1,0.4,0.1c0,0,0.1,0,0.2,0s0.1,0,0.1,0l0.1,0.6
		c-0.1,0.1-0.2,0.1-0.3,0.1c-0.1,0-0.2,0-0.4,0c-0.3,0-0.6-0.1-0.8-0.3c-0.2-0.2-0.3-0.5-0.3-1v-2.8h-0.7v-0.6h0.7v-1.1H258z"/>
	<path d="M261.2,45.1l0.1,0.6h0l1.1-3.5h0.9l-1.9,5.3c-0.1,0.3-0.3,0.6-0.5,0.8c-0.2,0.2-0.5,0.3-0.9,0.3c-0.1,0-0.2,0-0.3,0
		c-0.1,0-0.2,0-0.2,0l0.1-0.7c0,0,0,0,0.2,0s0.2,0,0.2,0c0.2,0,0.3-0.1,0.4-0.2c0.1-0.2,0.2-0.3,0.3-0.5l0.2-0.5l-1.7-4.5h0.9
		L261.2,45.1z"/>
	<path d="M268.1,44.6c0,0.7-0.2,1.2-0.5,1.6c-0.3,0.4-0.8,0.6-1.3,0.6c-0.3,0-0.5,0-0.7-0.1c-0.2-0.1-0.4-0.2-0.5-0.4v2.3h-0.8v-6.4
		h0.6l0.1,0.6c0.1-0.2,0.3-0.4,0.6-0.5c0.2-0.1,0.5-0.2,0.8-0.2c0.6,0,1,0.2,1.3,0.7C268,43.2,268.1,43.8,268.1,44.6L268.1,44.6z
		 M267.3,44.5c0-0.5-0.1-1-0.3-1.3c-0.2-0.3-0.5-0.5-0.9-0.5c-0.2,0-0.4,0.1-0.6,0.2c-0.2,0.1-0.3,0.3-0.4,0.4v2.2
		c0.1,0.2,0.2,0.3,0.4,0.4c0.2,0.1,0.4,0.2,0.6,0.2c0.4,0,0.7-0.1,0.9-0.4C267.2,45.5,267.3,45.1,267.3,44.5L267.3,44.5z"/>
	<path d="M271,46.9c-0.7,0-1.2-0.2-1.5-0.6c-0.4-0.4-0.6-1-0.6-1.7v-0.2c0-0.7,0.2-1.2,0.6-1.6c0.4-0.4,0.8-0.6,1.4-0.6
		c0.6,0,1.1,0.2,1.4,0.6s0.5,0.9,0.5,1.5v0.4h-2.9l0,0c0,0.5,0.1,0.8,0.3,1.1c0.2,0.3,0.5,0.4,0.9,0.4c0.3,0,0.5,0,0.7-0.1
		c0.2-0.1,0.4-0.2,0.6-0.3l0.3,0.5c-0.2,0.2-0.4,0.3-0.7,0.4S271.4,46.9,271,46.9z M270.9,42.7c-0.3,0-0.5,0.1-0.7,0.3
		c-0.2,0.2-0.3,0.5-0.4,0.9l0,0h2.1v-0.1c0-0.3-0.1-0.6-0.2-0.8C271.5,42.8,271.3,42.7,270.9,42.7z"/>
	<path d="M280.4,45.9c-0.1,0.2-0.4,0.4-0.8,0.6c-0.4,0.2-0.8,0.3-1.4,0.3c-0.7,0-1.3-0.2-1.8-0.7s-0.7-1.1-0.7-1.8V43
		c0-0.8,0.2-1.4,0.7-1.8c0.5-0.5,1-0.7,1.7-0.7c0.7,0,1.2,0.2,1.6,0.6s0.6,0.8,0.6,1.4l0,0h-0.8c0-0.4-0.1-0.7-0.4-0.9
		c-0.2-0.3-0.6-0.4-1-0.4c-0.5,0-0.9,0.2-1.1,0.5s-0.4,0.8-0.4,1.3v1.3c0,0.5,0.2,1,0.5,1.4c0.3,0.4,0.7,0.5,1.2,0.5
		c0.4,0,0.7,0,0.9-0.1s0.4-0.2,0.5-0.3v-1.4h-1.4v-0.7h2.2V45.9z"/>
	<path d="M284.7,46.1c-0.1,0.2-0.3,0.4-0.6,0.6c-0.2,0.1-0.5,0.2-0.8,0.2c-0.5,0-0.9-0.2-1.2-0.5c-0.3-0.3-0.4-0.8-0.4-1.5v-2.7h0.8
		v2.7c0,0.5,0.1,0.8,0.2,1c0.1,0.2,0.4,0.3,0.7,0.3c0.3,0,0.5-0.1,0.7-0.2c0.2-0.1,0.3-0.3,0.4-0.5v-3.3h0.8v4.6h-0.8L284.7,46.1z"
		/>
	<path d="M287.6,41h-0.8v-0.9h0.8V41z M287.6,46.8h-0.8v-4.6h0.8V46.8z"/>
	<path d="M288.7,44.5c0-0.7,0.2-1.3,0.5-1.8c0.3-0.5,0.8-0.7,1.3-0.7c0.3,0,0.5,0,0.7,0.1c0.2,0.1,0.4,0.2,0.5,0.4v-2.5h0.8v6.6H292
		l-0.1-0.6c-0.2,0.2-0.3,0.4-0.6,0.5c-0.2,0.1-0.5,0.2-0.8,0.2c-0.6,0-1-0.2-1.3-0.6C288.9,45.8,288.7,45.3,288.7,44.5L288.7,44.5z
		 M289.6,44.6c0,0.5,0.1,0.8,0.3,1.1c0.2,0.3,0.5,0.4,0.9,0.4c0.2,0,0.5-0.1,0.6-0.2c0.2-0.1,0.3-0.3,0.4-0.5v-2.1
		c-0.1-0.2-0.2-0.3-0.4-0.5c-0.2-0.1-0.4-0.2-0.6-0.2c-0.4,0-0.7,0.2-0.9,0.5S289.6,44,289.6,44.6L289.6,44.6z"/>
	<path d="M295.8,46.9c-0.7,0-1.2-0.2-1.5-0.6c-0.4-0.4-0.6-1-0.6-1.7v-0.2c0-0.7,0.2-1.2,0.6-1.6c0.4-0.4,0.8-0.6,1.4-0.6
		c0.6,0,1.1,0.2,1.4,0.6s0.5,0.9,0.5,1.5v0.4h-2.9l0,0c0,0.5,0.1,0.8,0.3,1.1c0.2,0.3,0.5,0.4,0.9,0.4c0.3,0,0.5,0,0.7-0.1
		c0.2-0.1,0.4-0.2,0.6-0.3l0.3,0.5c-0.2,0.2-0.4,0.3-0.7,0.4S296.1,46.9,295.8,46.9z M295.6,42.7c-0.3,0-0.5,0.1-0.7,0.3
		s-0.3,0.5-0.4,0.9l0,0h2.1v-0.1c0-0.3-0.1-0.6-0.2-0.8C296.2,42.8,296,42.7,295.6,42.7z"/>
	<path d="M298.2,44.5c0-0.7,0.2-1.3,0.5-1.8c0.3-0.5,0.8-0.7,1.3-0.7c0.3,0,0.5,0,0.7,0.1c0.2,0.1,0.4,0.2,0.5,0.4v-2.5h0.8v6.6
		h-0.6l-0.1-0.6c-0.2,0.2-0.3,0.4-0.6,0.5c-0.2,0.1-0.5,0.2-0.8,0.2c-0.6,0-1-0.2-1.3-0.6C298.4,45.8,298.2,45.3,298.2,44.5
		L298.2,44.5z M299.1,44.6c0,0.5,0.1,0.8,0.3,1.1c0.2,0.3,0.5,0.4,0.9,0.4c0.2,0,0.5-0.1,0.6-0.2c0.2-0.1,0.3-0.3,0.4-0.5v-2.1
		c-0.1-0.2-0.2-0.3-0.4-0.5c-0.2-0.1-0.4-0.2-0.6-0.2c-0.4,0-0.7,0.2-0.9,0.5S299.1,44,299.1,44.6L299.1,44.6z"/>
</g>
<path class="st1" d="M218.2,31.8h5.2c0.9,0,1.6,0.7,1.6,1.6l0,0c0,0.9-0.7,1.6-1.6,1.6h-5.2c-0.9,0-1.6-0.7-1.6-1.6l0,0
	C216.6,32.6,217.3,31.8,218.2,31.8z"/>
<path class="st2" d="M218.2,42.3h5.2c0.9,0,1.6,0.7,1.6,1.6l0,0c0,0.9-0.7,1.6-1.6,1.6h-5.2c-0.9,0-1.6-0.7-1.6-1.6l0,0
	C216.6,43,217.3,42.3,218.2,42.3z"/>
<path class="st3" d="M101.8,51h8c6.6,0,12,5.4,12,12v110.2c0,0.5-0.4,0.8-0.8,0.8l0,0H89.8l0,0V63C89.8,56.4,95.2,51,101.8,51z"/>
<path class="st4" d="M68.2,114.4h8c6.6,0,12,5.4,12,12l0,0v46.8c0,0.5-0.4,0.8-0.8,0.8l0,0H56.2l0,0v-47.7
	C56.2,119.7,61.6,114.4,68.2,114.4L68.2,114.4z"/>
<path class="st3" d="M193.3,82h8c6.6,0,12,5.4,12,12v79.2c0,0.5-0.4,0.8-0.8,0.8l0,0h-31.2l0,0V94C181.3,87.4,186.7,82,193.3,82z"/>
<path class="st4" d="M159.7,130.7h8c6.6,0,12,5.4,12,12v30.5c0,0.5-0.4,0.8-0.8,0.8l0,0h-31.2l0,0v-31.3
	C147.7,136.1,153.1,130.7,159.7,130.7z"/>
<path class="st3" d="M284.8,132.2h8c6.6,0,12,5.4,12,12v29c0,0.5-0.4,0.8-0.8,0.8h-31.2l0,0v-29.8
	C272.8,137.6,278.2,132.2,284.8,132.2z"/>
<path class="st4" d="M251.2,152.4h8c6.6,0,12,5.4,12,12v8.8c0,0.5-0.4,0.8-0.8,0.8h-31.2l0,0v-9.7
	C239.2,157.7,244.6,152.4,251.2,152.4z"/>
<g class="st0">
	<path d="M68.4,183.7v-0.8l3.6,1.6v0.6l-3.6,1.6v-0.8l2.5-1l0.4-0.1v0l-0.4-0.1L68.4,183.7z"/>
	<path d="M77,183.5c0.4,0,0.6-0.1,0.8-0.3c0.2-0.2,0.2-0.4,0.2-0.8c0-0.3-0.1-0.6-0.3-0.8c-0.2-0.2-0.4-0.3-0.8-0.3
		c-0.3,0-0.6,0.1-0.8,0.3c-0.2,0.2-0.3,0.5-0.3,0.8h-0.8l0,0c0-0.5,0.2-0.9,0.5-1.2s0.8-0.5,1.4-0.5c0.6,0,1,0.1,1.4,0.4
		c0.3,0.3,0.5,0.7,0.5,1.3c0,0.3-0.1,0.6-0.2,0.8s-0.4,0.4-0.6,0.6c0.3,0.1,0.5,0.3,0.7,0.6s0.2,0.6,0.2,0.9c0,0.6-0.2,1-0.5,1.3
		c-0.4,0.3-0.8,0.5-1.4,0.5c-0.5,0-1-0.2-1.4-0.5c-0.4-0.3-0.6-0.7-0.6-1.2l0,0h0.8c0,0.3,0.1,0.6,0.3,0.8c0.2,0.2,0.5,0.3,0.8,0.3
		c0.3,0,0.6-0.1,0.8-0.3c0.2-0.2,0.3-0.5,0.3-0.8c0-0.4-0.1-0.7-0.3-0.9c-0.2-0.2-0.5-0.3-0.8-0.3h-0.7v-0.7H77z"/>
	<path d="M79.8,182.1c0-0.4,0.1-0.7,0.3-0.9c0.2-0.2,0.5-0.4,0.9-0.4c0.4,0,0.7,0.1,0.9,0.4c0.2,0.2,0.3,0.5,0.3,0.9v0.3
		c0,0.4-0.1,0.7-0.3,0.9c-0.2,0.2-0.5,0.4-0.9,0.4c-0.4,0-0.7-0.1-0.9-0.4c-0.2-0.2-0.4-0.5-0.4-0.9V182.1z M80.5,182.4
		c0,0.2,0.1,0.4,0.2,0.5c0.1,0.1,0.3,0.2,0.5,0.2c0.2,0,0.4-0.1,0.5-0.2s0.2-0.3,0.2-0.5v-0.3c0-0.2-0.1-0.4-0.2-0.5
		c-0.1-0.1-0.3-0.2-0.5-0.2c-0.2,0-0.4,0.1-0.5,0.2c-0.1,0.1-0.2,0.3-0.2,0.5V182.4z M81.4,186.6l-0.5-0.3l3-4.8l0.5,0.3L81.4,186.6
		z M82.8,185.5c0-0.4,0.1-0.7,0.3-0.9c0.2-0.2,0.5-0.4,0.9-0.4c0.4,0,0.7,0.1,0.9,0.4c0.2,0.2,0.4,0.5,0.4,0.9v0.3
		c0,0.4-0.1,0.7-0.3,0.9c-0.2,0.2-0.5,0.4-0.9,0.4c-0.4,0-0.7-0.1-0.9-0.4s-0.4-0.5-0.4-0.9V185.5z M83.5,185.9
		c0,0.2,0.1,0.4,0.2,0.5c0.1,0.1,0.3,0.2,0.5,0.2c0.2,0,0.4-0.1,0.5-0.2c0.1-0.1,0.2-0.3,0.2-0.5v-0.3c0-0.2-0.1-0.4-0.2-0.5
		s-0.3-0.2-0.5-0.2c-0.2,0-0.4,0.1-0.5,0.2s-0.2,0.3-0.2,0.5V185.9z"/>
	<path d="M93,181.5h-2v5.5h-0.8v-5.5h-2v-0.7H93V181.5z"/>
	<path d="M93.9,187.1v-6.2h2c0.6,0,1.2,0.1,1.5,0.4s0.5,0.7,0.5,1.3c0,0.3-0.1,0.5-0.2,0.7s-0.4,0.4-0.7,0.5c0.4,0.1,0.7,0.2,1,0.5
		s0.4,0.6,0.4,1c0,0.6-0.2,1-0.6,1.3c-0.4,0.3-0.9,0.4-1.5,0.4H93.9z M94.7,183.5h1.4c0.3,0,0.6-0.1,0.8-0.3
		c0.2-0.2,0.3-0.4,0.3-0.7c0-0.3-0.1-0.6-0.3-0.8c-0.2-0.2-0.5-0.2-0.9-0.2h-1.2V183.5z M94.7,184.2v2.2h1.6c0.4,0,0.7-0.1,0.9-0.3
		s0.3-0.5,0.3-0.8c0-0.3-0.1-0.6-0.3-0.8c-0.2-0.2-0.5-0.3-0.9-0.3h-0.1H94.7z"/>
	<path d="M100.7,184.9l0.1,0.8l0,0l0.1-0.8l1.1-4h0.8l1.1,4l0.1,0.8h0l0.1-0.8l0.9-4h0.9l-1.5,6.2h-0.7l-1.2-4.3l-0.1-0.6h0
		l-0.1,0.6l-1.3,4.3h-0.7l-1.5-6.2h0.9L100.7,184.9z"/>
	<path d="M107.7,186.4h3v0.7h-3.9v-6.2h0.8V186.4z"/>
</g>
<g class="st0">
	<path d="M70.4,195c0-1.1,0.2-2.1,0.7-2.9c0.5-0.8,0.9-1.3,1.4-1.6l0,0l0.2,0.5c-0.4,0.3-0.7,0.8-1,1.5c-0.3,0.7-0.4,1.5-0.4,2.5
		v0.1c0,1,0.1,1.8,0.4,2.5s0.6,1.2,1,1.5l-0.2,0.5h0c-0.5-0.3-1-0.8-1.4-1.6C70.6,197.1,70.4,196.2,70.4,195L70.4,195z"/>
	<path d="M74.1,192.9l0.1,0.6c0.2-0.2,0.3-0.4,0.6-0.5c0.2-0.1,0.5-0.2,0.8-0.2c0.3,0,0.6,0.1,0.8,0.2c0.2,0.1,0.4,0.4,0.5,0.6
		c0.1-0.3,0.3-0.5,0.6-0.6c0.2-0.2,0.5-0.2,0.8-0.2c0.5,0,0.8,0.2,1.1,0.5c0.3,0.3,0.4,0.8,0.4,1.5v2.8h-0.8v-2.8
		c0-0.5-0.1-0.8-0.2-1c-0.2-0.2-0.4-0.3-0.7-0.3c-0.3,0-0.5,0.1-0.7,0.3c-0.2,0.2-0.3,0.5-0.3,0.8v0v2.9h-0.8v-2.8
		c0-0.4-0.1-0.7-0.2-0.9c-0.2-0.2-0.4-0.3-0.7-0.3c-0.3,0-0.5,0.1-0.6,0.2c-0.2,0.1-0.3,0.3-0.4,0.4v3.4h-0.8v-4.6H74.1z"/>
	<path d="M80.8,195.2c0-0.7,0.2-1.2,0.6-1.7c0.4-0.4,0.9-0.7,1.5-0.7c0.6,0,1.1,0.2,1.5,0.7s0.6,1,0.6,1.7v0.1
		c0,0.7-0.2,1.2-0.6,1.7s-0.9,0.7-1.5,0.7c-0.6,0-1.1-0.2-1.5-0.7C81,196.5,80.8,195.9,80.8,195.2L80.8,195.2z M81.6,195.3
		c0,0.5,0.1,0.9,0.3,1.2c0.2,0.3,0.5,0.5,0.9,0.5c0.4,0,0.7-0.2,0.9-0.5s0.3-0.7,0.3-1.2v-0.1c0-0.5-0.1-0.9-0.3-1.2
		c-0.2-0.3-0.5-0.5-0.9-0.5c-0.4,0-0.7,0.2-0.9,0.5C81.7,194.3,81.6,194.7,81.6,195.3L81.6,195.3z"/>
	<path d="M86.7,192.9l0.1,0.7c0.2-0.2,0.3-0.4,0.6-0.6s0.5-0.2,0.8-0.2c0.5,0,0.9,0.1,1.2,0.4c0.3,0.3,0.4,0.7,0.4,1.3v2.9h-0.8
		v-2.9c0-0.4-0.1-0.7-0.2-0.9s-0.4-0.3-0.7-0.3c-0.3,0-0.5,0.1-0.7,0.2s-0.3,0.2-0.4,0.4v3.4h-0.8v-4.6H86.7z"/>
	<path d="M92,191.8v1.1h0.9v0.6H92v2.8c0,0.2,0,0.4,0.1,0.5c0.1,0.1,0.2,0.1,0.4,0.1c0,0,0.1,0,0.2,0s0.1,0,0.1,0l0.1,0.6
		c-0.1,0.1-0.2,0.1-0.3,0.1c-0.1,0-0.2,0-0.4,0c-0.3,0-0.6-0.1-0.8-0.3c-0.2-0.2-0.3-0.5-0.3-1v-2.8h-0.7v-0.6h0.7v-1.1H92z"/>
	<path d="M94.6,193.5c0.2-0.2,0.4-0.4,0.6-0.5c0.2-0.1,0.5-0.2,0.8-0.2c0.5,0,0.9,0.1,1.1,0.4c0.3,0.3,0.4,0.7,0.4,1.4v2.9h-0.8
		v-2.9c0-0.4-0.1-0.7-0.2-0.8c-0.2-0.2-0.4-0.3-0.7-0.3c-0.3,0-0.5,0-0.7,0.1s-0.3,0.2-0.4,0.4v3.4h-0.8v-6.6h0.8V193.5z"/>
	<path d="M102.8,194c0.4,0,0.6-0.1,0.8-0.3s0.2-0.4,0.2-0.8c0-0.3-0.1-0.6-0.3-0.8s-0.4-0.3-0.8-0.3c-0.3,0-0.6,0.1-0.8,0.3
		c-0.2,0.2-0.3,0.5-0.3,0.8h-0.8l0,0c0-0.5,0.2-0.9,0.5-1.2c0.4-0.3,0.8-0.5,1.4-0.5c0.6,0,1,0.1,1.4,0.4c0.3,0.3,0.5,0.7,0.5,1.3
		c0,0.3-0.1,0.6-0.2,0.8c-0.2,0.2-0.4,0.4-0.6,0.6c0.3,0.1,0.5,0.3,0.7,0.6s0.2,0.6,0.2,0.9c0,0.6-0.2,1-0.5,1.3
		c-0.4,0.3-0.8,0.5-1.4,0.5c-0.5,0-1-0.2-1.4-0.5c-0.4-0.3-0.6-0.7-0.6-1.2l0,0h0.8c0,0.3,0.1,0.6,0.3,0.8c0.2,0.2,0.5,0.3,0.8,0.3
		c0.3,0,0.6-0.1,0.8-0.3c0.2-0.2,0.3-0.5,0.3-0.8c0-0.4-0.1-0.7-0.3-0.9c-0.2-0.2-0.5-0.3-0.8-0.3h-0.7V194H102.8z"/>
	<path d="M107.5,195c0,1.1-0.2,2.1-0.7,2.9c-0.5,0.8-0.9,1.3-1.4,1.6h0l-0.2-0.5c0.4-0.3,0.7-0.8,1-1.5c0.3-0.7,0.4-1.5,0.4-2.5V195
		c0-1-0.1-1.8-0.4-2.5c-0.3-0.7-0.6-1.2-1-1.5l0.2-0.5h0c0.5,0.3,1,0.8,1.4,1.6S107.5,193.9,107.5,195L107.5,195z"/>
</g>
<g class="st0">
	<path d="M82.7,6.3v3.1h-1.1V1.6h3c0.8,0,1.5,0.2,1.9,0.6c0.5,0.4,0.7,1,0.7,1.7c0,0.7-0.2,1.3-0.7,1.7c-0.5,0.4-1.1,0.6-1.9,0.6
		H82.7z M82.7,5.4h1.9c0.5,0,0.9-0.1,1.2-0.4c0.3-0.3,0.4-0.6,0.4-1.1s-0.1-0.8-0.4-1.1c-0.3-0.3-0.7-0.4-1.2-0.4h-1.9V5.4z"/>
	<path d="M90.8,9.5c-0.8,0-1.5-0.3-2-0.8c-0.5-0.5-0.7-1.2-0.7-2.1V6.4c0-0.8,0.2-1.5,0.7-2.1c0.5-0.5,1.1-0.8,1.8-0.8
		c0.8,0,1.4,0.2,1.7,0.7C92.8,4.7,93,5.3,93,6.1v0.6h-3.7l0,0c0,0.6,0.1,1.1,0.4,1.4s0.7,0.5,1.2,0.5c0.4,0,0.7-0.1,0.9-0.2
		c0.3-0.1,0.5-0.2,0.7-0.4l0.4,0.7C92.6,9,92.4,9.2,92,9.3S91.3,9.5,90.8,9.5z M90.6,4.3c-0.4,0-0.7,0.1-0.9,0.4
		c-0.2,0.3-0.4,0.6-0.4,1.1l0,0h2.6V5.8c0-0.4-0.1-0.8-0.3-1S91.1,4.3,90.6,4.3z"/>
	<path d="M96.9,4.5l-0.5,0c-0.3,0-0.5,0.1-0.7,0.2c-0.2,0.1-0.3,0.3-0.4,0.6v4.2h-1.1V3.6h0.9l0.1,0.8c0.2-0.3,0.4-0.5,0.6-0.7
		c0.2-0.2,0.5-0.3,0.8-0.3c0.1,0,0.2,0,0.2,0s0.1,0,0.2,0L96.9,4.5z"/>
	<path d="M100.2,8.7c0.3,0,0.6-0.1,0.9-0.3s0.4-0.5,0.4-0.8h1l0,0c0,0.5-0.2,0.9-0.6,1.3s-1,0.6-1.5,0.6c-0.8,0-1.4-0.3-1.9-0.8
		s-0.7-1.2-0.7-2.1V6.4c0-0.8,0.2-1.5,0.7-2.1c0.4-0.6,1.1-0.8,1.9-0.8c0.6,0,1.2,0.2,1.6,0.6c0.4,0.4,0.6,0.9,0.6,1.5l0,0h-1
		c0-0.4-0.1-0.7-0.3-0.9c-0.2-0.2-0.5-0.4-0.9-0.4c-0.5,0-0.9,0.2-1.1,0.6c-0.2,0.4-0.4,0.9-0.4,1.5v0.2c0,0.6,0.1,1.1,0.4,1.5
		C99.3,8.5,99.7,8.7,100.2,8.7z"/>
	<path d="M106.1,9.5c-0.8,0-1.5-0.3-2-0.8c-0.5-0.5-0.7-1.2-0.7-2.1V6.4c0-0.8,0.2-1.5,0.7-2.1c0.5-0.5,1.1-0.8,1.8-0.8
		c0.8,0,1.4,0.2,1.7,0.7c0.4,0.5,0.6,1.1,0.6,1.9v0.6h-3.7l0,0c0,0.6,0.1,1.1,0.4,1.4s0.7,0.5,1.2,0.5c0.4,0,0.7-0.1,0.9-0.2
		c0.3-0.1,0.5-0.2,0.7-0.4l0.4,0.7c-0.2,0.2-0.5,0.4-0.8,0.5S106.5,9.5,106.1,9.5z M105.9,4.3c-0.4,0-0.7,0.1-0.9,0.4
		c-0.2,0.3-0.4,0.6-0.4,1.1l0,0h2.6V5.8c0-0.4-0.1-0.8-0.3-1S106.3,4.3,105.9,4.3z"/>
	<path d="M110.4,3.6l0.1,0.9c0.2-0.3,0.4-0.5,0.7-0.7c0.3-0.2,0.6-0.3,1-0.3c0.6,0,1.1,0.2,1.5,0.6s0.5,0.9,0.5,1.7v3.7h-1.1V5.8
		c0-0.5-0.1-0.9-0.3-1.1c-0.2-0.2-0.5-0.3-0.9-0.3c-0.3,0-0.6,0.1-0.8,0.2c-0.2,0.1-0.4,0.3-0.5,0.6v4.3h-1.1V3.6H110.4z"/>
	<path d="M117.1,2.2v1.4h1.1v0.8h-1.1v3.5c0,0.3,0.1,0.5,0.2,0.6c0.1,0.1,0.3,0.2,0.4,0.2c0.1,0,0.1,0,0.2,0c0.1,0,0.1,0,0.2-0.1
		l0.1,0.7c-0.1,0.1-0.2,0.1-0.3,0.2s-0.3,0.1-0.5,0.1c-0.4,0-0.8-0.1-1-0.4s-0.4-0.7-0.4-1.2V4.4h-0.9V3.6h0.9V2.2H117.1z"/>
	<path d="M122.9,9.4c0-0.2-0.1-0.3-0.1-0.5c0-0.1,0-0.3,0-0.4c-0.2,0.3-0.5,0.5-0.8,0.7c-0.3,0.2-0.7,0.3-1,0.3
		c-0.6,0-1.1-0.2-1.4-0.5c-0.3-0.3-0.5-0.7-0.5-1.3c0-0.6,0.2-1,0.7-1.3c0.4-0.3,1.1-0.5,1.8-0.5h1.1V5.4c0-0.3-0.1-0.6-0.3-0.8
		c-0.2-0.2-0.5-0.3-0.9-0.3c-0.3,0-0.6,0.1-0.8,0.3s-0.3,0.4-0.3,0.6l-1,0l0,0c0-0.4,0.2-0.8,0.6-1.2c0.4-0.4,1-0.5,1.6-0.5
		c0.7,0,1.2,0.2,1.6,0.5s0.6,0.8,0.6,1.4v2.8c0,0.2,0,0.4,0,0.6s0.1,0.4,0.1,0.6H122.9z M121.2,8.6c0.4,0,0.7-0.1,1-0.3
		c0.3-0.2,0.5-0.4,0.6-0.7V6.7h-1.2c-0.4,0-0.8,0.1-1,0.3c-0.3,0.2-0.4,0.5-0.4,0.8c0,0.3,0.1,0.5,0.2,0.6S120.9,8.6,121.2,8.6z"/>
	<path d="M125.2,6.6c0-0.9,0.2-1.7,0.6-2.3c0.4-0.6,1-0.9,1.7-0.9c0.4,0,0.7,0.1,1,0.2s0.5,0.4,0.7,0.6l0.1-0.8h0.8v5.8
		c0,0.7-0.2,1.3-0.6,1.7s-1.1,0.6-1.9,0.6c-0.3,0-0.6,0-0.9-0.1c-0.3-0.1-0.6-0.2-0.9-0.3l0.2-0.8c0.2,0.1,0.5,0.2,0.7,0.3
		c0.3,0.1,0.6,0.1,0.9,0.1c0.5,0,0.9-0.1,1.1-0.4c0.2-0.2,0.4-0.6,0.4-1.1V8.8c-0.2,0.2-0.4,0.4-0.7,0.6s-0.6,0.2-0.9,0.2
		c-0.7,0-1.3-0.3-1.7-0.8c-0.4-0.5-0.6-1.2-0.6-2V6.6z M126.3,6.7c0,0.6,0.1,1.1,0.4,1.4s0.6,0.5,1.1,0.5c0.3,0,0.6-0.1,0.8-0.2
		c0.2-0.1,0.4-0.4,0.5-0.6V5.2c-0.1-0.2-0.3-0.4-0.5-0.6c-0.2-0.1-0.5-0.2-0.8-0.2c-0.5,0-0.9,0.2-1.1,0.6c-0.2,0.4-0.4,1-0.4,1.6
		V6.7z"/>
	<path d="M134.1,9.5c-0.8,0-1.5-0.3-2-0.8c-0.5-0.5-0.7-1.2-0.7-2.1V6.4c0-0.8,0.2-1.5,0.7-2.1c0.5-0.5,1.1-0.8,1.8-0.8
		c0.8,0,1.4,0.2,1.7,0.7c0.4,0.5,0.6,1.1,0.6,1.9v0.6h-3.7l0,0c0,0.6,0.1,1.1,0.4,1.4s0.7,0.5,1.2,0.5c0.4,0,0.7-0.1,0.9-0.2
		c0.3-0.1,0.5-0.2,0.7-0.4l0.4,0.7c-0.2,0.2-0.5,0.4-0.8,0.5S134.6,9.5,134.1,9.5z M133.9,4.3c-0.4,0-0.7,0.1-0.9,0.4
		c-0.2,0.3-0.4,0.6-0.4,1.1l0,0h2.6V5.8c0-0.4-0.1-0.8-0.3-1S134.3,4.3,133.9,4.3z"/>
	<path d="M139.9,6.4c0-0.9,0.2-1.6,0.7-2.1s1.1-0.8,1.9-0.8c0.8,0,1.4,0.3,1.9,0.8c0.5,0.6,0.7,1.3,0.7,2.1v0.1
		c0,0.9-0.2,1.6-0.7,2.1c-0.5,0.6-1.1,0.8-1.9,0.8s-1.4-0.3-1.9-0.8c-0.5-0.6-0.7-1.3-0.7-2.1V6.4z M141,6.6c0,0.6,0.1,1.1,0.4,1.5
		c0.3,0.4,0.6,0.6,1.2,0.6c0.5,0,0.9-0.2,1.1-0.6c0.3-0.4,0.4-0.9,0.4-1.5V6.4c0-0.6-0.1-1.1-0.4-1.5c-0.3-0.4-0.6-0.6-1.2-0.6
		c-0.5,0-0.9,0.2-1.1,0.6c-0.3,0.4-0.4,0.9-0.4,1.5V6.6z"/>
	<path d="M146.9,9.4v-5h-0.9V3.6h0.9V2.9c0-0.6,0.2-1.1,0.5-1.4c0.3-0.3,0.8-0.5,1.4-0.5c0.1,0,0.2,0,0.4,0c0.1,0,0.3,0,0.4,0.1
		l-0.1,0.8c-0.1,0-0.1,0-0.2,0c-0.1,0-0.2,0-0.3,0c-0.3,0-0.5,0.1-0.7,0.3s-0.2,0.5-0.2,0.8v0.7h1.1v0.8h-1.1v5H146.9z"/>
	<path d="M158.4,2.4h-2.6v7h-1.1v-7h-2.5V1.6h6.2V2.4z"/>
	<path d="M161.7,4.5l-0.5,0c-0.3,0-0.5,0.1-0.7,0.2c-0.2,0.1-0.3,0.3-0.4,0.6v4.2h-1.1V3.6h0.9l0.1,0.8c0.2-0.3,0.4-0.5,0.6-0.7
		c0.2-0.2,0.5-0.3,0.8-0.3c0.1,0,0.2,0,0.2,0s0.1,0,0.2,0L161.7,4.5z"/>
	<path d="M165.1,9.5c-0.8,0-1.5-0.3-2-0.8c-0.5-0.5-0.7-1.2-0.7-2.1V6.4c0-0.8,0.2-1.5,0.7-2.1c0.5-0.5,1.1-0.8,1.8-0.8
		c0.8,0,1.4,0.2,1.7,0.7c0.4,0.5,0.6,1.1,0.6,1.9v0.6h-3.7l0,0c0,0.6,0.1,1.1,0.4,1.4s0.7,0.5,1.2,0.5c0.4,0,0.7-0.1,0.9-0.2
		c0.3-0.1,0.5-0.2,0.7-0.4l0.4,0.7c-0.2,0.2-0.5,0.4-0.8,0.5S165.6,9.5,165.1,9.5z M164.9,4.3c-0.4,0-0.7,0.1-0.9,0.4
		c-0.2,0.3-0.4,0.6-0.4,1.1l0,0h2.6V5.8c0-0.4-0.1-0.8-0.3-1S165.4,4.3,164.9,4.3z"/>
	<path d="M172,9.4c0-0.2-0.1-0.3-0.1-0.5c0-0.1,0-0.3,0-0.4c-0.2,0.3-0.5,0.5-0.8,0.7c-0.3,0.2-0.7,0.3-1,0.3
		c-0.6,0-1.1-0.2-1.4-0.5c-0.3-0.3-0.5-0.7-0.5-1.3c0-0.6,0.2-1,0.7-1.3c0.4-0.3,1.1-0.5,1.8-0.5h1.1V5.4c0-0.3-0.1-0.6-0.3-0.8
		c-0.2-0.2-0.5-0.3-0.9-0.3c-0.3,0-0.6,0.1-0.8,0.3s-0.3,0.4-0.3,0.6l-1,0l0,0c0-0.4,0.2-0.8,0.6-1.2c0.4-0.4,1-0.5,1.6-0.5
		c0.7,0,1.2,0.2,1.6,0.5s0.6,0.8,0.6,1.4v2.8c0,0.2,0,0.4,0,0.6s0.1,0.4,0.1,0.6H172z M170.3,8.6c0.4,0,0.7-0.1,1-0.3
		c0.3-0.2,0.5-0.4,0.6-0.7V6.7h-1.2c-0.4,0-0.8,0.1-1,0.3c-0.3,0.2-0.4,0.5-0.4,0.8c0,0.3,0.1,0.5,0.2,0.6S170,8.6,170.3,8.6z"/>
	<path d="M176,2.2v1.4h1.1v0.8H176v3.5c0,0.3,0.1,0.5,0.2,0.6c0.1,0.1,0.3,0.2,0.4,0.2c0.1,0,0.1,0,0.2,0c0.1,0,0.1,0,0.2-0.1
		l0.1,0.7c-0.1,0.1-0.2,0.1-0.3,0.2s-0.3,0.1-0.5,0.1c-0.4,0-0.8-0.1-1-0.4s-0.4-0.7-0.4-1.2V4.4H174V3.6h0.9V2.2H176z"/>
	<path d="M179.2,3.6l0.1,0.8c0.2-0.3,0.4-0.5,0.7-0.6s0.6-0.2,1-0.2s0.7,0.1,1,0.3s0.5,0.4,0.6,0.8c0.2-0.3,0.4-0.6,0.7-0.8
		s0.6-0.3,1-0.3c0.6,0,1.1,0.2,1.4,0.6s0.5,1,0.5,1.8v3.5h-1.1V5.9c0-0.6-0.1-1-0.3-1.2c-0.2-0.2-0.5-0.4-0.9-0.4
		c-0.4,0-0.7,0.1-0.9,0.4s-0.4,0.6-0.4,1v0v3.7h-1.1V5.9c0-0.5-0.1-0.9-0.3-1.2c-0.2-0.3-0.5-0.4-0.9-0.4c-0.3,0-0.6,0.1-0.8,0.2
		c-0.2,0.1-0.4,0.3-0.5,0.6v4.3h-1.1V3.6H179.2z"/>
	<path d="M190.2,9.5c-0.8,0-1.5-0.3-2-0.8c-0.5-0.5-0.7-1.2-0.7-2.1V6.4c0-0.8,0.2-1.5,0.7-2.1c0.5-0.5,1.1-0.8,1.8-0.8
		c0.8,0,1.4,0.2,1.7,0.7c0.4,0.5,0.6,1.1,0.6,1.9v0.6h-3.7l0,0c0,0.6,0.1,1.1,0.4,1.4s0.7,0.5,1.2,0.5c0.4,0,0.7-0.1,0.9-0.2
		c0.3-0.1,0.5-0.2,0.7-0.4l0.4,0.7c-0.2,0.2-0.5,0.4-0.8,0.5S190.7,9.5,190.2,9.5z M190.1,4.3c-0.4,0-0.7,0.1-0.9,0.4
		c-0.2,0.3-0.4,0.6-0.4,1.1l0,0h2.6V5.8c0-0.4-0.1-0.8-0.3-1C190.8,4.5,190.5,4.3,190.1,4.3z"/>
	<path d="M194.5,3.6l0.1,0.9c0.2-0.3,0.4-0.5,0.7-0.7c0.3-0.2,0.6-0.3,1-0.3c0.6,0,1.1,0.2,1.5,0.6s0.5,0.9,0.5,1.7v3.7h-1.1V5.8
		c0-0.5-0.1-0.9-0.3-1.1c-0.2-0.2-0.5-0.3-0.9-0.3c-0.3,0-0.6,0.1-0.8,0.2c-0.2,0.1-0.4,0.3-0.5,0.6v4.3h-1.1V3.6H194.5z"/>
	<path d="M201.3,2.2v1.4h1.1v0.8h-1.1v3.5c0,0.3,0.1,0.5,0.2,0.6c0.1,0.1,0.3,0.2,0.4,0.2c0.1,0,0.1,0,0.2,0c0.1,0,0.1,0,0.2-0.1
		l0.1,0.7c-0.1,0.1-0.2,0.1-0.3,0.2c-0.2,0-0.3,0.1-0.5,0.1c-0.4,0-0.8-0.1-1-0.4c-0.3-0.3-0.4-0.7-0.4-1.2V4.4h-0.9V3.6h0.9V2.2
		H201.3z"/>
	<path d="M207.5,6v3.4h-1.1V1.6h2.7c0.9,0,1.5,0.2,2,0.6c0.5,0.4,0.7,0.9,0.7,1.7c0,0.4-0.1,0.8-0.3,1s-0.5,0.5-0.9,0.7
		c0.4,0.1,0.7,0.4,0.9,0.7c0.2,0.3,0.3,0.7,0.3,1.2v0.7c0,0.2,0,0.5,0.1,0.7c0.1,0.2,0.1,0.4,0.3,0.5v0.1H211
		c-0.1-0.1-0.2-0.3-0.3-0.5s-0.1-0.5-0.1-0.7V7.4c0-0.4-0.1-0.8-0.4-1s-0.6-0.4-1-0.4H207.5z M207.5,5.2h1.5c0.6,0,1-0.1,1.3-0.3
		s0.4-0.6,0.4-1c0-0.4-0.1-0.8-0.4-1c-0.3-0.2-0.7-0.4-1.2-0.4h-1.6V5.2z"/>
	<path d="M215.7,9.5c-0.8,0-1.5-0.3-2-0.8c-0.5-0.5-0.7-1.2-0.7-2.1V6.4c0-0.8,0.2-1.5,0.7-2.1s1.1-0.8,1.8-0.8
		c0.8,0,1.4,0.2,1.7,0.7c0.4,0.5,0.6,1.1,0.6,1.9v0.6h-3.7l0,0c0,0.6,0.1,1.1,0.4,1.4s0.7,0.5,1.2,0.5c0.4,0,0.7-0.1,0.9-0.2
		c0.3-0.1,0.5-0.2,0.7-0.4l0.4,0.7c-0.2,0.2-0.5,0.4-0.8,0.5S216.2,9.5,215.7,9.5z M215.5,4.3c-0.4,0-0.7,0.1-0.9,0.4
		c-0.2,0.3-0.4,0.6-0.4,1.1l0,0h2.6V5.8c0-0.4-0.1-0.8-0.3-1C216.3,4.5,215.9,4.3,215.5,4.3z"/>
	<path d="M222.4,7.8c0-0.2-0.1-0.4-0.3-0.6c-0.2-0.1-0.5-0.3-1-0.4c-0.7-0.1-1.2-0.4-1.6-0.6S219,5.6,219,5.2c0-0.5,0.2-0.9,0.6-1.2
		c0.4-0.3,0.9-0.5,1.6-0.5c0.7,0,1.2,0.2,1.6,0.5s0.6,0.8,0.6,1.3l0,0h-1c0-0.3-0.1-0.5-0.3-0.7c-0.2-0.2-0.5-0.3-0.8-0.3
		c-0.4,0-0.7,0.1-0.8,0.3s-0.3,0.4-0.3,0.6c0,0.2,0.1,0.4,0.2,0.5c0.2,0.1,0.5,0.2,1,0.3c0.7,0.2,1.3,0.4,1.6,0.6s0.6,0.6,0.6,1.1
		c0,0.5-0.2,0.9-0.6,1.3s-1,0.5-1.6,0.5c-0.7,0-1.3-0.2-1.8-0.6s-0.6-0.8-0.6-1.3l0,0h1c0,0.4,0.2,0.7,0.4,0.8
		c0.3,0.2,0.6,0.3,0.9,0.3c0.4,0,0.7-0.1,0.9-0.2C222.3,8.3,222.4,8.1,222.4,7.8z"/>
	<path d="M229.7,6.7c0,0.8-0.2,1.5-0.6,2s-1,0.8-1.7,0.8c-0.4,0-0.7-0.1-0.9-0.2c-0.3-0.1-0.5-0.3-0.7-0.5v2.8h-1.1v-8h0.8l0.2,0.8
		c0.2-0.3,0.4-0.5,0.7-0.6c0.3-0.1,0.6-0.2,1-0.2c0.7,0,1.3,0.3,1.7,0.9c0.4,0.6,0.6,1.3,0.6,2.3V6.7z M228.7,6.6
		c0-0.7-0.1-1.2-0.4-1.6c-0.3-0.4-0.6-0.6-1.1-0.6c-0.3,0-0.6,0.1-0.8,0.2s-0.4,0.3-0.5,0.6v2.8c0.1,0.2,0.3,0.4,0.5,0.6
		c0.2,0.1,0.5,0.2,0.8,0.2c0.5,0,0.9-0.2,1.1-0.5s0.4-0.8,0.4-1.4V6.6z"/>
	<path d="M230.8,6.4c0-0.9,0.2-1.6,0.7-2.1s1.1-0.8,1.9-0.8c0.8,0,1.4,0.3,1.9,0.8c0.5,0.6,0.7,1.3,0.7,2.1v0.1
		c0,0.9-0.2,1.6-0.7,2.1c-0.5,0.6-1.1,0.8-1.9,0.8c-0.8,0-1.4-0.3-1.9-0.8c-0.5-0.6-0.7-1.3-0.7-2.1V6.4z M231.8,6.6
		c0,0.6,0.1,1.1,0.4,1.5c0.3,0.4,0.6,0.6,1.2,0.6c0.5,0,0.9-0.2,1.1-0.6c0.3-0.4,0.4-0.9,0.4-1.5V6.4c0-0.6-0.1-1.1-0.4-1.5
		s-0.6-0.6-1.2-0.6c-0.5,0-0.9,0.2-1.1,0.6s-0.4,0.9-0.4,1.5V6.6z"/>
	<path d="M238.2,3.6l0.1,0.9c0.2-0.3,0.4-0.5,0.7-0.7c0.3-0.2,0.6-0.3,1-0.3c0.6,0,1.1,0.2,1.5,0.6S242,5,242,5.7v3.7h-1.1V5.8
		c0-0.5-0.1-0.9-0.3-1.1c-0.2-0.2-0.5-0.3-0.9-0.3c-0.3,0-0.6,0.1-0.8,0.2c-0.2,0.1-0.4,0.3-0.5,0.6v4.3h-1.1V3.6H238.2z"/>
	<path d="M243.3,6.6c0-0.9,0.2-1.7,0.6-2.3c0.4-0.6,1-0.9,1.7-0.9c0.3,0,0.6,0.1,0.9,0.2c0.3,0.1,0.5,0.3,0.7,0.5V1h1.1v8.4h-0.8
		l-0.2-0.7c-0.2,0.3-0.4,0.5-0.7,0.6c-0.3,0.1-0.6,0.2-1,0.2c-0.7,0-1.3-0.3-1.7-0.8c-0.4-0.5-0.6-1.2-0.6-2V6.6z M244.4,6.7
		c0,0.6,0.1,1.1,0.4,1.4c0.2,0.4,0.6,0.5,1.1,0.5c0.3,0,0.6-0.1,0.8-0.2c0.2-0.1,0.4-0.3,0.5-0.6V5.1c-0.1-0.2-0.3-0.4-0.5-0.6
		c-0.2-0.1-0.5-0.2-0.8-0.2c-0.5,0-0.9,0.2-1.1,0.6c-0.2,0.4-0.4,1-0.4,1.6V6.7z"/>
	<path d="M252.2,9.5c-0.8,0-1.5-0.3-2-0.8s-0.7-1.2-0.7-2.1V6.4c0-0.8,0.2-1.5,0.7-2.1c0.5-0.5,1.1-0.8,1.8-0.8
		c0.8,0,1.4,0.2,1.7,0.7c0.4,0.5,0.6,1.1,0.6,1.9v0.6h-3.7l0,0c0,0.6,0.1,1.1,0.4,1.4s0.7,0.5,1.2,0.5c0.4,0,0.7-0.1,0.9-0.2
		c0.3-0.1,0.5-0.2,0.7-0.4l0.4,0.7c-0.2,0.2-0.5,0.4-0.8,0.5C253.1,9.4,252.7,9.5,252.2,9.5z M252,4.3c-0.4,0-0.7,0.1-0.9,0.4
		c-0.2,0.3-0.4,0.6-0.4,1.1l0,0h2.6V5.8c0-0.4-0.1-0.8-0.3-1S252.5,4.3,252,4.3z"/>
	<path d="M258.3,4.5l-0.5,0c-0.3,0-0.5,0.1-0.7,0.2c-0.2,0.1-0.3,0.3-0.4,0.6v4.2h-1.1V3.6h0.9l0.1,0.8c0.2-0.3,0.4-0.5,0.6-0.7
		c0.2-0.2,0.5-0.3,0.8-0.3c0.1,0,0.2,0,0.2,0s0.1,0,0.2,0L258.3,4.5z"/>
	<path d="M262.8,7.8c0-0.2-0.1-0.4-0.3-0.6c-0.2-0.1-0.5-0.3-1-0.4c-0.7-0.1-1.2-0.4-1.6-0.6s-0.6-0.6-0.6-1.1
		c0-0.5,0.2-0.9,0.6-1.2c0.4-0.3,0.9-0.5,1.6-0.5c0.7,0,1.2,0.2,1.6,0.5s0.6,0.8,0.6,1.3l0,0h-1c0-0.3-0.1-0.5-0.3-0.7
		c-0.2-0.2-0.5-0.3-0.8-0.3c-0.4,0-0.7,0.1-0.8,0.3s-0.3,0.4-0.3,0.6c0,0.2,0.1,0.4,0.2,0.5c0.2,0.1,0.5,0.2,1,0.3
		c0.7,0.2,1.3,0.4,1.6,0.6s0.6,0.6,0.6,1.1c0,0.5-0.2,0.9-0.6,1.3s-1,0.5-1.6,0.5c-0.7,0-1.3-0.2-1.8-0.6s-0.6-0.8-0.6-1.3l0,0h1
		c0,0.4,0.2,0.7,0.4,0.8c0.3,0.2,0.6,0.3,0.9,0.3c0.4,0,0.7-0.1,0.9-0.2C262.7,8.3,262.8,8.1,262.8,7.8z"/>
</g>
<g class="st0">
	<path d="M5,125h2.5v0.8H1.3v-2.4c0-0.7,0.2-1.2,0.5-1.5c0.3-0.4,0.8-0.5,1.3-0.5c0.6,0,1,0.2,1.3,0.5c0.3,0.4,0.5,0.9,0.5,1.5V125z
		 M4.4,125v-1.5c0-0.4-0.1-0.7-0.3-0.9s-0.5-0.3-0.9-0.3c-0.3,0-0.6,0.1-0.9,0.3C2.1,122.7,2,123,2,123.4v1.5H4.4z"/>
	<path d="M7.5,117.6c-0.1,0-0.3,0.1-0.4,0.1s-0.2,0-0.3,0c0.2,0.2,0.4,0.4,0.6,0.6c0.1,0.3,0.2,0.5,0.2,0.8c0,0.5-0.1,0.8-0.4,1.1
		c-0.2,0.3-0.6,0.4-1,0.4c-0.4,0-0.8-0.2-1-0.5c-0.2-0.4-0.4-0.8-0.4-1.4v-0.9H4.3c-0.3,0-0.5,0.1-0.6,0.2c-0.2,0.2-0.2,0.4-0.2,0.7
		c0,0.3,0.1,0.5,0.2,0.7c0.1,0.2,0.3,0.3,0.5,0.3l0,0.8l0,0c-0.3,0-0.6-0.1-0.9-0.5c-0.3-0.3-0.4-0.8-0.4-1.3c0-0.5,0.1-0.9,0.4-1.3
		c0.3-0.3,0.6-0.5,1.1-0.5h2.2c0.2,0,0.3,0,0.5,0c0.2,0,0.3,0,0.5-0.1V117.6z M6.9,119c0-0.3-0.1-0.6-0.2-0.8
		c-0.2-0.2-0.3-0.4-0.5-0.5H5.4v0.9c0,0.3,0.1,0.6,0.3,0.8c0.2,0.2,0.4,0.3,0.6,0.3c0.2,0,0.4-0.1,0.5-0.2S6.9,119.2,6.9,119z"/>
	<path d="M1.8,114.5h1.1v-0.9h0.6v0.9h2.8c0.2,0,0.4,0,0.5-0.1s0.1-0.2,0.1-0.4c0,0,0-0.1,0-0.2c0-0.1,0-0.1,0-0.1l0.6-0.1
		c0.1,0.1,0.1,0.2,0.1,0.3c0,0.1,0,0.2,0,0.4c0,0.3-0.1,0.6-0.3,0.8c-0.2,0.2-0.5,0.3-1,0.3H3.5v0.7H2.9v-0.7H1.8V114.5z"/>
	<path d="M1.7,111.8v0.8H0.9v-0.8H1.7z M7.5,111.8v0.8H2.9v-0.8H7.5z"/>
	<path d="M7.6,108.6c0,0.7-0.2,1.2-0.6,1.5c-0.4,0.4-1,0.6-1.7,0.6H5.1c-0.7,0-1.2-0.2-1.6-0.6s-0.6-0.8-0.6-1.4
		c0-0.6,0.2-1.1,0.6-1.4c0.4-0.3,0.9-0.5,1.5-0.5h0.4v2.9l0,0c0.5,0,0.8-0.1,1.1-0.3c0.3-0.2,0.4-0.5,0.4-0.9c0-0.3,0-0.5-0.1-0.7
		c-0.1-0.2-0.2-0.4-0.3-0.6L7,107c0.2,0.2,0.3,0.4,0.4,0.7S7.6,108.2,7.6,108.6z M3.5,108.7c0,0.3,0.1,0.5,0.3,0.7s0.5,0.3,0.9,0.4
		l0,0v-2.1H4.6c-0.3,0-0.6,0.1-0.8,0.2C3.6,108.1,3.5,108.4,3.5,108.7z"/>
	<path d="M2.9,105.2l0.7-0.1c-0.2-0.2-0.4-0.3-0.6-0.6s-0.2-0.5-0.2-0.8c0-0.5,0.1-0.9,0.4-1.2c0.3-0.3,0.7-0.4,1.3-0.4h2.9v0.8H4.6
		c-0.4,0-0.7,0.1-0.9,0.2s-0.3,0.4-0.3,0.7c0,0.3,0.1,0.5,0.2,0.7c0.1,0.2,0.2,0.3,0.4,0.4h3.4v0.8H2.9V105.2z"/>
	<path d="M1.8,99.8h1.1V99h0.6v0.9h2.8c0.2,0,0.4,0,0.5-0.1c0.1-0.1,0.1-0.2,0.1-0.4c0,0,0-0.1,0-0.2s0-0.1,0-0.1l0.6-0.1
		c0.1,0.1,0.1,0.2,0.1,0.3c0,0.1,0,0.2,0,0.4c0,0.3-0.1,0.6-0.3,0.8c-0.2,0.2-0.5,0.3-1,0.3H3.5v0.7H2.9v-0.7H1.8V99.8z"/>
	<path d="M6.3,95.4c-0.2,0-0.3,0.1-0.5,0.2S5.6,96,5.5,96.4c-0.1,0.5-0.3,1-0.5,1.2c-0.2,0.3-0.5,0.4-0.8,0.4c-0.4,0-0.7-0.2-1-0.5
		c-0.3-0.3-0.4-0.7-0.4-1.2c0-0.5,0.1-0.9,0.4-1.3c0.3-0.3,0.6-0.5,1-0.5l0,0v0.8c-0.2,0-0.4,0.1-0.5,0.3c-0.2,0.2-0.2,0.4-0.2,0.7
		c0,0.3,0.1,0.5,0.2,0.7c0.1,0.1,0.3,0.2,0.5,0.2c0.2,0,0.3-0.1,0.4-0.2c0.1-0.1,0.2-0.4,0.3-0.8c0.1-0.6,0.3-1,0.5-1.3
		c0.2-0.3,0.5-0.4,0.9-0.4c0.4,0,0.7,0.2,1,0.5c0.3,0.3,0.4,0.8,0.4,1.3c0,0.6-0.1,1-0.4,1.4s-0.6,0.5-1,0.5l0,0v-0.8
		c0.3,0,0.5-0.1,0.7-0.3c0.1-0.2,0.2-0.4,0.2-0.7c0-0.3-0.1-0.5-0.2-0.7C6.6,95.5,6.4,95.4,6.3,95.4z"/>
	<path d="M5,91.4c-1.1,0-2.1-0.2-2.9-0.7c-0.8-0.5-1.3-0.9-1.6-1.4l0,0L1,89.1c0.3,0.4,0.8,0.7,1.5,1C3.2,90.4,4,90.6,5,90.6H5
		c1,0,1.8-0.1,2.5-0.4c0.7-0.3,1.2-0.6,1.5-1l0.5,0.2v0c-0.3,0.5-0.8,1-1.6,1.4C7.1,91.2,6.1,91.4,5,91.4L5,91.4z"/>
	<path d="M2.5,88.6c-0.4,0-0.7-0.1-0.9-0.3c-0.2-0.2-0.4-0.5-0.4-0.9c0-0.4,0.1-0.7,0.4-0.9c0.2-0.2,0.5-0.3,0.9-0.3h0.3
		c0.4,0,0.7,0.1,0.9,0.3c0.2,0.2,0.4,0.5,0.4,0.9c0,0.4-0.1,0.7-0.4,0.9c-0.2,0.2-0.5,0.4-0.9,0.4H2.5z M2.8,88
		c0.2,0,0.4-0.1,0.5-0.2c0.1-0.1,0.2-0.3,0.2-0.5c0-0.2-0.1-0.4-0.2-0.5S3,86.7,2.8,86.7H2.5c-0.2,0-0.4,0.1-0.5,0.2
		c-0.1,0.1-0.2,0.3-0.2,0.5c0,0.2,0.1,0.4,0.2,0.5C2.1,87.9,2.3,88,2.5,88H2.8z M7,87.1l-0.3,0.5l-4.8-3l0.3-0.5L7,87.1z M6,85.6
		c-0.4,0-0.7-0.1-0.9-0.3c-0.2-0.2-0.4-0.5-0.4-0.9c0-0.4,0.1-0.7,0.4-0.9c0.2-0.2,0.5-0.4,0.9-0.4h0.3c0.4,0,0.7,0.1,0.9,0.3
		c0.2,0.2,0.4,0.5,0.4,0.9c0,0.4-0.1,0.7-0.4,0.9s-0.5,0.4-0.9,0.4H6z M6.3,85c0.2,0,0.4-0.1,0.5-0.2c0.1-0.1,0.2-0.3,0.2-0.5
		c0-0.2-0.1-0.4-0.2-0.5c-0.1-0.1-0.3-0.2-0.5-0.2H6c-0.2,0-0.4,0.1-0.5,0.2s-0.2,0.3-0.2,0.5c0,0.2,0.1,0.4,0.2,0.5S5.8,85,6,85
		H6.3z"/>
	<path d="M5,80.4c1.1,0,2.1,0.2,2.9,0.7c0.8,0.5,1.3,0.9,1.6,1.4v0L9,82.7c-0.3-0.4-0.8-0.7-1.5-1C6.8,81.4,6,81.2,5,81.2H5
		c-1,0-1.8,0.1-2.5,0.4c-0.7,0.3-1.2,0.6-1.5,1l-0.5-0.2v0c0.3-0.5,0.8-1,1.6-1.4S3.9,80.4,5,80.4L5,80.4z"/>
</g>
<g class="st0">
	<path d="M156.3,183.7v-0.8l3.6,1.6v0.6l-3.6,1.6v-0.8l2.5-1l0.4-0.1v0l-0.4-0.1L156.3,183.7z"/>
	<path d="M165.4,187.1h-0.8v-5.4l-1.3,0V181l2.2-0.2V187.1z"/>
	<path d="M171.7,184.9c0,0.7-0.2,1.3-0.5,1.7c-0.4,0.4-0.8,0.6-1.4,0.6c-0.6,0-1.1-0.2-1.4-0.6s-0.5-1-0.5-1.7v-1.8
		c0-0.7,0.2-1.2,0.5-1.7c0.4-0.4,0.8-0.6,1.4-0.6c0.6,0,1.1,0.2,1.4,0.6c0.4,0.4,0.5,1,0.5,1.7V184.9z M170.9,182.9
		c0-0.4-0.1-0.8-0.3-1.1c-0.2-0.3-0.5-0.4-0.8-0.4c-0.4,0-0.6,0.1-0.8,0.4s-0.3,0.6-0.3,1.1v2.2c0,0.4,0.1,0.8,0.3,1.1
		c0.2,0.3,0.5,0.4,0.8,0.4c0.4,0,0.6-0.1,0.8-0.4c0.2-0.3,0.3-0.6,0.3-1.1V182.9z"/>
	<path d="M172.7,182.1c0-0.4,0.1-0.7,0.3-0.9c0.2-0.2,0.5-0.4,0.9-0.4c0.4,0,0.7,0.1,0.9,0.4c0.2,0.2,0.3,0.5,0.3,0.9v0.3
		c0,0.4-0.1,0.7-0.3,0.9c-0.2,0.2-0.5,0.4-0.9,0.4c-0.4,0-0.7-0.1-0.9-0.4c-0.2-0.2-0.4-0.5-0.4-0.9V182.1z M173.3,182.4
		c0,0.2,0.1,0.4,0.2,0.5c0.1,0.1,0.3,0.2,0.5,0.2c0.2,0,0.4-0.1,0.5-0.2s0.2-0.3,0.2-0.5v-0.3c0-0.2-0.1-0.4-0.2-0.5
		c-0.1-0.1-0.3-0.2-0.5-0.2c-0.2,0-0.4,0.1-0.5,0.2c-0.1,0.1-0.2,0.3-0.2,0.5V182.4z M174.2,186.6l-0.5-0.3l3-4.8l0.5,0.3
		L174.2,186.6z M175.7,185.5c0-0.4,0.1-0.7,0.3-0.9c0.2-0.2,0.5-0.4,0.9-0.4c0.4,0,0.7,0.1,0.9,0.4c0.2,0.2,0.4,0.5,0.4,0.9v0.3
		c0,0.4-0.1,0.7-0.3,0.9c-0.2,0.2-0.5,0.4-0.9,0.4c-0.4,0-0.7-0.1-0.9-0.4s-0.4-0.5-0.4-0.9V185.5z M176.3,185.9
		c0,0.2,0.1,0.4,0.2,0.5c0.1,0.1,0.3,0.2,0.5,0.2c0.2,0,0.4-0.1,0.5-0.2c0.1-0.1,0.2-0.3,0.2-0.5v-0.3c0-0.2-0.1-0.4-0.2-0.5
		s-0.3-0.2-0.5-0.2c-0.2,0-0.4,0.1-0.5,0.2s-0.2,0.3-0.2,0.5V185.9z"/>
	<path d="M185.8,181.5h-2v5.5h-0.8v-5.5h-2v-0.7h4.9V181.5z"/>
	<path d="M186.7,187.1v-6.2h2c0.6,0,1.2,0.1,1.5,0.4c0.4,0.3,0.5,0.7,0.5,1.3c0,0.3-0.1,0.5-0.2,0.7c-0.2,0.2-0.4,0.4-0.7,0.5
		c0.4,0.1,0.7,0.2,1,0.5c0.2,0.3,0.4,0.6,0.4,1c0,0.6-0.2,1-0.6,1.3c-0.4,0.3-0.9,0.4-1.5,0.4H186.7z M187.5,183.5h1.4
		c0.3,0,0.6-0.1,0.8-0.3c0.2-0.2,0.3-0.4,0.3-0.7c0-0.3-0.1-0.6-0.3-0.8c-0.2-0.2-0.5-0.2-0.9-0.2h-1.2V183.5z M187.5,184.2v2.2h1.6
		c0.4,0,0.7-0.1,0.9-0.3c0.2-0.2,0.3-0.5,0.3-0.8c0-0.3-0.1-0.6-0.3-0.8c-0.2-0.2-0.5-0.3-0.9-0.3h-0.1H187.5z"/>
	<path d="M193.5,184.9l0.1,0.8l0,0l0.1-0.8l1.1-4h0.8l1.1,4l0.1,0.8h0l0.1-0.8l0.9-4h0.9l-1.5,6.2h-0.7l-1.2-4.3l-0.1-0.6h0
		l-0.1,0.6l-1.3,4.3h-0.7l-1.5-6.2h0.9L193.5,184.9z"/>
	<path d="M200.6,186.4h3v0.7h-3.9v-6.2h0.8V186.4z"/>
</g>
<g class="st0">
	<path d="M160.2,195c0-1.1,0.2-2.1,0.7-2.9c0.5-0.8,0.9-1.3,1.4-1.6l0,0l0.2,0.5c-0.4,0.3-0.7,0.8-1,1.5c-0.3,0.7-0.4,1.5-0.4,2.5
		v0.1c0,1,0.1,1.8,0.4,2.5c0.3,0.7,0.6,1.2,1,1.5l-0.2,0.5h0c-0.5-0.3-1-0.8-1.4-1.6C160.4,197.1,160.2,196.2,160.2,195L160.2,195z"
		/>
	<path d="M163.9,192.9l0.1,0.6c0.2-0.2,0.3-0.4,0.6-0.5s0.5-0.2,0.8-0.2c0.3,0,0.6,0.1,0.8,0.2c0.2,0.1,0.4,0.4,0.5,0.6
		c0.1-0.3,0.3-0.5,0.6-0.6c0.2-0.2,0.5-0.2,0.8-0.2c0.5,0,0.8,0.2,1.1,0.5c0.3,0.3,0.4,0.8,0.4,1.5v2.8h-0.8v-2.8
		c0-0.5-0.1-0.8-0.2-1c-0.2-0.2-0.4-0.3-0.7-0.3c-0.3,0-0.5,0.1-0.7,0.3c-0.2,0.2-0.3,0.5-0.3,0.8v0v2.9h-0.8v-2.8
		c0-0.4-0.1-0.7-0.2-0.9c-0.2-0.2-0.4-0.3-0.7-0.3c-0.3,0-0.5,0.1-0.6,0.2c-0.2,0.1-0.3,0.3-0.4,0.4v3.4h-0.8v-4.6H163.9z"/>
	<path d="M170.5,195.2c0-0.7,0.2-1.2,0.6-1.7s0.9-0.7,1.5-0.7c0.6,0,1.1,0.2,1.5,0.7s0.6,1,0.6,1.7v0.1c0,0.7-0.2,1.2-0.6,1.7
		c-0.4,0.4-0.9,0.7-1.5,0.7s-1.1-0.2-1.5-0.7C170.7,196.5,170.5,195.9,170.5,195.2L170.5,195.2z M171.4,195.3c0,0.5,0.1,0.9,0.3,1.2
		s0.5,0.5,0.9,0.5c0.4,0,0.7-0.2,0.9-0.5s0.3-0.7,0.3-1.2v-0.1c0-0.5-0.1-0.9-0.3-1.2s-0.5-0.5-0.9-0.5c-0.4,0-0.7,0.2-0.9,0.5
		S171.4,194.7,171.4,195.3L171.4,195.3z"/>
	<path d="M176.4,192.9l0.1,0.7c0.2-0.2,0.3-0.4,0.6-0.6c0.2-0.1,0.5-0.2,0.8-0.2c0.5,0,0.9,0.1,1.2,0.4c0.3,0.3,0.4,0.7,0.4,1.3v2.9
		h-0.8v-2.9c0-0.4-0.1-0.7-0.2-0.9s-0.4-0.3-0.7-0.3c-0.3,0-0.5,0.1-0.7,0.2c-0.2,0.1-0.3,0.2-0.4,0.4v3.4h-0.8v-4.6H176.4z"/>
	<path d="M181.8,191.8v1.1h0.9v0.6h-0.9v2.8c0,0.2,0,0.4,0.1,0.5c0.1,0.1,0.2,0.1,0.4,0.1c0,0,0.1,0,0.2,0s0.1,0,0.1,0l0.1,0.6
		c-0.1,0.1-0.2,0.1-0.3,0.1c-0.1,0-0.2,0-0.4,0c-0.3,0-0.6-0.1-0.8-0.3c-0.2-0.2-0.3-0.5-0.3-1v-2.8h-0.7v-0.6h0.7v-1.1H181.8z"/>
	<path d="M184.4,193.5c0.2-0.2,0.4-0.4,0.6-0.5c0.2-0.1,0.5-0.2,0.8-0.2c0.5,0,0.9,0.1,1.1,0.4c0.3,0.3,0.4,0.7,0.4,1.4v2.9h-0.8
		v-2.9c0-0.4-0.1-0.7-0.2-0.8c-0.2-0.2-0.4-0.3-0.7-0.3c-0.3,0-0.5,0-0.7,0.1s-0.3,0.2-0.4,0.4v3.4h-0.8v-6.6h0.8V193.5z"/>
	<path d="M192.8,191.2c0.2,0,0.5,0,0.7,0.1c0.2,0,0.4,0.1,0.6,0.2l-0.2,0.6c-0.2-0.1-0.3-0.1-0.5-0.2s-0.4-0.1-0.6-0.1
		c-0.4,0-0.7,0.2-0.9,0.5c-0.2,0.3-0.4,0.8-0.4,1.3v0.5c0.2-0.2,0.4-0.3,0.6-0.4c0.2-0.1,0.5-0.1,0.8-0.1c0.5,0,1,0.2,1.3,0.5
		c0.3,0.4,0.5,0.8,0.5,1.4c0,0.6-0.2,1.1-0.5,1.5c-0.3,0.4-0.8,0.6-1.4,0.6c-0.6,0-1.1-0.2-1.4-0.7s-0.6-1-0.6-1.8v-1.4
		c0-0.7,0.2-1.3,0.6-1.8C191.7,191.5,192.2,191.2,192.8,191.2z M192.6,194.2c-0.3,0-0.5,0.1-0.7,0.2c-0.2,0.1-0.3,0.3-0.4,0.5v0.4
		c0,0.5,0.1,0.9,0.3,1.2s0.5,0.5,0.8,0.5c0.3,0,0.6-0.1,0.8-0.4c0.2-0.3,0.3-0.6,0.3-1c0-0.4-0.1-0.7-0.3-1
		C193.2,194.3,193,194.2,192.6,194.2z"/>
	<path d="M197.3,195c0,1.1-0.2,2.1-0.7,2.9c-0.5,0.8-0.9,1.3-1.4,1.6h0L195,199c0.4-0.3,0.7-0.8,1-1.5c0.3-0.7,0.4-1.5,0.4-2.5V195
		c0-1-0.1-1.8-0.4-2.5c-0.3-0.7-0.6-1.2-1-1.5l0.2-0.5h0c0.5,0.3,1,0.8,1.4,1.6S197.3,193.9,197.3,195L197.3,195z"/>
</g>
<g class="st0">
	<path d="M21.7,34.7c0,0.3-0.1,0.6-0.3,0.9c-0.2,0.2-0.4,0.4-0.7,0.6c0.4,0.1,0.6,0.3,0.8,0.6c0.2,0.3,0.3,0.6,0.3,0.9
		c0,0.6-0.2,1-0.6,1.3c-0.4,0.3-0.8,0.5-1.4,0.5c-0.6,0-1.1-0.2-1.5-0.5c-0.4-0.3-0.6-0.8-0.6-1.3c0-0.3,0.1-0.7,0.3-0.9
		s0.5-0.5,0.9-0.6c-0.3-0.1-0.6-0.3-0.8-0.5C18.1,35.3,18,35,18,34.7c0-0.5,0.2-1,0.5-1.2c0.3-0.3,0.8-0.4,1.4-0.4
		c0.5,0,1,0.1,1.3,0.4C21.6,33.7,21.7,34.2,21.7,34.7z M21.1,37.6c0-0.3-0.1-0.6-0.3-0.8s-0.5-0.3-0.8-0.3c-0.4,0-0.6,0.1-0.9,0.3
		c-0.2,0.2-0.3,0.5-0.3,0.8c0,0.3,0.1,0.6,0.3,0.8c0.2,0.2,0.5,0.3,0.9,0.3c0.3,0,0.6-0.1,0.8-0.3C21,38.2,21.1,37.9,21.1,37.6z
		 M20.9,34.7c0-0.3-0.1-0.5-0.3-0.7c-0.2-0.2-0.4-0.3-0.7-0.3c-0.3,0-0.6,0.1-0.7,0.3c-0.2,0.2-0.3,0.4-0.3,0.7
		c0,0.3,0.1,0.6,0.3,0.8s0.4,0.3,0.8,0.3c0.3,0,0.5-0.1,0.7-0.3C20.8,35.3,20.9,35,20.9,34.7z"/>
	<path d="M26.8,37.1c0,0.7-0.2,1.3-0.5,1.7c-0.4,0.4-0.8,0.6-1.4,0.6c-0.6,0-1.1-0.2-1.4-0.6s-0.5-1-0.5-1.7v-1.8
		c0-0.7,0.2-1.2,0.5-1.7c0.4-0.4,0.8-0.6,1.4-0.6c0.6,0,1.1,0.2,1.4,0.6c0.4,0.4,0.5,1,0.5,1.7V37.1z M25.9,35.1
		c0-0.4-0.1-0.8-0.3-1.1c-0.2-0.3-0.5-0.4-0.8-0.4c-0.4,0-0.6,0.1-0.8,0.4s-0.3,0.6-0.3,1.1v2.2c0,0.4,0.1,0.8,0.3,1.1
		c0.2,0.3,0.5,0.4,0.8,0.4c0.4,0,0.6-0.1,0.8-0.4c0.2-0.3,0.3-0.6,0.3-1.1V35.1z"/>
	<path d="M27.7,34.3c0-0.4,0.1-0.7,0.3-0.9c0.2-0.2,0.5-0.4,0.9-0.4c0.4,0,0.7,0.1,0.9,0.4c0.2,0.2,0.3,0.5,0.3,0.9v0.3
		c0,0.4-0.1,0.7-0.3,0.9c-0.2,0.2-0.5,0.4-0.9,0.4c-0.4,0-0.7-0.1-0.9-0.4c-0.2-0.2-0.4-0.5-0.4-0.9V34.3z M28.3,34.6
		c0,0.2,0.1,0.4,0.2,0.5c0.1,0.1,0.3,0.2,0.5,0.2c0.2,0,0.4-0.1,0.5-0.2s0.2-0.3,0.2-0.5v-0.3c0-0.2-0.1-0.4-0.2-0.5
		c-0.1-0.1-0.3-0.2-0.5-0.2c-0.2,0-0.4,0.1-0.5,0.2c-0.1,0.1-0.2,0.3-0.2,0.5V34.6z M29.2,38.8l-0.5-0.3l3-4.8l0.5,0.3L29.2,38.8z
		 M30.7,37.8c0-0.4,0.1-0.7,0.3-0.9c0.2-0.2,0.5-0.4,0.9-0.4c0.4,0,0.7,0.1,0.9,0.4c0.2,0.2,0.4,0.5,0.4,0.9v0.3
		c0,0.4-0.1,0.7-0.3,0.9c-0.2,0.2-0.5,0.4-0.9,0.4c-0.4,0-0.7-0.1-0.9-0.4s-0.4-0.5-0.4-0.9V37.8z M31.3,38.1c0,0.2,0.1,0.4,0.2,0.5
		c0.1,0.1,0.3,0.2,0.5,0.2c0.2,0,0.4-0.1,0.5-0.2c0.1-0.1,0.2-0.3,0.2-0.5v-0.3c0-0.2-0.1-0.4-0.2-0.5S32.2,37,32,37
		c-0.2,0-0.4,0.1-0.5,0.2s-0.2,0.3-0.2,0.5V38.1z"/>
</g>
<g class="st0">
	<path d="M22,50.9c-0.8,0.9-1.3,1.8-1.6,2.5c-0.3,0.7-0.4,1.5-0.4,2.4v0.7h-0.8v-0.7c0-0.9,0.2-1.8,0.5-2.5c0.3-0.8,0.8-1.5,1.5-2.3
		h-3.3v-0.7H22V50.9z"/>
	<path d="M26.8,54.2c0,0.7-0.2,1.3-0.5,1.7c-0.4,0.4-0.8,0.6-1.4,0.6c-0.6,0-1.1-0.2-1.4-0.6s-0.5-1-0.5-1.7v-1.8
		c0-0.7,0.2-1.2,0.5-1.7c0.4-0.4,0.8-0.6,1.4-0.6c0.6,0,1.1,0.2,1.4,0.6c0.4,0.4,0.5,1,0.5,1.7V54.2z M25.9,52.2
		c0-0.4-0.1-0.8-0.3-1.1c-0.2-0.3-0.5-0.4-0.8-0.4c-0.4,0-0.6,0.1-0.8,0.4s-0.3,0.6-0.3,1.1v2.2c0,0.4,0.1,0.8,0.3,1.1
		c0.2,0.3,0.5,0.4,0.8,0.4c0.4,0,0.6-0.1,0.8-0.4c0.2-0.3,0.3-0.6,0.3-1.1V52.2z"/>
	<path d="M27.7,51.4c0-0.4,0.1-0.7,0.3-0.9c0.2-0.2,0.5-0.4,0.9-0.4c0.4,0,0.7,0.1,0.9,0.4c0.2,0.2,0.3,0.5,0.3,0.9v0.3
		c0,0.4-0.1,0.7-0.3,0.9C29.7,52.9,29.4,53,29,53c-0.4,0-0.7-0.1-0.9-0.4c-0.2-0.2-0.4-0.5-0.4-0.9V51.4z M28.3,51.7
		c0,0.2,0.1,0.4,0.2,0.5c0.1,0.1,0.3,0.2,0.5,0.2c0.2,0,0.4-0.1,0.5-0.2s0.2-0.3,0.2-0.5v-0.3c0-0.2-0.1-0.4-0.2-0.5
		c-0.1-0.1-0.3-0.2-0.5-0.2c-0.2,0-0.4,0.1-0.5,0.2c-0.1,0.1-0.2,0.3-0.2,0.5V51.7z M29.2,55.9l-0.5-0.3l3-4.8l0.5,0.3L29.2,55.9z
		 M30.7,54.9c0-0.4,0.1-0.7,0.3-0.9c0.2-0.2,0.5-0.4,0.9-0.4c0.4,0,0.7,0.1,0.9,0.4c0.2,0.2,0.4,0.5,0.4,0.9v0.3
		c0,0.4-0.1,0.7-0.3,0.9c-0.2,0.2-0.5,0.4-0.9,0.4c-0.4,0-0.7-0.1-0.9-0.4s-0.4-0.5-0.4-0.9V54.9z M31.3,55.2c0,0.2,0.1,0.4,0.2,0.5
		c0.1,0.1,0.3,0.2,0.5,0.2c0.2,0,0.4-0.1,0.5-0.2c0.1-0.1,0.2-0.3,0.2-0.5v-0.3c0-0.2-0.1-0.4-0.2-0.5s-0.3-0.2-0.5-0.2
		c-0.2,0-0.4,0.1-0.5,0.2s-0.2,0.3-0.2,0.5V55.2z"/>
</g>
<g class="st0">
	<path d="M20.1,67.2c0.2,0,0.5,0,0.7,0.1c0.2,0,0.4,0.1,0.6,0.2l-0.2,0.6c-0.2-0.1-0.3-0.1-0.5-0.2c-0.2,0-0.4-0.1-0.6-0.1
		c-0.4,0-0.7,0.2-0.9,0.5c-0.2,0.3-0.4,0.8-0.4,1.3v0.5c0.2-0.2,0.4-0.3,0.6-0.4c0.2-0.1,0.5-0.1,0.8-0.1c0.5,0,1,0.2,1.3,0.5
		c0.3,0.4,0.5,0.8,0.5,1.4c0,0.6-0.2,1.1-0.5,1.5c-0.3,0.4-0.8,0.6-1.4,0.6c-0.6,0-1.1-0.2-1.4-0.7c-0.4-0.4-0.6-1-0.6-1.8v-1.4
		c0-0.7,0.2-1.3,0.6-1.8C19,67.5,19.5,67.2,20.1,67.2z M19.9,70.2c-0.3,0-0.5,0.1-0.7,0.2c-0.2,0.1-0.3,0.3-0.4,0.5v0.4
		c0,0.5,0.1,0.9,0.3,1.2c0.2,0.3,0.5,0.5,0.8,0.5c0.3,0,0.6-0.1,0.8-0.4c0.2-0.3,0.3-0.6,0.3-1c0-0.4-0.1-0.7-0.3-1
		S20.3,70.2,19.9,70.2z"/>
	<path d="M26.7,71.3c0,0.7-0.2,1.3-0.5,1.7c-0.4,0.4-0.8,0.6-1.4,0.6c-0.6,0-1.1-0.2-1.4-0.6s-0.5-1-0.5-1.7v-1.8
		c0-0.7,0.2-1.2,0.5-1.7c0.4-0.4,0.8-0.6,1.4-0.6c0.6,0,1.1,0.2,1.4,0.6c0.4,0.4,0.5,1,0.5,1.7V71.3z M25.9,69.3
		c0-0.4-0.1-0.8-0.3-1.1c-0.2-0.3-0.5-0.4-0.8-0.4c-0.4,0-0.6,0.1-0.8,0.4s-0.3,0.6-0.3,1.1v2.2c0,0.4,0.1,0.8,0.3,1.1
		c0.2,0.3,0.5,0.4,0.8,0.4c0.4,0,0.6-0.1,0.8-0.4c0.2-0.3,0.3-0.6,0.3-1.1V69.3z"/>
	<path d="M27.7,68.5c0-0.4,0.1-0.7,0.3-0.9c0.2-0.2,0.5-0.4,0.9-0.4c0.4,0,0.7,0.1,0.9,0.4c0.2,0.2,0.3,0.5,0.3,0.9v0.3
		c0,0.4-0.1,0.7-0.3,0.9c-0.2,0.2-0.5,0.4-0.9,0.4c-0.4,0-0.7-0.1-0.9-0.4c-0.2-0.2-0.4-0.5-0.4-0.9V68.5z M28.3,68.9
		c0,0.2,0.1,0.4,0.2,0.5c0.1,0.1,0.3,0.2,0.5,0.2c0.2,0,0.4-0.1,0.5-0.2s0.2-0.3,0.2-0.5v-0.3c0-0.2-0.1-0.4-0.2-0.5
		c-0.1-0.1-0.3-0.2-0.5-0.2c-0.2,0-0.4,0.1-0.5,0.2c-0.1,0.1-0.2,0.3-0.2,0.5V68.9z M29.2,73.1l-0.5-0.3l3-4.8l0.5,0.3L29.2,73.1z
		 M30.7,72c0-0.4,0.1-0.7,0.3-0.9c0.2-0.2,0.5-0.4,0.9-0.4c0.4,0,0.7,0.1,0.9,0.4c0.2,0.2,0.4,0.5,0.4,0.9v0.3
		c0,0.4-0.1,0.7-0.3,0.9c-0.2,0.2-0.5,0.4-0.9,0.4c-0.4,0-0.7-0.1-0.9-0.4s-0.4-0.5-0.4-0.9V72z M31.3,72.3c0,0.2,0.1,0.4,0.2,0.5
		c0.1,0.1,0.3,0.2,0.5,0.2c0.2,0,0.4-0.1,0.5-0.2c0.1-0.1,0.2-0.3,0.2-0.5V72c0-0.2-0.1-0.4-0.2-0.5s-0.3-0.2-0.5-0.2
		c-0.2,0-0.4,0.1-0.5,0.2s-0.2,0.3-0.2,0.5V72.3z"/>
</g>
<g class="st0">
	<path d="M18.3,87.9l0.4-3.4h3.1v0.7h-2.4L19.2,87c0.1-0.1,0.3-0.2,0.4-0.2c0.2-0.1,0.3-0.1,0.6-0.1c0.6,0,1,0.2,1.3,0.5
		c0.3,0.4,0.5,0.9,0.5,1.5c0,0.6-0.2,1.1-0.5,1.5s-0.8,0.6-1.5,0.6c-0.5,0-1-0.1-1.3-0.4c-0.3-0.3-0.5-0.7-0.5-1.3l0,0H19
		c0,0.3,0.1,0.6,0.3,0.8c0.2,0.2,0.4,0.3,0.8,0.3c0.4,0,0.6-0.1,0.8-0.4c0.2-0.3,0.3-0.6,0.3-1c0-0.4-0.1-0.7-0.3-1
		c-0.2-0.2-0.5-0.4-0.8-0.4c-0.3,0-0.6,0-0.7,0.1S19.1,87.7,19,88L18.3,87.9z"/>
	<path d="M26.9,88.4c0,0.7-0.2,1.3-0.5,1.7s-0.8,0.6-1.4,0.6c-0.6,0-1.1-0.2-1.4-0.6c-0.4-0.4-0.5-1-0.5-1.7v-1.8
		c0-0.7,0.2-1.2,0.5-1.7s0.8-0.6,1.4-0.6c0.6,0,1.1,0.2,1.4,0.6c0.4,0.4,0.5,1,0.5,1.7V88.4z M26,86.5c0-0.4-0.1-0.8-0.3-1.1
		c-0.2-0.3-0.5-0.4-0.8-0.4c-0.4,0-0.6,0.1-0.8,0.4c-0.2,0.3-0.3,0.6-0.3,1.1v2.2c0,0.4,0.1,0.8,0.3,1.1c0.2,0.3,0.5,0.4,0.8,0.4
		c0.4,0,0.6-0.1,0.8-0.4c0.2-0.3,0.3-0.6,0.3-1.1V86.5z"/>
	<path d="M27.8,85.6c0-0.4,0.1-0.7,0.3-0.9c0.2-0.2,0.5-0.4,0.9-0.4s0.7,0.1,0.9,0.4c0.2,0.2,0.3,0.5,0.3,0.9V86
		c0,0.4-0.1,0.7-0.3,0.9c-0.2,0.2-0.5,0.4-0.9,0.4c-0.4,0-0.7-0.1-0.9-0.4c-0.2-0.2-0.4-0.5-0.4-0.9V85.6z M28.4,86
		c0,0.2,0.1,0.4,0.2,0.5c0.1,0.1,0.3,0.2,0.5,0.2c0.2,0,0.4-0.1,0.5-0.2s0.2-0.3,0.2-0.5v-0.3c0-0.2-0.1-0.4-0.2-0.5
		c-0.1-0.1-0.3-0.2-0.5-0.2c-0.2,0-0.4,0.1-0.5,0.2c-0.1,0.1-0.2,0.3-0.2,0.5V86z M29.3,90.2l-0.5-0.3l3-4.8l0.5,0.3L29.3,90.2z
		 M30.8,89.1c0-0.4,0.1-0.7,0.3-0.9c0.2-0.2,0.5-0.4,0.9-0.4c0.4,0,0.7,0.1,0.9,0.4c0.2,0.2,0.4,0.5,0.4,0.9v0.3
		c0,0.4-0.1,0.7-0.3,0.9s-0.5,0.4-0.9,0.4c-0.4,0-0.7-0.1-0.9-0.4c-0.2-0.2-0.4-0.5-0.4-0.9V89.1z M31.4,89.4c0,0.2,0.1,0.4,0.2,0.5
		c0.1,0.1,0.3,0.2,0.5,0.2c0.2,0,0.4-0.1,0.5-0.2c0.1-0.1,0.2-0.3,0.2-0.5v-0.3c0-0.2-0.1-0.4-0.2-0.5s-0.3-0.2-0.5-0.2
		c-0.2,0-0.4,0.1-0.5,0.2c-0.1,0.1-0.2,0.3-0.2,0.5V89.4z"/>
</g>
<g class="st0">
	<path d="M21.1,105.7H22v0.7h-0.9v1.4h-0.8v-1.4h-2.7v-0.5l2.6-4.3h0.9V105.7z M18.5,105.7h1.8v-2.9l0,0l-0.1,0.2L18.5,105.7z"/>
	<path d="M26.6,105.6c0,0.7-0.2,1.3-0.5,1.7c-0.4,0.4-0.8,0.6-1.4,0.6c-0.6,0-1.1-0.2-1.4-0.6s-0.5-1-0.5-1.7v-1.8
		c0-0.7,0.2-1.2,0.5-1.7c0.4-0.4,0.8-0.6,1.4-0.6c0.6,0,1.1,0.2,1.4,0.6c0.4,0.4,0.5,1,0.5,1.7V105.6z M25.8,103.6
		c0-0.4-0.1-0.8-0.3-1.1c-0.2-0.3-0.5-0.4-0.8-0.4c-0.4,0-0.6,0.1-0.8,0.4s-0.3,0.6-0.3,1.1v2.2c0,0.4,0.1,0.8,0.3,1.1
		c0.2,0.3,0.5,0.4,0.8,0.4c0.4,0,0.6-0.1,0.8-0.4c0.2-0.3,0.3-0.6,0.3-1.1V103.6z"/>
	<path d="M27.6,102.7c0-0.4,0.1-0.7,0.3-0.9c0.2-0.2,0.5-0.4,0.9-0.4c0.4,0,0.7,0.1,0.9,0.4c0.2,0.2,0.3,0.5,0.3,0.9v0.3
		c0,0.4-0.1,0.7-0.3,0.9c-0.2,0.2-0.5,0.4-0.9,0.4c-0.4,0-0.7-0.1-0.9-0.4c-0.2-0.2-0.4-0.5-0.4-0.9V102.7z M28.2,103.1
		c0,0.2,0.1,0.4,0.2,0.5c0.1,0.1,0.3,0.2,0.5,0.2c0.2,0,0.4-0.1,0.5-0.2s0.2-0.3,0.2-0.5v-0.3c0-0.2-0.1-0.4-0.2-0.5
		c-0.1-0.1-0.3-0.2-0.5-0.2c-0.2,0-0.4,0.1-0.5,0.2c-0.1,0.1-0.2,0.3-0.2,0.5V103.1z M29.1,107.3l-0.5-0.3l3-4.8l0.5,0.3L29.1,107.3
		z M30.6,106.2c0-0.4,0.1-0.7,0.3-0.9c0.2-0.2,0.5-0.4,0.9-0.4c0.4,0,0.7,0.1,0.9,0.4c0.2,0.2,0.4,0.5,0.4,0.9v0.3
		c0,0.4-0.1,0.7-0.3,0.9c-0.2,0.2-0.5,0.4-0.9,0.4c-0.4,0-0.7-0.1-0.9-0.4s-0.4-0.5-0.4-0.9V106.2z M31.2,106.6
		c0,0.2,0.1,0.4,0.2,0.5c0.1,0.1,0.3,0.2,0.5,0.2c0.2,0,0.4-0.1,0.5-0.2c0.1-0.1,0.2-0.3,0.2-0.5v-0.3c0-0.2-0.1-0.4-0.2-0.5
		s-0.3-0.2-0.5-0.2c-0.2,0-0.4,0.1-0.5,0.2s-0.2,0.3-0.2,0.5V106.6z"/>
</g>
<g class="st0">
	<path d="M20,121.3c0.4,0,0.6-0.1,0.8-0.3c0.2-0.2,0.2-0.4,0.2-0.8c0-0.3-0.1-0.6-0.3-0.8c-0.2-0.2-0.4-0.3-0.8-0.3
		c-0.3,0-0.6,0.1-0.8,0.3c-0.2,0.2-0.3,0.5-0.3,0.8h-0.8l0,0c0-0.5,0.2-0.9,0.5-1.2s0.8-0.5,1.4-0.5c0.6,0,1,0.1,1.4,0.4
		c0.3,0.3,0.5,0.7,0.5,1.3c0,0.3-0.1,0.6-0.2,0.8s-0.4,0.4-0.6,0.6c0.3,0.1,0.5,0.3,0.7,0.6s0.2,0.6,0.2,0.9c0,0.6-0.2,1-0.5,1.3
		c-0.4,0.3-0.8,0.5-1.4,0.5c-0.5,0-1-0.2-1.4-0.5c-0.4-0.3-0.6-0.7-0.6-1.2l0,0h0.8c0,0.3,0.1,0.6,0.3,0.8c0.2,0.2,0.5,0.3,0.8,0.3
		c0.3,0,0.6-0.1,0.8-0.3c0.2-0.2,0.3-0.5,0.3-0.8c0-0.4-0.1-0.7-0.3-0.9c-0.2-0.2-0.5-0.3-0.8-0.3h-0.7v-0.7H20z"/>
	<path d="M26.8,122.7c0,0.7-0.2,1.3-0.5,1.7c-0.4,0.4-0.8,0.6-1.4,0.6c-0.6,0-1.1-0.2-1.4-0.6s-0.5-1-0.5-1.7v-1.8
		c0-0.7,0.2-1.2,0.5-1.7c0.4-0.4,0.8-0.6,1.4-0.6c0.6,0,1.1,0.2,1.4,0.6c0.4,0.4,0.5,1,0.5,1.7V122.7z M26,120.7
		c0-0.4-0.1-0.8-0.3-1.1c-0.2-0.3-0.5-0.4-0.8-0.4c-0.4,0-0.6,0.1-0.8,0.4s-0.3,0.6-0.3,1.1v2.2c0,0.4,0.1,0.8,0.3,1.1
		c0.2,0.3,0.5,0.4,0.8,0.4c0.4,0,0.6-0.1,0.8-0.4c0.2-0.3,0.3-0.6,0.3-1.1V120.7z"/>
	<path d="M27.7,119.9c0-0.4,0.1-0.7,0.3-0.9c0.2-0.2,0.5-0.4,0.9-0.4c0.4,0,0.7,0.1,0.9,0.4c0.2,0.2,0.3,0.5,0.3,0.9v0.3
		c0,0.4-0.1,0.7-0.3,0.9c-0.2,0.2-0.5,0.4-0.9,0.4c-0.4,0-0.7-0.1-0.9-0.4c-0.2-0.2-0.4-0.5-0.4-0.9V119.9z M28.4,120.2
		c0,0.2,0.1,0.4,0.2,0.5c0.1,0.1,0.3,0.2,0.5,0.2c0.2,0,0.4-0.1,0.5-0.2s0.2-0.3,0.2-0.5v-0.3c0-0.2-0.1-0.4-0.2-0.5
		c-0.1-0.1-0.3-0.2-0.5-0.2c-0.2,0-0.4,0.1-0.5,0.2c-0.1,0.1-0.2,0.3-0.2,0.5V120.2z M29.2,124.4l-0.5-0.3l3-4.8l0.5,0.3L29.2,124.4
		z M30.7,123.3c0-0.4,0.1-0.7,0.3-0.9c0.2-0.2,0.5-0.4,0.9-0.4c0.4,0,0.7,0.1,0.9,0.4c0.2,0.2,0.4,0.5,0.4,0.9v0.3
		c0,0.4-0.1,0.7-0.3,0.9c-0.2,0.2-0.5,0.4-0.9,0.4c-0.4,0-0.7-0.1-0.9-0.4s-0.4-0.5-0.4-0.9V123.3z M31.4,123.7
		c0,0.2,0.1,0.4,0.2,0.5c0.1,0.1,0.3,0.2,0.5,0.2c0.2,0,0.4-0.1,0.5-0.2c0.1-0.1,0.2-0.3,0.2-0.5v-0.3c0-0.2-0.1-0.4-0.2-0.5
		s-0.3-0.2-0.5-0.2c-0.2,0-0.4,0.1-0.5,0.2s-0.2,0.3-0.2,0.5V123.7z"/>
</g>
<g class="st0">
	<path d="M21.9,142h-3.8v-0.6l1.9-2.3c0.3-0.4,0.6-0.8,0.7-1c0.1-0.2,0.2-0.5,0.2-0.8c0-0.3-0.1-0.5-0.3-0.7
		c-0.2-0.2-0.4-0.3-0.7-0.3c-0.4,0-0.6,0.1-0.8,0.3c-0.2,0.2-0.3,0.5-0.3,0.8H18l0,0c0-0.5,0.2-0.9,0.5-1.3c0.4-0.4,0.8-0.5,1.4-0.5
		c0.6,0,1,0.2,1.3,0.5c0.3,0.3,0.5,0.7,0.5,1.2c0,0.3-0.1,0.6-0.3,1s-0.5,0.7-0.8,1.2l-1.6,1.8l0,0h2.8V142z"/>
	<path d="M26.8,139.8c0,0.7-0.2,1.3-0.5,1.7c-0.4,0.4-0.8,0.6-1.4,0.6c-0.6,0-1.1-0.2-1.4-0.6s-0.5-1-0.5-1.7V138
		c0-0.7,0.2-1.2,0.5-1.7c0.4-0.4,0.8-0.6,1.4-0.6c0.6,0,1.1,0.2,1.4,0.6c0.4,0.4,0.5,1,0.5,1.7V139.8z M25.9,137.8
		c0-0.4-0.1-0.8-0.3-1.1c-0.2-0.3-0.5-0.4-0.8-0.4c-0.4,0-0.6,0.1-0.8,0.4s-0.3,0.6-0.3,1.1v2.2c0,0.4,0.1,0.8,0.3,1.1
		c0.2,0.3,0.5,0.4,0.8,0.4c0.4,0,0.6-0.1,0.8-0.4c0.2-0.3,0.3-0.6,0.3-1.1V137.8z"/>
	<path d="M27.7,137c0-0.4,0.1-0.7,0.3-0.9c0.2-0.2,0.5-0.4,0.9-0.4c0.4,0,0.7,0.1,0.9,0.4c0.2,0.2,0.3,0.5,0.3,0.9v0.3
		c0,0.4-0.1,0.7-0.3,0.9c-0.2,0.2-0.5,0.4-0.9,0.4c-0.4,0-0.7-0.1-0.9-0.4c-0.2-0.2-0.4-0.5-0.4-0.9V137z M28.3,137.3
		c0,0.2,0.1,0.4,0.2,0.5c0.1,0.1,0.3,0.2,0.5,0.2c0.2,0,0.4-0.1,0.5-0.2s0.2-0.3,0.2-0.5V137c0-0.2-0.1-0.4-0.2-0.5
		c-0.1-0.1-0.3-0.2-0.5-0.2c-0.2,0-0.4,0.1-0.5,0.2c-0.1,0.1-0.2,0.3-0.2,0.5V137.3z M29.2,141.5l-0.5-0.3l3-4.8l0.5,0.3L29.2,141.5
		z M30.7,140.4c0-0.4,0.1-0.7,0.3-0.9c0.2-0.2,0.5-0.4,0.9-0.4c0.4,0,0.7,0.1,0.9,0.4c0.2,0.2,0.4,0.5,0.4,0.9v0.3
		c0,0.4-0.1,0.7-0.3,0.9c-0.2,0.2-0.5,0.4-0.9,0.4c-0.4,0-0.7-0.1-0.9-0.4s-0.4-0.5-0.4-0.9V140.4z M31.3,140.8
		c0,0.2,0.1,0.4,0.2,0.5c0.1,0.1,0.3,0.2,0.5,0.2c0.2,0,0.4-0.1,0.5-0.2c0.1-0.1,0.2-0.3,0.2-0.5v-0.3c0-0.2-0.1-0.4-0.2-0.5
		s-0.3-0.2-0.5-0.2c-0.2,0-0.4,0.1-0.5,0.2s-0.2,0.3-0.2,0.5V140.8z"/>
</g>
<g class="st0">
	<path d="M21.1,159.1h-0.8v-5.4l-1.3,0V153l2.2-0.2V159.1z"/>
	<path d="M27.4,156.9c0,0.7-0.2,1.3-0.5,1.7s-0.8,0.6-1.4,0.6c-0.6,0-1.1-0.2-1.4-0.6c-0.4-0.4-0.5-1-0.5-1.7v-1.8
		c0-0.7,0.2-1.2,0.5-1.7s0.8-0.6,1.4-0.6c0.6,0,1.1,0.2,1.4,0.6c0.4,0.4,0.5,1,0.5,1.7V156.9z M26.5,154.9c0-0.4-0.1-0.8-0.3-1.1
		c-0.2-0.3-0.5-0.4-0.8-0.4c-0.4,0-0.6,0.1-0.8,0.4c-0.2,0.3-0.3,0.6-0.3,1.1v2.2c0,0.4,0.1,0.8,0.3,1.1c0.2,0.3,0.5,0.4,0.8,0.4
		c0.4,0,0.6-0.1,0.8-0.4c0.2-0.3,0.3-0.6,0.3-1.1V154.9z"/>
	<path d="M28.3,154.1c0-0.4,0.1-0.7,0.3-0.9c0.2-0.2,0.5-0.4,0.9-0.4s0.7,0.1,0.9,0.4c0.2,0.2,0.3,0.5,0.3,0.9v0.3
		c0,0.4-0.1,0.7-0.3,0.9c-0.2,0.2-0.5,0.4-0.9,0.4c-0.4,0-0.7-0.1-0.9-0.4c-0.2-0.2-0.4-0.5-0.4-0.9V154.1z M28.9,154.4
		c0,0.2,0.1,0.4,0.2,0.5c0.1,0.1,0.3,0.2,0.5,0.2c0.2,0,0.4-0.1,0.5-0.2s0.2-0.3,0.2-0.5v-0.3c0-0.2-0.1-0.4-0.2-0.5
		c-0.1-0.1-0.3-0.2-0.5-0.2c-0.2,0-0.4,0.1-0.5,0.2c-0.1,0.1-0.2,0.3-0.2,0.5V154.4z M29.8,158.6l-0.5-0.3l3-4.8l0.5,0.3L29.8,158.6
		z M31.3,157.6c0-0.4,0.1-0.7,0.3-0.9c0.2-0.2,0.5-0.4,0.9-0.4c0.4,0,0.7,0.1,0.9,0.4c0.2,0.2,0.4,0.5,0.4,0.9v0.3
		c0,0.4-0.1,0.7-0.3,0.9s-0.5,0.4-0.9,0.4c-0.4,0-0.7-0.1-0.9-0.4c-0.2-0.2-0.4-0.5-0.4-0.9V157.6z M31.9,157.9
		c0,0.2,0.1,0.4,0.2,0.5c0.1,0.1,0.3,0.2,0.5,0.2c0.2,0,0.4-0.1,0.5-0.2c0.1-0.1,0.2-0.3,0.2-0.5v-0.3c0-0.2-0.1-0.4-0.2-0.5
		s-0.3-0.2-0.5-0.2c-0.2,0-0.4,0.1-0.5,0.2c-0.1,0.1-0.2,0.3-0.2,0.5V157.9z"/>
</g>
<g class="st0">
	<path d="M24.3,174c0,0.7-0.2,1.3-0.5,1.7c-0.4,0.4-0.8,0.6-1.4,0.6c-0.6,0-1.1-0.2-1.4-0.6s-0.5-1-0.5-1.7v-1.8
		c0-0.7,0.2-1.2,0.5-1.7c0.4-0.4,0.8-0.6,1.4-0.6c0.6,0,1.1,0.2,1.4,0.6c0.4,0.4,0.5,1,0.5,1.7V174z M23.4,172
		c0-0.4-0.1-0.8-0.3-1.1c-0.2-0.3-0.5-0.4-0.8-0.4c-0.4,0-0.6,0.1-0.8,0.4s-0.3,0.6-0.3,1.1v2.2c0,0.4,0.1,0.8,0.3,1.1
		c0.2,0.3,0.5,0.4,0.8,0.4c0.4,0,0.6-0.1,0.8-0.4c0.2-0.3,0.3-0.6,0.3-1.1V172z"/>
	<path d="M25.2,171.2c0-0.4,0.1-0.7,0.3-0.9c0.2-0.2,0.5-0.4,0.9-0.4c0.4,0,0.7,0.1,0.9,0.4c0.2,0.2,0.3,0.5,0.3,0.9v0.3
		c0,0.4-0.1,0.7-0.3,0.9c-0.2,0.2-0.5,0.4-0.9,0.4c-0.4,0-0.7-0.1-0.9-0.4c-0.2-0.2-0.4-0.5-0.4-0.9V171.2z M25.8,171.5
		c0,0.2,0.1,0.4,0.2,0.5c0.1,0.1,0.3,0.2,0.5,0.2c0.2,0,0.4-0.1,0.5-0.2s0.2-0.3,0.2-0.5v-0.3c0-0.2-0.1-0.4-0.2-0.5
		c-0.1-0.1-0.3-0.2-0.5-0.2c-0.2,0-0.4,0.1-0.5,0.2c-0.1,0.1-0.2,0.3-0.2,0.5V171.5z M26.7,175.7l-0.5-0.3l3-4.8l0.5,0.3L26.7,175.7
		z M28.2,174.7c0-0.4,0.1-0.7,0.3-0.9c0.2-0.2,0.5-0.4,0.9-0.4c0.4,0,0.7,0.1,0.9,0.4c0.2,0.2,0.4,0.5,0.4,0.9v0.3
		c0,0.4-0.1,0.7-0.3,0.9c-0.2,0.2-0.5,0.4-0.9,0.4c-0.4,0-0.7-0.1-0.9-0.4s-0.4-0.5-0.4-0.9V174.7z M28.8,175c0,0.2,0.1,0.4,0.2,0.5
		c0.1,0.1,0.3,0.2,0.5,0.2c0.2,0,0.4-0.1,0.5-0.2c0.1-0.1,0.2-0.3,0.2-0.5v-0.3c0-0.2-0.1-0.4-0.2-0.5s-0.3-0.2-0.5-0.2
		c-0.2,0-0.4,0.1-0.5,0.2s-0.2,0.3-0.2,0.5V175z"/>
</g>
<g class="st0">
	<path d="M249.6,183.7v-0.8l3.6,1.6v0.6l-3.6,1.6v-0.8l2.5-1l0.4-0.1v0l-0.4-0.1L249.6,183.7z"/>
	<path d="M258.8,187.1h-0.8v-5.4l-1.3,0V181l2.2-0.2V187.1z"/>
	<path d="M261.4,184.3l0.4-3.4h3.1v0.7h-2.4l-0.2,1.8c0.1-0.1,0.3-0.2,0.4-0.2c0.2-0.1,0.3-0.1,0.6-0.1c0.6,0,1,0.2,1.3,0.5
		c0.3,0.4,0.5,0.9,0.5,1.5c0,0.6-0.2,1.1-0.5,1.5s-0.8,0.6-1.5,0.6c-0.5,0-1-0.1-1.3-0.4c-0.3-0.3-0.5-0.7-0.5-1.3l0,0h0.8
		c0,0.3,0.1,0.6,0.3,0.8c0.2,0.2,0.4,0.3,0.8,0.3c0.4,0,0.6-0.1,0.8-0.4c0.2-0.3,0.3-0.6,0.3-1c0-0.4-0.1-0.7-0.3-1
		s-0.5-0.4-0.8-0.4c-0.3,0-0.6,0-0.7,0.1s-0.3,0.3-0.3,0.5L261.4,184.3z"/>
	<path d="M266,182.1c0-0.4,0.1-0.7,0.3-0.9c0.2-0.2,0.5-0.4,0.9-0.4c0.4,0,0.7,0.1,0.9,0.4c0.2,0.2,0.3,0.5,0.3,0.9v0.3
		c0,0.4-0.1,0.7-0.3,0.9c-0.2,0.2-0.5,0.4-0.9,0.4c-0.4,0-0.7-0.1-0.9-0.4c-0.2-0.2-0.4-0.5-0.4-0.9V182.1z M266.6,182.4
		c0,0.2,0.1,0.4,0.2,0.5c0.1,0.1,0.3,0.2,0.5,0.2c0.2,0,0.4-0.1,0.5-0.2s0.2-0.3,0.2-0.5v-0.3c0-0.2-0.1-0.4-0.2-0.5
		c-0.1-0.1-0.3-0.2-0.5-0.2c-0.2,0-0.4,0.1-0.5,0.2c-0.1,0.1-0.2,0.3-0.2,0.5V182.4z M267.5,186.6l-0.5-0.3l3-4.8l0.5,0.3
		L267.5,186.6z M269,185.5c0-0.4,0.1-0.7,0.3-0.9c0.2-0.2,0.5-0.4,0.9-0.4c0.4,0,0.7,0.1,0.9,0.4c0.2,0.2,0.4,0.5,0.4,0.9v0.3
		c0,0.4-0.1,0.7-0.3,0.9c-0.2,0.2-0.5,0.4-0.9,0.4c-0.4,0-0.7-0.1-0.9-0.4c-0.2-0.2-0.4-0.5-0.4-0.9V185.5z M269.6,185.9
		c0,0.2,0.1,0.4,0.2,0.5c0.1,0.1,0.3,0.2,0.5,0.2c0.2,0,0.4-0.1,0.5-0.2c0.1-0.1,0.2-0.3,0.2-0.5v-0.3c0-0.2-0.1-0.4-0.2-0.5
		s-0.3-0.2-0.5-0.2c-0.2,0-0.4,0.1-0.5,0.2c-0.1,0.1-0.2,0.3-0.2,0.5V185.9z"/>
	<path d="M279.2,181.5h-2v5.5h-0.8v-5.5h-2v-0.7h4.9V181.5z"/>
	<path d="M280,187.1v-6.2h2c0.6,0,1.2,0.1,1.5,0.4c0.4,0.3,0.5,0.7,0.5,1.3c0,0.3-0.1,0.5-0.2,0.7c-0.2,0.2-0.4,0.4-0.7,0.5
		c0.4,0.1,0.7,0.2,1,0.5c0.2,0.3,0.4,0.6,0.4,1c0,0.6-0.2,1-0.6,1.3c-0.4,0.3-0.9,0.4-1.5,0.4H280z M280.9,183.5h1.4
		c0.3,0,0.6-0.1,0.8-0.3c0.2-0.2,0.3-0.4,0.3-0.7c0-0.3-0.1-0.6-0.3-0.8s-0.5-0.2-0.9-0.2h-1.2V183.5z M280.9,184.2v2.2h1.6
		c0.4,0,0.7-0.1,0.9-0.3c0.2-0.2,0.3-0.5,0.3-0.8c0-0.3-0.1-0.6-0.3-0.8c-0.2-0.2-0.5-0.3-0.9-0.3h-0.1H280.9z"/>
	<path d="M286.8,184.9l0.1,0.8l0,0l0.1-0.8l1.1-4h0.8l1.1,4l0.1,0.8h0l0.1-0.8l0.9-4h0.9l-1.5,6.2H290l-1.2-4.3l-0.1-0.6h0l-0.1,0.6
		l-1.3,4.3h-0.7l-1.5-6.2h0.9L286.8,184.9z"/>
	<path d="M293.9,186.4h3v0.7h-3.9v-6.2h0.8V186.4z"/>
</g>
<g class="st0">
	<path d="M251.6,195c0-1.1,0.2-2.1,0.7-2.9s0.9-1.3,1.4-1.6l0,0l0.2,0.5c-0.4,0.3-0.7,0.8-1,1.5c-0.3,0.7-0.4,1.5-0.4,2.5v0.1
		c0,1,0.1,1.8,0.4,2.5c0.3,0.7,0.6,1.2,1,1.5l-0.2,0.5h0c-0.5-0.3-1-0.8-1.4-1.6C251.8,197.1,251.6,196.2,251.6,195L251.6,195z"/>
	<path d="M255.3,192.9l0.1,0.6c0.2-0.2,0.3-0.4,0.6-0.5c0.2-0.1,0.5-0.2,0.8-0.2s0.6,0.1,0.8,0.2c0.2,0.1,0.4,0.4,0.5,0.6
		c0.1-0.3,0.3-0.5,0.6-0.6c0.2-0.2,0.5-0.2,0.8-0.2c0.5,0,0.8,0.2,1.1,0.5c0.3,0.3,0.4,0.8,0.4,1.5v2.8h-0.8v-2.8
		c0-0.5-0.1-0.8-0.2-1s-0.4-0.3-0.7-0.3c-0.3,0-0.5,0.1-0.7,0.3c-0.2,0.2-0.3,0.5-0.3,0.8v0v2.9h-0.8v-2.8c0-0.4-0.1-0.7-0.2-0.9
		c-0.2-0.2-0.4-0.3-0.7-0.3c-0.3,0-0.5,0.1-0.6,0.2c-0.2,0.1-0.3,0.3-0.4,0.4v3.4h-0.8v-4.6H255.3z"/>
	<path d="M261.9,195.2c0-0.7,0.2-1.2,0.6-1.7c0.4-0.4,0.9-0.7,1.5-0.7c0.6,0,1.1,0.2,1.5,0.7s0.6,1,0.6,1.7v0.1
		c0,0.7-0.2,1.2-0.6,1.7c-0.4,0.4-0.9,0.7-1.5,0.7c-0.6,0-1.1-0.2-1.5-0.7C262.1,196.5,261.9,195.9,261.9,195.2L261.9,195.2z
		 M262.8,195.3c0,0.5,0.1,0.9,0.3,1.2c0.2,0.3,0.5,0.5,0.9,0.5c0.4,0,0.7-0.2,0.9-0.5s0.3-0.7,0.3-1.2v-0.1c0-0.5-0.1-0.9-0.3-1.2
		c-0.2-0.3-0.5-0.5-0.9-0.5c-0.4,0-0.7,0.2-0.9,0.5C262.9,194.3,262.8,194.7,262.8,195.3L262.8,195.3z"/>
	<path d="M267.8,192.9l0.1,0.7c0.2-0.2,0.3-0.4,0.6-0.6c0.2-0.1,0.5-0.2,0.8-0.2c0.5,0,0.9,0.1,1.2,0.4c0.3,0.3,0.4,0.7,0.4,1.3v2.9
		H270v-2.9c0-0.4-0.1-0.7-0.2-0.9s-0.4-0.3-0.7-0.3c-0.3,0-0.5,0.1-0.7,0.2c-0.2,0.1-0.3,0.2-0.4,0.4v3.4h-0.8v-4.6H267.8z"/>
	<path d="M273.2,191.8v1.1h0.9v0.6h-0.9v2.8c0,0.2,0,0.4,0.1,0.5s0.2,0.1,0.4,0.1c0,0,0.1,0,0.2,0s0.1,0,0.1,0l0.1,0.6
		c-0.1,0.1-0.2,0.1-0.3,0.1c-0.1,0-0.2,0-0.4,0c-0.3,0-0.6-0.1-0.8-0.3c-0.2-0.2-0.3-0.5-0.3-1v-2.8h-0.7v-0.6h0.7v-1.1H273.2z"/>
	<path d="M275.8,193.5c0.2-0.2,0.4-0.4,0.6-0.5c0.2-0.1,0.5-0.2,0.8-0.2c0.5,0,0.9,0.1,1.1,0.4s0.4,0.7,0.4,1.4v2.9h-0.8v-2.9
		c0-0.4-0.1-0.7-0.2-0.8c-0.2-0.2-0.4-0.3-0.7-0.3c-0.2,0-0.5,0-0.7,0.1c-0.2,0.1-0.3,0.2-0.4,0.4v3.4H275v-6.6h0.8V193.5z"/>
	<path d="M284.5,197.5h-0.8v-5.4l-1.3,0v-0.6l2.2-0.2V197.5z"/>
	<path d="M290.8,197.5H287v-0.6l1.9-2.3c0.3-0.4,0.6-0.8,0.7-1s0.2-0.5,0.2-0.8c0-0.3-0.1-0.5-0.3-0.7c-0.2-0.2-0.4-0.3-0.7-0.3
		c-0.4,0-0.6,0.1-0.8,0.3c-0.2,0.2-0.3,0.5-0.3,0.8H287l0,0c0-0.5,0.2-0.9,0.5-1.3c0.4-0.4,0.8-0.5,1.4-0.5c0.6,0,1,0.2,1.3,0.5
		c0.3,0.3,0.5,0.7,0.5,1.2c0,0.3-0.1,0.6-0.3,1c-0.2,0.3-0.5,0.7-0.8,1.2l-1.6,1.8l0,0h2.8V197.5z"/>
	<path d="M293.6,195c0,1.1-0.2,2.1-0.7,2.9c-0.5,0.8-0.9,1.3-1.4,1.6h0l-0.2-0.5c0.4-0.3,0.7-0.8,1-1.5c0.3-0.7,0.4-1.5,0.4-2.5V195
		c0-1-0.1-1.8-0.4-2.5c-0.3-0.7-0.6-1.2-1-1.5l0.2-0.5h0c0.5,0.3,1,0.8,1.4,1.6S293.6,193.9,293.6,195L293.6,195z"/>
</g>
<line class="st5" x1="39.5" y1="24" x2="39.5" y2="179.2"/>
<line class="st5" x1="34.5" y1="174.1" x2="335" y2="174.1"/>
</svg>
