<?xml version="1.0" encoding="utf-8"?>
<!-- Generator: Adobe Illustrator 21.0.0, SVG Export Plug-In . SVG Version: 6.00 Build 0)  -->
<svg version="1.1" id="Layer_1" xmlns="http://www.w3.org/2000/svg" xmlns:xlink="http://www.w3.org/1999/xlink" x="0px" y="0px"
	 viewBox="0 0 139.1 46" style="enable-background:new 0 0 139.1 46;" xml:space="preserve">
<style type="text/css">
	.st0{fill:none;stroke:#EF3E2E;stroke-width:4.14;stroke-linecap:round;}
	.st1{fill:none;stroke:#00A04E;stroke-width:4.14;stroke-linecap:round;}
	.st2{fill:none;stroke:#00A2E5;stroke-width:4.14;stroke-linecap:round;}
	.st3{fill:none;stroke:#FFCB05;stroke-width:4.14;stroke-linecap:round;}
	.st4{fill:#2A6EB6;}
	.st5{fill:#231F20;}
	.st6{fill:none;stroke:#231F20;stroke-width:0.83;}
</style>
<title>logo</title>
<line class="st0" x1="7.3" y1="18.1" x2="15.1" y2="17.4"/>
<line class="st1" x1="11.8" y1="17.7" x2="16.6" y2="17.3"/>
<line class="st2" x1="17.5" y1="21.1" x2="8.6" y2="21.9"/>
<line class="st3" x1="11.9" y1="21.6" x2="6.6" y2="22.1"/>
<line class="st1" x1="6.9" y1="25.9" x2="15.7" y2="25.2"/>
<line class="st0" x1="12.5" y1="25.4" x2="17.8" y2="25"/>
<line class="st3" x1="16.9" y1="28.9" x2="9.3" y2="29.6"/>
<line class="st2" x1="12.5" y1="29.3" x2="8.6" y2="29.7"/>
<path class="st4" d="M90.7,29.1L89,23.8h-0.8l-1.7,5.2H87l0.5-1.6h2L90,29L90.7,29.1L90.7,29.1z M89.3,26.9h-1.6l0.8-2.6L89.3,26.9
	L89.3,26.9L89.3,26.9z M94.6,27.9c0-0.3-0.1-0.5-0.3-0.7c-0.2-0.2-0.5-0.3-0.8-0.4l-0.6-0.1c-0.5-0.1-0.7-0.3-0.7-0.6
	c0-0.3,0.3-0.6,0.9-0.6c0.4,0,0.8,0.1,1.1,0.3l0.3-0.4C94,25,93.5,24.9,93,24.9c-0.9,0-1.5,0.5-1.5,1.2c0,0.5,0.4,1,1,1.1l0.6,0.1
	c0.6,0.1,0.8,0.4,0.8,0.7c0,0.2-0.1,0.4-0.3,0.5c-0.2,0.1-0.4,0.2-0.7,0.2c-0.4,0-0.9-0.1-1.3-0.3l-0.3,0.5c0.5,0.2,1,0.4,1.5,0.4
	c0.4,0,0.7-0.1,1-0.2C94.3,28.7,94.5,28.3,94.6,27.9L94.6,27.9L94.6,27.9z M98.5,27.9c0-0.3-0.1-0.5-0.3-0.7
	c-0.2-0.2-0.5-0.3-0.8-0.4l-0.6-0.1c-0.5-0.1-0.7-0.3-0.7-0.6c0-0.3,0.3-0.6,0.9-0.6c0.4,0,0.8,0.1,1.1,0.3l0.3-0.4
	C98,25,97.5,24.9,97,24.9c-0.9,0-1.5,0.5-1.5,1.2c0,0.5,0.4,1,1,1.1l0.6,0.1c0.6,0.1,0.8,0.4,0.8,0.7c0,0.2-0.1,0.4-0.3,0.5
	c-0.2,0.1-0.4,0.2-0.7,0.2c-0.4,0-0.9-0.1-1.3-0.3l-0.3,0.5c0.5,0.2,1,0.4,1.5,0.4c0.4,0,0.7-0.1,1-0.2
	C98.2,28.7,98.5,28.3,98.5,27.9L98.5,27.9L98.5,27.9z M103.2,27.1c0-1.2-0.6-2.1-1.9-2.1c-1.2,0-1.8,0.8-1.8,2.1
	c0,0.6,0.2,1.1,0.6,1.6c0.3,0.4,0.8,0.6,1.3,0.5C102.7,29.1,103.2,28.3,103.2,27.1L103.2,27.1L103.2,27.1z M102.5,27.1
	c0,0.8-0.2,1.5-1.2,1.5c-0.4,0-0.7-0.1-0.9-0.4c-0.2-0.4-0.3-0.8-0.3-1.3c0-0.8,0.2-1.5,1.2-1.5C102.3,25.4,102.5,26.3,102.5,27.1
	L102.5,27.1z M107.3,28.8l-0.3-0.4c-0.3,0.2-0.6,0.3-0.9,0.3c-0.4,0-0.7-0.1-0.9-0.4c-0.3-0.3-0.4-0.7-0.4-1.2c0-0.3,0-0.7,0.2-1
	c0.2-0.4,0.6-0.7,1.1-0.7c0.3,0,0.6,0.1,0.8,0.2l0.3-0.4c-0.3-0.2-0.7-0.3-1.2-0.3c-1.1,0-2,0.9-2,2.1c0,0,0,0,0,0.1
	c-0.1,1.1,0.7,2,1.8,2c0.1,0,0.1,0,0.2,0C106.5,29.1,107,29,107.3,28.8L107.3,28.8L107.3,28.8z M108.9,29.1v-4h-0.6v4H108.9z
	 M113.5,29.1L112,25h-0.8l-1.5,4.1h0.6l0.4-1.2h1.6l0.4,1.2L113.5,29.1L113.5,29.1z M112.3,27.4H111l0.7-2L112.3,27.4L112.3,27.4z
	 M116.6,25h-3.1v0.5h1.2v3.5h0.6v-3.5h1.2L116.6,25L116.6,25L116.6,25z M118.2,29v-4h-0.6v4H118.2z M123.1,27c0-1.2-0.6-2.1-1.9-2.1
	c-1.2,0-1.8,0.8-1.8,2.1c0,0.6,0.2,1.1,0.6,1.6c0.3,0.4,0.8,0.6,1.3,0.5C122.6,29.1,123.1,28.3,123.1,27L123.1,27L123.1,27z
	 M122.4,27.1c0,0.8-0.2,1.5-1.2,1.5c-0.4,0-0.7-0.1-0.9-0.4c-0.2-0.4-0.3-0.8-0.3-1.3c0-0.8,0.2-1.5,1.2-1.5
	C122.2,25.4,122.4,26.2,122.4,27.1L122.4,27.1z M127.3,29v-4h-0.6v2c0,0.5,0.1,1.2,0.1,1.2s-0.3-0.6-0.5-1l-1.3-2.2h-0.7v4h0.6
	l0-2.1c0-0.6-0.1-1.2-0.1-1.2s0.3,0.7,0.6,1.2l1.3,2.2L127.3,29L127.3,29z"/>
<path class="st4" d="M88.8,33.4h-2.4v4H87v-1.9h1.4V35H87v-1.2h1.7L88.8,33.4L88.8,33.4L88.8,33.4z M93,35.4c0-1.2-0.6-2.1-1.9-2.1
	c-1.2,0-1.8,0.8-1.8,2.1c0,0.6,0.2,1.1,0.6,1.6c0.3,0.4,0.8,0.6,1.3,0.5C92.5,37.5,93.1,36.7,93,35.4L93,35.4L93,35.4z M92.3,35.5
	c0,0.8-0.2,1.5-1.2,1.5c-0.4,0-0.7-0.1-0.9-0.4c-0.2-0.4-0.3-0.8-0.3-1.3c0-0.8,0.2-1.5,1.2-1.5C92.2,33.8,92.3,34.6,92.3,35.5
	L92.3,35.5z M97.2,37.4l-0.6-0.8c-0.2-0.3-0.5-0.6-0.6-0.8c-0.1-0.1-0.1-0.1-0.2-0.2c0.6,0,1.2-0.5,1.2-1.1c0-0.4-0.1-0.7-0.4-0.9
	c-0.4-0.2-0.8-0.3-1.2-0.2h-1.1v4h0.6v-1.7c0.2,0,0.3,0.1,0.5,0.2c0.3,0.3,0.6,0.6,0.8,1c0.1,0.2,0.3,0.4,0.4,0.6L97.2,37.4
	L97.2,37.4z M96.3,34.6c0,0.6-0.6,0.7-1.1,0.7h-0.4v-1.4h0.5C95.8,33.9,96.3,34,96.3,34.6L96.3,34.6L96.3,34.6z M105,37.4l-0.4-5.2
	h-0.9l-1,3.5c-0.1,0.4-0.2,0.8-0.2,0.8c0,0-0.1-0.4-0.2-0.9l-0.9-3.4h-0.9l-0.4,5.2h0.6l0.3-3.7c0-0.3,0.1-0.9,0.1-1
	c0,0.1,0.1,0.5,0.3,1l1,3.7h0.5l1.1-3.9c0.1-0.3,0.2-0.8,0.2-0.8s0,0.6,0,0.9l0.3,3.8L105,37.4L105,37.4z M109.7,35.4
	c0-1.2-0.6-2.1-1.9-2.1c-1.2,0-1.8,0.8-1.8,2.1c0,0.6,0.2,1.1,0.6,1.6c0.3,0.4,0.8,0.6,1.3,0.5C109.2,37.5,109.8,36.7,109.7,35.4
	L109.7,35.4L109.7,35.4z M109,35.5c0,0.8-0.2,1.5-1.2,1.5c-0.4,0-0.7-0.1-0.9-0.4c-0.2-0.4-0.3-0.8-0.3-1.3c0-0.8,0.2-1.5,1.2-1.5
	C108.9,33.8,109,34.6,109,35.5L109,35.5L109,35.5z M113.3,36.9h-1.8v-3.5h-0.6v4h2.3L113.3,36.9L113.3,36.9L113.3,36.9z M116.7,37.4
	v-0.5h-2v-1.3h1.5v-0.5h-1.5v-1.2h1.8l0.1-0.5h-2.5v4L116.7,37.4L116.7,37.4z M120.5,37.1l-0.3-0.4c-0.3,0.2-0.6,0.3-0.9,0.3
	c-0.4,0-0.7-0.1-0.9-0.4c-0.3-0.3-0.4-0.7-0.4-1.2c0-0.3,0-0.7,0.2-1c0.2-0.4,0.6-0.7,1.1-0.7c0.3,0,0.6,0.1,0.8,0.2l0.3-0.4
	c-0.9-0.6-2.2-0.3-2.8,0.6c-0.2,0.4-0.4,0.8-0.3,1.2c-0.1,1.1,0.7,2,1.8,2c0.1,0,0.1,0,0.2,0C119.7,37.5,120.2,37.4,120.5,37.1
	L120.5,37.1L120.5,37.1z M124.5,36v-2.6h-0.6V36c0,0.2,0,0.5-0.2,0.7c-0.2,0.2-0.5,0.3-0.8,0.3c-0.4,0.1-0.7-0.1-0.9-0.5
	c0-0.2-0.1-0.5-0.1-0.7v-2.4h-0.6v2.6c0,0.3,0,0.6,0.1,0.9c0.3,0.5,0.8,0.8,1.4,0.7c0.4,0,0.9-0.1,1.2-0.4
	C124.4,36.8,124.5,36.6,124.5,36L124.5,36L124.5,36z M128.3,36.9h-1.8v-3.5h-0.6v4h2.3L128.3,36.9L128.3,36.9L128.3,36.9z
	 M132.5,37.4l-1.5-4.1h-0.8l-1.5,4.1h0.6l0.4-1.2h1.6l0.4,1.2L132.5,37.4L132.5,37.4z M131.2,35.8h-1.3l0.7-2L131.2,35.8L131.2,35.8
	z M136.4,37.4l-0.6-0.8c-0.2-0.3-0.5-0.6-0.6-0.8c-0.1-0.1-0.1-0.1-0.2-0.2c0.6,0,1.2-0.5,1.2-1.1c0-0.4-0.2-0.7-0.4-0.9
	c-0.4-0.2-0.8-0.3-1.2-0.2h-1.1v4h0.6v-1.7c0.2,0,0.3,0.1,0.5,0.2c0.3,0.3,0.6,0.6,0.8,1c0.1,0.2,0.3,0.4,0.4,0.6L136.4,37.4
	L136.4,37.4z M135.5,34.6c0,0.6-0.6,0.7-1.1,0.7H134v-1.4h0.5C134.9,33.9,135.5,34,135.5,34.6L135.5,34.6L135.5,34.6z"/>
<path class="st4" d="M89.6,42.1c0-0.5-0.2-1-0.7-1.2c-0.3-0.2-0.8-0.3-1.2-0.2h-1.4v5.2H87v-2.1h0.9c0.5,0,0.9-0.1,1.3-0.4
	C89.5,43,89.7,42.5,89.6,42.1C89.6,42.1,89.6,42.1,89.6,42.1z M89,42.2c0,0.3-0.1,0.5-0.3,0.7c-0.2,0.2-0.5,0.3-0.8,0.3H87v-2.1h0.7
	c0.4,0,0.7,0.1,1,0.3C88.9,41.6,89,41.9,89,42.2L89,42.2L89,42.2z M93.5,45.8L92,41.7h-0.8l-1.5,4.1h0.6l0.4-1.1h1.6l0.4,1.2
	L93.5,45.8L93.5,45.8z M92.2,44.2h-1.3l0.7-2L92.2,44.2L92.2,44.2z M96.6,41.7h-3.1v0.5h1.2v3.5h0.6v-3.5h1.3L96.6,41.7L96.6,41.7
	L96.6,41.7z M100.5,45.8v-4h-0.6v1.6h-1.8v-1.6h-0.6v4h0.6v-1.9h1.8v1.9L100.5,45.8L100.5,45.8z M105.4,43.8c0-1.2-0.6-2.1-1.9-2.1
	c-1.2,0-1.8,0.8-1.8,2.1c0,0.6,0.2,1.1,0.6,1.6c0.3,0.4,0.8,0.6,1.3,0.5C104.9,45.8,105.5,45,105.4,43.8L105.4,43.8L105.4,43.8z
	 M104.7,43.8c0,0.8-0.2,1.5-1.2,1.5c-0.4,0-0.7-0.1-0.9-0.4c-0.2-0.4-0.3-0.8-0.3-1.3c0-0.8,0.2-1.5,1.2-1.5
	C104.6,42.2,104.7,43,104.7,43.8L104.7,43.8z M109,45.3h-1.8v-3.5h-0.6v4h2.3L109,45.3L109,45.3L109,45.3z M113.2,43.8
	c0-1.2-0.6-2.1-1.9-2.1c-1.2,0-1.8,0.8-1.8,2.1c0,0.6,0.2,1.1,0.6,1.6c0.3,0.4,0.8,0.6,1.3,0.5C112.7,45.9,113.2,45,113.2,43.8
	L113.2,43.8L113.2,43.8z M112.5,43.9c0,0.8-0.2,1.5-1.2,1.5c-0.4,0-0.7-0.1-0.9-0.4c-0.2-0.4-0.3-0.8-0.3-1.3c0-0.8,0.2-1.5,1.2-1.5
	C112.3,42.2,112.5,43,112.5,43.9L112.5,43.9z M117.5,45.5v-1.9h-1.6l0.1,0.5h0.9v1.1c-0.2,0.1-0.4,0.1-0.7,0.1
	c-0.3,0-0.6-0.1-0.8-0.2c-0.4-0.3-0.7-0.8-0.6-1.4c0-0.9,0.2-1.6,1.3-1.6c0.4,0,0.7,0.1,1,0.3l0.3-0.4c-0.4-0.3-0.8-0.4-1.3-0.4
	c-1.2,0-1.9,0.8-1.9,2.1c-0.1,1.1,0.7,2,1.7,2.1c0.1,0,0.2,0,0.3,0C116.7,45.9,117.1,45.8,117.5,45.5L117.5,45.5L117.5,45.5z
	 M121.7,41.8H121l-0.8,1.4c-0.1,0.2-0.2,0.3-0.2,0.5c-0.1-0.2-0.1-0.4-0.2-0.5l-0.8-1.4h-0.8l1.5,2.4v1.6h0.6v-1.6L121.7,41.8
	L121.7,41.8L121.7,41.8z"/>
<path class="st5" d="M0.1,7.3c0,0,19.6,2.7,19.2,16.6C19,31.6,7.4,44.7,7.4,44.7s9.9-12.2,10-22S0.1,7.3,0.1,7.3L0.1,7.3z"/>
<path class="st6" d="M0.1,7.3c0,0,19.6,2.7,19.2,16.6C19,31.6,7.4,44.7,7.4,44.7s9.9-12.2,10-22S0.1,7.3,0.1,7.3L0.1,7.3z"/>
<path class="st5" d="M31.1,0c0,0-31,10.2-25.6,27s33.4,10.2,33.4,10.2S8.1,38.8,6.7,23.8C5.4,10,26.7,1.8,31,0.2
	C31.5,0.1,31.1,0,31.1,0L31.1,0L31.1,0z"/>
<path class="st5" d="M21.2,38l9.1-0.5l2.9,7.8h3l-8.5-22.1h-2.2L15.3,45.4h2.8L21.2,38L21.2,38z M21.8,36.5l4.4-10.4l4.2,11.4
	L21.8,36.5L21.8,36.5L21.8,36.5z M38.6,23.3l-1.2,22.1h2.5L40.2,27l8.8,18.3l0.9-0.2l9.3-18.3l0.3,18.6h2.7l-0.6-22.1H59l-9.1,17.8
	l-8.6-17.8L38.6,23.3L38.6,23.3z M69.7,36.7c1.6,0.1,3.2,0.1,4.8-0.1c5.7-0.6,7-4.6,7-7.1c0-1.8-0.6-3.5-1.9-4.7
	c-1.6-1.4-3.8-1.7-6.8-1.7c-1.6,0-4.2,0.1-5.8,0.1v22.1h2.7V36.7L69.7,36.7L69.7,36.7z M69.7,25.1c0.9,0,2.4-0.1,3-0.1
	c2.1,0,5.8,0,5.8,4.7s-3.4,5.2-6.5,5.2c-0.8,0-1.6,0-2.3-0.1L69.7,25.1L69.7,25.1L69.7,25.1z"/>
</svg>
