<?xml version="1.0" encoding="utf-8"?>
<!-- Generator: Adobe Illustrator 21.0.0, SVG Export Plug-In . SVG Version: 6.00 Build 0)  -->
<svg version="1.1" id="Layer_1" xmlns="http://www.w3.org/2000/svg" xmlns:xlink="http://www.w3.org/1999/xlink" x="0px" y="0px"
	 viewBox="0 0 167 35.5" style="enable-background:new 0 0 167 35.5;" xml:space="preserve">
<style type="text/css">
	.st0{fill:#426559;}
	.st1{fill:#090909;}
	.st2{fill:#EAEFEE;}
	.st3{fill:#F9FBFA;}
	.st4{fill:#6A9885;}
	.st5{display:none;fill:#EAEFEE;}
</style>
<g>
	<path class="st0" d="M18.2,35.3C8.4,35.3,0.4,27.4,0.4,17.7C0.4,8,8.2,0.2,17.8,0c9.7-0.2,17.7,7.8,17.9,17.3
		C35.9,27.7,27.5,35.2,18.2,35.3z M1.4,17.6c0,9.2,7.5,16.7,16.7,16.7c9.1,0,16.6-7.5,16.6-16.6C34.7,8.5,27.2,1,18.2,1
		C8.9,1,1.4,8.4,1.4,17.6z"/>
	<path class="st1" d="M55.3,12.4c0,0.3,0,0.7,0,1c0,0.5,0.2,0.7,0.6,0.8c0.1,0,0.3,0,0.2,0.2c0,0.2-0.2,0.1-0.3,0.1
		c-0.5,0-1.1,0-1.6,0c-0.1,0-0.2,0-0.2-0.1c0-0.1,0-0.2,0.1-0.2c0.5-0.2,0.6-0.6,0.6-1.1c0-1.1,0.1-2.1,0.1-3.2
		c0-0.6-0.1-1.1-0.7-1.3c-0.1,0-0.1-0.1-0.1-0.2c0-0.1,0.1-0.1,0.2-0.1c0.4,0,0.7,0,1.1,0c0.2,0,0.4,0.1,0.5,0.3
		c0.6,1.3,1.2,2.6,1.8,3.9c0,0.1,0.1,0.3,0.2,0.3c0.1,0,0.1-0.2,0.2-0.3c0.6-1.3,1.3-2.7,1.9-4c0.1-0.2,0.2-0.3,0.4-0.3
		c0.3,0,0.6,0,0.9,0c0.1,0,0.2,0,0.2,0.1c0,0.1-0.1,0.1-0.1,0.1c-0.6,0.1-0.7,0.6-0.7,1.1c0.1,1.2,0.1,2.3,0.1,3.5
		c0,0.5,0.1,0.9,0.7,1c0.1,0,0.2,0.1,0.2,0.2c0,0.1-0.1,0.1-0.2,0.1c-0.7,0-1.4,0-2.1,0c-0.1,0-0.2,0-0.2-0.1c0-0.1,0.1-0.1,0.1-0.2
		c0.4-0.1,0.5-0.4,0.5-0.8c0-0.9-0.1-1.8-0.1-2.7c0-0.1,0-0.2-0.1-0.3c-0.1,0-0.2,0.1-0.2,0.2c-0.5,1.1-1.1,2.3-1.6,3.4
		c-0.1,0.2-0.1,0.4-0.3,0.4c-0.2,0-0.2-0.2-0.3-0.4c-0.5-1.1-1-2.3-1.5-3.4c0-0.1,0-0.3-0.2-0.2c-0.1,0-0.1,0.2-0.1,0.3"/>
	<path class="st1" d="M117.4,11.1c0.1,0.1,0.2,0.1,0.2,0.1c0.6,0.2,1,0.6,1,1.3c0,0.7-0.2,1.4-0.9,1.7c-0.4,0.2-0.7,0.3-1.2,0.3
		c-1,0-1.9,0-2.9,0c-0.1,0-0.2,0.1-0.3-0.1c0-0.1,0.1-0.1,0.2-0.2c0.4-0.1,0.5-0.4,0.5-0.8c0-1.2,0-2.5,0-3.7c0-0.6-0.1-0.8-0.7-1
		c-0.1,0-0.2-0.1-0.2-0.2c0-0.2,0.2-0.1,0.2-0.1c0.9,0,1.9,0,2.8,0c0.4,0,0.9,0.1,1.3,0.3c0.9,0.6,0.9,1.7,0,2.2
		C117.5,11,117.4,11,117.4,11.1z M115.3,12.7C115.3,12.7,115.3,12.7,115.3,12.7c0,0.2,0,0.4,0,0.6c0,0.6,0.3,0.9,0.9,0.9
		c0.1,0,0.2,0,0.3,0c0.6,0,1-0.3,1.1-0.9c0.2-0.6,0-1.2-0.5-1.5c-0.4-0.3-0.9-0.3-1.4-0.3c-0.3,0-0.5,0.2-0.5,0.5
		C115.2,12.2,115.3,12.4,115.3,12.7z M115.3,10L115.3,10c0,0.2,0,0.5,0,0.7c0,0.2,0.1,0.4,0.4,0.4c0.4,0,0.7,0,1,0
		c0.2,0,0.4-0.2,0.5-0.4c0.2-0.5,0.1-0.9-0.2-1.3s-0.7-0.5-1.2-0.5c-0.3,0-0.5,0.2-0.5,0.5C115.3,9.5,115.3,9.8,115.3,10z"/>
	<path class="st1" d="M72.7,8.4c0.5,0,1,0,1.5,0c0.7,0,1.3,0.3,1.6,1c0.3,0.7,0.1,1.4-0.5,1.8c-0.4,0.3-0.4,0.3-0.2,0.7
		c0.4,0.6,0.7,1.3,1.1,1.9c0.1,0.2,0.3,0.2,0.5,0.2c0.1,0,0.2-0.1,0.3,0.1c0,0.1-0.1,0.2-0.2,0.2c-0.5,0.4-1.3,0.3-1.7-0.4
		c-0.3-0.6-0.7-1.2-0.9-1.7c-0.2-0.5-0.6-0.6-1-0.5c-0.2,0-0.2,0.1-0.2,0.2c0,0.6,0,1.1,0,1.7c0,0.4,0.1,0.5,0.6,0.7
		c0.1,0,0.2,0,0.2,0.2c0,0.2-0.2,0.1-0.2,0.1c-0.7,0-1.4,0-2,0c-0.1,0-0.2,0-0.3-0.1c0-0.1,0.1-0.2,0.2-0.2c0.3-0.1,0.4-0.3,0.5-0.7
		c0-0.1,0-0.3,0-0.4c0-1.2,0-2.3,0-3.5c0-0.7-0.1-0.8-0.7-1c-0.1,0-0.2,0-0.2-0.2c0-0.1,0.2-0.1,0.3-0.1C71.7,8.4,72.2,8.5,72.7,8.4
		z M73.6,11.3L73.6,11.3c0.1,0,0.2,0,0.3,0c0.4-0.1,0.8-0.1,0.9-0.5c0.4-1-0.4-2-1.4-2c-0.4,0-0.5,0.1-0.5,0.5c0,0.5,0,1,0,1.6
		c0,0.3,0.1,0.4,0.4,0.4C73.4,11.3,73.5,11.3,73.6,11.3z"/>
	<path class="st1" d="M137.4,11.5c0-0.6,0-1.2,0-1.9c0-0.6-0.1-0.7-0.7-0.9c-0.1,0-0.2,0-0.2-0.2c0-0.2,0.2-0.1,0.3-0.1
		c1,0.1,1.9,0,2.9,0c0.7,0,1.3,0.2,1.6,0.9c0.4,0.7,0.2,1.5-0.5,1.9c-0.3,0.2-0.3,0.3-0.1,0.6c0.4,0.6,0.8,1.3,1.1,2
		c0.1,0.2,0.3,0.3,0.5,0.2c0.1,0,0.2-0.1,0.2,0c0.1,0.1,0,0.2-0.1,0.2c-0.5,0.4-1.3,0.3-1.7-0.4c-0.3-0.6-0.7-1.1-0.9-1.7
		c-0.2-0.5-0.5-0.6-1-0.6c-0.2,0-0.3,0.1-0.3,0.3c0,0.5,0,1.1,0,1.6c0,0.4,0.1,0.6,0.6,0.7c0.1,0,0.3,0,0.2,0.2
		c0,0.2-0.2,0.1-0.3,0.1c-0.7,0-1.3,0-2,0c-0.1,0-0.2,0-0.3-0.1c0-0.1,0.1-0.1,0.2-0.2c0.3-0.1,0.4-0.3,0.4-0.7
		C137.4,12.9,137.4,12.2,137.4,11.5C137.4,11.5,137.4,11.5,137.4,11.5z M138.5,10.1c0,0.1,0,0.2,0,0.3c0,0.9,0.2,1,1.1,0.9
		c0.3-0.1,0.7-0.1,0.8-0.5c0.2-0.5,0.1-1.1-0.2-1.5c-0.3-0.4-0.8-0.5-1.3-0.5c-0.2,0-0.4,0.2-0.4,0.4
		C138.5,9.5,138.5,9.8,138.5,10.1z"/>
	<path class="st1" d="M145.1,11.5c0-0.7,0-1.3,0-2c0-0.6-0.1-0.7-0.6-0.9c-0.1,0-0.3,0-0.3-0.2c0-0.2,0.2-0.1,0.3-0.1
		c1,0,1.9,0,2.9,0c0.9,0,1.8,0.2,2.5,0.9c1,1.1,0.9,3.1-0.2,4.1c-0.7,0.7-1.5,1-2.5,1c-0.8,0-1.6,0-2.4,0c-0.1,0-0.3,0.1-0.3-0.1
		c0-0.2,0.1-0.2,0.2-0.2c0.3-0.1,0.4-0.3,0.4-0.6C145.1,12.9,145.1,12.2,145.1,11.5L145.1,11.5z M146.2,11.4c0,0.7,0,1.4,0,2.1
		c0,0.3,0.1,0.6,0.5,0.6c0.7,0.2,1.7,0,2.3-0.7c0.5-0.7,0.6-1.5,0.5-2.3c-0.2-1.4-1.1-2.4-2.6-2.3c-0.5,0-0.6,0.2-0.7,0.6
		C146.2,10.1,146.2,10.7,146.2,11.4z"/>
	<path class="st1" d="M101.4,11.6c0,0.5,0,1,0,1.5c0,0.6,0.2,1.1,0.9,1.2c0.1,0,0.2,0,0.2,0.2c0,0.1-0.1,0.1-0.2,0.1
		c-0.6,0-1.3,0-1.9,0c-0.1,0-0.1,0-0.2-0.1c0-0.1,0-0.2,0.1-0.2c0.1-0.1,0.2-0.1,0.3-0.2c0.3-0.1,0.4-0.4,0.4-0.7c0-1.2,0-2.5,0-3.7
		c0-0.5-0.2-0.9-0.7-1c-0.1,0-0.2-0.1-0.2-0.2s0.2-0.1,0.2-0.1c0.1,0,0.2,0,0.3,0c0.8-0.2,1.4,0.2,1.9,0.8c0.9,1.1,1.9,2.1,2.9,3.2
		c0.1,0.1,0.1,0.2,0.3,0.2c0.1,0,0.1-0.2,0.1-0.3c0-0.9,0-1.8,0-2.6c0-0.6-0.1-0.7-0.7-0.9c-0.1,0-0.4,0-0.4-0.2s0.3-0.1,0.4-0.1
		c0.5,0,1,0,1.5,0c0.1,0,0.2,0,0.2,0.1c0,0.1-0.1,0.1-0.1,0.2c-0.5,0.1-0.6,0.5-0.6,0.9c0,1.6,0,3.1,0,4.7c0,0.1,0.1,0.3-0.1,0.3
		c-0.1,0-0.2-0.1-0.3-0.2c-1.3-1.4-2.6-2.8-3.9-4.2c-0.1-0.1-0.1-0.1-0.2-0.2c-0.1,0-0.1-0.1-0.2-0.1c-0.1,0-0.1,0.1-0.1,0.2
		C101.4,10.6,101.4,11.1,101.4,11.6L101.4,11.6z"/>
	<path class="st1" d="M126.8,11.6c0,0.7-0.3,1.6-1.1,2.3c-1.1,0.9-3.3,1.1-4.4-0.2c-0.8-0.9-0.8-2-0.5-3.1c0.7-2.5,3.7-2.7,5.1-1.5
		C126.6,9.6,126.8,10.4,126.8,11.6z M125.8,11.7c0-0.8-0.1-1.4-0.5-2.1c-0.9-1.3-2.7-1.1-3.3,0.1c-0.5,1.1-0.3,3,0.5,3.9
		c0.9,1,2.5,0.8,3.1-0.5C125.7,12.6,125.8,12.1,125.8,11.7z"/>
	<path class="st1" d="M68.5,13c0.2,0.6-0.4,1.5-1.1,1.5c-1.1,0-2.3,0-3.4,0c-0.1,0-0.2,0-0.2-0.1c0-0.1,0.1-0.2,0.2-0.2
		c0.4-0.1,0.5-0.4,0.5-0.7c0-1.4,0-2.8,0-4.2c0-0.3-0.2-0.5-0.5-0.5c-0.2,0-0.5,0-0.4-0.2c0-0.3,0.3-0.1,0.5-0.1c1.2,0,2.5,0,3.7,0
		c0.3,0,0.4,0.1,0.4,0.4c0,0.2,0,0.5,0,0.7c0,0.1,0,0.2-0.1,0.2c-0.1,0-0.2-0.1-0.2-0.2c0-0.5-0.4-0.7-0.9-0.8c-0.3,0-0.7,0-1,0
		c-0.2,0-0.4,0.1-0.4,0.3c0,0.6,0,1.1,0,1.7c0,0.2,0.1,0.3,0.3,0.3c0.2,0,0.5,0,0.7,0c0.4,0,0.5-0.3,0.7-0.6c0-0.1,0.1-0.2,0.2-0.2
		c0.1,0,0.1,0.2,0.1,0.3c0,0.5,0,1,0.1,1.6c0,0.1,0.1,0.2-0.1,0.3c-0.2,0-0.2-0.1-0.2-0.2c-0.2-0.6-0.3-0.7-1-0.7
		c-0.9,0-0.8-0.1-0.8,0.9c0,0.4,0,0.7,0,1.1c0,0.5,0.1,0.6,0.6,0.6c0.9,0,1.7-0.2,2.2-1C68.4,13.1,68.4,13,68.5,13
		C68.5,13,68.5,13,68.5,13z"/>
	<path class="st1" d="M96.7,14.5c-0.4,0-0.7,0-1.1,0c-0.1,0-0.1,0-0.2-0.1c0-0.1,0.1-0.1,0.1-0.2c0.6-0.4,0.6-0.5,0.3-1.1
		c-0.4-0.9-0.2-0.7-1.1-0.7c-0.3,0-0.6,0-0.9,0c-0.1,0-0.2,0-0.2,0c-0.3,0-0.6,0.5-0.7,1.2c0,0.3,0.1,0.5,0.4,0.6c0,0,0.1,0,0.1,0
		c0.1,0.1,0.4,0,0.4,0.2c0,0.1-0.2,0.1-0.4,0.1c-0.5,0-1.1,0-1.6,0c-0.1,0-0.2,0-0.2-0.1c0-0.1,0.1-0.1,0.1-0.2
		c0.3-0.1,0.5-0.4,0.6-0.7c0.7-1.7,1.5-3.4,2.3-5.1c0-0.1,0.1-0.2,0.2-0.2c0.1,0,0.1,0.1,0.2,0.2c0.7,1.6,1.4,3.1,2.1,4.7
		c0.1,0.2,0.2,0.3,0.2,0.5c0.1,0.3,0.3,0.5,0.6,0.5c0.1,0,0.2,0,0.2,0.2c0,0.1-0.1,0.1-0.2,0.1C97.4,14.5,97.1,14.5,96.7,14.5
		L96.7,14.5z M94.4,11.9c0.2,0,0.5,0,0.7,0c0.2,0,0.3-0.1,0.2-0.3c-0.2-0.5-0.5-1.1-0.7-1.6c-0.1-0.1-0.1-0.2-0.2,0
		c-0.2,0.6-0.5,1.1-0.7,1.7c-0.1,0.2,0,0.3,0.2,0.2C94,11.9,94.2,11.9,94.4,11.9z"/>
	<path class="st1" d="M51.1,14.5c-0.3,0-0.7,0-1,0c-0.1,0-0.2,0-0.2-0.1c0-0.1,0.1-0.1,0.1-0.2c0.5-0.3,0.6-0.5,0.3-1
		c-0.5-1.1-0.2-0.9-1.3-0.9c-0.3,0-0.5,0-0.8,0c-0.1,0-0.1,0-0.2,0c-0.3,0-0.6,0.5-0.7,1.2c0,0.3,0.1,0.5,0.5,0.6c0,0,0,0,0,0
		c0.1,0.1,0.4,0,0.4,0.2c0,0.2-0.3,0.1-0.5,0.1c-0.5,0-1,0-1.6,0c-0.1,0-0.1,0-0.2-0.1c0-0.1,0-0.1,0.1-0.2c0.4-0.2,0.5-0.5,0.7-0.8
		c0.7-1.6,1.5-3.3,2.2-4.9c0-0.1,0.1-0.3,0.2-0.3c0.1,0,0.2,0.2,0.2,0.3c0.8,1.7,1.5,3.5,2.3,5.2c0.1,0.3,0.3,0.5,0.6,0.5
		c0.1,0,0.2,0,0.2,0.2c0,0.1-0.1,0.1-0.2,0.1C51.8,14.5,51.4,14.5,51.1,14.5C51.1,14.5,51.1,14.5,51.1,14.5z M48.8,11.9
		c0.2,0,0.4,0,0.6,0c0.2,0,0.3-0.1,0.2-0.3c-0.2-0.5-0.5-1.1-0.7-1.6c-0.1-0.2-0.2-0.2-0.2,0c-0.2,0.5-0.5,1.1-0.7,1.6
		c-0.1,0.2,0,0.3,0.2,0.3C48.4,11.9,48.6,11.9,48.8,11.9z"/>
	<path class="st1" d="M133.4,14.5c-0.4,0-0.7,0-1.1,0c-0.1,0-0.1,0-0.2-0.1c0-0.1,0-0.1,0.1-0.2c0.5-0.4,0.6-0.5,0.3-1.1
		c-0.3-0.8-0.3-0.8-1.2-0.8c-0.3,0-0.6,0-0.9,0c-0.1,0-0.1,0-0.2,0c-0.3,0-0.6,0.5-0.7,1.2c0,0.3,0.1,0.5,0.5,0.6
		c0.1,0.1,0.4,0,0.4,0.2c0,0.2-0.3,0.1-0.5,0.1c-0.5,0-1,0-1.5,0c-0.1,0-0.2,0-0.2-0.1c0-0.1,0.1-0.1,0.1-0.2
		c0.3-0.1,0.5-0.4,0.6-0.7c0.7-1.7,1.5-3.3,2.2-5c0-0.1,0.1-0.2,0.2-0.2c0.1,0,0.1,0.1,0.2,0.2c0.8,1.7,1.5,3.4,2.3,5.2
		c0.1,0.3,0.3,0.6,0.7,0.6c0.1,0,0.2,0.1,0.1,0.2c0,0.1-0.1,0.1-0.2,0.1C134.2,14.5,133.8,14.5,133.4,14.5L133.4,14.5z M131.2,11.9
		c0.2,0,0.4,0,0.6,0c0.2,0,0.3-0.1,0.2-0.3c-0.2-0.5-0.5-1.1-0.7-1.6c-0.1-0.1-0.2-0.2-0.2,0c-0.2,0.6-0.5,1.1-0.7,1.7
		c-0.1,0.2,0,0.3,0.2,0.3C130.8,11.9,131,11.9,131.2,11.9z"/>
	<path class="st1" d="M85.2,11c0,0.6,0.1,1.1,0.4,1.6c0.7,1.5,2.4,1.8,3.6,0.7c0.1-0.1,0.2-0.2,0.3-0.3c0.1-0.1,0.2-0.2,0.3-0.1
		c0.1,0.1,0,0.2,0,0.2c-0.1,0.2-0.3,0.4-0.5,0.6c-0.9,0.9-2.8,1.1-3.8,0.4c-1.1-0.7-1.5-2.1-1.1-3.5c0.6-2,2.4-2.8,4.4-2
		c0.1,0,0.2,0.1,0.3,0.1c0.2,0.1,0.3,0.1,0.5-0.1c0-0.1,0.1-0.1,0.1-0.1c0.1,0,0.1,0.1,0.1,0.1c0.1,0.5,0.1,1.1,0.2,1.6
		c0,0.1,0,0.1-0.1,0.2c-0.1,0-0.1,0-0.2-0.1c-0.1-0.1-0.2-0.3-0.2-0.4c-0.4-0.7-0.9-1.2-1.7-1.3c-1.1-0.2-2,0.5-2.2,1.6
		C85.2,10.6,85.1,10.8,85.2,11z"/>
	<path class="st1" d="M118.4,24.1c-0.6,0-1.2,0-1.8,0c0.7-0.3,0.5-1,0.5-1.5c0-0.9,0-1.7-0.1-2.6c0-0.1,0.1-0.3-0.1-0.3
		c-0.2,0-0.2,0.2-0.3,0.3c-0.5,1-1,2-1.5,3.1c-0.1,0.2-0.2,0.5-0.3,0.7c0,0.1-0.1,0.3-0.2,0.2c-0.1,0-0.1-0.2-0.2-0.2
		c-0.6-1.2-1.1-2.4-1.7-3.6c-0.1-0.1-0.1-0.3-0.3-0.4c0,0.7-0.1,1.4-0.1,2c0,0.4,0,0.8,0,1.2c0,0.6,0.1,0.7,0.6,1
		c0.1,0,0.1,0,0.1,0.2c-0.5,0-1.1,0-1.6,0c0,0-0.1,0-0.1-0.1c0-0.1,0-0.1,0.1-0.1c0.4-0.1,0.5-0.5,0.5-0.8c0.1-0.9,0.1-1.8,0.2-2.8
		c0-0.3,0-0.5,0-0.8c-0.1-0.6-0.1-1.2-0.8-1.4c0,0,0-0.1,0-0.1c0.4,0,0.7,0,1.1,0c0.1,0,0.1,0.2,0.2,0.2c0.7,1.4,1.3,2.9,2,4.3
		c0.1,0.1,0.1,0.3,0.2,0.3c0.2,0,0.2-0.2,0.2-0.3c0.7-1.4,1.4-2.8,2.1-4.2c0.1-0.3,0.3-0.4,0.6-0.3c0.2,0,0.4,0,0.6,0
		c0,0.1,0,0.1,0,0.1c-0.6,0.1-0.7,0.6-0.6,1.1c0,1.2,0.1,2.5,0.1,3.7C117.8,23.7,117.8,23.7,118.4,24.1z"/>
	<path class="st1" d="M42.1,17.3c0,4.8,0,9.6,0,14.4c0,0.2,0,0.4-0.2,0.4c-0.1,0-0.2-0.1-0.2-0.2c0-0.1,0-0.1,0-0.2
		c0-9.6,0-19.2,0-28.9c0-0.1-0.1-0.4,0.1-0.4c0.2-0.1,0.2,0.1,0.2,0.4C42.1,7.6,42.1,12.5,42.1,17.3z"/>
	<path class="st1" d="M152.5,24.1c0.8-0.3,0.7-0.9,0.7-1.5c0-1.1,0-2.1,0-3.2c0-0.6-0.2-1-0.9-1.2c-0.1,0-0.1,0-0.1-0.1
		c0.5-0.2,0.9-0.1,1.3,0.3c1.3,1.4,2.6,2.9,3.9,4.3c0.1,0.1,0.1,0.2,0.2,0.2c0.1-0.1,0-0.2,0-0.4c0-1,0-2.1,0-3.1
		c0-0.8-0.1-0.9-0.8-1.2c0,0-0.1-0.1-0.2-0.1c0.7,0,1.3,0,1.9,0c0,0,0,0,0,0.1c-0.5,0.2-0.5,0.6-0.5,1c0,1.6,0,3.1,0,4.7
		c0,0.1,0.1,0.3-0.1,0.3c-0.1,0-0.2-0.1-0.3-0.2c-1.2-1.3-2.4-2.7-3.6-4c-0.1-0.1-0.2-0.3-0.4-0.3c-0.2,0.1-0.1,0.3-0.1,0.5
		c0,1,0,2,0,3.1c0,0.6,0,0.7,0.7,0.8c0,0,0.1,0,0.2,0.1C153.7,24.1,153.1,24.1,152.5,24.1z"/>
	<path class="st1" d="M67.9,24.1c0.7-0.1,0.7-0.7,0.7-1.1c0-1.3,0-2.6,0-3.9c0-0.4-0.1-0.7-0.5-0.8c-0.1,0-0.2,0-0.2-0.1
		c0-0.1,0.1-0.1,0.2-0.1c0.9,0.1,1.8-0.1,2.7,0.1c0.6,0.1,1.1,0.5,1.2,1.1c0.1,0.6-0.1,1.1-0.6,1.4c-0.2,0.1-0.2,0.2,0,0.3
		c0.9,0.4,1.2,0.8,1.2,1.6c-0.1,0.8-0.6,1.4-1.5,1.6C70,24.3,68.9,24.1,67.9,24.1z M69.2,22.3C69.2,22.3,69.2,22.3,69.2,22.3
		c0,0.3,0,0.7,0,1c0,0.4,0.1,0.6,0.6,0.6c0.3,0,0.6,0,0.8,0c0.7,0,1.1-0.4,1.2-1c0.1-0.7-0.1-1.4-0.7-1.7C70.6,21,70,20.9,69.4,21
		c-0.2,0-0.3,0.1-0.3,0.3C69.2,21.6,69.2,21.9,69.2,22.3z M69.2,19.5c0,0.3,0,0.6,0,0.8c0,0.2,0.1,0.3,0.3,0.3c0.4,0,0.8,0,1.2-0.1
		c0.5-0.1,0.7-0.4,0.7-0.9c0-0.8-0.6-1.3-1.4-1.4c-0.7,0-0.7,0-0.7,0.7C69.2,19.2,69.2,19.4,69.2,19.5z"/>
	<path class="st1" d="M127.3,24c0.6-0.1,0.6-0.5,0.6-1c0-1.3,0-2.6,0-3.8c0-0.5,0-1-0.7-1c0-0.2,0.2-0.1,0.3-0.1c0.8,0,1.6,0,2.5,0
		c1.3,0,2.5,0.8,2.9,1.8s0.1,2.7-0.8,3.5c-0.5,0.4-1,0.6-1.7,0.7c-0.2,0-0.4,0-0.7,0c-0.8,0-1.6,0-2.4,0
		C127.4,24.1,127.4,24.1,127.3,24z M128.6,21c0,0.7,0,1.5,0,2.2c0,0.2,0,0.3,0.2,0.5c0.9,0.5,2.5,0.3,3.1-0.5
		c0.6-0.8,0.7-1.8,0.4-2.7c-0.4-1.5-1.5-2.2-3.2-2.2c-0.5,0-0.5,0.1-0.5,0.6C128.6,19.5,128.6,20.2,128.6,21z"/>
	<path class="st1" d="M80.2,8.4c0.4,0,0.8,0,1.2,0c0.1,0,0.2,0,0.2,0.1c0,0.1-0.1,0.1-0.2,0.2c-0.4,0.1-0.5,0.4-0.5,0.8
		c0,1.3,0,2.6,0,3.9c0,0.7,0.1,0.8,0.8,1c0.1,0,0.2,0,0.2,0.1c0,0.1-0.1,0.1-0.2,0.1c-0.7,0-1.5,0-2.2,0c-0.1,0-0.1,0-0.2-0.1
		c0-0.1,0-0.2,0.1-0.2c0.4-0.2,0.5-0.5,0.5-0.9c0-1.3,0-2.6,0-3.9c0-0.5-0.1-0.6-0.6-0.8c-0.1,0-0.1,0-0.2-0.1c-0.1,0-0.2,0-0.2-0.2
		c0-0.1,0.2-0.1,0.2-0.1c0.2,0,0.4,0,0.5,0C79.9,8.4,80,8.4,80.2,8.4C80.2,8.4,80.2,8.4,80.2,8.4z"/>
	<path class="st1" d="M62.4,24.2c-1.8,0-3.1-1.3-3-3.2c0-1.8,1.4-3.1,3.3-3.1c1.7,0,3,1.3,3,3.1C65.7,22.9,64.4,24.2,62.4,24.2z
		 M60,21.1c0,0.5,0.2,1.2,0.6,1.8c1,1.5,3,1.6,4,0.2c0.7-0.9,0.6-2.6-0.1-3.6c-0.6-0.8-1.3-1.2-2.3-1.2C60.8,18.3,60,19.4,60,21.1z"
		/>
	<path class="st1" d="M164.2,22c0-1-0.7-0.8-1.2-0.8c-0.8,0-0.8,0-0.8,0.9c0,0.4,0,0.8,0,1.2c0,0.4,0.1,0.5,0.5,0.5
		c0.9,0,1.9-0.1,2.6-0.9c0.1,0.5-0.4,1.1-0.8,1.2c-1.2,0-2.3,0-3.5,0c0,0,0-0.1,0-0.1c0.5-0.2,0.6-0.6,0.6-1c0-1.3,0-2.6,0-3.9
		c0-0.4,0-0.9-0.6-0.9c0,0-0.1-0.1-0.1-0.1c0-0.1,0.1-0.1,0.2-0.1c0.8,0,1.6,0,2.4,0c0.4,0,0.8,0,1.2,0c0.1,0,0.2,0,0.3,0.1
		c0,0.3,0,0.7-0.1,1c0,0-0.1,0.1-0.1,0.1c-0.1,0-0.1,0-0.1-0.1c0-0.7-0.5-0.7-1-0.7c-0.4,0-0.7,0-1.1,0c-0.2,0-0.3,0.1-0.3,0.4
		c0,0.6,0,1.2,0,1.8c0,0.2,0.1,0.3,0.3,0.3c0.1,0,0.3,0,0.4,0c0.6,0,1.3,0.2,1.5-0.7c0,0.6,0,1.2,0,1.7C164.2,22,164.2,22,164.2,22z
		"/>
	<path class="st1" d="M74.7,18.2C74.9,18,75,18,75.1,18c1.1,0,2.2,0,3.2,0c0.3,0,0.4,0.1,0.4,0.4c0,0.2,0,0.4-0.1,0.6
		c0,0.1,0,0.1-0.1,0.1s-0.1-0.1-0.1-0.1c-0.2-0.6-0.2-0.6-0.8-0.7c-0.4,0-0.8,0-1.3,0c-0.2,0-0.4,0.1-0.3,0.3c0,0.6,0,1.2,0,1.9
		c0,0.2,0.1,0.3,0.3,0.3c0.2,0,0.4,0,0.5,0c0.5,0,1.2,0.1,1.3-0.7c0,0,0.1,0.1,0.1,0.1c0,0.6,0,1.1,0,1.7c-0.2,0-0.2-0.2-0.2-0.3
		c-0.1-0.3-0.3-0.4-0.6-0.4c-0.4,0-0.8,0-1.2,0c-0.2,0-0.3,0.1-0.3,0.3c0,0.6,0,1.3,0,1.9c0,0.3,0.2,0.4,0.4,0.4
		c1,0,1.9-0.1,2.7-0.9c0,0.5-0.4,1.1-0.9,1.2c-1.2,0-2.3,0-3.5,0c0,0,0-0.1,0-0.1c0.5-0.2,0.6-0.6,0.6-1.1c0-1.2,0-2.4,0-3.6
		C75.4,18.8,75.5,18.2,74.7,18.2z"/>
	<path class="st1" d="M120.7,18.1c0.1-0.1,0.2-0.1,0.2-0.1c1.1,0,2.3,0,3.4,0c0.3,0,0.4,0.1,0.3,0.3c0,0.2,0,0.4-0.1,0.7
		c0,0.1,0,0.2-0.1,0.2c-0.1,0-0.1-0.1-0.1-0.2c0-0.5-0.3-0.6-0.7-0.6c-0.5,0-0.9,0-1.4,0c-0.2,0-0.4,0.1-0.3,0.4c0,0.6,0,1.2,0,1.8
		c0,0.2,0.1,0.3,0.3,0.3c0.4,0,0.7,0,1.1,0c0.3,0,0.6-0.2,0.7-0.5c0,0,0-0.1,0.1-0.1c0,0,0,0,0.1,0c0,0.6,0,1.2,0,1.7
		c-0.1,0-0.1,0-0.1-0.1c-0.2-0.6-0.2-0.6-0.9-0.7c-0.3,0-0.6,0-0.9,0c-0.2,0-0.3,0.1-0.3,0.3c0,0.6,0,1.2,0,1.7
		c0,0.5,0.1,0.6,0.6,0.6c0.9,0,1.8-0.1,2.6-0.9c0,0.7-0.5,1.2-1.1,1.2c-1,0-2.1,0-3.1,0c-0.1,0-0.1,0-0.2-0.1
		c0.7-0.2,0.6-0.8,0.6-1.3c0-1.2,0-2.4,0-3.6C121.4,18.7,121.3,18.3,120.7,18.1C120.7,18.2,120.7,18.1,120.7,18.1z"/>
	<path class="st1" d="M85.3,19.6c-0.2-0.1-0.2-0.2-0.3-0.3c-0.4-1-1.7-1.4-2.6-0.8c-0.6,0.4-0.6,1.3,0,1.7c0.5,0.3,1.1,0.4,1.6,0.6
		c0.6,0.2,1.1,0.5,1.3,1.1c0.3,0.8-0.1,1.7-0.8,2.1c-0.8,0.4-1.7,0.4-2.6,0.1c-0.3-0.1-0.4-0.3-0.5-0.6c0-0.2-0.1-0.5-0.1-0.7
		c0-0.1-0.1-0.3,0-0.3c0.2-0.1,0.1,0.1,0.2,0.2c0.4,1.2,2,1.7,3,1c0.6-0.4,0.8-1.6-0.2-2c-0.4-0.2-0.9-0.3-1.3-0.4
		c-0.6-0.2-1.1-0.4-1.4-1c-0.5-1.1,0.2-2.2,1.5-2.3c0.5,0,1,0.1,1.5,0.2c0.6,0.1,0.5,0.5,0.6,0.8C85.3,19.1,85.4,19.3,85.3,19.6z"/>
	<path class="st1" d="M145.5,22.6c0,1-0.3,1.3-1.4,1.5c-0.7,0.1-1.5,0.2-2.3,0c-2-0.6-2.5-2.7-1.8-4.3c0.9-2,3.2-2.1,4.6-1.4
		c0.2,0.1,0.4,0.3,0.7,0.2c0.1,0,0.1,0,0.1,0.1c0,0.4,0.1,0.8,0,1.3c-0.2-0.4-0.4-0.7-0.7-1c-0.7-0.8-1.7-1.1-2.8-0.7
		c-0.9,0.3-1.5,1.1-1.6,2.1c-0.1,0.9,0.1,1.8,0.6,2.6c1.1,1.5,3.4,1,4.2-0.2C145.4,22.8,145.4,22.7,145.5,22.6z"/>
	<path class="st1" d="M92.4,19.3c0-0.4,0-0.8,0.1-1.1c0-0.2,0.2-0.1,0.3-0.1c0.9,0,1.8,0,2.6,0c0.7,0,1.3,0,2,0
		c0.3,0,0.4,0.1,0.4,0.4c0,0.2,0,0.5,0,0.7c-0.2,0-0.2-0.1-0.2-0.2c0-0.3-0.2-0.4-0.5-0.4c-0.5,0-1,0-1.5,0c-0.2,0-0.2,0.1-0.2,0.3
		c0,1.5,0,3.1,0,4.6c0,0.3,0.1,0.5,0.4,0.5c0.1,0,0.2,0,0.3,0.2c-0.7,0-1.3,0-2,0c0-0.1,0-0.1,0-0.1c0.6-0.2,0.7-0.6,0.7-1.2
		c0-1.3,0-2.7,0-4c0-0.3-0.1-0.4-0.4-0.4c-0.4,0-0.7,0-1.1,0c-0.4,0-0.7,0.1-0.8,0.6C92.6,19.1,92.6,19.2,92.4,19.3z"/>
	<path class="st1" d="M103.6,24.1c-0.7,0-1.4,0-2,0c0-0.1,0-0.1,0.1-0.1c0.5-0.1,0.5-0.5,0.6-0.9c0.1-1.3-0.2-2.5-1-3.5
		c-0.2-0.2-0.3-0.5-0.5-0.8c-0.2-0.3-0.3-0.5-0.6-0.6c-0.1,0-0.1,0-0.1-0.1c0-0.1,0.1-0.1,0.1-0.1c0.5,0,1.1,0,1.6,0
		c0,0.1,0,0.1,0,0.1c-0.4,0.3-0.4,0.3-0.1,0.8c0.3,0.5,0.6,1,0.9,1.5c0.2,0.3,0.3,0.3,0.5,0c0.3-0.5,0.6-1,0.9-1.5
		c0.2-0.4,0.1-0.6-0.3-0.7c-0.1,0-0.2,0-0.2-0.1c0-0.1,0.1-0.1,0.2-0.1c0.5,0,0.9,0,1.4,0c-0.9,0.9-1.4,1.9-2,2.9
		c-0.1,0.1-0.1,0.3-0.1,0.4c0,0.6,0,1.2,0,1.8c0,0.4,0.1,0.7,0.6,0.8c0,0,0,0,0.1,0C103.5,24,103.6,24,103.6,24.1z"/>
	<path class="st1" d="M53.2,17.8c0.1,0,0.3,0,0.3,0.1c0.1,0.2,0.1,0.3,0,0.5c-0.1,0.1-0.2,0-0.2,0c-0.4-0.3-0.7-0.3-0.9,0.1
		c-0.3,0.6-0.4,1.2-0.4,1.8c0,0.3,0.2,0.2,0.3,0.2c0.2,0,0.5-0.1,0.5,0.2c0,0.2-0.3,0.1-0.5,0.1c-0.3,0-0.4,0.1-0.4,0.4
		c-0.1,1.1-0.3,2.3-0.4,3.4c-0.1,0.6-0.4,1-1,1.2c-0.2,0.1-0.4,0.1-0.4-0.1c-0.1-0.2,0-0.4,0.1-0.6c0.1-0.1,0.1,0,0.2,0.1
		c0,0.1,0.1,0.3,0.2,0.2c0.2,0,0.3-0.2,0.3-0.3c0.1-0.8,0.2-1.6,0.3-2.4c0.1-0.6,0.1-1.1,0.2-1.7c0-0.3,0-0.3-0.3-0.3
		c-0.2,0-0.5,0.1-0.5-0.1c0-0.2,0.3-0.1,0.5-0.1c0.2,0,0.3-0.1,0.4-0.3c0.1-0.5,0.2-1.1,0.5-1.6C52.2,18.2,52.6,17.8,53.2,17.8z"/>
	<path class="st1" d="M150,24.1c-0.7,0-1.3,0-1.9,0c0,0-0.1,0-0.1-0.1c0-0.1,0-0.1,0.1-0.1c0.6-0.1,0.5-0.5,0.5-0.9
		c0-1.2,0-2.5,0-3.7c0-0.5,0.1-1.1-0.7-1.2c0.6,0,1.3,0,1.9,0c0,0,0,0.1,0,0.1c-0.5,0.1-0.6,0.4-0.6,0.9c0,1.4,0,2.7,0,4.1
		c0,0.6,0,0.6,0.6,0.8C149.9,24,150,24,150,24.1z"/>
	<path class="st1" d="M88.1,18c0.7,0,1.3,0,1.9,0c0,0,0,0.1,0,0.1c-0.5,0.1-0.6,0.5-0.6,1c0,1.4,0,2.8,0,4.2c0,0.3,0.1,0.5,0.4,0.6
		c0.1,0,0.3,0,0.3,0.2c-0.2,0.1-0.3,0-0.5,0c-0.3,0-0.6,0-1,0c-0.2,0-0.5,0.1-0.5,0c-0.1-0.2,0.3-0.1,0.4-0.3
		c0.1-0.1,0.2-0.3,0.2-0.5c0-1.5,0-3,0-4.6c0-0.3-0.1-0.4-0.4-0.5C88.3,18.2,88.1,18.2,88.1,18z"/>
	<path class="st1" d="M137.4,24.1c-0.6,0-1.2,0-1.9,0c-0.1,0-0.2,0-0.2-0.1c0-0.1,0.1-0.1,0.1-0.1c0.4-0.1,0.5-0.4,0.5-0.8
		c0-1.4,0-2.8,0-4.2c0-0.4-0.1-0.7-0.6-0.8c0,0-0.1,0-0.1-0.2c0.6,0,1.3,0,2,0c-0.8,0.2-0.6,0.9-0.6,1.4c0,1.2,0,2.4,0,3.6
		c0,0.6,0,0.6,0.6,0.9C137.3,24,137.4,24,137.4,24.1z"/>
	<path class="st1" d="M49.4,22.1c0,0.6-0.3,1.3-1,1.8c-0.5,0.3-1.1,0.4-1.6,0.1c-0.5-0.3-0.7-0.8-0.7-1.3c0-0.7,0.2-1.3,0.7-1.8
		c0.5-0.5,1.2-0.7,1.8-0.4C49.1,20.7,49.4,21.2,49.4,22.1z M46.6,22.7c0,0.1,0,0.3,0,0.4c0,0.4,0.1,0.8,0.6,0.9
		c0.4,0.1,0.8-0.1,1.1-0.5c0.4-0.7,0.5-1.4,0.4-2.2c0-0.3-0.2-0.7-0.5-0.8c-0.4-0.1-0.8,0-1.1,0.3C46.7,21.4,46.6,22,46.6,22.7z"/>
	<path class="st2" d="M1.4,17.6C1.4,8.4,8.9,1,18.2,1c9.1,0,16.5,7.5,16.5,16.7c0,9.1-7.5,16.6-16.6,16.6
		C8.8,34.3,1.4,26.8,1.4,17.6z M18,1.3C9,1.3,1.6,8.6,1.6,17.7c0,9,7.4,16.4,16.5,16.4c8.9,0,16.3-7.4,16.3-16.4
		C34.4,8.6,27.1,1.2,18,1.3z"/>
	<path class="st0" d="M18,1.3c9.1,0,16.4,7.3,16.4,16.4c0,8.9-7.4,16.3-16.3,16.4c-9.1,0-16.5-7.3-16.5-16.4C1.6,8.6,9,1.3,18,1.3z
		 M9.6,29.7c-0.1-0.1-0.3-0.2-0.4-0.4c0-0.1,0.2-0.2,0.2-0.3c0.1-0.1,0.1-0.3,0.3-0.2C9.8,28.8,10,29,10,29.2c0,0.1-0.1,0.1,0,0.2
		c0.2-0.2,0.3-0.4,0.5-0.7c-0.2,0.2-0.4,0.2-0.6,0c-0.1,0-0.2-0.1-0.1-0.2c0.1-0.2,0.2-0.4,0.4-0.5c0.1-0.1,0.2,0.1,0.3,0.2
		c0,0,0,0,0,0c-0.1-0.1-0.2-0.2-0.4-0.3c-0.1-0.1-0.2-0.2-0.4-0.3c0.1,0.4-0.2,0.6-0.4,0.8C9.1,28.7,9,29,8.7,29.1
		c0.2,0.1,0.3,0.2,0.4,0.3c0.1,0.2,0.3,0.3,0.5,0.4C9.9,30,10,30,10.2,29.7C10,29.7,9.8,29.8,9.6,29.7z M5,21.6L5,21.6
		c-0.2-0.4-0.9-0.4-1.1-0.1c-0.1,0.1,0,0.1,0,0.2c0.1,0.4,0.6,0.6,1,0.4C5.1,21.9,5.1,21.8,5,21.6z M8.3,27.3
		C8.2,27.3,8.2,27.3,8.3,27.3C8.2,27.3,8.2,27.4,8.3,27.3c0.2,0.5-0.1,0.8-0.7,0.7c0.2,0.2,0.4,0.4,0.7,0.3c0.3-0.1,0.3-0.4,0.2-0.6
		c0,0,0,0,0.1-0.1c0.2,0,0.4,0,0.5-0.2c0.1-0.2,0-0.4-0.2-0.6C8.9,27.3,8.7,27.5,8.3,27.3z M6.1,22.8C6.2,22.9,6.1,23,6,23
		c0,0.1,0,0.1,0.1,0.1c0.1,0,0.1,0,0.1-0.1C6.3,23,6.3,22.8,6.1,22.8c0-0.2-0.2-0.2-0.3-0.2c-0.2,0-0.5,0.1-0.6-0.3
		c0,0.1,0.1,0.3-0.1,0.3c-0.3,0-0.7,0.1-1,0.1c-0.1,0-0.2,0-0.2-0.2c0-0.1,0-0.1-0.1-0.2c0,0-0.1,0-0.1,0c-0.1,0.1-0.1,0.1,0,0.2
		c0.1,0.1,0.2,0.2,0.3,0.2c0.3,0.1,0.6,0.1,0.9,0c0.2,0,0.4-0.1,0.6,0.2c-0.1-0.3,0.1-0.3,0.3-0.3C5.9,22.8,6,22.8,6.1,22.8z
		 M26.4,27.7c-0.2,0.1-0.4,0.3-0.5,0.4c0.5,0.2,0.7,0.7,1,1c0.1,0.1,0.2,0.3,0,0.4c0.2-0.1,0.4-0.2,0.5-0.4c-0.4-0.4-0.7-0.8-1-1.2
		C26.4,27.9,26.4,27.8,26.4,27.7C26.5,27.8,26.5,27.7,26.4,27.7C26.4,27.7,26.4,27.7,26.4,27.7z M13.1,31.6
		C13.1,31.6,13.1,31.6,13.1,31.6C13.1,31.6,13.1,31.6,13.1,31.6c-0.1-0.1-0.1-0.2,0-0.4c0.1-0.3,0.3-0.6,0.4-0.9
		c0.1-0.2,0.1-0.3,0.3-0.3c-0.2-0.1-0.5-0.2-0.8-0.3c0.3,0.3-0.2,1.6-0.6,1.7C12.6,31.4,12.8,31.6,13.1,31.6z M17.5,31.3
		c-0.1-0.1-0.2,0.3-0.4,0c-0.1-0.2-0.4-0.3-0.2-0.6c-0.3-0.1-0.5-0.1-0.8-0.1c0.4,0.2,0.5,0.6,0.7,0.9c0.1,0.2,0.1,0.4,0.1,0.5
		c0,0.2-0.1,0.3-0.3,0.4c0.4,0,0.6,0,0.9,0.1c-0.2-0.1-0.2-0.2-0.2-0.4C17.2,31.8,17.3,31.5,17.5,31.3c0.1-0.1,0.2-0.2,0.3-0.3
		c0.1-0.1,0.1-0.2,0-0.2c0,0-0.1,0-0.1,0c-0.1,0.1,0.1,0,0.1,0.1c0,0.1,0,0.1-0.1,0.2C17.6,31.1,17.5,31.1,17.5,31.3z M30.9,12.9
		c0,0,0.1,0,0.1,0c0.1,0,0.1,0,0.2,0c0.1,0.3,0,0.5-0.2,0.7c-0.1,0.1-0.2,0.2-0.3,0.4c-0.3,0.4-0.4,0.7,0,1.1c0-0.2,0-0.3,0.1-0.4
		c0.2-0.3,0.4-0.5,0.7-0.8c0.1-0.1,0.1-0.1,0.2,0c0.2,0.2,0.4,0.3,0.7,0.2c0.3-0.1,0.4-0.4,0.4-0.7c0-0.4-0.1-0.7-0.3-1
		c0-0.2-0.1-0.4-0.2-0.6c0,0.3-0.2,0.4-0.4,0.4c-0.4,0.1-0.9,0.3-1.3,0.4c-0.2,0.1-0.4,0.2-0.7,0c0.1,0.2,0.1,0.4,0.2,0.6
		c0.1,0.2,0.1,0.3,0.2,0.5c0-0.4,0-0.4,0.3-0.5C30.6,13,30.7,13,30.9,12.9z M24.2,6.5L24.2,6.5c0.2,0.2,0.5,0.3,0.8,0.4
		c0.3,0.1,0.5,0,0.6-0.3c0.1-0.2,0.1-0.5,0-0.7c0-0.1-0.1-0.1-0.1-0.2c0.1,0,0.1,0,0.2,0c0.2,0,0.4-0.1,0.5-0.3
		c0.1-0.2,0-0.4-0.1-0.6c-0.2-0.2-0.4-0.3-0.6-0.4l0,0c-0.2-0.2-0.4-0.2-0.6-0.4c-0.1-0.1-0.3-0.2-0.2,0.1c0,0.1-0.1,0.2-0.1,0.2
		c-0.2,0.4-0.5,0.9-0.7,1.3C23.7,6,23.5,6.1,23.3,6C23.6,6.2,23.8,6.4,24.2,6.5z M8,8c0.3-0.3,0.6-0.1,0.9,0
		c0.2,0.1,0.4,0.1,0.5,0.2c0.1,0,0.2,0.1,0.2,0C9.8,8,10,7.9,10.2,7.6C9.6,7.8,9.1,7.5,8.6,7.4c0.2-0.3,0.2-0.5,0-0.8
		C8.4,6.4,8.1,6.4,7.8,6.6C7.2,6.8,6.9,7.3,6.5,7.8c0.2-0.2,0.4,0,0.5,0.1c0.3,0.3,0.7,0.7,1,1c0.2,0.2,0.4,0.3,0.3,0.7
		c0.2-0.1,0.3-0.3,0.5-0.5c0.1-0.1,0.1-0.1,0-0.2C8.5,8.6,8.1,8.4,8,8L8,8z M18.3,29.1c6.3-0.2,11.3-5.3,11.2-11.7
		c-0.1-6.2-5.3-11.3-11.6-11.3C11.6,6.2,6.5,11.4,6.6,17.8C6.6,24.1,11.9,29.2,18.3,29.1z M3.1,14.7c0.1-0.3,0.3-0.2,0.5-0.2
		C4,14.7,4.5,14.8,4.9,15c0.3,0.1,0.5,0.2,0.5,0.5c0.1-0.3,0.2-0.5,0.3-0.9c-0.2,0.2-0.2,0.4-0.4,0.3c-0.6-0.2-1.1-0.3-1.7-0.5
		c0,0,0,0,0-0.1c0.8-0.1,1.5-0.1,2.4-0.2c-0.7-0.6-1.2-1-1.8-1.5c0.5,0.1,1,0.2,1.5,0.4c0.2,0.1,0.5,0.1,0.5,0.5
		c0.1-0.4,0.2-0.7,0.3-1.1c-0.2,0.2-0.2,0.3-0.6,0.2c-0.5-0.1-0.9-0.3-1.4-0.4C4.2,12,4,12,4.1,11.6c-0.4,0.7-0.4,0.9,0.1,1.3
		c0.3,0.3,0.7,0.5,1,0.9c-0.6,0.1-1.2,0.1-1.7,0.1c-0.1,0-0.2,0-0.3,0.1C3.2,14.2,3.1,14.4,3.1,14.7z M33.2,15.2
		c0,0.3-0.2,0.3-0.4,0.3c-0.4,0-0.9,0.1-1.3,0.1c-0.3,0-0.6,0.1-0.7-0.2c0,0.6,0,1.1,0.1,1.6c0.1,0.7,0.6,1.1,1.2,1.1
		c0.7,0,1.2-0.4,1.3-1C33.4,16.5,33.2,15.9,33.2,15.2z M18.7,2.4C18.7,2.4,18.7,2.4,18.7,2.4C18.9,2.5,19,2.6,19,2.8
		c-0.1,0.5-0.2,1-0.2,1.5c0,0.3-0.1,0.5-0.5,0.6C18.6,5,18.9,5,19.2,5c-0.1-0.1-0.4-0.2-0.3-0.4C19,4,19,3.4,19.1,2.8
		c0.1,0.1,0.2,0.2,0.2,0.2c0.5,0.7,1,1.4,1.4,2.2c0.1,0.1,0.1,0.2,0.2,0.2c0.1,0,0.1-0.2,0.1-0.3c0.1-0.6,0.2-1.1,0.2-1.7
		c0-0.2,0.1-0.5,0.4-0.6c-0.3,0-0.5-0.1-0.8-0.1c0.3,0.2,0.3,0.2,0.3,0.4c-0.1,0.5-0.1,0.9-0.2,1.4c-0.4-0.7-0.8-1.3-1.2-1.9
		c-0.1-0.1-0.1-0.2-0.2-0.2C19.3,2.5,19,2.4,18.7,2.4z M4.5,10.6c0.2-0.2,0.4,0,0.5,0.1c0.4,0.3,0.9,0.5,1.3,0.8
		c0.2,0.1,0.4,0.2,0.3,0.5c0.4-0.6,0.8-1.1,1.1-1.7c0-0.1,0.1-0.1,0-0.2C7.6,9.9,7.5,9.7,7.3,9.6c0.3,0.5,0.2,1-0.2,1.4
		c-0.1,0.1-0.2,0.2-0.3,0.1c-0.2-0.1-0.4-0.3-0.6-0.4C6,10.7,6,10.6,6.1,10.4C6.3,10.1,6.6,10,7,10.1c0,0,0-0.1,0-0.1
		c-0.3-0.2-0.6-0.4-1-0.6c0,0.1,0,0.2,0.1,0.2c0.1,0.2,0.1,0.6-0.2,0.8c-0.2,0.2-0.3-0.1-0.5-0.2c-0.1-0.1-0.3-0.2-0.4-0.2
		C5.1,10.1,5,10,5.1,9.9C5.3,9.6,5.5,9.2,6,9.1c0.1,0,0.2,0,0.3-0.1c-0.6-0.2-0.7-0.2-1,0.2c0,0,0,0.1-0.1,0.1
		C5,9.8,4.8,10.2,4.5,10.6z M26.3,7.4c0,0.8,0.6,1.4,1.4,1.4c0.7,0,1.3-0.6,1.3-1.3c0-0.8-0.6-1.3-1.4-1.3
		C26.8,6.2,26.3,6.7,26.3,7.4z M18,4.9C18,4.9,18,4.9,18,4.9c-0.3-0.1-0.4-0.3-0.5-0.4c-0.4-0.6-0.7-1.1-1.1-1.7
		c-0.1-0.1-0.1-0.3-0.2-0.2c-0.1,0-0.3,0.2-0.3,0.3c0,0.5-0.2,0.9-0.4,1.4C15.4,4.7,15.4,5,15,5.3c0.3,0,0.5,0,0.8-0.1
		c-0.4,0-0.3-0.2-0.3-0.4c0-0.2,0.1-0.3,0.4-0.3c0.2,0,0.4,0,0.6-0.1c0.3-0.1,0.4,0.2,0.5,0.3c0.1,0.2-0.1,0.2-0.3,0.4
		C17.2,5,17.6,5,18,4.9z M5.4,15.8c-0.1,0.2-0.3,0.3-0.5,0.4c-0.6,0.3-1.2,0.5-1.8,0.8c-0.1,0-0.3,0.1-0.3,0.2
		c0,0.1,0.2,0.3,0.3,0.3c0.5,0.1,1,0.4,1.5,0.6c0.3,0.1,0.6,0.2,0.7,0.6c0-0.3,0.1-0.5,0-0.8c-0.2,0.3-0.2,0.3-0.5,0.2
		c-0.1-0.1-0.2-0.1-0.2-0.2c0.1-0.3-0.1-0.7,0.2-1c0.1-0.1,0.2-0.1,0.4-0.1c0.2,0,0.1,0.2,0.3,0.3C5.4,16.6,5.4,16.2,5.4,15.8z
		 M28.4,10.3c0.1-0.2-0.1-0.4,0.1-0.4c0.2,0,0.4-0.2,0.5,0c0.2,0.2,0.3,0.5,0.5,0.8c0,0.1,0,0.1,0,0.2c-0.1,0.1-0.1,0.2-0.2,0.3
		c-0.1,0.2-0.2-0.1-0.4-0.1c0.2,0.3,0.4,0.7,0.7,1c-0.1-0.2,0-0.4,0.1-0.6c0.4-0.6,0.7-1.2,1.1-1.7C31,9.5,31,9.4,30.7,9.4
		c-0.2,0-0.3,0.1-0.5,0.1c-0.7,0.1-1.5,0.4-2.3,0.2C28.1,9.8,28.2,10,28.4,10.3z M12.4,3.6c-0.8,0.3-1,1.4-0.4,2
		c0.5,0.6,1.4,0.6,2.1,0.1c0.2-0.1,0.3-0.3,0.6-0.1c-0.1-0.3-0.2-0.6-0.4-0.9c-0.1,0.5-0.2,0.8-0.5,1.1c-0.4,0.4-0.9,0.4-1.2,0
		C12,5,12,4.2,12.4,3.6z M24.8,31c0.3-0.2,0.7-0.4,1-0.6c0.4-0.2,0.5-0.7,0.3-1.1c-0.2-0.4-0.6-0.6-1-0.5c-0.5,0.1-0.8,0.4-1.2,0.6
		C24.2,29.4,24.9,30.6,24.8,31z M9.3,5.2C9.3,5.2,9.3,5.3,9.3,5.2c0.3-0.1,0.5,0.1,0.6,0.3c0.3,0.4,0.5,0.8,0.8,1.3
		c0.1,0.1,0.2,0.2,0.1,0.4c0.3-0.1,0.6-0.3,0.9-0.5c-0.3,0.1-0.4,0-0.6-0.2c-0.3-0.4-0.5-0.8-0.8-1.2c-0.1-0.2-0.2-0.3-0.1-0.6
		C9.9,4.8,9.6,5,9.3,5.2z M30.2,22.5c0.3-0.1,1.5,0.3,1.7,0.6c0.1-0.4,0.2-0.7,0.4-1.1c0.1-0.4,0.1-0.5-0.4-0.6
		c0.1,0.1,0.1,0.2,0.2,0.2c0.2,0.3,0.1,0.6,0,0.8c-0.1,0.2-0.3,0-0.5-0.1c0,0-0.1,0-0.1,0c-0.2,0-0.1-0.1-0.1-0.2
		c0.1-0.3,0.3-0.4,0.5-0.4c-0.2-0.1-0.5-0.2-0.7-0.2c0.2,0.2,0.2,0.5,0.1,0.7c-0.1,0.2-0.3,0-0.5-0.1c0,0-0.1,0-0.1,0
		c-0.1,0-0.1-0.1-0.1-0.2c0.1-0.2,0.1-0.5,0.4-0.6c0.1,0,0.2,0,0.3-0.2c-0.2,0.2-0.5,0-0.6,0.3C30.5,21.7,30.3,22.1,30.2,22.5z
		 M31,23.8c-0.4,0.1-0.7,0.2-1.1,0.3c-0.3,0.1-0.6,0.2-0.7,0.5c0.4,0.1,0.7,0.4,1.1,0.5c0.2,0.1,0.4,0.2,0.4,0.5
		c0.1-0.2,0.2-0.4,0.3-0.6c-0.1,0.1-0.2,0.1-0.4,0.1c-0.4-0.2-0.7-0.4-1.2-0.6c0.1,0,0.2-0.1,0.2-0.1c0.6-0.1,1.2-0.3,1.7-0.4
		c0.1,0,0.2,0,0.2-0.1c0-0.1-0.1-0.1-0.2-0.1c-0.4-0.2-0.7-0.4-1.1-0.6c-0.1-0.1-0.2-0.2-0.3-0.3c-0.1,0.1-0.1,0.3-0.2,0.4
		C30.3,23.2,30.6,23.6,31,23.8z M28.9,27c0,0.2,0,0.3,0,0.5c0,0.6-0.5,0.8-1,0.5c-0.2-0.1-0.3-0.2-0.4-0.4c-0.2-0.2-0.3-0.4-0.2-0.7
		c0.1-0.3,0.4-0.4,0.7-0.4c0.1,0,0.3,0,0.4,0c-0.1-0.2-0.3-0.3-0.4-0.4c0,0.2-0.1,0.3-0.2,0.3c-0.2,0.1-0.3,0.2-0.4,0.3
		c-0.3,0.3-0.3,0.7-0.2,1.1c0.2,0.3,0.5,0.5,0.9,0.5c0.4,0,0.7-0.3,0.9-0.6c0.1-0.1,0.1-0.3,0.2-0.3C29.2,27.3,29.1,27.1,28.9,27z
		 M15.8,31c0-0.1,0-0.1,0-0.2c0.1-0.3,0-0.4-0.3-0.4c-0.3,0-0.7-0.1-1-0.2c-0.4-0.1-0.4,0-0.5,0.4c0.1-0.1,0.2-0.1,0.3-0.2
		c0.1-0.1,0.3-0.1,0.4-0.1c0.1,0.1,0,0.2,0,0.4c0,0.2-0.1,0.3-0.1,0.4c-0.1,0.3-0.1,0.6-0.4,0.9c0.3,0,0.5,0.2,0.8,0.1
		c-0.2-0.1-0.2-0.1-0.2-0.3c0.1-0.4,0.2-0.8,0.3-1.2c0-0.2,0.1-0.2,0.2-0.1C15.6,30.6,15.6,30.8,15.8,31z M12.2,29.9
		c0.1-0.2,0.2-0.3,0.2-0.4c0,0,0.1-0.1,0-0.1c-0.3-0.1-0.4-0.3-0.6-0.4c-0.2,0-0.4,0-0.6,0.2c-0.1,0.2-0.1,0.4-0.1,0.5
		c0.1,0.1,0.2,0.3,0.3,0.4c0.1,0.1,0.2,0.3,0.2,0.5c-0.1,0.2-0.3,0.2-0.5,0.2c0.3,0.1,0.6,0.1,0.8-0.1c0.2-0.2,0.2-0.5,0-0.7
		c-0.1-0.2-0.3-0.3-0.4-0.5c-0.1-0.1-0.1-0.2,0-0.3c0.1-0.1,0.2-0.1,0.3-0.1c0.2,0.1,0.3,0.2,0.3,0.3C12.2,29.6,12.2,29.7,12.2,29.9
		z M20.7,32.3c0.1-0.2,0.1-0.3,0.1-0.5c0-0.1,0.1-0.2,0-0.2c-0.3-0.1-0.4-0.5-0.6-0.7c-0.3-0.4-0.3-0.4-0.8-0.2
		c0.3,0.2,0.5,1.4,0.3,1.7c0.1,0,0.2,0,0.3,0c0.1,0,0.2,0,0.3-0.1c-0.3-0.1-0.5-0.7-0.4-1.3C20.1,31.5,20.4,31.9,20.7,32.3z
		 M22.6,31.8c0.1,0,0.2,0,0.2-0.1c0.2,0,0.4-0.1,0.2-0.4c-0.1-0.1-0.1-0.3-0.2-0.4c0-0.1,0-0.2,0.1-0.2c0.2-0.1,0.4,0,0.6,0.1
		c-0.1-0.2-0.2-0.5-0.3-0.7c-0.1,0.3-0.2,0.5-0.5,0.5c-0.2,0-0.2-0.2-0.3-0.4c-0.1-0.3-0.2-0.4-0.5-0.2c0,0-0.1,0-0.1,0
		C22.3,30.3,22.7,31.6,22.6,31.8z M21.1,32.2c0.3-0.1,0.6-0.1,0.9-0.2c-0.4-0.1-0.7-1.5-0.4-1.8c-0.2,0.1-0.5,0-0.6,0.2
		c-0.1,0.3-0.1,0.6-0.2,0.9c0.2-0.2,0.1-0.4,0.3-0.6C21.3,31.7,21.3,32,21.1,32.2z M30.2,26.2c-0.2,0.1-0.3,0-0.4-0.1
		c-0.3-0.2-0.6-0.4-0.8-0.6c-0.1-0.1-0.2-0.2-0.2-0.4c-0.2,0.2-0.3,0.4-0.4,0.5c0.5,0.3,1,0.7,1.5,1.1C30,26.6,30.1,26.4,30.2,26.2z
		 M7.5,28c0,0,0.1,0,0.1,0c-0.3-0.2-0.1-0.3,0-0.5c0.2-0.2,0.5-0.5,0.7-0.7c0.1-0.1,0.2-0.2,0.3-0.3c-0.1-0.1-0.2-0.2-0.3-0.3
		c0,0,0,0-0.1,0c0,0,0,0,0.1,0.1C8,26.7,7.5,27.1,7,27.5C7.2,27.7,7.3,27.8,7.5,28z M7.3,25c-0.3-0.3-0.9-0.4-1.2-0.1
		c-0.3,0.3-0.4,0.8-0.2,1.1C5.9,25.4,6.6,24.8,7.3,25z M6.2,26.4c0.3,0.3,0.9,0.3,1.2,0c0.3-0.3,0.4-0.8,0.2-1.1
		C7.6,25.8,7.1,26.2,6.2,26.4z M14,3.8c-0.1-0.3-0.2-0.5-0.3-0.8c-0.2,0.5-0.7,0.2-1,0.5c0.3,0,0.5,0,0.7,0.1
		C13.6,3.6,13.7,3.8,14,3.8z M10.9,29.9c-0.4,0.6-0.4,0.6,0.2,0.8C10.9,30.5,10.9,30.2,10.9,29.9z M23.5,31.4
		c0.5-0.1,0.6-0.2,0.4-0.6C23.8,31,23.8,31.3,23.5,31.4z M22.9,29.8c0.3,0,0.5,0.1,0.8,0.2C23.3,29.6,23.3,29.6,22.9,29.8z M10.7,29
		c0.2-0.5,0.2-0.5-0.3-0.7C10.7,28.5,10.7,28.7,10.7,29z M7,27.4C7,27.4,7,27.4,7,27.4C7,27.4,7,27.4,7,27.4C7,27.4,7,27.4,7,27.4
		C7,27.4,7,27.4,7,27.4z M30.2,26.2C30.2,26.2,30.2,26.2,30.2,26.2C30.2,26.2,30.2,26.2,30.2,26.2C30.2,26.2,30.2,26.2,30.2,26.2
		C30.2,26.2,30.2,26.2,30.2,26.2z"/>
	<path class="st2" d="M18.3,29.1c-6.4,0.1-11.7-5-11.7-11.3c-0.1-6.4,5-11.5,11.4-11.6c6.3-0.1,11.5,5,11.6,11.3
		C29.6,23.8,24.6,28.9,18.3,29.1z M29.4,17.6c0-6.2-5-11.3-11.2-11.3c-6.4,0-11.5,5.1-11.4,11.4c0,6.2,5.1,11.3,11.5,11.2
		C24.4,28.9,29.4,23.8,29.4,17.6z"/>
	<path class="st2" d="M3.1,14.7c0-0.3,0.1-0.5,0.2-0.8c0-0.1,0.2-0.1,0.3-0.1c0.5,0,1.1-0.1,1.7-0.1c-0.4-0.3-0.7-0.6-1-0.9
		c-0.5-0.4-0.5-0.6-0.1-1.3C4,12,4.2,12,4.4,12.1c0.5,0.1,0.9,0.3,1.4,0.4c0.3,0.1,0.3,0.1,0.6-0.2c-0.1,0.4-0.2,0.7-0.3,1.1
		c0-0.4-0.2-0.4-0.5-0.5c-0.5-0.1-1-0.3-1.5-0.4c0.6,0.5,1.2,1,1.8,1.5c-0.8,0.1-1.6,0.1-2.4,0.2c0,0,0,0,0,0.1
		c0.6,0.2,1.1,0.4,1.7,0.5c0.2,0.1,0.3-0.2,0.4-0.3c0,0.4-0.1,0.6-0.3,0.9c0-0.4-0.2-0.4-0.5-0.5c-0.5-0.1-0.9-0.3-1.4-0.4
		C3.4,14.5,3.2,14.4,3.1,14.7z"/>
	<path class="st2" d="M8,8c0.1,0.4,0.5,0.6,0.7,0.8c0.1,0.1,0.1,0.1,0,0.2C8.6,9.2,8.5,9.4,8.3,9.6C8.4,9.2,8.2,9.1,8,8.9
		c-0.3-0.3-0.7-0.7-1-1C6.9,7.7,6.7,7.6,6.5,7.8c0.4-0.4,0.7-0.9,1.3-1.2c0.4-0.2,0.6-0.1,0.8,0.1c0.2,0.2,0.2,0.5,0,0.8
		c0.5,0.1,1,0.4,1.6,0.2C10,7.9,9.8,8,9.7,8.2c-0.1,0.1-0.2,0-0.2,0C9.3,8.1,9.1,8.1,8.9,8C8.6,7.9,8.3,7.8,8,8
		c0-0.2,0.2-0.2,0.2-0.4c0.1-0.2,0.1-0.4,0-0.6C8.1,6.9,7.9,6.8,7.7,6.8C7.5,6.8,7.3,7,7.2,7.2c0,0,0,0.1,0,0.1C7.4,7.5,7.6,7.9,8,8
		z"/>
	<path class="st2" d="M33.2,15.2c0.1,0.6,0.2,1.2,0.1,1.8c-0.1,0.7-0.6,1.1-1.3,1c-0.6,0-1.1-0.4-1.2-1.1c-0.1-0.5-0.1-1.1-0.1-1.6
		c0.2,0.4,0.5,0.3,0.7,0.2c0.4,0,0.9-0.1,1.3-0.1C33,15.5,33.1,15.5,33.2,15.2z M32.4,16.1c-0.2,0-0.4,0-0.6,0c-0.2,0-0.4,0-0.6,0
		c-0.2,0-0.4,0.1-0.4,0.4c0,0.6,0.3,0.9,0.9,1c0.8,0.1,1.4-0.3,1.5-0.9c0-0.5,0-0.6-0.5-0.5C32.6,16.1,32.5,16.1,32.4,16.1z"/>
	<path class="st2" d="M25.4,4.4c0.2,0.1,0.4,0.2,0.6,0.4c0.2,0.2,0.2,0.4,0.1,0.6c-0.1,0.2-0.3,0.3-0.5,0.3c-0.1,0-0.1,0-0.2,0
		c0,0.1,0.1,0.2,0.1,0.2c0.1,0.2,0.2,0.5,0,0.7C25.5,6.9,25.2,7,25,6.9c-0.3-0.1-0.6-0.1-0.8-0.4c0-0.1,0.1,0,0.1,0
		c0.5,0.2,0.7,0.1,0.9-0.3c0.1-0.3-0.1-0.7-0.5-0.8c-0.1,0-0.1,0-0.1,0c-0.2,0.3-0.3,0.5-0.5,0.8c-0.1,0.2,0.1,0.2,0.1,0.4
		c-0.3-0.1-0.6-0.3-0.9-0.5c0.3,0.1,0.4-0.1,0.5-0.3c0.2-0.5,0.5-0.9,0.7-1.3c0-0.1,0.1-0.2,0.1-0.2c-0.1-0.4,0.1-0.2,0.2-0.1
		C25.1,4.1,25.3,4.2,25.4,4.4c-0.2-0.1-0.4,0.1-0.4,0.3c-0.1,0.2-0.2,0.4-0.3,0.5c0,0,0,0,0,0.1c0.2,0.1,0.4,0.2,0.6,0.2
		c0.2,0,0.3-0.2,0.4-0.4c0.1-0.2,0-0.4-0.2-0.5C25.5,4.5,25.4,4.5,25.4,4.4z"/>
	<path class="st2" d="M18.7,2.4c0.3,0,0.5,0.1,0.8,0.1c0.1,0,0.2,0.1,0.2,0.2c0.4,0.6,0.8,1.2,1.2,1.9c0.1-0.5,0.1-1,0.2-1.4
		c0-0.2,0-0.2-0.3-0.4c0.3,0,0.5,0.1,0.8,0.1c-0.3,0.1-0.3,0.3-0.4,0.6c-0.1,0.6-0.2,1.1-0.2,1.7c0,0.1,0,0.2-0.1,0.3
		c-0.1,0-0.2-0.1-0.2-0.2c-0.5-0.7-1-1.4-1.4-2.2c-0.1-0.1-0.1-0.2-0.2-0.2C19,3.4,19,4,18.9,4.6c0,0.2,0.2,0.3,0.3,0.4
		c-0.3,0-0.6,0-0.9-0.1c0.4-0.1,0.4-0.3,0.5-0.6c0.1-0.5,0.1-1,0.2-1.5C19,2.6,18.9,2.6,18.7,2.4C18.7,2.4,18.7,2.4,18.7,2.4z"/>
	<path class="st2" d="M4.5,10.6C4.8,10.2,5,9.8,5.3,9.4c0,0,0-0.1,0.1-0.1c0.3-0.5,0.4-0.5,1-0.2C6.2,9.1,6.1,9.1,6,9.1
		c-0.5,0-0.7,0.4-0.9,0.8C5,10,5.1,10,5.1,10.1c0.1,0.1,0.2,0.2,0.4,0.2c0.2,0.1,0.3,0.3,0.5,0.2c0.2-0.2,0.3-0.6,0.2-0.8
		c0-0.1-0.1-0.1-0.1-0.2C6.4,9.6,6.7,9.8,7,10c0,0,0,0.1,0,0.1c-0.4-0.2-0.7,0-0.9,0.3C6,10.6,6,10.7,6.2,10.7
		c0.2,0.1,0.4,0.2,0.6,0.4C6.9,11.2,7,11.2,7.1,11c0.3-0.4,0.4-0.9,0.2-1.4C7.5,9.7,7.6,9.9,7.8,10c0.1,0.1,0,0.1,0,0.2
		c-0.4,0.6-0.7,1.1-1.1,1.7c0-0.3-0.1-0.4-0.3-0.5c-0.4-0.3-0.9-0.5-1.3-0.8C4.9,10.5,4.7,10.4,4.5,10.6z"/>
	<path class="st2" d="M26.3,7.4c0-0.7,0.6-1.3,1.3-1.3c0.8,0,1.4,0.6,1.4,1.3c0,0.7-0.6,1.3-1.3,1.3C26.8,8.8,26.3,8.2,26.3,7.4z
		 M28.7,7.1c0-0.4-0.4-0.7-0.9-0.6c-0.5,0.1-1.2,0.9-1.2,1.4c-0.1,0.4,0.3,0.8,0.7,0.8C27.8,8.5,28.7,7.7,28.7,7.1z"/>
	<path class="st2" d="M18,4.9c-0.4,0-0.8,0.1-1.2,0.2c0.1-0.2,0.4-0.2,0.3-0.4c-0.1-0.2-0.2-0.4-0.5-0.3c-0.2,0.1-0.4,0.1-0.6,0.1
		c-0.2,0-0.3,0.1-0.4,0.3c-0.1,0.2-0.1,0.4,0.3,0.4c-0.3,0.1-0.5,0.1-0.8,0.1c0.4-0.2,0.4-0.6,0.5-0.9c0.1-0.5,0.4-0.9,0.4-1.4
		c0-0.1,0.1-0.3,0.3-0.3c0.1,0,0.1,0.1,0.2,0.2c0.4,0.6,0.7,1.1,1.1,1.7C17.6,4.7,17.7,4.8,18,4.9C18,4.9,18,4.9,18,4.9z M15.7,4.3
		c0.3,0,0.6-0.1,0.8-0.1c0.1,0,0.1-0.1,0.1-0.1c-0.2-0.3-0.4-0.6-0.6-0.9C15.9,3.6,15.8,3.9,15.7,4.3z"/>
	<path class="st2" d="M5.4,15.8c0,0.4,0,0.8,0,1.2c-0.2-0.1-0.1-0.3-0.3-0.3c-0.1,0-0.3,0.1-0.4,0.1c-0.3,0.3-0.1,0.7-0.2,1
		c0,0.2,0.1,0.2,0.2,0.2c0.3,0.1,0.3,0.1,0.5-0.2c0.1,0.3,0,0.6,0,0.8c-0.1-0.3-0.4-0.5-0.7-0.6c-0.5-0.2-0.9-0.5-1.5-0.6
		c-0.1,0-0.3-0.2-0.3-0.3c0-0.1,0.2-0.1,0.3-0.2c0.6-0.3,1.2-0.5,1.8-0.8C5.1,16.2,5.3,16.1,5.4,15.8z M4.5,18c0-0.3,0-0.6,0-0.8
		c0-0.1,0-0.2-0.2-0.1c-0.3,0.1-0.6,0.2-0.9,0.4C3.8,17.6,4.1,17.8,4.5,18z"/>
	<path class="st2" d="M28.4,10.3C28.2,10,28.1,9.8,28,9.6c0.8,0.2,1.5-0.1,2.3-0.2c0.2,0,0.3-0.1,0.5-0.1c0.3,0.1,0.2,0.2,0.1,0.3
		c-0.4,0.6-0.7,1.2-1.1,1.7c-0.1,0.2-0.2,0.4-0.1,0.6c-0.3-0.3-0.5-0.6-0.7-1c0.2,0,0.3,0.2,0.4,0.1c0.1-0.1,0.1-0.2,0.2-0.3
		c0-0.1,0-0.1,0-0.2c-0.2-0.3-0.3-0.5-0.5-0.8c-0.1-0.2-0.3,0-0.5,0C28.3,9.9,28.5,10.1,28.4,10.3z M29.7,10.6
		c0.2-0.3,0.4-0.7,0.6-1c-0.4,0.1-0.7,0.1-1,0.1c-0.1,0-0.1,0.1-0.1,0.2C29.4,10.1,29.5,10.3,29.7,10.6z"/>
	<path class="st2" d="M12.4,3.6C12,4.2,12,5,12.6,5.6c0.4,0.4,0.8,0.4,1.2,0c0.3-0.3,0.4-0.6,0.5-1.1c0.2,0.3,0.3,0.6,0.4,0.9
		c-0.3-0.1-0.4,0-0.6,0.1c-0.8,0.6-1.6,0.6-2.1-0.1C11.4,4.9,11.6,3.8,12.4,3.6z"/>
	<path class="st2" d="M24.8,31c0.1-0.4-0.6-1.5-0.9-1.6c0.4-0.2,0.8-0.6,1.2-0.6c0.4-0.1,0.8,0.1,1,0.5c0.2,0.4,0.1,0.8-0.3,1.1
		C25.4,30.6,25.1,30.8,24.8,31z M25.8,29.9c0-0.3-0.2-0.6-0.4-0.8c-0.3-0.2-0.5-0.2-0.8,0c-0.1,0.1-0.2,0.2-0.1,0.3
		c0.2,0.4,0.4,0.7,0.6,1.1c0.1,0.1,0.1,0.2,0.3,0.1C25.6,30.4,25.8,30.2,25.8,29.9z"/>
	<path class="st2" d="M32.3,12.3c0.2,0.3,0.3,0.7,0.3,1c0,0.3-0.1,0.5-0.4,0.7c-0.3,0.1-0.5,0-0.7-0.2c-0.1-0.1-0.1-0.1-0.2,0
		c-0.2,0.3-0.4,0.5-0.7,0.8c-0.1,0.1-0.1,0.3-0.1,0.4c-0.4-0.4-0.3-0.8,0-1.1c0.1-0.1,0.2-0.2,0.3-0.4c0.2-0.2,0.3-0.4,0.2-0.7
		c0-0.1,0.1-0.1,0.1-0.1c0,0.2,0.1,0.4,0.2,0.5c0.2,0.2,0.4,0.2,0.6,0.2c0.2-0.1,0.4-0.3,0.3-0.5c0-0.2,0-0.4-0.2-0.5
		C32.3,12.4,32.3,12.3,32.3,12.3z"/>
	<path class="st2" d="M9.3,5.2C9.6,5,9.9,4.8,10.2,4.6c-0.1,0.3,0,0.4,0.1,0.6c0.3,0.4,0.5,0.8,0.8,1.2c0.1,0.2,0.3,0.4,0.6,0.2
		c-0.3,0.2-0.5,0.4-0.9,0.5c0.1-0.2,0-0.3-0.1-0.4c-0.3-0.4-0.6-0.8-0.8-1.3C9.8,5.3,9.6,5.1,9.3,5.2C9.3,5.3,9.3,5.2,9.3,5.2z"/>
	<path class="st3" d="M32.3,12.3c0,0.1,0,0.1-0.1,0.2c-0.3,0.1-0.7,0.2-1,0.3c-0.1,0-0.1,0-0.1,0.1c-0.1,0-0.1,0-0.2,0
		c0,0-0.1,0-0.1,0c-0.1,0.1-0.3,0.1-0.4,0.2c-0.3,0.1-0.3,0.1-0.3,0.5C30,13.4,30,13.2,29.9,13c-0.1-0.2-0.1-0.3-0.2-0.6
		c0.3,0.2,0.5,0.1,0.7,0c0.4-0.1,0.9-0.3,1.3-0.4c0.2-0.1,0.4-0.1,0.4-0.4C32.2,11.9,32.3,12.1,32.3,12.3z"/>
	<path class="st2" d="M30.2,22.5c0.1-0.4,0.3-0.8,0.4-1.2c0.1-0.3,0.3-0.1,0.6-0.3c-0.1,0.2-0.2,0.2-0.3,0.2
		c-0.3,0.1-0.3,0.4-0.4,0.6c0,0.1,0,0.1,0.1,0.2c0,0,0.1,0,0.1,0c0.2,0,0.4,0.2,0.5,0.1c0.1-0.2,0.1-0.5-0.1-0.7
		c0.2,0.1,0.5,0.2,0.7,0.2c-0.2,0.1-0.5,0.2-0.5,0.4c0,0.1,0,0.2,0.1,0.2c0,0,0.1,0,0.1,0c0.2,0,0.4,0.3,0.5,0.1
		c0.2-0.2,0.2-0.5,0-0.8c0-0.1-0.1-0.2-0.2-0.2c0.4,0.1,0.5,0.2,0.4,0.6c-0.1,0.4-0.2,0.7-0.4,1.1C31.7,22.8,30.5,22.4,30.2,22.5z"
		/>
	<path class="st2" d="M31,23.8c-0.4-0.2-0.6-0.6-1.1-0.5c0.1-0.1,0.1-0.3,0.2-0.4c0,0.2,0.1,0.3,0.3,0.3c0.4,0.2,0.7,0.4,1.1,0.6
		c0.1,0,0.2,0,0.2,0.1c0,0.1-0.1,0.1-0.2,0.1c-0.6,0.1-1.2,0.3-1.7,0.4c-0.1,0-0.1,0-0.2,0.1c0.4,0.2,0.8,0.4,1.2,0.6
		c0.1,0.1,0.2,0,0.4-0.1c-0.1,0.2-0.2,0.3-0.3,0.6c0-0.3-0.2-0.4-0.4-0.5c-0.4-0.2-0.7-0.4-1.1-0.5c0.1-0.4,0.3-0.5,0.7-0.5
		C30.2,24,30.6,23.9,31,23.8z"/>
	<path class="st2" d="M28.9,27c0.1,0.1,0.2,0.3,0.4,0.4c-0.1,0-0.2,0.2-0.2,0.3c-0.2,0.3-0.5,0.6-0.9,0.6c-0.4,0-0.8-0.2-0.9-0.5
		c-0.2-0.3-0.1-0.8,0.2-1.1c0.1-0.1,0.2-0.2,0.4-0.3c0.1-0.1,0.2-0.1,0.2-0.3c0.2,0.2,0.3,0.3,0.4,0.4c-0.1,0-0.3,0-0.4,0
		c-0.3,0-0.5,0.1-0.7,0.4c-0.1,0.3,0,0.5,0.2,0.7c0.1,0.1,0.2,0.3,0.4,0.4c0.5,0.3,1,0.1,1-0.5C29,27.3,28.9,27.1,28.9,27z"/>
	<path class="st2" d="M15.8,31c-0.1-0.2-0.2-0.4-0.4-0.5c-0.1-0.1-0.2-0.1-0.2,0.1c-0.1,0.4-0.2,0.8-0.3,1.2c0,0.2,0,0.2,0.2,0.3
		c-0.3,0-0.5-0.1-0.8-0.1c0.3-0.2,0.3-0.6,0.4-0.9c0.1-0.1,0.1-0.3,0.1-0.4c0-0.1,0.1-0.3,0-0.4c-0.1-0.1-0.3,0-0.4,0.1
		c-0.1,0.1-0.2,0.1-0.3,0.2c0-0.4,0.1-0.5,0.5-0.4c0.3,0.1,0.7,0.2,1,0.2c0.3,0,0.4,0.2,0.3,0.4C15.8,30.9,15.8,30.9,15.8,31z"/>
	<path class="st2" d="M12.2,29.9c0-0.2,0-0.4-0.1-0.5c0-0.2-0.1-0.3-0.3-0.3c-0.1,0-0.2,0-0.3,0.1c-0.1,0.1-0.1,0.2,0,0.3
		c0.1,0.2,0.3,0.3,0.4,0.5c0.2,0.2,0.2,0.5,0,0.7c-0.2,0.2-0.4,0.2-0.8,0.1c0.2,0,0.4,0,0.5-0.2c0-0.2-0.1-0.3-0.2-0.5
		c-0.1-0.1-0.2-0.2-0.3-0.4c-0.1-0.2-0.1-0.4,0.1-0.5c0.1-0.2,0.3-0.2,0.6-0.2c0.3,0.1,0.4,0.3,0.6,0.4c0.1,0,0,0.1,0,0.1
		C12.4,29.7,12.3,29.8,12.2,29.9z"/>
	<path class="st2" d="M9.1,29.4c-0.1-0.1-0.3-0.2-0.4-0.3C9,29,9.1,28.7,9.3,28.4c0.2-0.2,0.5-0.4,0.4-0.8c0.2,0.1,0.3,0.2,0.4,0.3
		c0.1,0.1,0.3,0.1,0.4,0.3c0,0,0,0,0,0c-0.1,0-0.2-0.2-0.3-0.2c-0.2,0.1-0.3,0.3-0.4,0.5c-0.1,0.1,0.1,0.2,0.1,0.2
		c0.2,0.1,0.4,0.1,0.6,0c-0.1,0.3-0.3,0.5-0.5,0.7c-0.1-0.1,0-0.2,0-0.2c0-0.2-0.1-0.4-0.3-0.4c-0.2-0.1-0.2,0.1-0.3,0.2
		c-0.1,0.1-0.2,0.2-0.2,0.3C9.1,29.3,9.1,29.4,9.1,29.4z"/>
	<path class="st2" d="M20.7,32.3c-0.3-0.5-0.6-0.9-0.8-1.3c-0.1,0.6,0.1,1.2,0.4,1.3c-0.1,0-0.2,0.1-0.3,0.1c-0.1,0-0.2,0-0.3,0
		c0.2-0.3,0-1.6-0.3-1.7c0.5-0.2,0.5-0.2,0.8,0.2c0.2,0.2,0.2,0.6,0.6,0.7c0.1,0,0,0.1,0,0.2C20.7,32,20.7,32.1,20.7,32.3z
		 M19.8,31.1C19.8,31,19.8,31,19.8,31.1C19.8,31,19.7,31,19.8,31.1C19.7,31,19.8,31.1,19.8,31.1C19.8,31.1,19.8,31.1,19.8,31.1z"/>
	<path class="st2" d="M22.6,31.8c0.1-0.2-0.3-1.5-0.6-1.7c0,0,0.1,0,0.1,0c0.3-0.2,0.4-0.1,0.5,0.2c0,0.1,0,0.4,0.3,0.4
		c0.3,0,0.4-0.2,0.5-0.5c0.1,0.2,0.2,0.5,0.3,0.7c-0.2-0.2-0.4-0.2-0.6-0.1c-0.1,0-0.2,0.1-0.1,0.2c0.1,0.1,0.1,0.3,0.2,0.4
		c0.2,0.2,0,0.3-0.2,0.4C22.8,31.8,22.7,31.8,22.6,31.8z"/>
	<path class="st2" d="M17.5,31.3c-0.2,0.2-0.3,0.5-0.3,0.8c0,0.2,0,0.4,0.2,0.4c-0.3,0-0.6,0-0.9-0.1c0.3-0.1,0.4-0.2,0.3-0.4
		c0-0.2,0.1-0.4-0.1-0.5c-0.2-0.3-0.3-0.7-0.7-0.9c0.3,0,0.6,0,0.8,0.1c-0.2,0.3,0.1,0.4,0.2,0.6C17.3,31.6,17.4,31.2,17.5,31.3
		L17.5,31.3z"/>
	<path class="st2" d="M21.1,32.2c0.2-0.2,0.2-0.5,0-1.5c-0.1,0.2-0.1,0.4-0.3,0.6c0.1-0.3,0.1-0.6,0.2-0.9c0.1-0.2,0.4-0.1,0.6-0.2
		c-0.3,0.3,0,1.7,0.4,1.8C21.7,32.1,21.4,32.2,21.1,32.2z"/>
	<path class="st2" d="M13.1,31.6c-0.2,0-0.5-0.2-0.7-0.2c0.4-0.1,0.9-1.4,0.6-1.7c0.3,0.1,0.5,0.2,0.8,0.3c-0.2,0-0.3,0.2-0.3,0.3
		c-0.1,0.3-0.2,0.6-0.4,0.9C13,31.3,13,31.5,13.1,31.6L13.1,31.6z"/>
	<path class="st2" d="M26.4,27.8c0,0.1,0,0.1,0,0.2c0.3,0.4,0.6,0.9,1,1.2c-0.1,0.1-0.3,0.3-0.5,0.4c0.2-0.2,0.1-0.3,0-0.4
		c-0.3-0.3-0.5-0.9-1-1C26,28,26.2,27.8,26.4,27.8L26.4,27.8z"/>
	<path class="st2" d="M30.2,26.2c-0.2,0.2-0.3,0.4-0.3,0.5c-0.4-0.4-0.9-0.8-1.5-1.1c0.1-0.1,0.2-0.3,0.4-0.5
		c-0.1,0.2,0,0.3,0.2,0.4c0.3,0.2,0.6,0.4,0.8,0.6C29.9,26.2,30,26.3,30.2,26.2z"/>
	<path class="st2" d="M7.5,28c-0.2-0.2-0.3-0.3-0.4-0.5c0.5-0.4,0.9-0.8,1.3-1.2c0,0,0,0-0.1-0.1c0,0,0,0,0.1,0
		c0.1,0.1,0.2,0.2,0.3,0.3c-0.1,0.1-0.2,0.2-0.3,0.3c-0.2,0.2-0.5,0.5-0.7,0.7c-0.1,0.1-0.3,0.2,0,0.5C7.6,28,7.5,28,7.5,28z"/>
	<path class="st2" d="M6.1,22.8c-0.1,0-0.2,0-0.4,0c-0.2,0-0.3,0-0.3,0.3c-0.1-0.3-0.4-0.2-0.6-0.2c-0.3,0-0.6,0.1-0.9,0
		c-0.1,0-0.2-0.1-0.3-0.2c0-0.1,0-0.1,0-0.2c0,0,0.1,0,0.1,0c0.1,0,0.1,0.1,0.1,0.2c-0.1,0.2,0.1,0.2,0.2,0.2c0.3,0,0.7-0.1,1-0.1
		c0.2,0,0.1-0.1,0.1-0.3c0.1,0.3,0.4,0.2,0.6,0.3C5.9,22.6,6.1,22.6,6.1,22.8L6.1,22.8z"/>
	<path class="st2" d="M8.5,27.7c0.1,0.2,0.1,0.5-0.2,0.6c-0.3,0.1-0.5-0.1-0.7-0.3c0.6,0.1,0.9-0.2,0.6-0.7c0,0,0,0,0,0
		c0.4,0.1,0.6-0.1,0.6-0.5c0.2,0.2,0.3,0.4,0.2,0.6C9,27.7,8.8,27.7,8.5,27.7C8.6,27.6,8.5,27.6,8.5,27.7
		C8.5,27.7,8.5,27.7,8.5,27.7z"/>
	<path class="st2" d="M7.3,25c-0.7-0.1-1.4,0.5-1.4,1c-0.2-0.3-0.1-0.8,0.2-1.1C6.5,24.6,7,24.6,7.3,25z"/>
	<path class="st2" d="M5,21.6c0.1,0.2,0.1,0.3-0.1,0.5c-0.4,0.2-1,0.1-1-0.4c0-0.1,0-0.1,0-0.2C4.1,21.1,4.8,21.2,5,21.6
		c-0.3,0-0.5-0.1-0.8,0c-0.1,0-0.3,0-0.3,0.1c0,0.1,0.1,0.1,0.2,0.1c0.2,0,0.4,0,0.6,0C5,21.8,5,21.7,5,21.6z"/>
	<path class="st2" d="M6.2,26.4c1-0.2,1.4-0.5,1.4-1.1c0.2,0.3,0.2,0.8-0.2,1.1C7,26.6,6.5,26.6,6.2,26.4z"/>
	<path class="st2" d="M14,3.8c-0.3-0.1-0.4-0.2-0.6-0.3c-0.2-0.1-0.4-0.1-0.7-0.1c0.3-0.3,0.8,0,1-0.5C13.8,3.3,13.9,3.6,14,3.8z"/>
	<path class="st2" d="M10.9,29.9c0,0.3,0,0.6,0.2,0.8C10.5,30.5,10.5,30.4,10.9,29.9z"/>
	<path class="st2" d="M23.5,31.4c0.3-0.1,0.3-0.4,0.4-0.6C24.1,31.3,24,31.4,23.5,31.4z"/>
	<path class="st2" d="M9.6,29.7c0.2,0.1,0.4,0,0.7,0C10,30,9.9,30,9.6,29.8C9.6,29.7,9.6,29.7,9.6,29.7z"/>
	<path class="st2" d="M22.9,29.8c0.5-0.2,0.5-0.2,0.8,0.2C23.4,29.9,23.1,29.8,22.9,29.8z"/>
	<path class="st2" d="M10.7,29c-0.1-0.3-0.1-0.5-0.3-0.7C10.9,28.4,10.9,28.4,10.7,29z"/>
	<path class="st2" d="M17.5,31.3c0-0.1,0.1-0.2,0.2-0.3c0-0.1,0.1-0.1,0.1-0.2c0,0-0.1,0-0.1-0.1c0,0,0.1,0,0.1,0
		c0.1,0.1,0.1,0.2,0,0.2C17.7,31.1,17.7,31.2,17.5,31.3C17.5,31.3,17.5,31.3,17.5,31.3z"/>
	<path class="st2" d="M6.1,22.8c0.2,0,0.1,0.2,0.1,0.3c0,0.1-0.1,0.1-0.1,0.1C6,23.2,6,23.1,6,23C6.1,23,6.2,22.9,6.1,22.8
		C6.1,22.8,6.1,22.8,6.1,22.8z"/>
	<path class="st4" d="M9.6,29.7c0,0,0,0.1,0,0.1c-0.2-0.1-0.3-0.2-0.5-0.4c0-0.1,0-0.1,0.1-0.1C9.3,29.5,9.4,29.5,9.6,29.7z"/>
	<path class="st2" d="M13.1,31.6C13.1,31.6,13.1,31.6,13.1,31.6C13.1,31.6,13.1,31.6,13.1,31.6C13.1,31.6,13.1,31.6,13.1,31.6z"/>
	<path class="st2" d="M26.4,27.7C26.4,27.7,26.4,27.7,26.4,27.7C26.5,27.7,26.5,27.8,26.4,27.7C26.4,27.8,26.4,27.7,26.4,27.7z"/>
	<path class="st2" d="M7,27.4C7,27.4,7,27.4,7,27.4C7,27.4,6.9,27.4,7,27.4C7,27.4,7,27.4,7,27.4C7,27.4,7,27.4,7,27.4z"/>
	<path class="st2" d="M8.2,27.4C8.2,27.4,8.2,27.3,8.2,27.4C8.2,27.3,8.2,27.3,8.2,27.4C8.2,27.4,8.2,27.4,8.2,27.4z"/>
	<path class="st2" d="M30.2,26.2C30.2,26.2,30.2,26.2,30.2,26.2C30.2,26.2,30.2,26.2,30.2,26.2C30.2,26.2,30.2,26.2,30.2,26.2
		C30.2,26.2,30.2,26.2,30.2,26.2z"/>
	<path class="st5" d="M30.9,12.9c0,0,0.1,0,0.1,0C30.9,12.9,30.9,12.9,30.9,12.9z"/>
	<path class="st4" d="M29.4,17.6c0,6.2-5,11.3-11.2,11.3c-6.4,0.1-11.5-5.1-11.5-11.2c0-6.4,5.1-11.5,11.4-11.4
		C24.4,6.3,29.4,11.5,29.4,17.6z M18,10.3L18,10.3c-1.1,0-2.1,0-3.2,0c-0.2,0-0.4,0-0.6,0.1c-1.5,0.3-2.5,2-1.9,3.4
		c0.5,1.4,2.3,1.8,3.3,0.7c0.7-0.8,0.5-1.9-0.4-2.4c-0.7-0.4-1.6,0.1-1.7,0.9c0,0.3,0.1,0.5,0.4,0.6c0.3,0,0.5-0.1,0.5-0.4
		c0-0.2,0.1-0.4,0.3-0.3c0.2,0,0.4,0.2,0.4,0.4c0.1,0.3-0.2,0.7-0.5,0.8c-0.6,0.2-1.3-0.2-1.5-0.8c-0.3-1.1,0.6-2.1,1.7-2.1
		c2.2,0,4.5,0,6.7,0c1,0,1.8,0.9,1.7,1.8c0,0.7-0.6,1.2-1.2,1.2c-0.3,0-0.6-0.2-0.7-0.5c-0.1-0.2-0.1-0.4,0.1-0.6
		c0.1-0.1,0.2-0.2,0.4-0.1c0.1,0,0.2,0.1,0.2,0.3c0.1,0.3,0.3,0.5,0.6,0.4c0.2-0.1,0.4-0.3,0.3-0.6c-0.1-0.7-0.9-1.1-1.6-0.9
		c-0.5,0.2-0.9,0.7-0.9,1.2c0,0.7,0.4,1.4,0.9,1.6c1.2,0.6,2.8-0.4,2.9-1.7c0.1-1.6-1.1-2.9-2.7-2.9C20.2,10.3,19.1,10.3,18,10.3z
		 M17.7,20.9c0-1.5,0-3.1,0-4.6c0-0.2,0-0.3,0-0.5c0-0.3-0.2-0.4-0.5-0.4c-0.3,0-0.4,0.1-0.5,0.4c0,0.1,0,0.3,0,0.4
		c0,2.8,0,5.7,0,8.5c0,0.6,0.2,0.9,0.7,1.1c0.3,0.1,0.3,0.1,0.3-0.2C17.7,24,17.7,22.4,17.7,20.9z M18.4,20.8L18.4,20.8
		c0,1.5,0,3.1,0,4.6c0,0.6,0,0.5,0.5,0.3c0.4-0.2,0.5-0.4,0.5-0.8c0-2.9,0-5.8,0-8.8c0-0.1,0-0.2,0-0.3c0-0.3-0.3-0.4-0.6-0.4
		c-0.3,0-0.4,0.2-0.4,0.6C18.4,17.6,18.4,19.2,18.4,20.8z M15.9,24.8c0-0.1,0-0.2,0-0.3c0-2.8,0-5.6,0-8.4c0-0.1,0-0.2,0-0.3
		c-0.1-0.2-0.2-0.4-0.5-0.4c-0.2,0-0.4,0.1-0.5,0.4c0,0.2,0,0.4,0,0.6c0,2.4,0,4.8,0,7.2c0,0.1,0,0.2,0.1,0.4
		C15.2,24.3,15.5,24.6,15.9,24.8z M20.2,24.8c0.3-0.2,0.5-0.4,0.7-0.6c0.2-0.2,0.3-0.4,0.3-0.7c0-2.5,0-4.9,0-7.4c0-0.1,0-0.2,0-0.3
		c-0.1-0.4-0.5-0.5-0.8-0.3c-0.2,0.1-0.2,0.3-0.2,0.5c0,1.8,0,3.6,0,5.4C20.2,22.6,20.2,23.7,20.2,24.8z M16.7,13.2
		c0,0.4,0,0.7,0,1.1c0,0.4,0.2,0.6,0.5,0.6c0.3,0,0.5-0.2,0.5-0.6c0-0.7,0-1.5,0-2.2c0-0.4-0.2-0.6-0.5-0.6c-0.3,0-0.5,0.2-0.5,0.6
		C16.7,12.5,16.7,12.9,16.7,13.2z M19.4,13.2c0-0.4,0-0.8,0-1.2c0-0.3-0.2-0.5-0.4-0.5c-0.3,0-0.5,0.1-0.5,0.5c0,0.8,0,1.6,0,2.4
		c0,0.3,0.2,0.5,0.5,0.5c0.3,0,0.5-0.2,0.5-0.5C19.4,14,19.4,13.6,19.4,13.2z"/>
	<path class="st0" d="M8,8C7.6,7.9,7.4,7.5,7.2,7.3c0,0,0-0.1,0-0.1C7.3,7,7.5,6.8,7.7,6.8c0.2,0,0.4,0.1,0.5,0.3
		c0.1,0.2,0.1,0.4,0,0.6C8.1,7.8,8,7.8,8,8L8,8z"/>
	<path class="st0" d="M32.4,16.1c0.1,0,0.2,0,0.2,0c0.5,0,0.6,0,0.5,0.5c-0.1,0.7-0.7,1.1-1.5,0.9c-0.6-0.1-0.9-0.4-0.9-1
		c0-0.3,0.1-0.4,0.4-0.4c0.2,0,0.4,0,0.6,0C32,16.1,32.2,16.1,32.4,16.1z"/>
	<path class="st0" d="M24.2,6.5c0-0.1-0.2-0.2-0.1-0.4c0.2-0.3,0.3-0.5,0.5-0.8c0-0.1,0.1,0,0.1,0c0.4,0.1,0.6,0.5,0.5,0.8
		c-0.2,0.4-0.4,0.5-0.9,0.3C24.3,6.5,24.2,6.5,24.2,6.5C24.2,6.5,24.2,6.5,24.2,6.5z"/>
	<path class="st0" d="M25.4,4.4c0,0.1,0.1,0.1,0.1,0.2c0.2,0.1,0.2,0.3,0.2,0.5c-0.1,0.2-0.2,0.4-0.4,0.4c-0.2,0.1-0.4-0.1-0.6-0.2
		c0,0,0,0,0-0.1C24.8,5,24.9,4.8,25,4.6C25.1,4.4,25.2,4.3,25.4,4.4C25.4,4.4,25.4,4.4,25.4,4.4z"/>
	<path class="st0" d="M28.7,7.1c0,0.6-0.8,1.5-1.4,1.5c-0.4,0-0.7-0.4-0.7-0.8c0.1-0.5,0.7-1.3,1.2-1.4C28.2,6.3,28.6,6.6,28.7,7.1z
		"/>
	<path class="st0" d="M15.7,4.3c0.1-0.4,0.2-0.7,0.3-1.1c0.2,0.3,0.4,0.6,0.6,0.9c0.1,0.1,0,0.1-0.1,0.1C16.3,4.2,16,4.3,15.7,4.3z"
		/>
	<path class="st0" d="M4.5,18c-0.4-0.2-0.7-0.3-1.1-0.5c0.3-0.2,0.6-0.3,0.9-0.4c0.1-0.1,0.2,0,0.2,0.1C4.5,17.4,4.5,17.7,4.5,18z"
		/>
	<path class="st0" d="M29.7,10.6c-0.2-0.3-0.3-0.5-0.5-0.7c-0.1-0.1,0-0.2,0.1-0.2c0.3,0,0.6-0.1,1-0.1
		C30.1,9.9,29.9,10.2,29.7,10.6z"/>
	<path class="st0" d="M25.8,29.9c0,0.4-0.2,0.6-0.5,0.7c-0.1,0.1-0.2,0-0.3-0.1c-0.2-0.4-0.4-0.7-0.6-1.1c-0.1-0.1,0-0.2,0.1-0.3
		c0.3-0.2,0.6-0.2,0.8,0C25.7,29.3,25.8,29.6,25.8,29.9z"/>
	<path class="st0" d="M31.3,12.8c0.3-0.1,0.7-0.2,1-0.3c0.1,0.1,0.2,0.3,0.2,0.5c0,0.2-0.1,0.4-0.3,0.5c-0.2,0.1-0.5,0.1-0.6-0.2
		C31.4,13.2,31.3,13,31.3,12.8z"/>
	<path class="st0" d="M19.8,31.1C19.8,31.1,19.8,31.1,19.8,31.1C19.8,31.1,19.7,31,19.8,31.1C19.7,31,19.8,31,19.8,31.1
		C19.8,31,19.8,31,19.8,31.1z"/>
	<path class="st0" d="M8.5,27.7C8.5,27.7,8.5,27.7,8.5,27.7C8.5,27.6,8.5,27.6,8.5,27.7C8.6,27.7,8.5,27.7,8.5,27.7z"/>
	<path class="st0" d="M5,21.6c0,0.2,0,0.3-0.2,0.3c-0.2,0-0.4,0-0.6,0c-0.1,0-0.2,0-0.2-0.1c0-0.1,0.2-0.1,0.3-0.1
		C4.5,21.5,4.7,21.6,5,21.6C5,21.6,5,21.6,5,21.6z"/>
	<path class="st3" d="M18,10.3c1.1,0,2.2,0,3.3,0c1.6,0,2.8,1.3,2.7,2.9c-0.1,1.4-1.6,2.3-2.9,1.7c-0.6-0.3-1-0.9-0.9-1.6
		c0-0.6,0.4-1,0.9-1.2c0.7-0.2,1.4,0.2,1.6,0.9c0.1,0.3-0.1,0.6-0.3,0.6c-0.3,0.1-0.5-0.1-0.6-0.4c0-0.1-0.1-0.2-0.2-0.3
		c-0.2,0-0.3,0-0.4,0.1c-0.2,0.2-0.2,0.4-0.1,0.6c0.1,0.3,0.4,0.5,0.7,0.5c0.7,0,1.2-0.5,1.2-1.2c0-1-0.8-1.8-1.7-1.8
		c-2.2,0-4.5,0-6.7,0c-1.2,0-2,1.1-1.7,2.1c0.2,0.6,0.9,1,1.5,0.8c0.3-0.1,0.6-0.5,0.5-0.8c0-0.2-0.2-0.4-0.4-0.4
		c-0.2,0-0.3,0.1-0.3,0.3c-0.1,0.3-0.3,0.4-0.5,0.4c-0.2,0-0.4-0.3-0.4-0.6c0.1-0.8,1-1.2,1.7-0.9c0.9,0.4,1.1,1.6,0.4,2.4
		c-0.9,1.1-2.7,0.6-3.3-0.7c-0.5-1.4,0.4-3,1.9-3.4c0.2,0,0.4-0.1,0.6-0.1C15.9,10.3,16.9,10.3,18,10.3L18,10.3z"/>
	<path class="st3" d="M17.7,20.9c0,1.6,0,3.2,0,4.7c0,0.3,0,0.3-0.3,0.2c-0.5-0.2-0.7-0.5-0.7-1.1c0-2.8,0-5.7,0-8.5
		c0-0.1,0-0.3,0-0.4c0.1-0.2,0.2-0.4,0.5-0.4c0.2,0,0.4,0.1,0.5,0.4c0,0.2,0,0.3,0,0.5C17.7,17.8,17.7,19.3,17.7,20.9z"/>
	<path class="st3" d="M18.4,20.8c0-1.6,0-3.2,0-4.8c0-0.4,0.1-0.6,0.4-0.6c0.3,0,0.5,0.1,0.6,0.4c0,0.1,0,0.2,0,0.3
		c0,2.9,0,5.8,0,8.8c0,0.4-0.1,0.6-0.5,0.8c-0.5,0.3-0.5,0.3-0.5-0.3C18.4,23.9,18.4,22.3,18.4,20.8C18.4,20.8,18.4,20.8,18.4,20.8z
		"/>
	<path class="st3" d="M15.9,24.8c-0.4-0.2-0.6-0.5-0.9-0.8c-0.1-0.1-0.1-0.2-0.1-0.4c0-2.4,0-4.8,0-7.2c0-0.2,0-0.4,0-0.6
		c0.1-0.3,0.2-0.4,0.5-0.4c0.3,0,0.4,0.1,0.5,0.4c0,0.1,0,0.2,0,0.3c0,2.8,0,5.6,0,8.4C15.9,24.6,15.9,24.7,15.9,24.8z"/>
	<path class="st3" d="M20.2,24.8c0-1.2,0-2.3,0-3.4c0-1.8,0-3.6,0-5.4c0-0.2,0-0.4,0.2-0.5c0.3-0.2,0.7-0.1,0.8,0.3
		c0,0.1,0,0.2,0,0.3c0,2.5,0,4.9,0,7.4c0,0.3-0.1,0.5-0.3,0.7C20.7,24.4,20.5,24.7,20.2,24.8z"/>
	<path class="st3" d="M16.7,13.2c0-0.4,0-0.8,0-1.1c0-0.4,0.2-0.6,0.5-0.6c0.3,0,0.5,0.2,0.5,0.6c0,0.7,0,1.5,0,2.2
		c0,0.4-0.2,0.6-0.5,0.6c-0.3,0-0.5-0.2-0.5-0.6C16.7,14,16.7,13.6,16.7,13.2z"/>
	<path class="st3" d="M19.4,13.2c0,0.4,0,0.8,0,1.2c0,0.3-0.2,0.5-0.5,0.5c-0.3,0-0.5-0.2-0.5-0.5c0-0.8,0-1.6,0-2.4
		c0-0.3,0.2-0.5,0.5-0.5c0.3,0,0.4,0.2,0.4,0.5C19.4,12.5,19.4,12.8,19.4,13.2z"/>
</g>
</svg>
