<?xml version="1.0" encoding="utf-8"?>
<!-- Generator: Adobe Illustrator 21.0.0, SVG Export Plug-In . SVG Version: 6.00 Build 0)  -->
<svg version="1.1" id="Layer_1" xmlns="http://www.w3.org/2000/svg" xmlns:xlink="http://www.w3.org/1999/xlink" x="0px" y="0px"
	 viewBox="0 0 201.3 36.1" style="enable-background:new 0 0 201.3 36.1;" xml:space="preserve">
<style type="text/css">
	.st0{fill:#101010;}
	.st1{fill:#1C9BBE;}
	.st2{fill:#B1232F;}
	.st3{fill:#C3C4C6;}
</style>
<g>
	<path class="st0" d="M201.3,14.7c-0.4,0-0.6-0.2-0.9-0.5c-1.6-2.1-3.3-4.1-4.9-6.1c-0.1-0.1-0.2-0.3-0.4-0.4
		C194.9,8,195,8.2,195,8.4c0,1.8,0,3.6,0,5.4c0,0.4,0,0.7-0.5,0.7c-0.5,0-0.6-0.3-0.6-0.7c0-2.6,0-5.2,0-7.8c0-0.3-0.1-0.6,0.3-0.7
		c0.4-0.1,0.6,0.2,0.8,0.4c1.5,1.9,3.1,3.9,4.6,5.8c0.2,0.2,0.3,0.5,0.6,0.5c0.2-0.2,0.1-0.4,0.1-0.6c0-1.6,0-3.2,0-4.8
		c0-1.1,0-1.1,1-1.3C201.3,8.5,201.3,11.6,201.3,14.7z"/>
	<path class="st1" d="M1.2,19.1c0.5-0.5,0.9-1.1,1.8-1c1,0.1,1.7,0.9,1.6,1.9c-0.1,0.9-1.1,1.5-2,1.4c-0.7-0.1-0.9-0.7-1.4-0.9
		C1.2,20.1,1.2,19.6,1.2,19.1z"/>
	<path class="st0" d="M140,7.9c-0.3,0.3-0.2,0.5-0.2,0.7c0,1.8,0,3.5,0,5.3c0,0.4-0.1,0.6-0.5,0.6c-0.4,0-0.5-0.2-0.5-0.6
		c0-2.6,0-5.2,0-7.9c0-0.3-0.2-0.6,0.3-0.7c0.4-0.1,0.7,0,0.9,0.4c1.1,2.2,2.2,4.4,3.3,6.5c0.1,0.2,0.1,0.6,0.4,0.6
		c0.3,0,0.3-0.3,0.4-0.6c1-2.1,2.1-4.2,3.1-6.2c0.1-0.2,0.2-0.3,0.2-0.4c0.2-0.4,0.6-0.3,0.9-0.3c0.3,0,0.3,0.3,0.3,0.6
		c0,2.7,0,5.3,0,8c0,0.4,0,0.6-0.5,0.6c-0.5,0-0.6-0.2-0.6-0.7c0-1.7,0-3.5,0-5.2c0-0.1,0.2-0.4-0.1-0.4c-0.3-0.1-0.2,0.2-0.3,0.3
		c-0.9,1.8-1.9,3.7-2.8,5.5c-0.1,0.3-0.2,0.6-0.6,0.6c-0.4,0-0.5-0.3-0.6-0.5C142.1,12.1,141.1,10,140,7.9z"/>
	<path class="st0" d="M160.1,10c0-1.3,0-2.6,0-3.9c0-0.5,0.2-0.6,0.6-0.5c1.1,0,2.1,0,3.2,0c1.1,0,2.2,0.8,2.6,2
		c0.3,1.1-0.1,2.4-1.1,3c-0.6,0.4-0.6,0.6-0.3,1.2c0.4,0.7,0.8,1.4,1.1,2.1c0.1,0.3,0.4,0.6,0,0.8c-0.4,0.2-0.8,0.3-1.1-0.2
		c-0.4-0.8-0.9-1.6-1.3-2.5c-0.2-0.5-0.5-0.7-1.1-0.7c-1.6,0-1.6,0-1.6,1.6c0,0.4,0,0.8,0,1.2c0,0.4-0.1,0.7-0.6,0.7
		c-0.5,0-0.6-0.2-0.6-0.7C160.1,12.6,160.1,11.3,160.1,10C160.1,10,160.1,10,160.1,10z M161.3,8.3c0,0.5,0,0.9,0,1.4
		c0,0.3,0.1,0.4,0.4,0.4c0.7,0,1.5,0,2.2,0c0.7,0,1.1-0.4,1.4-1c0.3-0.6,0.2-1.2-0.1-1.7c-0.5-0.7-1.3-0.8-2.1-0.8
		C161.3,6.6,161.3,6.6,161.3,8.3z"/>
	<path class="st0" d="M116.4,27.4c0,1.9,0,1.9-2,2.4c-2.9,0.7-5.4-0.9-6-3.7c-0.4-1.8,0.6-3.9,2.3-4.9c1.6-1,3.8-0.8,5.2,0.4
		c0.3,0.2,0.5,0.5,0.3,0.8c-0.2,0.3-0.5,0.5-1,0.1c-1.2-0.9-2.5-1.2-3.8-0.4c-1.3,0.8-1.9,1.9-1.8,3.4c0.1,1.4,0.8,2.5,2.2,3.1
		c1.1,0.5,2.2,0.3,3.2-0.1c0.7-0.3,0.3-1,0.3-1.6c0-0.4-0.5-0.2-0.7-0.3c-0.4-0.1-1,0.3-1-0.5c0-0.4,0.1-0.5,0.5-0.5
		c0.6,0,1.1,0,1.7,0c0.5,0,0.7,0.2,0.7,0.7C116.3,26.7,116.4,27,116.4,27.4z"/>
	<path class="st0" d="M54.2,10.1c0-2.6,2-4.7,4.6-4.7c2.7,0,4.7,2,4.7,4.7c0,2.5-2,4.7-4.6,4.6C56.1,14.7,54.2,12.5,54.2,10.1z
		 M55.2,10c0,2,1.7,3.7,3.7,3.7c2,0,3.6-1.7,3.6-3.8c0-1.9-1.7-3.5-3.6-3.5C56.8,6.4,55.2,8,55.2,10z"/>
	<path class="st0" d="M97.7,12.1c0,0.1,0,0.1,0,0.2c0,1.6,0,1.6-1.6,2.1c-2.4,0.7-4.6-0.1-5.8-2c-1.1-1.9-0.8-4.4,0.9-5.9
		c1.7-1.5,4.3-1.5,6-0.2c0.3,0.2,0.5,0.4,0.2,0.8c-0.3,0.4-0.5,0.4-1,0.1c-1.2-1-2.6-1.1-3.9-0.3c-1.3,0.8-1.8,2-1.6,3.5
		c0.3,2.3,2.4,3.7,4.8,3c0.7-0.2,1.2-1.2,0.8-1.8c-0.2-0.4-0.7-0.2-1.1-0.2c-0.5,0-0.7-0.2-0.7-0.7c0-0.3,0.2-0.5,0.5-0.5
		c0.6,0,1.1,0,1.7,0c0.5,0,0.7,0.2,0.7,0.7C97.6,11.3,97.7,11.7,97.7,12.1z"/>
	<path class="st0" d="M79.1,25.3c-0.1-2.4,1.8-4.6,4.5-4.7c2.6-0.1,4.7,2.1,4.7,4.7c0,2.5-1.8,4.6-4.7,4.7
		C81.1,30,79.1,27.9,79.1,25.3z M83.8,28.9c2,0,3.6-1.6,3.6-3.6c0-2-1.7-3.7-3.7-3.6c-2.2,0.1-3.6,1.8-3.6,3.7
		C80.1,27.3,81.7,28.9,83.8,28.9z"/>
	<path class="st0" d="M106.1,25.4c0,2.5-2,4.6-4.6,4.6c-2.6,0-4.7-2-4.7-4.6c0-2.6,2.1-4.8,4.6-4.8C104.4,20.7,106.3,23,106.1,25.4z
		 M97.9,25.2c-0.2,1.9,1.7,3.7,3.6,3.7c1.8,0,3.7-1.6,3.6-3.7c0-2.1-1.7-3.7-3.6-3.7C99.4,21.6,97.8,23.3,97.9,25.2z"/>
	<path class="st0" d="M76.7,25.3c0,1.3,0,2.5,0,3.8c0,0.4,0,0.7-0.6,0.7c-0.5,0-0.6-0.2-0.6-0.7c0-1,0-1.9,0-2.9
		c0-0.4-0.1-0.6-0.5-0.5c-1.3,0-2.7,0-4,0c-0.4,0-0.5,0.2-0.5,0.5c0,1,0,2,0,3c0,0.4-0.1,0.6-0.5,0.6c-0.4,0-0.6-0.1-0.6-0.6
		c0-2.6,0-5.3,0-7.9c0-0.4,0.2-0.6,0.6-0.6c0.4,0,0.5,0.2,0.5,0.6c0,1,0,1.9,0,2.9c0,0.4,0.1,0.6,0.6,0.6c1.3,0,2.6,0,3.9,0
		c0.5,0,0.6-0.1,0.6-0.6c0-0.9,0-1.8,0-2.6c0-0.5,0.1-0.7,0.6-0.7c0.5,0,0.6,0.3,0.6,0.7C76.7,22.7,76.7,24,76.7,25.3z"/>
	<path class="st0" d="M81.7,10c0-1.3,0-2.6,0-3.9c0-0.5,0.2-0.6,0.6-0.6c1.5,0,2.9,0,4.4,0c0.3,0,0.6-0.1,0.7,0.4
		c0,0.5-0.3,0.5-0.6,0.5c-1.1,0-2.1,0-3.2,0c-0.6,0-0.7,0.2-0.7,0.7c0,0.6,0,1.2,0,1.8c0,0.4,0.1,0.6,0.5,0.5c0.9,0,1.8,0,2.7,0
		c0.4,0,0.6,0.1,0.6,0.6c0,0.5-0.3,0.4-0.6,0.4c-0.9,0-1.8,0-2.7,0c-0.4,0-0.6,0.1-0.5,0.5c0,0.7,0,1.3,0,2c0,0.4,0.2,0.6,0.6,0.6
		c1.1,0,2.2,0,3.3,0c0.3,0,0.7,0,0.7,0.5c0,0.5-0.3,0.5-0.7,0.5c-1.4,0-2.9,0-4.3,0c-0.6,0-0.7-0.2-0.7-0.8
		C81.7,12.5,81.7,11.3,81.7,10L81.7,10z"/>
	<path class="st0" d="M135.6,14.5c-0.3,0-0.5-0.1-0.6-0.5c0,0,0,0,0-0.1c-0.3-1.5-1.2-2-2.7-1.8c-0.5,0.1-1,0.1-1.4,0
		c-0.9-0.1-1.3,0.3-1.5,1c-0.1,0.3-0.2,0.6-0.4,0.9c-0.2,0.5-0.6,0.4-1,0.3c-0.5-0.2-0.1-0.5,0-0.7c1.2-2.7,2.4-5.3,3.6-8
		c0.1-0.2,0.2-0.5,0.5-0.5c0.3,0,0.4,0.2,0.5,0.5c1.2,2.7,2.4,5.4,3.6,8.1C136.3,14.4,136.1,14.5,135.6,14.5z M131.9,11.4
		c0.5,0,0.9,0,1.4,0c0.4,0,0.5-0.1,0.3-0.5c-0.5-1-0.9-2-1.4-3.1c-0.1-0.1-0.1-0.3-0.3-0.3c-0.1,0-0.2,0.2-0.2,0.3
		c-0.3,0.7-0.6,1.3-0.9,1.9C130.1,11.4,130.1,11.4,131.9,11.4z"/>
	<path class="st0" d="M190.9,14.6c-0.3,0-0.6-0.1-0.7-0.4c-0.1-0.2-0.2-0.4-0.3-0.6c-0.2-1.1-0.9-1.4-2-1.3c-0.8,0.1-1.6,0-2.4,0
		c-0.4,0-0.7,0.1-0.8,0.5c-0.2,0.5-0.4,0.9-0.6,1.3c-0.2,0.6-0.6,0.5-1,0.4c-0.5-0.2-0.2-0.5,0-0.8c1.2-2.6,2.4-5.2,3.5-7.8
		c0.1-0.3,0.2-0.6,0.6-0.6c0.3,0,0.4,0.3,0.5,0.6c1.2,2.6,2.4,5.3,3.5,7.9C191.5,14.2,191.5,14.5,190.9,14.6z M187.2,11.4
		L187.2,11.4c0.4,0,0.9,0,1.3,0c0.4,0,0.5-0.2,0.4-0.5c-0.5-1-0.9-2.1-1.4-3.1c-0.1-0.1-0.1-0.2-0.2-0.2c-0.1,0-0.2,0.1-0.2,0.2
		c-0.5,1-0.9,2.1-1.4,3.1c-0.2,0.3-0.1,0.5,0.4,0.5C186.4,11.4,186.8,11.4,187.2,11.4z"/>
	<path class="st0" d="M151.6,10c0-1.3,0-2.5,0-3.8c0-0.5,0.1-0.7,0.7-0.7c1.5,0,3,0,4.4,0c0.4,0,0.6,0.1,0.6,0.5
		c0,0.4-0.3,0.4-0.6,0.4c-1.1,0-2.1,0-3.2,0c-0.6,0-0.8,0.2-0.7,0.8c0,0.5,0,0.9,0,1.4c0,0.9,0,0.9,0.9,0.9c0.8,0,1.6,0,2.4,0
		c0.4,0,0.6,0.1,0.6,0.5c0,0.5-0.3,0.5-0.6,0.5c-0.9,0-1.9,0-2.8,0c-0.4,0-0.5,0.1-0.5,0.5c0,0.7,0,1.4,0,2.1c0,0.4,0.1,0.6,0.6,0.6
		c1.1,0,2.2,0,3.3,0c0.4,0,0.7,0,0.7,0.5c0,0.5-0.3,0.5-0.7,0.5c-1.4,0-2.9,0-4.3,0c-0.5,0-0.7-0.2-0.7-0.7
		C151.6,12.6,151.6,11.3,151.6,10L151.6,10z"/>
	<path class="st0" d="M59.7,29.8c-0.3,0.1-0.5-0.1-0.6-0.4c-0.1-0.2-0.2-0.4-0.3-0.6c-0.2-1.1-0.9-1.4-2-1.3c-0.8,0.1-1.7,0-2.5,0
		c-0.4,0-0.6,0.1-0.7,0.5c-0.1,0.5-0.4,0.9-0.6,1.3c-0.1,0.2-0.2,0.5-0.5,0.4c-0.2,0-0.5,0.1-0.7-0.1c-0.1-0.2,0-0.4,0.1-0.6
		c1.2-2.6,2.4-5.2,3.6-7.8c0.1-0.2,0.2-0.6,0.5-0.6c0.3,0,0.4,0.4,0.5,0.6c1.2,2.6,2.3,5.2,3.5,7.8C60.3,29.4,60.4,29.8,59.7,29.8z
		 M56,26.7c0.5,0,0.9,0,1.4,0c0.3,0,0.5-0.1,0.3-0.4c-0.5-1.1-0.9-2.1-1.4-3.2c-0.1-0.3-0.3-0.3-0.5,0c-0.3,0.7-0.6,1.3-0.9,1.9
		C54.2,26.7,54.2,26.7,56,26.7z"/>
	<path class="st0" d="M100.5,10c0-1.3,0-2.6,0-3.9c0-0.5,0.1-0.7,0.7-0.7c1.4,0,2.9,0,4.3,0c0.4,0,0.7,0,0.7,0.5
		c0,0.6-0.4,0.4-0.7,0.4c-1.1,0-2.1,0-3.2,0c-0.4,0-0.7,0.1-0.6,0.6c0,0.6,0,1.3,0,1.9c0,0.4,0.1,0.5,0.5,0.5c0.9,0,1.9,0,2.8,0
		c0.4,0,0.6,0.1,0.6,0.5c0,0.5-0.3,0.5-0.6,0.5c-0.9,0-1.9,0-2.8,0c-0.4,0-0.5,0.1-0.5,0.5c0,0.7,0.1,1.3,0,2c0,0.5,0.2,0.6,0.7,0.6
		c1.1,0,2.1,0,3.2,0c0.4,0,0.6,0,0.6,0.5c0,0.5-0.3,0.5-0.7,0.5c-1.4,0-2.9,0-4.3,0c-0.5,0-0.7-0.2-0.7-0.7
		C100.5,12.6,100.5,11.3,100.5,10L100.5,10z"/>
	<path class="st0" d="M177.8,5.3c1,0,2,0.3,2.8,0.9c0.3,0.2,0.6,0.4,0.3,0.9c-0.3,0.4-0.6,0.3-0.9,0c-1.2-0.9-2.5-1-3.7-0.3
		c-1.3,0.7-1.9,1.9-1.9,3.3c0.1,1.5,0.8,2.6,2.2,3.2c1.2,0.5,2.3,0.3,3.3-0.5c0.2-0.2,0.4-0.4,0.7-0.2c0.2,0.1,0.4,0.2,0.5,0.5
		c0.1,0.3-0.2,0.4-0.4,0.6c-1.5,1.3-3.8,1.3-5.5,0.2c-1.7-1.1-2.4-3.2-1.8-5.1C174,6.6,175.7,5.3,177.8,5.3z"/>
	<path class="st0" d="M44.3,10.2c-0.1-2,0.8-3.5,2.5-4.4c1.7-0.9,3.4-0.8,4.9,0.4C52,6.5,52.4,6.6,52,7.1c-0.3,0.4-0.5,0.4-1,0.1
		c-1.8-1.3-3.7-1-5,0.7c-1,1.4-0.9,3.4,0.4,4.6c1.3,1.3,3,1.4,4.5,0.4c0.2-0.1,0.4-0.4,0.6-0.3c0.3,0,0.5,0.2,0.6,0.5
		c0.1,0.3-0.1,0.4-0.3,0.5c-2.2,2.1-6.1,1.1-7.3-1.8C44.4,11.3,44.3,10.8,44.3,10.2z"/>
	<path class="st0" d="M44.9,25.3c0-1.3,0-2.6,0-3.9c0-0.4,0.1-0.7,0.5-0.6c1,0,2-0.1,2.9,0.1c1.6,0.2,2.6,1.4,2.5,3.1
		c-0.1,1.5-1.2,2.7-2.8,2.7c-0.6,0-1.1,0-1.7,0c-0.3,0-0.5,0.1-0.5,0.5c0,0.8,0,1.5,0,2.3c0,0.5-0.3,0.5-0.6,0.5
		c-0.3,0-0.5-0.1-0.5-0.5C45,27.9,44.9,26.6,44.9,25.3z M46,23.6c0,0.1,0,0.1,0,0.1c0,1.8,0,1.8,1.8,1.8c1.2,0,2-0.8,2-2
		c0-1-0.8-1.7-1.9-1.7C46,21.8,46,21.8,46,23.6z"/>
	<path class="st0" d="M126.4,29.9c-0.9,0-1.7-0.3-2.5-0.8c-0.3-0.2-0.5-0.5-0.2-0.9c0.3-0.4,0.6-0.3,0.9-0.1
		c0.6,0.5,1.2,0.8,1.9,0.8c0.7,0,1.4-0.4,1.5-1.1c0.2-0.7-0.2-1.1-0.7-1.4c-0.5-0.4-1.2-0.6-1.8-0.9c-0.7-0.4-1.5-0.7-1.8-1.5
		c-0.4-0.9-0.3-1.8,0.4-2.5c0.7-0.8,1.7-1,2.7-0.9c0.5,0.1,1.1,0.2,1.5,0.5c0.3,0.2,0.3,0.5,0.2,0.7c-0.1,0.3-0.4,0.4-0.7,0.3
		c-0.2-0.1-0.4-0.2-0.6-0.3c-0.5-0.2-1-0.3-1.5-0.2c-0.6,0.1-0.9,0.5-1.1,1c-0.1,0.5,0.1,0.9,0.5,1.3c0.4,0.4,0.8,0.5,1.3,0.7
		c0.8,0.3,1.6,0.6,2.2,1.3c0.6,0.7,0.7,1.5,0.4,2.3c-0.4,1-1.3,1.4-2.3,1.5C126.6,30,126.5,29.9,126.4,29.9z"/>
	<path class="st0" d="M141.9,20.6c0.6,0.1,1.3,0.2,1.9,0.6c0.3,0.2,0.5,0.4,0.3,0.7c-0.2,0.4-0.5,0.4-0.8,0.2
		c-0.7-0.4-1.3-0.6-2.1-0.4c-0.6,0.2-0.9,0.5-1,1.1c-0.1,0.6,0.1,1,0.6,1.4c0.6,0.5,1.4,0.7,2,1c1,0.5,1.9,1.1,1.9,2.5
		c0,1-0.5,1.7-1.4,2.1c-1.4,0.6-2.7,0.3-3.9-0.6c-0.3-0.2-0.4-0.5-0.1-0.8c0.2-0.3,0.5-0.4,0.8-0.1c0.8,0.6,1.6,1,2.6,0.7
		c0.5-0.2,0.9-0.5,1-1.1c0.1-0.6-0.3-1-0.7-1.3c-0.6-0.4-1.3-0.7-2-1c-1-0.5-1.8-1.2-1.8-2.4C139.1,21.6,140.2,20.7,141.9,20.6z"/>
	<path class="st0" d="M119.4,13.8c0-1,0-2,0-2.9c0-0.5-0.1-0.7-0.6-0.7c-0.3,0-0.6,0-0.6-0.4c0-0.4,0.3-0.5,0.6-0.5
		c0.5,0.1,0.6-0.2,0.6-0.6c0-0.6-0.1-1.2,0.1-1.9c0.3-1.3,2.1-2,3.2-1.1c0.2,0.2,0.3,0.4,0.2,0.7c-0.2,0.3-0.4,0.3-0.7,0.2
		c-1.1-0.5-1.7-0.2-1.7,1c0,0.1,0,0.3,0,0.4c0,1.2,0,1.2,1.2,1.3c0.3,0,0.6,0.1,0.6,0.5c0,0.4-0.2,0.4-0.5,0.4
		c-1.2,0.1-1.2,0.1-1.2,1.4c0,1.7,0,3.5,0,5.2c0,0.3,0.1,0.8-0.5,0.8c-0.6,0-0.5-0.4-0.5-0.7C119.4,15.8,119.4,14.8,119.4,13.8z"/>
	<path class="st0" d="M133.5,25.7c0-1.1,0-2.2,0-3.4c0-0.5-0.1-0.7-0.6-0.6c-0.5,0-0.9,0-1.4,0c-0.3,0-0.5-0.1-0.5-0.5
		c0-0.4,0.1-0.6,0.5-0.6c1.7,0,3.4,0,5.1,0c0.4,0,0.4,0.2,0.4,0.5c0,0.3-0.1,0.5-0.5,0.5c-0.4,0-0.9,0-1.3,0c-0.5,0-0.7,0.1-0.7,0.7
		c0,2.2,0,4.4,0,6.6c0,0.4,0,0.7-0.6,0.8c-0.6,0-0.6-0.3-0.6-0.7C133.5,27.9,133.5,26.8,133.5,25.7
		C133.5,25.7,133.5,25.7,133.5,25.7z"/>
	<path class="st0" d="M73.8,10c0-1.3,0-2.6,0-3.9c0-0.5,0.1-0.6,0.6-0.7c0.5,0,0.6,0.3,0.6,0.7c0,2.2,0,4.5,0,6.7
		c0,0.5,0.1,0.7,0.7,0.7c0.9,0,1.8,0,2.7,0c0.3,0,0.6,0.1,0.6,0.5c0,0.4-0.2,0.6-0.6,0.6c-1.3,0-2.7,0-4,0c-0.4,0-0.6-0.2-0.6-0.6
		C73.8,12.6,73.8,11.3,73.8,10L73.8,10z"/>
	<path class="st0" d="M65.9,10c0-1.3,0-2.6,0-3.9c0-0.4,0.1-0.7,0.6-0.7C67,5.5,67,5.8,67,6.2c0,2.2,0,4.5,0,6.7
		c0,0.5,0.1,0.7,0.7,0.7c0.9,0,1.8,0,2.6,0c0.3,0,0.6-0.1,0.6,0.5c0,0.4-0.2,0.6-0.6,0.6c-1.3,0-2.7,0-4,0c-0.4,0-0.5-0.2-0.5-0.6
		C65.9,12.6,65.9,11.3,65.9,10L65.9,10z"/>
	<path class="st0" d="M63.4,25.7c0-1.1,0-2.2,0-3.4c0-0.5-0.2-0.7-0.7-0.6c-0.5,0-0.9,0-1.4,0c-0.3,0-0.5-0.2-0.5-0.5
		c0-0.3,0.2-0.5,0.5-0.5c1.7,0,3.4,0,5.1,0c0.3,0,0.4,0.2,0.4,0.5c0,0.3-0.2,0.5-0.5,0.5c-0.1,0-0.2,0-0.3,0c-1.7,0-1.7,0-1.7,1.7
		c0,1.9,0,3.8,0,5.6c0,0.5-0.1,0.7-0.6,0.7c-0.5,0-0.5-0.3-0.5-0.7C63.4,28,63.4,26.8,63.4,25.7z"/>
	<path class="st0" d="M90.7,25.3c0-1.3,0-2.6,0-3.9c0-0.4,0-0.7,0.6-0.7c0.5,0,0.6,0.3,0.6,0.7c0,2.2,0,4.5,0,6.7
		c0,0.6,0.1,0.8,0.7,0.7c0.9-0.1,1.7,0,2.6,0c0.3,0,0.6,0,0.6,0.5c0,0.5-0.3,0.5-0.6,0.5c-1.3,0-2.6,0-3.9,0c-0.5,0-0.6-0.2-0.6-0.7
		C90.7,27.9,90.7,26.6,90.7,25.3z"/>
	<path class="st0" d="M117.5,11.9c0,1.5-1.2,2.8-2.6,2.8c-1.4,0-2.6-1.3-2.6-2.8c0-1.6,1.1-2.8,2.6-2.8
		C116.4,9.2,117.5,10.4,117.5,11.9z M116.5,11.9c0-1-0.7-1.8-1.6-1.8c-0.9,0-1.6,0.7-1.6,1.7c0,1,0.7,1.8,1.6,1.8
		C115.8,13.7,116.5,12.9,116.5,11.9z"/>
	<path class="st0" d="M169.6,10c0-1.3,0-2.6,0-3.9c0-0.4,0.1-0.7,0.6-0.7c0.5,0,0.6,0.2,0.6,0.7c0,2.6,0,5.2,0,7.8
		c0,0.5-0.2,0.6-0.6,0.6c-0.4,0-0.6-0.2-0.5-0.6C169.6,12.6,169.6,11.3,169.6,10L169.6,10z"/>
	<path class="st0" d="M120.5,25.3c0,1.3,0,2.6,0,3.9c0,0.5-0.2,0.6-0.6,0.6c-0.4,0-0.6-0.2-0.6-0.6c0-2.6,0-5.2,0-7.9
		c0-0.4,0.1-0.6,0.6-0.6c0.4,0,0.6,0.2,0.6,0.6C120.5,22.7,120.5,24,120.5,25.3z"/>
	<path class="st1" d="M16.1,34.7c-1,0-1.7-0.7-1.7-1.8c0-0.9,0.8-1.7,1.7-1.7c0.9,0,1.7,0.8,1.6,1.7C17.8,34,17,34.7,16.1,34.7z"/>
	<path class="st1" d="M32,15.4c0-1,0.7-1.7,1.7-1.7c0.9,0,1.7,0.8,1.7,1.7c0,0.9-0.8,1.7-1.7,1.7C32.8,17.1,32,16.4,32,15.4z"/>
	<path class="st1" d="M16.2,13.7c0.9,0,1.6,0.8,1.6,1.7c0,0.9-0.8,1.7-1.8,1.7c-1,0-1.7-0.8-1.6-1.8C14.4,14.4,15.2,13.7,16.2,13.7z
		"/>
	<path class="st2" d="M22.2,19.8c0,1-0.8,1.8-1.7,1.7c-0.9,0-1.7-0.8-1.7-1.7c0-0.9,0.8-1.7,1.7-1.7S22.2,18.8,22.2,19.8z"/>
	<path class="st1" d="M22.2,2.3c0,0.9-0.8,1.7-1.7,1.7c-1,0-1.7-0.8-1.7-1.7s0.8-1.7,1.7-1.7C21.4,0.5,22.2,1.3,22.2,2.3z"/>
	<path class="st1" d="M10,6.7c0-1,0.7-1.7,1.6-1.7c1,0,1.7,0.7,1.8,1.7c0,1-0.7,1.7-1.7,1.8C10.8,8.4,10,7.7,10,6.7z"/>
	<path class="st2" d="M13.3,28.6c0,1-0.7,1.7-1.7,1.7c-0.8,0-1.7-0.6-1.7-1.7c0-0.9,0.8-1.7,1.7-1.7C12.6,26.9,13.3,27.6,13.3,28.6z
		"/>
	<path class="st0" d="M30.5,15.4c0,0.7-0.5,1.2-1.2,1.2c-0.7,0-1.3-0.5-1.3-1.2c0-0.6,0.6-1.3,1.2-1.3
		C29.9,14.1,30.5,14.7,30.5,15.4z"/>
	<path class="st0" d="M20.4,16.6c-0.7,0-1.2-0.5-1.2-1.2c0-0.7,0.6-1.2,1.2-1.2c0.7,0,1.2,0.6,1.2,1.2
		C21.7,16.1,21.2,16.6,20.4,16.6z"/>
	<path class="st0" d="M24.9,5.5c0.7,0,1.2,0.5,1.3,1.2c0,0.7-0.6,1.3-1.2,1.3c-0.7,0-1.2-0.6-1.2-1.3C23.7,6,24.2,5.5,24.9,5.5z"/>
	<path class="st0" d="M6.1,6.7c0-0.7,0.4-1.2,1.1-1.2c0.7,0,1.2,0.5,1.3,1.1c0,0.8-0.4,1.3-1.2,1.3C6.6,7.9,6.1,7.4,6.1,6.7z"/>
	<path class="st0" d="M12.9,24.2c0,0.7-0.5,1.2-1.2,1.2c-0.7,0-1.2-0.6-1.2-1.2c0-0.7,0.6-1.2,1.2-1.2C12.4,23,12.9,23.5,12.9,24.2z
		"/>
	<path class="st0" d="M12.9,33c0,0.7-0.5,1.2-1.2,1.2c-0.7,0-1.2-0.5-1.2-1.2c0-0.7,0.6-1.2,1.2-1.2C12.4,31.8,12.9,32.3,12.9,33z"
		/>
	<path class="st0" d="M20.5,27.4c0.7,0,1.3,0.5,1.3,1.2c0,0.7-0.5,1.2-1.2,1.2c-0.8,0-1.2-0.4-1.2-1.2
		C19.3,27.9,19.8,27.4,20.5,27.4z"/>
	<path class="st0" d="M30.5,24.2c0,0.7-0.6,1.2-1.2,1.2c-0.7,0-1.3-0.6-1.3-1.3c0-0.6,0.6-1.2,1.2-1.2C30,23,30.5,23.5,30.5,24.2z"
		/>
	<path class="st0" d="M7.3,21c-0.8,0-1.2-0.4-1.2-1.2c0-0.7,0.5-1.2,1.2-1.2c0.7,0,1.2,0.5,1.2,1.2C8.5,20.6,8,21,7.3,21z"/>
	<path class="st0" d="M33.7,21c-0.7,0-1.2-0.5-1.2-1.2c0-0.7,0.6-1.2,1.2-1.2c0.7,0,1.2,0.5,1.2,1.2C34.9,20.5,34.4,21,33.7,21z"/>
	<path class="st0" d="M14.9,2.3c0-0.7,0.5-1.2,1.2-1.2c0.7,0,1.2,0.5,1.2,1.2c0,0.7-0.5,1.2-1.2,1.3C15.5,3.5,14.9,2.9,14.9,2.3z"/>
	<path class="st1" d="M21.7,24.2c0,0.7-0.5,1.2-1.2,1.3c-0.7,0-1.3-0.5-1.3-1.2c0-0.7,0.6-1.2,1.2-1.2C21.2,23,21.7,23.5,21.7,24.2z
		"/>
	<path class="st0" d="M16.1,21c-0.7,0-1.2-0.5-1.2-1.2c0-0.7,0.6-1.2,1.2-1.2c0.7,0,1.2,0.5,1.2,1.3C17.3,20.6,16.8,21,16.1,21z"/>
	<path class="st0" d="M14.9,11c0-0.7,0.5-1.2,1.2-1.2c0.8,0,1.2,0.5,1.2,1.3c0,0.7-0.5,1.2-1.2,1.2C15.4,12.3,14.9,11.7,14.9,11z"/>
	<path class="st0" d="M6.1,11.1c0-0.8,0.4-1.3,1.2-1.3c0.7,0,1.2,0.5,1.2,1.2c0,0.7-0.5,1.2-1.2,1.2C6.6,12.3,6.1,11.8,6.1,11.1z"/>
	<path class="st1" d="M4.1,11c0,0.6-0.6,1.2-1.2,1.2c-0.7,0-1.2-0.6-1.2-1.2c0-0.6,0.6-1.2,1.2-1.2C3.5,9.8,4.1,10.4,4.1,11z"/>
	<path class="st1" d="M29.2,21c-0.7,0-1.2-0.6-1.2-1.2c0-0.7,0.6-1.2,1.3-1.2c0.7,0,1.2,0.6,1.2,1.3C30.5,20.5,30,21,29.2,21z"/>
	<path class="st2" d="M34.9,24.1c0,0.7-0.5,1.3-1.2,1.3c-0.6,0-1.2-0.5-1.2-1.2c0-0.7,0.5-1.2,1.2-1.2C34.4,23,34.9,23.5,34.9,24.1z
		"/>
	<path class="st2" d="M24.9,1.1c0.7,0,1.2,0.5,1.2,1.2c0,0.7-0.4,1.2-1.2,1.2c-0.7,0-1.2-0.5-1.2-1.1C23.7,1.6,24.2,1.1,24.9,1.1z"
		/>
	<path class="st1" d="M29.2,12.3c-0.6,0-1.2-0.6-1.2-1.2c0-0.6,0.6-1.2,1.3-1.2c0.7,0,1.3,0.6,1.2,1.2
		C30.5,11.7,29.9,12.3,29.2,12.3z"/>
	<path class="st1" d="M11.6,21c-0.7,0-1.2-0.6-1.2-1.3c0.1-0.6,0.6-1.2,1.2-1.1c0.7,0,1.2,0.6,1.2,1.3C12.8,20.6,12.3,21,11.6,21z"
		/>
	<path class="st2" d="M24.9,29.8c-0.8,0-1.2-0.4-1.2-1.2c0-0.7,0.5-1.2,1.2-1.2c0.7,0,1.2,0.5,1.2,1.2
		C26.1,29.3,25.6,29.8,24.9,29.8z"/>
	<path class="st2" d="M12.9,11.1c0,0.7-0.6,1.2-1.3,1.2c-0.7,0-1.2-0.6-1.2-1.2c0-0.7,0.6-1.2,1.2-1.2C12.4,9.8,12.9,10.4,12.9,11.1
		z"/>
	<path class="st1" d="M23.7,33c0-0.7,0.5-1.2,1.2-1.2c0.7,0,1.2,0.5,1.2,1.2c0,0.7-0.5,1.2-1.2,1.2C24.2,34.2,23.7,33.7,23.7,33z"/>
	<path class="st1" d="M29.2,27.4c0.8,0,1.3,0.5,1.3,1.2c0,0.7-0.5,1.2-1.2,1.2c-0.7,0-1.2-0.5-1.2-1.2
		C28.1,27.9,28.6,27.4,29.2,27.4z"/>
	<path class="st2" d="M23.7,15.4c0-0.7,0.6-1.2,1.2-1.2c0.7,0,1.2,0.6,1.2,1.3c0,0.7-0.5,1.2-1.2,1.2C24.2,16.6,23.7,16.1,23.7,15.4
		z"/>
	<path class="st2" d="M8.5,24.3c0,0.7-0.5,1.2-1.2,1.2c-0.7,0-1.2-0.5-1.2-1.2c0-0.7,0.5-1.2,1.2-1.2C8,23,8.5,23.5,8.5,24.3z"/>
	<path class="st1" d="M7.3,29.7c-0.7,0-1.2-0.4-1.2-1.1c0-0.7,0.5-1.2,1.2-1.2c0.7,0,1.2,0.4,1.2,1.2C8.5,29.4,8.1,29.7,7.3,29.7z"
		/>
	<path class="st2" d="M20.5,7.9c-0.7,0-1.2-0.5-1.2-1.1c0-0.7,0.5-1.2,1.1-1.2c0.7,0,1.3,0.5,1.3,1.1C21.7,7.3,21.2,7.8,20.5,7.9z"
		/>
	<path class="st3" d="M17,6.7c0,0.5-0.5,0.9-1,1c-0.4,0-1-0.6-1-1c0-0.3,0.7-0.9,1.1-0.9C16.5,5.7,17,6.3,17,6.7z"/>
	<path class="st3" d="M24.9,12c-0.5,0-1-0.5-1-0.9c0-0.4,0.7-1.2,1-1c0.4,0.2,0.9,0.4,1,1C25.9,11.4,25.3,12,24.9,12z"/>
	<path class="st3" d="M17,24.2c0,0.5-0.5,0.9-1,0.9c-0.5,0-1-0.5-1-1c0-0.3,0.7-0.9,1.1-0.9C16.6,23.3,17,23.7,17,24.2z"/>
	<path class="st3" d="M2.9,25.1c-0.5,0-1.1-0.5-1-1c0.1-0.5,0.4-0.9,0.9-0.9c0.5,0,1,0.5,1,0.9C3.9,24.6,3.3,25.1,2.9,25.1z"/>
	<path class="st3" d="M7.3,16.3c-0.6,0-1-0.4-1-0.9c0-0.5,0.5-1,1-1c0.4,0,1.1,0.7,0.9,1.1C8.1,15.9,7.9,16.4,7.3,16.3z"/>
	<path class="st3" d="M34.6,11c0,0.6-0.4,1-0.8,1c-0.5,0-1-0.5-1-0.9c0-0.4,0.6-1.1,1-1.1C34.1,10,34.6,10.5,34.6,11z"/>
	<path class="st3" d="M25,20.7c-0.7,0-1-0.3-1.1-0.9c-0.1-0.5,0.5-1.1,1-1c0.5,0,1,0.6,0.9,1C25.7,20.3,25.6,20.8,25,20.7z"/>
	<path class="st0" d="M16.8,28.6c-0.1,0.3-0.1,0.7-0.7,0.7c-0.5,0-0.8-0.2-0.8-0.7s0.3-0.8,0.7-0.8C16.5,27.9,16.8,28.1,16.8,28.6z"
		/>
	<path class="st0" d="M21.2,33c0,0.5-0.3,0.7-0.7,0.7c-0.4,0-0.7-0.3-0.7-0.7s0.3-0.7,0.8-0.7C21,32.3,21.2,32.6,21.2,33z"/>
	<path class="st0" d="M11.7,14.7c0.5,0.1,0.7,0.3,0.7,0.8c-0.1,0.4-0.3,0.7-0.8,0.6c-0.5-0.1-0.7-0.3-0.6-0.8
		C11,14.9,11.3,14.6,11.7,14.7z"/>
	<path class="st0" d="M29.3,7.4c-0.5,0-0.7-0.2-0.7-0.7c0-0.5,0.3-0.7,0.7-0.7C29.8,6,30,6.3,30,6.7C30,7.1,29.8,7.4,29.3,7.4z"/>
	<path class="st0" d="M25.6,24.2c0,0.5-0.3,0.7-0.7,0.7c-0.4,0-0.7-0.3-0.7-0.7c0-0.5,0.4-0.7,0.8-0.7
		C25.4,23.5,25.6,23.8,25.6,24.2z"/>
	<path class="st0" d="M2.9,16.1c-0.5,0-0.7-0.3-0.7-0.7c0-0.4,0.2-0.7,0.7-0.7c0.5,0,0.7,0.3,0.7,0.8C3.6,15.9,3.3,16.1,2.9,16.1z"
		/>
	<path class="st1" d="M20.5,11.7c-0.5,0-0.7-0.2-0.8-0.7c0-0.4,0.3-0.7,0.7-0.7c0.4,0,0.7,0.2,0.7,0.7C21.2,11.4,21,11.7,20.5,11.7z
		"/>
	<path class="st1" d="M11.5,3c-0.2,0-0.5-0.3-0.5-0.7c0-0.5,0.3-0.7,0.7-0.7c0.5,0,0.7,0.4,0.7,0.8C12.4,2.7,12.2,3,11.5,3z"/>
</g>
</svg>
