<?xml version="1.0" encoding="utf-8"?>
<!-- Generator: Adobe Illustrator 21.0.0, SVG Export Plug-In . SVG Version: 6.00 Build 0)  -->
<svg version="1.1" id="Layer_1" xmlns="http://www.w3.org/2000/svg" xmlns:xlink="http://www.w3.org/1999/xlink" x="0px" y="0px"
	 viewBox="0 0 72 41" style="enable-background:new 0 0 72 41;" xml:space="preserve">
<style type="text/css">
	.st0{fill:#99CB72;}
	.st1{fill:#0A3E85;}
	.st2{fill:#98CB75;}
</style>
<g>
	<path class="st0" d="M0.9,36c0-0.7,0.3-1.3,0.8-1.8c0.5-0.5,1.2-0.8,1.9-0.8c0.7,0,1.3,0.3,1.9,0.8c0.5,0.5,0.8,1.1,0.8,1.9
		c0,0.7-0.3,1.4-0.8,1.9c-0.5,0.5-1.2,0.8-1.9,0.8c-0.7,0-1.2-0.2-1.8-0.7C1.2,37.5,0.9,36.8,0.9,36z M1.7,36c0,0.6,0.2,1,0.6,1.4
		C2.6,37.8,3.1,38,3.6,38c0.5,0,1-0.2,1.3-0.6C5.3,37,5.5,36.6,5.5,36c0-0.5-0.2-1-0.5-1.4c-0.4-0.4-0.8-0.6-1.3-0.6
		c-0.5,0-1,0.2-1.3,0.6C1.9,35,1.7,35.5,1.7,36z"/>
	<path class="st0" d="M7.6,33v2.7c0.3-0.3,0.6-0.5,1-0.5c0.4,0,0.8,0.2,1.1,0.5c0.3,0.3,0.4,0.7,0.4,1.2c0,0.5-0.1,0.9-0.4,1.2
		c-0.3,0.3-0.6,0.5-1.1,0.5c-0.4,0-0.7-0.1-1-0.4v0.3H6.9V33H7.6z M9.4,37c0-0.3-0.1-0.6-0.3-0.8C9,36.1,8.8,36,8.5,36
		c-0.3,0-0.5,0.1-0.7,0.3c-0.2,0.2-0.3,0.4-0.3,0.7c0,0.3,0.1,0.6,0.3,0.7C8,37.9,8.2,38,8.5,38c0.3,0,0.5-0.1,0.6-0.3
		C9.3,37.5,9.4,37.3,9.4,37z"/>
	<path class="st0" d="M13.7,37.2h-2.3c0,0.3,0.1,0.5,0.3,0.6c0.2,0.2,0.3,0.2,0.6,0.2c0.2,0,0.3,0,0.5-0.1c0.1-0.1,0.3-0.3,0.4-0.5
		l0.6,0.3c-0.1,0.2-0.2,0.3-0.3,0.4c-0.1,0.1-0.2,0.2-0.3,0.3c-0.1,0.1-0.3,0.1-0.4,0.2c-0.1,0-0.3,0.1-0.5,0.1
		c-0.5,0-0.9-0.2-1.2-0.5c-0.3-0.3-0.4-0.7-0.4-1.2c0-0.5,0.1-0.9,0.4-1.2c0.3-0.3,0.7-0.5,1.1-0.5c0.5,0,0.8,0.2,1.1,0.5
		c0.3,0.3,0.4,0.7,0.4,1.2L13.7,37.2z M13,36.6c-0.1-0.4-0.4-0.6-0.7-0.6c-0.1,0-0.2,0-0.3,0c-0.1,0-0.2,0.1-0.2,0.1
		c-0.1,0.1-0.1,0.1-0.2,0.2c0,0.1-0.1,0.2-0.1,0.2L13,36.6L13,36.6z"/>
	<path class="st0" d="M16.2,35.9l-0.6,0.3c-0.1-0.2-0.2-0.3-0.4-0.3c-0.1,0-0.1,0-0.2,0.1c0,0-0.1,0.1-0.1,0.2
		c0,0.1,0.1,0.2,0.4,0.4c0.4,0.2,0.7,0.3,0.8,0.5c0.1,0.1,0.2,0.3,0.2,0.6c0,0.3-0.1,0.6-0.3,0.8c-0.2,0.2-0.5,0.3-0.8,0.3
		c-0.5,0-0.9-0.3-1.1-0.8l0.6-0.3c0.1,0.2,0.2,0.3,0.2,0.3c0.1,0.1,0.2,0.1,0.3,0.1c0.3,0,0.4-0.1,0.4-0.3c0-0.1-0.1-0.3-0.3-0.4
		c-0.1,0-0.2-0.1-0.2-0.1c-0.1,0-0.2-0.1-0.2-0.1c-0.2-0.1-0.4-0.2-0.5-0.3c-0.1-0.1-0.2-0.3-0.2-0.5c0-0.3,0.1-0.5,0.3-0.7
		c0.2-0.2,0.4-0.3,0.7-0.3C15.7,35.3,16,35.5,16.2,35.9z"/>
	<path class="st0" d="M16.8,34c0-0.1,0-0.2,0.1-0.3c0.1-0.1,0.2-0.1,0.3-0.1c0.1,0,0.2,0,0.3,0.1c0.1,0.1,0.1,0.2,0.1,0.3
		c0,0.1,0,0.2-0.1,0.3c-0.1,0.1-0.2,0.1-0.3,0.1c-0.1,0-0.2,0-0.3-0.1C16.9,34.3,16.8,34.2,16.8,34z M17.7,35.4v3.2h-0.7v-3.2H17.7z
		"/>
	<path class="st0" d="M19.2,36.1v2.5h-0.7v-2.5h-0.3v-0.7h0.3v-1.2h0.7v1.2h0.6v0.7H19.2z"/>
	<path class="st0" d="M21.2,38l-1.4-2.6h0.9l1,1.8l0.9-1.8h0.8l-2.6,5h-0.8L21.2,38z"/>
	<path class="st0" d="M28.7,37.4h-2.2L26,38.6h-0.8l2.5-5.4l2.4,5.4h-0.8L28.7,37.4z M28.4,36.6l-0.8-1.7l-0.8,1.7H28.4z"/>
	<path class="st0" d="M32.9,35.5v1c-0.2-0.2-0.3-0.3-0.5-0.4C32.3,36,32.2,36,32,36c-0.3,0-0.5,0.1-0.7,0.3C31.1,36.4,31,36.7,31,37
		c0,0.3,0.1,0.5,0.3,0.7c0.2,0.2,0.4,0.3,0.7,0.3c0.2,0,0.3,0,0.5-0.1c0.1-0.1,0.3-0.2,0.5-0.4v1c-0.3,0.2-0.6,0.2-0.9,0.2
		c-0.5,0-0.9-0.2-1.2-0.5c-0.3-0.3-0.5-0.7-0.5-1.2c0-0.5,0.2-0.9,0.5-1.2c0.3-0.3,0.8-0.5,1.2-0.5C32.3,35.3,32.6,35.4,32.9,35.5z"
		/>
	<path class="st0" d="M34.2,36.1v2.5h-0.7v-2.5h-0.3v-0.7h0.3v-1.2h0.7v1.2h0.6v0.7H34.2z"/>
	<path class="st0" d="M35,34c0-0.1,0-0.2,0.1-0.3c0.1-0.1,0.2-0.1,0.3-0.1c0.1,0,0.2,0,0.3,0.1C36,33.8,36,33.9,36,34
		c0,0.1,0,0.2-0.1,0.3c-0.1,0.1-0.2,0.1-0.3,0.1s-0.2,0-0.3-0.1C35.1,34.3,35,34.2,35,34z M35.9,35.4v3.2h-0.7v-3.2H35.9z"/>
	<path class="st0" d="M36.5,37c0-0.5,0.2-0.9,0.5-1.2c0.3-0.3,0.7-0.5,1.2-0.5s0.9,0.2,1.2,0.5c0.3,0.3,0.5,0.7,0.5,1.2
		c0,0.5-0.2,0.9-0.5,1.2c-0.3,0.3-0.7,0.5-1.2,0.5c-0.5,0-0.9-0.2-1.2-0.5C36.7,37.9,36.5,37.5,36.5,37z M37.3,37
		c0,0.3,0.1,0.6,0.3,0.8c0.2,0.2,0.4,0.3,0.7,0.3s0.5-0.1,0.7-0.3c0.2-0.2,0.3-0.4,0.3-0.7c0-0.3-0.1-0.6-0.3-0.7
		c-0.2-0.2-0.4-0.3-0.7-0.3c-0.3,0-0.5,0.1-0.7,0.3C37.4,36.4,37.3,36.7,37.3,37z"/>
	<path class="st0" d="M40.6,35.4h0.7v0.3c0.3-0.3,0.6-0.4,0.9-0.4c0.4,0,0.7,0.1,0.9,0.4c0.2,0.2,0.3,0.5,0.3,1v2h-0.7v-1.8
		c0-0.3,0-0.5-0.1-0.7C42.4,36,42.2,36,42,36c-0.2,0-0.4,0.1-0.5,0.2c-0.1,0.2-0.2,0.4-0.2,0.8v1.5h-0.7L40.6,35.4L40.6,35.4z"/>
	<path class="st0" d="M49.9,33.8v0.9c-0.4-0.4-0.9-0.6-1.4-0.6c-0.5,0-1,0.2-1.3,0.6c-0.4,0.4-0.5,0.8-0.5,1.4c0,0.5,0.2,1,0.5,1.3
		c0.4,0.4,0.8,0.5,1.3,0.5c0.3,0,0.5,0,0.7-0.1c0.1,0,0.2-0.1,0.3-0.2c0.1-0.1,0.2-0.2,0.4-0.3v0.9c-0.4,0.2-0.9,0.4-1.4,0.4
		c-0.7,0-1.3-0.3-1.9-0.8c-0.5-0.5-0.8-1.1-0.8-1.9c0-0.6,0.2-1.2,0.6-1.7c0.5-0.6,1.2-0.9,2-0.9C49.1,33.4,49.5,33.5,49.9,33.8z"/>
	<path class="st0" d="M50.4,37c0-0.5,0.2-0.9,0.5-1.2c0.3-0.3,0.7-0.5,1.2-0.5s0.9,0.2,1.2,0.5c0.3,0.3,0.5,0.7,0.5,1.2
		c0,0.5-0.2,0.9-0.5,1.2c-0.3,0.3-0.7,0.5-1.2,0.5c-0.5,0-0.9-0.2-1.2-0.5C50.6,37.9,50.4,37.5,50.4,37z M51.2,37
		c0,0.3,0.1,0.6,0.3,0.8c0.2,0.2,0.4,0.3,0.7,0.3c0.3,0,0.5-0.1,0.7-0.3c0.2-0.2,0.3-0.4,0.3-0.7c0-0.3-0.1-0.6-0.3-0.7
		c-0.2-0.2-0.4-0.3-0.7-0.3c-0.3,0-0.5,0.1-0.7,0.3C51.3,36.4,51.2,36.7,51.2,37z"/>
	<path class="st0" d="M56.8,35.4h0.7v3.2h-0.7v-0.3c-0.3,0.3-0.6,0.4-1,0.4c-0.4,0-0.8-0.2-1.1-0.5c-0.3-0.3-0.4-0.7-0.4-1.2
		c0-0.5,0.1-0.9,0.4-1.2c0.3-0.3,0.6-0.5,1.1-0.5c0.4,0,0.7,0.2,1,0.5L56.8,35.4L56.8,35.4z M55.1,37c0,0.3,0.1,0.6,0.2,0.8
		c0.2,0.2,0.4,0.3,0.6,0.3c0.3,0,0.5-0.1,0.7-0.3c0.2-0.2,0.3-0.4,0.3-0.7s-0.1-0.5-0.3-0.7C56.5,36.1,56.2,36,56,36
		c-0.3,0-0.5,0.1-0.6,0.3C55.2,36.4,55.1,36.7,55.1,37z"/>
	<path class="st0" d="M59.1,33v5.6h-0.7V33H59.1z"/>
	<path class="st0" d="M59.8,34c0-0.1,0-0.2,0.1-0.3c0.1-0.1,0.2-0.1,0.3-0.1c0.1,0,0.2,0,0.3,0.1c0.1,0.1,0.1,0.2,0.1,0.3
		c0,0.1,0,0.2-0.1,0.3c-0.1,0.1-0.2,0.1-0.3,0.1s-0.2,0-0.3-0.1C59.8,34.3,59.8,34.2,59.8,34z M60.6,35.4v3.2h-0.7v-3.2H60.6z"/>
	<path class="st0" d="M62.2,36.1v2.5h-0.7v-2.5h-0.3v-0.7h0.3v-1.2h0.7v1.2h0.6v0.7H62.2z"/>
	<path class="st0" d="M63,34c0-0.1,0-0.2,0.1-0.3c0.1-0.1,0.2-0.1,0.3-0.1c0.1,0,0.2,0,0.3,0.1c0.1,0.1,0.1,0.2,0.1,0.3
		c0,0.1,0,0.2-0.1,0.3c-0.1,0.1-0.2,0.1-0.3,0.1c-0.1,0-0.2,0-0.3-0.1C63,34.3,63,34.2,63,34z M63.8,35.4v3.2h-0.7v-3.2H63.8z"/>
	<path class="st0" d="M64.5,37c0-0.5,0.2-0.9,0.5-1.2c0.3-0.3,0.7-0.5,1.2-0.5s0.9,0.2,1.2,0.5c0.3,0.3,0.5,0.7,0.5,1.2
		c0,0.5-0.2,0.9-0.5,1.2c-0.3,0.3-0.7,0.5-1.2,0.5c-0.5,0-0.9-0.2-1.2-0.5C64.6,37.9,64.5,37.5,64.5,37z M65.2,37
		c0,0.3,0.1,0.6,0.3,0.8c0.2,0.2,0.4,0.3,0.7,0.3c0.3,0,0.5-0.1,0.7-0.3c0.2-0.2,0.3-0.4,0.3-0.7c0-0.3-0.1-0.6-0.3-0.7
		c-0.2-0.2-0.4-0.3-0.7-0.3c-0.3,0-0.5,0.1-0.7,0.3C65.3,36.4,65.2,36.7,65.2,37z"/>
	<path class="st0" d="M68.5,35.4h0.7v0.3c0.3-0.3,0.6-0.4,0.9-0.4c0.4,0,0.7,0.1,0.9,0.4c0.2,0.2,0.3,0.5,0.3,1v2h-0.7v-1.8
		c0-0.3,0-0.5-0.1-0.7C70.3,36,70.2,36,69.9,36c-0.2,0-0.4,0.1-0.5,0.2c-0.1,0.2-0.2,0.4-0.2,0.8v1.5h-0.7L68.5,35.4L68.5,35.4z"/>
</g>
<g>
	<path class="st1" d="M8.2,18.4C8.1,12.7,12.9,7.5,18.8,7.6c5.3,0.1,10.3,5.1,10.2,10.8c-0.1,6-4.8,11-10.6,10.9
		C12.8,29.2,8.1,24.4,8.2,18.4z M18.7,25.5c4.3,0,7.2-3.8,6.8-7.8c-0.3-3.7-3.2-6.6-7.2-6.5c-4.2,0.1-6.7,4-6.6,7.4
		C11.8,22.3,14.7,25.7,18.7,25.5z"/>
	<path class="st1" d="M37.8,6.8c3.3,7.4,6.4,14.7,9.7,22c-0.8,0-1.6,0-2.3,0c-0.4,0-0.5-0.3-0.6-0.5c-0.6-1.4-1.2-2.7-1.8-4.1
		c-0.2-0.5-0.4-0.7-1-0.6c-2.7,0-5.4,0-8,0c-0.5,0-0.7,0.1-0.9,0.5c-0.6,1.4-1.2,2.7-1.8,4.1c-0.2,0.5-0.5,0.6-1,0.6
		c-0.6,0-1.2,0-2,0C31.3,21.5,34.5,14.3,37.8,6.8z M37.7,21.2C37.7,21.2,37.7,21.2,37.7,21.2c1,0,2.1,0,3.1,0c0.5,0,0.6-0.1,0.4-0.6
		c-0.3-0.8-0.7-1.6-1-2.3c-0.7-1.7-1.4-3.5-2.2-5.2C38,13,38,12.8,37.8,12.8c-0.2,0-0.2,0.2-0.3,0.4c-0.2,0.4-0.4,0.9-0.5,1.4
		c-0.8,2-1.7,4-2.6,6c-0.2,0.5-0.1,0.7,0.4,0.7C35.8,21.2,36.8,21.2,37.7,21.2z"/>
	<path class="st2" d="M44.6,4.8c-1-0.3-2-0.5-2.9-0.8c-2.8-0.7-5.7-1.1-8.6-1.2c-4.5-0.2-9,0.1-13.4,1.3C15.8,5,12.3,6.6,9,9
		C8.8,9.2,8.5,9.2,8.2,9.2c-1.4,0-2.9-0.1-4.3,0.1c-0.1,0-0.3,0-0.3-0.1C3.4,9,3.6,8.9,3.7,8.8c0.9-0.9,2-1.6,3-2.4
		c4-2.8,8.5-4.1,13.3-4.8c3.7-0.6,7.5-0.8,11.2-0.4c4.1,0.4,8.1,1.2,12,2.7c0.5,0.2,1,0.5,1.5,0.7C44.6,4.7,44.6,4.7,44.6,4.8z"/>
	<path class="st1" d="M63.8,11.9c-0.9-1.1-2-1.8-3.2-2.4c-1.6-0.9-3.4-1.1-5.2-0.7c-3.9,1-6.3,3.5-7.3,7.3c-0.9,3.1,0,5.8,1.9,8.3
		c0.7,0.9,1.5,1.4,2.4,2c0.9,0.6,1.8,1.3,2.8,1.4c1.2,0.2,2.5,0.2,3.7-0.1c1.9-0.5,3.4-1.6,4.8-2.8c0.4,1.1-0.1,2-1,2.5
		c-3.4,2.2-7.8,2.6-11.6-0.2c-3.1-2.3-4.7-5.4-4.6-9.4c0.1-1.5,0.4-3,1.1-4.4c0.8-1.7,2-3.2,3.5-4.2c3.6-2.3,7.3-2.6,11.1-0.4
		C63.4,9.6,64.3,10.3,63.8,11.9z"/>
</g>
</svg>
