<?xml version="1.0" encoding="utf-8"?>
<!-- Generator: Adobe Illustrator 21.0.0, SVG Export Plug-In . SVG Version: 6.00 Build 0)  -->
<svg version="1.1" id="Layer_1" xmlns="http://www.w3.org/2000/svg" xmlns:xlink="http://www.w3.org/1999/xlink" x="0px" y="0px"
	 viewBox="0 0 102 39" style="enable-background:new 0 0 102 39;" xml:space="preserve">
<style type="text/css">
	.st0{fill:#6C286A;}
	.st1{fill:#887F6F;}
</style>
<path class="st0" d="M19.8,11.6c-2.3,5,0,10.1,3.8,12.3c3.9,2.2,8.8,1.5,11.8-1.8c3.1-3.4,3.3-8.4,0.6-12c-2.5-3.5-8-5.4-12.8-2.4
	c-0.1-0.1,0-0.2,0-0.2c0-1.5,0-3,0-4.4c0-0.2,0.1-0.3,0.3-0.3c5.6-1.8,10.5-0.8,14.8,3.3c2.4,2.3,3.8,5.2,4.1,8.5
	c0.4,4.2-0.8,8-3.7,11.1c-2.2,2.4-4.9,3.9-8.2,4.3c-4.6,0.7-8.5-0.6-11.9-3.8c-2.2-2.1-3.6-4.6-4.1-7.6c-0.4-2.2-0.3-4.4,0.4-6.6
	c0-0.1,0.1-0.2,0.2-0.2C16.7,11.6,18.2,11.6,19.8,11.6C19.8,11.6,19.8,11.6,19.8,11.6z"/>
<path class="st1" d="M23.3,10c0-0.4,0-0.9,0-1.3c0-0.2,0-0.3,0.2-0.3c1.1-0.8,2.4-1.3,3.8-1.4c3.1-0.4,5.7,0.6,7.8,2.8
	c1.2,1.3,1.9,2.8,2.2,4.5c0.4,2.3-0.1,4.4-1.4,6.4c-1.4,2-3.3,3.3-5.8,3.8c-3.3,0.6-6-0.4-8.2-2.8c-1.2-1.2-1.8-2.7-2.1-4.4
	c-0.3-1.8,0-3.6,0.7-5.3c0.1-0.2,0.2-0.3,0.4-0.3c0.7,0,1.4,0,2.2,0c0.2,0,0.3,0,0.2-0.2C23.3,10.9,23.3,10.5,23.3,10z M35,15.7
	c0-3.6-2.8-6.6-6.5-6.6c-3.7,0-6.5,3-6.5,6.4c-0.1,3.7,2.9,6.7,6.5,6.7C32.2,22.3,35,19.2,35,15.7z"/>
<path class="st1" d="M57.3,9.7c0.5,0.2,0.9,0.6,1.1,1.1c0.6,1.3-0.3,2.8-1.8,3c-0.9,0.1-1.8,0-2.7,0.1c-0.2,0-0.2-0.1-0.2-0.2
	c0-2.4,0-4.8,0-7.2c0-0.1,0-0.2,0.1-0.2c0.9,0,1.8-0.1,2.6,0.1c1.6,0.3,1.9,1.9,1.4,2.8C57.7,9.4,57.5,9.6,57.3,9.7z M54.5,11.6
	c0,0.4,0,0.8,0,1.2c0,0.1,0,0.2,0.1,0.2c0.6,0,1.3,0.1,1.9-0.1c0.7-0.1,1.1-0.6,1.2-1.3c0-0.7-0.4-1.2-1-1.4
	c-0.7-0.2-1.4-0.1-2.1-0.1c-0.2,0-0.1,0.1-0.1,0.2C54.5,10.8,54.5,11.2,54.5,11.6z M55.3,6.9c-0.2,0-0.4,0-0.7,0
	c-0.1,0-0.2,0-0.2,0.2c0,0.7,0,1.4,0,2.1c0,0.2,0,0.2,0.2,0.2c0.5,0,1,0,1.5-0.1c0.6-0.1,1.1-0.5,1.2-1.2c0-0.5-0.4-1.1-1-1.2
	C56,6.9,55.7,6.9,55.3,6.9z"/>
<path class="st1" d="M48.7,13.9c-2,0.1-4-1.7-4-3.9c0-2.3,1.9-4,4.1-4c2,0,4,1.5,4,3.9C52.8,12.3,50.8,14,48.7,13.9z M45.5,10
	c0,1.7,1.4,3.1,3.1,3.2c1.8,0,3.3-1.4,3.3-3.1c0-1.8-1.4-3.3-3.2-3.3C46.8,6.8,45.5,8.3,45.5,10z"/>
<path class="st1" d="M53.9,23.2c-2,0-4-1.6-4-3.9c0-2.4,2-4,4.1-4c2,0.1,3.9,1.7,3.9,4C57.9,21.5,55.9,23.2,53.9,23.2z M57.1,19.3
	c0-1.7-1.3-3.2-3.1-3.2c-1.8,0-3.2,1.4-3.3,3.1c-0.1,1.8,1.4,3.2,3.1,3.3C55.6,22.5,57.1,21,57.1,19.3z"/>
<path class="st1" d="M66.1,21c-0.6,1.1-1.5,1.8-2.6,2c-2.1,0.5-4.2-0.7-4.8-2.8c-0.6-2.1,0.7-4.3,2.9-4.8c1.7-0.4,3.3,0.4,4.2,1.6
	c0.1,0.1,0.2,0.3,0.2,0.4c-0.1,0.1-0.3,0-0.4,0c-0.3,0.1-0.5-0.1-0.7-0.3c-0.5-0.6-1.2-1-2-1.1c-1.9-0.2-3.3,1.4-3.5,2.8
	c-0.2,1.7,1.1,3.3,2.7,3.6c1.2,0.2,2.1-0.3,2.9-1.2c0.1-0.2,0.3-0.2,0.5-0.2C65.7,21,65.9,21,66.1,21z"/>
<path class="st1" d="M69.9,19.2c0-1.2,0-2.4,0-3.5c0-0.2,0.1-0.3,0.3-0.3c1.2,0,2.5,0,3.7,0c0.2,0,0.3,0.1,0.3,0.3
	c0,0.6,0.1,0.5-0.5,0.5c-0.9,0-1.8,0-2.7,0c-0.2,0-0.2,0-0.2,0.2c0,0.7,0,1.5,0,2.2c0,0.2,0.1,0.2,0.3,0.2c0.9,0,1.8,0,2.7,0
	c0.2,0,0.3,0.1,0.3,0.3c0,0.5,0.1,0.5-0.5,0.5c-0.9,0-1.7,0-2.6,0c-0.2,0-0.2,0.1-0.2,0.2c0,0.8,0,1.5,0,2.3c0,0.2,0.1,0.2,0.2,0.2
	c1,0,1.9,0,2.9,0c0.2,0,0.3,0.1,0.3,0.3c0,0.5,0.1,0.5-0.4,0.5c-1.2,0-2.3,0-3.5,0c-0.2,0-0.3-0.1-0.3-0.3
	C69.9,21.6,69.9,20.4,69.9,19.2z"/>
<path class="st1" d="M59.6,10c0-1.2,0-2.4,0-3.5c0-0.2,0.1-0.3,0.3-0.3c1.2,0,2.5,0,3.7,0c0.2,0,0.2,0.1,0.2,0.3
	c0,0.5,0,0.5-0.5,0.5c-0.9,0-1.7,0-2.6,0c-0.2,0-0.3,0-0.3,0.3c0,0.7,0,1.4,0,2.1c0,0.2,0.1,0.3,0.3,0.3c0.9,0,1.8,0,2.7,0
	c0.2,0,0.3,0,0.3,0.3c0,0.5,0,0.5-0.5,0.5c-0.8,0-1.7,0-2.5,0c-0.2,0-0.3,0.1-0.2,0.2c0,0.8,0,1.5,0,2.3c0,0.2,0.1,0.2,0.2,0.2
	c0.9,0,1.9,0,2.8,0c0.2,0,0.3,0,0.3,0.3c0,0.5,0,0.5-0.5,0.5c-1.2,0-2.3,0-3.5,0c-0.2,0-0.3-0.1-0.3-0.3
	C59.6,12.4,59.6,11.2,59.6,10z"/>
<path class="st1" d="M67,13.9c-1,0-2.1-0.6-2.3-1.7c0-0.1,0-0.3-0.1-0.4c0,0,0-0.1,0-0.1c0.2-0.1,0.4,0,0.7,0c0.1,0,0.1,0.1,0.1,0.2
	c0.1,0.7,0.5,1.2,1.2,1.4c0.8,0.2,1.7-0.4,1.8-1.2c0.1-0.7-0.2-1.2-0.8-1.5c-0.3-0.2-0.7-0.3-1.1-0.4c-0.5-0.2-1-0.3-1.3-0.7
	c-0.9-1.1-0.3-2.9,1.2-3.2c1.2-0.2,2.2,0.3,2.6,1.3c0.2,0.7,0.2,0.8-0.5,0.7c-0.1,0-0.2,0-0.2-0.2c-0.1-0.8-0.7-1.2-1.4-1.2
	c-0.8,0.1-1.3,0.7-1.3,1.5c0,0.5,0.3,0.7,0.7,0.9c0.4,0.2,0.8,0.3,1.2,0.4c0.8,0.3,1.4,0.7,1.7,1.6C69.6,12.8,68.3,14,67,13.9z"/>
<path class="st1" d="M46.8,23.2c-1.3,0-2.1-0.7-2.3-2c0-0.2,0-0.3,0.3-0.3c0.5,0,0.5,0,0.6,0.4c0.2,0.7,0.8,1.1,1.5,1.1
	c0.7,0,1.3-0.5,1.5-1.2c0.2-0.7-0.2-1.3-0.9-1.6c-0.4-0.2-0.8-0.3-1.1-0.4c-0.5-0.2-0.9-0.3-1.2-0.7c-0.7-1-0.4-2.7,1.2-3.1
	c1.2-0.3,2.3,0.3,2.7,1.5c0.1,0.5,0.1,0.5-0.4,0.5c-0.3,0-0.4-0.1-0.4-0.4c-0.1-0.6-0.8-1.1-1.4-1c-0.8,0.1-1.2,0.6-1.2,1.3
	c0,0.5,0.2,0.8,0.7,1c0.4,0.2,0.9,0.3,1.3,0.4c1,0.3,1.7,1.1,1.7,2.1C49.1,22.2,48.1,23.2,46.8,23.2z"/>
<path class="st1" d="M80,10.4c0.7-1.3,1.3-2.5,2-3.8c0.2-0.3,0.3-0.4,0.7-0.4c0.4,0,0.4,0,0.2,0.4c-0.8,1.5-1.5,2.9-2.3,4.4
	c-0.1,0.2-0.2,0.5-0.2,0.8c0,0.6,0,1.2,0,1.9c0,0.2,0,0.3-0.3,0.3c-0.5,0-0.5,0-0.5-0.6c0-0.5,0-1,0-1.5c0-0.3-0.1-0.6-0.2-0.9
	c-0.8-1.4-1.5-2.9-2.3-4.3c-0.1-0.3-0.1-0.2,0.1-0.3c0.5-0.1,0.7,0.1,0.9,0.5C78.7,7.9,79.3,9.2,80,10.4z"/>
<path class="st1" d="M82.5,19.6c0.3-0.6,0.6-1.2,1-1.8c0.4-0.7,0.8-1.5,1.1-2.2c0.1-0.2,0.3-0.2,0.4-0.2c0.6,0,0.6,0,0.3,0.5
	c-0.8,1.5-1.6,3-2.4,4.5c-0.1,0.1-0.1,0.2-0.1,0.3c0,0.7,0,1.4,0,2.1c0,0.2-0.1,0.2-0.2,0.2c-0.5,0-0.5,0-0.5-0.5c0-0.4,0-0.8,0-1.1
	c0.1-0.6-0.1-1.1-0.4-1.7c-0.7-1.3-1.4-2.7-2.1-4.1c-0.1-0.2-0.1-0.2,0.2-0.3c0.5-0.1,0.7,0.1,0.9,0.5c0.5,1.2,1.2,2.3,1.7,3.5
	C82.4,19.5,82.5,19.5,82.5,19.6z"/>
<path class="st1" d="M77.5,19.6c0,1.1,0,2.1,0,3.2c0,0.2-0.1,0.3-0.3,0.3c-0.5,0-0.5,0-0.5-0.5c0-2,0-4,0-6.1c0-0.2-0.1-0.3-0.3-0.3
	c-0.4,0-0.8,0-1.2,0c-0.1,0-0.2,0-0.2-0.2c0-0.6,0-0.6,0.5-0.6c1.1,0,2.3,0,3.4,0c0.2,0,0.3,0.1,0.3,0.3c0,0.5,0.1,0.4-0.5,0.5
	c-0.3,0-0.7,0-1,0c-0.2,0-0.3,0.1-0.3,0.3C77.5,17.5,77.5,18.5,77.5,19.6z"/>
<path class="st1" d="M74.1,10.4c0-1.1,0-2.1,0-3.2c0-0.2-0.1-0.3-0.3-0.3c-0.4,0-0.8,0-1.2,0c-0.2,0-0.2,0-0.2-0.2
	c0-0.6-0.1-0.5,0.5-0.5c1.2,0,2.3,0,3.5,0c0.2,0,0.3,0.1,0.2,0.2c0,0.5,0,0.5-0.5,0.5c-0.3,0-0.6,0-0.9,0c-0.2,0-0.3,0-0.3,0.3
	c0,0.9,0,1.8,0,2.7c0,1.2,0,2.4,0,3.6c0,0.2,0,0.3-0.3,0.3c-0.5,0-0.5,0-0.5-0.5C74.1,12.3,74.1,11.3,74.1,10.4z"/>
<path class="st1" d="M70.6,10c0-1.2,0-2.3,0-3.5c0-0.2,0-0.3,0.3-0.3c0.6,0,0.5-0.1,0.5,0.5c0,2.3,0,4.5,0,6.8
	c0,0.2-0.1,0.3-0.3,0.3c-0.5,0-0.5,0-0.5-0.5C70.6,12.2,70.6,11.1,70.6,10z"/>
<path class="st1" d="M68.1,19.2c0,1.2,0,2.4,0,3.6c0,0.2-0.1,0.3-0.3,0.3c-0.5,0-0.5,0-0.5-0.5c0-2.3,0-4.6,0-6.8
	c0-0.2,0.1-0.3,0.3-0.3c0.5,0,0.5,0,0.5,0.5C68.1,17,68.1,18.1,68.1,19.2z"/>
<path class="st0" d="M1.7,32.3c0.3-0.4,0.7-0.2,1.1-0.2c0.5,0,1.1,0,1.6,0.1c0.7,0.1,1.2,0.3,1.4,1c0.2,0.7-0.1,1.3-0.6,1.6
	c-0.8,0.4-0.6,0.8-0.3,1.4c0.3,0.6,0.5,1.2,1.1,1.6c0.1,0,0.1,0.2,0.1,0.2C5.9,38,5.8,38,5.7,38c-0.6,0-1.1-0.3-1.4-0.8
	c-0.2-0.5-0.5-0.9-0.6-1.4c-0.1-0.3-0.3-0.5-0.6-0.4c-0.4,0-0.3,0.3-0.3,0.5c-0.1,0.4-0.2,0.8-0.2,1.2c0,0.2,0,0.4,0.2,0.5
	c0.1,0,0.3,0,0.2,0.2c0,0.1-0.1,0.2-0.3,0.2c-0.6,0-1.2,0-1.8,0c-0.1,0-0.2,0-0.2-0.1c0-0.1,0.1-0.2,0.2-0.2c0.6-0.1,0.6-0.5,0.7-1
	c0.2-1,0.4-2.1,0.6-3.1C2.3,33,2.5,32.4,1.7,32.3z M4.7,33.6c0-0.1,0-0.3,0-0.4c-0.1-0.4-0.4-0.7-0.8-0.7c-0.5,0-0.6,0.4-0.6,0.7
	c-0.1,0.3-0.1,0.7-0.2,1c0,0.3-0.3,0.7,0,0.8c0.3,0.2,0.8,0,1.1-0.2C4.5,34.5,4.7,34.1,4.7,33.6z"/>
<path class="st0" d="M45.1,32c0.2,0,0.3,0,0.4-0.1c1.2-0.3,1.2-0.3,0.9,1c-0.3,1.2-0.5,2.4-0.8,3.6c-0.1,0.4-0.2,0.9,0.7,0.5
	c-0.4,0.5-0.8,0.8-1.3,1.1c-0.3,0.1-0.5,0-0.5-0.3c0-0.2,0-0.4,0-0.6c-0.4,0.1-0.6,0.4-0.9,0.6c-0.3,0.2-0.7,0.6-1.1,0.3
	c-0.4-0.3-0.5-0.7-0.5-1.2c0.2-1.6,1.2-2.7,2.8-2.9c0.2,0,0.3,0,0.4-0.3c0-0.4,0.1-0.7,0.2-1C45.7,32.1,45.2,32.3,45.1,32z
	 M43.1,36.6c0,0.2,0,0.5,0.2,0.6c0.3,0.1,0.4-0.1,0.6-0.2c0.5-0.5,1.1-1,1.1-1.9c0-0.3,0.2-0.6-0.2-0.8c-0.3-0.2-0.7-0.1-0.9,0.2
	C43.3,35.1,43.3,35.8,43.1,36.6z"/>
<path class="st0" d="M28.8,32c0.3-0.1,0.6-0.1,0.8-0.2c0.7-0.1,0.7-0.1,0.6,0.6c-0.2,0.9-0.5,1.7-0.5,2.6c0.4,0.1,0.5-0.3,0.7-0.4
	c0.1-0.1,0.2-0.2,0.3-0.3c0.4-0.2,0.8-0.6,1.2-0.4c0.5,0.3,0.2,0.8,0.1,1.2c-0.1,0.4-0.1,0.9-0.3,1.3c-0.3,0.7,0,0.8,0.6,0.5
	c-0.3,0.5-0.7,0.8-1.1,1c-0.4,0.2-0.6,0-0.5-0.6c0.1-0.7,0.3-1.4,0.5-2.1c0-0.2,0.2-0.5,0-0.7c-0.3-0.2-0.4,0.1-0.6,0.3
	c-0.8,0.6-1.1,1.4-1.3,2.4c0,0.2,0,0.4-0.3,0.6c-0.2,0.1-0.4,0.3-0.6,0.1c-0.2-0.1,0-0.3,0-0.5c0.3-1.5,0.5-2.9,0.9-4.4
	C29.3,32.6,29.4,32.2,28.8,32z"/>
<path class="st0" d="M82.7,38c-0.2,0-0.3,0-0.5,0c-0.2,0-0.5,0.1-0.6-0.1c-0.1-0.2,0.3-0.2,0.4-0.3c0.3-0.4,0.1-0.9,0-1.3
	c-0.1-0.4-0.4-0.3-0.6-0.3c-0.2,0-0.4,0-0.5,0c-0.6,0-1.3,0.8-1.3,1.4c0,0.2,0.1,0.3,0.2,0.3c0.1,0.1,0.4,0,0.3,0.3
	C79.9,38,79.7,38,79.6,38c-0.4,0-0.8,0-1.2,0c-0.1,0-0.3,0-0.3-0.1c0-0.1,0.1-0.2,0.2-0.2c0.6-0.1,0.8-0.6,1-1.1
	c0.8-1.3,1.5-2.6,2.3-4c0.1-0.2,0.2-0.5,0.5-0.5c0.3,0,0.2,0.4,0.2,0.6c0.3,1.4,0.5,2.8,0.8,4.3c0,0.3,0.2,0.6,0.5,0.7
	c0.1,0,0.2,0,0.2,0.2c0,0.1-0.1,0.2-0.3,0.2C83.2,38,82.9,38,82.7,38C82.7,38,82.7,38,82.7,38z M81.5,33.6c-0.5,0.4-0.6,0.9-0.8,1.3
	c-0.1,0.2-0.3,0.4-0.1,0.5c0.3,0.1,0.7,0.1,1,0c0.3,0,0.2-0.3,0.1-0.4C81.7,34.6,81.6,34.2,81.5,33.6z"/>
<path class="st0" d="M69.6,34.8c0.1-0.1,0.1-0.2,0.2-0.2c0.3-0.3,0.7-0.7,1.2-0.6c0.4,0.1,0.1,0.7,0.2,1.1c0.4-0.2,0.7-0.6,1-0.8
	c0.3-0.2,0.6-0.6,1-0.3c0.4,0.2,0.3,0.7,0.2,1c-0.1,0.5-0.2,1-0.3,1.5c-0.2,0.7-0.1,0.7,0.6,0.5c-0.2,0.5-0.7,0.7-1.1,1
	c-0.4,0.3-0.7-0.1-0.6-0.6c0.1-0.6,0.3-1.2,0.4-1.8c0.1-0.3,0.2-0.6,0.1-1c-0.9,0.6-1.5,1.3-1.7,2.3c0,0.2-0.1,0.5-0.2,0.7
	C70.4,38,70,38,69.7,38c-0.4-0.1-0.1-0.4,0-0.5c0.1-0.7,0.3-1.4,0.5-2.1C70.3,34.7,70.3,34.6,69.6,34.8z"/>
<path class="st0" d="M37,37.9c0-0.1-0.1-0.2,0-0.2c0.7,0,0.8-0.5,0.8-1c0.2-1.2,0.5-2.3,0.7-3.5c0.1-0.5,0-0.8-0.7-0.8
	c0.1-0.1,0.2-0.2,0.2-0.2c1.2,0,2.4,0,3.6,0c0.1,0,0.3,0.1,0.3,0.2c-0.1,0.4,0.1,0.8-0.3,1.2c-0.2-0.4-0.1-0.9-0.7-1
	c-1.1-0.2-1.3-0.1-1.5,1c0,0,0,0.1,0,0.1c0.1,0.3-0.4,0.8,0,1s1.1,0.3,1.5-0.4c0,0,0.1-0.1,0.2-0.1c0,0.6-0.2,1.1-0.3,1.7
	c-0.3-0.3-0.1-0.8-0.7-0.8c-1,0-1-0.1-1.2,0.9c0,0.2-0.1,0.3-0.1,0.5c0,0.4-0.3,0.8,0.2,1.2c0.3,0.2,1.4,0,1.7-0.3
	c0.3-0.2,0.5-0.5,0.8-0.8c0.2,0.6-0.4,0.9-0.4,1.3C39.8,37.8,38.4,37.6,37,37.9z"/>
<path class="st0" d="M51.1,36.9c-0.3,0.5-0.7,0.7-1.1,1c-0.3,0.2-0.6,0.1-0.6-0.3c0-0.2,0-0.4,0.1-0.8c-0.4,0.4-0.8,0.7-1.2,1
	c-0.3,0.2-0.6,0.3-0.9,0.1c-0.2-0.2-0.3-0.5-0.2-0.9c0.1-0.6,0.2-1.1,0.4-1.7c0.2-0.6,0.1-0.8-0.5-0.5c0-0.2,0.1-0.3,0.2-0.4
	c0.4-0.3,0.8-0.8,1.2-0.5c0.4,0.2,0,0.8-0.1,1.2c-0.1,0.5-0.2,0.9-0.3,1.4c0,0.2-0.2,0.5,0.1,0.7c0.2,0.1,0.4-0.1,0.6-0.3
	c0.6-0.5,1-1.1,1.1-1.9c0-0.2,0.1-0.5,0.2-0.7c0.1-0.3,0.5-0.3,0.7-0.3c0.3,0,0.2,0.4,0.1,0.5c-0.2,0.6-0.3,1.3-0.4,1.9
	C50.3,37.1,50.3,37.2,51.1,36.9z"/>
<path class="st0" d="M97.4,38c0.2-0.9,0.4-1.7,0.6-2.6c0.1-0.6,0.1-0.6-0.6-0.6c0.3-0.5,0.8-0.9,1.3-0.9c0.6,0.1,0.1,0.7,0.3,1.1
	c0.3,0.1,0.4-0.2,0.5-0.3c0.3-0.2,0.5-0.4,0.7-0.6c0.2-0.2,0.5-0.4,0.8-0.2c0.3,0.2,0.2,0.5,0.2,0.8c-0.1,0.6-0.3,1.2-0.4,1.8
	c0,0.2-0.3,0.5,0.2,0.6c0,0,0.1,0,0.1,0.1c0,0.2-0.2,0.3-0.3,0.3c-0.3,0.1-0.4,0.5-0.8,0.4c-0.2-0.1-0.3-0.3-0.2-0.5
	c0.1-0.5,0.2-1,0.3-1.5c0.1-0.3,0.1-0.5,0.2-0.8c0-0.2,0.3-0.4,0-0.6c-0.3-0.1-0.4,0.1-0.6,0.3c-0.7,0.6-1.2,1.3-1.3,2.2
	C98.4,37.6,98.2,38.1,97.4,38z"/>
<path class="st0" d="M57.4,37c-0.3,0.3-0.7,0.6-1,0.8c-0.6,0.4-1,0.2-1.1-0.4c-0.2-1,0.1-1.9,0.9-2.6c0.7-0.7,1.5-1,2.5-0.8
	c0.3,0.1,0.4,0.2,0.3,0.5c-0.2,0.6-0.3,1.3-0.4,1.9c-0.2,0.7-0.1,0.8,0.6,0.6c-0.2,0.5-0.7,0.7-1.1,1c-0.3,0.2-0.6,0.1-0.6-0.4
	C57.4,37.4,57.5,37.2,57.4,37z M56.2,36.5c0.1,0.2-0.1,0.6,0.2,0.7c0.3,0.1,0.5-0.2,0.7-0.3c0.5-0.5,0.9-1,1-1.7
	c0-0.3,0.3-0.6-0.1-0.8c-0.4-0.2-0.7-0.1-1,0.2C56.4,35.1,56.2,35.8,56.2,36.5z"/>
<path class="st0" d="M20.9,37c-0.2,0.5-0.7,0.7-1.1,1c-0.3,0.2-0.6,0.1-0.6-0.3c0-0.2,0-0.4-0.1-0.5c-0.4,0.1-0.5,0.4-0.8,0.6
	c-0.3,0.2-0.6,0.4-0.9,0.3C17.1,37.8,17,37.4,17,37c-0.1-1.2,0.7-2.4,1.8-2.9c0.3-0.1,0.6-0.2,0.9-0.3c0.9-0.1,1.2,0.2,1,1
	c-0.1,0.5-0.2,1-0.3,1.4C20.2,37.2,20.2,37.2,20.9,37z M17.9,36.5c0,0.2-0.1,0.6,0.2,0.7c0.3,0.1,0.4-0.1,0.6-0.3c0.5-0.5,1-1,1-1.8
	c0-0.3,0.3-0.6-0.1-0.8c-0.4-0.2-0.7,0-1,0.3C18.2,35.2,18,35.8,17.9,36.5z M19.2,37C19.2,37,19.1,37,19.2,37
	C19.1,37,19.2,37,19.2,37C19.2,37,19.2,37,19.2,37C19.2,37,19.2,37,19.2,37z"/>
<path class="st0" d="M65.2,36.5c0-1.3,0.9-2.3,2.1-2.6c0.6-0.1,1.2,0.2,1.4,0.8c0.4,1.3-0.4,2.8-1.9,3.3
	C65.9,38.3,65.2,37.6,65.2,36.5z M66.1,36.4c0,0.2,0,0.5,0.1,0.7c0.1,0.3,0.2,0.5,0.5,0.5c0.3,0,0.5-0.1,0.6-0.3
	c0.4-0.8,0.6-1.5,0.4-2.4c-0.1-0.3-0.1-0.5-0.5-0.6c-0.3-0.1-0.6,0.1-0.7,0.4C66.3,35.2,66.1,35.8,66.1,36.4z"/>
<path class="st0" d="M96.8,35.3c0,1.3-1.1,2.6-2.3,2.7c-0.7,0-1.1-0.3-1.3-0.9c-0.5-1.3,0.8-3.3,2.3-3.2
	C96.5,33.9,96.9,34.4,96.8,35.3z M95.9,35.5c0-0.3,0-0.6-0.1-0.8c-0.2-0.5-0.7-0.6-1-0.2c-0.6,0.8-0.8,1.6-0.5,2.6
	c0.1,0.3,0.2,0.4,0.5,0.5c0.3,0,0.5-0.1,0.6-0.3C95.7,36.7,95.8,36.1,95.9,35.5z"/>
<path class="st0" d="M16.3,36.9c-0.5,0.5-1,1.1-1.8,1.2c-0.7,0-1-0.4-1.1-0.9c-0.3-1.4,0.6-2.9,2.1-3.2c0.5-0.1,0.9,0,1.1,0.4
	c0.2,0.4-0.1,0.7-0.4,1c-0.4,0.4-0.9,0.6-1.4,0.7c-0.3,0.1-0.6,0.2-0.5,0.6c0.1,0.4,0.3,0.7,0.8,0.7C15.5,37.3,15.8,36.9,16.3,36.9z
	 M15.7,34.7c0-0.1-0.1-0.3-0.2-0.4c-0.2-0.1-0.3,0-0.5,0.1c-0.4,0.3-0.5,0.7-0.7,1.1c0,0.2,0,0.3,0.2,0.3
	C14.9,35.9,15.7,35.2,15.7,34.7z"/>
<path class="st0" d="M9.1,37c-0.4,0.6-0.9,0.9-1.4,1c-0.8,0.2-1.5-0.4-1.5-1.3c0-1.3,0.9-2.4,2.1-2.7c0.4-0.1,0.9,0,1.1,0.4
	c0.2,0.4,0,0.8-0.4,1.1c-0.4,0.3-0.9,0.5-1.4,0.7c-0.4,0.1-0.6,0.3-0.5,0.7c0.1,0.4,0.3,0.7,0.7,0.6C8.4,37.4,8.6,37.1,9.1,37z
	 M7.6,35.8C8,35.6,8.5,35.5,8.7,35c0.1-0.2,0.1-0.5-0.2-0.7c-0.2-0.1-0.4,0-0.6,0.2c-0.3,0.3-0.4,0.7-0.5,1.1
	C7.4,35.7,7.4,35.8,7.6,35.8z"/>
<path class="st0" d="M10.8,38c-0.3,0-0.5-0.1-0.7-0.3C9.9,37.5,9.7,37.3,10,37c0.3-0.3,0.4,0,0.6,0.1c0.1,0.1,0.3,0.3,0.5,0.3
	c0.2,0,0.5,0.1,0.7-0.2c0.1-0.3,0-0.5-0.2-0.7c-0.3-0.2-0.5-0.4-0.8-0.6c-0.5-0.5-0.5-1,0-1.5c0.5-0.5,1.3-0.8,1.7-0.4
	c0.2,0.1,0.3,0.3,0.2,0.5c-0.2,0.2-0.4,0.2-0.5,0c-0.1-0.2-0.3-0.3-0.5-0.3c-0.2,0-0.4,0-0.5,0.2c-0.1,0.2,0,0.3,0.1,0.5
	c0.1,0.2,0.3,0.3,0.5,0.4c0.4,0.3,0.9,0.7,0.8,1.3C12.4,37.4,11.4,38,10.8,38z"/>
<path class="st0" d="M89.9,36.9c-0.3,0.6-0.8,0.8-1.2,1.1c-0.4,0.3-0.7,0-0.6-0.6c0.1-0.8,0.2-1.5,0.4-2.3c0.1-0.5,0.2-0.8-0.5-0.8
	c0.7-0.1,0.8-0.6,1-1c0.1-0.3,0.5-0.4,0.9-0.7c-0.1,0.5-0.1,0.8-0.2,1.1c0,0.6,0.5,0.2,0.7,0.4c0,0.2-0.2,0.3-0.3,0.2
	c-0.7-0.1-0.7,0.4-0.8,0.8c-0.1,0.5-0.2,1-0.3,1.4c0,0.2-0.1,0.4,0,0.5c0.2,0.2,0.4-0.1,0.5-0.1C89.6,37,89.7,37,89.9,36.9z"/>
<path class="st0" d="M23.3,34.7c0.3,0,0.4-0.3,0.6-0.5c0.2-0.2,0.4-0.5,0.7-0.3c0.2,0.1,0.4,0.3,0.2,0.5c-0.1,0.3-0.3,0.5-0.7,0.3
	c-0.3-0.1-0.4,0.1-0.6,0.3c-0.5,0.6-0.6,1.4-0.8,2.2c0,0.1,0,0.3-0.1,0.4C22.4,38,22.1,38,21.8,38c-0.3-0.1,0-0.3,0-0.5
	c0.1-0.7,0.3-1.4,0.4-2.1c0-0.2,0.2-0.4,0-0.6c-0.2-0.2-0.4,0.2-0.6,0.1c0.2-0.5,0.7-0.8,1.2-0.9C23.4,33.9,23.1,34.5,23.3,34.7z"/>
<path class="st0" d="M54.5,36.9c-0.4,0.6-0.8,0.9-1.4,1.1c-0.8,0.3-1.3-0.2-1.4-1c-0.2-1.3,0.9-2.8,2.2-3.1c0.3-0.1,0.6,0,0.8,0.2
	c0.2,0.2,0.2,0.4,0,0.5c-0.2,0.2-0.3,0.1-0.5,0c-0.8-0.5-1.1-0.5-1.4,0.5c-0.2,0.5-0.3,1-0.2,1.5c0.1,0.7,0.6,0.9,1.2,0.6
	C54.1,37.1,54.2,36.9,54.5,36.9z"/>
<path class="st0" d="M27.5,36.8c-0.2,0.6-0.7,0.9-1.2,1.1c-0.8,0.4-1.6-0.3-1.5-1.3c0.1-1.3,0.8-2.5,2.2-2.8c0.3-0.1,0.5,0,0.7,0.1
	c0.2,0.1,0.3,0.4,0.2,0.6c-0.1,0.3-0.3,0.2-0.5,0.1c-0.7-0.5-1.1-0.4-1.3,0.5c-0.1,0.4-0.3,0.9-0.3,1.3c0,0.3,0,0.7,0.4,0.9
	c0.3,0.1,0.7,0.1,0.9-0.2C27.1,37,27.3,36.9,27.5,36.8z"/>
<path class="st0" d="M87,37c-0.4,0.4-0.9,0.8-1.4,1c-0.6,0.2-1.2-0.3-1.3-0.9c-0.2-1.5,0.8-2.8,2.2-3.1c0.3-0.1,0.5,0,0.7,0.1
	c0.2,0.1,0.3,0.3,0.1,0.6c-0.2,0.2-0.3,0.2-0.6,0c-0.6-0.5-1-0.4-1.3,0.3c-0.3,0.6-0.3,1.2-0.2,1.8c0.1,0.5,0.5,0.7,1,0.5
	c0.2-0.1,0.5-0.3,0.7-0.4C86.9,36.9,87,37,87,37z"/>
<path class="st0" d="M59.9,34.3c0.7-0.1,0.8-0.5,1-1c0.1-0.3,0.5-0.4,0.8-0.5c0.2,0.2,0,0.3,0,0.5c-0.2,0.8-0.2,0.8,0.6,0.9
	c0,0.1-0.1,0.2-0.2,0.2c-0.8-0.1-0.9,0.4-0.9,1c-0.1,0.5-0.2,1-0.3,1.4c0,0.1,0,0.3,0,0.3c0.8,0.5-0.1,0.7-0.2,0.8
	c-0.2,0.3-0.7,0.1-0.7-0.3c0-0.8,0.3-1.5,0.4-2.3C60.5,34.9,60.8,34.3,59.9,34.3z"/>
<path class="st0" d="M64.4,37c-0.3,0.5-0.7,0.7-1.1,1c-0.4,0.2-0.6,0-0.5-0.6c0.1-0.7,0.3-1.3,0.5-2c0.1-0.4,0.2-0.8-0.7-0.4
	c0.4-0.5,0.8-0.8,1.2-0.9c0.2-0.1,0.3-0.2,0.5,0c0.1,0.1,0.1,0.3,0.1,0.5c-0.2,0.6-0.3,1.3-0.5,1.9C63.7,37.2,63.7,37.2,64.4,37z"/>
<path class="st0" d="M92.5,37c-0.3,0.5-0.8,0.7-1.1,1c-0.3,0.2-0.6,0-0.5-0.5c0.1-0.7,0.3-1.4,0.5-2.1c0.1-0.6,0.1-0.6-0.5-0.5
	c0-0.2,0.2-0.3,0.3-0.4c0.3-0.3,0.8-0.7,1.2-0.4c0.3,0.2,0,0.7,0,1c-0.1,0.5-0.2,0.9-0.3,1.4c-0.1,0.2-0.2,0.5,0,0.6
	C92.1,37.2,92.2,36.9,92.5,37z"/>
<path class="st0" d="M99.7,37.8c0,0.3-0.1,0.4-0.4,0.4c-0.2,0-0.3-0.2-0.3-0.4c0-0.2,0.1-0.3,0.4-0.3C99.6,37.6,99.8,37.6,99.7,37.8
	z"/>
<path class="st0" d="M83.8,37.9c-0.1,0.1-0.1,0.4-0.4,0.4c-0.2,0-0.3-0.2-0.3-0.3c0-0.2,0.1-0.3,0.3-0.4
	C83.7,37.5,83.7,37.7,83.8,37.9z"/>
<path class="st0" d="M60.1,37.9C60,38,60,38.3,59.7,38.2c-0.2,0-0.3-0.2-0.3-0.4c0-0.2,0.1-0.3,0.3-0.3C60,37.6,60.1,37.7,60.1,37.9
	z"/>
<path class="st1" d="M61.8,38.2c0.8-0.1,1.6,0,2.4-0.1c0,0.1-0.1,0.1-0.1,0.1C63.3,38.2,62.6,38.2,61.8,38.2
	C61.8,38.2,61.8,38.2,61.8,38.2z"/>
<path class="st0" d="M77.7,35c-0.2,0-0.3-0.1-0.3-0.2c0-0.2,0.1-0.3,0.3-0.3c0.1,0,0.3,0,0.3,0.2C78,34.8,77.9,34.9,77.7,35z"/>
<path class="st0" d="M94.1,34.6c0,0.2-0.1,0.3-0.3,0.3c-0.2,0-0.3-0.1-0.3-0.2c0-0.2,0.1-0.3,0.3-0.3C94,34.4,94.1,34.5,94.1,34.6z"
	/>
</svg>
