<?xml version="1.0" encoding="utf-8"?>
<!-- Generator: Adobe Illustrator 21.0.0, SVG Export Plug-In . SVG Version: 6.00 Build 0)  -->
<svg version="1.1" id="Layer_1" xmlns="http://www.w3.org/2000/svg" xmlns:xlink="http://www.w3.org/1999/xlink" x="0px" y="0px"
	 viewBox="0 0 68 47" style="enable-background:new 0 0 68 47;" xml:space="preserve">
<style type="text/css">
	.st0{fill:#98012C;}
	.st1{fill:#630618;}
	.st2{fill:#FEFEFE;}
</style>
<g>
	<ellipse class="st0" cx="33.8" cy="17.5" rx="24.6" ry="13.4"/>
	<path class="st1" d="M33.7,32c-1,0-2.5-0.1-3.9-0.2c-1.9-0.2-3.9-0.5-5.8-0.9c-1.5-0.3-3-0.8-4.5-1.3c-0.9-0.3-1.8-0.7-2.6-1.1
		c-0.9-0.4-1.8-0.9-2.6-1.4c-0.6-0.4-1.2-0.8-1.8-1.3c-0.6-0.5-1.2-1-1.7-1.5C10,23.6,9.4,22.8,8.9,22c-0.4-0.6-0.6-1.3-0.9-2
		c-0.4-1-0.4-2.1-0.4-3.1c0-0.5,0.1-1.1,0.3-1.6c0.2-0.7,0.5-1.4,0.8-2c0.3-0.5,0.5-0.9,0.9-1.3c0.5-0.7,1.1-1.3,1.7-1.9
		c0.6-0.5,1.1-1,1.8-1.4c0.6-0.4,1.2-0.8,1.8-1.1c0.9-0.5,1.7-0.9,2.6-1.3C19,5.6,20.5,5.1,22,4.6c1.5-0.4,2.9-0.7,4.5-1
		c1.4-0.2,2.8-0.4,4.2-0.5C32.3,3,34,3,35.6,3.1c1.6,0,3.3,0.2,4.9,0.4c1.8,0.2,3.6,0.6,5.3,1.1c1.2,0.3,2.4,0.7,3.6,1.2
		c0.9,0.4,1.8,0.7,2.7,1.2c0.9,0.5,1.8,0.9,2.6,1.5c0.6,0.4,1.2,0.9,1.8,1.4c0.6,0.5,1.2,1.1,1.7,1.7c0.3,0.4,0.6,0.8,0.9,1.3
		c0.4,0.5,0.6,1.1,0.9,1.7c0.5,1.2,0.6,2.4,0.6,3.6c0,0.7-0.2,1.5-0.5,2.2c-0.2,0.6-0.5,1.2-0.8,1.7c-0.5,0.8-1.1,1.6-1.8,2.3
		c-0.5,0.5-1.1,1-1.7,1.5c-0.9,0.7-1.8,1.3-2.8,1.8c-0.5,0.3-1,0.5-1.5,0.8c-1.6,0.8-3.3,1.4-5,1.9c-1.7,0.5-3.3,0.9-5,1.1
		c-1.3,0.2-2.6,0.4-3.9,0.4C36.5,31.9,35.3,32,33.7,32z M34.2,5.2c-0.9,0-1.8,0-2.6,0.1c-0.5,0-0.9,0-1.4,0.1
		c-0.8,0.1-1.6,0.2-2.4,0.3C27,5.7,26.2,5.9,25.5,6c-0.9,0.2-1.7,0.4-2.6,0.6c-1.1,0.3-2.2,0.7-3.3,1.1c-1,0.4-2,0.9-2.9,1.4
		c-0.8,0.4-1.5,0.9-2.2,1.5c-0.8,0.6-1.5,1.3-2.2,2c-0.3,0.4-0.6,0.8-0.9,1.2c-0.4,0.6-0.6,1.2-0.8,1.9c-0.1,0.4-0.2,0.8-0.2,1.3
		c0,0.8,0,1.6,0.3,2.4c0.3,0.7,0.5,1.4,1,2c0.5,0.7,1.1,1.4,1.7,2c0.8,0.8,1.7,1.4,2.7,2c0.5,0.3,1.1,0.6,1.6,0.9
		c1,0.5,1.9,0.9,2.9,1.3c0.8,0.3,1.5,0.5,2.3,0.7c1.1,0.3,2.1,0.5,3.2,0.8c0.8,0.2,1.6,0.3,2.5,0.4c0.9,0.1,1.8,0.2,2.7,0.3
		c0.7,0.1,1.5,0.1,2.2,0.1c0.7,0,1.4,0,2.1,0c0.3,0,0.7,0,1,0c0.9-0.1,1.8-0.1,2.6-0.2c0.8-0.1,1.7-0.2,2.5-0.4
		c1.2-0.2,2.3-0.5,3.4-0.8c1.3-0.3,2.5-0.8,3.7-1.2c0.7-0.3,1.4-0.6,2.1-1c0.5-0.3,1-0.5,1.5-0.9c0.6-0.4,1.1-0.7,1.7-1.2
		c0.6-0.5,1.2-1,1.8-1.6c0.3-0.4,0.6-0.7,0.9-1.1c0.4-0.5,0.6-1.2,0.9-1.8c0.2-0.5,0.3-1,0.3-1.6c0-0.5,0-1,0-1.5
		c-0.1-0.6-0.3-1.2-0.5-1.8c-0.2-0.3-0.3-0.7-0.5-1c-0.4-0.6-0.8-1.1-1.3-1.7c-0.5-0.5-1.1-1-1.7-1.5c-0.6-0.5-1.2-0.9-1.8-1.2
		c-1.2-0.7-2.5-1.4-3.9-1.9c-1-0.4-2.1-0.7-3.2-1c-1.1-0.3-2.2-0.6-3.4-0.8c-1-0.2-2-0.3-3-0.4c-0.8-0.1-1.7-0.2-2.5-0.2
		C35.5,5.2,34.8,5.1,34.2,5.2z"/>
	<path class="st0" d="M23.3,32.3c-0.4,0-0.7-0.1-1.1-0.2c-1.8-0.4-3.6-0.9-5.3-1.6c-0.8-0.3-1.6-0.7-2.4-1.1c-1-0.5-2-1.1-2.9-1.7
		c-0.6-0.4-1.2-0.9-1.7-1.3c-0.7-0.6-1.2-1.2-1.8-1.9c-0.3-0.4-0.6-0.8-0.9-1.2c-0.4-0.6-0.7-1.2-1-1.8c-0.6-1.3-0.8-2.7-0.8-4.1
		c0-1.3,0.2-2.5,0.7-3.7c0.3-0.6,0.5-1.3,0.9-1.8c0.3-0.4,0.5-0.8,0.9-1.2C8.4,10,9,9.4,9.6,8.8c0.6-0.5,1.1-1,1.7-1.4
		C12,7,12.5,6.6,13.1,6.2c1.2-0.7,2.4-1.3,3.6-1.9c0.8-0.4,1.6-0.7,2.5-1c1.6-0.5,3.2-1,4.9-1.4c1.4-0.3,2.8-0.5,4.2-0.7
		C29.8,1.1,31.3,1,32.8,1c1.2,0,2.4,0,3.7,0c1.4,0.1,2.7,0.2,4.1,0.4c1.5,0.2,3.1,0.5,4.6,0.8c0.8,0.2,1.7,0.4,2.5,0.7
		c1.2,0.4,2.4,0.8,3.6,1.3C52.1,4.6,53,5,53.9,5.4c0.9,0.5,1.8,1,2.7,1.6c0.6,0.4,1.1,0.8,1.7,1.3c0.7,0.6,1.3,1.2,1.9,1.9
		c0.3,0.4,0.6,0.8,0.9,1.1c0.4,0.5,0.6,1,0.9,1.5c0.5,0.8,0.7,1.7,0.9,2.5c0.2,0.7,0.2,1.3,0.2,2c0,0.6,0,1.2-0.2,1.8
		c-0.2,0.9-0.4,1.7-0.8,2.5c-0.3,0.5-0.5,1.1-0.9,1.6c-0.5,0.7-1.1,1.5-1.8,2.1c-0.5,0.6-1.1,1.1-1.7,1.5c-0.9,0.7-1.7,1.3-2.7,1.8
		c-0.8,0.5-1.6,0.9-2.5,1.2c-1.6,0.7-3.4,1.3-5.1,1.7c-0.7,0.2-1.4,0.3-2.1,0.5c0,0-0.1,0-0.2,0c1.2-0.4,2.4-0.8,3.5-1.2
		c0.9-0.4,1.8-0.7,2.7-1.2c0.9-0.4,1.8-0.9,2.7-1.4c0.6-0.4,1.2-0.7,1.8-1.2c0.6-0.5,1.2-0.9,1.8-1.5c0.6-0.6,1.2-1.2,1.7-1.8
		c0.3-0.4,0.6-0.9,0.9-1.3c0.4-0.6,0.6-1.2,0.9-1.8c0.4-1,0.6-2,0.6-3c0.1-1.2-0.1-2.5-0.5-3.6c-0.2-0.7-0.5-1.3-0.9-1.9
		c-0.2-0.4-0.5-0.8-0.8-1.1c-0.6-0.8-1.4-1.5-2.1-2.2c-0.5-0.4-1-0.8-1.5-1.1c-1.1-0.8-2.3-1.5-3.5-2.1c-0.9-0.4-1.7-0.8-2.6-1.1
		c-1.7-0.7-3.5-1.2-5.4-1.6c-1.2-0.3-2.3-0.5-3.5-0.6c-1.2-0.2-2.4-0.3-3.7-0.4c-1.6-0.1-3.2-0.1-4.9-0.1c-1.6,0.1-3.2,0.2-4.8,0.4
		c-1.8,0.3-3.6,0.6-5.3,1.1C21,4,19.8,4.3,18.7,4.8c-1.2,0.5-2.4,1-3.6,1.6c-0.9,0.5-1.8,1-2.7,1.6c-0.6,0.4-1.2,0.9-1.8,1.4
		C10,10,9.5,10.6,8.9,11.3c-0.3,0.4-0.6,0.8-0.9,1.3c-0.4,0.6-0.6,1.2-0.9,1.8c-0.4,1.1-0.6,2.2-0.5,3.3c0,0.8,0.1,1.7,0.4,2.5
		c0.2,0.7,0.5,1.4,0.9,2c0.3,0.5,0.5,0.9,0.9,1.4c0.5,0.7,1.1,1.4,1.8,2c0.5,0.5,1.1,1,1.7,1.5c0.9,0.6,1.7,1.2,2.7,1.8
		c0.9,0.5,1.7,0.9,2.6,1.3c1.2,0.5,2.4,1,3.6,1.4C21.8,31.8,22.5,32.1,23.3,32.3z"/>
	<path class="st1" d="M3.8,44c0,0.2,0,0.5,0,0.7c0,0.1,0,0.2-0.1,0.2c-0.7,0.2-1.4,0.2-2,0c-1-0.3-1.4-1.1-1.1-2.1
		c0.2-0.5,0.6-0.8,1.1-0.9c0.6-0.2,1.2-0.2,1.8,0c0.1,0,0.2,0.1,0.2,0.2c-0.1,0.4-0.1,0.4-0.5,0.3c-0.5-0.1-1-0.1-1.4,0.2
		c-0.2,0.1-0.3,0.3-0.3,0.5c-0.2,0.6,0.2,1.2,0.9,1.3c0.2,0,0.4,0,0.6,0c0.1,0,0.2-0.1,0.1-0.2c0,0,0,0,0-0.1c0-0.2,0-0.4,0-0.5
		c-0.1-0.1-0.3,0-0.4,0c-0.1,0-0.1,0-0.1-0.1c0-0.4,0-0.4,0.4-0.4c0.3,0,0.6,0,0.9,0c0.1,0,0.1,0,0.1,0.1C3.8,43.6,3.8,43.8,3.8,44z
		"/>
	<path class="st1" d="M49.1,44.7c-0.6,0.5-1.3,0.5-1.7,0.1c-0.4-0.4-0.4-1.2-0.1-1.6c0.3-0.4,1.2-0.6,1.7-0.2c0-0.4,0-0.7,0-1.1
		c0-0.1,0-0.2,0.2-0.2c0.2,0,0.5-0.1,0.6,0c0.1,0.1,0,0.4,0,0.6c0,0.8,0,1.7,0,2.5c0,0.1,0,0.1-0.1,0.1c-0.1,0-0.2,0-0.3,0
		C49.2,45,49.1,45,49.1,44.7z M49,43.9c0-0.4-0.2-0.6-0.5-0.6c-0.4,0-0.6,0.2-0.6,0.6c0,0.4,0.2,0.6,0.6,0.6
		C48.9,44.5,49,44.3,49,43.9z"/>
	<path class="st1" d="M62.5,43c0.7-0.5,1.5-0.4,1.8,0c0.4,0.4,0.4,1.2,0,1.6c-0.4,0.5-1.1,0.5-1.7,0.2c0,0.3,0,0.6,0,1
		c0,0.1,0,0.2-0.1,0.2c-0.2,0-0.4,0-0.6,0c-0.1,0-0.1,0-0.1-0.1c0-1,0-2,0-2.9c0-0.1,0-0.1,0.1-0.1c0.1,0,0.2,0,0.3,0
		C62.3,42.7,62.5,42.7,62.5,43z M62.6,43.9c0,0.4,0.1,0.6,0.5,0.6c0.3,0,0.5-0.2,0.5-0.6s-0.2-0.6-0.5-0.6
		C62.7,43.3,62.5,43.4,62.6,43.9z"/>
	<path class="st1" d="M41.1,43.4c0-0.5,0-0.9,0-1.4c0-0.1,0-0.2,0.2-0.2c0.7,0,1.3,0,2,0c0.1,0,0.2,0,0.2,0.2c0,0.4,0,0.4-0.4,0.4
		c-0.3,0-0.6,0-0.9,0c-0.1,0-0.1,0-0.1,0.1c0,0.5,0,0.5,0.5,0.5c0.3,0,0.5,0,0.8,0c0.1,0,0.1,0,0.1,0.1c0,0.4,0,0.4-0.4,0.4
		c-0.3,0-0.6,0-0.8,0c-0.1,0-0.2,0-0.1,0.1c0,0.2-0.1,0.4,0,0.5c0.1,0.1,0.4,0,0.5,0c0.3,0,0.6,0,0.9,0c0.1,0,0.1,0,0.1,0.1
		c0,0.5,0,0.5-0.4,0.5c-0.6,0-1.2,0-1.8,0c-0.2,0-0.2-0.1-0.2-0.2C41.1,44.3,41.1,43.9,41.1,43.4z"/>
	<path class="st1" d="M66.1,44.3c0-0.1,0-0.1,0.1-0.1c0.1-0.4,0.3-0.8,0.4-1.3c0-0.1,0.1-0.1,0.2-0.1c0.3,0,0.5,0,0.8,0
		c-0.1,0.2-0.2,0.4-0.3,0.6c-0.1,0.2-0.2,0.5-0.3,0.7c-0.1,0.2-0.2,0.5-0.3,0.7c-0.1,0.3-0.3,0.5-0.5,0.8c-0.2,0.3-0.5,0.4-0.9,0.5
		c-0.1,0-0.2,0-0.2-0.1c0-0.1-0.1-0.3-0.1-0.4c0-0.1,0.2-0.1,0.3-0.2c0.1,0,0.1-0.1,0.2-0.1c0.2-0.1,0.3-0.3,0.1-0.5
		c-0.3-0.6-0.6-1.2-0.8-1.8c0-0.1-0.1-0.2-0.1-0.2c0.3,0,0.6,0,0.8,0c0.1,0,0.1,0.1,0.2,0.1C65.8,43.3,66,43.8,66.1,44.3z"/>
	<path class="st1" d="M12.8,38.3c0-0.3,0-0.7,0-1c0-0.1,0-0.1,0.1-0.1c0.3,0,0.3,0,0.3,0.3c0,0,0,0.1,0,0.1c0.1,0,0.1,0,0.1-0.1
		c0.3-0.3,0.7-0.4,1.1-0.3c0.2,0,0.3,0.1,0.4,0.3c0.1,0.1,0.1,0.1,0.2,0c0.2-0.3,0.6-0.3,0.9-0.3c0.4,0,0.9,0.4,0.9,0.8
		c0,0.5,0,0.9,0,1.4c0,0.1,0,0.1-0.1,0.1c-0.4,0-0.4,0-0.4-0.4c0-0.3,0-0.6,0-1c0-0.4-0.2-0.6-0.6-0.6c-0.4,0-0.6,0.3-0.6,0.7
		c0,0.4,0,0.8,0,1.2c0,0.1,0,0.2-0.2,0.2c-0.4,0-0.4,0-0.4-0.4c0-0.3,0-0.6,0-1c0-0.5-0.2-0.7-0.6-0.7c-0.4,0-0.6,0.3-0.6,0.7
		c0,0.4,0,0.7,0,1.1c0,0.1,0,0.2-0.2,0.2c-0.3,0-0.3,0-0.3-0.4C12.8,38.8,12.8,38.5,12.8,38.3C12.8,38.3,12.8,38.3,12.8,38.3z"/>
	<path class="st1" d="M59.8,45.1c-0.3,0-0.6-0.1-0.8-0.2c-0.3-0.2-0.6-0.8-0.6-1.1c0.1-0.4,0.3-0.8,0.7-0.9c0.4-0.2,0.9-0.2,1.3,0
		c0.6,0.3,1,0.7,0.8,1.4c-0.1,0.5-0.5,0.7-1,0.8C60.1,45,59.9,45.1,59.8,45.1z M60.4,43.9c0-0.1,0-0.3-0.1-0.4
		c-0.1-0.3-0.5-0.4-0.7-0.2c-0.2,0.1-0.3,0.4-0.3,0.6c0,0.2,0.1,0.5,0.3,0.6c0.1,0.1,0.3,0.1,0.5,0C60.3,44.4,60.4,44.2,60.4,43.9z"
		/>
	<path class="st1" d="M15,42.7c0.3,0,0.6,0.1,0.9,0.2c0.4,0.2,0.5,0.6,0.5,1c0,0.4-0.2,0.7-0.6,0.9c-0.6,0.3-1.1,0.3-1.7,0
		c-0.4-0.2-0.5-0.5-0.6-0.9c0-0.4,0.1-0.8,0.5-1C14.4,42.8,14.7,42.7,15,42.7z M15.5,43.9c0-0.4-0.2-0.6-0.4-0.7
		c-0.3-0.1-0.6,0.1-0.7,0.5c-0.1,0.4,0.1,0.8,0.5,0.8C15.3,44.6,15.6,44.3,15.5,43.9z"/>
	<path class="st1" d="M51.9,42.7c0.5,0,0.9,0.2,1.2,0.6c0.2,0.3,0.1,0.9-0.1,1.1c-0.5,0.6-1.1,0.7-1.8,0.5c-0.5-0.1-1-0.7-0.9-1.2
		c0-0.4,0.4-0.9,0.9-1C51.4,42.7,51.6,42.7,51.9,42.7z M51.2,43.9c0,0.1,0,0.1,0,0.2c0.1,0.4,0.5,0.7,0.9,0.3c0.2-0.2,0.3-0.8,0.1-1
		c-0.2-0.2-0.6-0.3-0.8-0.1C51.3,43.5,51.2,43.6,51.2,43.9z"/>
	<path class="st1" d="M44.7,43.1c0.4-0.4,0.8-0.4,1.3-0.3c0.3,0.1,0.6,0.4,0.6,0.8c0,0.5,0,0.9,0,1.4c0,0.1,0,0.1-0.1,0.1
		c-0.2,0-0.4,0-0.6,0c-0.1,0-0.1,0-0.1-0.1c0-0.4,0-0.7,0-1.1c0-0.4-0.3-0.6-0.7-0.4c-0.2,0.1-0.3,0.2-0.3,0.4c0,0.4,0,0.8,0,1.2
		c0,0.1,0,0.1-0.1,0.1c-0.2,0-0.4,0-0.6,0C44,45,44,45,44,44.9c0-0.7,0-1.3,0-2c0-0.1,0-0.1,0.1-0.1c0.1,0,0.2,0,0.3,0
		C44.6,42.7,44.8,42.7,44.7,43.1z"/>
	<path class="st1" d="M33.1,43.1c0.4-0.3,0.8-0.4,1.3-0.3c0.4,0.1,0.6,0.4,0.6,0.8c0,0.5,0,0.9,0,1.4c0,0.1,0,0.1-0.1,0.1
		c-0.2,0-0.4,0-0.6,0c-0.1,0-0.1,0-0.1-0.1c0-0.4,0-0.7,0-1.1c0-0.4-0.2-0.5-0.5-0.5c-0.3,0-0.4,0.2-0.4,0.4c0,0.4,0,0.8,0,1.1
		c0,0.1,0,0.2-0.1,0.2c-0.2,0-0.4,0-0.6,0c-0.1,0-0.1,0-0.1-0.1c0-0.7,0-1.3,0-2c0-0.1,0-0.1,0.1-0.1c0.1,0,0.2,0,0.3,0
		C33,42.7,33.2,42.7,33.1,43.1z"/>
	<path class="st1" d="M19.2,43c0.3-0.3,0.7-0.4,1.1-0.3c0.5,0.1,0.7,0.4,0.8,0.8c0,0.4,0,0.9,0,1.3c0,0.1,0,0.1-0.1,0.1
		c-0.2,0-0.5,0.1-0.7,0c-0.1-0.1,0-0.4,0-0.6c0-0.2,0-0.4,0-0.6c0-0.3-0.2-0.5-0.5-0.4c-0.3,0-0.5,0.2-0.5,0.5c0,0.4,0,0.7,0,1.1
		c0,0.1,0,0.2-0.2,0.2c-0.2,0-0.5,0.1-0.6,0c-0.1-0.1,0-0.4,0-0.6c0-0.5,0-1,0-1.5c0-0.1,0-0.2,0.1-0.2c0.1,0,0.2,0,0.3,0
		C19.1,42.7,19.1,42.7,19.2,43z"/>
	<path class="st1" d="M5.9,44.8c-0.4,0.3-0.7,0.4-1.1,0.2c-0.5-0.2-0.7-0.5-0.5-0.9c0.1-0.2,0.3-0.4,0.5-0.5
		c0.3-0.1,0.6-0.2,0.9-0.2c0,0,0.1,0,0.1,0c0-0.1,0-0.1-0.1-0.2c-0.1-0.1-0.2-0.1-0.2-0.1c-0.3,0-0.5,0-0.8,0.1
		c-0.1,0-0.2,0-0.2-0.1c-0.1-0.3-0.1-0.3,0.2-0.4c0.4-0.1,0.8-0.1,1.2,0c0.5,0.1,0.7,0.4,0.7,0.9c0,0.4,0,0.9,0,1.3
		c0,0.1,0,0.1-0.1,0.1c-0.1,0-0.3,0-0.4,0C6,45,5.9,45,5.9,44.8z M5.7,43.9c-0.1,0-0.2,0-0.3,0c-0.1,0-0.1,0-0.2,0.1
		C5,44.1,5,44.4,5.2,44.5c0.1,0.1,0.3,0.1,0.5,0c0.2-0.1,0.2-0.2,0.2-0.4C5.9,44,5.8,43.9,5.7,43.9z"/>
	<path class="st1" d="M25.1,44.1c-0.2,0-0.5,0-0.7,0c-0.1,0-0.1,0-0.1,0c0,0.1,0,0.1,0.1,0.2c0.1,0.1,0.3,0.2,0.4,0.2
		c0.3,0,0.5,0,0.8,0c0.2,0,0.2,0,0.3,0.2c0,0.3,0.1,0.3-0.2,0.3c-0.5,0.1-0.9,0.1-1.4,0c-0.8-0.3-1.1-1.3-0.5-1.9
		c0.5-0.5,1.2-0.5,1.7-0.2c0.4,0.2,0.6,0.7,0.6,1.1c0,0.1-0.1,0.1-0.2,0.1C25.6,44.1,25.4,44.1,25.1,44.1z M24.7,43.6
		c0.1,0,0.3,0,0.4,0c0.1,0,0.1,0,0.1-0.1c0-0.2-0.2-0.3-0.5-0.3c-0.2,0-0.4,0.1-0.5,0.3c0,0.1,0,0.1,0.1,0.1
		C24.5,43.6,24.6,43.6,24.7,43.6z"/>
	<path class="st1" d="M37.9,44.3c0,0.2,0,0.4,0,0.6c0,0.1,0,0.1-0.1,0.1c-0.2,0-0.3,0-0.5,0c-0.1,0-0.2,0-0.2-0.1
		c0-0.1-0.1-0.1-0.2,0c-0.3,0.2-0.6,0.3-1,0.2c-0.3-0.1-0.5-0.3-0.5-0.6c0-0.3,0.1-0.5,0.4-0.7c0.3-0.2,0.7-0.2,1.1-0.2
		c0,0,0.1,0,0.1,0c0-0.1,0-0.1-0.1-0.2c-0.1-0.1-0.1-0.1-0.2-0.1c-0.3,0-0.5,0-0.8,0.1c-0.1,0-0.2,0-0.2-0.1
		c-0.1-0.3-0.1-0.3,0.2-0.4c0.4-0.1,0.8-0.1,1.2,0c0.4,0.1,0.7,0.4,0.7,0.9C37.9,43.8,37.9,44,37.9,44.3
		C37.9,44.3,37.9,44.3,37.9,44.3z M36.9,43.9c-0.2,0-0.3,0-0.5,0.1c-0.1,0.1-0.2,0.2-0.1,0.3c0,0.1,0.1,0.2,0.2,0.2
		c0.3,0,0.5-0.1,0.5-0.4C37.1,44,37,43.9,36.9,43.9z"/>
	<path class="st1" d="M12.2,39.4C12.2,39.4,12.2,39.4,12.2,39.4c-0.5,0-0.5,0-0.7-0.4c-0.1-0.2-0.2-0.3-0.2-0.5
		c0-0.1-0.1-0.1-0.2-0.1c-0.4,0-0.8,0-1.2,0c-0.1,0-0.1,0-0.2,0.1c-0.1,0.2-0.2,0.4-0.3,0.7c0,0.2-0.1,0.2-0.3,0.2
		c-0.1,0-0.2,0-0.2,0c0-0.1,0-0.1,0-0.2c0.2-0.5,0.4-1,0.6-1.5c0.2-0.4,0.4-0.9,0.6-1.3c0-0.1,0.1-0.1,0.2-0.1c0,0,0,0,0,0
		c0.5,0,0.5,0,0.7,0.5c0.3,0.9,0.8,1.7,1.1,2.5C12.2,39.3,12.2,39.3,12.2,39.4z M11.1,38.1c-0.2-0.5-0.4-1-0.6-1.5
		c-0.1,0.3-0.2,0.5-0.3,0.7c-0.1,0.2-0.2,0.4-0.3,0.7c0,0.1-0.1,0.1,0.1,0.1C10.4,38.1,10.8,38.1,11.1,38.1z"/>
	<path class="st1" d="M22.6,45.1c-0.1,0-0.2,0-0.4,0c-0.4-0.1-0.6-0.3-0.6-0.7c0-0.3,0-0.6,0-0.9c0-0.1,0-0.2-0.2-0.2
		c-0.1,0-0.2,0-0.2-0.2c0-0.1,0-0.1,0-0.2c0-0.1,0-0.2,0.2-0.1c0.2,0,0.2,0,0.2-0.2c0-0.3,0-0.3,0.3-0.4c0.1,0,0.2,0,0.3,0
		c0.3-0.1,0.3-0.1,0.3,0.2c0,0.4,0,0.4,0.4,0.4c0.1,0,0.2-0.1,0.2,0c0,0.1,0,0.3,0,0.4c0,0.1-0.1,0-0.2,0c-0.4,0-0.4,0-0.4,0.4
		c0,0.1,0,0.3,0,0.4c0,0.3,0.1,0.4,0.4,0.4c0.2,0,0.2,0,0.2,0.2C23.1,45,23.1,45,22.6,45.1z"/>
	<path class="st1" d="M29.8,42.1c0,0.2,0,0.3,0,0.4c0,0.2,0.1,0.2,0.2,0.2c0,0,0.1,0,0.1,0c0.3,0,0.3,0,0.3,0.3
		c0,0.2-0.1,0.3-0.3,0.3c-0.4,0-0.4,0-0.4,0.4c0,0.2,0,0.3,0,0.5c0,0.3,0.1,0.4,0.4,0.4c0.2,0,0.2,0,0.2,0.2c0,0.4,0,0.4-0.4,0.4
		c-0.3,0-0.5,0-0.7-0.1c-0.3-0.1-0.3-0.4-0.3-0.6c0-0.3,0-0.6,0-0.9c0-0.1,0-0.2-0.1-0.2c-0.2,0-0.2,0-0.2-0.2c0-0.1,0-0.1,0-0.2
		c0-0.1,0-0.2,0.1-0.1c0.2,0,0.2-0.1,0.2-0.2c0,0,0-0.1,0-0.1c0-0.1,0-0.2,0.1-0.2C29.4,42.2,29.6,42.1,29.8,42.1z"/>
	<path class="st1" d="M10.7,45.1c-0.6,0-0.9-0.3-0.9-0.9c0-0.2,0-0.5,0-0.7c0-0.1,0-0.2-0.2-0.2c-0.2,0-0.3,0-0.2-0.2
		c0,0,0-0.1,0-0.1c0-0.1,0-0.2,0.2-0.2c0.2,0,0.3,0,0.2-0.2c0-0.2,0-0.3,0.3-0.3c0.1,0,0.3-0.1,0.4-0.1c0.1,0,0.2,0,0.1,0.1
		c0,0.1,0,0.2,0,0.3c0,0.2,0,0.2,0.2,0.2c0,0,0.1,0,0.1,0c0.3,0,0.3,0,0.3,0.3c0,0.2,0,0.3-0.2,0.3c-0.3,0-0.3,0-0.3,0.3
		c0,0.2,0,0.3,0,0.5c0,0.3,0.1,0.4,0.4,0.3c0.2,0,0.2,0,0.2,0.2c0,0.4,0,0.4-0.4,0.4C10.8,45.1,10.8,45.1,10.7,45.1z"/>
	<path class="st1" d="M27.2,45.1c-0.2,0-0.5,0-0.7-0.1c-0.1,0-0.2-0.1-0.1-0.2c0.1-0.4,0.1-0.4,0.4-0.3c0.2,0.1,0.4,0.1,0.6,0
		c0.1,0,0.2,0,0.2-0.2c0-0.1-0.1-0.2-0.2-0.2c-0.3-0.1-0.6-0.2-0.9-0.4c-0.2-0.2-0.2-0.5,0-0.7c0.4-0.4,0.8-0.4,1.3-0.3
		c0,0,0.1,0,0.1,0c0.4,0.1,0.4,0.1,0.3,0.4c0,0.1-0.1,0.2-0.2,0.1c-0.2-0.1-0.4-0.1-0.6-0.1c-0.1,0-0.2,0.1-0.2,0.2
		c0,0.1,0.1,0.1,0.1,0.2c0.2,0.1,0.3,0.1,0.5,0.1c0.2,0.1,0.4,0.2,0.5,0.3c0.2,0.1,0.1,0.5,0,0.7C28,45,27.6,45.1,27.2,45.1z"/>
	<path class="st1" d="M54.5,45.1c-0.3,0-0.5,0-0.8-0.1c-0.1,0-0.2-0.1-0.1-0.2c0.1-0.3,0.1-0.3,0.4-0.3c0.2,0,0.4,0.1,0.6,0.1
		c0.1,0,0.2,0,0.2-0.2c0-0.1-0.1-0.2-0.2-0.2c-0.2-0.1-0.4-0.1-0.6-0.2c-0.2-0.1-0.4-0.3-0.4-0.5c0-0.3,0.1-0.5,0.4-0.6
		c0.4-0.2,0.9-0.2,1.4-0.1c0.1,0,0.2,0.1,0.1,0.2c0,0,0,0.1,0,0.1c0,0.2-0.1,0.3-0.3,0.2c-0.1-0.1-0.3-0.1-0.5,0
		c-0.1,0-0.2,0-0.2,0.1c0,0.1,0.1,0.2,0.1,0.2c0.1,0,0.3,0.1,0.4,0.1c0,0,0.1,0,0.1,0c0.4,0.1,0.6,0.4,0.6,0.7
		c0,0.3-0.3,0.6-0.7,0.6C54.8,45,54.6,45.1,54.5,45.1z"/>
	<path class="st1" d="M8,45.1c-0.2,0-0.5,0-0.7-0.1c-0.1,0-0.1-0.1-0.1-0.2c0.1-0.3,0.1-0.3,0.4-0.3c0.2,0,0.4,0.1,0.6,0
		c0.1,0,0.2,0,0.2-0.2c0-0.1-0.1-0.2-0.2-0.2c-0.1,0-0.2-0.1-0.3-0.1c-0.1,0-0.1,0-0.2,0c-0.4-0.2-0.5-0.4-0.5-0.6
		c0-0.3,0.3-0.6,0.6-0.6c0.4-0.1,0.7-0.1,1.1,0c0.1,0,0.2,0.1,0.1,0.2c0,0,0,0,0,0.1c0,0.2-0.1,0.3-0.3,0.2c-0.2-0.1-0.3-0.1-0.5,0
		c-0.1,0-0.2,0.1-0.2,0.2c0,0.1,0.1,0.1,0.1,0.2c0.2,0.1,0.4,0.2,0.6,0.2c0.3,0.1,0.4,0.3,0.4,0.6c0,0.3-0.2,0.5-0.4,0.6
		C8.5,45,8.3,45.1,8,45.1z"/>
	<path class="st1" d="M34.5,39.5c-0.3,0-0.6-0.1-0.9-0.1c-0.1,0-0.1-0.1-0.1-0.2c0-0.1,0-0.2,0.2-0.1c0.4,0.2,0.8,0.2,1.2,0.1
		c0.2,0,0.4-0.2,0.5-0.4c0.1-0.1,0-0.4-0.2-0.5c-0.2-0.1-0.4-0.2-0.6-0.3c-0.4-0.1-0.7-0.3-0.9-0.6c-0.1-0.2-0.1-0.4,0-0.5
		c0.2-0.4,0.5-0.5,1-0.6c0.4,0,0.7,0,1.1,0.1c0.1,0,0.2,0,0.1,0.2c-0.1,0.1,0,0.2-0.2,0.2c-0.3-0.1-0.6-0.1-1-0.1
		c-0.3,0.1-0.4,0.2-0.5,0.4c0,0.2,0.1,0.4,0.4,0.5c0.3,0.1,0.6,0.2,0.9,0.3c0.4,0.1,0.6,0.4,0.6,0.8c0,0.3-0.2,0.6-0.6,0.7
		C35.1,39.4,34.8,39.5,34.5,39.5z"/>
	<path class="st1" d="M57.4,45.1c-0.3,0-0.6-0.1-0.9-0.2c-0.4-0.2-0.6-0.6-0.6-1c0-0.5,0.2-0.8,0.6-1c0.4-0.2,0.9-0.2,1.4-0.2
		c0.2,0,0.2,0.1,0.1,0.2c-0.1,0.3-0.1,0.3-0.4,0.3c-0.2,0-0.3,0-0.5,0c-0.3,0.1-0.4,0.3-0.4,0.6c0,0.3,0.2,0.5,0.5,0.6
		c0.2,0.1,0.4,0,0.6,0c0.1,0,0.1,0,0.2,0.1c0.1,0.4,0.2,0.4-0.3,0.5C57.7,45.1,57.6,45.1,57.4,45.1z"/>
	<path class="st1" d="M55.4,37.1c0.5,0,1,0.2,1.3,0.7c0.2,0.3,0.1,1-0.3,1.3c-0.5,0.4-1.5,0.5-2,0.1c-0.4-0.3-0.6-0.7-0.4-1.2
		c0.1-0.4,0.4-0.7,0.8-0.8C55,37.1,55.2,37.1,55.4,37.1z M56.2,38.3c0-0.5-0.4-0.9-0.9-0.9c-0.5,0-0.9,0.3-0.9,0.9
		c0,0.5,0.4,0.9,0.9,0.9C55.8,39.1,56.2,38.8,56.2,38.3z"/>
	<path class="st1" d="M37.9,37.1c0.4,0,0.8,0.1,1.1,0.4c0.4,0.3,0.3,1.2-0.1,1.5c-0.5,0.5-1.1,0.5-1.8,0.3c-0.4-0.1-0.7-0.6-0.7-1.1
		c0-0.5,0.3-0.9,0.8-1.1C37.4,37.1,37.6,37.1,37.9,37.1z M38.7,38.3c0-0.5-0.3-0.9-0.9-0.9c-0.5,0-0.9,0.3-0.9,0.9
		c0,0.5,0.4,0.9,0.9,0.9C38.3,39.2,38.7,38.8,38.7,38.3z"/>
	<path class="st1" d="M28.4,38.7c0,0.2,0,0.4,0,0.6c0,0.2,0,0.2-0.2,0.2c0,0-0.1,0-0.1,0c-0.1,0-0.2,0-0.2-0.2c0-0.1,0-0.1-0.1,0
		c-0.4,0.3-0.8,0.3-1.3,0.1c-0.2-0.1-0.4-0.3-0.4-0.5c0-0.3,0.1-0.4,0.4-0.6c0.4-0.2,0.8-0.3,1.2-0.3c0.2,0,0.2-0.1,0.1-0.2
		c0-0.2-0.2-0.3-0.4-0.4c-0.3-0.1-0.6,0-0.9,0.1c-0.2,0.1-0.2,0-0.2-0.1c-0.1-0.1,0-0.1,0.1-0.2c0.4-0.1,0.8-0.2,1.2-0.1
		c0.4,0.1,0.7,0.4,0.7,0.8C28.5,38.2,28.4,38.4,28.4,38.7z M27.6,38.3c-0.2,0-0.5,0-0.7,0.2c-0.2,0.1-0.3,0.5-0.1,0.6
		c0.3,0.2,0.9,0.1,1-0.3C28,38.4,27.9,38.3,27.6,38.3z"/>
	<path class="st1" d="M19,38.4c-0.3,0-0.6,0-0.9,0c-0.1,0-0.1,0-0.1,0.1c0,0.3,0.2,0.5,0.5,0.6c0.4,0.1,0.8,0.1,1.1,0
		c0.2,0,0.1,0.1,0.2,0.1c0,0.1,0,0.2-0.1,0.2c-0.5,0.1-1,0.2-1.4,0c-0.7-0.2-1-0.8-0.7-1.5c0.1-0.4,0.5-0.6,0.9-0.7
		c0.4-0.1,0.7,0,1,0.1c0.3,0.1,0.6,0.7,0.5,1c0,0.1-0.1,0.1-0.1,0.1C19.6,38.4,19.3,38.4,19,38.4z M18.7,38.1c0.2,0,0.4,0,0.6,0
		c0.1,0,0.2,0.1,0.2,0c0-0.1,0-0.2-0.1-0.3c0,0-0.1-0.1-0.1-0.1c-0.2-0.3-0.5-0.3-0.8-0.2c-0.3,0.1-0.5,0.3-0.6,0.5
		c0,0.1,0,0.1,0.1,0.1C18.3,38.1,18.5,38.1,18.7,38.1z"/>
	<path class="st1" d="M50.9,37.1c-0.4,0.8-0.8,1.7-1.3,2.4c-0.2,0.4-0.6,0.7-1.1,0.8c-0.2,0-0.2-0.1-0.2-0.2c-0.1-0.1,0-0.1,0.1-0.2
		c0.3-0.1,0.5-0.3,0.7-0.5c0.1-0.1,0.1-0.2,0-0.4c-0.3-0.6-0.6-1.2-0.9-1.8c0-0.1-0.1-0.1-0.1-0.2c0,0,0,0,0,0c0.5,0,0.5,0,0.7,0.5
		c0.2,0.4,0.4,0.9,0.6,1.3c0.1,0,0.1-0.1,0.1-0.1c0.2-0.5,0.4-1,0.6-1.5c0.1-0.2,0.1-0.2,0.3-0.2C50.6,37.2,50.7,37.1,50.9,37.1z"/>
	<path class="st1" d="M45,38.4c-0.3,0-0.6,0-0.9,0c-0.1,0-0.1,0-0.1,0.1c0.1,0.3,0.3,0.6,0.7,0.6c0.3,0,0.6,0,0.9-0.1
		c0.1,0,0.1,0,0.2,0.1c0,0.1,0.1,0.2-0.1,0.2c-0.5,0.1-1.1,0.2-1.6,0c-0.4-0.2-0.6-0.6-0.6-1.1c0-0.5,0.3-0.9,0.7-1
		c0.3-0.1,0.7-0.1,1-0.1c0.3,0.1,0.5,0.2,0.7,0.5c0.1,0.2,0.2,0.3,0.2,0.5c0,0.1,0,0.2-0.2,0.2C45.6,38.4,45.3,38.4,45,38.4z
		 M44.7,38.1c0.2,0,0.4,0,0.6,0c0.2,0,0.2-0.1,0.1-0.2c-0.1-0.3-0.3-0.4-0.5-0.5c-0.4-0.1-0.8,0.1-0.9,0.5C44,38,44,38.1,44.2,38.1
		C44.4,38.1,44.6,38.1,44.7,38.1z"/>
	<path class="st1" d="M39.4,43.4c0,0.5,0,1,0,1.5c0,0.1,0,0.2-0.2,0.2c-0.2,0-0.5,0.1-0.6,0c-0.1-0.1,0-0.4,0-0.6c0-0.8,0-1.7,0-2.5
		c0-0.1,0-0.2,0.2-0.2c0.2,0,0.4,0,0.5,0c0.1,0,0.1,0,0.1,0.1C39.4,42.3,39.4,42.8,39.4,43.4z"/>
	<path class="st1" d="M29.7,37.5c0.4-0.3,0.8-0.4,1.2-0.4c0.4,0.1,0.7,0.4,0.7,0.8c0,0.5,0,0.9,0,1.3c0,0.1,0,0.1-0.1,0.1
		c-0.4,0-0.4,0-0.4-0.4c0-0.3,0-0.7,0-1c0-0.4-0.3-0.6-0.6-0.6c-0.4,0-0.8,0.2-0.8,0.7c0,0.4,0,0.7,0,1.1c0,0.1,0,0.2-0.2,0.2
		c-0.3,0-0.3,0-0.3-0.3c0-0.6,0-1.1,0-1.7c0-0.1-0.1-0.2,0-0.2c0.1-0.1,0.3,0,0.4,0c0,0,0,0,0,0.1C29.7,37.3,29.7,37.4,29.7,37.5z"
		/>
	<path class="st1" d="M12.5,43.1c0.2-0.3,0.4-0.4,0.7-0.4c0.1,0,0.2,0,0.2,0.2c0,0,0,0.1,0,0.1c0,0.1,0,0.3,0,0.4
		c-0.1,0.1-0.2,0-0.3,0c-0.3,0-0.5,0.2-0.5,0.5c0,0.3,0,0.7,0,1c0,0.1,0,0.1-0.1,0.1c-0.2,0-0.4,0-0.6,0c-0.1,0-0.1,0-0.1-0.1
		c0-0.7,0-1.3,0-2c0-0.1,0-0.1,0.1-0.1c0,0,0.1,0,0.1,0c0.1,0,0.3,0,0.4,0C12.5,42.8,12.4,43,12.5,43.1z"/>
	<path class="st1" d="M52.6,38.4c0-0.2,0-0.5,0-0.7c0-0.2,0-0.3-0.3-0.3c-0.1,0-0.2,0-0.2-0.2c0-0.2,0.1-0.2,0.2-0.2
		c0.2,0,0.2,0,0.3-0.2c0-0.7,0.6-0.9,1.3-0.8c0.1,0,0.2,0,0.2,0.2c0,0.1-0.1,0.2-0.2,0.1c-0.5-0.1-0.7,0.1-0.7,0.6
		c0,0.1,0,0.2,0.1,0.1s0.2,0,0.4,0c0.1,0,0.2,0,0.2,0.2c0,0.1,0,0.2-0.2,0.2c-0.2,0-0.4-0.1-0.5,0c-0.1,0.1,0,0.3,0,0.5
		c0,0.4,0,0.9,0,1.3c0,0.1,0,0.2-0.2,0.2c-0.4,0-0.4,0-0.4-0.4C52.6,38.8,52.6,38.6,52.6,38.4z"/>
	<path class="st1" d="M46.7,38.2c0-0.2,0-0.3,0-0.5c0-0.2,0-0.3-0.3-0.3c-0.1,0-0.2,0-0.2-0.1c0-0.1,0-0.2,0.2-0.2
		c0.2,0,0.3-0.1,0.3-0.3c0-0.1-0.1-0.2,0-0.3c0.1-0.1,0.3-0.1,0.4-0.1c0.1,0,0.1,0.1,0.1,0.1c0,0.1,0,0.2,0,0.4c0,0.1,0,0.2,0.2,0.2
		c0.2,0,0.3,0,0.5,0c0.1,0,0.1,0.1,0.1,0.2c0,0.1,0,0.2-0.1,0.2c-0.2,0-0.3,0-0.5,0c-0.1,0-0.2,0-0.2,0.2c0,0.3,0,0.7,0,1
		c0,0.4,0.1,0.5,0.5,0.5c0.2,0,0.2,0.1,0.2,0.2c0,0.1,0,0.1-0.1,0.1c-0.3,0-0.6,0.1-0.9-0.1c-0.1-0.1-0.2-0.2-0.2-0.4
		C46.7,38.7,46.7,38.4,46.7,38.2C46.7,38.2,46.7,38.2,46.7,38.2z"/>
	<path class="st1" d="M40.9,39.5c-0.4,0-0.8-0.1-1.2-0.5c-0.3-0.4-0.2-1.1,0-1.4c0.5-0.5,1.2-0.6,1.8-0.4c0.1,0,0.2,0,0.1,0.1
		c0,0.1,0,0.3-0.2,0.2c-0.3-0.1-0.6-0.1-0.9,0c-0.4,0.1-0.6,0.4-0.6,0.8c0,0.4,0.3,0.7,0.6,0.8c0.3,0.1,0.6,0.1,0.9,0
		c0.2-0.1,0.2,0,0.2,0.1c0.1,0.1,0,0.2-0.1,0.2C41.4,39.4,41.2,39.5,40.9,39.5z"/>
	<path class="st1" d="M25,39.5c-0.4,0-0.8-0.1-1.2-0.5c-0.3-0.4-0.2-1.1,0-1.4c0.5-0.5,1.2-0.6,1.8-0.4c0.1,0,0.2,0,0.1,0.1
		c0,0.1,0,0.3-0.2,0.2c-0.3-0.1-0.6-0.1-0.9,0c-0.4,0.1-0.6,0.4-0.6,0.8c0,0.4,0.3,0.7,0.6,0.8c0.3,0.1,0.6,0.1,0.9,0
		c0.2-0.1,0.2,0,0.2,0.1c0.1,0.1,0,0.2-0.1,0.2C25.5,39.4,25.3,39.5,25,39.5z"/>
	<path class="st1" d="M17.8,43.9c0,0.3,0,0.7,0,1c0,0.1,0,0.1-0.1,0.1c-0.2,0-0.4,0-0.6,0c-0.1,0-0.1,0-0.1-0.1c0-0.7,0-1.3,0-2
		c0-0.1,0-0.1,0.1-0.1c0.2,0,0.4,0,0.6,0c0.1,0,0.1,0,0.1,0.1C17.8,43.2,17.8,43.5,17.8,43.9z"/>
	<path class="st1" d="M31.7,43.9c0,0.3,0,0.7,0,1c0,0.1,0,0.1-0.1,0.1c-0.2,0-0.4,0-0.6,0c-0.1,0-0.1,0-0.1-0.1c0-0.7,0-1.3,0-2
		c0-0.1,0-0.1,0.1-0.1c0.2,0,0.4,0,0.6,0c0.1,0,0.1,0,0.1,0.1C31.7,43.2,31.7,43.5,31.7,43.9z"/>
	<path class="st1" d="M57.8,37.5c0.2-0.3,0.5-0.4,0.8-0.4c0.2,0,0.2,0.1,0.1,0.2c0,0.1,0.1,0.2-0.1,0.2c-0.5,0-0.7,0.3-0.8,0.8
		c0,0.3,0,0.7,0,1c0,0.1,0,0.1-0.1,0.1c-0.4,0-0.4,0-0.4-0.4c0-0.6,0-1.2,0-1.8c0-0.1,0-0.1,0.1-0.1c0,0,0.1,0,0.1,0
		c0.2,0,0.3,0,0.3,0.2C57.8,37.4,57.8,37.5,57.8,37.5z"/>
	<path class="st1" d="M21,37.6c0.2-0.3,0.5-0.5,0.8-0.5c0.2,0,0.1,0.1,0.1,0.2s0.1,0.2-0.1,0.2c-0.5,0-0.8,0.3-0.8,0.8
		c0,0.3,0,0.6,0,1c0,0.1,0,0.2-0.2,0.2c-0.3,0-0.3,0-0.3-0.3c0-0.6,0-1.2,0-1.8c0-0.1,0-0.1,0.1-0.1C21,37.1,21,37.1,21,37.6z"/>
	<path class="st1" d="M42.9,38.3c0,0.3,0,0.6,0,1c0,0.1,0,0.2-0.2,0.2c-0.4,0-0.4,0-0.4-0.4c0-0.6,0-1.2,0-1.7c0-0.1,0-0.2,0.2-0.2
		c0.4,0,0.4,0,0.4,0.4C42.9,37.8,42.9,38,42.9,38.3z"/>
	<path class="st1" d="M23,38.3c0,0.3,0,0.7,0,1c0,0.1,0,0.1-0.1,0.1c-0.4,0-0.4,0-0.4-0.4c0-0.6,0-1.1,0-1.7c0-0.1,0-0.2,0.2-0.2
		c0.4,0,0.4,0,0.4,0.4C23,37.8,23,38,23,38.3z"/>
	<path class="st1" d="M17.3,42.4c-0.3,0-0.4-0.1-0.4-0.4c0-0.2,0.2-0.4,0.4-0.4c0.3,0,0.5,0.1,0.5,0.4
		C17.8,42.3,17.6,42.4,17.3,42.4z"/>
	<path class="st1" d="M31.3,42.4c-0.3,0-0.5-0.2-0.5-0.4c0-0.2,0.2-0.4,0.5-0.4c0.3,0,0.4,0.2,0.4,0.4
		C31.7,42.3,31.6,42.4,31.3,42.4z"/>
	<path class="st1" d="M22.7,36.3c0.2,0,0.4,0.1,0.4,0.2c0,0.2-0.1,0.3-0.3,0.3c-0.2,0-0.3-0.1-0.3-0.3
		C22.4,36.4,22.6,36.3,22.7,36.3z"/>
	<path class="st1" d="M42.7,36.8c-0.2,0-0.4-0.1-0.4-0.3c0-0.1,0.1-0.3,0.4-0.3c0.2,0,0.3,0.1,0.3,0.3
		C42.9,36.7,42.8,36.7,42.7,36.8z"/>
	<path class="st0" d="M19,14c0.6,1.7,1.3,3.3,1.9,4.9c-0.1,0.1-0.1,0-0.2,0c-1.1,0-2.3,0-3.4,0c-0.2,0-0.2,0-0.1-0.2
		c0.2-0.4,0.3-0.8,0.4-1.1c0.4-0.7,0.6-1.5,0.9-2.3C18.7,14.9,18.8,14.5,19,14z"/>
	<path class="st2" d="M41.7,17.1c0.7,0,1.5,0,2.2,0c0.2,0,0.2,0,0.2,0.2c0,1.1,0,2.2,0,3.3c0,0.1,0,0.2-0.1,0.3
		c-1.1,1.1-2.4,1.6-3.9,1.6c-1.1,0-2.1-0.2-3-0.7c-0.6-0.3-1.1-0.7-1.5-1.2c-0.6-0.8-1-1.7-1.1-2.6c0-0.2-0.1-0.3-0.1-0.5
		c0.1-0.9,0.2-1.9,0.7-2.7c0.7-1.1,1.6-1.8,2.9-2.2c0.9-0.3,1.9-0.4,2.8-0.2c0.9,0.1,1.7,0.5,2.4,1.1c0.3,0.2,0.5,0.5,0.7,0.8
		c0.1,0.1,0.1,0.1,0,0.2c-0.4,0.2-0.8,0.4-1.2,0.7c-0.1,0-0.1,0-0.2,0c-0.1-0.1-0.2-0.2-0.2-0.3c-0.9-0.9-1.9-1.1-3.1-0.9
		c-0.7,0.1-1.4,0.5-1.9,1c-0.6,0.6-0.8,1.3-0.9,2.1c-0.1,0.8,0.1,1.7,0.6,2.4c0.5,0.8,1.3,1.3,2.3,1.4c1.1,0.2,2-0.1,2.9-0.7
		c0.1-0.1,0.2-0.2,0.2-0.3c0-0.4,0-0.8,0-1.1c0-0.2,0-0.2-0.2-0.2c-0.9,0-1.8,0-2.7,0c-0.2,0-0.2,0-0.2-0.2c0-0.4,0-0.8,0-1.2
		c0-0.1,0-0.2,0.2-0.2C40.2,17.1,40.9,17.1,41.7,17.1z"/>
	<path class="st2" d="M24.2,22.3c-0.6,0-1.2,0-1.8,0c-0.1,0-0.1,0-0.2-0.1c-0.3-0.5-0.4-1.1-0.7-1.6c0-0.1-0.1-0.1-0.2-0.1
		c-1.5,0-3,0-4.6,0c-0.1,0-0.2,0-0.2,0.2c-0.2,0.5-0.3,0.9-0.5,1.4c0,0.1-0.1,0.2-0.2,0.3c0,0.1-0.1,0.1-0.1,0.1c-0.6,0-1.2,0-1.9,0
		c0.1-0.4,0.3-0.7,0.5-1.1c0.2-0.5,0.4-1.1,0.6-1.6c0.3-0.7,0.6-1.5,0.9-2.2c0.3-0.7,0.5-1.4,0.9-2.1c0.3-0.7,0.6-1.5,0.9-2.2
		c0.1-0.2,0.2-0.4,0.2-0.5c0-0.1,0.1-0.1,0.1-0.1c0.7,0,1.3,0,2,0c0.1,0,0.1,0,0.2,0.1c0.4,0.7,0.6,1.5,0.9,2.3
		c0.3,0.7,0.6,1.5,0.9,2.2c0.3,0.7,0.5,1.4,0.8,2c0.3,0.7,0.6,1.5,0.9,2.3C23.9,21.7,24,22,24.2,22.3z M19,14
		c-0.2,0.5-0.3,0.9-0.5,1.3c-0.3,0.7-0.5,1.5-0.9,2.3c-0.2,0.4-0.3,0.7-0.4,1.1c-0.1,0.2,0,0.2,0.1,0.2c1.1,0,2.3,0,3.4,0
		c0.1,0,0.1,0,0.2,0C20.3,17.3,19.7,15.7,19,14z"/>
	<path class="st2" d="M46.3,17.4c0-1.6,0-3.1,0-4.7c0-0.2,0.1-0.2,0.3-0.2c2.2,0,4.4,0,6.6,0c0.2,0,0.2,0,0.2,0.2c0,0.4,0,0.7,0,1.1
		c0,0.2,0,0.2-0.2,0.2c-1.6,0-3.2,0-4.8,0c-0.3,0-0.3,0-0.3,0.3c0,0.7,0,1.4,0,2c0,0.2,0.1,0.2,0.2,0.2c1.6,0,3.1,0,4.7,0
		c0.2,0,0.2,0,0.2,0.2c0,0.4,0,0.7,0,1.1c0,0.2-0.1,0.2-0.2,0.2c-1.6,0-3.1,0-4.7,0c-0.2,0-0.3,0.1-0.3,0.3c0,0.7,0,1.5,0,2.3
		c0,0.2,0,0.2,0.2,0.2c1.6,0,3.2,0,4.8,0c0.2,0,0.2,0,0.2,0.2c0,0.4,0,0.8,0,1.2c0,0.1,0,0.2-0.2,0.2c-2.3,0-4.5,0-6.8,0
		c-0.2,0-0.2-0.1-0.2-0.2C46.3,20.6,46.3,19,46.3,17.4z"/>
	<path class="st2" d="M28.8,12.4c1.3,0,2.5,0.3,3.5,1c0.5,0.4,0.5,0.4,0.1,0.9c-0.2,0.2-0.4,0.5-0.6,0.7c-0.1,0.1-0.1,0.1-0.2,0
		c-1-0.9-2.2-1.2-3.5-0.9c-0.4,0.1-0.7,0.2-0.9,0.6c-0.3,0.5-0.1,1,0.4,1.2c0.6,0.3,1.3,0.5,2,0.6c0.7,0.2,1.4,0.4,2,0.7
		c0.6,0.3,1,0.7,1.3,1.2c0.2,0.4,0.2,0.8,0.2,1.3c0,0.8-0.4,1.5-1,2c-0.5,0.4-1.1,0.6-1.7,0.7c-1.2,0.2-2.3,0.1-3.5-0.2
		c-0.7-0.2-1.3-0.6-1.8-1.1c-0.1-0.1-0.1-0.2,0-0.3c0.3-0.4,0.5-0.7,0.8-1.1c0.1-0.1,0.1-0.1,0.2,0c0.6,0.6,1.4,1,2.2,1.2
		c0.7,0.1,1.4,0.1,2-0.1c0.4-0.1,0.7-0.4,0.9-0.7c0.3-0.5,0.1-0.9-0.5-1.3c-0.4-0.2-0.8-0.4-1.2-0.5c-0.6-0.2-1.3-0.3-1.9-0.5
		c-0.6-0.2-1.2-0.4-1.6-0.9c-0.7-0.7-0.9-1.9-0.4-2.8c0.3-0.7,0.9-1.1,1.6-1.4C27.6,12.5,28.2,12.4,28.8,12.4z"/>
</g>
</svg>
