<?xml version="1.0" encoding="utf-8"?>
<!-- Generator: Adobe Illustrator 21.0.0, SVG Export Plug-In . SVG Version: 6.00 Build 0)  -->
<svg version="1.1" id="Layer_1" xmlns="http://www.w3.org/2000/svg" xmlns:xlink="http://www.w3.org/1999/xlink" x="0px" y="0px"
	 viewBox="0 0 53 58" style="enable-background:new 0 0 53 58;" xml:space="preserve">
<style type="text/css">
	.st0{fill:#003DA5;}
	.st1{fill:#27251F;}
</style>
<g id="Layer_2_1_">
	<g id="logo">
		<path class="st0" d="M43.2,38.1c0.3,4.1-2.1,7.9-6,9.2c-0.5-0.2-0.9-0.4-1.4-0.7c0-0.7,0-1.4,0-2.1V34h-4.8v-3.9H43L43.2,38.1z
			 M37.1,28.3h-7.8v8.8c-0.2,3.3,1.3,6.6,3.8,8.7v-1.2c-1.5-1.8-2.2-4.1-2.1-6.5v-2.4h3v10c0.3,5.1-2.8,9.7-7.6,11.4
			C22,55.5,19,51.2,19,46.4c3.1-2.1,4.9-5.6,4.7-9.3v-1.2h4.8V34H17.2v10.5c0,0.4,0,0.7,0,1.1c0.6-0.4,1.2-0.9,1.8-1.5v-8.3h2.9v2.4
			c0.3,4.1-2.1,7.9-6,9.2c-3.9-1.3-6.4-5.2-6.1-9.3v-8h11.9v3.1h1.9v-4.8H8.1v8.8c-0.3,5,2.9,9.6,7.8,11c0.5-0.2,1.1-0.4,1.6-0.7
			c0.8,4.9,4.3,8.9,9.1,10.2c4.8-1.4,8.3-5.4,9.1-10.3c0.5,0.2,1,0.5,1.5,0.6c4.8-1.4,8.1-5.9,7.8-10.9v-8.8H37.1z"/>
		<path class="st1" d="M11.6,23.5v-0.4c0.2-0.1,0.4-0.2,0.6-0.3c0-0.1,0-0.1,0-0.2c0-0.3,0-0.6,0-0.8c0-0.6,0-1,0-1.1v-3.7
			c0-0.6,0-1.2,0-1.8c0-0.3,0-0.5,0-0.8c-0.1-0.1-0.2-0.1-0.3-0.2c-0.3,0-0.7,0-1,0v-0.6h2.2h2.1v0.5c-0.3,0-0.7,0-1.1,0
			c-0.1,0-0.2,0.1-0.2,0.2c-0.1,0.2-0.1,0.4,0,0.7c0,0,0,0.7,0,2v4.8c0,0.5,0,0.9,0,1.2H15c1,0,2,0,2.9-0.2c0-0.1,0-0.3,0.2-0.5
			l0.3-1.1h0.5c0,0.7-0.2,1.5-0.3,2.4h-0.5h-1.1h-3.9c-0.5,0-0.9,0-1.4,0"/>
		<path class="st1" d="M22.6,15c0,0,0,0.7,0,2v3.2 M24.1,23.1v0.5h-2h-2.2v-0.5c0.3,0,0.7,0,1,0c0.1,0,0.2-0.1,0.3-0.2
			c0-0.2,0-0.4,0-0.7c0,0,0-0.8,0-2v-3.2c0-0.6,0-1.2,0-1.8c0-0.3,0-0.5,0-0.8c-0.1-0.1-0.2-0.2-0.3-0.2c-0.3,0-0.7,0-1,0v-0.6H22
			h2.1v0.5c-0.4,0-0.7,0-1.1,0c-0.1,0-0.2,0.1-0.2,0.2c-0.1,0.2-0.1,0.4-0.1,0.7c0,0,0,0.7,0,2v3.2c0,0.6,0,1.3,0,1.9
			c-0.1,0.3-0.1,0.5,0,0.8c0.1,0.1,0.2,0.2,0.3,0.2C23.3,23.1,23.7,23.1,24.1,23.1"/>
		<path class="st1" d="M25.6,23.5v-0.5c0.3,0.1,0.7,0.1,1,0c0.1,0,0.1-0.1,0.2-0.1c0-0.2,0-0.5,0-0.7c0-0.6,0-1.1,0-1.6v-5.8
			c0-0.1,0-0.2,0-0.3c0-0.1-0.1-0.2-0.2-0.3c-0.1-0.1-0.2-0.1-0.3-0.1h-0.8v-0.5H27h1.1l0.9,1.1l1.5,1.7l2.1,2.5l1.6,1.9
			c0.3,0.3,0.5,0.6,0.7,0.7v-5c0-0.5,0-1,0-1.6c0-0.2,0-0.5,0-0.7c0-0.1-0.1-0.1-0.2-0.1c-0.3-0.1-0.7-0.1-1,0v-0.6h1.7H37v0.5
			c-0.3-0.1-0.7-0.1-1,0c-0.1,0-0.1,0.1-0.1,0.1c0,0.2,0,0.5,0,0.7c0,0.6,0,1.1,0,1.6v3.3c0,0.7,0,1.9,0,3.8h-0.7L35,23.5l0,0
			l-0.3-0.3c-0.4-0.4-0.7-0.8-0.9-1L32.9,21l-5.4-5.9v5.4c0,0.5,0,1,0,1.6c0,0.2,0,0.5,0,0.7c0,0.1,0.1,0.1,0.2,0.1c0.3,0,0.7,0,1,0
			v0.5c-0.5,0-0.9,0-1.4,0c-0.6,0-1.2,0-1.8,0"/>
		<path class="st1" d="M42.5,23.1v0.5h-2h-2.2v-0.5c0.3,0,0.7,0,1.1,0c0.1,0,0.2-0.1,0.2-0.2c0.1-0.2,0.1-0.4,0.1-0.7c0,0,0-0.8,0-2
			v-3.2c0-0.6,0-1.2,0-1.8c0-0.3,0-0.5-0.1-0.8c-0.1-0.1-0.2-0.2-0.3-0.2c-0.3,0-0.7,0-1,0v-0.6h2.1h2.1v0.5c-0.3,0-0.7,0-1,0
			c-0.1,0-0.2,0.1-0.3,0.2c0,0.2,0,0.4,0,0.7c0,0,0,0.7,0,2v3.2c0,0.6,0,1.3,0,1.9c-0.1,0.3-0.1,0.5,0,0.8c0.1,0.1,0.2,0.2,0.3,0.2
			C41.8,23.1,42.2,23.1,42.5,23.1"/>
		<path class="st1" d="M52.8,22.3l-0.3,0.6c-0.5,0.3-1.1,0.5-1.6,0.6c-0.6,0.1-1.2,0.2-1.8,0.2c-0.7,0-1.4-0.1-2.1-0.3
			c-0.6-0.2-1.2-0.4-1.7-0.8c-0.5-0.3-0.8-0.7-1.2-1.1c-0.3-0.4-0.6-0.9-0.7-1.4c-0.2-0.5-0.2-1.1-0.2-1.6c0-1.4,0.6-2.7,1.6-3.6
			c1.2-1,2.8-1.6,4.4-1.5c0.4,0,0.8,0,1.2,0c0.5,0.1,0.9,0.2,1.4,0.3l1,0.2c-0.1,0.2-0.2,0.5-0.2,0.7c-0.1,0.4-0.1,0.9-0.1,1.4h-0.5
			v-0.7c-0.1-0.5-0.4-0.8-0.8-1c-0.7-0.3-1.4-0.4-2.1-0.3c-0.6,0-1.2,0.1-1.7,0.2c-0.5,0.2-0.9,0.4-1.3,0.8
			c-0.4,0.4-0.7,0.8-0.9,1.3c-0.2,0.6-0.4,1.3-0.4,2c0,1.3,0.4,2.5,1.3,3.4c1,0.9,2.3,1.3,3.6,1.3c0.6,0,1.2-0.1,1.8-0.3
			c0.4-0.1,0.9-0.3,1.3-0.6L52.8,22.3L52.8,22.3z"/>
		<path class="st1" d="M9.8,22.3l-0.3,0.6c-0.5,0.3-1.1,0.5-1.7,0.6c-0.6,0.1-1.2,0.2-1.8,0.2c-0.7,0-1.4-0.1-2.1-0.3
			c-0.6-0.2-1.2-0.4-1.7-0.8c-0.5-0.3-0.9-0.7-1.2-1.1c-0.3-0.4-0.5-0.9-0.6-1.4c-0.2-0.5-0.3-1.1-0.2-1.6c0-1.4,0.6-2.7,1.6-3.6
			c1.2-1,2.8-1.6,4.4-1.5c0.4,0,0.8,0,1.2,0c0.5,0.1,0.9,0.2,1.4,0.3l1,0.2c-0.1,0.2-0.2,0.5-0.2,0.7c-0.1,0.4-0.1,0.9-0.2,1.4H9
			v-0.7c-0.1-0.5-0.4-0.8-0.8-1c-0.7-0.3-1.4-0.4-2.1-0.3c-0.6,0-1.2,0.1-1.7,0.2c-0.5,0.2-0.9,0.4-1.3,0.8
			c-0.4,0.4-0.7,0.8-0.9,1.3c-0.3,0.6-0.4,1.3-0.4,2c0,1.3,0.4,2.5,1.3,3.4c1,0.9,2.2,1.3,3.5,1.3c0.6,0,1.3-0.1,1.9-0.3
			c0.4-0.1,0.8-0.3,1.2-0.6L9.8,22.3L9.8,22.3z"/>
		<path class="st1" d="M4.4,1V0.6h1.5c0.4,0,0.9,0,1.3,0C7.6,1.5,8,2.3,8.3,2.9l2.7,5.4l2.4-4.9c0.7-1.3,1.1-2.4,1.4-2.9h1.3h1.6V1
			c-0.3,0-0.7,0-1,0c-0.1,0-0.2,0.1-0.3,0.2c0,0.2,0,0.4,0,0.7c0,0,0,0.7,0,1.9v3.2c0,0.6,0,1.2,0,1.8c-0.1,0.3-0.1,0.5,0,0.8
			c0.1,0.1,0.2,0.2,0.4,0.2c0.3,0,0.7,0,1,0v0.5c-1,0-1.6,0-2.1,0h-2.1V9.9c0.3,0,0.7,0,1,0c0.1,0,0.2-0.1,0.3-0.2
			c0.1-0.2,0.1-0.4,0.1-0.7c0,0,0-0.7,0-2V2l-2.4,5c-0.4,0.8-0.7,1.4-0.9,1.9c-0.2,0.5-0.4,0.9-0.7,1.6h-0.3c0-0.1-0.1-0.3-0.2-0.4
			l-0.5-1L6.5,2.2V7c0,0.6,0,1.2,0,1.8c-0.1,0.3-0.1,0.5,0,0.8c0.1,0.2,0.2,0.3,0.4,0.3c0.3,0,0.7,0,1.1,0v0.5H6.2H4.4V9.9
			c0.3,0,0.7,0,1,0c0.1,0,0.2-0.1,0.3-0.2c0.1-0.2,0.1-0.4,0.1-0.7c0,0,0-0.7,0-2V3.9c0-0.6,0-1.2,0-1.8c0-0.3,0-0.5-0.1-0.8
			C5.6,1.2,5.5,1.1,5.4,1.1C5.1,1.1,4.7,1.1,4.4,1"/>
		<path class="st1" d="M23.5,2.4l1.8,4.2h-3.6L23.5,2.4z M19.8,10.3c0.4,0,1,0,1.8,0V9.9h-0.9c-0.1,0-0.2-0.1-0.3-0.1
			c0,0,0-0.1,0-0.1c0-0.2,0.1-0.5,0.2-0.7l0.8-1.8h4.2l0.9,2.1c0,0.1,0,0.3,0,0.4c0,0.1,0,0.2,0,0.3c-0.1,0-0.2,0-0.2,0
			c-0.3,0-0.7,0-1,0v0.5h2.4c0.3,0,0.8,0,1.6,0V9.9c-0.2,0-0.5,0-0.7,0c-0.1-0.1-0.2-0.2-0.3-0.3c-0.2-0.3-0.5-1-1-2.1l-3.1-7h-0.5
			l-1.3,2.9l-1.8,3.9C20,8.4,19.7,9,19.6,9.2c0,0.2-0.1,0.4-0.2,0.6L19,9.9h-0.7v0.5C18.8,10.4,19.3,10.4,19.8,10.3"/>
		<path class="st1" d="M35.2,2c0.2-0.2,0.3-0.5,0.4-0.8c0,0,0-0.1-0.1-0.2c-0.3,0-0.7,0-1.1,0V0.6c0.9,0,1.4,0,1.9,0h1.7V1
			c-0.3,0-0.6,0-0.9,0l-0.4,0.2c-0.2,0.2-0.4,0.4-0.6,0.7l-2.1,3c-0.3,0.4-0.5,0.8-0.7,1.2c0,0.1,0,0.3,0,0.4v0.5c0,0.6,0,1.2,0,1.8
			c0,0.3,0,0.5,0.1,0.8c0,0.1,0.1,0.2,0.1,0.2c0.3,0,0.7,0,1,0v0.5c-0.8,0-1.5,0-2.1,0c-0.6,0-1.3,0-2.2,0V9.9c0.3,0,0.7,0,1,0
			c0.1,0,0.2-0.1,0.2-0.2c0.1-0.2,0.1-0.4,0-0.6c0,0,0-0.8,0-2V6.3l-0.3-0.6l-0.7-1.2l-1.6-2.6c-0.1-0.2-0.3-0.5-0.5-0.7
			c-0.1-0.1-0.2-0.1-0.3-0.2c-0.3,0-0.6,0-0.9,0V0.6H29c0.5,0,1.8,0,2.7,0V1c-0.4,0-0.8,0-1.1,0c0,0-0.1,0-0.1,0.2s0,0.3,0.4,0.8
			l2.1,3.5L35.2,2z"/>
		<path class="st1" d="M38,7.5c0.2,0.6,0.6,1.2,1,1.7c0.5,0.5,1,0.8,1.7,1.1c0.7,0.2,1.4,0.3,2.1,0.3c1.5,0.1,3-0.5,4.1-1.5
			c1.1-1,1.7-2.5,1.6-3.9c0-0.5,0-0.9-0.2-1.4c-0.1-0.4-0.2-0.7-0.4-1c-0.3-0.4-0.6-0.8-1-1.1c-0.5-0.4-1-0.7-1.6-0.9
			c-0.7-0.2-1.4-0.4-2.2-0.4c-0.8,0-1.6,0.1-2.4,0.4C40.2,1,39.5,1.3,39,1.8c-0.5,0.5-0.9,1-1.1,1.7c-0.2,0.6-0.4,1.3-0.4,2
			C37.5,6.2,37.7,6.8,38,7.5 M39.6,2.7c0.3-0.5,0.7-1,1.2-1.3c0.6-0.3,1.3-0.5,2-0.5c0.5,0,1,0.1,1.5,0.2c0.4,0.1,0.9,0.3,1.3,0.6
			c0.3,0.2,0.5,0.5,0.7,0.8c0.2,0.3,0.4,0.7,0.5,1c0.2,0.6,0.3,1.3,0.3,2c0,0.8-0.1,1.6-0.4,2.4c-0.3,0.6-0.7,1.2-1.3,1.5
			C44.8,9.8,44,10,43.2,9.9c-0.5,0-1-0.1-1.5-0.3c-0.5-0.2-0.9-0.5-1.2-0.8c-0.3-0.4-0.6-0.8-0.8-1.3c-0.2-0.4-0.3-0.8-0.4-1.2
			c-0.1-0.4-0.1-0.9-0.1-1.3C39.1,4.2,39.3,3.4,39.6,2.7"/>
	</g>
</g>
</svg>
