<?xml version="1.0" encoding="utf-8"?>
<!-- Generator: Adobe Illustrator 21.0.0, SVG Export Plug-In . SVG Version: 6.00 Build 0)  -->
<svg version="1.1" id="svg3676" xmlns:svg="http://www.w3.org/2000/svg"
	 xmlns="http://www.w3.org/2000/svg" xmlns:xlink="http://www.w3.org/1999/xlink" x="0px" y="0px" viewBox="0 0 81 46"
	 style="enable-background:new 0 0 81 46;" xml:space="preserve">
<style type="text/css">
	.st0{fill:#350F58;}
	.st1{fill:#909094;}
</style>
<path id="path2492" class="st0" d="M67.8,21.5l-1.7-3.9c-1.2,0.8-1.6,1.3-1.6,1.3l1.9,3.7C66.4,22.6,67.1,22,67.8,21.5"/>
<path id="path2494" class="st0" d="M62.9,15.8l-1.3-2.5c0.6-0.7,2-1.7,2-1.7l1.2,2.7C64.7,14.3,63.7,15,62.9,15.8"/>
<path id="path2496" class="st0" d="M59.6,9.4L56,2.4l3.6,0l2.2,5.1l0,0.1C61.8,7.5,60.6,8.3,59.6,9.4"/>
<path id="path2498" class="st0" d="M70.3,30.2l-2.5-4.9c0,0,0.6-0.5,1.3-1l2,4.6C71,28.9,70.6,29.5,70.3,30.2"/>
<path id="path2500" class="st0" d="M71.3,32.2l2.2,4.3h0.8l-2.3-5.4C71.9,31.1,71.6,31.5,71.3,32.2"/>
<path id="path2502" class="st1" d="M76.3,28.2C76.2,28.3,76.3,28.3,76.3,28.2c-0.6,0.5-1.4,0.8-2.5,1.1l-0.2,0c0,0-0.4,0.2-1.4,1.3
	c0.1,0,0,0,0.1,0c2.6-0.2,4.6-0.7,5.4-1.3c0.1-0.1,0,0,0.1-0.1C77.6,28.7,77.2,28.3,76.3,28.2"/>
<path id="path2504" class="st1" d="M77.8,16.4c-1,1.3-4.5,2.2-8.8,2.3c-0.8,0-1.3,0-2,0c0,0-0.1,0-0.1,0l-0.5-1.3
	c0,0,0.4-0.3,0.8-0.5c0.5,0,0.8,0,1.3,0c3.6-0.1,5.9-1,7-2.1C75.5,14.8,77.2,15.2,77.8,16.4"/>
<path id="path2506" class="st1" d="M62.4,16.3c-0.9-0.2-1.8-0.5-2.4-0.8l-0.1-0.1c0,0-0.5,0.8-0.6,1.6l0.1,0.1
	c0.5,0.3,1,0.4,1.7,0.7C61.5,17.4,62,16.7,62.4,16.3"/>
<path id="path2508" class="st1" d="M70.2,30.6l-0.5-1c-0.1,0,0,0-0.1,0c-1.7-0.1-3.2-0.5-4.1-0.9c-0.1,0,0,0-0.1-0.1
	c-0.3,0.8-0.2,1.1-0.1,1.2c0,0,0,0,0.1,0c1.1,0.5,2.8,0.9,4.9,0.9L70.2,30.6"/>
<path id="path2510" class="st1" d="M69.3,24.2l0.5,1.1c0.3,0,0.4,0,0.7,0c3.7,0,6.7-0.7,7.5-1.8c-0.6-1.1-1.9-1.2-2.1-1.2
	c-1,0.8-3,1.5-5.9,1.5C69.9,23.8,69.7,23.9,69.3,24.2"/>
<path id="path2520" class="st1" d="M65.6,23.3c-1.5-0.3-2.5-0.7-3.3-1.2c-0.1-0.1,0,0-0.1-0.1c-0.3,0.7-0.3,1.2-0.3,1.5
	c0.1,0.1,0,0,0.1,0.1c0.7,0.4,1.3,0.7,2.5,1C65.2,23.8,65.3,23.7,65.6,23.3"/>
<path id="path2522" class="st0" d="M61.7,23c0.3-2.4,3.1-5.4,7-7.2c4.1-1.9,8-1.8,9.2,0.2l0.1,0.1c0.3-0.9,0.4-1.7,0.2-2.4
	c-0.8-2.8-5.3-3.2-10.2-1c-4.9,2.2-8.2,6.3-7.4,9c0.2,0.6,0.6,1.2,1.1,1.6L61.7,23"/>
<path id="path2524" class="st0" d="M78,23.1L78,23.1c0.3-0.6,0.4-1.3,0.2-1.9c-0.7-2.3-4.5-2.5-8.4-0.5c-3.9,2-6.6,5.4-5.9,7.7
	c0.2,0.5,0.5,0.9,1,1.2l0-0.2c0.2-2,2.4-4.6,5.6-6.2C73.7,21.6,76.9,21.6,78,23.1"/>
<path id="path2526" class="st0" d="M78,29L78,29c0.2-0.5,0.2-1,0.1-1.5c-0.3-1.8-2.4-2.1-4.6-0.6c-2.2,1.4-3.7,4.1-3.4,5.8
	c0.1,0.4,0.3,0.8,0.5,1l0-0.2c0.1-1.6,1.4-3.5,3.2-4.7C75.7,27.6,77.5,27.7,78,29"/>
<path id="path2528" class="st0" d="M73.9,5.7c0,0,0-0.1-0.1-0.4c0-0.1-0.1-0.2-0.1-0.2c-0.2-0.4-1.2-0.4-2.1-0.5
	c-0.4,0-1.3-0.3-1.8-0.3c-0.6,0-0.7,0-1.1,0c-0.3,0.1-1.2,0.4-1.5,0.6L67,5.1c-6.4,2.4-10.4,7.2-9.4,10.3c0.2,0.7,0.7,1.3,1.5,1.7
	l0.1,0c0.4-2.7,4-6.3,9-8.3l0.1-0.1c0.5-0.2,0.4,0,1,0c0.7,0,0.7-0.1,1.7-0.4l2.3-0.8c0,0,0.4-0.2,0.7-0.5C74.1,6.7,74,6.2,73.9,5.7
	 M69.5,5.7c-0.6,0.2-0.9-0.3-0.9-0.2l0,0C69,5.1,69.6,5,69.7,5c0,0,0,0,0,0c0,0,0,0,0,0C69.9,5.4,69.7,5.6,69.5,5.7"/>
<path id="path2530" class="st0" d="M57.4,20.9H3.8v-0.5h53.5V20.9z"/>
<path id="path2532" class="st1" d="M6.1,23.3h0.8l2.2,4.6H8.3l-0.6-1.2H5.2l-0.6,1.2H3.8L6.1,23.3z M5.4,26.2h2.1l-1-2.3L5.4,26.2z"
	/>
<path id="path2534" class="st1" d="M11.5,23.3h1.4l1.6,3.8l1.6-3.8h1.3v4.6h-0.7v-4.1l-1.8,4.1H14l-1.7-4.1v4.1h-0.7V23.3z"/>
<path id="path2536" class="st1" d="M20.6,23.3h3.5v0.5h-2.7v1.4h2.6v0.5h-2.6v1.5h2.8v0.6h-3.5V23.3z"/>
<path id="path2538" class="st1" d="M27.3,23.3h2c0.3,0,0.9,0,1.3,0.2c0.4,0.2,0.6,0.6,0.6,0.9c0,0.3-0.1,0.6-0.4,0.8
	c-0.2,0.2-0.5,0.3-0.7,0.3c0.5,0.1,0.8,0.3,0.8,0.9c0.1,0.5,0.1,0.9,0.3,1.4h-0.8c-0.1-0.3-0.2-0.9-0.3-1.2
	c-0.1-0.7-0.3-0.9-1.2-0.9h-1v2.1h-0.8V23.3z M28.1,25.3h1.2c0.1,0,0.5,0,0.7-0.1c0.1-0.1,0.4-0.2,0.4-0.6c0-0.7-0.8-0.7-1.1-0.7
	h-1.2V25.3"/>
<path id="path2540" class="st1" d="M34.4,23.3h0.8v4.6h-0.8V23.3z"/>
<path id="path2542" class="st1" d="M41.9,24.5c0-0.2-0.1-0.8-1.2-0.8c-1.3,0-1.6,1.1-1.6,1.9c0,0.9,0.3,1.8,1.6,1.8
	c0.3,0,0.7-0.1,0.9-0.3c0.2-0.2,0.2-0.4,0.3-0.5h0.8c-0.1,0.9-1.1,1.3-2.1,1.3c-1.9,0-2.3-1.4-2.3-2.3c0-1,0.5-2.4,2.4-2.4
	c0.8,0,1.9,0.3,2,1.3H41.9"/>
<path id="path2544" class="st1" d="M47.4,23.3h0.8l2.2,4.6h-0.8L49,26.7h-2.6l-0.6,1.2h-0.8L47.4,23.3z M46.7,26.2h2.1l-1-2.3
	L46.7,26.2z"/>
<path id="path2546" class="st1" d="M52.9,23.3h1.1l2.7,3.8v-3.8h0.7v4.6h-1L53.6,24v3.9h-0.7V23.3z"/>
<path id="path2548" class="st1" d="M3.9,30.8h1.7l1.9,4.6l2-4.6h1.5v5.6H10v-5.1l-2.2,5.1H6.9l-2.1-5v5H3.9V30.8z"/>
<path id="path2550" class="st1" d="M14.8,30.8h4.2v0.7h-3.3v1.8h3.1v0.7h-3.1v1.9h3.4v0.7h-4.3V30.8z"/>
<path id="path2552" class="st1" d="M22.8,30.8h2c0.9,0,2,0,2.7,0.7c0.6,0.6,0.8,1.4,0.8,2.1c0,1.2-0.6,2-1.1,2.3
	c-0.7,0.5-1.5,0.5-2.5,0.5h-1.9V30.8z M23.8,35.8h0.9c0.6,0,1.3,0,1.8-0.3c0.9-0.5,0.9-1.5,0.9-1.8c0-0.2,0-1.2-0.7-1.8
	c-0.4-0.4-1-0.5-1.8-0.5h-1.1V35.8"/>
<path id="path2554" class="st1" d="M31.4,30.8h0.9v5.6h-0.9V30.8z"/>
<path id="path2556" class="st1" d="M40,32.3c0-0.2-0.2-1-1.5-1c-1.6,0-1.9,1.4-1.9,2.3c0,1.1,0.4,2.2,1.9,2.2c0.4,0,0.8-0.1,1.1-0.3
	c0.2-0.2,0.3-0.5,0.3-0.6h1c-0.1,1.1-1.4,1.6-2.5,1.6c-2.4,0-2.8-1.7-2.8-2.8c0-1.2,0.6-3,3-3c1,0,2.3,0.3,2.4,1.6H40"/>
<path id="path2558" class="st1" d="M46.3,30.8h1l2.7,5.6h-1L48.3,35h-3.1l-0.7,1.5h-1L46.3,30.8z M45.4,34.3H48l-1.2-2.8L45.4,34.3z
	"/>
<path id="path2560" class="st1" d="M53.2,30.8h0.9v4.9h3.1v0.7h-4.1V30.8z"/>
<path id="path2570" class="st1" d="M6.1,39.5h0.8l2.2,4.6H8.3l-0.6-1.2H5.2l-0.6,1.2H3.8L6.1,39.5z M5.4,42.4h2.1l-1-2.3L5.4,42.4z"
	/>
<path id="path2572" class="st1" d="M10.4,42.7c0,0.3,0.1,0.9,1.3,0.9c1.1,0,1.3-0.6,1.3-0.8c0-0.5-0.5-0.6-1.3-0.8
	c-0.8-0.2-1.2-0.2-1.5-0.4c-0.5-0.3-0.6-0.6-0.6-0.9c0-0.9,1.1-1.3,2.1-1.3c0.4,0,1.1,0.1,1.6,0.5c0.3,0.3,0.3,0.6,0.3,0.8h-0.8
	c0-0.6-0.6-0.7-1.2-0.7c-0.8,0-1.2,0.3-1.2,0.7c0,0.4,0.3,0.5,1,0.7c1.3,0.3,1.5,0.3,1.8,0.5c0.5,0.3,0.6,0.7,0.6,0.9
	c0,0.8-0.8,1.4-2.2,1.4c-0.4,0-1.3-0.1-1.7-0.5c-0.3-0.3-0.3-0.7-0.3-0.9H10.4"/>
<path id="path2574" class="st1" d="M15.7,42.7c0,0.3,0.1,0.9,1.3,0.9c1.1,0,1.3-0.6,1.3-0.8c0-0.5-0.5-0.6-1.3-0.8
	c-0.8-0.2-1.2-0.2-1.5-0.4C15.1,41.4,15,41,15,40.7c0-0.9,1.1-1.3,2.1-1.3c0.4,0,1.1,0.1,1.6,0.5c0.3,0.3,0.3,0.6,0.3,0.8h-0.8
	c0-0.6-0.6-0.7-1.2-0.7c-0.8,0-1.2,0.3-1.2,0.7c0,0.4,0.3,0.5,1,0.7c1.3,0.3,1.5,0.3,1.8,0.5c0.5,0.3,0.6,0.7,0.6,0.9
	c0,0.8-0.8,1.4-2.2,1.4c-0.4,0-1.3-0.1-1.7-0.5c-0.3-0.3-0.3-0.7-0.3-0.9H15.7"/>
<path id="path2576" class="st1" d="M20.8,40c0.6-0.5,1.3-0.6,1.8-0.6c1.5,0,2.5,0.8,2.5,2.4c0,1.2-0.6,2.5-2.6,2.5
	c-1.9,0-2.5-1.1-2.5-2.4C20.1,41.3,20.2,40.5,20.8,40 M21.4,43.2c0.3,0.3,0.8,0.4,1.2,0.4c0.5,0,0.9-0.1,1.2-0.4
	c0.5-0.5,0.5-1.2,0.5-1.5c0-1-0.4-1.8-1.7-1.8c-1.4,0-1.8,0.9-1.8,1.9C20.9,42.3,21,42.8,21.4,43.2"/>
<path id="path2578" class="st1" d="M29.6,40.7c0-0.2-0.1-0.8-1.2-0.8c-1.3,0-1.6,1.1-1.6,1.9c0,0.9,0.3,1.8,1.6,1.8
	c0.3,0,0.7-0.1,0.9-0.3c0.2-0.2,0.2-0.4,0.3-0.5h0.8c-0.1,0.9-1.1,1.3-2.1,1.3c-1.9,0-2.3-1.4-2.3-2.3c0-1,0.5-2.4,2.4-2.4
	c0.8,0,1.9,0.3,2,1.3H29.6"/>
<path id="path2580" class="st1" d="M31.8,39.5h0.8v4.6h-0.8V39.5z"/>
<path id="path2582" class="st1" d="M36,39.5h0.8l2.2,4.6h-0.8l-0.6-1.2H35l-0.6,1.2h-0.8L36,39.5z M35.3,42.4h2.1l-1-2.3L35.3,42.4z
	"/>
<path id="path2584" class="st1" d="M40.8,44.1V40H39v-0.5h4.5V40h-1.9v4.1H40.8z"/>
<path id="path2594" class="st1" d="M44.5,39.5h0.8v4.6h-0.8V39.5z"/>
<path id="path2596" class="st1" d="M47.3,40c0.6-0.5,1.3-0.6,1.8-0.6c1.5,0,2.5,0.8,2.5,2.4c0,1.2-0.6,2.5-2.6,2.5
	c-1.9,0-2.5-1.1-2.5-2.4C46.6,41.3,46.7,40.5,47.3,40 M47.9,43.2c0.3,0.3,0.8,0.4,1.2,0.4c0.5,0,0.9-0.1,1.2-0.4
	c0.5-0.5,0.5-1.2,0.5-1.5c0-1-0.4-1.8-1.7-1.8c-1.4,0-1.8,0.9-1.8,1.9C47.4,42.3,47.5,42.8,47.9,43.2"/>
<path id="path2598" class="st1" d="M52.9,39.5h1.1l2.7,3.8v-3.8h0.7v4.6h-1l-2.8-3.9v3.9h-0.7V39.5z"/>
<path id="path2600" class="st0" d="M11,4.1h3.2l7,14.4h-3l-1.5-3.3H8.4l-1.5,3.3h-3L11,4.1z M15.6,12.8l-3-6.4l-3,6.4H15.6z"/>
<path id="path2602" class="st0" d="M24.9,7.6L24.9,7.6l0,10.9h-2.5V4.1h3.8l4.5,10.7l4.6-10.7h3.7v14.4h-2.5V7.6h0l-4.6,10.9h-2.2
	L24.9,7.6z"/>
<path id="path2604" class="st0" d="M47.1,4.1h3.2l7,14.4h-3l-1.5-3.3h-8.3L43,18.5h-3L47.1,4.1z M51.7,12.8l-3-6.4l-3,6.4H51.7z"/>
</svg>
