<?xml version="1.0" encoding="utf-8"?>
<!-- Generator: Adobe Illustrator 21.0.0, SVG Export Plug-In . SVG Version: 6.00 Build 0)  -->
<svg version="1.1" id="layer" xmlns="http://www.w3.org/2000/svg" xmlns:xlink="http://www.w3.org/1999/xlink" x="0px" y="0px"
	 viewBox="0 0 170 32" style="enable-background:new 0 0 170 32;" xml:space="preserve">
<style type="text/css">
	.st0{fill:#FAA61A;}
	.st1{fill:#F58220;}
	.st2{fill:#008FD5;}
	.st3{fill:#00588A;}
	.st4{fill:#66952E;}
	.st5{fill:#DBDB45;}
	.st6{fill:#122033;}
	.st7{fill:#122033;stroke:#122033;stroke-width:1.4307;stroke-miterlimit:10;}
</style>
<path class="st0" d="M20.2,11.9l-7-4c-2-1.2-3.8-1.1-5.2-0.4c1.8,2.2,3.2,4.7,3.1,7C14.3,14,17.3,13.1,20.2,11.9z"/>
<path class="st1" d="M8.1,7.6c1.4-0.8,3.2-0.8,5.2,0.4l-2.5-1.4L1.3,1C3.8,3,6.1,5.2,8.1,7.6z"/>
<path class="st2" d="M3.6,13.8c1-2.7,2.5-5.1,4.5-6.2C6.1,5.2,3.8,3,1.3,1v8C1.3,11.4,2.2,12.9,3.6,13.8L3.6,13.8z"/>
<path class="st3" d="M3.6,13.8C2.2,12.9,1.3,11.4,1.3,9v13.8C1.7,19.8,2.5,16.7,3.6,13.8L3.6,13.8z"/>
<path class="st4" d="M3.6,13.8c-1.1,3-1.9,6-2.3,9.1l7-4c2-1.2,2.9-2.7,2.9-4.3C8.4,15,5.5,14.9,3.6,13.8L3.6,13.8z"/>
<path class="st5" d="M11.2,14.5c-0.1,1.6-0.9,3.1-2.9,4.3l2.5-1.4l9.4-5.5C17.3,13.1,14.3,14,11.2,14.5L11.2,14.5z"/>
<path class="st6" d="M93.9,1.1h0.4L97,6.8h-0.4l-0.8-1.6h-3.4l-0.8,1.6h-0.4L93.9,1.1z M95.5,4.9L94,1.6l-1.5,3.2H95.5z"/>
<path class="st6" d="M98,2.7h0.4v0.8c0.2-0.5,0.8-0.9,1.4-0.9c0.5,0,1.2,0.3,1.4,0.9c0.3-0.5,0.9-0.9,1.5-0.9c0.9,0,1.6,0.6,1.6,1.5
	c0,0.1,0,0.1,0,0.2v2.5H104V4.3c0-0.9-0.4-1.4-1.2-1.4s-1.3,0.6-1.3,1.4v0.1v2.4h-0.4V4.3c0-0.9-0.4-1.4-1.2-1.4s-1.4,0.8-1.3,1.5
	l0,0v2.4h-0.4L98,2.7z"/>
<path class="st6" d="M105.6,4.8L105.6,4.8c-0.1-1.1,0.8-2.1,1.9-2.2h0.1c1.2,0,1.9,1,1.9,2.2c0,0.1,0,0.1,0,0.2h-3.5
	c0,0.9,0.8,1.6,1.6,1.6c0.5,0,1.1-0.2,1.4-0.6l0.3,0.2c-0.4,0.5-1.1,0.8-1.7,0.8c-1.1,0-2.1-0.9-2.1-2.1
	C105.6,4.9,105.6,4.9,105.6,4.8z M109,4.6c-0.1-0.9-0.5-1.6-1.5-1.6c-0.9,0.1-1.5,0.8-1.5,1.6H109z"/>
<path class="st6" d="M110.6,2.7h0.4v1.2c0.3-0.8,1-1.2,1.8-1.2v0.4l0,0c-1,0-1.8,0.8-1.8,2.1v1.7h-0.4V2.7z"/>
<path class="st6" d="M113.9,1.1h0.4v0.5h-0.4V1.1z M113.9,2.7h0.4v4.1h-0.4V2.7z"/>
<path class="st6" d="M115.7,4.8L115.7,4.8c0-1.2,1-2.2,2.2-2.2c0.6,0,1.2,0.3,1.6,0.8l-0.3,0.3c-0.3-0.4-0.9-0.6-1.4-0.6
	c-1,0-1.7,0.8-1.6,1.7l0,0l0,0c0,1,0.8,1.7,1.7,1.8l0,0c0.5,0,1.1-0.3,1.4-0.8l0.3,0.2c-0.8,1-2.1,1.1-2.9,0.4
	C115.9,6.1,115.7,5.4,115.7,4.8L115.7,4.8z"/>
<path class="st6" d="M120.3,5.6L120.3,5.6c0-0.9,0.8-1.4,1.8-1.4c0.4,0,1,0.1,1.4,0.2V4.3c0-0.9-0.5-1.3-1.4-1.3
	c-0.4,0-0.9,0.1-1.3,0.3L120.8,3c0.4-0.2,1-0.3,1.5-0.3c0.4,0,1,0.1,1.3,0.4c0.3,0.3,0.4,0.8,0.4,1.2v2.6h-0.4V6.2
	c-0.3,0.5-1,0.8-1.6,0.8C121.1,6.9,120.3,6.5,120.3,5.6z M123.5,5.3V4.8c-0.4-0.1-1-0.2-1.4-0.2c-0.9,0-1.4,0.4-1.4,1l0,0
	c0,0.5,0.5,1,1.2,1C122.7,6.6,123.4,6.1,123.5,5.3z"/>
<path class="st6" d="M125.3,2.7h0.4v0.8c0.3-0.5,0.9-0.9,1.5-0.9c0.9,0,1.6,0.6,1.6,1.5c0,0.1,0,0.1,0,0.2v2.6h-0.4V4.3
	c0.1-0.8-0.4-1.3-1.1-1.4c-0.1,0-0.1,0-0.2,0c-0.8,0-1.4,0.6-1.4,1.4v0.1v2.4h-0.4V2.7z"/>
<path class="st6" d="M91.4,11.9L91.4,11.9C91.3,10.4,92.6,9,94.1,9h0.1c0.8,0,1.5,0.2,2.1,0.8L96,10.1c-0.5-0.4-1.2-0.8-1.8-0.6
	c-1.3,0-2.4,1.2-2.4,2.5c0,0,0,0,0,0.1l0,0c0,1.5,0.9,2.6,2.4,2.6c0.6,0,1.3-0.2,1.8-0.6v-1.6H94v-0.4h2.3v2.2
	c-0.6,0.5-1.4,0.9-2.3,0.9c-1.5,0.1-2.8-1.1-2.8-2.7C91.4,12.1,91.4,12,91.4,11.9z"/>
<path class="st6" d="M97.7,13.5L97.7,13.5c0-0.9,0.8-1.4,1.8-1.4c0.4,0,1,0.1,1.4,0.2v-0.2c0.1-0.6-0.4-1.2-1.1-1.3
	c-0.1,0-0.2,0-0.2,0c-0.4,0-0.9,0.1-1.3,0.3l-0.1-0.3c0.4-0.2,1-0.3,1.5-0.3c0.4,0,1,0.1,1.3,0.4c0.3,0.3,0.4,0.8,0.4,1.2v2.6h-0.4
	v-0.6c-0.3,0.5-1,0.8-1.6,0.8C98.6,14.8,97.7,14.4,97.7,13.5z M100.9,13.2v-0.4c-0.4-0.1-1-0.2-1.4-0.2c-0.9,0-1.4,0.4-1.4,1l0,0
	c0,0.5,0.5,1,1.2,1C100.2,14.5,100.8,14,100.9,13.2L100.9,13.2z"/>
<path class="st6" d="M102.5,14.2l0.2-0.3c0.4,0.3,1,0.5,1.5,0.5s1-0.3,1-0.8l0,0c0-0.4-0.5-0.6-1.1-0.9c-0.6-0.2-1.4-0.4-1.4-1.1
	l0,0c0-0.6,0.5-1.2,1.3-1.2h0.1c0.5,0,1,0.2,1.5,0.4l-0.2,0.3c-0.3-0.2-0.9-0.4-1.3-0.4c-0.5,0-1,0.3-1,0.8l0,0
	c0,0.4,0.5,0.6,1.2,0.8c0.5,0.2,1.4,0.4,1.4,1.2l0,0c0,0.8-0.6,1.2-1.4,1.2h-0.1C103.5,14.8,102.9,14.6,102.5,14.2z"/>
<path class="st6" d="M107,13.7V11h-0.5v-0.3h0.5V9.3h0.4v1.3h1.4v0.3h-1.5v2.7c-0.1,0.4,0.2,0.8,0.6,0.9c0.1,0,0.1,0,0.2,0
	c0.2,0,0.4-0.1,0.6-0.1v0.3c-0.2,0.1-0.4,0.1-0.6,0.1c-0.5,0.1-1.1-0.4-1.1-1C107,13.9,107,13.7,107,13.7z"/>
<path class="st6" d="M110,10.6h0.4v1.2c0.3-0.8,1-1.2,1.8-1.2V11l0,0c-1,0-1.8,0.8-1.8,2.1v1.7H110V10.6z"/>
<path class="st6" d="M112.9,12.7L112.9,12.7c0-1.2,0.9-2.2,2.1-2.2l0,0c1.2,0,2.2,1,2.2,2.2l0,0l0,0c0,1.2-0.9,2.2-2.1,2.2l0,0
	C113.8,14.8,112.9,14,112.9,12.7L112.9,12.7z M116.8,12.7L116.8,12.7c0-1-0.8-1.7-1.6-1.7l0,0c-1,0-1.7,0.8-1.7,1.7c0,0,0,0,0,0.1
	l0,0c0,1,0.8,1.7,1.6,1.8l0,0C115.9,14.5,116.8,13.7,116.8,12.7C116.8,12.8,116.8,12.8,116.8,12.7z"/>
<path class="st6" d="M118.2,12.7L118.2,12.7c-0.1-1.1,0.8-2.1,1.9-2.2h0.1c1.2,0,1.9,1,1.9,2.2c0,0.1,0,0.1,0,0.2h-3.5
	c0,0.9,0.8,1.6,1.6,1.6c0.5,0,1.1-0.2,1.4-0.6l0.3,0.2c-0.4,0.5-1.1,0.8-1.7,0.8c-1.1,0-2.1-0.9-2.1-2.1
	C118.2,12.8,118.2,12.8,118.2,12.7z M121.5,12.4c-0.1-0.9-0.5-1.6-1.5-1.6c-0.9,0.1-1.5,0.8-1.5,1.6H121.5z"/>
<path class="st6" d="M123.2,10.6h0.4v0.8c0.3-0.5,0.9-0.9,1.5-0.9c0.9,0,1.6,0.6,1.6,1.5c0,0.1,0,0.1,0,0.2v2.6h-0.3v-2.5
	c0.1-0.8-0.4-1.3-1.1-1.4c-0.1,0-0.1,0-0.2,0c-0.8,0-1.4,0.6-1.4,1.4v0.1v2.4h-0.4L123.2,10.6z"/>
<path class="st6" d="M128.5,13.7V11h-0.5v-0.3h0.5V9.3h0.4v1.3h1.4v0.3h-1.4v2.7c-0.1,0.4,0.2,0.8,0.6,0.9c0.1,0,0.1,0,0.2,0
	c0.2,0,0.4-0.1,0.6-0.1v0.3c-0.2,0.1-0.4,0.1-0.6,0.1c-0.5,0.1-1.1-0.3-1.2-1C128.5,13.9,128.5,13.7,128.5,13.7z"/>
<path class="st6" d="M131.1,12.7L131.1,12.7c-0.1-1.1,0.8-2.2,1.9-2.2c0,0,0,0,0.1,0c1.2,0,1.9,1,1.9,2.2c0,0.1,0,0.1,0,0.2h-3.5
	c0,0.9,0.8,1.6,1.6,1.6c0.5,0,1.1-0.2,1.4-0.6l0.3,0.2c-0.4,0.5-1.1,0.8-1.7,0.8c-1.1,0-2.1-1-2.1-2.1
	C131.1,12.8,131.1,12.8,131.1,12.7z M134.5,12.4c-0.1-0.9-0.5-1.6-1.5-1.6c-0.9,0.1-1.5,0.8-1.5,1.6H134.5z"/>
<path class="st6" d="M136.1,10.6h0.4v1.2c0.3-0.8,1-1.2,1.8-1.2V11h-0.1c-1,0-1.7,0.8-1.7,2.1v1.7h-0.4L136.1,10.6z"/>
<path class="st6" d="M139,12.7L139,12.7c0-1.2,1-2.2,2.2-2.2l0,0c1.2,0,2.2,1,2.2,2.2l0,0l0,0c0,1.2-1,2.2-2.2,2.2
	S139,13.9,139,12.7L139,12.7L139,12.7z M142.8,12.7L142.8,12.7c0-1-0.8-1.7-1.6-1.7l0,0c-1,0-1.7,0.8-1.7,1.7c0,0,0,0,0,0.1l0,0
	c0,1,0.8,1.7,1.6,1.8l0,0C142,14.5,142.8,13.7,142.8,12.7C142.8,12.8,142.8,12.8,142.8,12.7z"/>
<path class="st6" d="M144.6,8.8h0.4v6h-0.4V8.8z"/>
<path class="st6" d="M146.2,12.7L146.2,12.7c-0.1-1.2,0.9-2.2,2.1-2.3c1.2-0.1,2.2,0.9,2.3,2.1c0,0.1,0,0.1,0,0.2l0,0
	c0,1.2-0.9,2.2-2.1,2.2l0,0C147.2,14.8,146.2,14,146.2,12.7C146.2,12.8,146.2,12.8,146.2,12.7z M150.1,12.7L150.1,12.7
	c0-1-0.8-1.7-1.6-1.7l0,0c-1,0-1.7,0.8-1.7,1.7c0,0,0,0,0,0.1l0,0c0,1,0.8,1.7,1.6,1.8l0,0C149.4,14.5,150.1,13.7,150.1,12.7
	C150.1,12.8,150.1,12.8,150.1,12.7z"/>
<path class="st6" d="M151.7,15.5l0.2-0.3c0.4,0.3,1.1,0.5,1.6,0.5c0.9,0.1,1.5-0.5,1.6-1.3c0-0.1,0-0.2,0-0.3v-0.5
	c-0.3,0.5-1,1-1.7,1c-1.1,0-1.9-0.9-2.1-1.9l0,0l0,0c0-1.1,0.9-1.9,1.9-1.9l0,0c0.8,0,1.4,0.3,1.7,1v-0.9h0.4v3.5
	c0,0.5-0.2,1-0.5,1.4c-0.4,0.3-1,0.5-1.5,0.5C152.9,16.1,152.3,15.9,151.7,15.5z M155.3,12.4L155.3,12.4c0-0.9-0.8-1.6-1.7-1.6l0,0
	c-0.9,0-1.5,0.6-1.6,1.5v0.1l0,0c0,0.9,0.8,1.6,1.5,1.6l0,0C154.5,14.1,155.2,13.4,155.3,12.4L155.3,12.4L155.3,12.4z"/>
<path class="st6" d="M157.3,9h0.5v0.5h-0.5V9z M157.3,10.6h0.4v4.1h-0.4V10.6z"/>
<path class="st6" d="M159,12.7L159,12.7c0-1.2,0.9-2.2,2.1-2.2c0.6,0,1.3,0.3,1.7,0.8l-0.3,0.3c-0.3-0.4-0.9-0.6-1.4-0.6
	c-1,0-1.7,0.8-1.6,1.7l0,0l0,0c0,1,0.8,1.7,1.7,1.8l0,0c0.5,0,1.1-0.3,1.4-0.8l0.3,0.2c-0.8,1-2.1,1.1-2.9,0.4
	C159.2,14.1,158.9,13.4,159,12.7L159,12.7z"/>
<path class="st6" d="M163.6,13.5L163.6,13.5c0-0.9,0.8-1.4,1.8-1.4c0.4,0,1,0.1,1.4,0.2v-0.2c0.1-0.6-0.4-1.2-1.1-1.3
	c-0.1,0-0.2,0-0.2,0c-0.4,0-0.9,0.1-1.3,0.3l-0.1-0.3c0.4-0.2,1-0.3,1.5-0.3c0.4,0,1,0.1,1.3,0.4c0.3,0.3,0.4,0.8,0.4,1.2v2.6h-0.4
	v-0.6c-0.3,0.5-1,0.8-1.6,0.8C164.4,14.8,163.6,14.4,163.6,13.5z M166.8,13.2v-0.4c-0.4-0.1-1-0.2-1.4-0.2c-0.9,0-1.4,0.4-1.4,1l0,0
	c0,0.5,0.5,1,1.2,1C166,14.5,166.8,14,166.8,13.2L166.8,13.2z"/>
<path class="st6" d="M168.8,8.8h0.4v6h-0.4V8.8z"/>
<path class="st6" d="M93.9,17h0.4l2.7,5.7h-0.4l-0.8-1.6h-3.4l-0.8,1.6h-0.4L93.9,17z M95.5,20.7L94,17.4l-1.5,3.2H95.5z"/>
<path class="st6" d="M97.7,22.2l0.2-0.3c0.4,0.3,1,0.5,1.5,0.5s1-0.3,1-0.8l0,0c0-0.4-0.5-0.6-1.1-0.9c-0.6-0.2-1.4-0.4-1.4-1.1l0,0
	c0-0.6,0.5-1.2,1.3-1.2h0.1c0.5,0,1.1,0.2,1.5,0.4l-0.2,0.3c-0.3-0.2-0.9-0.4-1.3-0.4c-0.5,0-1,0.3-1,0.8l0,0c0,0.4,0.5,0.6,1.2,0.8
	c0.6,0.1,1.4,0.4,1.4,1.2l0,0c0,0.8-0.6,1.2-1.4,1.2h-0.1C98.8,22.7,98.2,22.5,97.7,22.2z"/>
<path class="st6" d="M101.7,22.2l0.2-0.3c0.4,0.3,1,0.5,1.5,0.5s1-0.3,1-0.8l0,0c0-0.4-0.5-0.6-1.1-0.9c-0.6-0.2-1.4-0.4-1.4-1.1
	l0,0c0-0.6,0.5-1.2,1.3-1.2h0.1c0.5,0,1.1,0.2,1.5,0.4l-0.2,0.3c-0.3-0.2-0.9-0.4-1.3-0.4c-0.5,0-1,0.3-1,0.8l0,0
	c0,0.4,0.5,0.6,1.2,0.8c0.5,0.2,1.4,0.4,1.4,1.2l0,0c0,0.8-0.6,1.2-1.4,1.2h-0.1C102.8,22.7,102.1,22.5,101.7,22.2z"/>
<path class="st6" d="M105.8,20.5L105.8,20.5c0-1.2,0.9-2.2,2.1-2.2l0,0c1.2,0,2.2,1,2.2,2.2l0,0l0,0c0,1.2-0.9,2.2-2.1,2.2l0,0
	C106.8,22.7,105.8,21.8,105.8,20.5C105.8,20.7,105.8,20.7,105.8,20.5z M109.7,20.5L109.7,20.5c0-1-0.8-1.7-1.6-1.7l0,0
	c-1,0-1.7,0.8-1.7,1.7c0,0,0,0,0,0.1l0,0c0,1,0.8,1.7,1.6,1.8l0,0C109,22.4,109.7,21.6,109.7,20.5C109.7,20.7,109.7,20.7,109.7,20.5
	z"/>
<path class="st6" d="M111.1,20.5L111.1,20.5c0-1.2,1-2.2,2.2-2.2c0.6,0,1.2,0.3,1.6,0.8l-0.3,0.3c-0.3-0.4-0.9-0.6-1.4-0.6
	c-1,0-1.7,0.8-1.6,1.7l0,0l0,0c0,1,0.8,1.7,1.7,1.8l0,0c0.5,0,1.1-0.2,1.4-0.6L115,22c-0.8,1-2.1,1.1-2.9,0.4
	C111.3,22,111.1,21.3,111.1,20.5L111.1,20.5z"/>
<path class="st6" d="M116.1,16.9h0.5v0.5h-0.5V16.9z M116.1,18.5h0.4v4.1h-0.4V18.5z"/>
<path class="st6" d="M117.7,21.4L117.7,21.4c0-0.9,0.8-1.4,1.8-1.4c0.4,0,1,0.1,1.4,0.2V20c0.1-0.6-0.4-1.2-1.1-1.3
	c-0.1,0-0.2,0-0.2,0c-0.4,0-0.9,0.1-1.3,0.3l-0.1-0.3c0.4-0.2,1-0.3,1.5-0.3c0.4,0,1,0.1,1.3,0.4c0.3,0.3,0.4,0.8,0.4,1.2v2.6h-0.4
	v-0.8c-0.3,0.5-1,0.8-1.6,0.8C118.6,22.8,117.7,22.3,117.7,21.4z M121,21.1v-0.4c-0.4-0.1-1-0.2-1.4-0.2c-0.9,0-1.4,0.4-1.4,1l0,0
	c0,0.5,0.5,1,1.2,1C120.2,22.4,121,21.8,121,21.1L121,21.1z"/>
<path class="st6" d="M123,21.6v-2.7h-0.5v-0.4h0.5v-1.3h0.4v1.3h1.5v0.3h-1.5v2.7c-0.1,0.4,0.2,0.8,0.6,0.9c0.1,0,0.1,0,0.2,0
	c0.2,0,0.4-0.1,0.6-0.1v0.3c-0.2,0.1-0.4,0.1-0.6,0.1c-0.5,0.1-1.1-0.3-1.2-1C123,21.7,123,21.6,123,21.6z"/>
<path class="st6" d="M126.1,16.9h0.4v0.5h-0.4V16.9z M126.2,18.5h0.4v4.1h-0.4V18.5z"/>
<path class="st6" d="M127.8,20.5L127.8,20.5c0-1.2,1-2.2,2.2-2.2c1.2,0,2.2,1,2.2,2.2l0,0l0,0c0,1.2-1,2.2-2.2,2.2
	C128.8,22.7,127.8,21.7,127.8,20.5C127.8,20.7,127.8,20.7,127.8,20.5z M131.7,20.5L131.7,20.5c0-1-0.8-1.7-1.6-1.7l0,0
	c-1,0-1.7,0.8-1.7,1.7c0,0,0,0,0,0.1l0,0c0,1,0.8,1.7,1.6,1.8l0,0C130.8,22.4,131.7,21.6,131.7,20.5
	C131.7,20.7,131.7,20.7,131.7,20.5L131.7,20.5z"/>
<path class="st6" d="M133.3,18.5h0.4v0.8c0.3-0.5,0.9-0.9,1.5-0.9c0.9,0,1.6,0.6,1.6,1.5c0,0.1,0,0.1,0,0.2v2.6h-0.4v-2.5
	c0.1-0.8-0.4-1.3-1.1-1.4c-0.1,0-0.1,0-0.2,0c-0.8,0-1.4,0.6-1.4,1.4v0.1v2.4h-0.4V18.5z"/>
<path class="st7" d="M41.2,22.7c-0.2-0.7-0.3-1.3-0.3-1.8c-0.1-0.5-0.1-1-0.1-1.6c-0.8,1.1-1.9,2.1-3.1,2.7
	c-1.3,0.7-2.8,1.1-4.4,1.1c-2,0-3.6-0.5-4.8-1.6c-1.1-1.1-1.8-2.7-1.7-4.3c0-1.9,0.9-3.6,2.5-4.6c1.7-1.1,3.9-1.7,6.8-1.7h4.6V8.1
	c0.1-1.3-0.4-2.6-1.4-3.5c-1-0.8-2.3-1.3-4.1-1.3c-1.1,0-2.1,0.2-3.2,0.5c-0.9,0.3-1.7,0.7-2.4,1.3l-0.2,2.8h-1.9V3.8
	C28.5,3,29.7,2.4,31,2c1.4-0.5,2.8-0.7,4.3-0.7c2.3,0,4.2,0.6,5.6,1.8c1.4,1.2,2.1,2.8,2.1,5v10.3c0,0.4,0,0.8,0,1.2
	c0,0.4,0.1,0.8,0.1,1.1l2.1,0.1v1.7L41.2,22.7z M33.6,21.1c1.6,0,3.1-0.4,4.4-1.1c1.2-0.7,2.2-1.8,2.8-3v-4.2h-4.7
	c-2.1,0-3.8,0.4-5,1.3c-1.2,0.7-1.9,1.9-1.9,3.3c0,1,0.4,2,1.2,2.7C31.3,20.8,32.4,21.1,33.6,21.1z"/>
<path class="st7" d="M46.4,12.4c0-3.3,0.7-6,2.1-8c1.3-2,3.6-3.1,5.9-3c1.4,0,2.7,0.3,3.9,1C59.4,3,60.4,4,61,5.1l0.3-3.3h2v20.7
	c0,2.7-0.7,4.8-2.2,6.4c-1.5,1.6-3.5,2.4-6.1,2.4c-1.1,0-2.2-0.1-3.2-0.4c-1-0.2-2-0.5-3-1l0.6-2c0.8,0.4,1.7,0.7,2.6,0.9
	c1,0.2,1.9,0.3,2.9,0.3c2,0,3.5-0.6,4.5-1.8c1-1.2,1.5-2.8,1.5-4.9v-2.6c-0.7,1-1.6,1.9-2.7,2.5c-1.2,0.6-2.5,0.9-3.8,0.9
	c-2.3,0.1-4.5-0.9-5.9-2.8s-2.1-4.4-2.1-7.5V12.4L46.4,12.4z M48.7,12.8c0,2.5,0.5,4.5,1.5,6s2.5,2.2,4.6,2.2c1.3,0.1,2.6-0.3,3.8-1
	c1-0.7,1.8-1.7,2.3-2.8V7.5c-0.5-1.2-1.2-2.2-2.2-3c-1.1-0.8-2.5-1.2-3.8-1.1c-1.9-0.1-3.7,0.9-4.6,2.5c-1,1.7-1.6,3.8-1.6,6.5V12.8
	z"/>
<path class="st7" d="M80.6,22.7c-0.2-0.7-0.3-1.3-0.3-1.8c-0.1-0.5-0.1-1-0.1-1.6c-0.8,1.1-1.9,2.1-3.1,2.7
	c-1.3,0.7-2.8,1.1-4.4,1.1c-2,0-3.6-0.5-4.8-1.6c-1.1-1.1-1.8-2.7-1.7-4.3c0-1.9,0.9-3.6,2.5-4.6c1.7-1.1,3.9-1.7,6.8-1.7h4.6V8.1
	c0.1-1.3-0.4-2.6-1.4-3.5c-1-0.8-2.3-1.3-4.1-1.3c-1.1,0-2.1,0.2-3.2,0.5c-0.9,0.3-1.7,0.7-2.4,1.3l-0.2,2.8h-1.9v-4
	c1-0.8,2.2-1.4,3.5-1.8c1.4-0.5,2.8-0.7,4.3-0.7c2.3,0,4.2,0.6,5.6,1.8s2.1,2.8,2.1,5v10.3c0,0.4,0,0.8,0,1.2c0,0.4,0.1,0.8,0.1,1.1
	l2.1,0.1v1.7L80.6,22.7z M73,21.1c1.6,0,3.1-0.4,4.4-1.1c1.2-0.7,2.2-1.8,2.8-3v-4.2h-4.7c-2.1,0-3.8,0.4-5,1.3
	c-1.1,0.7-1.9,2-1.9,3.3c0,1,0.4,2,1.2,2.7C70.7,20.8,71.8,21.1,73,21.1z"/>
</svg>
