<?xml version="1.0" encoding="utf-8"?>
<!-- Generator: Adobe Illustrator 21.0.0, SVG Export Plug-In . SVG Version: 6.00 Build 0)  -->
<svg version="1.1" id="Layer_1" xmlns="http://www.w3.org/2000/svg" xmlns:xlink="http://www.w3.org/1999/xlink" x="0px" y="0px"
	 viewBox="0 0 84 40" style="enable-background:new 0 0 84 40;" xml:space="preserve">
<style type="text/css">
	.st0{fill:#EF7826;}
	.st1{fill:#AAA9AB;}
	.st2{fill:#A4D062;}
	.st3{fill:#3CC1CC;}
	.st4{fill:#F6A81D;}
</style>
<g>
	<path class="st0" d="M82.8,27.1c-1.6,0-3.3,0-4.9,0c-0.4,0-0.4,0.1-0.3,0.5c0.2,0.5,0.7,0.9,1.2,1c0.9,0.3,1.8,0.2,2.5-0.5
		c0.2-0.2,0.3-0.1,0.4,0c0,0,0,0,0.1,0.1c0.7,0.7,0.7,0.8-0.2,1.3c-1.5,0.9-3.9,0.8-5.1-1.1c-0.8-1.4-0.5-3.5,0.7-4.5
		c1.4-1.1,3.3-1.1,4.7,0c0.4,0.4,0.7,0.9,0.9,1.4c0,0.1,0,0.2,0.1,0.2C82.8,26.1,82.8,26.6,82.8,27.1z M79.4,26c0.5,0,1.1,0,1.6,0
		c0.3,0,0.3-0.1,0.3-0.3c-0.1-0.5-0.3-0.8-0.7-1.1c-0.8-0.5-2-0.4-2.7,0.3c-0.2,0.2-0.4,0.5-0.4,0.8c0,0.2,0,0.3,0.2,0.3
		C78.3,26,78.8,26,79.4,26z"/>
	<path class="st1" d="M6.8,12.8c0.9,0,1.9,0,2.8,0c0.5,0,0.8,0.2,1,0.6c0.4,0.8,0.9,1.6,1.4,2.4c0.2,0.4,0.5,0.5,0.9,0.5
		c1.1,0,2.3,0,3.4,0c0.4,0,0.7-0.2,0.9-0.5c0.5-0.9,1.1-1.9,1.6-2.9c0.2-0.4,0.2-0.8,0-1.2c-0.5-0.9-1.1-1.8-1.6-2.8
		c-0.2-0.4-0.6-0.6-1-0.6c-1.1,0-2.2,0-3.3,0c-0.4,0-0.8,0.2-1,0.6c-0.4,0.8-0.9,1.5-1.3,2.3c-0.3,0.5-0.6,0.7-1.2,0.7
		c-1.8,0-3.6,0-5.4,0c-0.5,0-0.9-0.2-1.2-0.7C2,9.7,1.1,8.2,0.1,6.6c-0.2-0.4-0.2-0.7,0-1.1C1.1,3.8,2,2.2,3,0.6C3.2,0.2,3.5,0,4,0
		c1.9,0,3.7,0,5.6,0c0.4,0,0.8,0.2,1,0.5c0.7,1.2,1.4,2.4,2.1,3.6c0.2,0.4,0.2,0.7,0,1.1c-0.2,0.3-0.6,0.5-1,0.4
		c-0.4,0-0.6-0.3-0.8-0.6c-0.4-0.8-0.9-1.5-1.3-2.3C9.2,2.2,8.8,2,8.3,2c-1,0-2,0-3,0C4.8,2,4.4,2.2,4.1,2.7
		C3.6,3.6,3.1,4.5,2.5,5.5c-0.2,0.4-0.2,0.7,0,1.1C3,7.5,3.6,8.4,4.1,9.3C4.4,9.8,4.7,10,5.3,10c1.1,0,2.1,0,3.2,0
		c0.4,0,0.8-0.2,1-0.6c0.4-0.8,0.9-1.6,1.4-2.4c0.2-0.4,0.5-0.5,1-0.5c1.9,0,3.8,0,5.7,0c0.4,0,0.7,0.2,0.9,0.5
		c1,1.6,1.9,3.3,2.9,4.9c0.2,0.3,0.2,0.7,0,1.1c-1,1.7-1.9,3.3-2.9,5c-0.2,0.3-0.5,0.5-0.9,0.5c-1.9,0-3.8,0-5.7,0
		c-0.5,0-0.8-0.2-1-0.6c-0.4-0.8-0.9-1.5-1.3-2.3c-0.3-0.5-0.6-0.7-1.2-0.7c-1,0-2,0-3,0c-0.5,0-0.9,0.2-1.2,0.7
		c-0.5,0.9-1,1.8-1.6,2.7c-0.2,0.4-0.2,0.7,0,1.1c0.6,1,1.1,2,1.7,2.9c0.2,0.3,0.5,0.5,0.9,0.5c1.1,0,2.3,0,3.4,0
		c0.4,0,0.7-0.2,0.9-0.6c0.5-0.8,0.9-1.6,1.4-2.4c0.3-0.5,0.6-0.6,1.1-0.6c1.8,0,3.6,0,5.4,0c0.5,0,0.9,0.2,1.2,0.7
		c0.9,1.6,1.8,3.2,2.7,4.7c0.2,0.4,0.2,0.8,0,1.1c-1,1.7-1.9,3.3-2.9,5c-0.2,0.4-0.6,0.5-1,0.5c-1.9,0-3.8,0-5.6,0
		c-0.4,0-0.8-0.2-1-0.6c-0.7-1.2-1.3-2.3-2-3.5c-0.3-0.5-0.1-1.2,0.4-1.4c0.5-0.3,1.1-0.1,1.4,0.4c0.4,0.7,0.9,1.5,1.3,2.2
		c0.3,0.5,0.7,0.8,1.3,0.8c1,0,2,0,3,0c0.5,0,0.8-0.2,1-0.6c0.5-0.9,1-1.8,1.5-2.6c0.3-0.5,0.3-1,0-1.5c-0.5-0.8-1-1.6-1.4-2.5
		c-0.3-0.5-0.7-0.8-1.3-0.8c-1,0-2,0-3,0c-0.5,0-0.8,0.2-1.1,0.6c-0.4,0.8-0.9,1.5-1.3,2.3c-0.3,0.5-0.6,0.7-1.2,0.7
		c-1.8,0-3.6,0-5.4,0c-0.5,0-0.8-0.2-1.1-0.6c-0.9-1.6-1.8-3.2-2.8-4.8c-0.3-0.4-0.2-0.9,0-1.3c0.9-1.5,1.8-3.1,2.7-4.6
		c0.3-0.5,0.6-0.7,1.2-0.7C5,12.9,5.9,12.8,6.8,12.8z"/>
	<path class="st0" d="M26.8,23.2c0,2.1,0,4.1,0,6.2c0,0.4-0.1,0.6-0.5,0.5c-1,0-1,0-1-1c0-2.5,0-5,0-7.5c0-0.3,0.1-0.5,0.4-0.4
		c0.5,0,1,0,1.5,0c0.3,0,0.5,0.1,0.6,0.4c0.8,1.7,1.6,3.4,2.5,5.2c0.2-0.4,0.4-0.8,0.6-1.2c0.6-1.3,1.3-2.7,1.9-4
		c0.1-0.3,0.3-0.4,0.6-0.4c0.6,0,1.1,0,1.7,0c0.2,0,0.3,0,0.3,0.3c0,2.8,0,5.6,0,8.4c0,0.2-0.1,0.3-0.3,0.3
		c-1.3,0.1-1.3,0.1-1.3-1.2c0-1.8,0-3.7,0-5.5c-0.2,0-0.2,0.2-0.2,0.3c-0.9,1.8-1.8,3.5-2.7,5.3c-0.1,0.3-0.3,0.4-0.6,0.4
		c-0.3,0-0.5-0.1-0.6-0.4c-0.9-1.7-1.7-3.5-2.6-5.2C27,23.4,26.9,23.3,26.8,23.2C26.8,23.2,26.8,23.2,26.8,23.2z"/>
	<path class="st0" d="M24.7,12.4c0-2.6,2-4.6,4.7-4.6c2.7,0,4.8,2.1,4.7,4.7C34,15,32,17,29.4,17C26.7,17,24.7,15,24.7,12.4z
		 M32.5,12.4c0-1.8-1.4-3.2-3.1-3.2c-1.8,0-3.1,1.4-3.1,3.2c0,1.8,1.4,3.2,3.1,3.2C31.1,15.6,32.5,14.1,32.5,12.4z"/>
	<path class="st0" d="M37.3,11.1c0.9-1.1,2-1.3,3.3-0.9c1.2,0.4,2,1.6,2.1,2.9c0.1,1.1-0.2,2.2-1,3c-1.2,1.1-2.8,1.2-4.1,0.2
		c-0.1-0.1-0.2-0.2-0.3-0.2c0,0.1,0,0.1-0.1,0.1c-0.1,0.2,0.1,0.6-0.1,0.7c-0.4,0.1-0.9,0.1-1.3,0c-0.2,0-0.1-0.2-0.1-0.4
		c0-2.7,0-5.3,0-8c0-0.3-0.1-0.8,0.1-1c0.2-0.2,0.7,0,1-0.1c0.3,0,0.4,0.1,0.4,0.4c0,0.9,0,1.9,0,2.8C37.2,10.8,37.2,10.9,37.3,11.1
		z M39.2,15.7c1.2,0,2.1-1,2.1-2.2s-0.9-2.2-2.1-2.2c-1.1,0-2,1-2,2.2C37.1,14.7,38,15.7,39.2,15.7z"/>
	<path class="st0" d="M50.5,29c-1.5,1.2-3,1.3-4.3,0.3c-0.9-0.7-1.2-1.7-1.2-2.8c0-2,1.2-3.3,3.1-3.5c0.9-0.1,1.7,0.3,2.3,1
		c0.1-0.1,0.1-0.2,0.1-0.3c0-1,0-1.9,0-2.9c0-0.3,0-0.4,0.4-0.4c1.1,0,1.1,0,1.1,1.1c0,2.7,0,5.3,0,8c0,0.4-0.1,0.5-0.4,0.4
		c0,0-0.1,0-0.1,0C50.5,29.9,50.5,29.9,50.5,29z M50.5,26.5c0-1.3-0.9-2.2-2-2.3c-1.2,0-2.1,1-2.1,2.2c0,1.2,0.9,2.2,2,2.2
		C49.6,28.7,50.5,27.8,50.5,26.5z"/>
	<path class="st0" d="M41.2,27.1c-0.8,0-1.5,0-2.3,0c-0.3,0-0.3,0.1-0.3,0.4c0.2,0.6,0.6,0.9,1.2,1.1c0.9,0.3,1.8,0.2,2.5-0.5
		c0.2-0.2,0.3-0.1,0.4,0c0,0,0.1,0.1,0.1,0.1c0.6,0.7,0.6,0.7-0.2,1.2c-1.3,0.8-3.1,0.7-4.3-0.1c-1.4-1-1.5-2.9-1.1-4.2
		c0.5-1.4,2-2.2,3.5-2.1c1.6,0.2,2.6,1,2.9,2.3c0.1,0.5,0.1,1,0.1,1.6c0,0.2-0.1,0.2-0.3,0.2C42.8,27.1,42,27.1,41.2,27.1z M40.5,26
		c0.4,0,0.8,0,1.2,0c0.2,0,0.6,0.1,0.7-0.1c0.1-0.3,0-0.6-0.2-0.8c-0.2-0.3-0.4-0.5-0.7-0.6c-0.8-0.4-1.8-0.2-2.5,0.4
		c-0.2,0.2-0.4,0.5-0.5,0.8c-0.1,0.2,0,0.3,0.2,0.3C39.4,26,39.9,26,40.5,26z"/>
	<path class="st0" d="M66.4,10.1c0.5,0,0.9,0,1.4,0c0.2,0,0.2,0.1,0.3,0.3c0.6,1.4,1.2,2.9,1.7,4.3c0,0.1,0.1,0.2,0.2,0.4
		c0.3-0.7,0.5-1.2,0.8-1.8c0.4-0.9,0.8-1.8,1.1-2.8c0.1-0.2,0.2-0.3,0.5-0.3c0.3,0,0.6,0,0.9,0c0.3,0,0.3,0.1,0.2,0.3
		c-1.1,2.6-2.1,5.2-3.2,7.8c-0.6,1.4-2.2,1.8-3.5,0.9c-0.2-0.1-0.3-0.3-0.1-0.5c0-0.1,0.1-0.1,0.1-0.2c0.1-0.2,0.2-0.5,0.4-0.6
		c0.2-0.1,0.4,0.2,0.6,0.2c0.4,0.1,0.8,0.1,1.1-0.2c0.3-0.3,0.5-0.7,0.3-1.1c-0.8-2.1-1.6-4.1-2.5-6.2
		C66.6,10.4,66.5,10.3,66.4,10.1z"/>
	<path class="st0" d="M47.9,14.1c-0.8,0-1.5,0-2.3,0c-0.3,0-0.4,0.1-0.3,0.4c0.2,0.7,1.2,1.3,2.2,1.2c0.6-0.1,1.2-0.2,1.6-0.7
		c0,0,0.1-0.1,0.1-0.1c0.4,0.1,0.5,0.5,0.8,0.7c0.2,0.2,0,0.3-0.1,0.4c-0.6,0.6-1.4,0.8-2.2,0.9c-1.8,0.2-3.4-0.9-3.7-2.6
		c-0.4-2,0.5-3.7,2.3-4.2c1.7-0.5,3.6,0.2,4.2,1.7c0.3,0.7,0.2,1.4,0.2,2.1c0,0.3-0.2,0.2-0.3,0.2C49.5,14.1,48.7,14.1,47.9,14.1z
		 M47.2,13c0.5,0,1.1,0,1.6,0c0.3,0,0.3-0.1,0.3-0.3c-0.1-0.8-0.8-1.4-1.7-1.4c-1,0-1.9,0.6-2.1,1.3c0,0,0,0,0,0
		c0,0.2,0,0.4,0.3,0.4C46.2,13,46.7,13,47.2,13z"/>
	<path class="st0" d="M69.7,24.2c1.1-1.5,2.7-1.4,3.7-0.8c0.8,0.5,1.1,1.3,1.1,2.2c0,1.3,0,2.6,0,4c0,0.3-0.1,0.4-0.4,0.3
		c-0.2,0-0.5,0-0.7,0c-0.3,0-0.4-0.1-0.4-0.4c0-1.1,0-2.1,0-3.2c0-0.1,0-0.2,0-0.2c0-1.1-0.6-1.7-1.5-1.7c-1,0-1.8,0.7-1.8,1.8
		c0,1.2,0,2.3,0,3.5c0,0.3,0,0.4-0.3,0.4c-0.2,0-0.5,0-0.7,0c-0.3,0-0.4,0-0.4-0.3c0-2,0-4.1,0-6.1c0-0.3,0-0.4,0.3-0.4
		c0.3,0,0.8-0.1,1,0.1C69.8,23.3,69.6,23.8,69.7,24.2z"/>
	<path class="st0" d="M54.5,10c0.7,0,1.4,0.2,2,0.5c0.2,0.1,0.3,0.2,0.1,0.4c-0.1,0.2-0.2,0.6-0.4,0.7c-0.2,0.2-0.5-0.2-0.7-0.2
		c-0.5-0.2-1-0.2-1.6-0.1c-0.3,0.1-0.6,0.2-0.7,0.6c0,0.4,0.3,0.5,0.6,0.6c0.6,0.2,1.2,0.3,1.7,0.5c1,0.4,1.5,1.1,1.4,2
		c-0.1,1-0.7,1.7-1.8,1.9c-1.2,0.2-2.4-0.1-3.4-0.8c-0.2-0.1-0.2-0.2-0.1-0.4c0.2-0.3,0.3-0.6,0.5-0.8c0.3-0.2,0.5,0.2,0.8,0.4
		c0.5,0.2,1.1,0.4,1.6,0.4c0.2,0,0.4,0,0.6-0.1c0.5-0.3,0.5-0.8,0-1.1c-0.3-0.2-0.7-0.3-1.1-0.5c-0.4-0.1-0.8-0.3-1.2-0.5
		c-1.4-0.7-1.1-2.4-0.1-3.1C53.3,10.1,53.9,10,54.5,10z"/>
	<path class="st0" d="M60.4,30c-1.9,0-3.4-1.4-3.4-3.2c-0.1-2,1.2-3.6,3.1-3.8c1.1-0.1,2,0.1,2.9,0.8c0.2,0.1,0.3,0.3,0,0.5
		c0,0,0,0-0.1,0.1c-0.2,0.2-0.3,0.5-0.6,0.6c-0.3,0.1-0.5-0.2-0.7-0.4c-1-0.5-2.2-0.3-2.9,0.6c-0.6,0.8-0.5,2,0.2,2.8
		c0.8,0.8,2,0.9,2.9,0.3c0.6-0.4,0.6-0.4,1.1,0.1c0.3,0.3,0.3,0.4,0,0.7C62.2,29.6,61.4,30,60.4,30z"/>
	<path class="st0" d="M62.4,13.2c0-0.5,0-1.1,0-1.6c0-0.3-0.1-0.4-0.3-0.3c-0.4,0.1-0.6-0.1-0.5-0.5c0-0.1,0-0.2,0-0.3
		c0-0.2,0.1-0.3,0.3-0.3c0.6,0,0.6,0,0.6-0.6c0-0.4,0-0.8,0-1.2C62.4,8,62.5,8,62.7,8c1.1,0,1.1,0,1.1,1.1c0,0.3-0.1,0.8,0.1,1
		c0.2,0.2,0.6,0.1,1,0.1c0.7,0,0.7,0,0.7,0.7c0,0.4-0.1,0.5-0.4,0.5c-0.3,0-0.7,0-1,0c-0.2,0-0.3,0-0.3,0.3c0,1,0,2.1,0,3.1
		c0,0.4,0.1,0.7,0.5,0.9c0.4,0.2,0.8,0.2,1.1-0.1c0.2-0.2,0.3-0.2,0.4,0.1c0,0,0,0,0,0c0.5,0.8,0.4,0.9-0.4,1.2
		c-1.5,0.6-3-0.4-3-2.1C62.4,14.2,62.4,13.7,62.4,13.2z"/>
	<path class="st1" d="M25,39.7c0.6-1.4,1.2-2.7,1.8-4.1c0.3-0.7,0.7-1.4,1-2.2c0.1-0.3,0.3-0.4,0.6-0.4c0.3,0,0.4,0.1,0.6,0.4
		c0.8,1.9,1.7,3.9,2.6,5.8c0.1,0.1,0.3,0.3,0.1,0.5c-0.2,0.1-0.7,0-0.8-0.2c-0.2-0.4-0.4-0.8-0.5-1.1C30.2,38.1,30,38,29.8,38
		c-1,0-1.9,0-2.9,0c-0.3,0-0.4,0.1-0.5,0.3c-0.1,0.2-0.2,0.5-0.3,0.7C25.8,39.8,25.8,39.8,25,39.7z M28.4,34.1c0,0-0.1,0-0.1,0
		c-0.4,1-0.9,2-1.3,3c-0.1,0.2,0,0.2,0.2,0.2c0.8,0,1.6,0,2.4,0c0.2,0,0.3,0,0.2-0.2C29.2,36.1,28.8,35.1,28.4,34.1z"/>
	<path class="st1" d="M57.8,39.1c-0.5,0.4-1,0.6-1.6,0.6c-1.3,0.1-2.1-0.9-1.8-1.9c0.2-0.6,0.8-1,1.5-1.1c0.5,0,1,0,1.5,0
		c0.3,0,0.4-0.1,0.4-0.4c0-0.6-0.4-1-1-1c-0.6-0.1-1.1,0.1-1.5,0.4c-0.2,0.1-0.3,0.1-0.5-0.1c-0.2-0.3,0-0.3,0.2-0.4
		c0.8-0.5,1.7-0.6,2.7-0.3c0.6,0.2,1,0.7,1,1.4c0,1,0,2.1,0.1,3.1c0,0.3,0,0.4-0.4,0.4c-0.3,0-0.5-0.1-0.4-0.4
		C57.9,39.3,57.8,39.2,57.8,39.1z M56.8,37.4c-0.3,0-0.7,0-1,0.1c-0.3,0.1-0.6,0.2-0.7,0.6c-0.1,0.4,0.1,0.7,0.4,0.9
		c0.7,0.5,2,0,2.3-0.7c0.2-0.5,0-0.8-0.5-0.8C57.2,37.4,57.1,37.4,56.8,37.4z"/>
	<path class="st1" d="M43.2,39.7c-1.5,0-2.5-1-2.5-2.5c0-1.5,1-2.5,2.5-2.5c1.5,0,2.6,1,2.5,2.5C45.7,38.8,44.6,39.8,43.2,39.7z
		 M44.9,37.2c0-1.1-0.7-1.8-1.8-1.8c-1,0-1.8,0.8-1.8,1.8c0,1,0.7,1.8,1.7,1.8C44.2,39.1,44.9,38.3,44.9,37.2z"/>
	<path class="st1" d="M68.5,39.7c-1.4,0.1-2.5-1-2.5-2.5c0-1.5,1-2.5,2.6-2.5c1.5,0,2.5,1,2.5,2.5C71,38.7,70,39.7,68.5,39.7z
		 M68.5,39.1c1,0,1.8-0.8,1.8-1.8c0-1-0.8-1.9-1.8-1.8c-1.1,0-1.7,0.7-1.8,1.8C66.7,38.4,67.5,39.1,68.5,39.1z"/>
	<path class="st0" d="M55.4,26.5c0,1,0,2,0,3c0,0.4-0.1,0.5-0.4,0.4c-0.2,0-0.4,0-0.6,0c-0.3,0-0.4,0-0.4-0.4c0-2,0-4,0-6
		c0-0.3,0.1-0.4,0.4-0.4c1.1,0,1.1,0,1.1,1.1C55.4,24.9,55.4,25.7,55.4,26.5z"/>
	<path class="st1" d="M73,35.7c0.5-0.8,1.2-1.1,2-1c1,0,1.7,0.7,1.8,1.7c0,1,0,2,0,3c0,0.3-0.2,0.3-0.4,0.3c-0.2,0-0.4,0-0.4-0.3
		c0-0.8,0-1.6,0-2.4c0-0.9-0.4-1.4-1.1-1.5c-0.9-0.1-1.6,0.3-1.8,1.1c-0.1,0.2-0.1,0.5-0.1,0.7c0,0.7,0,1.4,0,2.1
		c0,0.3-0.2,0.3-0.4,0.3c-0.2,0-0.4,0-0.4-0.3c0-1.5,0-3,0-4.5c0-0.3,0.2-0.3,0.3-0.3c0.2,0,0.4-0.1,0.4,0.3
		C73,35.2,73,35.4,73,35.7z"/>
	<path class="st0" d="M64.8,26.5c0-1,0-2,0-3c0-0.3,0.1-0.3,0.3-0.3c1.1,0,1.1,0,1.1,1.1c0,1.8,0,3.6,0,5.3c0,0.3-0.1,0.4-0.4,0.4
		c-0.3,0-0.8,0.1-1-0.1c-0.2-0.2-0.1-0.7-0.1-1C64.8,28,64.8,27.2,64.8,26.5z"/>
	<path class="st0" d="M58.6,13.5c0-1,0-2,0-3c0-0.3,0.1-0.4,0.4-0.4c0.3,0,0.8-0.1,1,0.1c0.2,0.2,0.1,0.7,0.1,1c0,1.8,0,3.6,0,5.3
		c0,0.3-0.1,0.4-0.4,0.4c-1,0-1,0-1-1C58.6,15.1,58.6,14.3,58.6,13.5z"/>
	<path class="st1" d="M33.8,39.7c-0.6,0-1.1-0.1-1.6-0.4c-0.3-0.2-0.3-0.3-0.1-0.6c0.2-0.3,0.3-0.1,0.5,0c0.5,0.3,1.1,0.4,1.7,0.3
		c0.3,0,0.6-0.2,0.7-0.5s-0.1-0.6-0.4-0.7c-0.4-0.2-0.8-0.3-1.3-0.4c-0.7-0.3-1.1-0.7-1-1.3c0-0.7,0.5-1.2,1.2-1.3
		c0.6-0.1,1.2,0,1.8,0.2c0.3,0.1,0.3,0.3,0.2,0.5c-0.1,0.2-0.2,0.3-0.4,0.2c-0.4-0.2-0.9-0.3-1.3-0.2c-0.4,0-0.6,0.2-0.7,0.5
		c-0.1,0.4,0.2,0.6,0.5,0.7c0.4,0.1,0.8,0.3,1.2,0.4c0.8,0.3,1.2,0.8,1.1,1.5c-0.1,0.8-0.7,1.2-1.5,1.3
		C34.1,39.7,33.9,39.7,33.8,39.7z"/>
	<path class="st1" d="M38.1,39.7c-0.6,0-1.2-0.2-1.7-0.5c-0.3-0.2-0.1-0.4,0-0.6c0.1-0.3,0.3,0,0.4,0c0.5,0.4,1.1,0.5,1.7,0.4
		c0.3,0,0.6-0.2,0.7-0.6c0.1-0.4-0.2-0.6-0.5-0.7c-0.4-0.1-0.8-0.2-1.1-0.4c-0.8-0.3-1.1-0.7-1.1-1.3c0-0.7,0.4-1.2,1.2-1.3
		c0.6-0.1,1.2-0.1,1.8,0.2c0.3,0.1,0.3,0.3,0.2,0.5c-0.1,0.3-0.3,0.2-0.5,0.1c-0.4-0.2-0.8-0.3-1.3-0.2c-0.3,0-0.6,0.1-0.7,0.5
		c-0.1,0.4,0.1,0.6,0.4,0.7c0.4,0.2,0.8,0.3,1.3,0.4c0.8,0.3,1.2,0.8,1,1.5c-0.1,0.7-0.7,1.2-1.5,1.2C38.3,39.7,38.2,39.7,38.1,39.7
		z"/>
	<path class="st1" d="M49,39.7c-1.3,0.1-2.3-0.9-2.4-2.1c-0.2-1.5,0.5-2.6,1.8-2.9c0.8-0.2,1.6-0.1,2.3,0.4c0.2,0.1,0.2,0.3,0.1,0.5
		c-0.1,0.2-0.2,0.3-0.5,0.1c-0.6-0.4-1.2-0.5-1.9-0.3C47.4,35.9,47,37,47.4,38c0.4,0.9,1.4,1.3,2.4,0.9c0.2-0.1,0.4-0.2,0.5-0.3
		c0.2-0.2,0.3-0.1,0.5,0.1c0.2,0.2,0.1,0.3,0,0.4C50.2,39.6,49.6,39.7,49,39.7z"/>
	<path class="st1" d="M62,39c0,0,0.2,0,0.3-0.1c0.2-0.1,0.4-0.2,0.5,0.1c0.1,0.3,0,0.4-0.2,0.5c-1.2,0.5-2.1,0-2.1-1.3
		c0-0.8,0-1.6,0-2.4c0-0.3-0.1-0.4-0.3-0.4c-0.2,0-0.4,0-0.4-0.3c0-0.3,0.2-0.3,0.4-0.3c0.3,0,0.4-0.1,0.4-0.4c0-0.2,0-0.3,0-0.5
		c0-0.4,0.2-0.5,0.6-0.4c0.1,0,0.2,0.1,0.2,0.2c0,0.1,0,0.1,0,0.2c0,0.3-0.2,0.8,0.1,0.9c0.2,0.2,0.6,0,1,0.1c0.2,0,0.5-0.2,0.5,0.3
		c0,0.3-0.1,0.4-0.4,0.3c-0.1,0-0.1,0-0.2,0c-1.1,0-1.1,0-1.1,1.1c0,0.6,0,1.1,0,1.7C61.2,38.8,61.4,39,62,39z"/>
	<path class="st1" d="M53,37.2c0,0.7,0,1.4,0,2.2c0,0.3-0.1,0.3-0.4,0.3c-0.2,0-0.4,0-0.4-0.3c0-1.5,0-2.9,0-4.4
		c0-0.3,0.1-0.3,0.4-0.3c0.2,0,0.4,0,0.4,0.3C53,35.8,53,36.5,53,37.2z"/>
	<path class="st1" d="M64.7,37.2c0,0.7,0,1.4,0,2.2c0,0.3-0.2,0.3-0.4,0.3c-0.2,0-0.4,0-0.4-0.3c0-1.5,0-2.9,0-4.4
		c0-0.3,0.1-0.3,0.4-0.3c0.2,0,0.4,0,0.4,0.3C64.7,35.8,64.7,36.5,64.7,37.2z"/>
	<path class="st0" d="M54.7,22c-0.5,0-0.9-0.4-0.9-0.9c0-0.5,0.4-0.9,0.9-0.9c0.5,0,0.9,0.4,0.9,0.9C55.6,21.6,55.2,22,54.7,22z"/>
	<path class="st0" d="M65.5,22c-0.5,0-0.9-0.4-0.9-0.9c0-0.5,0.4-0.9,0.9-0.9c0.5,0,0.9,0.4,0.9,0.9C66.4,21.6,66,22,65.5,22z"/>
	<path class="st0" d="M59.3,9c-0.5,0-0.9-0.4-0.9-0.9c0-0.5,0.4-0.9,0.9-0.9c0.5,0,0.9,0.4,0.9,0.9C60.2,8.6,59.8,9,59.3,9z"/>
	<path class="st1" d="M64.8,33.3c0,0.3-0.2,0.6-0.5,0.5c-0.3,0-0.5-0.2-0.5-0.5c0-0.3,0.1-0.5,0.5-0.5C64.6,32.8,64.8,33,64.8,33.3z
		"/>
	<path class="st1" d="M53.2,33.4c0,0.3-0.2,0.5-0.5,0.5c-0.3,0-0.5-0.2-0.5-0.5c0-0.3,0.2-0.5,0.5-0.5C52.9,32.8,53.2,33,53.2,33.4z
		"/>
	<path class="st1" d="M78.3,34.1c-0.4,0.3-0.8,0.3-1.1,0c-0.3-0.4-0.3-0.9,0.1-1.1c0.3-0.3,0.8-0.2,1.1,0.2c0,0,0,0,0,0
		c-0.5-0.3-0.8-0.3-1.1,0c-0.2,0.2-0.2,0.5,0,0.8C77.5,34.3,77.9,34.3,78.3,34.1C78.3,34.1,78.3,34.1,78.3,34.1z"/>
	<path class="st1" d="M78.4,33.1c0.3,0.4,0.3,0.7-0.1,1c0,0,0,0,0,0C78.4,33.8,78.5,33.5,78.4,33.1C78.3,33.1,78.4,33.1,78.4,33.1z"
		/>
	<path class="st1" d="M78.1,34c-0.2-0.2-0.4-0.5-0.6-0.1c0.1-0.3-0.3-0.8,0.2-0.8C78.4,33.1,77.9,33.7,78.1,34z M77.8,33.3
		c-0.1,0-0.2,0-0.2,0.2c0,0.1,0,0.2,0.1,0.2c0.1,0,0.2,0,0.2-0.2C77.9,33.3,77.9,33.3,77.8,33.3z"/>
	<polygon class="st2" points="5.8,4.2 7.9,4.2 8.9,5.9 7.9,7.8 5.8,7.8 4.7,6 	"/>
	<polygon class="st3" points="13.6,10.6 15.7,10.6 16.8,12.3 15.7,14.2 13.6,14.2 12.6,12.4 	"/>
	<polygon class="st4" points="5.8,17.1 7.8,17.1 8.9,18.8 7.9,20.7 5.8,20.7 4.7,18.9 	"/>
	<polygon class="st0" points="13.6,23.4 15.7,23.4 16.8,25.1 15.7,27 13.6,27 12.6,25.2 	"/>
</g>
</svg>
