<?xml version="1.0" encoding="utf-8"?>
<!-- Generator: Adobe Illustrator 21.0.0, SVG Export Plug-In . SVG Version: 6.00 Build 0)  -->
<svg version="1.1" id="Layer_1" xmlns="http://www.w3.org/2000/svg" xmlns:xlink="http://www.w3.org/1999/xlink" x="0px" y="0px"
	 viewBox="0 0 175 42" style="enable-background:new 0 0 175 42;" xml:space="preserve">
<style type="text/css">
	.st0{fill:#07693A;}
	.st1{fill:#262223;}
	.st2{fill:#272425;}
	.st3{fill:#B0036F;}
	.st4{fill:#EC1E27;}
</style>
<path class="st0" d="M27.6,23.4c-0.2-0.9,0.1-1.1,0.9-1.1c1.2,0,2.4,0,3.6,0c0.5,0,0.7,0.1,0.7,0.6c0,4.1,0,8.3-0.1,12.4
	c-0.1,3-1.7,5-4.6,5.7c-2.3,0.6-4.5,0.5-6.7-0.4c-1.6-0.7-2.6-1.8-3.1-3.5c-0.1-0.4-0.1-0.7,0.5-0.7c1,0,1.9,0,2.9,0
	c0.8,0,1.4,0,1.9,0.8c0.5,0.8,1.5,0.7,2.4,0.6c0.8-0.2,1.3-0.7,1.5-1.5c0.1-0.5,0.1-1,0.2-1.6c-0.5,0-0.7,0.3-1,0.5
	c-2.6,1.4-5.5,1-7.3-0.8c-2.7-2.8-2.4-8.7,0.6-11.1c1.8-1.5,4.9-1.6,6.9-0.4C27,23.1,27.2,23.2,27.6,23.4z M27.7,28.8
	c0-1.3-0.6-2.3-1.7-2.7c-1-0.3-2-0.1-2.7,0.7c-1.1,1.2-1,3.4,0.1,4.5c0.5,0.5,1,0.7,1.6,0.7C26.6,32.1,27.7,30.8,27.7,28.8z"/>
<path class="st0" d="M40.2,23.3c1.6-1.2,3.1-1.7,4.9-1.4c2.2,0.4,3.5,1.8,3.9,4.2c0.3,1.9,0.1,3.8,0.1,5.6c0,1.2,0,2.4,0,3.6
	c0,0.5-0.2,0.6-0.6,0.6c-1.3,0-2.7,0-4,0c-0.5,0-0.6-0.2-0.6-0.6c0-2.1,0-4.1,0-6.1c0-0.5,0-1-0.2-1.5c-0.2-0.8-0.8-1.2-1.7-1.3
	c-0.8,0-1.3,0.4-1.6,1.1c-0.2,0.5-0.2,1-0.2,1.5c0,2.1,0,4.2,0,6.2c0,0.6-0.2,0.7-0.7,0.7c-1.3,0-2.6,0-3.9,0
	c-0.5,0-0.6-0.1-0.6-0.6c0-5.3,0-10.6,0-16c0-0.5,0.1-0.6,0.6-0.6c1.3,0,2.7,0,4,0c0.5,0,0.6,0.2,0.6,0.7
	C40.2,20.6,40.2,21.9,40.2,23.3z"/>
<path class="st0" d="M43.8,17c-2,1.7-4.2,2-6.5,1c-2.5-1.1-4-3.9-3.8-6.9c0.1-1.2,0.3-2.4,0.8-3.5c2-4.2,6.7-4,9-2.4
	c0.2,0.1,0.4,0.4,0.7,0.4c-0.2-0.8,0.3-0.9,0.9-0.8c1.2,0,2.4,0,3.6,0c0.5,0,0.7,0.1,0.7,0.6c0,4,0,8.1,0,12.1
	c0,0.5-0.1,0.6-0.6,0.6c-1.2,0-2.4,0-3.6,0C43.9,18.2,43.9,18.2,43.8,17z M44.1,11.2c0-1.7-1.1-2.9-2.7-3c-1.5,0-2.7,1.3-2.7,2.9
	c0,1.8,1.1,3.2,2.7,3.2C43,14.3,44.1,13,44.1,11.2z"/>
<path class="st0" d="M32.4,13.8c-0.6,2-1.7,3.4-3.6,4.2c-1.7,0.6-3.5,0.7-5.4,0.4c-5.5-1.1-7.1-7.6-4.6-11.3
	c1.8-2.6,4.4-3.3,7.3-2.9c4.8,0.6,6.4,3.8,6.6,7.9c0,0.6-0.3,0.6-0.7,0.6c-2.8,0-5.5,0-8.3,0c-0.8,0-0.9,0.1-0.6,0.9
	c0.6,1.4,2.5,1.8,3.8,0.7c0.4-0.3,0.7-0.5,1.2-0.4C29.5,13.8,30.9,13.8,32.4,13.8z M25.2,9.3c0.6,0,1.1,0,1.7,0
	c0.7,0,0.6-0.2,0.4-0.7c-0.8-1.5-3-1.5-4-0.1C23.2,8.8,22.9,9,23,9.2c0.1,0.3,0.4,0.1,0.6,0.1C24.2,9.3,24.7,9.3,25.2,9.3z"/>
<path class="st0" d="M51.7,13.3c0-1.4,0-2.7,0-4.1c0-0.6-0.1-0.7-0.7-0.7c-1.3,0-1.3,0-1.3-1.3c0-0.3,0-0.6,0-1c0-1.5,0-1.5,1.5-1.6
	c0.5,0,0.5-0.2,0.5-0.6c0-0.9,0-1.8,0-2.8c0-0.5,0.2-0.6,0.6-0.6c1.3,0,2.7,0,4,0C56.9,0.8,57,1,57,1.5c0,0.8,0,1.7,0,2.5
	c0,0.6,0.1,0.8,0.8,0.8c1.2,0,1.2,0,1.2,1.2c0,0.3,0,0.6,0,1c0,0.5,0.1,1.1-0.1,1.5c-0.2,0.4-0.9,0.1-1.4,0.1C56.8,8.6,57,9,57,9.3
	c0,2.7,0,5.4,0,8.1c0,0.6-0.1,0.8-0.8,0.8c-1.3-0.1-2.5,0-3.8,0c-0.5,0-0.7-0.1-0.7-0.7C51.7,16.1,51.7,14.7,51.7,13.3z"/>
<path class="st0" d="M51.7,31c0-1.3,0-2.7,0-4c0-0.6-0.2-0.7-0.7-0.7c-1.3,0-1.3,0-1.3-1.2c0-0.6,0-1.3,0-1.9c0-0.5,0.1-0.7,0.7-0.7
	c1.3,0,1.3,0,1.3-1.3c0-0.7,0-1.4,0-2.1c0-0.5,0.2-0.6,0.6-0.6c1.4,0,2.8,0,4.2,0c0.4,0,0.5,0.2,0.5,0.6c0,0.9,0,1.8,0,2.8
	c0,0.5,0.1,0.7,0.6,0.6c0.2,0,0.5,0,0.7,0c0.6-0.1,0.7,0.2,0.7,0.7c0,0.8,0,1.6,0,2.4c0,0.6-0.2,0.8-0.8,0.8c-1.2,0-1.2,0-1.2,1.2
	c0,2.5,0,5.1,0,7.6c0,0.5-0.1,0.7-0.7,0.7c-1.3,0-2.7,0-4,0c-0.5,0-0.6-0.1-0.6-0.6C51.7,33.8,51.7,32.4,51.7,31z"/>
<path class="st1" d="M138.3,21c-0.1-2,0-3.9-0.1-5.9c0-0.4,0.2-0.4,0.5-0.4c0.3,0,0.5-0.1,0.5,0.4c0,2.3,0,4.7,0,7.1
	c0,0.3-0.1,0.3-0.4,0.4c-0.5,0-0.7-0.1-1-0.5c-1.2-1.9-2.5-3.8-3.5-5.9c0,0.5,0,0.9,0,1.3c0,1.6,0,3.2,0,4.8c0,0.2,0,0.3-0.3,0.3
	c-0.1,0-0.3,0-0.4,0c-0.2,0-0.3-0.1-0.3-0.3c0-2.4,0-4.8,0-7.2c0-0.2,0.1-0.3,0.3-0.3c0.6-0.1,1,0.1,1.3,0.7
	C136,17.2,137.3,19,138.3,21z"/>
<path class="st1" d="M95.3,29.8c0-1.2,0-2.3,0-3.5c0-0.2,0-0.3,0.3-0.4c1.2-0.1,2.3-0.2,3.5,0.1c1.6,0.4,2.6,1.6,2.6,3.2
	c0,0.9-0.1,1.8-0.5,2.6c-0.6,1.2-1.7,1.7-3,1.9c-0.9,0.1-1.8,0.1-2.6,0c-0.2,0-0.3-0.1-0.3-0.3C95.3,32.1,95.3,31,95.3,29.8z
	 M96.4,29.7c0,0.7,0,1.4,0,2c0,1.2,0,1.2,1.2,1.1c1.6,0,2.7-0.8,3-2.2c0.1-0.5,0.1-1,0.1-1.5c-0.1-1.3-0.8-2.1-2-2.4
	c-0.7-0.2-1.3-0.1-2-0.1c-0.3,0-0.3,0.1-0.3,0.4C96.4,27.9,96.4,28.8,96.4,29.7z"/>
<path class="st1" d="M106.4,17.6c1.4-1.2,2.5-1.2,3.3,0.2c0.4-0.5,0.8-1,1.5-1c1.2-0.2,2.1,0.5,2.2,1.8c0.1,1.2,0,2.5,0,3.7
	c0,0.1-0.1,0.2-0.2,0.2c-0.8,0.1-0.8,0.1-0.8-0.7c0-1,0.1-2-0.1-3c-0.1-0.8-0.6-1.2-1.2-1.2c-0.7,0-1.2,0.6-1.2,1.4c0,1,0,2.1,0,3.1
	c0,0.3,0,0.4-0.4,0.4c-0.7,0-0.7,0-0.7-0.7c0-0.9,0-1.8,0-2.8c0-0.7-0.3-1.2-0.8-1.4c-0.7-0.2-1.5,0.3-1.7,1.1c0,0.2,0,0.3,0,0.5
	c0,0.9,0,1.8,0,2.7c0,0.5,0,0.5-0.5,0.5c-0.4,0-0.5-0.1-0.5-0.5c0-1.6,0-3.2,0-4.9c0-0.2,0-0.3,0.3-0.3c0,0,0.1,0,0.1,0
	c0.4-0.1,0.6,0.1,0.5,0.5C106.4,17.4,106.3,17.5,106.4,17.6z"/>
<path class="st0" d="M5,23.6c1.1-1.1,2.3-1.7,3.7-1.8c0.6,0,0.8,0.1,0.8,0.7c0,1.1,0,2.1,0,3.2c0,0.4-0.1,0.6-0.6,0.6
	c-0.1,0-0.1,0-0.2,0C6,26.1,5.1,27.7,5.1,30c0,1.7,0,3.5,0,5.2c0,0.5-0.1,0.7-0.7,0.7c-1.3,0-2.5,0-3.8,0c-0.4,0-0.6-0.1-0.6-0.6
	c0-4.1,0-8.1,0-12.2c0-0.5,0.1-0.6,0.6-0.6c1,0,2,0.1,3,0C4.6,22.4,5.1,22.5,5,23.6z"/>
<path class="st2" d="M97.1,21.6c-1.2,1.6-3.4,1.1-4.1-0.6c-0.3-0.9-0.3-1.9,0.1-2.8c0.1-0.3,0.3-0.6,0.6-0.8c0.8-0.8,2.4-1,3.3,0.1
	c0-0.8,0-1.5,0-2.3c0-0.1,0-0.2,0-0.3c0-0.7,0-0.7,0.7-0.7c0.3,0,0.3,0.1,0.3,0.3c0,2.5,0,5.1,0,7.6c0,0.2-0.1,0.3-0.3,0.3
	c-0.1,0-0.2,0-0.3,0c-0.3,0-0.4-0.1-0.4-0.3C97.1,22,97.1,21.8,97.1,21.6z M97,19.7c0-0.2,0-0.4,0-0.6c0-0.7-0.4-1.3-1.1-1.5
	c-0.7-0.2-1.4,0.1-1.7,0.7c-0.5,0.8-0.5,1.7-0.1,2.5c0.3,0.6,0.8,0.9,1.5,0.9c0.6,0,1.1-0.5,1.3-1.1C97,20.3,97,20,97,19.7z"/>
<path class="st1" d="M91.3,28.6c0-1,0-1.9,0-2.8c0-0.3,0.1-0.4,0.4-0.4c0.7,0,0.7,0,0.7,0.7c0,2.4,0,4.9,0,7.3
	c0,0.2-0.1,0.2-0.2,0.3c-0.7,0-0.7,0-0.7-0.9c0,0-0.1,0-0.1,0.1c-0.7,1.2-2.9,1.4-3.8-0.3c-0.6-1.1-0.5-2.2,0-3.3
	C88.1,27.9,90,27.4,91.3,28.6z M91.3,30.9c0-0.2,0-0.4,0-0.6c0-0.7-0.4-1.3-1.1-1.5c-0.6-0.2-1.3,0.1-1.7,0.6
	c-0.5,0.9-0.6,1.9,0,2.8c0.3,0.6,0.9,0.8,1.5,0.7c0.6-0.1,1-0.4,1.2-1C91.3,31.5,91.3,31.2,91.3,30.9z"/>
<path class="st2" d="M75,22.5c0.6-1.8,1.2-3.6,1.8-5.4c0.2-0.7,0.5-1.4,0.7-2.1c0.1-0.2,0.2-0.3,0.4-0.3c0.9,0,0.9,0,1.2,0.8
	c0.8,2.2,1.5,4.4,2.3,6.6c0.1,0.3,0,0.3-0.2,0.3c-0.7,0-0.8,0-1-0.7c-0.2-0.5-0.3-1-0.5-1.5c-0.1-0.2-0.2-0.3-0.4-0.3
	c-0.7,0-1.4,0-2.1,0c-0.2,0-0.3,0.1-0.4,0.3c-0.2,0.6-0.4,1.2-0.6,1.8c-0.1,0.3-0.2,0.4-0.5,0.4C75.4,22.4,75.2,22.5,75,22.5z
	 M78.2,15.6c-0.3,1.3-0.8,2.4-1.1,3.6c0.8,0,1.5,0,2.3,0C79,18,78.5,16.9,78.2,15.6z"/>
<path class="st0" d="M15.9,29.2c0,2,0,3.9,0,5.9c0,0.6-0.1,0.8-0.7,0.8c-1.3,0-2.5,0-3.8,0c-0.5,0-0.6-0.1-0.6-0.6c0-4,0-8.1,0-12.1
	c0-0.6,0.2-0.7,0.7-0.6c1.3,0,2.5,0,3.8,0c0.6,0,0.7,0.2,0.7,0.7C15.9,25.2,15.9,27.2,15.9,29.2z"/>
<path class="st2" d="M169.2,19.7c0,2.1-1.7,3.4-3.6,2.8c-1.1-0.3-1.6-1.1-1.8-2.2c-0.3-1.6,0.5-3,1.9-3.5
	C167.6,16.3,169.2,17.6,169.2,19.7z M168.1,19.6c0-0.5-0.1-0.9-0.3-1.3c-0.3-0.5-0.7-0.8-1.3-0.8c-0.6,0-1.1,0.3-1.4,0.8
	c-0.5,0.9-0.5,1.8,0,2.6c0.6,1.1,1.9,1.1,2.6,0.1C168,20.6,168.1,20.2,168.1,19.6z"/>
<path class="st2" d="M127.1,19.4c0,2.8-2.3,3.6-3.9,2.9c-1.2-0.5-1.8-1.8-1.5-3.4c0.4-1.9,2.4-2.9,4.1-2
	C126.8,17.6,127.1,18.5,127.1,19.4z M126,19.7c0-0.5-0.1-0.9-0.3-1.3c-0.6-1.1-2-1.1-2.6-0.1c-0.6,0.9-0.6,1.9,0,2.8
	c0.6,1,1.9,1,2.6,0.1C125.9,20.7,126,20.2,126,19.7z"/>
<path class="st2" d="M171.4,17.7c0.6-0.8,1.4-1.1,2.3-0.9s1.5,0.9,1.6,2c0,1.2,0,2.3,0,3.5c0,0.2-0.1,0.2-0.3,0.2
	c-0.8,0-0.8,0-0.8-0.8c0-0.9,0-1.9,0-2.8c0-0.8-0.5-1.3-1.2-1.3c-0.7,0-1.3,0.5-1.5,1.2c-0.1,0.5,0,1.1,0,1.6c0,0.6,0,1.2,0,1.8
	c0,0.2-0.1,0.2-0.3,0.3c-0.8,0-0.8,0-0.8-0.7c0-1.5,0-3.1,0-4.6c0-0.2,0.1-0.3,0.3-0.3c0,0,0.1,0,0.1,0c0.4-0.1,0.6,0.1,0.5,0.5
	C171.4,17.4,171.4,17.5,171.4,17.7z"/>
<path class="st2" d="M116.9,21.2c0.4-1.3,0.9-2.6,1.3-3.9c0.1-0.4,0.3-0.5,0.7-0.5c0.2,0,0.4,0,0.6,0c-0.5,1.2-0.9,2.4-1.4,3.6
	c-0.4,1-0.7,2-1.3,2.9c-0.4,0.7-1,1.3-1.7,1.6c-0.3,0.1-0.4,0.1-0.5-0.2c-0.1-0.4-0.1-0.6,0.3-0.8c0.6-0.3,1-0.8,1.3-1.4
	c0.1-0.2,0.1-0.4,0-0.6c-0.6-1.6-1.3-3.1-1.9-4.7c-0.1-0.1-0.1-0.3-0.1-0.4c0,0,0.1,0,0.1,0c1,0,1,0,1.3,0.9
	C116.1,18.9,116.5,20,116.9,21.2z"/>
<path class="st2" d="M90.6,21.8c-0.4,0.5-1,0.8-1.7,0.8c-0.9,0-1.5-0.4-1.7-1.2c-0.2-0.8,0.1-1.6,0.8-2c0.7-0.4,1.4-0.5,2.1-0.5
	c0.4,0,0.4-0.2,0.3-0.4c-0.1-0.6-0.5-0.9-1.1-1c-0.5,0-0.9,0.1-1.3,0.3c-0.1,0-0.2,0.2-0.3,0c0-0.2-0.3-0.4-0.1-0.6
	c0.7-0.5,2.3-0.5,3-0.1c0.7,0.5,0.8,1.2,0.8,1.9c0,1.1,0,2.2,0.1,3.3c0,0.2,0,0.2-0.2,0.2c0,0,0,0,0,0
	C90.8,22.5,90.8,22.5,90.6,21.8z M90.5,20.2c0-0.2,0-0.3,0-0.4c0-0.1,0-0.2-0.1-0.2c-0.6,0-1.3,0-1.8,0.4c-0.3,0.3-0.5,0.8-0.3,1.2
	c0.1,0.4,0.5,0.5,1,0.5C90.1,21.8,90.6,21.2,90.5,20.2z"/>
<path class="st1" d="M78.5,33c-0.5,0.5-1.1,0.8-1.8,0.8c-0.7,0-1.3-0.4-1.5-1.1c-0.2-0.7,0-1.4,0.5-1.9c0.5-0.4,1.1-0.6,1.7-0.7
	c0.2,0,0.4,0,0.6-0.1c0.5,0,0.5,0,0.4-0.5c-0.1-0.6-0.6-0.9-1.3-0.9c-0.4,0-0.8,0.1-1.1,0.3c-0.1,0-0.3,0.2-0.3,0
	c0-0.2-0.3-0.4,0-0.6c0.7-0.5,2.4-0.5,3.1,0c0.6,0.4,0.8,1.1,0.8,1.8c0,1.1,0,2.3,0.1,3.4c0,0.1,0,0.2-0.2,0.2c0,0,0,0,0,0
	C78.7,33.7,78.7,33.7,78.5,33z M78.5,31.4c0-0.2,0-0.3,0-0.4c0-0.1,0-0.2-0.1-0.2c-0.5-0.2-1.7,0.2-2,0.6c-0.3,0.3-0.3,0.7-0.1,1.1
	c0.2,0.4,0.5,0.5,0.9,0.5C78,33,78.5,32.4,78.5,31.4z"/>
<path class="st2" d="M102.2,19.9c-0.5,0-1.1,0-1.6,0c-0.3,0-0.3,0.1-0.3,0.4c0.1,1,0.9,1.6,2,1.5c0.4,0,0.8,0,1.2-0.2
	c0.2-0.1,0.2-0.1,0.3,0.1c0.2,0.6,0.2,0.6-0.4,0.7c-0.7,0.2-1.3,0.2-2,0.1c-1.4-0.3-2.3-1.5-2.1-3c0-0.3,0.1-0.6,0.2-1
	c0.4-1.3,1.5-1.9,2.8-1.8c1.1,0.1,1.8,1,1.9,2.3c0.1,0.8,0.1,0.8-0.7,0.8C103.1,19.9,102.7,19.9,102.2,19.9z M101.8,19.1
	c0.4,0,0.8,0,1.3,0c0.1,0,0.2,0,0.2-0.2c-0.1-0.5-0.2-1-0.7-1.3c-0.5-0.3-1-0.2-1.4,0.1c-0.4,0.3-0.6,0.7-0.8,1.2
	c0,0.2,0,0.2,0.2,0.2C100.9,19.1,101.4,19.1,101.8,19.1z"/>
<path class="st1" d="M117.8,31c-0.5,0-1.1,0-1.6,0c-0.4,0-0.4,0.1-0.3,0.4c0.2,1,0.8,1.5,1.9,1.5c0.4,0,0.9,0,1.3-0.2
	c0.1,0,0.3-0.2,0.3,0c0,0.2,0.3,0.5,0,0.7c-1,0.4-2.1,0.5-3.1,0c-0.8-0.4-1.2-1-1.3-1.9c-0.1-0.7-0.1-1.4,0.2-2
	c0.5-1.2,1.6-1.8,2.8-1.6c1,0.2,1.7,1,1.9,2.2c0.1,0.9,0.1,0.9-0.8,0.9C118.6,31,118.2,31,117.8,31z M115.9,30.3c0.9,0,1.8,0,2.7,0
	c0.1,0,0.2,0,0.2-0.2c0-0.7-0.6-1.4-1.3-1.5C116.6,28.6,116,29.2,115.9,30.3z"/>
<path class="st1" d="M108.2,31c-0.6,0-1.1,0-1.7,0c-0.3,0-0.3,0.1-0.3,0.3c0.1,1,0.9,1.6,2,1.6c0.4,0,0.8,0,1.2-0.2
	c0.1,0,0.3-0.2,0.3,0.1c0,0.2,0.3,0.5,0,0.6c-1.1,0.4-2.2,0.5-3.3-0.1c-0.2-0.1-0.3-0.2-0.5-0.4c-0.8-0.9-0.9-2-0.6-3.1
	c0.3-1,0.9-1.6,1.9-1.9c1.5-0.4,2.8,0.6,2.9,2.2c0.1,0.8,0.1,0.8-0.8,0.8C109,31,108.6,31,108.2,31z M106.3,30.3c0.9,0,1.8,0,2.7,0
	c0.1,0,0.2,0,0.2-0.2c0-0.8-0.6-1.4-1.3-1.4C107,28.7,106.4,29.3,106.3,30.3z"/>
<path class="st2" d="M144.6,21.7c-0.4,0.5-0.9,0.8-1.5,0.9c-1.1,0.1-1.9-0.4-2.2-1.5c-0.1-0.3-0.1-0.5-0.1-0.8c0-1,0-2,0-3.1
	c0-0.2,0.1-0.3,0.3-0.3c0.7,0,0.7,0,0.7,0.7c0,0.8,0,1.6,0,2.4c0,0.2,0,0.4,0,0.6c0.1,0.8,0.6,1.2,1.3,1.2c0.7,0,1.3-0.7,1.3-1.4
	c0-1,0-2,0-3.1c0-0.3,0.1-0.5,0.4-0.4c0.1,0,0.2,0,0.3,0c0.3,0,0.4,0.1,0.4,0.3c0,1.7,0,3.4,0,5.1c0,0.2,0,0.2-0.2,0.2
	c0,0-0.1,0-0.1,0c-0.6,0-0.6,0-0.7-0.6C144.7,21.8,144.7,21.7,144.6,21.7z"/>
<path class="st2" d="M82.1,28.8c0.7-0.8,1.5-1.1,2.5-0.8c0.8,0.3,1.2,0.9,1.3,1.7c0.2,1.2,0,2.5,0.1,3.7c0,0.2-0.1,0.2-0.2,0.2
	c-0.8,0.1-0.8,0.1-0.8-0.8c0-0.8,0-1.6,0-2.4c0-0.2,0-0.4,0-0.6c-0.2-0.8-0.6-1.2-1.3-1.2c-0.7,0-1.3,0.6-1.3,1.3c0,1.1,0,2.1,0,3.2
	c0,0.3-0.1,0.4-0.4,0.4c-0.7,0-0.7,0-0.7-0.7c0-1.5,0-3.1,0-4.6c0-0.2,0-0.4,0.3-0.3c0.2,0,0.5-0.1,0.6,0.1
	C82,28.3,81.9,28.6,82.1,28.8z"/>
<path class="st1" d="M128.5,20c0-0.7,0-1.4,0-2c0-0.3-0.1-0.4-0.4-0.3c-0.4,0-0.6-0.4-0.4-0.7c0.1-0.1,0.2-0.1,0.3-0.1
	c0.4,0.1,0.5-0.1,0.5-0.5c0-0.5,0.1-1.1,0.5-1.5c0.5-0.6,1.4-0.9,2.2-0.6c0.4,0.2,0.1,0.5,0.1,0.7c0,0.3-0.2,0.1-0.3,0.1
	c-0.9-0.2-1.3,0.2-1.4,1c-0.1,0.8-0.1,0.8,0.7,0.8c0.1,0,0.1,0,0.2,0c0.4,0,0.6,0.3,0.5,0.7c0,0.1-0.1,0.1-0.1,0.1
	c-0.1,0-0.2,0-0.3,0c-0.9,0-0.9,0-0.9,0.9c0,1.2,0,2.4,0,3.5c0,0.3,0,0.4-0.4,0.4c-0.7,0-0.7,0-0.7-0.7
	C128.5,21.2,128.5,20.6,128.5,20z"/>
<path class="st2" d="M130.2,27.9c0.3,0,0.6,0,0.9,0.1c0.6,0.1,0.5,0.1,0.4,0.7c-0.1,0.3-0.2,0.3-0.4,0.2c-0.8-0.3-1.7-0.3-2.3,0.5
	c-0.6,0.7-0.7,1.6-0.3,2.5c0.4,1,1.4,1.3,2.6,1c0.1,0,0.3-0.3,0.4,0.1c0,0.3,0.3,0.6-0.2,0.7c-1.1,0.3-2.1,0.3-3-0.4
	c-0.9-0.7-1.3-2-0.9-3.3c0.3-1.1,1.3-1.9,2.5-2C129.9,27.9,130,27.9,130.2,27.9z"/>
<path class="st2" d="M132.6,32.6c0.5,0.2,1,0.4,1.5,0.4c0.5,0,0.8-0.3,0.9-0.6c0.1-0.4-0.1-0.7-0.6-1c-0.3-0.1-0.6-0.3-0.9-0.4
	c-0.8-0.4-1.1-0.9-1-1.6c0.1-0.7,0.6-1.3,1.4-1.4c0.5-0.1,1.1,0,1.6,0.2c0.5,0.2,0.1,0.5,0.1,0.7c-0.1,0.3-0.2,0.1-0.4,0.1
	c-0.4-0.1-0.8-0.3-1.2-0.1c-0.3,0.1-0.5,0.3-0.6,0.6c0,0.3,0.1,0.5,0.3,0.7c0.3,0.2,0.7,0.3,1.1,0.5c0.8,0.4,1.2,1,1,1.8
	c-0.1,0.7-0.7,1.2-1.5,1.3c-0.6,0.1-1.2,0-1.8-0.1c-0.3-0.1-0.5-0.3-0.3-0.6C132.5,32.9,132.5,32.7,132.6,32.6z"/>
<path class="st2" d="M85.1,16.7c0.3,0,0.6,0.1,0.9,0.1c0.4,0.1,0.5,0.2,0.3,0.6c-0.1,0.3-0.1,0.4-0.5,0.2c-1-0.4-2.1,0-2.5,0.8
	c-0.5,0.9-0.3,2.2,0.4,2.8c0.7,0.6,1.4,0.5,2.2,0.3c0.1,0,0.3-0.3,0.3,0.1c0,0.2,0.4,0.5-0.1,0.7c-0.8,0.3-1.6,0.3-2.4,0.1
	c-1-0.3-1.6-1.1-1.8-2.1C81.7,18.3,83,16.7,85.1,16.7z"/>
<path class="st2" d="M148.5,15.5c0,0.3,0,0.5,0,0.7c0,0.6,0,0.6,0.6,0.6c0.2,0,0.4,0,0.6,0c0.4,0,0.2,0.3,0.2,0.4
	c0,0.2,0.1,0.4-0.2,0.4c-0.3,0-0.7,0-1,0c-0.2,0-0.3,0-0.3,0.3c0,1,0,2,0,3c0,0.7,0.3,0.9,1,0.8c0.1,0,0.4-0.2,0.3,0.2
	c0,0.2,0.3,0.6-0.2,0.6c-1.3,0.2-2.1-0.1-2.2-1.6c0-1,0-1.9,0-2.9c0-0.3-0.1-0.4-0.4-0.4c-0.5,0-0.6-0.2-0.5-0.6
	c0-0.2,0.2-0.1,0.3-0.2c0.6,0,0.6,0,0.5-0.6c0-0.4,0.1-0.5,0.5-0.6C148.1,15.7,148.3,15.6,148.5,15.5z"/>
<path class="st2" d="M112.7,26.7c0,0.4,0,0.7,0,1c0,0.3,0.1,0.4,0.4,0.3c0.2,0,0.5,0,0.7,0c0.3,0,0.4,0.2,0.4,0.4
	c0,0.3,0,0.4-0.3,0.4c0,0,0,0,0,0c-0.3,0-0.8-0.2-1,0.1c-0.2,0.2-0.1,0.7-0.1,1c0,0.7,0,1.4,0,2c0,0.7,0.3,1,1.1,0.9
	c0.1,0,0.3-0.1,0.3,0.1c0,0.2,0.2,0.5-0.1,0.7c-1.1,0.4-2.1-0.1-2.2-1.3c-0.1-1,0-2.1,0-3.1c0-0.3,0-0.4-0.4-0.4
	c-0.5,0-0.6-0.1-0.5-0.6c0.1-0.2,0.2-0.2,0.3-0.1c0.4,0.1,0.6-0.1,0.5-0.5c-0.1-0.4,0.1-0.6,0.5-0.7
	C112.3,26.8,112.5,26.8,112.7,26.7z"/>
<path class="st2" d="M122.3,26.7c0,0.4,0,0.7,0,1.1c0,0.2,0.1,0.3,0.3,0.3c0.3,0,0.6,0,0.9,0c0.4,0,0.2,0.3,0.3,0.4
	c0,0.2,0,0.4-0.3,0.3c-0.3,0-0.5,0-0.8,0c-0.3,0-0.4,0-0.4,0.4c0,0.9,0,1.8,0,2.6c0,0.9,0.3,1.1,1.1,1c0.2,0,0.2,0,0.2,0.2
	c0.1,0.6,0.1,0.6-0.5,0.7c-1.2,0.1-1.8-0.3-1.8-1.5c-0.1-1,0-2,0-3c0-0.3,0-0.4-0.4-0.4c-0.5,0-0.6-0.1-0.5-0.6
	c0-0.2,0.2-0.2,0.3-0.2c0.5,0,0.6,0,0.5-0.5c0-0.4,0.1-0.6,0.5-0.7C121.9,26.8,122.1,26.8,122.3,26.7z"/>
<path class="st1" d="M158.8,15.5c0,0.3,0,0.5,0,0.7c0,0.6,0,0.6,0.6,0.6c0.2,0,0.4,0,0.6,0c0.4,0,0.2,0.3,0.2,0.4s0.1,0.4-0.2,0.4
	c-0.3,0-0.6,0-0.9,0c-0.2,0-0.3,0-0.3,0.3c0,0.9,0,1.9,0,2.8c0,0.8,0.3,1.1,1.1,1c0.2,0,0.2,0,0.2,0.2c0.1,0.6,0,0.6-0.6,0.7
	c-1.2,0.1-1.8-0.4-1.8-1.6c0-1,0-1.9,0-2.9c0-0.3-0.1-0.5-0.4-0.5c-0.4,0.1-0.4-0.1-0.4-0.4c0-0.3,0.1-0.4,0.4-0.4
	c0.4,0.1,0.6-0.1,0.5-0.5c-0.1-0.4,0.1-0.7,0.5-0.7C158.5,15.7,158.6,15.6,158.8,15.5z"/>
<path class="st3" d="M62.2,29.2c1.9,0,3.4,1.5,3.4,3.3c0,1.9-1.5,3.4-3.4,3.4c-1.9,0-3.4-1.6-3.4-3.4C58.8,30.7,60.2,29.2,62.2,29.2
	z"/>
<path class="st4" d="M13.4,21.5c-1.9,0-3.4-1.5-3.4-3.4c0-1.9,1.5-3.4,3.4-3.4c1.9,0,3.3,1.5,3.4,3.3C16.8,20,15.3,21.5,13.4,21.5z"
	/>
<path class="st2" d="M152,17.8c0.4-0.5,0.8-0.9,1.4-1c0.3,0,0.5,0,0.5,0.4c0,0.1,0,0.2,0,0.4c0,0.2,0,0.2-0.2,0.2
	c-1,0-1.5,0.6-1.5,1.6c0,0.9,0,1.9,0,2.8c0,0.3-0.1,0.3-0.3,0.3c-0.7,0-0.7,0-0.7-0.7c0-1.5,0-3,0-4.6c0-0.2,0-0.4,0.3-0.3
	c0.2,0.1,0.6-0.2,0.6,0.3C152,17.4,152,17.6,152,17.8z"/>
<path class="st1" d="M155.9,19.7c0,0.8,0,1.6,0,2.4c0,0.3-0.1,0.4-0.4,0.4c-0.7,0-0.7,0-0.7-0.7c0-1.5,0-3,0-4.6
	c0-0.3,0.1-0.4,0.4-0.4c0.7,0,0.7,0,0.7,0.7C155.9,18.2,155.9,18.9,155.9,19.7z"/>
<path class="st1" d="M161.4,19.6c0-0.8,0-1.6,0-2.4c0-0.3,0.1-0.4,0.4-0.4c0.7,0,0.7,0,0.7,0.7c0,1.5,0,3,0,4.6
	c0,0.3-0.1,0.4-0.4,0.4c-0.7,0-0.7,0-0.7-0.7C161.4,21.1,161.4,20.4,161.4,19.6z"/>
<path class="st2" d="M125.9,30.9c0,0.8,0,1.7,0,2.5c0,0.3-0.1,0.3-0.3,0.3c-0.7,0-0.7,0-0.7-0.7c0-1.5,0-3,0-4.5
	c0-0.3,0.1-0.4,0.4-0.4c0.7,0,0.7,0,0.7,0.7C125.9,29.4,125.9,30.1,125.9,30.9z"/>
<path class="st1" d="M103,30.9c0-0.8,0-1.7,0-2.5c0-0.3,0.1-0.3,0.3-0.3c0.7,0,0.7,0,0.7,0.7c0,1.5,0,3,0,4.6c0,0.3,0,0.4-0.3,0.4
	c-0.7,0-0.7,0-0.7-0.7C103,32.3,103,31.6,103,30.9z"/>
<path class="st0" d="M59.8,3.1c0-1.3,1-2.4,2.3-2.4c1.3,0,2.4,1,2.4,2.3c0,1.4-1.1,2.4-2.4,2.4C60.8,5.4,59.8,4.4,59.8,3.1z
	 M63.3,4.5c0.1,0.2,0.2,0,0.3,0c0.6-0.6,0.7-1.8,0.1-2.5c-0.5-0.7-1.6-1-2.4-0.6c-0.8,0.4-1.3,1.4-1.1,2.3c0.3,1,1.1,1.7,2,1.6
	C62.7,5,63.3,5.1,63.3,4.5L63.3,4.5z"/>
<path class="st2" d="M161.3,15.3c0-0.4,0.3-0.6,0.7-0.6c0.4,0,0.6,0.3,0.6,0.7c0,0.4-0.3,0.6-0.7,0.6
	C161.5,15.9,161.3,15.6,161.3,15.3z"/>
<path class="st2" d="M155.4,15.9c-0.4,0-0.6-0.3-0.6-0.6c0-0.3,0.3-0.6,0.7-0.6c0.4,0,0.6,0.3,0.6,0.7
	C156,15.7,155.8,15.9,155.4,15.9z"/>
<path class="st2" d="M103.5,25.8c0.4,0,0.7,0.3,0.7,0.6c0,0.4-0.3,0.6-0.6,0.6c-0.4,0-0.6-0.2-0.7-0.6
	C102.9,26.1,103.1,25.9,103.5,25.8z"/>
<path class="st2" d="M126,26.5c0,0.4-0.3,0.6-0.6,0.6c-0.4,0-0.6-0.2-0.6-0.6c0-0.4,0.2-0.6,0.6-0.6C125.7,25.8,126,26.1,126,26.5z"
	/>
<path class="st0" d="M63.3,4.4c-0.6,0.1-0.6-0.5-0.9-0.8c-0.1-0.2-0.2-0.4-0.5-0.4c-0.3,0.1-0.2,0.4-0.2,0.6c0,0.2,0.2,0.6-0.3,0.6
	c-0.4,0-0.2-0.4-0.2-0.6c0-0.3,0-0.7,0-1c0-1.1,0-1.1,1.1-1.1c0.4,0,0.7,0,0.9,0.4c0.2,0.4,0.1,0.8-0.2,1c-0.3,0.2-0.2,0.4,0,0.6
	C63.1,4,63.4,4.1,63.3,4.4C63.3,4.5,63.3,4.4,63.3,4.4z M62.2,2.9c0.3,0,0.6,0,0.7-0.4C62.9,2,62.5,2,62.2,2c-0.3,0-0.5,0-0.5,0.4
	C61.7,2.8,61.8,2.9,62.2,2.9z"/>
</svg>
