<?xml version="1.0" encoding="utf-8"?>
<!-- Generator: Adobe Illustrator 21.0.0, SVG Export Plug-In . SVG Version: 6.00 Build 0)  -->
<svg version="1.1" id="Layer_1" xmlns="http://www.w3.org/2000/svg" xmlns:xlink="http://www.w3.org/1999/xlink" x="0px" y="0px"
	 viewBox="0 0 190 55" style="enable-background:new 0 0 190 55;" xml:space="preserve">
<style type="text/css">
	.st0{fill:#D5A22D;}
	.st1{fill:#F4E8CA;}
	.st2{fill:#F3E4C2;}
	.st3{fill:#E3C173;}
	.st4{fill:#F5E8CB;}
	.st5{fill:#F8F0DE;}
	.st6{fill:#FAF4E7;}
	.st7{fill:#FBF6EA;}
	.st8{fill:#F6EBD3;}
	.st9{fill:#E0B961;}
	.st10{fill:#F0DEB5;}
	.st11{fill:#EACF93;}
	.st12{fill:#D8A83A;}
	.st13{fill:#D7A635;}
	.st14{fill:#D8A738;}
	.st15{fill:#D8A93C;}
	.st16{fill:#D9AA3E;}
	.st17{fill:#D6A432;}
	.st18{fill:#D6A32F;}
	.st19{fill:#D7A533;}
	.st20{fill:#D9AB40;}
	.st21{fill:#DAAD45;}
	.st22{fill:#D6A22E;}
	.st23{fill:#E0BA63;}
	.st24{fill:#DFB65A;}
	.st25{fill:#DAAB42;}
	.st26{fill:#DCB14F;}
	.st27{fill:#DEB558;}
	.st28{fill:#E2BE6C;}
	.st29{fill:#DAAC42;}
	.st30{fill:#DBAE47;}
	.st31{fill:#E6C780;}
	.st32{fill:#E0BA62;}
	.st33{fill:#DBAF4B;}
	.st34{fill:#E4C274;}
	.st35{fill:#E4C275;}
	.st36{fill:#DEB556;}
	.st37{fill:#E5C57D;}
	.st38{fill:#E4C478;}
	.st39{fill:#DDB454;}
	.st40{fill:#E3C070;}
	.st41{fill:#E9CE91;}
	.st42{fill:#E5C67D;}
	.st43{fill:#DDB455;}
	.st44{fill:#DEB65A;}
	.st45{fill:#E8CB89;}
	.st46{fill:#E2BD69;}
	.st47{fill:#EEDAAA;}
	.st48{fill:#E9CE90;}
	.st49{fill:#E0BA64;}
	.st50{fill:#DFB85E;}
	.st51{fill:#E7CA87;}
	.st52{fill:#DCB14E;}
	.st53{fill:#E8CB88;}
	.st54{fill:#DEB659;}
	.st55{fill:#EBD29A;}
	.st56{fill:#E7CB88;}
	.st57{fill:#E2BF6E;}
	.st58{fill:#EBD198;}
	.st59{fill:#E2BD6A;}
	.st60{fill:#DFB85F;}
	.st61{fill:#ECD5A0;}
	.st62{fill:#EDD6A2;}
	.st63{fill:#E4C378;}
	.st64{fill:#E4C377;}
	.st65{fill:#F6ECD3;}
	.st66{fill:#E6C781;}
	.st67{fill:#E1BC68;}
	.st68{fill:#F8F0DC;}
	.st69{fill:#F0DDB3;}
	.st70{fill:#EFDBAD;}
	.st71{fill:#F6EBD2;}
	.st72{fill:#F4E7CA;}
	.st73{fill:#E3C071;}
	.st74{fill:#F1E1BB;}
	.st75{fill:#EED8A7;}
	.st76{fill:#EFDAAC;}
	.st77{fill:#F1E0B9;}
	.st78{fill:#E6C883;}
	.st79{fill:#EDD6A1;}
	.st80{fill:#F0DEB4;}
	.st81{fill:#FAF4E5;}
	.st82{fill:#F1DFB6;}
	.st83{fill:#E4C376;}
	.st84{fill:#F4E6C6;}
	.st85{fill:#F2E1BB;}
	.st86{fill:#F2E3C0;}
	.st87{fill:#EBD299;}
	.st88{fill:#E5C57C;}
	.st89{fill:#E6C67F;}
	.st90{fill:#F3E3C0;}
	.st91{fill:#F7EDD6;}
	.st92{fill:#FAF3E4;}
	.st93{fill:#FDFAF4;}
	.st94{fill:#FBF6EB;}
	.st95{fill:#F7ECD5;}
	.st96{fill:#E6C882;}
	.st97{fill:#E5C479;}
	.st98{fill:#EED9A9;}
	.st99{fill:#F9F2E1;}
	.st100{fill:#FBF7EE;}
	.st101{fill:#F2E2BE;}
	.st102{fill:#F5E9CC;}
	.st103{fill:#FCF8EE;}
	.st104{fill:#FDFBF5;}
	.st105{fill:#F6EBD1;}
	.st106{fill:#F7EDD7;}
	.st107{fill:#F3E5C3;}
	.st108{fill:#F0DCB0;}
	.st109{fill:#F4E7C9;}
	.st110{fill:#FCF9F2;}
	.st111{fill:#F8EFDA;}
	.st112{fill:#FDFBF6;}
	.st113{fill:#D6A430;}
	.st114{fill:#262324;}
	.st115{fill:none;}
</style>
<g>
	<path class="st0" d="M1.6,32.5C1.5,32.5,1.5,32.5,1.6,32.5c-0.1-0.2,0-0.3-0.1-0.5c0-0.1,0-0.1,0-0.2c-0.1-0.2,0-0.3-0.1-0.5
		c-0.1-0.4-0.1-0.9-0.2-1.3c-0.1-0.2,0-0.4-0.1-0.5c0-0.4,0-0.8-0.1-1.2c0-0.5,0-1.1,0-1.6c0.1-0.2,0-0.3,0-0.5c0-0.1,0-0.2,0-0.4
		c0-0.3,0.1-0.7,0.1-1c0.1-0.5,0.1-0.9,0.2-1.4c0.1-0.1,0-0.3,0.1-0.4c0-0.1,0-0.1,0-0.2c0.1-0.1,0-0.3,0.1-0.4c0-0.1,0-0.1,0-0.2
		c0.1-0.1,0-0.3,0.1-0.4c0,0,0-0.1,0-0.1c0.3,0.1,0.2,0.3,0.2,0.5c0,0.7,0,1.3,0,2c0,2.6,0,5.2,0,7.7c0,0.2,0.1,0.6-0.2,0.7
		c0,0,0,0,0-0.1C1.6,32.8,1.6,32.7,1.6,32.5z"/>
	<path class="st1" d="M29.2,54c0.7,0,1.4,0,2.1,0c0.1-0.1,0.3-0.1,0.4,0.1c0.1,0.3,0.1,0.5,0,0.8c-0.2,0.1-0.5,0.1-0.7,0.1
		c-0.2,0.1-0.4,0-0.6,0.1c-0.3,0-0.7,0-1,0c0-0.1,0-0.1,0.1-0.2c0.2-0.2,0.2-0.5-0.1-0.7C29.3,54.1,29.2,54.1,29.2,54z"/>
	<path class="st2" d="M29.2,54C29.3,54,29.3,54,29.2,54c0.5,0.2,0.4,0.2,0.5,0.5c0,0.3-0.2,0.3-0.4,0.5c-0.8,0-1.6,0-2.4,0
		c0,0,0-0.1,0-0.1c0.1-0.1,0.3-0.1,0.4-0.1c0.5,0,0.6-0.2,0.4-0.7c0-0.1-0.1-0.1-0.1-0.2C28.2,53.8,28.7,54,29.2,54z"/>
	<path class="st1" d="M30.1,0c0,0,0.1,0.1,0.1,0.1c0.5,0,0.9,0.1,1.4,0.1c0.3,0.1,0.3,0.4,0.3,0.6c-0.1,0.3-0.3,0.2-0.5,0.2
		c-0.5,0-1,0-1.6,0c-0.1,0-0.1-0.1-0.1-0.1c0-0.4-0.2-0.7-0.5-0.9C29.4,0,29.8,0,30.1,0z"/>
	<path class="st2" d="M29.1,0C29.2,0,29.2,0,29.1,0c0.2,0.2,0.4,0,0.5,0.2c0.1,0.2,0,0.4,0.1,0.6c0,0.1,0,0.2,0,0.2
		c-0.4,0.1-0.8,0-1.2,0.1c-0.2,0-0.4,0-0.5,0c-0.1-0.1-0.1-0.2-0.1-0.3c0.1-0.4-0.2-0.6-0.5-0.6c0,0-0.1-0.1,0-0.1
		C27.9,0,28.5,0,29.1,0z"/>
	<path class="st3" d="M1,28.4c0.2,0.4,0.2,0.8,0.2,1.2c-0.2,0-0.1-0.2-0.1-0.3c0-0.1,0-0.3,0-0.4C1,28.8,1,28.6,1,28.4z"/>
	<path class="st4" d="M1.2,24.9c0,0.3,0,0.7-0.1,1c0,0-0.1,0-0.1,0c0-0.2,0-0.3,0-0.5C1.2,25.3,1,25.1,1.2,24.9z"/>
	<path class="st5" d="M1.1,29.3c0,0.1,0,0.2,0.1,0.3c0,0.2,0,0.4,0,0.5C1,30,1.2,29.8,1,29.7C1,29.6,1,29.5,1.1,29.3
		C1,29.3,1.1,29.3,1.1,29.3z"/>
	<path class="st6" d="M27.3,0C27.3,0,27.3,0.1,27.3,0c-0.2,0.3-0.5,0.3-0.7,0.1c0,0,0-0.1,0-0.1C26.8,0,27.1,0,27.3,0z"/>
	<path class="st7" d="M30.3,55c0.2-0.2,0.4-0.1,0.6-0.1c0,0,0,0.1,0,0.1C30.8,55,30.5,55,30.3,55z"/>
	<path class="st8" d="M26.9,54.9C26.9,54.9,26.9,55,26.9,54.9C26.8,55,26.6,55,26.4,55c0,0,0-0.1,0-0.1c0,0,0.1-0.1,0.1-0.1
		C26.7,54.8,26.8,54.8,26.9,54.9z"/>
	<path class="st9" d="M1.1,26.3c0,0.2,0.1,0.3-0.1,0.5C1,26.6,1,26.5,1.1,26.3C1,26.3,1.1,26.3,1.1,26.3z"/>
	<path class="st10" d="M1.1,29.3C1.1,29.3,1,29.3,1.1,29.3C1,29.2,1,29.1,1,29C1.1,29.1,1.1,29.2,1.1,29.3z"/>
	<path class="st11" d="M1.1,26.3C1.1,26.3,1,26.3,1.1,26.3C1,26.2,1,26.1,1,25.9c0,0,0.1,0,0.1,0C1.1,26.1,1.1,26.2,1.1,26.3z"/>
	<path class="st12" d="M7.6,24.2c-0.1,0.8-0.2,1.7-0.2,2.5c0,1.4,0,2.8,0.2,4.2c0,0.1,0,0.3,0,0.4c0.1,2,0,4,0,6.1
		c0,0.2,0,0.4,0,0.6c-0.1,0.2-0.1,0.4-0.4,0.2l0,0c-0.1-0.1,0-0.1-0.1-0.2c-0.3-0.6-0.6-1.1-0.7-1.7c0.2-0.2,0.1-0.4,0.1-0.7
		c0-5.3,0-10.6,0-16c0-0.2,0-0.5-0.1-0.7c0.1-0.5,0.4-1.1,0.6-1.6c0.1,0,0.1-0.1,0.1-0.2l0,0c0.1,0,0.1-0.1,0.1-0.2l0,0
		c0.2-0.2,0.3-0.1,0.3,0.1c0.1,0.2,0.1,0.4,0.1,0.6c0,1.8,0,3.7,0,5.5C7.7,23.5,7.6,23.8,7.6,24.2z"/>
	<path class="st13" d="M6.4,18.9c0.1,0,0.2-0.1,0.2,0c0.1,0.2,0.1,0.3,0.1,0.5c0,5.4,0,10.8,0,16.2c0,0.2,0,0.4-0.1,0.5
		c0,0.1-0.1,0.1-0.2,0c0,0,0,0,0-0.1c0-0.1,0-0.2-0.1-0.2c-0.3-0.8-0.6-1.6-0.7-2.4c0.1-0.2,0.1-0.4,0-0.6c-0.1-0.4-0.1-0.8-0.1-1.2
		c0-2.9,0-5.8,0-8.7c0-0.5,0.2-1.1,0.1-1.6c0.2-0.8,0.4-1.6,0.7-2.4C6.4,19,6.4,18.9,6.4,18.9L6.4,18.9z"/>
	<path class="st14" d="M3.4,38.5c-0.2-0.4-0.4-0.9-0.5-1.4c0.1-0.3,0-0.5,0-0.8c0-5.9,0-11.8,0-17.7c0-0.3,0.1-0.5,0-0.8
		c0.1-0.5,0.3-0.9,0.6-1.4c0.1-0.1,0-0.1,0.1-0.2l0,0c0.2-0.1,0.3,0.1,0.3,0.2c0,0.1,0,0.3,0,0.5c0,2,0,4,0,6c0,0.1,0,0.1,0,0.2
		c-0.1,0.8-0.2,1.5-0.2,2.3c-0.1,1.4-0.1,2.8,0,4.1c0.1,0.7,0.2,1.4,0.2,2.2c0.1,0.3,0,0.7,0,1c0,1.7,0,3.4,0,5.2
		c0,0.3,0.1,0.6-0.3,0.7h0C3.4,38.6,3.4,38.6,3.4,38.5z"/>
	<path class="st15" d="M10.8,18.8C10.8,18.7,10.8,18.7,10.8,18.8c0.2-0.2,0.3-0.1,0.4,0.1c0,0.1,0,0.2,0,0.3c0,2.2,0.1,4.4-0.1,6.6
		c0,0.6-0.1,1.2-0.1,1.8c0,0.8,0.1,1.6,0.1,2.4c0.1,1.2,0.2,2.3,0.1,3.5c0,1,0,2.1,0,3.1c0,0.2,0.1,0.5-0.3,0.6l0,0
		c-0.1-0.1,0-0.1-0.1-0.2c-0.2-0.4-0.4-0.8-0.6-1.3c0.1-0.3,0-0.6,0-1c0-4.6,0-9.2,0-13.9c0-0.3,0.1-0.5,0-0.8
		c0.1-0.4,0.2-0.7,0.4-1C10.8,18.9,10.8,18.8,10.8,18.8z"/>
	<path class="st14" d="M13.7,34.5c-0.2-0.5-0.4-1-0.5-1.5c0.1-0.3,0-0.6,0-0.9c0-2.9,0-5.8,0-8.6c0-0.4,0.1-0.8,0.1-1.2
		c0.1-0.4,0.3-0.9,0.5-1.3c0,0,0.1-0.1,0.1-0.1c0,0,0,0,0-0.1c0.2-0.1,0.3,0.1,0.3,0.2c0,0.2,0,0.4,0,0.5c0,4.2,0,8.3,0,12.5
		c0,0.2,0,0.5-0.1,0.7c-0.1,0-0.1,0.1-0.2,0c0,0,0,0,0-0.1C13.8,34.6,13.8,34.5,13.7,34.5z"/>
	<path class="st16" d="M13.9,34.7c0.1-0.2,0.1-0.3,0.1-0.5c0-4.3,0-8.7,0-13c0-0.2,0.1-0.4-0.2-0.4c0.2-0.5,0.4-1,0.7-1.5
		c0.1,0,0.1-0.1,0.1-0.2l0,0c0.4,0,0.3,0.3,0.3,0.4c0,1.1,0.1,2.2,0,3.4c0,0.1,0,0.2,0,0.2c-0.1,0.8-0.3,1.5-0.4,2.3
		c0,0.4-0.1,0.9-0.1,1.3c-0.1,0.6-0.1,1.2,0,1.8c0,0.1,0,0.3,0,0.4c0.1,0.2,0,0.5,0.1,0.7c0,0.1,0,0.1,0,0.2
		c0.1,0.3-0.1,0.6-0.1,0.9c0,1.4,0,2.8,0,4.2c0,0.2,0.1,0.5-0.2,0.6l0,0c0-0.1,0-0.1-0.1-0.2l0,0c0-0.1,0-0.1-0.1-0.2l0,0
		c-0.1-0.1,0-0.1-0.1-0.2c0,0,0,0,0-0.1C13.9,34.8,13.9,34.8,13.9,34.7z"/>
	<path class="st17" d="M13.3,22.3c0.1,0.1,0.1,0.3,0.1,0.4c0,3.3,0,6.7,0,10c0,0.1,0,0.2,0,0.3c0,0.1-0.1,0-0.2,0c0,0,0-0.1,0-0.1
		c-0.1-0.1,0-0.2-0.1-0.3c0,0,0,0,0-0.1c0-0.1,0-0.2-0.1-0.2c-0.3-0.7-0.4-1.5-0.5-2.2c-0.2-1.3-0.2-2.7-0.1-4c0.1-1,0.2-2,0.6-2.9
		c0.1-0.1,0-0.2,0.1-0.3v0c0.1-0.1,0-0.2,0.1-0.3c0,0,0-0.1,0-0.1C13.2,22.5,13.2,22.4,13.3,22.3C13.3,22.3,13.3,22.3,13.3,22.3z"/>
	<path class="st18" d="M5.6,21.5c0.2,0.2,0.2,0.4,0.2,0.6c-0.1,0.3-0.1,0.5-0.1,0.8c0,3.1,0,6.1,0,9.2c0,0.3,0,0.6,0.1,0.9
		c0.1,0.2,0.1,0.5-0.2,0.6c0,0,0,0,0-0.1c-0.1-0.1,0-0.2-0.1-0.3c0,0,0,0,0-0.1c-0.1-0.1,0-0.2-0.1-0.3c0,0,0-0.1,0-0.1
		c-0.1-0.1,0-0.3-0.1-0.4C5.1,31.6,5,30.9,5,30.2c-0.2-1.4-0.1-2.8-0.1-4.2c0-0.9,0.1-1.9,0.4-2.8c0.1-0.1,0-0.3,0.1-0.4
		c0-0.1,0-0.1,0-0.2c0.1-0.1,0-0.2,0.1-0.3c0,0,0,0,0-0.1c0.1-0.1,0-0.3,0.1-0.4c0,0,0-0.1,0-0.1C5.6,21.7,5.5,21.6,5.6,21.5
		C5.6,21.5,5.6,21.5,5.6,21.5z"/>
	<path class="st14" d="M10.3,20c0.1,0,0.2,0.1,0.2,0.2c0,0.1,0,0.2,0,0.3c0,4.9,0,9.7,0,14.6c0,0.2,0.1,0.4-0.2,0.5l0,0
		c0-0.1,0-0.1-0.1-0.2C10,35,9.9,34.7,9.8,34.3c0.1-0.2,0-0.4,0-0.6c0-4,0-8,0-12c0-0.1,0-0.3,0-0.4c0.1-0.4,0.2-0.7,0.4-1
		C10.2,20.2,10.2,20.1,10.3,20C10.2,20,10.2,20,10.3,20z"/>
	<path class="st19" d="M9.8,21.3c0.1,0.1,0.2,0.1,0.2,0.2c0,0.1,0,0.2,0,0.3c0,4,0,8,0,12c0,0.2,0.1,0.4-0.2,0.5l0,0
		c-0.1-0.1,0-0.2-0.1-0.3c-0.2-0.6-0.4-1.1-0.5-1.7c0.1-0.1,0.1-0.2,0.1-0.3c0-2.8,0-5.6,0-8.4c0-0.1,0-0.2,0-0.3
		c0.1-0.5,0.2-0.9,0.4-1.4c0.1-0.1,0-0.2,0.1-0.3c0,0,0-0.1,0-0.1C9.8,21.5,9.8,21.4,9.8,21.3C9.8,21.3,9.8,21.3,9.8,21.3z"/>
	<path class="st16" d="M3.5,38.7c0.2-0.1,0.2-0.3,0.2-0.5c0-1.3,0-2.5,0-3.8c0-0.3,0-0.7,0-1c0-0.5,0.1-1,0.1-1.5
		c0.1,0.5,0.2,1,0.3,1.6c0.2,0.8,0.4,1.5,0.6,2.3c0.1,1.4,0,2.8,0,4.2c0,0.3,0.1,0.6-0.3,0.7l0,0c0-0.1-0.1-0.1-0.1-0.1v0
		c-0.1,0,0-0.1-0.1-0.2C3.9,39.8,3.6,39.2,3.5,38.7z"/>
	<path class="st16" d="M3.8,23.2c-0.2-2.1,0-4.3-0.1-6.4c0-0.2,0.1-0.4-0.2-0.4c0.2-0.5,0.4-1,0.7-1.5c0.1,0,0.1-0.1,0.1-0.2l0,0
		c0.2-0.2,0.3-0.1,0.3,0.1c0.1,0.2,0.1,0.4,0.1,0.5c0,1.4,0.1,2.8,0,4.2c-0.2,0.8-0.4,1.5-0.6,2.3C3.9,22.2,3.9,22.7,3.8,23.2z"/>
	<path class="st20" d="M7.6,24.2c-0.2-0.1-0.1-0.3-0.1-0.5c0-2.1,0-4.1,0-6.2c0-0.2,0-0.3-0.1-0.5c-0.1-0.1-0.1-0.1-0.2-0.1
		c0.2-0.5,0.4-0.9,0.6-1.3c0.1,0,0.1-0.1,0.1-0.2l0,0c0.1,0,0-0.1,0.1-0.2v0c0.4,0.1,0.3,0.4,0.3,0.6c0,1,0,1.9,0,2.9
		c0,0.7,0,1.4,0,2.1c-0.2,0.8-0.3,1.5-0.5,2.3C7.7,23.5,7.7,23.9,7.6,24.2z"/>
	<path class="st20" d="M7.2,38.1c0.1,0,0.2,0.1,0.3-0.1c0-0.1,0-0.3,0-0.4c0-1.9,0-3.8,0-5.7c0-0.2,0-0.4,0.1-0.6
		c0.1,0.5,0.2,1,0.3,1.5C8,33.5,8.2,34,8.3,34.6c0.1,0.9,0,1.7,0,2.6c0,0.6,0,1.3,0,1.9c0,0.2,0,0.5-0.3,0.5h0c0-0.1,0-0.1-0.1-0.2
		l0,0c0,0,0-0.1-0.1-0.1C7.6,39,7.4,38.6,7.2,38.1z"/>
	<path class="st21" d="M8.3,20.9c-0.1-0.3-0.1-0.5-0.1-0.8c0-1.4,0-2.9,0-4.3c0-0.2,0.1-0.4-0.2-0.5c0.2-0.4,0.4-0.7,0.6-1
		c0.1,0,0.1-0.1,0.1-0.2l0,0c0,0,0.1-0.1,0.1-0.1h0c0.3,0,0.3,0.2,0.3,0.4c0,1.5,0.2,3-0.1,4.5C8.8,19.6,8.6,20.2,8.3,20.9z"/>
	<path class="st22" d="M9.3,23.3c0.1,0,0.2,0,0.2,0.1c0,0.1,0,0.2,0,0.3c0,2.7,0,5.4,0,8.1c0,0.2,0.1,0.4-0.2,0.4c0,0,0,0,0-0.1
		c-0.1-0.1,0-0.3-0.1-0.4c0,0,0,0,0-0.1c-0.1-0.1,0-0.3-0.1-0.4c0-0.1,0-0.1,0-0.2C9,31,9.1,30.9,9,30.7c-0.1-0.5-0.2-0.9-0.2-1.4
		c-0.1-1.3-0.1-2.7,0.1-4C8.9,25.1,9,25,9,24.8c0.1-0.1,0-0.3,0.1-0.5c0-0.1,0-0.1,0-0.2c0.1-0.1,0-0.3,0.1-0.4c0,0,0-0.1,0-0.1
		C9.3,23.6,9.2,23.5,9.3,23.3C9.2,23.3,9.2,23.3,9.3,23.3z"/>
	<path class="st21" d="M8,39.7c0.2-0.1,0.2-0.3,0.2-0.5c0-1.1,0-2.1,0-3.2c0-0.5,0-0.9,0.1-1.4c0.2,0.7,0.5,1.4,0.7,2.1
		c0.2,0.6,0.1,1.3,0.1,1.9c0,0.7,0,1.3,0,2c0,0.4-0.1,0.4-0.4,0.3l0,0c0,0-0.1-0.1-0.1-0.1v0c-0.1,0,0-0.1-0.1-0.2
		C8.4,40.3,8.2,40,8,39.7z"/>
	<path class="st23" d="M10.8,48.5c-0.5-0.4-1-0.8-1.4-1.3c0.1-0.7,0-1.3,0.1-2c0-0.2,0-0.5,0.2-0.6c0.3,0.4,0.7,0.7,1,1.1
		c0.5,0.4,0.7,1,0.6,1.6c0,0.3,0,0.6,0,0.9C11.3,48.4,11.2,48.7,10.8,48.5L10.8,48.5C10.9,48.6,10.8,48.5,10.8,48.5z"/>
	<path class="st24" d="M9.7,44.6c-0.1,0.2-0.1,0.3-0.1,0.5c0,0.5,0,1.1,0,1.6c0,0.2,0,0.4-0.2,0.5l0,0c0-0.1-0.1-0.1-0.1-0.1
		c-0.4-0.3-0.8-0.7-1.1-1.1c-0.1-0.8-0.1-1.6,0-2.5c0-0.2,0-0.4,0.2-0.5C8.9,43.6,9.3,44.1,9.7,44.6z"/>
	<path class="st25" d="M4.7,19.4c-0.1-0.2-0.1-0.4-0.1-0.6c0-1.2,0-2.5,0-3.7c0-0.2,0-0.3-0.1-0.4c-0.1-0.1-0.1-0.1-0.2-0.1
		c0.2-0.4,0.4-0.8,0.7-1.2c0,0,0.1-0.1,0.1-0.1l0,0c0.1,0,0.1-0.1,0.1-0.2l0,0c0.3,0,0.3,0.2,0.3,0.4c0,1.3,0.1,2.5,0,3.8
		C5.2,18.1,4.9,18.8,4.7,19.4z"/>
	<path class="st25" d="M4.4,40.5c0.2-0.2,0.2-0.4,0.2-0.6c0-1.3,0-2.5,0-3.8c0-0.2-0.1-0.3,0.1-0.5c0.2,0.7,0.5,1.3,0.7,2
		c0.1,1.3,0,2.5,0,3.8c0,0.2,0,0.5-0.3,0.4h0c0,0-0.1-0.1-0.1-0.1l0,0c-0.1-0.1,0-0.1-0.1-0.2C4.7,41.2,4.5,40.9,4.4,40.5z"/>
	<path class="st23" d="M9.4,7.8c0.4-0.5,0.9-0.9,1.3-1.2c0.3-0.1,0.3,0.1,0.3,0.3c0,0.7,0.1,1.3,0,2c-0.5,0.5-0.9,1-1.4,1.5
		c-0.3-0.2-0.2-0.4-0.2-0.7C9.5,9.1,9.5,8.4,9.4,7.8z"/>
	<path class="st26" d="M13.1,40.6c-0.4-0.5-0.7-0.9-1-1.5c0.2-0.2,0.1-0.5,0.1-0.7c0-0.8,0-1.6,0-2.4c0-0.2,0-0.5,0.2-0.7
		c0.3,0.7,0.6,1.3,0.9,2c0.1,0.3,0,0.6,0,0.9c0,0.6,0,1.3,0,1.9C13.4,40.4,13.5,40.7,13.1,40.6z"/>
	<path class="st27" d="M13.1,40.6c0.2,0,0.2-0.2,0.2-0.4c0-0.5,0-1.1,0-1.6c0-0.4,0-0.8,0.1-1.3c0.3,0.6,0.7,1.1,1,1.7
		c0.3,0.9,0.1,1.8,0.1,2.7c0,0.1,0,0.3-0.2,0.3l0,0c0-0.1-0.1-0.1-0.1-0.1C13.8,41.5,13.4,41.1,13.1,40.6z"/>
	<path class="st24" d="M9.4,7.8c0.2,0.1,0.2,0.3,0.2,0.4c0,0.5,0,0.9,0,1.4c0,0.3,0,0.5,0.1,0.8c-0.4,0.5-0.8,1-1.2,1.5
		c-0.3-0.2-0.2-0.5-0.2-0.7c0-0.7,0-1.4-0.1-2.1C8.6,8.6,8.9,8.2,9.4,7.8C9.4,7.9,9.4,7.8,9.4,7.8L9.4,7.8z"/>
	<path class="st28" d="M10.9,48.6c0.2,0,0.3-0.1,0.3-0.3c0-0.6,0-1.2,0-1.8c0-0.1-0.1-0.2-0.2-0.3c-0.1-0.1-0.3-0.2-0.3-0.5
		c0.6,0.6,1.2,1.1,1.8,1.7c0.2,0.2,0.3,0.4,0.3,0.8c0,0.3,0,0.7,0,1c0,0.2,0,0.5-0.3,0.5l0,0c0,0-0.1-0.1-0.1-0.1
		C11.8,49.4,11.4,49,10.9,48.6z"/>
	<path class="st26" d="M13.4,18.2c-0.3,0.6-0.6,1.3-0.9,1.9c-0.3-0.2-0.2-0.4-0.2-0.7c0-0.9,0-1.8,0-2.6c0-0.2,0-0.3,0-0.4
		c0.2-0.5,0.6-0.9,0.9-1.3c0.3-0.1,0.3,0.1,0.3,0.3C13.4,16.3,13.5,17.2,13.4,18.2z"/>
	<path class="st27" d="M13.4,18.2c-0.2-0.8-0.1-1.7-0.1-2.5c0-0.2,0-0.3,0-0.5c0-0.1-0.1-0.2-0.2-0.2c0.3-0.5,0.7-0.9,1.1-1.4
		c0,0,0.1-0.1,0.1-0.1l0,0c0.2,0,0.2,0.1,0.2,0.2c0,0.9,0.2,1.8-0.1,2.7C14,17.1,13.7,17.6,13.4,18.2z"/>
	<path class="st29" d="M10.9,37c0.2-0.1,0.2-0.3,0.2-0.5c0-1.6,0-3.1,0-4.7c0-0.7,0-1.3,0-2c0.1,0.5,0.1,0.9,0.2,1.4
		c0.1,0.7,0.3,1.3,0.4,2c0.1,1.5,0,3,0,4.4c0,0.2,0,0.4-0.3,0.4h0c0,0,0-0.1-0.1-0.1c0,0,0,0,0-0.1c0-0.1,0-0.1-0.1-0.1v0
		c-0.1,0,0-0.1-0.1-0.2C11,37.4,10.9,37.2,10.9,37z"/>
	<path class="st29" d="M11.1,25.7c0-2.1,0-4.3,0-6.4c0-0.1,0-0.2,0-0.4c0-0.2-0.1-0.2-0.3-0.2c0.1-0.3,0.2-0.5,0.4-0.7
		c0,0,0-0.1,0.1-0.1l0,0c0.1,0,0.1-0.1,0.1-0.2l0,0c0.1,0,0.1-0.1,0.1-0.2l0,0c0.1-0.1,0.2,0,0.3,0.1c0.1,0.1,0.1,0.2,0.1,0.3
		c0,1.5,0.1,2.9,0,4.4c-0.1,0.7-0.3,1.3-0.4,2C11.2,24.8,11.2,25.2,11.1,25.7z"/>
	<path class="st30" d="M11.4,38.1c0.2,0,0.2-0.2,0.2-0.3c0-0.4,0-0.9,0-1.3c0-0.6,0-1.2,0-1.8c0-0.4,0-0.9,0.1-1.3
		c0.2,0.7,0.5,1.4,0.7,2.1c-0.1,0.2-0.1,0.5-0.1,0.8c0,0.9,0,1.8,0,2.7c0,0.2,0,0.4-0.3,0.3l0,0c0,0-0.1-0.1-0.1-0.1
		C11.8,38.7,11.6,38.4,11.4,38.1z"/>
	<path class="st30" d="M11.7,22.3c-0.1-0.4-0.1-0.9-0.1-1.4c0-1,0-2,0-3c0-0.2,0.1-0.4-0.2-0.4c0.1-0.3,0.3-0.6,0.5-0.9
		c0.1,0,0-0.1,0.1-0.2l0,0c0,0,0.1-0.1,0.1-0.1h0c0.2,0,0.2,0.2,0.2,0.4c0,0.9,0,1.7,0,2.6c0,0.3,0,0.5,0.1,0.8
		C12.2,20.8,12,21.6,11.7,22.3z"/>
	<path class="st30" d="M5.1,41.8c0.2,0,0.2-0.2,0.2-0.4c0-1,0-2,0-3c0-0.3,0-0.5,0.1-0.8c0.3,0.5,0.5,1,0.7,1.6c0.1,1.1,0,2.2,0,3.3
		c0,0.2,0,0.4-0.3,0.5l0,0c-0.1-0.1,0-0.1-0.1-0.2l0,0c0,0-0.1-0.1-0.1-0.1C5.4,42.4,5.2,42.2,5.1,41.8z"/>
	<path class="st30" d="M5.4,17.4c-0.1-0.2-0.1-0.5-0.1-0.8c0-1,0-2,0-3c0-0.2,0-0.4-0.2-0.5c0.1-0.3,0.3-0.6,0.5-0.8
		c0.1,0,0.1-0.1,0.1-0.2l0,0c0,0,0.1-0.1,0.1-0.1l0,0c0.2,0,0.3,0.2,0.3,0.4c0,1.2,0.2,2.4-0.1,3.5C5.9,16.5,5.7,17,5.4,17.4z"/>
	<path class="st26" d="M10.5,15.9c-0.2,0.5-0.5,0.9-0.7,1.4c-0.3-0.1-0.2-0.4-0.2-0.6c0-1,0-1.9,0-2.9c0-0.2,0-0.4-0.1-0.6
		c0.1-0.3,0.3-0.5,0.5-0.7c0.1,0,0.1-0.1,0.1-0.2l0,0c0,0,0.1-0.1,0.1-0.1h0c0.4,0,0.3,0.3,0.3,0.4c0,0.8,0,1.7,0,2.5
		C10.6,15.3,10.7,15.6,10.5,15.9z"/>
	<path class="st30" d="M14.8,31.8c0.3,0.8,0.5,1.7,0.8,2.5c0.1,1,0,2,0,3c0,0.1,0,0.4-0.3,0.3l0,0c-0.1,0,0-0.1-0.1-0.2
		c-0.3-0.3-0.5-0.7-0.6-1c0.1-1.3,0-2.6,0-3.9C14.7,32.2,14.7,32,14.8,31.8z"/>
	<path class="st31" d="M14.6,3.8c0.4-0.3,0.8-0.5,1.3-0.7c0.1-0.1,0.1,0,0.2-0.1l0,0c0.2-0.1,0.3,0,0.3,0.1c0.2,0.3,0.1,1.3-0.1,1.6
		c-0.5,0.4-1,0.7-1.6,1c-0.2-0.2-0.2-0.4-0.1-0.5C14.6,4.8,14.6,4.3,14.6,3.8z"/>
	<path class="st32" d="M14.3,42c0.2-0.1,0.1-0.3,0.1-0.5c0-0.8,0-1.7,0-2.5c0.4,0.5,0.7,1,1.1,1.5c0.3,0.7,0.1,1.5,0.1,2.2
		c0,0.2-0.1,0.4-0.4,0.3C14.9,42.7,14.5,42.4,14.3,42z"/>
	<path class="st33" d="M9.5,13.1c0.2,0.1,0.2,0.3,0.2,0.5c0,1,0,2.1,0,3.1c0,0.2,0,0.4,0.1,0.5c-0.2,0.6-0.5,1.1-0.7,1.6
		c0-1.5,0-2.9,0-4.4c0-0.2,0-0.4-0.2-0.5c0.1-0.3,0.3-0.5,0.5-0.7c0,0,0.1-0.1,0.1-0.1l0,0C9.5,13.2,9.5,13.1,9.5,13.1L9.5,13.1z"/>
	<path class="st34" d="M12.5,49.8c0.1-0.1,0.2-0.3,0.2-0.5c0-0.5,0-0.9,0-1.4c0-0.2-0.1-0.3-0.2-0.5c0.5,0.4,1,0.8,1.5,1.2
		c0.1,0.1,0.2,0.3,0.2,0.5c0,0.4,0,0.8,0,1.3c0,0.2,0,0.4-0.2,0.4l0,0c0,0-0.1-0.1-0.1-0.1C13.3,50.4,12.9,50.1,12.5,49.8z"/>
	<path class="st35" d="M14.9,7.6c0.3-0.3,0.7-0.5,1.1-0.7c0.2,0,0.3,0.1,0.3,0.2c0.1,0.7,0.2,1.4-0.1,2.2c-0.4,0.3-0.7,0.6-1.1,0.9
		c-0.2-0.1-0.2-0.3-0.2-0.4C14.9,9,14.8,8.3,14.9,7.6z"/>
	<path class="st30" d="M15,23.2c-0.2-0.1-0.1-0.3-0.1-0.5c0-1.1,0-2.1,0-3.2c0-0.2,0.1-0.4-0.2-0.4c0.2-0.4,0.4-0.8,0.7-1.1
		c0,0,0.1-0.1,0.1-0.1l0,0c0.3,0,0.3,0.2,0.3,0.4c0,0.9,0.1,1.8,0,2.7l0,0c-0.1,0.1,0,0.2-0.1,0.3C15.4,22,15.2,22.6,15,23.2z"/>
	<path class="st16" d="M14.8,31.8c0,1.4,0,2.8,0,4.2c0,0.2,0.1,0.4-0.2,0.4v0c-0.1,0,0-0.1-0.1-0.2c-0.2-0.2-0.3-0.5-0.4-0.7
		c0.2-0.1,0.1-0.3,0.1-0.5c0-1.3,0-2.7,0-4c0-0.3,0-0.6,0.2-0.8c0.1-0.1,0-0.2,0-0.3C14.6,30.5,14.7,31.2,14.8,31.8z"/>
	<path class="st36" d="M16.2,16.8c0.3-0.4,0.6-0.8,0.9-1.1c0,0,0.1-0.1,0.1-0.1l0,0c0,0,0.1-0.1,0.1-0.1l0,0c0.2,0,0.2,0.1,0.2,0.2
		c0,0.7,0.2,1.4-0.1,2.2c-0.3,0.5-0.7,1.1-1,1.6c-0.2-0.2-0.2-0.5-0.2-0.8C16.2,18.2,16.1,17.5,16.2,16.8z"/>
	<path class="st37" d="M13.9,50.8C13.9,50.8,14,50.7,13.9,50.8c0.1-0.8,0.2-1.4,0-2.1c0.5,0.3,1,0.6,1.5,1c0.1,0.1,0.2,0.2,0.2,0.3
		c0,0.4,0,0.9,0,1.3c0,0.1-0.1,0.3-0.2,0.3c0,0-0.1,0-0.1,0c0,0-0.1-0.1-0.1-0.1C14.7,51.3,14.3,51.1,13.9,50.8z"/>
	<path class="st38" d="M14.6,3.8c0.2,0.1,0.1,0.3,0.1,0.4c0,0.5,0,1,0,1.5c-0.5,0.4-1,0.8-1.5,1.1c-0.1-0.3,0-0.7,0-1
		c0-0.4,0-0.7-0.1-1.1C13.6,4.4,14.1,4.1,14.6,3.8z"/>
	<path class="st39" d="M8.2,9.1c0.2,0.1,0.2,0.3,0.2,0.5c0,0.6,0,1.1,0,1.7c0,0.2,0,0.5,0.1,0.7c-0.3,0.4-0.5,0.8-0.8,1.2
		c-0.3-0.1-0.3-0.4-0.3-0.6c0-0.8-0.1-1.7,0-2.5C7.6,9.8,7.7,9.5,8,9.4C8,9.3,8,9.3,8,9.3l0,0c0,0,0.1-0.1,0.1-0.1l0,0
		C8.2,9.1,8.2,9.1,8.2,9.1L8.2,9.1z"/>
	<path class="st40" d="M13.2,4.8c0.1,0,0.2,0.1,0.2,0.2c0,0.7,0.1,1.3-0.1,1.9C12.9,7.3,12.5,7.7,12,8c-0.1-0.8,0-1.6-0.1-2.3
		c0.3-0.3,0.7-0.6,1.1-0.8C13.1,4.8,13.2,4.8,13.2,4.8L13.2,4.8z"/>
	<path class="st33" d="M5.9,43C6.1,42.9,6,42.7,6,42.5c0-0.9,0-1.8,0-2.8c0-0.2,0-0.4,0.1-0.5c0.3,0.4,0.5,0.9,0.7,1.4
		c0.1,1,0,2,0,2.9c0,0.2,0,0.4-0.3,0.5h0c0,0-0.1-0.1-0.1-0.1l0,0c-0.1,0,0-0.1-0.1-0.2C6.2,43.5,6,43.3,5.9,43z"/>
	<path class="st41" d="M19.1,5.1c0.4-0.2,0.8-0.4,1.3-0.5c0.1-0.1,0.1,0,0.2-0.1c0,0,0.1,0,0.1,0c0.1,0,0.2,0,0.2,0.1
		c0.1,0.6,0.2,1.2-0.1,1.7c-0.5,0.3-0.9,0.5-1.5,0.7c-0.2-0.1-0.1-0.4-0.1-0.5C19.2,6.1,19.2,5.6,19.1,5.1z"/>
	<path class="st32" d="M14.4,16.5c0-0.8,0-1.7,0-2.5c0-0.1,0.1-0.3-0.1-0.4c0.3-0.4,0.6-0.7,1-1c0.1,0,0.2,0.1,0.2,0.2
		c0,0.7,0.1,1.5,0,2.2C15.1,15.5,14.8,16,14.4,16.5z"/>
	<path class="st33" d="M6.1,16c0-1.1,0-2.3,0-3.4c0-0.2,0-0.4-0.2-0.5c0.1-0.2,0.3-0.4,0.4-0.6c0.1,0,0.1-0.1,0.1-0.2l0,0
		c0,0,0.1-0.1,0.1-0.1l0,0c0,0,0.1-0.1,0.1-0.1l0,0c0.2,0,0.3,0.2,0.3,0.4c0,1.1,0.2,2.1-0.1,3.2C6.6,15.1,6.3,15.5,6.1,16z"/>
	<path class="st42" d="M16.2,9.2c0-0.6,0-1.3,0-1.9c0-0.2,0-0.4-0.2-0.5c0.4-0.3,0.8-0.5,1.2-0.7c0.2-0.1,0.3,0,0.3,0.2
		c0,0.7,0.2,1.4-0.1,2C17,8.7,16.6,9,16.2,9.2z"/>
	<path class="st26" d="M9.8,38.4c0.3,0.4,0.5,0.9,0.7,1.3c0.1,0.5,0,1.1,0.1,1.6c0,0.4,0,0.9,0,1.3c0,0.2,0,0.4-0.3,0.4h0
		c0-0.1-0.1-0.1-0.1-0.1c-0.3-0.2-0.5-0.5-0.6-0.8c0.1-1,0-2,0.1-3C9.6,38.8,9.5,38.5,9.8,38.4z"/>
	<path class="st43" d="M10.5,15.9c-0.2-0.7-0.1-1.5-0.1-2.2c0-0.4,0-0.8,0-1.2c0-0.1,0-0.3-0.2-0.3c0.2-0.3,0.4-0.5,0.6-0.7
		c0.3-0.1,0.4,0.1,0.4,0.3c0,1.1,0.2,2.1-0.1,3.2C11,15.2,10.8,15.6,10.5,15.9z"/>
	<path class="st33" d="M9.8,38.4c-0.2,0.1-0.1,0.3-0.1,0.5c0,0.9,0,1.8,0,2.7c0,0.2,0,0.4-0.2,0.5l0,0c0,0-0.1-0.1-0.1-0.1l0,0
		c-0.1,0,0-0.1-0.1-0.2c-0.2-0.2-0.4-0.5-0.5-0.8c0.2,0.1,0.3,0,0.3-0.2c0-0.8,0-1.7,0-2.5c0-0.5,0-0.9,0-1.4
		C9.3,37.3,9.6,37.8,9.8,38.4z"/>
	<path class="st26" d="M6.8,14.6c0-1,0-2,0-3c0-0.2,0-0.4-0.2-0.5c0.1-0.3,0.3-0.5,0.5-0.7c0.1,0,0.1-0.1,0.1-0.1l0,0
		c0.1,0,0.1-0.1,0.1-0.2l0,0c0,0,0.1-0.1,0.1-0.1l0,0c0.1,0.1,0.1,0.3,0.1,0.4c0,0.6,0,1.3,0,1.9c0,0.3,0,0.5,0.2,0.8
		C7.4,13.6,7.1,14.1,6.8,14.6z"/>
	<path class="st39" d="M8.4,43c-0.2,0.9-0.1,1.8-0.1,2.6c0,0.1,0,0.3-0.1,0.4l0,0c0,0-0.1-0.1-0.1-0.1l0,0c0,0-0.1-0.1-0.1-0.1l0,0
		c-0.1,0,0-0.1-0.1-0.2l0,0c0-0.1-0.1-0.1-0.1-0.1c-0.2-0.2-0.3-0.3-0.4-0.5c-0.1-0.9,0-1.7,0-2.6c0-0.2,0-0.5,0.2-0.7
		C7.9,42.2,8.2,42.6,8.4,43z"/>
	<path class="st44" d="M11.2,14.8c0-1,0-2,0-3c0-0.2,0-0.5-0.3-0.5c0.2-0.3,0.5-0.6,0.7-0.8c0,0,0.1-0.1,0.1-0.1h0
		c0.3,0,0.3,0.3,0.3,0.5c0,0.9,0.1,1.8,0,2.7C11.7,14.1,11.5,14.5,11.2,14.8z"/>
	<path class="st45" d="M19.1,5.1c0.2,0.1,0.2,0.2,0.2,0.4c0,0.5,0,1,0,1.5l0,0c0,0-0.1,0.1-0.1,0.1c-0.4,0.3-0.8,0.5-1.2,0.7
		c-0.2-0.2-0.1-0.4-0.1-0.6c0-0.5,0-1-0.1-1.5c0.3-0.2,0.7-0.4,1.1-0.5C19,5.2,19.1,5.2,19.1,5.1L19.1,5.1z"/>
	<path class="st26" d="M7.6,41.8c-0.2,0.9-0.1,1.8-0.1,2.7c0,0.2,0.1,0.4-0.1,0.5l0,0c0-0.1-0.1-0.1-0.1-0.1l0,0
		c0,0-0.1-0.1-0.1-0.1C7,44.6,6.7,44.3,6.6,44c0.2-0.1,0.2-0.3,0.2-0.5c0-0.8,0-1.6,0-2.4c0-0.2,0-0.4,0.1-0.5
		C7.1,41,7.4,41.4,7.6,41.8z"/>
	<path class="st46" d="M11.9,5.7C12,5.7,12.1,5.9,12.1,6c0,0.6,0,1.1,0,1.7C12.1,7.8,12,7.9,12,8c-0.3,0.3-0.6,0.6-0.9,0.9
		C11,8.7,11,8.6,11,8.4c0-0.5,0-1,0-1.4c0-0.2,0-0.3-0.2-0.3c0.2-0.3,0.5-0.5,0.9-0.7C11.7,5.8,11.8,5.8,11.9,5.7l-0.1,0.1
		C11.8,5.7,11.9,5.7,11.9,5.7L11.9,5.7z"/>
	<path class="st47" d="M23.3,3.7c0.5-0.2,1-0.3,1.6-0.4c0.3-0.1,0.5,0,0.5,0.3c0,0.4,0.1,0.7-0.1,1l0,0c-0.1,0-0.1,0-0.2,0.1
		c-0.5,0.2-1,0.3-1.6,0.5c-0.2-0.3-0.1-0.7-0.1-1C23.3,4,23.3,3.9,23.3,3.7z"/>
	<path class="st48" d="M19.2,53.4C19.2,53.4,19.2,53.4,19.2,53.4c-0.1-0.1-0.2-0.1-0.3-0.1c-0.5-0.1-0.9-0.3-1.4-0.6
		c0.1-0.4,0.1-0.8,0.1-1.1c0-0.2,0-0.4,0.1-0.5c0.5,0.2,1,0.5,1.6,0.7c0.2,0.5,0.1,0.9,0.1,1.4C19.4,53.3,19.3,53.4,19.2,53.4z"/>
	<path class="st40" d="M14.3,44.6c0.4,0.4,0.8,0.7,1.2,1.1c0.1,0.5,0,1.1,0,1.6c0,0.1,0,0.3-0.2,0.3c-0.5-0.3-0.9-0.6-1.3-0.9
		c0.1-0.5,0-1,0-1.5C14.1,45,14.1,44.8,14.3,44.6z"/>
	<path class="st48" d="M17.5,2.4c0.5-0.3,1-0.5,1.6-0.6c0.2-0.1,0.4,0.1,0.4,0.3c0.1,0.4,0.1,0.8-0.1,1.2v0c0,0-0.1,0.1-0.1,0.1
		c-0.5,0.3-1,0.5-1.6,0.7c-0.1-0.3,0-0.6,0-1C17.6,2.8,17.6,2.6,17.5,2.4z"/>
	<path class="st49" d="M13.5,11.8c-0.3,0.3-0.5,0.7-0.8,1c-0.2-0.3-0.2-0.6-0.2-0.9c0-0.7,0.1-1.4-0.1-2.1c0.2-0.3,0.5-0.5,0.8-0.7
		c0.3-0.1,0.4,0.2,0.4,0.4C13.5,10.2,13.6,11,13.5,11.8z"/>
	<path class="st50" d="M17.9,40.5c-0.3-0.3-0.6-0.6-0.9-0.9c0.1-0.6,0-1.2,0-1.8c0-0.2,0-0.5,0.2-0.6c0.3,0.4,0.7,0.9,1,1.3
		c0.1,0.6,0,1.2,0,1.8C18.2,40.5,18.2,40.6,17.9,40.5L17.9,40.5C17.9,40.6,17.9,40.5,17.9,40.5z"/>
	<path class="st51" d="M17.7,47.5c0.5,0.3,1,0.6,1.5,0.9c0.2,0.4,0.2,1.2-0.1,1.5l0,0c-0.1-0.1-0.1,0-0.2-0.1
		c-0.5-0.2-1-0.4-1.4-0.7c-0.1-0.4,0-0.8,0-1.2C17.5,47.7,17.5,47.5,17.7,47.5z"/>
	<path class="st52" d="M15.4,37.6c0.2,0,0.2-0.2,0.2-0.4c0-0.6,0-1.2,0-1.7c0-0.4,0-0.8,0.1-1.2c0.2,0.5,0.5,1,0.7,1.5
		c0.1,0.8,0,1.5,0,2.3c0,0.2,0.1,0.5-0.3,0.4l0,0c0,0-0.1-0.1-0.1-0.1C15.8,38.2,15.6,37.9,15.4,37.6z"/>
	<path class="st53" d="M17.5,2.4c0.1,0,0.3,0,0.3,0.2c0,0.5,0.1,1-0.1,1.5c-0.4,0.3-0.9,0.5-1.4,0.8c0.2-0.5,0.1-1,0.1-1.5
		c0-0.2-0.1-0.2-0.3-0.2C16.5,2.7,17,2.5,17.5,2.4z"/>
	<path class="st54" d="M11.3,40.9c0.2,0.3,0.4,0.6,0.6,0.9c0.1,0,0,0.1,0.1,0.2v0c0.1,0.7,0,1.5,0,2.2c0,0.2,0,0.4-0.3,0.4l0,0
		c0,0-0.1-0.1-0.1-0.1l0,0c0,0-0.1-0.1-0.1-0.1l0,0c-0.1-0.1-0.1-0.2-0.2-0.3c-0.2-0.1-0.3-0.3-0.4-0.5c0.1-0.7,0-1.4,0.1-2.1
		C11,41.4,10.9,41,11.3,40.9z"/>
	<path class="st52" d="M16.2,16.8c0.1,0.1,0.1,0.3,0.1,0.4c0,0.3,0,0.6,0,1c0,0.5,0,0.9,0.1,1.4c-0.2,0.5-0.4,1-0.7,1.5
		c-0.1-0.2-0.1-0.5-0.1-0.7c0-0.6,0-1.3,0-1.9c0-0.2,0-0.4-0.2-0.5c0.2-0.3,0.4-0.6,0.6-0.9c0,0,0.1-0.1,0.1-0.1l0,0
		C16.2,16.9,16.2,16.9,16.2,16.8L16.2,16.8z"/>
	<path class="st55" d="M20.8,6.3c0-0.5,0-0.9,0-1.4c0-0.1,0-0.3-0.1-0.4C21.1,4.2,21.5,4.1,22,4c0.2,0,0.3,0.1,0.3,0.2
		c0.1,0.5,0.2,1-0.1,1.4v0c-0.1,0-0.1,0-0.2,0.1C21.6,6,21.2,6.2,20.8,6.3z"/>
	<path class="st56" d="M17.8,51.1c0,0.4,0,0.8,0,1.2c0,0.2,0,0.3-0.2,0.4h0c-0.1-0.1-0.1,0-0.2-0.1c-0.4-0.1-0.8-0.3-1.2-0.6
		c0.1-0.4,0-0.8,0.1-1.2c0-0.2,0-0.4,0.1-0.5C16.9,50.5,17.3,50.8,17.8,51.1z"/>
	<path class="st46" d="M13.5,11.8c-0.1-0.2-0.1-0.3-0.1-0.5c0-0.6,0-1.2,0-1.8c0-0.2,0-0.4-0.3-0.4c0.3-0.3,0.5-0.6,0.9-0.7
		c0.3-0.1,0.3,0.1,0.3,0.3c0.1,0.7,0,1.5,0,2.2c0,0.2-0.1,0.3-0.2,0.4C13.9,11.4,13.7,11.6,13.5,11.8z"/>
	<path class="st43" d="M16.1,38.6c0.2,0,0.2-0.2,0.2-0.3c0-0.6,0-1.3,0-1.9c0-0.2,0-0.4,0.1-0.5c0.3,0.4,0.5,0.8,0.7,1.2
		c0.1,0.1,0,0.2,0.1,0.2l0,0c-0.1,0.2-0.1,0.3-0.1,0.5c0,0.5,0,1,0,1.4c0,0.2,0,0.3-0.2,0.4l0,0c-0.1-0.1-0.1-0.2-0.2-0.3l0,0
		c0-0.1-0.1-0.1-0.1-0.1C16.4,39.1,16.3,38.8,16.1,38.6z"/>
	<path class="st41" d="M19.1,49.9C19.1,49.9,19.1,49.9,19.1,49.9c0.1-0.5,0.1-1,0.1-1.5c0.5,0.3,1.1,0.5,1.6,0.8
		c0.2,0.3,0.3,0.9,0.2,1.2c-0.1,0.2-0.2,0.2-0.3,0.1l0,0c-0.1-0.1-0.1,0-0.2-0.1C19.9,50.3,19.4,50.1,19.1,49.9z"/>
	<path class="st57" d="M14.1,11.2c0.1-0.2,0.1-0.4,0.1-0.7c0-0.6,0-1.2,0-1.8c0-0.2,0-0.3-0.2-0.3c0.1-0.2,0.4-0.3,0.6-0.4
		c0,0,0.1-0.1,0.1-0.1c0,0,0,0,0.1,0c0.1,0,0.1,0,0.1-0.1l0,0c0,0,0.1-0.1,0.1-0.1l0,0C15.1,7.7,15,7.9,15,8c0,0.5,0,1.1,0,1.6
		c0,0.2,0,0.4,0.1,0.5l0,0c0,0-0.1,0.1-0.1,0.1C14.7,10.6,14.4,10.9,14.1,11.2z"/>
	<path class="st9" d="M17.4,18c0-0.7,0-1.3,0-2c0-0.1,0-0.3-0.1-0.4c0.2-0.3,0.5-0.6,0.8-0.8c0,0,0.1-0.1,0.1-0.1l0,0
		c0.2-0.1,0.3,0,0.3,0.1c0.1,0.6,0.2,1.3-0.1,1.9C18.1,17.1,17.7,17.5,17.4,18z"/>
	<path class="st58" d="M19.3,3.2c0-0.4,0-0.7,0-1.1c0-0.2,0-0.4-0.3-0.4c0.4-0.2,0.9-0.4,1.4-0.5c0.3-0.1,0.4,0,0.5,0.2
		C21,1.9,21,2.3,20.8,2.7C20.3,2.9,19.9,3.1,19.3,3.2z"/>
	<path class="st43" d="M11.3,40.9c-0.1,0.2-0.2,0.5-0.2,0.7c0,0.6,0,1.2,0,1.7c0,0.1,0,0.3-0.2,0.4c-0.3-0.2-0.5-0.5-0.7-0.8
		c0.2,0,0.2-0.2,0.2-0.3c0-0.5,0-1.1,0-1.6c0-0.4,0-0.8,0.1-1.2C10.8,40.1,11,40.5,11.3,40.9z"/>
	<path class="st58" d="M19.2,53.4c0.1-0.1,0.1-0.2,0.1-0.4c0-0.4,0-0.8,0-1.2c0.5,0.2,0.9,0.4,1.4,0.5c0.2,0.3,0.3,1.1,0.1,1.4
		c-0.1,0.1-0.1,0.1-0.2,0.1C20.1,53.7,19.7,53.6,19.2,53.4z"/>
	<path class="st59" d="M15.5,15c-0.1-0.7-0.1-1.4-0.1-2c0-0.1,0-0.3-0.1-0.4c0.2-0.2,0.4-0.5,0.7-0.6c0-0.1,0.1,0,0.2-0.1l0,0
		c0.2,0,0.3,0.1,0.3,0.2c0,0.7,0.2,1.3-0.1,2l0,0c0,0-0.1,0.1-0.1,0.1C16,14.4,15.8,14.7,15.5,15z"/>
	<path class="st60" d="M12.3,9.8c0.2,0,0.2,0.2,0.2,0.3c0,0.6,0,1.1,0,1.7c0,0.3,0.1,0.7,0.1,1c-0.2,0.3-0.4,0.6-0.6,0.8
		c-0.1-0.2-0.1-0.3-0.1-0.5c0-0.7,0-1.4,0-2.1c0-0.2,0-0.4-0.2-0.6C11.9,10.2,12.1,10,12.3,9.8z"/>
	<path class="st61" d="M20.6,53.8c0.1,0,0.2-0.1,0.2-0.2c0-0.4,0.1-0.9-0.1-1.3c0.4,0.1,0.9,0.3,1.3,0.4c0.1,0.1,0.2,0,0.3,0.1
		c0,0,0.1,0,0.1,0c0.2,0.3,0.2,0.7,0.1,1c-0.1,0.3-0.3,0.4-0.5,0.3C21.5,54.1,21,54,20.6,53.8z"/>
	<path class="st62" d="M22.2,5.7c0-0.4,0-0.8,0-1.1c0-0.2,0-0.4-0.2-0.5c0.4-0.2,0.8-0.3,1.3-0.4c0.1,0,0.2,0.1,0.2,0.2
		c0,0.5,0,0.9,0,1.4C23,5.4,22.6,5.6,22.2,5.7z"/>
	<path class="st63" d="M17,11.1c0.3-0.3,0.6-0.5,0.9-0.7c0,0,0.1-0.1,0.1-0.1h0c0.1,0,0.2,0.1,0.2,0.2c0,0.6,0.2,1.2-0.1,1.8
		c-0.4,0.4-0.8,0.8-1.2,1.2C17,12.7,16.9,11.9,17,11.1z"/>
	<path class="st61" d="M20.8,2.7c0-0.3,0-0.7,0-1c0-0.3-0.1-0.4-0.4-0.4C21,1,21.5,0.9,22.1,0.8c0.1-0.1,0.2,0,0.2,0.1
		c0.2,0.3,0.1,1-0.1,1.3C21.7,2.4,21.3,2.5,20.8,2.7z"/>
	<path class="st64" d="M15.3,47.7c0.2-0.1,0.1-0.3,0.1-0.4c0-0.3,0-0.7,0-1c0-0.2,0-0.3,0.1-0.5c0.4,0.3,0.7,0.5,1,0.8
		c0.3,0.5,0.2,1,0.1,1.6c0,0.2-0.2,0.3-0.4,0.2l0,0c0,0-0.1-0.1-0.1-0.1C15.8,48.1,15.5,47.9,15.3,47.7z"/>
	<path class="st65" d="M28.5,1.1C28.7,0.9,28.8,1,29,1c0.2,0,0.4,0,0.7,0c0.5,0,1,0,1.5,0c0.2,0,0.4,0.1,0.4-0.1
		c0.1-0.2,0.1-0.4-0.1-0.6c0,0,0,0-0.1-0.1c0.8,0.1,1.6,0.2,2.4,0.4c0.2,0.4,0.2,0.7-0.2,0.7c-0.6,0-1.2-0.1-1.8-0.2
		c-0.1,0-0.3,0-0.4,0C30.5,1.1,29.5,1.1,28.5,1.1z"/>
	<path class="st59" d="M15.2,43c0.3-0.1,0.3-0.3,0.3-0.5c0-0.7,0-1.3,0-2c0.3,0.3,0.6,0.6,0.8,1c0.3,0.7,0.1,1.4,0.1,2.1
		c0,0.1-0.1,0.3-0.3,0.2C15.8,43.6,15.5,43.3,15.2,43z"/>
	<path class="st66" d="M18.1,12.3c0-0.5,0-1,0-1.5c0-0.1,0.1-0.3-0.1-0.4c0.3-0.3,0.7-0.5,1-0.6c0.2-0.1,0.3,0,0.3,0.2
		c0,0.5,0.2,1-0.1,1.6C18.8,11.7,18.5,12.1,18.1,12.3z"/>
	<path class="st60" d="M11.7,44.6c0.2-0.1,0.2-0.3,0.2-0.5c0-0.5,0-1.1,0-1.6c0-0.2,0-0.4,0.1-0.5c0.3,0.3,0.5,0.6,0.7,0.9
		c0.1,0.7,0,1.4,0,2.1c0,0.2,0,0.4-0.3,0.4l0,0c0,0-0.1-0.1-0.1-0.1C12.1,45.1,11.9,44.9,11.7,44.6z"/>
	<path class="st67" d="M18,40.6c0.2-0.1,0.2-0.2,0.2-0.4c0-0.3,0-0.7,0-1c0-0.2,0-0.5,0.1-0.7c0.3,0.3,0.5,0.6,0.8,0.9
		c0.3,0.6,0.1,1.2,0.1,1.8c0,0.1-0.1,0.3-0.3,0.2C18.6,41.2,18.2,40.9,18,40.6z"/>
	<path class="st68" d="M33.4,53.8c0.2-0.2,0.4-0.1,0.6-0.1c0.9-0.1,1.8-0.3,2.7-0.5c0.2,0.2,0.2,0.4,0,0.6c-1,0.3-1.9,0.6-2.9,0.7
		C33.8,54.2,33.8,53.9,33.4,53.8z"/>
	<path class="st42" d="M16.2,48.3c0.2,0,0.3-0.1,0.3-0.3c0-0.5,0-1,0-1.4c0.4,0.2,0.8,0.5,1.1,0.8c0,0,0.1,0.1,0.1,0.1l0,0
		c-0.1,0.2-0.1,0.4-0.1,0.7c0,0.3,0.1,0.6-0.1,0.9c0,0-0.1,0-0.1,0c0,0-0.1-0.1-0.1-0.1C16.9,48.8,16.5,48.6,16.2,48.3z"/>
	<path class="st69" d="M25.2,4.7c0-0.3,0-0.7,0-1c0-0.3,0-0.3-0.4-0.3c0.2-0.2,0.4-0.1,0.6-0.1C25.8,3.1,26.2,3,26.6,3
		c0.2,0.5,0.2,0.9,0,1.4C26.1,4.5,25.7,4.6,25.2,4.7z"/>
	<path class="st46" d="M14.3,44.6c-0.2,0.4-0.1,0.9-0.1,1.3c0,0.2,0,0.4,0,0.6c0,0.1,0,0.2-0.2,0.2l0,0c0,0-0.1-0.1-0.1-0.1
		c-0.3-0.2-0.5-0.4-0.7-0.6c0.1-0.5,0-1,0.1-1.4c0-0.3,0-0.6,0.2-0.8C13.7,44,14,44.3,14.3,44.6C14.2,44.6,14.3,44.6,14.3,44.6
		L14.3,44.6z"/>
	<path class="st62" d="M22.2,49.9c0.5,0.2,1,0.4,1.5,0.5c0.1,0.1,0.1,0,0.2,0.1c0,0,0.1,0,0.1,0c0.2,0.5,0.2,0.8-0.1,1
		c0,0-0.1,0-0.1,0c-0.1-0.1-0.2,0-0.3-0.1c-0.6-0.1-1.1-0.3-1.6-0.5c0.2-0.2,0.3-0.4,0.2-0.7C22,50.1,22.1,50,22.2,49.9z"/>
	<path class="st70" d="M23.8,51.5c0.2-0.1,0.1-0.3,0.1-0.5c0-0.2,0-0.3,0-0.5c0.7,0.2,1.3,0.4,2,0.6c0.2,0.2,0.2,0.4,0.1,0.6
		c0,0.2-0.2,0.3-0.4,0.2C25,51.8,24.4,51.7,23.8,51.5z"/>
	<path class="st41" d="M20.2,44.8c0.4,0.2,0.8,0.5,1.2,0.7c0.2,0.4,0.1,0.9,0.1,1.3c0,0.1-0.1,0.3-0.3,0.2c-0.4-0.1-0.8-0.3-1.1-0.5
		C20,45.9,19.9,45.4,20.2,44.8z"/>
	<path class="st49" d="M13.5,43.7c-0.1,0.7-0.1,1.3-0.1,2c0,0.1,0,0.3-0.2,0.3h0c0,0-0.1-0.1-0.1-0.1c-0.2-0.2-0.5-0.3-0.6-0.6
		c0.2-0.1,0.2-0.3,0.2-0.4c0-0.5,0-1,0-1.6c0-0.2,0-0.3,0.1-0.5C13,43.1,13.2,43.4,13.5,43.7z"/>
	<path class="st71" d="M33.1,3.1C33.1,3.1,33.1,3.1,33.1,3.1C33.5,3.7,33.3,4,32.6,4c-0.2,0-0.4,0.1-0.7,0c-0.3,0-0.5,0-0.8,0
		c-0.1-0.3-0.6-0.8-1-1c0,0,0-0.1,0-0.1c0.9,0,1.7,0.1,2.6,0.2C32.8,3.1,33,3,33.1,3.1z"/>
	<path class="st72" d="M30.1,2.8c0.2,0.2,0.3,0.1,0.5,0.1c0.5,0,0.5,0,0.5,0.5c0,0.2,0,0.3,0,0.5c-0.6-0.1-1.3,0.1-1.9,0.1
		c0.3-0.9,0.2-1-0.7-1c-0.2,0-0.3,0-0.5,0c-0.2,0-0.3,0-0.4-0.1c0.1-0.1,0.3-0.1,0.4-0.1C28.7,2.8,29.4,2.8,30.1,2.8z"/>
	<path class="st68" d="M32,3.9c0.3,0,0.5,0,0.8,0c0.3,0,0.4-0.1,0.4-0.4c0-0.2,0-0.3,0-0.5c0.7,0,1.4,0.2,2,0.4
		c0.3,0.2,0.3,0.4,0.2,0.6c-0.1,0.2-0.3,0.2-0.4,0.1c-0.5,0-1-0.1-1.6-0.2c-0.3,0-0.6,0-0.9,0C32.3,4,32.1,4.1,32,3.9z"/>
	<path class="st73" d="M18.9,41.4c0.2,0,0.2-0.2,0.2-0.4c0-0.5,0-1.1,0-1.6c0.3,0.3,0.6,0.6,0.9,0.9c0,0,0.1,0.1,0.1,0.1v0
		c0.1,0.5,0,1,0,1.4c0,0.2-0.1,0.3-0.4,0.2C19.4,41.9,19.1,41.7,18.9,41.4z"/>
	<path class="st41" d="M21.4,10c-0.3,0.2-0.7,0.5-1.1,0.7C20,10.6,20,10.3,20,10.1c0-0.3,0-0.7-0.1-1c0.3-0.2,0.7-0.4,1.1-0.5
		c0.2-0.1,0.4,0,0.4,0.2C21.5,9.2,21.6,9.6,21.4,10z"/>
	<path class="st74" d="M27.6,2.9c0.2,0,0.3,0,0.5,0c0.2,0.4,0.2,0.8,0,1.2l0,0c-0.1,0.1-0.3,0-0.5,0.1c-0.3,0.1-0.7,0.2-1,0.2
		c0-0.5,0-0.9,0-1.4C26.9,2.9,27.2,3,27.6,2.9z"/>
	<path class="st75" d="M22.2,2.2c0.2-0.4,0.1-0.8,0.1-1.3c0-0.1-0.1-0.1-0.2-0.1c0.4-0.2,0.8-0.3,1.3-0.3c0.1-0.1,0.3-0.1,0.3,0.1
		c0.2,0.3,0.1,0.9-0.2,1.2C23.1,1.9,22.6,2.1,22.2,2.2z"/>
	<path class="st76" d="M23.6,46.7c0.5,0.2,1,0.4,1.6,0.6c0.1,0.3,0,0.6,0,0.9c0,0.1-0.1,0.3-0.3,0.2c-0.4-0.1-0.9-0.2-1.3-0.4
		C23.4,47.5,23.4,47.1,23.6,46.7z"/>
	<path class="st41" d="M23.6,44.2c-0.4-0.1-0.8-0.3-1.2-0.5c0-0.5-0.2-1,0.2-1.4c0.4,0.2,0.8,0.4,1.2,0.6c0.2,0.4,0.1,0.7,0.1,1.1
		C23.8,44.1,23.7,44.3,23.6,44.2z"/>
	<path class="st70" d="M23.6,1.8c0.2-0.4,0.1-0.7,0.1-1.1c0-0.2-0.2-0.2-0.3-0.2c0.5-0.2,1.1-0.3,1.7-0.3c0.2,0.4,0.3,0.8,0.1,1.2
		l0,0c-0.1,0.1-0.3,0-0.4,0.1C24.3,1.6,23.9,1.7,23.6,1.8z"/>
	<path class="st68" d="M33.7,1.3c0.1,0,0.2,0,0.2-0.1c0-0.2,0.1-0.4,0-0.6c0.9,0.1,1.7,0.4,2.6,0.6c0.2,0.5,0.1,0.6-0.4,0.5
		c-0.6-0.1-1.2-0.2-1.7-0.3C34.2,1.4,33.9,1.5,33.7,1.3z"/>
	<path class="st65" d="M33.4,53.8C33.4,53.8,33.4,53.8,33.4,53.8c0.2,0,0.4-0.1,0.5,0.1c0.1,0.2,0.1,0.4-0.2,0.6
		c-0.7,0.1-1.3,0.3-2,0.3c0-0.2,0-0.3,0-0.5c0-0.3,0-0.3-0.4-0.3c0.1,0,0.1-0.1,0.2-0.1C32.1,54,32.7,53.8,33.4,53.8z"/>
	<path class="st77" d="M25.7,51.9c0.2,0,0.3,0,0.3-0.2c0-0.2,0-0.4,0-0.6c0.4,0,0.8,0.2,1.2,0.2c0.3,0,0.6,0.1,0.9,0.2
		c0.4,0.2,0.4,0.4,0.2,0.7c-0.1,0-0.2,0-0.3,0c-0.3-0.1-0.6,0-0.9-0.1C26.6,52.1,26.1,52,25.7,51.9z"/>
	<path class="st55" d="M22.2,49.9c0,0.2,0,0.5,0,0.7c0,0.3-0.1,0.4-0.4,0.4c-0.4-0.1-0.9-0.3-1.3-0.5c0.1,0,0.3,0,0.3-0.2
		c0-0.4,0.1-0.8-0.1-1.1C21.2,49.4,21.7,49.6,22.2,49.9z"/>
	<path class="st53" d="M20.2,44.8c0,0.5,0,1,0,1.5c0,0.1-0.1,0.1-0.1,0.2h0c0-0.1-0.1,0-0.2-0.1c-0.3-0.1-0.6-0.3-0.8-0.5
		c-0.1-0.4,0-0.9,0-1.3c0-0.2,0.1-0.3,0.2-0.4c0.3,0.1,0.4,0.3,0.6,0.4C19.9,44.7,20,44.7,20.2,44.8L20.2,44.8
		C20.1,44.8,20.1,44.8,20.2,44.8L20.2,44.8z"/>
	<path class="st62" d="M23.6,46.7c0,0.4,0,0.9,0,1.3c-0.5-0.1-0.9-0.2-1.4-0.5c0-0.5-0.2-1,0.2-1.4C22.9,46.2,23.2,46.5,23.6,46.7z"
		/>
	<path class="st75" d="M21.9,54.2c0.4,0,0.4-0.1,0.5-0.5c0-0.3,0-0.5,0-0.8c0.4,0.1,0.9,0.2,1.3,0.4c0.2,0.4,0.3,0.9-0.1,1.3
		c0,0-0.1,0-0.1,0c-0.1-0.1-0.2,0-0.3-0.1C22.7,54.4,22.3,54.4,21.9,54.2z"/>
	<path class="st76" d="M23.4,7.7c0.4-0.2,0.8-0.3,1.3-0.4c0.1-0.1,0.2,0,0.3-0.1c0,0,0.1,0,0.1,0c0.2,0.4,0.2,0.7,0,1.1
		c-0.5,0.2-1,0.4-1.5,0.5C23.4,8.5,23.6,8.1,23.4,7.7z"/>
	<path class="st10" d="M26.5,54.9C26.5,54.9,26.4,54.9,26.5,54.9c-0.6,0-1.2,0-1.7-0.2c0.1-0.4,0-0.8,0.2-1.2c0.5,0.1,1,0.1,1.5,0.3
		C26.7,54.2,26.7,54.5,26.5,54.9z"/>
	<path class="st78" d="M16.4,50.3c0,0.5,0,0.9,0,1.4c0,0.1,0,0.3-0.2,0.3l0,0c0-0.1-0.1,0-0.2-0.1c-0.2-0.1-0.4-0.2-0.6-0.3
		c0-0.1,0.1-0.1,0.1-0.2c0-0.6,0.1-1.2-0.1-1.7C15.8,49.8,16.1,50.1,16.4,50.3z"/>
	<path class="st40" d="M16.1,43.8c0.2-0.1,0.2-0.3,0.2-0.4c0-0.6,0-1.2,0-1.9c0.3,0.2,0.5,0.5,0.7,0.8c0.3,0.6,0.1,1.3,0.1,1.9
		c0,0.2-0.1,0.3-0.3,0.2C16.6,44.2,16.3,44,16.1,43.8z"/>
	<path class="st53" d="M20,9.2c0.2,0.1,0.2,0.3,0.2,0.5c0,0.3-0.1,0.7,0.1,1l0,0c0,0-0.1,0.1-0.1,0.1l0,0c-0.1,0.1-0.1,0-0.2,0.1
		c-0.3,0.2-0.5,0.4-0.8,0.6c0-0.5,0-0.9,0-1.4c0-0.1,0-0.3-0.2-0.3c0.3-0.2,0.5-0.4,0.8-0.5C19.8,9.2,19.9,9.2,20,9.2L20,9.2z"/>
	<path class="st70" d="M25,53.5c0,0.3,0,0.6,0,0.9c0,0.1,0,0.3-0.2,0.3c-0.4,0-0.9-0.1-1.3-0.2c0.1-0.2,0.1-0.5,0.1-0.8
		c0-0.2,0-0.3,0-0.5C24.1,53.3,24.6,53.4,25,53.5z"/>
	<path class="st79" d="M23.4,7.7c0.2,0,0.2,0.2,0.2,0.3c0,0.3,0,0.6,0,0.9c-0.4,0.2-0.8,0.4-1.3,0.6c-0.3-0.4-0.1-0.9-0.2-1.3
		C22.6,7.9,23,7.8,23.4,7.7z"/>
	<path class="st80" d="M25.1,1.5c0-0.4-0.1-0.8-0.1-1.2c0.3-0.1,0.6-0.1,0.9-0.1c0.3,0,0.6-0.2,0.7,0.2c0.2,0.4,0,0.7-0.3,0.9
		C26,1.4,25.5,1.4,25.1,1.5z"/>
	<path class="st40" d="M17,11.1c0.1,0.1,0.1,0.2,0.1,0.3c0,0.5,0,1,0,1.5c0,0.2-0.2,0.3-0.2,0.5c-0.2,0.2-0.3,0.4-0.5,0.6
		c0-0.6,0-1.2,0-1.8c0-0.2,0-0.4-0.2-0.5c0.1-0.2,0.3-0.4,0.5-0.4c0.1,0,0.1,0,0.1-0.1l0,0c0,0,0.1-0.1,0.1-0.1l0,0
		C16.9,11.2,16.9,11.1,17,11.1L17,11.1z"/>
	<path class="st48" d="M23.6,12.6c-0.4,0.2-0.8,0.5-1.2,0.7c-0.2-0.2-0.1-0.5-0.1-0.8c0-0.2,0-0.3-0.1-0.5c0.3-0.2,0.7-0.3,1-0.5
		c0.1-0.1,0.1,0,0.2-0.1c0,0,0.1,0,0.1,0c0.1-0.1,0.2,0,0.3,0.1C24,11.7,23.9,12.3,23.6,12.6z"/>
	<path class="st4" d="M28.6,48.9c-0.3,0-0.7,0.1-1-0.1c0.5-0.3,0.5-0.3,0.3-0.9c0.6,0,1.1,0.2,1.7,0.2c0.2,0,0.3,0,0.5,0.1
		c0.3,0.6,0.2,0.8-0.5,0.8C29.3,48.9,28.9,48.9,28.6,48.9z"/>
	<path class="st81" d="M36.1,1.7c0.4-0.1,0.4-0.1,0.4-0.5c0.7,0.1,1.3,0.4,1.9,0.6c0.3,0.1,0.5,0.2,0.8,0.3c0.1,0.2,0.1,0.4-0.2,0.5
		c-0.1,0-0.3,0-0.4-0.1C37.8,2.2,37,2,36.1,1.7C36.1,1.8,36.1,1.8,36.1,1.7z"/>
	<path class="st2" d="M28,4.1c0-0.4,0-0.8,0-1.2c0.4,0,0.8,0,1.2,0c0.2,0,0.3,0.1,0.3,0.3c0,0.1,0,0.2,0,0.3c0,0.2-0.1,0.4-0.3,0.5
		C28.8,4.1,28.4,4.2,28,4.1z"/>
	<path class="st82" d="M24.9,48.3c0.2,0,0.2-0.2,0.2-0.3c0-0.3,0-0.5,0.1-0.8c0.4,0.1,0.9,0.2,1.3,0.4c0.3,0.2,0.2,0.6,0.2,0.9
		c0,0.2-0.2,0.2-0.4,0.1C25.8,48.6,25.4,48.5,24.9,48.3z"/>
	<path class="st82" d="M25.1,8.3c0-0.4,0-0.7,0-1.1C25.6,7.1,26,7,26.5,7c0.2-0.1,0.3,0.1,0.3,0.2c0,0.2,0.1,0.5-0.1,0.7l0,0
		c-0.1,0.1-0.2,0-0.3,0.1C26,8.1,25.5,8.2,25.1,8.3z"/>
	<path class="st83" d="M16.8,44.4c0.2,0,0.2-0.2,0.2-0.3c0-0.6,0-1.2,0-1.8c0.3,0.2,0.5,0.4,0.7,0.7c0,0,0.1,0.1,0.1,0.1l0,0
		c0.1,0.5,0,1,0,1.5c0,0.2-0.1,0.4-0.3,0.3c0,0-0.1,0-0.1,0c0,0-0.1-0.1-0.1-0.1l0,0c0,0-0.1-0.1-0.1-0.1
		C17.1,44.7,17,44.5,16.8,44.4z"/>
	<path class="st84" d="M28.2,52.2c0-0.3,0.1-0.5-0.2-0.7c0.5,0.1,1,0.1,1.5,0.2c0.2,0,0.4,0,0.6,0c0.1,0.1,0.2,0,0.3,0
		c0.4,0,0.4,0.1,0.3,0.5c-0.3,0-0.6,0.1-0.9,0.1C29.3,52.2,28.7,52.3,28.2,52.2z"/>
	<path class="st6" d="M36.7,53.8c0-0.2,0-0.4,0-0.6c0.3-0.2,0.6-0.2,0.9-0.3c0.5-0.2,1-0.3,1.4-0.4c0.3-0.1,0.4,0.1,0.3,0.4
		C38.5,53.2,37.6,53.5,36.7,53.8z"/>
	<path class="st59" d="M18.4,16.7c0-0.6,0-1.2,0-1.8c0-0.1-0.1-0.2-0.2-0.2c0.2-0.3,0.5-0.4,0.7-0.6c0.2-0.1,0.3,0.1,0.3,0.2
		c0,0.5,0.1,1,0,1.5C19,16.1,18.7,16.4,18.4,16.7z"/>
	<path class="st85" d="M26.4,1.3c0.3-0.3,0.2-0.6,0.2-1c0-0.1-0.1-0.1-0.2-0.1c-0.2,0-0.3,0-0.5,0c0.2-0.2,0.4-0.1,0.6-0.1
		c0.2,0,0.5,0,0.7,0c0.7,0,0.6-0.1,0.6,0.7c0,0.1,0,0.2,0,0.4C27.4,1.2,26.9,1.2,26.4,1.3z"/>
	<path class="st86" d="M26.3,48.6c0.1,0,0.3,0,0.3-0.2c0-0.3,0.1-0.5-0.1-0.8c0.5,0.1,0.9,0.2,1.4,0.3c0.1,0.1,0.3,0.1,0.3,0.3
		c0,0.2,0,0.4,0,0.5c0,0.1-0.1,0.1-0.2,0.1c-0.1,0-0.2,0-0.4,0C27.1,48.8,26.7,48.7,26.3,48.6z"/>
	<path class="st73" d="M19.2,15.8c-0.2-0.5-0.1-0.9-0.1-1.4c0-0.1,0-0.3-0.2-0.4c0.2-0.2,0.4-0.4,0.7-0.6c0,0,0.1-0.1,0.1-0.1l0,0
		c0.2,0,0.3,0.1,0.3,0.3c0,0.4,0.1,0.9,0,1.3l0,0c0,0-0.1,0.1-0.1,0.1C19.8,15.3,19.5,15.6,19.2,15.8z"/>
	<path class="st87" d="M22.5,46.1c-0.1,0.3-0.1,0.6-0.1,0.9c0,0.2,0.1,0.3-0.1,0.5l0,0c-0.1-0.1-0.1,0-0.2-0.1c0,0-0.1,0-0.1,0
		c-0.1-0.1-0.1,0-0.2-0.1c-0.2-0.1-0.4-0.2-0.6-0.3c0.2,0,0.2-0.2,0.2-0.3c0-0.4,0-0.8,0-1.2c0.3,0.1,0.6,0.3,0.9,0.5
		C22.3,46.1,22.4,46.1,22.5,46.1L22.5,46.1z"/>
	<path class="st88" d="M17.6,44.9c0.2-0.1,0.2-0.2,0.2-0.4c0-0.3,0-0.6,0-1c0-0.2,0-0.3,0.1-0.5c0.3,0.1,0.4,0.3,0.6,0.5
		c0.3,0.6,0.1,1.2,0.1,1.8c0,0.1-0.1,0.2-0.2,0.1l0,0c0,0-0.1-0.1-0.1-0.1C18,45.3,17.7,45.1,17.6,44.9z"/>
	<path class="st85" d="M26.5,54.9c0-0.4,0-0.7,0-1.1c0.4,0,0.8,0.1,1.2,0.1C27.7,54,28,54,28,54.2c0,0.2,0,0.4,0,0.6
		c0,0.1-0.2,0.2-0.3,0.2c-0.2,0-0.5,0-0.7,0C26.8,54.9,26.6,54.9,26.5,54.9z"/>
	<path class="st78" d="M17.9,5.8c0.2,0,0.2,0.2,0.2,0.3c0,0.6,0,1.2,0,1.8c-0.2,0.2-0.4,0.3-0.6,0.4c0-0.6,0-1.2,0-1.9
		c0-0.2,0-0.3-0.2-0.3C17.4,6,17.6,5.8,17.9,5.8z"/>
	<path class="st87" d="M22.2,8.1c0.2,0.1,0.2,0.2,0.2,0.4c0,0.3,0,0.6,0,0.9l0,0c-0.1,0-0.1,0-0.2,0.1c-0.3,0.2-0.5,0.3-0.8,0.4
		c0-0.4,0-0.7,0-1.1c0-0.2-0.1-0.3-0.3-0.3c0.2-0.2,0.5-0.3,0.8-0.4C22,8.2,22,8.2,22.2,8.1C22.1,8.2,22.1,8.1,22.2,8.1z"/>
	<path class="st4" d="M29.8,7.4c-0.5,0.1-1,0.1-1.6,0.2C28,7.4,28.2,7,28,6.8c0.1-0.1,0.3-0.1,0.4-0.1c0.6,0,1.1,0,1.7,0
		C30.3,7.2,30.2,7.3,29.8,7.4z"/>
	<path class="st51" d="M22.6,42.2c-0.1,0.3-0.1,0.6-0.1,0.9c0,0.2,0.1,0.3-0.1,0.5c-0.3-0.1-0.6-0.3-0.9-0.5c0-0.5-0.2-1.1,0.2-1.5
		c0.3,0.2,0.5,0.4,0.8,0.5C22.5,42.2,22.5,42.2,22.6,42.2L22.6,42.2z"/>
	<path class="st89" d="M21.6,41.6c-0.1,0.5-0.1,0.9-0.1,1.4c0,0.1-0.1,0.1-0.1,0.2l0,0c0-0.1-0.1,0-0.2-0.1l0,0c0,0-0.1-0.1-0.1-0.1
		c-0.2-0.1-0.4-0.2-0.6-0.4c0.1-0.4,0-0.7,0.1-1.1c0-0.2,0-0.4,0.1-0.5c0.2,0.1,0.4,0.3,0.6,0.5c0,0,0.1,0.1,0.1,0.1l0,0
		C21.5,41.6,21.6,41.6,21.6,41.6L21.6,41.6z"/>
	<path class="st90" d="M27.9,6.8c0.2,0,0.3,0,0.3,0.2c0,0.2,0,0.4,0,0.6c-0.1,0-0.1,0-0.2,0c-0.1,0.1-0.3,0-0.4,0.1
		c-0.3,0.1-0.7,0.2-1,0.2c0-0.2,0-0.4,0-0.7c0-0.1,0-0.2-0.2-0.3C27,6.8,27.5,6.8,27.9,6.8z"/>
	<path class="st91" d="M28.6,48.9c0.4,0,0.7,0,1.1,0c0.4,0,0.4,0,0.4-0.4c0-0.1,0-0.2,0-0.4c0.2,0,0.4,0,0.5,0c0.3,0.1,0.6,0,0.9,0
		c0.2,0,0.4-0.1,0.5,0.2c0.1,0.3-0.1,0.4-0.4,0.4c-0.9,0.1-1.7,0.1-2.6,0.1C28.9,48.9,28.7,49,28.6,48.9z"/>
	<path class="st38" d="M20.7,41c0,0.5,0,0.9,0,1.4c0,0.1,0,0.3-0.2,0.3c-0.3-0.1-0.6-0.3-0.8-0.6c0.2,0,0.3,0,0.3-0.2
		c0-0.2,0-0.5,0-0.7c0-0.3,0-0.5,0.1-0.8C20.3,40.6,20.5,40.7,20.7,41z"/>
	<path class="st51" d="M22.3,11.9c0.2,0,0.2,0.2,0.2,0.3c0,0.3,0,0.7,0,1c-0.3,0.2-0.6,0.4-0.9,0.6c-0.2-0.2-0.1-0.4-0.1-0.6
		c0-0.3,0-0.5-0.2-0.8c0.3-0.2,0.5-0.3,0.8-0.5C22.1,12,22.2,12,22.3,11.9L22.3,11.9z"/>
	<path class="st92" d="M34.9,4.2c0.4,0,0.4-0.1,0.4-0.4c0-0.1,0-0.2-0.1-0.3c0.7,0.1,1.3,0.3,1.9,0.5c0.2,0.5,0.1,0.6-0.4,0.5
		C36.1,4.5,35.5,4.4,34.9,4.2z"/>
	<path class="st93" d="M39.3,4.9c0.7,0.3,1.3,0.6,2,1C41.6,6,42,6.2,42.3,6.4c0.1,0,0.2,0.1,0.2,0.1c0.1,0.1,0.1,0.1,0,0.2
		c-0.1,0-0.1,0.1-0.2,0c-0.2-0.1-0.4-0.2-0.6-0.3c-0.8-0.4-1.6-0.7-2.5-1c0,0,0,0-0.1-0.1C39.2,5.2,39.2,5,39.3,4.9z"/>
	<path class="st77" d="M28.8,45.4c-0.5,0-1,0-1.5-0.2c0.1-0.3,0-0.7,0.2-0.9c0.4,0,0.8,0.1,1.2,0.2c0.5,0.2,0.3,0.5,0.2,0.9
		C28.9,45.4,28.8,45.4,28.8,45.4z"/>
	<path class="st94" d="M39.3,4.9c0,0.2,0.1,0.3-0.1,0.5c0,0-0.1,0-0.1,0c0-0.1-0.1,0-0.2-0.1c0,0-0.1,0-0.1,0c0-0.1-0.1,0-0.2-0.1
		c-0.6-0.2-1.2-0.3-1.8-0.5c0,0-0.1-0.1-0.1-0.1c0.4,0,0.4,0,0.4-0.5c0.6,0.2,1.2,0.4,1.8,0.6c0,0,0.1,0.1,0.1,0.1c0,0,0.1,0,0.1,0
		C39.2,4.8,39.3,4.8,39.3,4.9L39.3,4.9z"/>
	<path class="st95" d="M28.4,10.2c0.1-0.1,0.3-0.1,0.4-0.1c0.8,0,1.5,0,2.3,0c0.7,0,1.4,0.1,2.1,0.3c0.3,0.2,0.1,0.4-0.2,0.4
		c-0.3,0-0.6,0.1-1,0c-0.3,0-0.7,0-1,0c0-0.3-0.2-0.4-0.6-0.4c-0.3,0-0.7,0-1,0C29.1,10.3,28.7,10.4,28.4,10.2z"/>
	<path class="st96" d="M18.3,45.5c0.1,0,0.2-0.1,0.2-0.2c0-0.5,0-1.1,0-1.6c0.2,0.1,0.4,0.3,0.6,0.5c0,0,0.1,0.1,0.1,0.1v0
		c-0.2,0.4-0.1,0.8-0.1,1.2c0,0.2,0.1,0.4-0.1,0.5C18.8,45.8,18.5,45.7,18.3,45.5z"/>
	<path class="st89" d="M21.3,12.5c0.2,0,0.3,0.2,0.3,0.4c0,0.3,0,0.7,0,1l0,0c0,0.1-0.1,0-0.2,0.1c-0.2,0.2-0.5,0.4-0.7,0.6
		c-0.1-0.6-0.1-1.1,0-1.7c0.1-0.1,0.3-0.2,0.5-0.3C21.1,12.5,21.2,12.5,21.3,12.5L21.3,12.5z"/>
	<path class="st97" d="M20.6,12.8c0.1,0.1,0.1,0.1,0.1,0.2c0,0.5,0.1,1-0.1,1.5c-0.2,0.2-0.3,0.4-0.5,0.4c-0.2-0.4-0.1-0.7-0.1-1.1
		c0-0.2,0-0.4-0.2-0.5C20,13.2,20.3,13,20.6,12.8z"/>
	<path class="st98" d="M26.3,45c-0.4,0-0.8-0.1-1.1-0.3c0.3-0.3,0.1-0.8,0.3-1.1c0.4,0.1,0.7,0.2,1.1,0.4c0.2,0.2,0.2,0.5,0.1,0.8
		C26.7,45,26.5,45.1,26.3,45z"/>
	<path class="st99" d="M31.6,48.9c0,0,0.1-0.1,0.1-0.1c0.2-0.1,0.2-0.3,0.2-0.4c0-0.2-0.2-0.1-0.3-0.1c-0.2,0-0.5,0-0.7,0
		c-0.1,0-0.2,0-0.3-0.1c0.8,0,1.6,0,2.4,0c0.2-0.1,0.4,0,0.5,0c0.1,0,0.3,0,0.3,0.1c0.1,0.2,0,0.3-0.1,0.4
		C33,48.7,32.3,48.9,31.6,48.9z"/>
	<path class="st100" d="M38.9,2.6c0.2-0.1,0.2-0.3,0.2-0.5c0.8,0.3,1.5,0.7,2.3,1.1c0,0,0.1,0.1,0.1,0.1c0,0,0.1,0,0.1,0
		c0.1,0.2,0.1,0.3-0.1,0.4c0,0-0.1,0-0.1,0c0,0-0.1-0.1-0.1-0.1c-0.5-0.2-1.1-0.4-1.6-0.7C39.5,2.8,39.2,2.8,38.9,2.6z"/>
	<path class="st101" d="M28.4,10.2c0.4,0,0.7,0,1.1,0c0.2,0.2,0.2,0.4,0,0.6c-0.6,0.1-1.2,0.2-1.7,0.3c0-0.3,0.1-0.6,0-0.8
		C28,10.1,28.2,10.2,28.4,10.2z"/>
	<path class="st87" d="M23.6,44.2c0.2,0,0.2-0.2,0.2-0.3c0-0.3,0-0.7,0-1c0.3,0.1,0.5,0.2,0.8,0.4c0.2,0.3,0.3,0.8,0.2,1
		c-0.1,0.1-0.2,0.2-0.4,0.2C24.1,44.4,23.8,44.3,23.6,44.2z"/>
	<path class="st102" d="M28.8,45.4C28.8,45.4,28.8,45.4,28.8,45.4c0.2-0.1,0.3-0.1,0.5-0.1c0.5,0.1,0.8-0.1,0.9-0.6
		c0.2,0,0.4,0,0.5,0c0.2,0.1,0.3,0,0.5,0c0.6,0,0.7,0.2,0.4,0.7c-0.8,0.1-1.6,0.1-2.4,0.1C29.1,45.5,28.9,45.5,28.8,45.4z"/>
	<path class="st103" d="M39.3,52.8c0-0.2,0-0.4-0.3-0.4c0.5-0.3,1-0.4,1.5-0.6c0.3-0.1,0.6-0.3,0.9-0.4c0,0,0.1-0.1,0.1-0.1
		c0,0,0.1,0,0.1,0c0.2,0,0.2,0.1,0.2,0.3c0,0-0.1,0.1-0.1,0.1c0,0-0.1,0-0.1,0c0,0-0.1,0.1-0.1,0.1c-0.6,0.3-1.2,0.6-1.7,0.9
		C39.6,52.7,39.5,52.8,39.3,52.8z"/>
	<path class="st98" d="M26.7,11.4c-0.4,0.1-0.7,0.3-1.1,0.4c-0.2-0.3-0.1-0.7-0.1-1c0.2-0.1,0.5-0.2,0.7-0.2c0.1-0.1,0.2,0,0.3-0.1
		c0.1,0,0.1,0,0.2,0C27,10.7,27,11,26.7,11.4z"/>
	<path class="st92" d="M32.1,10.7c0.3,0,0.6,0,0.9,0c0.2,0,0.3-0.1,0.2-0.4c0.6,0,1.1,0.2,1.7,0.4c0.4,0.1,0.7,0.2,1.1,0.4
		c0.1,0.2,0,0.3-0.2,0.2c-0.6-0.1-1.1-0.2-1.7-0.3c-0.5-0.1-1-0.2-1.6-0.2C32.4,10.8,32.2,10.9,32.1,10.7z"/>
	<path class="st94" d="M33.7,48.6c0.1-0.4,0.1-0.4-0.3-0.5c-0.2,0-0.3,0-0.4,0c0.1,0,0.1-0.1,0.2-0.1c0.9,0,1.8-0.2,2.7-0.4
		c0.1,0,0.1,0,0.2,0c0.3,0.1,0.1,0.2,0,0.4C35.3,48.2,34.5,48.5,33.7,48.6z"/>
	<path class="st55" d="M23.6,12.6c0.2-0.3,0.1-0.7,0.1-1c0-0.1-0.1-0.1-0.2-0.2c0.3-0.2,0.7-0.3,1-0.4c0.3,0.3,0.3,0.7,0,1.1
		C24.3,12.3,24,12.5,23.6,12.6z"/>
	<path class="st104" d="M41.5,3.7c0.1-0.1,0.1-0.2,0.1-0.4C43,4,44.7,5.2,44.9,5.5c-0.1,0.1-0.2,0-0.2-0.1c-0.9-0.6-1.8-1.1-2.8-1.6
		C41.7,3.8,41.6,3.8,41.5,3.7z"/>
	<path class="st105" d="M30.7,52.2c0-0.4,0-0.4-0.4-0.5c-0.1,0-0.1,0-0.2-0.1c0.9,0,1.8,0,2.7,0c0.3,0.1,0.2,0.2,0.1,0.4
		C32.2,52.1,31.4,52.2,30.7,52.2z"/>
	<path class="st106" d="M31.6,45.4c0-0.6,0-0.6-0.6-0.6c-0.1,0-0.2,0-0.3-0.1c0.7,0,1.3,0,2,0c0.2-0.1,0.4-0.1,0.5,0.1
		c0.1,0.2,0,0.4-0.2,0.5C32.6,45.3,32.1,45.4,31.6,45.4z"/>
	<path class="st69" d="M26.7,11.4c0.1-0.3,0.2-0.6,0-0.9c0.4-0.2,0.7-0.2,1.1-0.2c0.3,0.2,0.3,0.5,0,0.8
		C27.4,11.2,27,11.3,26.7,11.4z"/>
	<path class="st104" d="M41.8,51.6c-0.1-0.1-0.1-0.2-0.2-0.3c0,0,0.1-0.1,0.1-0.1c1-0.5,2-1,3-1.7c0.1,0,0.1-0.1,0.2-0.1
		c0.1,0.1,0,0.2-0.1,0.2c-0.8,0.6-1.6,1.1-2.4,1.6C42.2,51.4,42.1,51.6,41.8,51.6z"/>
	<path class="st62" d="M24.4,44.5c0.1,0,0.3-0.1,0.3-0.2c0-0.3,0.1-0.7-0.1-1c0.3,0.1,0.6,0.3,0.9,0.4c0.1,0.3,0,0.7,0,1
		c0,0.1-0.2,0.1-0.3,0.1C24.9,44.7,24.6,44.6,24.4,44.5z"/>
	<path class="st107" d="M30.1,44.6c0,0.8,0.1,0.7-0.7,0.7c-0.2,0-0.4,0-0.5,0c0-0.2,0-0.3,0-0.5c0-0.2-0.1-0.3-0.2-0.4
		C29.2,44.5,29.7,44.6,30.1,44.6z"/>
	<path class="st62" d="M24.6,12.1c0.1-0.4,0.2-0.7,0-1.1c0.3-0.2,0.6-0.3,0.9-0.3c0.2,0.1,0.1,0.3,0.1,0.5c0,0.2,0,0.3,0,0.5
		C25.2,11.9,24.9,12,24.6,12.1z"/>
	<path class="st91" d="M29.8,7.4C30.1,7.3,30,7,30.1,6.7c0.3,0,0.7,0,1,0c0.1,0.1,0.2,0,0.3,0c0.5,0,0.6,0.1,0.4,0.6
		c-0.5,0.1-0.9,0-1.4,0.1C30.1,7.4,30,7.4,29.8,7.4z"/>
	<path class="st99" d="M33.1,45.2c0-0.1,0.1-0.1,0.1-0.2c0.1-0.3,0-0.4-0.3-0.4c0,0-0.1,0-0.1,0c0,0,0.1-0.1,0.1-0.1
		c0.6,0,1.2-0.2,1.8-0.2c0.1-0.1,0.3-0.1,0.3,0.1c0.1,0.2,0,0.3-0.1,0.4c-0.4,0.1-0.9,0.2-1.3,0.3C33.3,45.2,33.2,45.2,33.1,45.2z"
		/>
	<path class="st108" d="M26.3,45c0.2,0,0.3,0,0.3-0.2c0-0.3,0-0.5,0-0.8c0.3,0,0.5,0.1,0.7,0.2c0.1,0.1,0.1,0,0.2,0.1l0,0
		c0,0.2,0,0.4,0,0.7c0,0.1,0,0.2-0.2,0.3C27,45.2,26.6,45.2,26.3,45z"/>
	<path class="st109" d="M29.5,10.8c0-0.2,0-0.4,0-0.6c0.4,0,0.8,0,1.2,0c0.5,0,0.5,0.1,0.4,0.6C30.5,10.7,30,10.9,29.5,10.8z"/>
	<path class="st94" d="M34.8,44.8c0.1-0.4,0.1-0.4-0.2-0.5c0.2-0.1,0.5-0.1,0.8-0.2c0.4-0.1,0.9-0.2,1.3-0.3c0.2-0.1,0.3,0,0.3,0.2
		C36.3,44.4,35.6,44.6,34.8,44.8z"/>
	<path class="st6" d="M35.2,7.7c-0.1,0-0.1,0-0.2,0c-0.1-0.1-0.2,0-0.3-0.1c-0.5,0-1-0.1-1.5-0.2c-0.1-0.2-0.1-0.3,0-0.5
		c0.7,0,1.3,0.2,1.9,0.4C35.4,7.5,35.4,7.6,35.2,7.7z"/>
	<path class="st5" d="M33.3,7c0,0.2,0,0.3,0,0.5c-0.1,0-0.2,0-0.3,0c-0.4-0.1-0.9,0-1.3-0.1c0,0,0-0.1,0-0.1c0-0.4,0-0.4-0.4-0.4
		c-0.1,0-0.2,0-0.2-0.1c0.6,0,1.2,0.1,1.8,0.2C33,7,33.2,6.9,33.3,7L33.3,7z"/>
	<path class="st110" d="M35.2,7.7c0.2-0.1,0-0.2,0-0.4c0.8,0.2,1.5,0.5,2.3,0.7c0.2,0.1,0.4,0.1,0.6,0.3c-0.1,0.1-0.2,0.1-0.3,0
		c-0.8-0.3-1.6-0.5-2.5-0.6C35.3,7.8,35.2,7.7,35.2,7.7z"/>
	<path class="st104" d="M36,48c0-0.1,0.2-0.2,0-0.4c0.3-0.2,0.7-0.2,1.1-0.3c0.5-0.2,1-0.3,1.5-0.5c0,0.2-0.1,0.3-0.2,0.3
		C37.6,47.4,36.9,47.8,36,48z"/>
	<path class="st111" d="M32.9,52c0-0.1,0-0.3-0.1-0.4c0.3-0.2,0.7,0,1-0.1c0.1-0.1,0.3,0,0.5-0.1c0.1,0,0.2,0,0.3,0
		c0.4-0.1,0.4-0.1,0.5,0.2c-0.1,0-0.1,0-0.2,0c-0.1,0.1-0.2,0-0.3,0.1C34,51.8,33.5,51.9,32.9,52z"/>
	<path class="st112" d="M37,44c-0.1-0.1-0.1-0.2-0.3-0.2c0.3-0.2,0.7-0.3,1.1-0.4c0.5-0.2,0.9-0.4,1.3-0.6c0.1,0.1,0,0.2-0.1,0.2
		c-0.6,0.3-1.1,0.7-1.7,0.9C37.2,44,37.1,44,37,44z"/>
	<path class="st110" d="M35.7,11.3c0.1,0,0.2-0.1,0.2-0.2c0.5,0,0.9,0.3,1.4,0.5c0.3,0.1,0.7,0.3,0.9,0.5c-0.1,0.1-0.1,0-0.2,0
		c-0.7-0.3-1.5-0.6-2.2-0.8C35.8,11.3,35.8,11.3,35.7,11.3z"/>
	<path class="st92" d="M35,51.6c-0.1-0.3-0.3-0.1-0.5-0.2c0.2-0.2,0.4-0.1,0.7-0.1c0.7-0.2,1.4-0.3,2.1-0.4
		C36.5,51.2,35.8,51.5,35,51.6z"/>
	<path class="st6" d="M31.7,7.3c0.3,0,0.6,0,0.9,0c0.1,0,0.2,0,0.3,0.1c-0.9,0-1.8,0-2.7,0c0.1-0.1,0.2-0.1,0.3-0.1
		C31,7.3,31.4,7.3,31.7,7.3z"/>
	<path class="st16" d="M14.4,28.6c-0.1-0.1-0.1-0.2-0.1-0.2c0-0.4,0-0.9,0-1.3c0-0.1,0-0.2,0.1-0.2C14.4,27.4,14.4,28,14.4,28.6z"/>
	<path class="st84" d="M27,52.1c0.3,0,0.6-0.1,0.9,0.1C27.6,52.1,27.3,52.2,27,52.1z"/>
	<path class="st16" d="M14.5,29.7c-0.2-0.2-0.1-0.4-0.1-0.7C14.5,29.2,14.5,29.5,14.5,29.7z"/>
	<path class="st19" d="M9.1,24.4c0,0.2,0.1,0.3-0.1,0.5C9,24.7,9,24.5,9.1,24.4z"/>
	<path class="st92" d="M34.3,51.4c-0.1,0.2-0.3,0.1-0.5,0.1C33.9,51.4,34.1,51.4,34.3,51.4z"/>
	<path class="st2" d="M27.6,4.2c0.1-0.2,0.3-0.1,0.5-0.1C27.9,4.3,27.7,4.2,27.6,4.2z"/>
	<path class="st19" d="M9,30.7C9.1,30.9,9,31,9.1,31.2C9,31,9,30.9,9,30.7z"/>
	<path class="st4" d="M27.7,7.7c0.1-0.1,0.2-0.1,0.4-0.1C27.9,7.7,27.8,7.7,27.7,7.7z"/>
	<path class="st13" d="M5.5,21.9c0,0.1,0.1,0.3-0.1,0.4C5.4,22.1,5.4,22,5.5,21.9z"/>
	<path class="st13" d="M5.3,22.8c0,0.1,0.1,0.3-0.1,0.4C5.2,23.1,5.2,22.9,5.3,22.8z"/>
	<path class="st80" d="M24.7,1.6c0.1-0.1,0.2-0.1,0.4-0.1C25,1.6,24.9,1.5,24.7,1.6z"/>
	<path class="st60" d="M11.3,44.2c0.1,0,0.2,0.1,0.2,0.3C11.4,44.4,11.4,44.3,11.3,44.2z"/>
	<path class="st19" d="M9.2,23.8c0,0.1,0,0.3-0.1,0.4C9.1,24.1,9.1,23.9,9.2,23.8z"/>
	<path class="st19" d="M9.2,23.4c0,0.1,0,0.3-0.1,0.4C9.2,23.6,9.2,23.5,9.2,23.4z"/>
	<path class="st68" d="M33.1,3.1c-0.1,0-0.3,0-0.4-0.1C32.8,3,33,3,33.1,3.1z"/>
	<path class="st6" d="M33.3,7c-0.1,0-0.3,0-0.4-0.1C33,6.9,33.2,6.8,33.3,7z"/>
	<path class="st13" d="M5.3,32.4c0.1,0.1,0.1,0.2,0.1,0.4C5.3,32.6,5.3,32.5,5.3,32.4z"/>
	<path class="st19" d="M9.2,31.8c0.1,0.1,0.1,0.3,0.1,0.4C9.1,32.1,9.2,31.9,9.2,31.8z"/>
	<path class="st50" d="M16.7,39.3c0.1,0,0.2,0.1,0.2,0.3C16.8,39.5,16.8,39.5,16.7,39.3z"/>
	<path class="st19" d="M9.1,31.3c0.1,0.1,0.1,0.3,0.1,0.4C9.1,31.6,9.1,31.5,9.1,31.3z"/>
	<path class="st70" d="M23.4,51.4c0.1,0,0.2,0,0.3,0.1C23.6,51.5,23.5,51.5,23.4,51.4z"/>
	<path class="st92" d="M34.5,51.7c0.1-0.1,0.2-0.1,0.3-0.1C34.8,51.7,34.7,51.7,34.5,51.7z"/>
	<path class="st82" d="M25,7.2c-0.1,0.1-0.2,0.1-0.3,0.1C24.8,7.2,24.9,7.2,25,7.2z"/>
	<path class="st13" d="M5.6,21.5c0,0.1,0,0.2-0.1,0.3C5.5,21.7,5.5,21.6,5.6,21.5z"/>
	<path class="st14" d="M9.7,21.6c0,0.1,0,0.2-0.1,0.3C9.6,21.8,9.6,21.7,9.7,21.6z"/>
	<path class="st75" d="M22.3,52.9c-0.1,0-0.2,0-0.3-0.1C22.1,52.8,22.2,52.8,22.3,52.9z"/>
	<path class="st14" d="M13.1,22.9c0,0.1,0,0.2-0.1,0.3C13,23.1,13,23,13.1,22.9z"/>
	<path class="st69" d="M26.5,10.5c-0.1,0.1-0.2,0.1-0.3,0.1C26.3,10.4,26.4,10.5,26.5,10.5z"/>
	<path class="st14" d="M13.2,22.6c0,0.1,0,0.2-0.1,0.3C13.1,22.8,13.1,22.7,13.2,22.6z"/>
	<path class="st110" d="M34.7,7.6c0.1,0,0.2,0,0.3,0.1C34.9,7.7,34.8,7.7,34.7,7.6z"/>
	<path class="st13" d="M5.4,22.3c0,0.1,0,0.2-0.1,0.3C5.3,22.5,5.3,22.4,5.4,22.3z"/>
	<path class="st52" d="M15.6,21.4c0-0.1,0-0.2,0.1-0.3C15.7,21.2,15.7,21.3,15.6,21.4z"/>
	<path class="st90" d="M26.4,8c0.1-0.1,0.2-0.1,0.3-0.1C26.6,8,26.5,8,26.4,8z"/>
	<path class="st14" d="M13.1,32.6c0.1,0.1,0.1,0.2,0.1,0.3C13.1,32.8,13.1,32.7,13.1,32.6z"/>
	<path class="st14" d="M9.7,34c0.1,0.1,0.1,0.2,0.1,0.3C9.7,34.2,9.7,34.1,9.7,34z"/>
	<path class="st13" d="M5.4,32.8c0.1,0.1,0.1,0.2,0.1,0.3C5.4,33,5.4,32.9,5.4,32.8z"/>
	<path class="st13" d="M5.5,33.2c0.1,0.1,0.1,0.2,0.1,0.3C5.5,33.4,5.5,33.3,5.5,33.2z"/>
	<path class="st55" d="M23.5,11.4c0,0.1-0.1,0.1-0.2,0.1C23.3,11.4,23.4,11.4,23.5,11.4z"/>
	<path class="st21" d="M8.1,15.3c0,0.1,0,0.1-0.1,0.2C8,15.4,8,15.4,8.1,15.3z"/>
	<path class="st62" d="M22.1,47.4c0.1,0,0.2,0,0.2,0.1C22.2,47.5,22.1,47.5,22.1,47.4z"/>
	<path class="st79" d="M22.1,8.2c0,0.1-0.1,0.1-0.2,0.1C21.9,8.2,22,8.2,22.1,8.2z"/>
	<path class="st62" d="M21.8,47.3c0.1,0,0.1,0,0.2,0.1C21.9,47.4,21.8,47.4,21.8,47.3z"/>
	<path class="st62" d="M22.4,46.1c-0.1,0-0.1,0-0.2-0.1C22.3,46,22.4,46,22.4,46.1z"/>
	<path class="st41" d="M19.9,46.4c0.1,0,0.2,0,0.2,0.1C20,46.5,19.9,46.5,19.9,46.4z"/>
	<path class="st60" d="M12,42c-0.1,0-0.1-0.1-0.1-0.2C12,41.8,12,41.9,12,42z"/>
	<path class="st29" d="M10.8,18.8c0,0.1,0,0.2-0.1,0.2C10.7,18.9,10.7,18.8,10.8,18.8z"/>
	<path class="st26" d="M9.3,41.7c0.1,0,0.1,0.1,0.1,0.2C9.4,41.8,9.3,41.8,9.3,41.7z"/>
	<path class="st12" d="M6.4,18.9c0,0.1,0,0.1-0.1,0.2C6.3,19,6.3,18.9,6.4,18.9z"/>
	<path class="st51" d="M21.6,41.6c-0.1,0-0.1,0-0.2-0.1C21.5,41.5,21.6,41.5,21.6,41.6z"/>
	<path class="st30" d="M14.7,19.2c0,0.1,0,0.2-0.1,0.2C14.6,19.3,14.6,19.2,14.7,19.2z"/>
	<path class="st33" d="M8.8,14.1c0,0.1,0,0.2-0.1,0.2C8.7,14.2,8.7,14.2,8.8,14.1z"/>
	<path class="st26" d="M12.1,16.4c0,0.1,0,0.1-0.1,0.2C12,16.5,12,16.5,12.1,16.4z"/>
	<path class="st77" d="M27.5,44.3c-0.1,0-0.1,0-0.2-0.1C27.4,44.2,27.5,44.2,27.5,44.3z"/>
	<path class="st41" d="M18.9,49.8c0.1,0,0.2,0,0.2,0.1C19,49.9,18.9,49.8,18.9,49.8z"/>
	<path class="st41" d="M20,9.2c0,0.1-0.1,0.1-0.2,0.1C19.8,9.2,19.9,9.2,20,9.2z"/>
	<path class="st20" d="M7.2,16.9c0,0.1,0,0.2-0.1,0.2C7.1,17.1,7.2,17,7.2,16.9z"/>
	<path class="st55" d="M20.3,50.4c0.1,0,0.2,0,0.2,0.1C20.4,50.5,20.4,50.5,20.3,50.4z"/>
	<path class="st43" d="M10.2,12.2c0,0.1,0,0.2-0.1,0.2C10.1,12.3,10.1,12.2,10.2,12.2z"/>
	<path class="st51" d="M21.3,12.5c0,0.1-0.1,0.1-0.2,0.1C21.1,12.5,21.2,12.5,21.3,12.5z"/>
	<path class="st41" d="M20.1,44.7c-0.1,0-0.1,0-0.2-0.1C20,44.6,20,44.7,20.1,44.7z"/>
	<path class="st20" d="M7.1,17.1c0,0.1,0,0.2-0.1,0.2C7,17.2,7.1,17.2,7.1,17.1z"/>
	<path class="st30" d="M11.5,17.5c0,0.1,0,0.1-0.1,0.2C11.4,17.6,11.4,17.5,11.5,17.5z"/>
	<path class="st70" d="M23.8,50.5c-0.1,0-0.1,0-0.2-0.1C23.7,50.4,23.8,50.4,23.8,50.5z"/>
	<path class="st51" d="M21.3,43.1c0.1,0,0.1,0,0.2,0.1C21.4,43.2,21.3,43.2,21.3,43.1z"/>
	<path class="st30" d="M11.4,17.7c0,0.1,0,0.2-0.1,0.2C11.3,17.8,11.3,17.7,11.4,17.7z"/>
	<path class="st48" d="M22.3,11.9c0,0.1-0.1,0.1-0.2,0.1C22.1,11.9,22.2,11.9,22.3,11.9z"/>
	<path class="st21" d="M8,15.5c0,0.1,0,0.1-0.1,0.2C7.9,15.6,7.9,15.5,8,15.5z"/>
	<path class="st40" d="M16.1,11.8c0,0.1-0.1,0.1-0.2,0.1C16,11.8,16,11.8,16.1,11.8z"/>
	<path class="st51" d="M21.4,14c0-0.1,0.1-0.1,0.2-0.1C21.5,13.9,21.4,13.9,21.4,14z"/>
	<path class="st29" d="M10.8,36.8c0.1,0,0.1,0.1,0.1,0.2C10.8,37,10.8,36.9,10.8,36.8z"/>
	<path class="st14" d="M13.3,22.3c0,0.1,0,0.2-0.1,0.2C13.2,22.5,13.2,22.4,13.3,22.3z"/>
	<path class="st30" d="M14.6,36.2c0.1,0,0.1,0.1,0.1,0.2C14.6,36.3,14.6,36.3,14.6,36.2z"/>
	<path class="st12" d="M6.3,35.9c0.1,0,0.1,0.1,0.1,0.2C6.3,36.1,6.3,36,6.3,35.9z"/>
	<path class="st15" d="M10.2,35.4c0.1,0,0.1,0.1,0.1,0.2C10.2,35.5,10.2,35.5,10.2,35.4z"/>
	<path class="st62" d="M22,5.8c0-0.1,0.1-0.1,0.2-0.1C22.1,5.8,22.1,5.8,22,5.8z"/>
	<path class="st16" d="M14.1,35.3c0.1,0,0.1,0.1,0.1,0.2C14.1,35.4,14.1,35.4,14.1,35.3z"/>
	<path class="st16" d="M14,35.1c0.1,0,0.1,0.1,0.1,0.2C14,35.3,14,35.2,14,35.1z"/>
	<path class="st16" d="M13.9,34.9C14,35,14,35,14,35.1C14,35.1,13.9,35,13.9,34.9z"/>
	<path class="st16" d="M13.7,34.5c0.1,0,0.1,0.1,0.1,0.2C13.8,34.6,13.7,34.5,13.7,34.5z"/>
	<path class="st93" d="M38.9,5.2c0.1,0,0.1,0,0.2,0.1C39.1,5.3,39,5.3,38.9,5.2z"/>
	<path class="st93" d="M38.7,5.1c0.1,0,0.1,0,0.2,0.1C38.8,5.2,38.7,5.2,38.7,5.1z"/>
	<path class="st41" d="M19.2,5.1c0,0.1-0.1,0.1-0.2,0.1C19,5.2,19.1,5.1,19.2,5.1z"/>
	<path class="st93" d="M39.3,4.9c-0.1,0-0.1,0-0.2-0.1C39.2,4.8,39.3,4.8,39.3,4.9z"/>
	<path class="st69" d="M25,4.8c0-0.1,0.1-0.1,0.2-0.1C25.2,4.7,25.1,4.8,25,4.8z"/>
	<path class="st55" d="M20.6,4.5c0,0.1-0.1,0.1-0.2,0.1C20.5,4.5,20.5,4.5,20.6,4.5z"/>
	<path class="st79" d="M22.2,9.5c0-0.1,0.1-0.1,0.2-0.1C22.3,9.5,22.3,9.5,22.2,9.5z"/>
	<path class="st14" d="M13,32.4c0.1,0.1,0.1,0.1,0.1,0.2C13,32.5,13,32.4,13,32.4z"/>
	<path class="st15" d="M10.2,20c0,0.1,0,0.2-0.1,0.2C10.2,20.2,10.2,20.1,10.2,20z"/>
	<path class="st21" d="M8,39.5c0.1,0,0.1,0.1,0.1,0.2C8,39.7,8,39.6,8,39.5z"/>
	<path class="st50" d="M17.2,37.2c-0.1,0-0.1-0.1-0.1-0.2C17.2,37.1,17.2,37.1,17.2,37.2z"/>
	<path class="st52" d="M15.3,37.4c0.1,0,0.1,0.1,0.1,0.2C15.3,37.5,15.3,37.5,15.3,37.4z"/>
	<path class="st30" d="M11.2,37.6c0.1,0,0.1,0.1,0.1,0.2C11.2,37.7,11.2,37.7,11.2,37.6z"/>
	<path class="st20" d="M7.1,37.9c0.1,0,0.1,0.1,0.1,0.2C7.2,38.1,7.1,38,7.1,37.9z"/>
	<path class="st33" d="M8.6,40.6c0.1,0,0.1,0.1,0.1,0.2C8.6,40.8,8.6,40.7,8.6,40.6z"/>
	<path class="st14" d="M9.8,21.3c0,0.1,0,0.2-0.1,0.2C9.7,21.5,9.7,21.4,9.8,21.3z"/>
	<path class="st41" d="M20,10.8c0-0.1,0.1-0.1,0.2-0.1C20.1,10.8,20.1,10.8,20,10.8z"/>
	<path class="st35" d="M15,10.3C15.1,10.2,15.1,10.2,15,10.3C15.1,10.2,15.1,10.2,15,10.3z"/>
	<path class="st104" d="M41.5,51.8C41.5,51.8,41.6,51.7,41.5,51.8C41.6,51.7,41.5,51.8,41.5,51.8z"/>
	<path class="st32" d="M14.3,13.6C14.3,13.6,14.2,13.6,14.3,13.6C14.2,13.6,14.2,13.6,14.3,13.6z"/>
	<path class="st97" d="M19.8,13.4c0,0-0.1,0.1-0.1,0.1C19.7,13.4,19.7,13.4,19.8,13.4z"/>
	<path class="st104" d="M41.7,51.7C41.7,51.7,41.8,51.6,41.7,51.7C41.8,51.6,41.7,51.7,41.7,51.7z"/>
	<path class="st51" d="M17.7,47.5c0,0-0.1-0.1-0.1-0.1C17.6,47.4,17.7,47.4,17.7,47.5z"/>
	<path class="st33" d="M8.9,14c0,0-0.1,0.1-0.1,0.1C8.8,14.1,8.8,14,8.9,14z"/>
	<path class="st40" d="M16.2,14.1c0,0,0.1-0.1,0.1-0.1C16.3,14.1,16.2,14.1,16.2,14.1z"/>
	<path class="st104" d="M41.5,51.3C41.5,51.4,41.5,51.4,41.5,51.3C41.5,51.4,41.5,51.4,41.5,51.3z"/>
	<path class="st43" d="M10.3,12.1C10.2,12.1,10.2,12.2,10.3,12.1C10.2,12.1,10.2,12.1,10.3,12.1z"/>
	<path class="st41" d="M20.2,10.7c0,0,0.1-0.1,0.1-0.1C20.2,10.7,20.2,10.7,20.2,10.7z"/>
	<path class="st63" d="M16.8,11.3c0,0.1-0.1,0.1-0.1,0.1C16.7,11.3,16.7,11.3,16.8,11.3z"/>
	<path class="st60" d="M11.7,10.4c0,0.1-0.1,0.1-0.1,0.1C11.6,10.5,11.7,10.5,11.7,10.4z"/>
	<path class="st51" d="M17.3,49c0,0,0.1,0.1,0.1,0.1C17.4,49,17.3,49,17.3,49z"/>
	<path class="st26" d="M9.5,13.1c0,0.1,0,0.1-0.1,0.1C9.4,13.1,9.5,13.1,9.5,13.1z"/>
	<path class="st66" d="M18,10.4c0,0-0.1,0.1-0.1,0.1C17.9,10.4,17.9,10.4,18,10.4z"/>
	<path class="st63" d="M16.9,11.2c0,0-0.1,0.1-0.1,0.1C16.8,11.2,16.8,11.2,16.9,11.2z"/>
	<path class="st42" d="M16.1,48.2c0.1,0,0.1,0,0.1,0.1C16.2,48.3,16.1,48.3,16.1,48.2z"/>
	<path class="st63" d="M17,11.1C16.9,11.1,16.9,11.2,17,11.1C16.9,11.1,16.9,11.1,17,11.1z"/>
	<path class="st26" d="M9.4,13.2c0,0-0.1,0.1-0.1,0.1C9.4,13.2,9.4,13.2,9.4,13.2z"/>
	<path class="st52" d="M15.4,18C15.4,18,15.3,18,15.4,18C15.3,18,15.3,18,15.4,18z"/>
	<path class="st41" d="M22.6,42.3c0,0-0.1-0.1-0.1-0.1C22.5,42.2,22.5,42.2,22.6,42.3z"/>
	<path class="st35" d="M14.9,7.6c0,0-0.1,0.1-0.1,0.1C14.9,7.6,14.9,7.6,14.9,7.6z"/>
	<path class="st32" d="M14.2,41.9c0.1,0,0.1,0,0.1,0.1C14.2,42,14.2,41.9,14.2,41.9z"/>
	<path class="st26" d="M9.4,41.9c0,0,0.1,0.1,0.1,0.1C9.5,42,9.4,41.9,9.4,41.9z"/>
	<path class="st51" d="M21.4,41.5c0,0-0.1-0.1-0.1-0.1C21.4,41.5,21.4,41.5,21.4,41.5z"/>
	<path class="st41" d="M19.2,7.2c0,0,0.1-0.1,0.1-0.1C19.3,7.1,19.3,7.1,19.2,7.2z"/>
	<path class="st33" d="M8.7,40.8c0,0,0.1,0.1,0.1,0.1C8.7,40.9,8.7,40.8,8.7,40.8z"/>
	<path class="st67" d="M17.9,40.5C17.9,40.5,17.9,40.6,17.9,40.5C17.9,40.6,17.9,40.6,17.9,40.5z"/>
	<path class="st38" d="M20.1,40.4C20,40.4,20,40.4,20.1,40.4C20,40.4,20,40.4,20.1,40.4z"/>
	<path class="st16" d="M13.8,20.9c0,0.1,0,0.1-0.1,0.1C13.8,20.9,13.8,20.9,13.8,20.9z"/>
	<path class="st21" d="M7.9,39.4c0,0,0.1,0.1,0.1,0.1C7.9,39.5,7.9,39.5,7.9,39.4z"/>
	<path class="st50" d="M16.7,39.2c0.1,0,0.1,0,0.1,0.1C16.7,39.3,16.7,39.3,16.7,39.2z"/>
	<path class="st26" d="M12,39.1C12,39.1,12.1,39.1,12,39.1C12,39.1,12,39.1,12,39.1z"/>
	<path class="st43" d="M16,38.5C16.1,38.5,16.1,38.6,16,38.5C16.1,38.6,16.1,38.5,16,38.5z"/>
	<path class="st30" d="M11.4,37.9c0,0,0.1,0.1,0.1,0.1C11.4,38,11.4,38,11.4,37.9z"/>
	<path class="st30" d="M11.3,37.8c0.1,0,0.1,0.1,0.1,0.1C11.3,37.9,11.3,37.8,11.3,37.8z"/>
	<path class="st16" d="M13.9,34.7c0,0,0,0.1,0,0.1C13.9,34.8,13.8,34.8,13.9,34.7C13.9,34.7,13.9,34.7,13.9,34.7z"/>
	<path class="st58" d="M19.2,3.3C19.3,3.3,19.3,3.2,19.2,3.3C19.3,3.3,19.3,3.3,19.2,3.3z"/>
	<path class="st40" d="M13.9,46.7C14,46.7,14,46.7,13.9,46.7C14,46.7,13.9,46.7,13.9,46.7z"/>
	<path class="st59" d="M18.2,14.7c0,0-0.1,0.1-0.1,0.1C18.2,14.7,18.2,14.7,18.2,14.7z"/>
	<path class="st46" d="M13.1,45.9c0.1,0,0.1,0,0.1,0.1C13.2,46,13.1,46,13.1,45.9z"/>
	<path class="st97" d="M20,15.1c0-0.1,0-0.1,0.1-0.1C20.1,15,20,15,20,15.1z"/>
	<path class="st96" d="M18.2,45.4c0,0,0.1,0.1,0.1,0.1C18.3,45.4,18.3,45.4,18.2,45.4z"/>
	<path class="st49" d="M12.4,45.3C12.4,45.3,12.4,45.3,12.4,45.3C12.4,45.4,12.4,45.3,12.4,45.3z"/>
	<path class="st88" d="M17.4,44.8C17.4,44.9,17.5,44.9,17.4,44.8C17.5,44.9,17.4,44.9,17.4,44.8z"/>
	<path class="st41" d="M20.2,44.8c0,0-0.1-0.1-0.1-0.1C20.1,44.8,20.1,44.8,20.2,44.8z"/>
	<path class="st88" d="M17.3,44.7c0.1,0,0.1,0,0.1,0.1C17.4,44.8,17.3,44.8,17.3,44.7z"/>
	<path class="st9" d="M17.3,15.6C17.3,15.6,17.3,15.7,17.3,15.6C17.2,15.6,17.3,15.6,17.3,15.6z"/>
	<path class="st9" d="M17.2,15.7c0,0.1,0,0.1-0.1,0.1C17.1,15.7,17.2,15.7,17.2,15.7z"/>
	<path class="st40" d="M14.3,44.6c-0.1,0-0.1-0.1-0.1-0.1C14.2,44.6,14.3,44.6,14.3,44.6z"/>
	<path class="st60" d="M11.6,44.5C11.7,44.6,11.7,44.6,11.6,44.5C11.7,44.6,11.7,44.6,11.6,44.5z"/>
	<path class="st35" d="M14.7,7.8C14.6,7.8,14.6,7.9,14.7,7.8C14.6,7.8,14.6,7.8,14.7,7.8z"/>
	<path class="st60" d="M11.6,44.5C11.6,44.5,11.6,44.5,11.6,44.5C11.6,44.5,11.6,44.5,11.6,44.5z"/>
	<path class="st26" d="M12.2,16.3c0,0-0.1,0.1-0.1,0.1C12.1,16.4,12.1,16.3,12.2,16.3z"/>
	<path class="st53" d="M19.3,44.2C19.2,44.1,19.2,44.1,19.3,44.2C19.2,44.1,19.2,44.2,19.3,44.2z"/>
	<path class="st36" d="M16.2,16.9c0,0.1,0,0.1-0.1,0.1C16.1,16.9,16.2,16.9,16.2,16.9z"/>
	<path class="st36" d="M16.1,16.9c0,0-0.1,0.1-0.1,0.1C16,17,16.1,17,16.1,16.9z"/>
	<path class="st35" d="M14.8,7.7c0,0.1-0.1,0.1-0.1,0.1C14.8,7.8,14.8,7.7,14.8,7.7z"/>
	<path class="st51" d="M21.1,43c0,0,0.1,0.1,0.1,0.1C21.2,43.1,21.2,43,21.1,43z"/>
	<path class="st88" d="M17.9,43.1c-0.1,0-0.1-0.1-0.1-0.1C17.8,43,17.8,43,17.9,43.1z"/>
	<path class="st30" d="M11.3,17.9c0,0,0,0.1-0.1,0.1C11.2,17.9,11.2,17.9,11.3,17.9z"/>
	<path class="st43" d="M10.1,42.8c0.1,0,0.1,0,0.1,0.1C10.2,42.9,10.2,42.9,10.1,42.8z"/>
	<path class="st113" d="M1.6,33c0.1-0.1,0.1-0.3,0.1-0.4c0-3.4,0-6.8,0-10.2c0-0.1,0-0.3-0.1-0.4C1.7,21.5,1.8,21,2,20.4
		c0.1-0.1,0-0.2,0.1-0.3c0,0,0-0.1,0-0.1c0-0.1,0-0.1,0.1-0.2c0,0,0,0,0-0.1c0.1-0.1,0.1-0.3,0.3-0.1c0.1,0.1,0.1,0.2,0.1,0.3
		c0.1,0.2,0.1,0.4,0.1,0.7c0,4.6,0,9.2,0,13.8c0,0.3,0,0.5-0.1,0.8c-0.1,0.2-0.2,0.1-0.3,0v0c-0.1-0.1,0-0.2-0.1-0.3c0,0,0,0,0-0.1
		c-0.1-0.1,0-0.2-0.1-0.3C1.8,34.1,1.7,33.5,1.6,33z"/>
	<path class="st13" d="M2.2,35.2c0,0,0.1,0.1,0.1,0.1c0.1-0.3,0.1-0.5,0.1-0.8c0-4.6,0-9.2,0-13.7c0-0.4-0.1-0.7-0.1-1
		c-0.1,0.1-0.1,0.1-0.2,0.1c0.1-0.5,0.3-1,0.5-1.5c0-0.1,0-0.1,0.1-0.2v0c0.1-0.1,0.1-0.1,0.1-0.2c0,0,0,0,0-0.1
		C2.9,17.9,3,17.9,3,18c0,0.1,0,0.2,0,0.4c0,6.1,0,12.1,0,18.2c0,0.1,0,0.2,0,0.4c0,0.1-0.1,0.1-0.2,0.2h0c0-0.1,0-0.1-0.1-0.2
		c0,0,0,0,0-0.1c0-0.1,0-0.2-0.1-0.2C2.4,36.2,2.3,35.7,2.2,35.2z"/>
	<path class="st113" d="M1.6,22.1c0,0.1,0,0.3-0.1,0.4C1.6,22.3,1.6,22.2,1.6,22.1z"/>
	<path class="st113" d="M1.5,22.6c0,0.1,0.1,0.3-0.1,0.4C1.5,22.9,1.4,22.7,1.5,22.6z"/>
	<path class="st113" d="M1.4,23.2c0,0.1,0.1,0.3-0.1,0.4C1.4,23.4,1.4,23.3,1.4,23.2z"/>
	<path class="st13" d="M2.1,20.2c0,0.1,0,0.2-0.1,0.3C2,20.3,2,20.2,2.1,20.2z"/>
	<path class="st14" d="M2.7,18.1c0,0.1,0,0.1-0.1,0.2C2.7,18.3,2.7,18.2,2.7,18.1z"/>
	<path class="st26" d="M6.4,11.3c0,0.1,0,0.2-0.1,0.2C6.3,11.4,6.3,11.3,6.4,11.3z"/>
	<path class="st25" d="M4.3,14.7c0,0.1,0,0.2-0.1,0.2C4.2,14.8,4.2,14.7,4.3,14.7z"/>
	<path class="st33" d="M5.8,12.2c0,0.1,0,0.2-0.1,0.2C5.7,12.3,5.7,12.2,5.8,12.2z"/>
	<path class="st16" d="M3.5,16.3c0,0.1,0,0.1-0.1,0.2C3.4,16.4,3.4,16.4,3.5,16.3z"/>
	<path class="st30" d="M5.1,13.2c0,0.1,0,0.2-0.1,0.2C5,13.3,5.1,13.2,5.1,13.2z"/>
	<path class="st14" d="M2.8,17.9c0,0.1,0,0.2-0.1,0.2C2.7,18.1,2.8,18,2.8,17.9z"/>
	<path class="st40" d="M11.8,5.8c0,0.1-0.1,0.1-0.2,0.1C11.7,5.8,11.7,5.8,11.8,5.8z"/>
	<path class="st38" d="M13.2,4.8c0,0.1-0.1,0.1-0.2,0.1C13.1,4.8,13.1,4.8,13.2,4.8z"/>
	<path class="st39" d="M7.3,10.1c0,0.1,0,0.1-0.1,0.2C7.2,10.2,7.3,10.1,7.3,10.1z"/>
	<path class="st53" d="M16.1,3c0,0.1-0.1,0.1-0.2,0.1C16,3,16,3,16.1,3z"/>
	<path class="st13" d="M2.2,19.9c0,0.1,0,0.2-0.1,0.2C2.1,20,2.1,19.9,2.2,19.9z"/>
	<path class="st24" d="M8.2,9.1c0,0.1,0,0.1-0.1,0.1C8.2,9.1,8.2,9.1,8.2,9.1z"/>
	<path class="st39" d="M7.2,10.3c0,0.1-0.1,0.1-0.1,0.1C7.1,10.3,7.2,10.3,7.2,10.3z"/>
	<path class="st39" d="M7.4,10C7.4,10,7.4,10.1,7.4,10C7.3,10,7.4,10,7.4,10z"/>
	<path class="st26" d="M6.5,11.2c0,0-0.1,0.1-0.1,0.1C6.4,11.2,6.4,11.2,6.5,11.2z"/>
	<path class="st24" d="M8.1,9.2C8,9.3,8,9.3,8.1,9.2C8,9.3,8,9.3,8.1,9.2z"/>
	<path class="st33" d="M5.8,12.1c0,0-0.1,0.1-0.1,0.1C5.8,12.1,5.8,12.1,5.8,12.1z"/>
	<path class="st26" d="M6.6,11.1c0,0.1,0,0.1-0.1,0.1C6.5,11.1,6.5,11.1,6.6,11.1z"/>
	<path class="st24" d="M8.1,9.2c0,0.1,0,0.1-0.1,0.1C8.1,9.2,8.1,9.2,8.1,9.2z"/>
	<path class="st30" d="M5,13.4c0,0-0.1,0.1-0.1,0.1C5,13.4,5,13.4,5,13.4z"/>
	<path class="st40" d="M11.9,5.7c0,0-0.1,0.1-0.1,0.1C11.8,5.7,11.9,5.7,11.9,5.7z"/>
	<path class="st23" d="M9.4,7.8C9.4,7.8,9.4,7.9,9.4,7.8C9.4,7.8,9.4,7.8,9.4,7.8z"/>
	<path class="st113" d="M1.4,31.4c0.1,0.1,0.1,0.3,0.1,0.5C1.4,31.8,1.4,31.6,1.4,31.4z"/>
	<path class="st113" d="M1.6,32.5c0.1,0.1,0.1,0.3,0.1,0.4C1.5,32.8,1.5,32.7,1.6,32.5z"/>
	<path class="st113" d="M1.5,32.1c0.1,0.1,0.1,0.3,0.1,0.4C1.5,32.4,1.5,32.2,1.5,32.1z"/>
	<path class="st13" d="M2.1,34.9c0.1,0.1,0.1,0.2,0.1,0.3C2.1,35.1,2.1,35,2.1,34.9z"/>
	<path class="st70" d="M23.2,54.5c0.1,0,0.2,0,0.3,0.1C23.4,54.5,23.2,54.6,23.2,54.5z"/>
	<path class="st13" d="M2,34.6c0.1,0.1,0.1,0.2,0.1,0.3C2,34.8,2,34.7,2,34.6z"/>
	<path class="st24" d="M7.9,45.7c0.1,0,0.1,0.1,0.1,0.2C8,45.8,8,45.7,7.9,45.7z"/>
	<path class="st33" d="M5.7,42.8c0.1,0,0.1,0.1,0.1,0.2C5.8,43,5.8,42.9,5.7,42.8z"/>
	<path class="st30" d="M4.9,41.5C5,41.6,5,41.6,5,41.7C5,41.7,4.9,41.6,4.9,41.5z"/>
	<path class="st26" d="M6.4,43.7c0.1,0,0.1,0.1,0.1,0.2C6.4,43.9,6.4,43.8,6.4,43.7z"/>
	<path class="st14" d="M2.7,36.7c0.1,0.1,0.1,0.1,0.1,0.2C2.7,36.8,2.6,36.7,2.7,36.7z"/>
	<path class="st58" d="M19,53.3c0.1,0,0.1,0,0.2,0.1C19.1,53.3,19,53.3,19,53.3z"/>
	<path class="st14" d="M2.8,36.9c0.1,0,0.1,0.1,0.1,0.2C2.8,37.1,2.7,37,2.8,36.9z"/>
	<path class="st16" d="M3.4,38.5c0.1,0,0.1,0.1,0.1,0.2C3.4,38.7,3.4,38.6,3.4,38.5z"/>
	<path class="st48" d="M17.4,52.6c0.1,0,0.2,0,0.2,0.1C17.5,52.7,17.4,52.7,17.4,52.6z"/>
	<path class="st56" d="M16,52c0.1,0,0.1,0,0.2,0.1C16.1,52.1,16.1,52,16,52z"/>
	<path class="st25" d="M4.2,40.2c0.1,0,0.1,0.1,0.1,0.2C4.2,40.4,4.2,40.3,4.2,40.2z"/>
	<path class="st78" d="M15.2,51.5c0,0,0.1,0.1,0.1,0.1C15.3,51.6,15.2,51.5,15.2,51.5z"/>
	<path class="st23" d="M9.3,47.1c0.1,0,0.1,0,0.1,0.1C9.4,47.2,9.3,47.2,9.3,47.1z"/>
	<path class="st37" d="M13.8,50.7c0,0,0.1,0.1,0.1,0.1C13.9,50.8,13.9,50.7,13.8,50.7z"/>
	<path class="st34" d="M12.3,49.7c0.1,0,0.1,0,0.1,0.1C12.4,49.7,12.4,49.7,12.3,49.7z"/>
	<path class="st28" d="M10.8,48.5C10.8,48.5,10.9,48.5,10.8,48.5C10.9,48.6,10.8,48.5,10.8,48.5z"/>
	<path class="st33" d="M5.7,42.7c0,0,0.1,0.1,0.1,0.1C5.7,42.8,5.7,42.8,5.7,42.7z"/>
	<path class="st30" d="M5,41.7c0,0,0.1,0.1,0.1,0.1C5.1,41.8,5,41.8,5,41.7z"/>
	<path class="st25" d="M4.3,40.4c0,0,0.1,0.1,0.1,0.1C4.3,40.5,4.3,40.5,4.3,40.4z"/>
	<path class="st24" d="M8.2,45.9C8.2,46,8.2,46,8.2,45.9C8.2,46,8.2,46,8.2,45.9z"/>
	<path class="st24" d="M8.1,45.8C8.1,45.9,8.1,45.9,8.1,45.8C8.1,45.9,8.1,45.9,8.1,45.8z"/>
	<path class="st24" d="M7.8,45.6c0.1,0,0.1,0,0.1,0.1C7.9,45.7,7.9,45.6,7.8,45.6z"/>
	<path class="st39" d="M7.3,44.9c0.1,0,0.1,0.1,0.1,0.1C7.4,45,7.3,45,7.3,44.9z"/>
	<path class="st39" d="M7.2,44.8c0.1,0,0.1,0.1,0.1,0.1C7.3,44.9,7.2,44.9,7.2,44.8z"/>
	<path class="st26" d="M6.5,43.9c0,0,0.1,0.1,0.1,0.1C6.5,44,6.5,44,6.5,43.9z"/>
</g>
<path class="st114" d="M188.9,34.3c-0.1,0.1-0.1,0.2-0.2,0.4c-0.3,0.8-0.6,1.6-0.9,2.3c-0.1,0.2-0.2,0.4-0.3,0.6
	c-0.3,0.3-0.6,0.3-0.9,0.2c-0.3-0.1-0.5-0.3-0.5-0.6c0.1-0.1,0.3,0,0.4,0c0.2,0,0.2,0,0.3,0.2c0.1,0.3,0.3,0.3,0.5,0.1
	c0.2-0.2,0.3-0.5,0.2-0.8c-0.3-0.6-0.5-1.1-0.7-1.7c-0.1-0.3-0.2-0.7-0.7-0.7c0,0,0-0.1,0-0.1c0.3,0,0.6,0,0.8,0
	c0.1,0,0.1,0.1,0.2,0.2c0.2,0.5,0.4,0.9,0.6,1.4c0,0.1,0.1,0.2,0.2,0.3c0.1,0,0.1-0.1,0.2-0.2c0.2-0.5,0.4-1,0.6-1.5
	c0.1-0.2,0.2-0.3,0.4-0.2C188.9,34.1,188.9,34.2,188.9,34.3z"/>
<path class="st114" d="M57.2,20.6c0,0.2,0,0.4,0,0.6c0,5,0,10,0,15.1c0,0.7,0.1,0.6-0.6,0.6c-0.3,0-0.6,0-0.8,0
	c-0.2,0-0.3-0.1-0.3-0.3c0-0.1,0-0.2,0-0.4c0-4.8,0-9.7,0-14.6c0-0.5,0-1-0.1-1.5c-0.1-0.5-0.4-0.8-0.9-1c-0.5-0.2-1-0.3-1.5-0.3
	c-0.2,0-0.3-0.1-0.3-0.4c0-0.2,0.1-0.3,0.3-0.3c0.7,0,1.4,0,2.2,0c1.1,0,2.3,0,3.4,0c0.4,0,0.4,0,0.6,0.4c1.1,3.1,2.2,6.1,3.3,9.2
	c0.6,1.8,1.3,3.6,1.9,5.4c0,0.1,0.1,0.2,0.2,0.3c0.1-0.3,0.2-0.6,0.3-0.9c1.6-4.6,3.2-9.3,4.9-13.9c0.2-0.6,0.1-0.5,0.7-0.5
	c0.9,0,1.9,0,2.8,0c0.4,0,0.4,0,0.4,0.5c0,0,0,0.1,0,0.1c0,5.9,0,11.7,0,17.6c0,0.7,0.1,0.6-0.6,0.6c-0.6,0-1.2,0-1.9,0
	c-0.4,0-0.4,0-0.4-0.4c0-0.1,0-0.2,0-0.3c0-5,0-10,0-15.1c0-0.2,0-0.4,0-0.6c-0.2,0.1-0.2,0.3-0.2,0.4c-1.8,5.1-3.6,10.3-5.4,15.4
	c0,0.1-0.1,0.2-0.1,0.3c0,0.2-0.2,0.3-0.4,0.3c-0.4,0-0.8,0-1.2,0c-0.6,0-0.5,0.1-0.7-0.5c-0.7-2.1-1.5-4.1-2.2-6.2
	c-1.1-3-2.1-6.1-3.2-9.1C57.4,20.9,57.4,20.8,57.2,20.6z"/>
<path class="st114" d="M86.9,27c0.5,0.1,1,0.3,1.5,0.4c1.7,0.7,2.6,2.1,2.7,3.9c0,0.5,0,1,0,1.5c-0.2,1.5-1,2.5-2.3,3.1
	c-1,0.5-2,0.7-3.1,0.8c-1.3,0.1-2.7,0.1-4,0.1c-1,0-2.1,0-3.1,0c-0.5,0-0.5,0.1-0.5-0.5c0-1.4,0-2.7,0-4.1c0-3.5,0-6.9,0-10.4
	c0-0.5,0-1,0-1.4c-0.1-0.9-0.3-1.2-1.2-1.4c-0.4-0.1-0.8-0.2-1.2-0.2c-0.3,0-0.3-0.2-0.3-0.4c0-0.3,0.2-0.2,0.3-0.2
	c2.9,0,5.8,0,8.6,0c1,0,2,0.2,3,0.5c1.2,0.4,2.2,1.2,2.6,2.5c0.6,2,0.1,4.4-2.5,5.5C87.3,26.8,87.1,26.8,86.9,27z M81.1,31.2
	c0,1,0,2.1,0,3.1c0,0.6,0.2,0.9,0.9,1.1c0.6,0.2,1.3,0.1,1.9,0.1c0.6,0,1.2-0.1,1.8-0.2c1.2-0.4,2-1.2,2.3-2.4
	c0.2-0.7,0.2-1.4,0.1-2.1c-0.1-1.2-0.7-2-1.7-2.6c-0.6-0.3-1.2-0.5-1.9-0.5c-1-0.1-2,0-3-0.1c-0.4,0-0.4,0-0.4,0.4
	C81.1,29.1,81.1,30.2,81.1,31.2z M81.1,23.3c0,0.9,0,1.8,0,2.7c0,0.3,0.1,0.4,0.3,0.3c0.6,0,1.2,0,1.9,0c0.7,0,1.4-0.1,2-0.4
	c1-0.4,1.5-1.1,1.8-2.1c0.1-0.7,0.1-1.4,0-2c-0.2-1.1-0.8-1.8-1.9-2.1c-1-0.3-2.1-0.3-3.2-0.2c-0.6,0.1-0.8,0.3-0.9,0.9
	c0,0.2,0,0.3,0,0.5C81.1,21.7,81.1,22.5,81.1,23.3z"/>
<path class="st114" d="M39.4,36.9c-0.8,0-1.7,0-2.5,0c-0.3,0-0.4-0.1-0.5-0.3c-0.5-1.5-1.1-3.1-1.6-4.6c-0.1-0.3-0.1-0.6-0.3-0.8
	c-0.2-0.2-0.6-0.1-0.9-0.1c-1.8,0-3.7,0-5.5,0c-0.9,0-0.6-0.1-0.9,0.6c-0.6,1.6-1.1,3.2-1.7,4.7c-0.1,0.4-0.1,0.4-0.6,0.4
	c-0.4,0-0.8,0-1.2,0c-0.1-0.2,0.1-0.4,0.1-0.6c1.7-4.7,3.5-9.5,5.2-14.2c0.2-0.5,0.3-1,0.5-1.5c0.3-0.9,0-1.4-1-1.6
	c-0.2,0-0.4-0.1-0.6-0.1c-0.5-0.1-0.5-0.1-0.4-0.6c0,0,0-0.1,0-0.1c0.1-0.1,0.3,0,0.4,0c1.4,0,2.8,0,4.3,0c0.6,0,0.4,0,0.6,0.4
	c2.2,5.9,4.3,11.9,6.5,17.8C39.3,36.5,39.4,36.7,39.4,36.9z M34,29.7c-1.1-2.7-2.1-5.3-3.2-8.1c-1,2.8-2,5.4-3,8.1
	C29.9,29.7,31.9,29.7,34,29.7z"/>
<path class="st114" d="M92.7,34.2c0.3,0,0.4,0.1,0.5,0.2c1.2,0.6,2.5,1.1,3.9,1.3c0.8,0.1,1.6,0.1,2.4-0.2c1.1-0.4,1.7-1.2,1.9-2.3
	c0.2-1.3-0.2-2.4-1.3-3.3c-0.6-0.5-1.2-0.9-1.9-1.2c-0.8-0.4-1.6-0.9-2.4-1.3c-0.7-0.4-1.4-0.9-2-1.5c-1.4-1.4-1.7-3.1-1.1-4.9
	c0.3-1,1-1.8,1.9-2.3c0.8-0.5,1.7-0.7,2.6-0.8c1.9-0.2,3.7,0,5.6,0.3c0.3,0,0.3,0.1,0.3,0.4c0,0.5,0,1.1,0,1.7
	c-0.2,0-0.4-0.1-0.6-0.2c-1.4-0.6-2.8-1-4.4-1c-0.4,0-0.7,0.1-1.1,0.2c-0.7,0.3-1.2,0.8-1.5,1.5c-0.3,1.1-0.1,2.1,0.7,3
	c0.4,0.4,0.9,0.8,1.4,1.1c0.7,0.4,1.4,0.8,2.2,1.2c0.8,0.4,1.7,0.9,2.4,1.5c0.9,0.7,1.7,1.6,2,2.7c0.8,2.7-0.5,5.3-3.1,6.3
	c-1.4,0.5-2.9,0.7-4.4,0.6c-1.3-0.1-2.5-0.3-3.7-0.6c-0.4-0.1-0.4-0.1-0.4-0.5C92.7,35.4,92.7,34.9,92.7,34.2z"/>
<path class="st114" d="M51.2,20.4c-0.7-0.3-1.4-0.6-2-0.8c-1-0.3-1.9-0.5-2.9-0.5c-1,0-1.8,0.3-2.3,1.2c-0.5,1-0.5,1.9,0.1,2.9
	c0.3,0.5,0.7,0.8,1.1,1.2c0.6,0.4,1.2,0.8,1.8,1.1c0.8,0.4,1.5,0.8,2.3,1.2c0.7,0.4,1.3,0.9,1.9,1.4c2.3,2.1,2,6.8-1.6,8.3
	c-1.5,0.6-3.1,0.8-4.7,0.7c-1.2-0.1-2.4-0.3-3.6-0.6c-0.6-0.1-0.5-0.1-0.5-0.6c0-0.6,0-1.1,0-1.7c0.2-0.1,0.3,0.1,0.5,0.2
	c1.2,0.6,2.5,1.2,3.9,1.3c0.8,0.1,1.6,0.1,2.4-0.1c1-0.3,1.6-1,1.9-2c0.3-1.3,0-2.5-1-3.4c-0.6-0.5-1.2-0.9-1.9-1.3
	c-0.9-0.5-1.8-1-2.7-1.4c-0.7-0.4-1.4-0.9-2-1.5c-1.4-1.4-1.7-3.1-1.1-4.9c0.3-1,1-1.7,1.9-2.3c0.8-0.5,1.7-0.7,2.7-0.8
	c1.9-0.2,3.7,0,5.5,0.3c0.3,0,0.4,0.2,0.3,0.4C51.2,19.2,51.2,19.8,51.2,20.4z"/>
<path class="st114" d="M114.9,33.6c-0.1,0.1-0.1,0.3-0.1,0.4c0,0.8,0,1.6,0,2.4c0,0.1,0,0.2-0.1,0.3c-0.1,0.1-0.3,0-0.3-0.2
	c0-0.7,0-1.4,0-2.1c0-0.3,0-0.5,0-0.8c0-0.4,0-0.4-0.4-0.5c0,0-0.1,0-0.1-0.1c0.4-0.1,0.8,0,1.2,0c0.1,0,0.1,0.2,0.2,0.3
	c0.3,0.8,0.6,1.6,0.8,2.3c0,0.1,0.1,0.3,0.2,0.4c0.1-0.1,0.1-0.3,0.2-0.4c0.3-0.8,0.6-1.5,0.8-2.3c0.1-0.2,0.2-0.3,0.4-0.3
	c0.1,0,0.1,0,0.2,0c0.2,0,0.3,0,0.3,0.3c0,0.8,0,1.7,0,2.5c0,0.3,0,0.6,0,0.9c0,0.2-0.1,0.2-0.3,0.2c-0.1,0-0.3,0-0.3-0.2
	c0-0.8,0-1.7,0-2.5c0-0.1,0-0.3-0.1-0.4c0,0.1-0.1,0.2-0.1,0.3c-0.3,0.9-0.6,1.7-0.9,2.6c0,0.1-0.1,0.3-0.3,0.3
	c-0.2,0-0.2-0.1-0.3-0.3c-0.3-0.8-0.6-1.6-0.9-2.4C115,33.9,115,33.7,114.9,33.6z"/>
<path class="st114" d="M118.3,31.3C118.2,31.3,118.2,31.3,118.3,31.3c-0.7,0-0.5,0-0.5-0.4c0-0.5,0-1,0-1.4c0-0.4,0-0.4-0.5-0.6
	c0.4-0.1,0.7-0.2,1-0.2c0.1,0.2,0,0.3,0.1,0.5c0.8-0.7,1.1-0.6,1.6,0c0.1,0,0.2-0.2,0.3-0.3c0.2-0.2,0.5-0.3,0.8-0.2
	c0.3,0.1,0.4,0.3,0.4,0.6c0.1,0.6,0,1.2,0,1.9c0,0.1-0.1,0.2-0.2,0.2c-0.4,0-0.4,0-0.4-0.4c0-0.4,0-0.8,0-1.2c0-0.1,0-0.3,0-0.4
	c-0.1-0.4-0.4-0.5-0.7-0.2c-0.2,0.2-0.3,0.4-0.3,0.7c0,0.4,0,0.8,0,1.2c0,0.1,0,0.2-0.1,0.3c-0.1,0.1-0.3,0-0.4,0
	c-0.1,0-0.1-0.1-0.1-0.2c0-0.4,0-0.8,0-1.2c0-0.2,0-0.3,0-0.5c-0.1-0.3-0.3-0.4-0.6-0.2c-0.2,0.1-0.3,0.3-0.3,0.5
	c-0.1,0.3,0,0.5-0.1,0.8c0,0.2,0,0.5,0,0.7C118.3,31.2,118.3,31.2,118.3,31.3z"/>
<path class="st114" d="M149,36.7c0-0.5,0-0.9,0-1.4c0-0.5,0-1.1,0-1.6c0-0.6,0-0.6-0.5-0.8c0-0.1,0.1-0.1,0.2-0.1c0.5,0,1.1,0,1.6,0
	c0.2,0,0.4,0,0.6,0.1c0.3,0.1,0.5,0.3,0.6,0.7c0,0.3-0.1,0.6-0.3,0.8c-0.1,0.1-0.2,0.1-0.2,0.2c0.6,0.3,0.8,0.5,0.7,1.1
	c0,0.4-0.2,0.6-0.5,0.8c-0.2,0.1-0.3,0.1-0.5,0.1c-0.1,0-0.3,0-0.5,0C149.8,36.7,149.4,36.7,149,36.7z M149.6,35.5L149.6,35.5
	c0,0.1,0,0.2,0,0.2c0,0.6,0.1,0.7,0.8,0.6c0.1,0,0.1,0,0.2,0c0.3-0.1,0.5-0.3,0.5-0.7c0-0.4-0.1-0.6-0.5-0.7
	c-0.3-0.1-0.5-0.1-0.8-0.1c-0.1,0-0.2,0.1-0.2,0.2C149.6,35.2,149.6,35.3,149.6,35.5z M149.6,33.9c0,0,0,0.1,0,0.1
	c0,0.6,0,0.6,0.6,0.5c0.1,0,0.2,0,0.2-0.1c0.2-0.1,0.4-0.3,0.4-0.5c0.1-0.5-0.2-0.8-0.7-0.8c-0.4,0-0.5,0-0.5,0.5
	C149.6,33.7,149.6,33.8,149.6,33.9z"/>
<path class="st114" d="M181.2,34c-0.4,0.3-0.4,0.3-0.4,0.8c0,0.6,0,1.2,0,1.8c0,0.2,0,0.4,0,0.5c0,0.3-0.3,0.6-0.6,0.7
	c-0.4,0.1-0.7,0.1-1.1,0c-0.4-0.1-0.5-0.3-0.5-0.7c0.1-0.1,0.2,0,0.3,0c0.2,0,0.3,0,0.3,0.2c0.1,0.3,0.3,0.4,0.6,0.4
	c0.3,0,0.4-0.2,0.4-0.5c0-0.1,0-0.2,0-0.3c0-0.1,0-0.3,0-0.4c-0.1,0-0.1,0.1-0.2,0.1c-0.5,0.3-1.2,0.1-1.4-0.5c-0.2-0.5-0.2-1,0-1.5
	c0.2-0.6,0.8-0.8,1.4-0.5c0.1,0.1,0.2,0.1,0.3,0c0-0.1,0.1,0,0.2,0C180.7,34,180.9,34,181.2,34z M180.2,35.4c0-0.2,0-0.4,0-0.5
	c0-0.3-0.2-0.5-0.5-0.5c-0.3,0-0.4,0.2-0.5,0.5c-0.1,0.4-0.1,0.8,0,1.1c0.1,0.3,0.2,0.5,0.5,0.4c0.3,0,0.4-0.2,0.5-0.5
	C180.2,35.7,180.2,35.5,180.2,35.4z"/>
<path class="st114" d="M126,36.7c-0.1-0.1,0-0.3,0-0.4c0-0.9,0-1.8,0-2.7c0-0.5,0-0.5-0.4-0.7c0.3-0.2,0.7-0.1,1-0.2
	c0,0.5,0,1,0,1.5c0.1,0.1,0.2,0,0.2-0.1c0.5-0.3,1.1-0.2,1.3,0.4c0.2,0.6,0.3,1.1,0,1.7c-0.2,0.6-0.9,0.7-1.3,0.4
	c-0.2-0.2-0.4-0.2-0.5,0C126.2,36.7,126.2,36.7,126,36.7z M126.6,35.3c0,0.2,0,0.5,0.1,0.7c0.1,0.2,0.2,0.4,0.4,0.4
	c0.2,0,0.4-0.1,0.5-0.4c0.1-0.5,0.1-0.9,0-1.4c-0.1-0.3-0.3-0.4-0.5-0.4c-0.2,0-0.4,0.1-0.5,0.4C126.6,34.9,126.6,35.1,126.6,35.3z"
	/>
<path class="st114" d="M145.8,34.3c0-0.3,0-0.5,0-0.7c0-0.3,0-0.6-0.5-0.7c0.4-0.2,0.7-0.1,1-0.2c0.1,0.1,0.1,0.1,0.1,0.2
	c0,1.2,0,2.3,0,3.5c0,0.1,0.1,0.3-0.1,0.3c-0.2,0-0.4,0.1-0.5,0c-0.1-0.3-0.2-0.1-0.3,0c-0.6,0.4-1.3,0.1-1.5-0.6
	c-0.1-0.4-0.1-0.7,0-1.1C144.2,34,145.1,33.7,145.8,34.3z M145.8,35.4c0-0.2,0-0.3,0-0.5c0-0.1,0-0.1-0.1-0.2
	c-0.1-0.2-0.2-0.4-0.5-0.4c-0.2,0-0.4,0.1-0.5,0.4c-0.1,0.5-0.1,0.9,0,1.4c0.1,0.3,0.2,0.4,0.5,0.4c0.2,0,0.4-0.1,0.5-0.4
	C145.7,35.9,145.8,35.6,145.8,35.4z"/>
<path class="st114" d="M172.7,33.3c-0.3-0.1-0.6-0.1-0.8-0.2c-0.3,0-0.6,0.1-0.7,0.3c-0.1,0.3,0,0.5,0.2,0.7
	c0.2,0.1,0.4,0.2,0.6,0.3c0.2,0.1,0.4,0.2,0.6,0.4c0.3,0.3,0.5,0.6,0.4,1c-0.1,0.4-0.3,0.7-0.7,0.8c-0.5,0.2-1,0.1-1.5,0
	c-0.3-0.1-0.1-0.3-0.1-0.5c0.1,0.1,0.3,0.1,0.5,0.2c0.2,0.1,0.5,0.1,0.7,0.1c0.3,0,0.5-0.1,0.6-0.4c0.1-0.3,0.1-0.5-0.1-0.7
	c-0.2-0.2-0.4-0.3-0.5-0.4c-0.2-0.1-0.5-0.2-0.7-0.4c-0.3-0.3-0.5-0.6-0.4-1c0.1-0.4,0.4-0.6,0.8-0.7c0.4-0.1,0.8-0.1,1.3,0
	C172.9,32.9,172.7,33.1,172.7,33.3z"/>
<path class="st114" d="M138.2,30.8c0.3,0.1,0.5,0.2,0.8,0.3c0.1,0,0.2,0,0.3,0c0.3,0,0.5-0.2,0.6-0.4c0.1-0.3,0-0.5-0.2-0.7
	c-0.2-0.2-0.4-0.3-0.6-0.4c-0.2-0.1-0.5-0.2-0.7-0.4c-0.3-0.3-0.4-0.6-0.3-1c0.1-0.4,0.4-0.6,0.7-0.7c0.4-0.1,0.8-0.1,1.3,0
	c0.3,0,0.1,0.2,0.1,0.4c-0.3-0.1-0.5-0.2-0.8-0.2c-0.4,0-0.6,0.1-0.7,0.3c-0.1,0.3,0,0.6,0.3,0.8c0.2,0.1,0.4,0.2,0.6,0.3
	c0.2,0.1,0.4,0.2,0.6,0.4c0.6,0.6,0.4,1.5-0.4,1.8c-0.5,0.2-1,0.1-1.5,0C138.1,31.2,138.1,31.2,138.2,30.8z"/>
<path class="st114" d="M114.8,27.5c0.3,0,0.6,0,0.9,0c0.2,0,0.2,0.1,0.2,0.3c0.4,1,0.7,2,1.1,3c0.1,0.2,0.1,0.3,0.2,0.5
	c-0.6,0.1-0.6,0.1-0.7-0.4c-0.1-0.2-0.1-0.5-0.3-0.7c-0.2-0.2-0.5-0.1-0.8-0.1c-0.7,0-0.7,0-0.9,0.6c0,0.1-0.1,0.2-0.1,0.3
	c-0.1,0.2-0.2,0.3-0.4,0.2c0.3-0.9,0.6-1.8,1-2.7c0.1-0.2,0.1-0.3,0.2-0.5c0.1-0.3,0.1-0.3-0.2-0.4
	C114.9,27.6,114.8,27.6,114.8,27.5z M114.9,29.9c0.4,0,0.8,0,1.2,0c-0.2-0.6-0.4-1.1-0.6-1.6c-0.2,0.4-0.3,0.8-0.4,1.2
	C115,29.5,114.9,29.7,114.9,29.9z"/>
<path class="st114" d="M140.7,34.2c0.3-0.2,0.7-0.2,1-0.2c0,0.2,0,0.4,0,0.5c0.1,0,0.2-0.1,0.2-0.2c0.2-0.2,0.4-0.3,0.6-0.3
	c0.4-0.1,0.6,0.1,0.7,0.5c0.1,0.2,0,0.4,0,0.6c0,0.5,0,0.9,0,1.4c0,0.3,0,0.3-0.3,0.3c-0.3,0-0.3,0-0.3-0.3c0-0.4,0-0.9,0-1.3
	c0-0.2,0-0.3-0.1-0.5c-0.1-0.3-0.3-0.4-0.5-0.2c-0.3,0.2-0.5,0.5-0.5,0.9c0,0.4,0,0.7,0,1.1c0,0.3,0,0.3-0.3,0.3
	c-0.3,0-0.3,0-0.3-0.3c0-0.5,0-1,0-1.5C141.2,34.6,141.2,34.3,140.7,34.2z"/>
<path class="st114" d="M134.1,28.7c0,0.1,0,0.3,0,0.4c0.1,0.1,0.2,0,0.2-0.1c0.1-0.1,0.2-0.2,0.4-0.3c0.5-0.2,1,0,1,0.6
	c0,0.6,0,1.2,0,1.8c0,0.2-0.1,0.2-0.3,0.2c-0.1,0-0.3,0-0.3-0.2c0-0.4,0-0.9,0-1.3c0-0.1,0-0.3,0-0.4c0-0.2-0.1-0.3-0.2-0.4
	c-0.2-0.1-0.3,0-0.5,0.1c-0.3,0.2-0.4,0.5-0.4,0.9c0,0.4,0,0.8,0,1.2c-0.6,0.1-0.6,0.1-0.6-0.5c0-0.5,0-0.9,0-1.4
	c0-0.4,0-0.4-0.4-0.6C133.3,28.7,133.6,28.7,134.1,28.7z"/>
<path class="st114" d="M173.1,34.2c0.4-0.1,0.7-0.2,1-0.2c0,0.5,0,1,0,1.5c0,0.1,0,0.3,0,0.5c0,0.2,0.1,0.3,0.3,0.4
	c0.2,0,0.3,0,0.5-0.2c0.1-0.1,0.2-0.3,0.2-0.4c0.1-0.4,0-0.8,0-1.2c0-0.2-0.2-0.3-0.5-0.4c0.4-0.1,0.7-0.2,1-0.2
	c0.1,0.2,0,0.3,0,0.5c0,0.6,0,1.3,0,1.9c0,0.2,0,0.3-0.3,0.3c-0.3,0-0.3,0-0.3-0.3c0-0.1,0-0.1,0-0.2c-0.1,0-0.2,0.2-0.3,0.3
	c-0.2,0.2-0.5,0.3-0.8,0.2c-0.3-0.1-0.5-0.3-0.5-0.6c-0.1-0.4,0-0.8,0-1.2C173.6,34.6,173.6,34.3,173.1,34.2z"/>
<path class="st114" d="M153.9,30.7c0.2-0.6,0.5-1.2,0.7-1.8c0.1-0.2,0.2-0.3,0.4-0.2c0,0.1,0,0.1,0,0.2c-0.4,0.9-0.7,1.8-1.1,2.7
	c-0.1,0.2-0.1,0.4-0.3,0.5c-0.2,0.3-0.6,0.4-0.9,0.3c-0.3-0.1-0.5-0.3-0.6-0.7c0.1-0.1,0.3,0,0.4,0c0.1,0,0.2,0,0.2,0.2
	c0.1,0.3,0.4,0.3,0.6,0.1c0.2-0.2,0.3-0.5,0.1-0.8c-0.3-0.5-0.5-1.1-0.7-1.7c-0.1-0.3-0.2-0.7-0.7-0.7c0,0,0-0.1,0-0.1
	c0.3,0,0.6,0,0.8,0c0.1,0,0.1,0.1,0.2,0.2c0.2,0.5,0.4,0.9,0.6,1.4C153.8,30.4,153.8,30.6,153.9,30.7z"/>
<path class="st114" d="M131.2,35.4C131.2,35.4,131.2,35.5,131.2,35.4c0,1.1-0.6,1.5-1.6,1.3c-0.4-0.1-0.7-0.4-0.8-0.8
	c-0.1-0.4-0.1-0.7,0-1.1c0.1-0.4,0.3-0.7,0.8-0.8C130.5,33.8,131.2,34.3,131.2,35.4z M130.6,35.4c0-0.3,0-0.5-0.1-0.8
	c-0.1-0.3-0.3-0.4-0.5-0.4c-0.2,0-0.4,0.1-0.5,0.4c-0.1,0.5-0.1,1,0,1.5c0.1,0.3,0.3,0.4,0.5,0.4s0.4-0.1,0.5-0.4
	C130.5,35.9,130.5,35.6,130.6,35.4z"/>
<path class="st114" d="M140.4,36.7c-0.2,0-0.5,0.1-0.6-0.2c-0.3,0.2-0.6,0.4-0.9,0.2c-0.3-0.1-0.5-0.3-0.5-0.6
	c0-0.3,0.1-0.5,0.3-0.6c0.3-0.2,0.6-0.2,0.9-0.3c0.3,0,0.3,0,0.3-0.3c0-0.1,0-0.3,0-0.5c0-0.1-0.1-0.2-0.3-0.3c-0.2,0-0.3,0-0.4,0.2
	c0,0.1,0,0.3-0.1,0.3c-0.1,0.1-0.3,0-0.5,0c0,0-0.1,0-0.1,0c0-0.4,0.2-0.6,0.5-0.7c0.3-0.1,0.6-0.1,0.9,0c0.3,0.1,0.5,0.3,0.6,0.6
	C140.4,35.3,140.4,36,140.4,36.7z M139.8,35.7c0-0.1,0.1-0.3-0.1-0.3c-0.2,0-0.6,0.1-0.7,0.3c-0.1,0.2-0.1,0.6,0.1,0.7
	c0.2,0.1,0.4,0,0.6-0.3C139.8,36,139.8,35.9,139.8,35.7z"/>
<path class="st114" d="M159.7,35.2c0-0.3,0-0.5,0-0.8c0-0.2-0.1-0.2-0.3-0.2c-0.2,0-0.3,0.1-0.3,0.2c-0.1,0.1,0,0.3-0.1,0.4
	c-0.2,0.1-0.4,0-0.6,0c0-0.2,0-0.3,0.1-0.4c0.3-0.5,1.3-0.6,1.7-0.2c0.2,0.2,0.2,0.4,0.2,0.7c0,0.5,0,1,0,1.5c0,0.1,0.1,0.3-0.1,0.3
	c-0.1,0-0.4,0.1-0.4-0.1c-0.1-0.2-0.2-0.1-0.2,0c-0.3,0.2-0.5,0.2-0.8,0.1c-0.2-0.1-0.4-0.2-0.4-0.5c0-0.3,0-0.5,0.3-0.7
	c0.2-0.1,0.4-0.2,0.6-0.3C159.3,35.3,159.5,35.2,159.7,35.2z M159.7,35.7c0-0.1,0.1-0.2-0.1-0.3c-0.3-0.1-0.7,0.2-0.8,0.4
	c-0.1,0.2,0,0.5,0.2,0.5c0.2,0.1,0.4,0,0.5-0.2C159.7,36.1,159.7,35.9,159.7,35.7z"/>
<path class="st114" d="M123.4,34.8c0-0.3,0.1-0.5,0.3-0.6c0.4-0.2,0.9-0.3,1.3-0.1c0.2,0.1,0.3,0.3,0.3,0.6c0,0.7,0,1.3,0,2
	c-0.2,0-0.4,0.1-0.6-0.1c0-0.1-0.1,0-0.2,0c-0.3,0.2-0.5,0.2-0.8,0.1c-0.3-0.1-0.4-0.3-0.5-0.5c0-0.3,0.1-0.5,0.3-0.6
	c0.3-0.2,0.6-0.2,0.9-0.3c0.3,0,0.3-0.1,0.3-0.4c0-0.1,0-0.3,0-0.4c0-0.1-0.1-0.2-0.3-0.2c-0.1,0-0.3,0-0.3,0.2
	c0,0.1-0.1,0.2-0.1,0.4c0,0,0,0-0.1,0C123.7,34.8,123.6,34.8,123.4,34.8z M124.8,35.7c0-0.1,0-0.2-0.1-0.3c-0.2,0-0.6,0.1-0.7,0.3
	c-0.1,0.2,0,0.5,0.1,0.6c0.2,0.1,0.5,0,0.6-0.2C124.7,36,124.8,35.9,124.8,35.7z"/>
<path class="st114" d="M130.8,29.4c0-0.2,0.1-0.4,0.2-0.5c0.3-0.3,1.1-0.4,1.5-0.1c0.2,0.2,0.3,0.4,0.3,0.6c0,0.3,0,0.6,0,0.9
	c0,0.2,0,0.4,0,0.7c0,0.1,0.1,0.3-0.1,0.3c-0.1,0-0.4,0.1-0.5,0c-0.1-0.2-0.2-0.1-0.3,0c-0.2,0.1-0.5,0.2-0.7,0.1
	c-0.2-0.1-0.4-0.2-0.5-0.5c0-0.3,0.1-0.5,0.3-0.7c0.3-0.2,0.6-0.2,0.9-0.3c0.3,0,0.3,0,0.3-0.3c0-0.2,0-0.3-0.1-0.5
	c-0.1-0.1-0.1-0.2-0.3-0.2c-0.2,0-0.3,0.1-0.3,0.2c0,0.4-0.3,0.4-0.6,0.4C130.8,29.4,130.8,29.4,130.8,29.4z M132.1,30.1
	c-0.3,0-0.5,0-0.6,0.1c-0.2,0.1-0.2,0.3-0.2,0.5c0,0.2,0.1,0.3,0.3,0.3c0.2,0,0.4-0.1,0.5-0.3C132.2,30.5,132.2,30.3,132.1,30.1z"/>
<path class="st114" d="M143.4,30c0,0.1,0,0.1,0,0.2c0,1-0.9,1.5-1.8,1.1c-0.3-0.1-0.4-0.3-0.5-0.6c-0.1-0.4-0.1-0.9,0-1.3
	c0.1-0.4,0.4-0.6,0.8-0.7C142.8,28.5,143.4,29,143.4,30z M142.7,30.1c0-0.3,0-0.6-0.1-0.8c-0.1-0.3-0.3-0.4-0.5-0.4
	c-0.3,0-0.4,0.2-0.5,0.4c-0.2,0.5-0.2,1.1,0,1.6c0.1,0.3,0.3,0.4,0.5,0.4c0.2,0,0.4-0.1,0.5-0.4C142.7,30.5,142.8,30.3,142.7,30.1z"
	/>
<path class="st114" d="M152.1,34.7c0-0.1,0-0.1,0-0.2c0.2-0.5,0.6-0.7,1.2-0.6c0.5,0.1,0.7,0.3,0.7,0.8c0,0.5,0,1.1,0,1.6
	c0,0.2-0.1,0.2-0.3,0.2c-0.2,0-0.2,0-0.3-0.2c-0.1,0-0.2,0.1-0.3,0.2c-0.2,0.1-0.5,0.1-0.7,0c-0.2-0.1-0.4-0.3-0.5-0.5
	c0-0.3,0.1-0.5,0.3-0.6s0.5-0.2,0.7-0.3c0.5-0.1,0.5-0.1,0.4-0.6c0-0.1,0-0.2,0-0.3c0-0.1-0.1-0.2-0.3-0.2c-0.1,0-0.3,0.1-0.3,0.2
	c-0.1,0.1,0,0.3-0.1,0.4C152.5,34.8,152.3,34.8,152.1,34.7z M153.5,35.5c-0.3,0-0.5,0-0.6,0.1c-0.2,0.1-0.2,0.4-0.2,0.6
	c0,0.1,0.1,0.2,0.3,0.2c0.2,0,0.4-0.1,0.5-0.3C153.5,35.9,153.5,35.7,153.5,35.5z"/>
<path class="st114" d="M149.1,31.4c-0.8,0-1.2-0.4-1.4-1.2c0-0.2,0-0.4,0-0.6c0.1-0.8,0.9-1.3,1.7-0.9c0.3,0.1,0.5,0.5,0.5,0.8
	c0,0.1-0.1,0.2-0.2,0.2c-0.4,0-0.8,0-1.2,0c-0.2,0-0.3,0.1-0.2,0.3c0,0.2,0.1,0.4,0.2,0.6c0.2,0.3,0.4,0.5,0.8,0.5
	c0.1,0,0.2,0,0.4,0c0.1,0,0.1,0,0.2,0.1c0,0.1,0,0.1-0.1,0.2c-0.1,0-0.2,0.1-0.3,0.1C149.4,31.4,149.2,31.4,149.1,31.4z M148.3,29.4
	c0.3,0,0.7,0,1,0c0-0.5-0.2-0.6-0.5-0.6C148.5,28.8,148.4,29,148.3,29.4z"/>
<path class="st114" d="M123.4,29.7c-0.1,0-0.3,0-0.4,0c-0.4,0-0.4,0-0.3,0.4c0.1,0.7,0.6,1,1.3,1c0,0,0.1,0,0.1,0
	c0.1,0,0.1,0,0.2,0.1c0,0.1,0,0.1-0.1,0.2c-0.1,0-0.3,0.1-0.4,0.1c-0.6,0.1-1.1,0-1.4-0.5c-0.4-0.6-0.4-1.2-0.1-1.8
	c0.2-0.4,0.6-0.5,1-0.5c0.5,0,0.9,0.2,1,0.7c0.1,0.3,0,0.4-0.3,0.4C123.7,29.7,123.6,29.7,123.4,29.7z M123.6,29.5
	c0-0.5-0.1-0.6-0.4-0.7c-0.3,0-0.5,0.2-0.6,0.5c0,0.1,0,0.2,0.2,0.2C123.1,29.5,123.4,29.5,123.6,29.5z"/>
<path class="st114" d="M120.2,36.8c-0.8,0-1.3-0.5-1.4-1.3c0-0.1,0-0.3,0-0.4c0.1-0.9,0.9-1.4,1.7-1c0.3,0.2,0.4,0.5,0.5,0.8
	c0,0.1-0.1,0.2-0.2,0.2c-0.4,0-0.7,0-1.1,0c-0.4,0-0.4,0-0.3,0.4c0.1,0.3,0.2,0.6,0.4,0.8c0.3,0.2,0.6,0.2,0.9,0.2
	c0.1,0,0.2-0.1,0.2,0.1c0,0.1-0.1,0.2-0.2,0.2C120.6,36.7,120.4,36.8,120.2,36.8z M119.9,34.8C119.9,34.8,119.9,34.8,119.9,34.8
	c0.1,0,0.3,0,0.4,0c0.1,0,0.1,0,0.1-0.1c0-0.2-0.2-0.5-0.3-0.5c-0.2-0.1-0.4,0-0.6,0.2c-0.1,0.1-0.2,0.2-0.1,0.4
	c0.1,0.1,0.2,0,0.3,0C119.8,34.9,119.9,34.8,119.9,34.8z"/>
<path class="st114" d="M182.8,35.1c-0.2,0-0.4,0-0.5,0c-0.2,0-0.2,0.1-0.2,0.2c0.1,0.9,0.7,1.3,1.4,1.1c0.1,0,0.1-0.1,0.2,0
	c0,0.1,0,0.1-0.1,0.2c-0.8,0.5-1.9-0.1-2.1-1c0-0.2,0-0.4,0-0.6c0.1-0.9,1.1-1.3,1.8-0.8c0.3,0.2,0.4,0.5,0.4,0.8
	c0,0.1-0.1,0.2-0.2,0.2C183.2,35.1,183,35.1,182.8,35.1z M182,34.8c0.3,0,0.6,0,0.8,0c0.1,0,0.2,0,0.2-0.1c0-0.2-0.2-0.5-0.4-0.5
	C182.3,34.1,182.1,34.3,182,34.8z"/>
<path class="st114" d="M168.7,34.7c-0.1,0.1-0.2,0-0.3,0c-0.2,0-0.3,0-0.3-0.2c0-0.2-0.1-0.4-0.4-0.3c-0.2,0-0.3,0.1-0.4,0.4
	c-0.1,0.4-0.1,0.8,0,1.2c0.2,0.5,0.5,0.7,1.1,0.6c0.1,0,0.2-0.1,0.3,0.1c0,0.1-0.1,0.2-0.2,0.2c-0.2,0.1-0.5,0.1-0.7,0.1
	c-0.6-0.1-0.9-0.4-1.1-0.9c-0.1-0.4-0.1-0.7,0-1.1c0.2-0.8,1.3-1,1.9-0.5C168.6,34.4,168.7,34.5,168.7,34.7z"/>
<path class="st114" d="M136.5,34.7c-0.1,0.1-0.2,0-0.3,0c-0.2,0-0.4,0-0.4-0.3c0-0.2-0.2-0.3-0.4-0.3c-0.2,0-0.3,0.1-0.4,0.3
	c-0.1,0.5-0.1,1,0.1,1.4c0.2,0.4,0.5,0.5,1,0.5c0.1,0,0.3-0.2,0.3,0c0,0.2-0.2,0.2-0.3,0.2c-0.2,0-0.4,0.1-0.6,0.1
	c-0.7,0-1.1-0.5-1.2-1.1c0-0.4,0-0.7,0.1-1.1c0.2-0.4,0.5-0.6,1-0.6c0.5,0,0.8,0.2,1,0.6C136.5,34.6,136.5,34.7,136.5,34.7z"/>
<path class="st114" d="M130.4,29.4c-0.2,0-0.3,0-0.4,0c-0.2,0-0.3,0-0.3-0.2c-0.1-0.3-0.2-0.4-0.4-0.3c-0.2,0-0.3,0.2-0.4,0.4
	c-0.1,0.4-0.1,0.8,0,1.2c0.1,0.5,0.5,0.7,1,0.6c0.1,0,0.1,0,0.2,0c0.1,0,0.1,0,0.2,0.1c0,0.1,0,0.2-0.1,0.2c-0.7,0.4-1.7,0-1.9-0.8
	c-0.1-0.4-0.1-0.8,0.1-1.3c0.2-0.4,0.5-0.6,1-0.6c0.4,0,0.8,0.1,1,0.6C130.4,29.2,130.4,29.3,130.4,29.4z"/>
<path class="st114" d="M145.9,29.4c-0.1,0.1-0.2,0-0.3,0c-0.2,0-0.3,0-0.4-0.3c0-0.2-0.1-0.3-0.3-0.3c-0.2,0-0.4,0.1-0.4,0.3
	c-0.1,0.5-0.2,1.1,0.1,1.6c0.2,0.3,0.5,0.4,0.9,0.4c0.1,0,0.3-0.2,0.3,0c0,0.2-0.2,0.2-0.3,0.2c-0.3,0.1-0.6,0.1-0.9,0
	c-0.2-0.1-0.4-0.2-0.5-0.3c-0.4-0.5-0.5-1.5-0.1-2c0.4-0.5,1.3-0.5,1.7-0.1C145.9,29.1,146,29.2,145.9,29.4z"/>
<path class="st114" d="M161.1,34c-0.1-0.5,0.2-0.7,0.6-0.9c0,0.3,0,0.5,0,0.7c0,0.2,0.1,0.2,0.2,0.2c0.1,0,0.2,0,0.4,0
	c0.1,0,0.1,0,0.1,0.1c0,0.1-0.1,0.1-0.1,0.1c-0.1,0-0.2,0-0.4,0c-0.2,0-0.2,0.1-0.2,0.2c0,0.5,0,1,0,1.4c0,0.4,0,0.5,0.5,0.5
	c0.1,0,0.2,0,0.2,0.1c0,0.1-0.1,0.1-0.1,0.1c-0.3,0.1-0.5,0-0.8,0c-0.2-0.1-0.3-0.3-0.3-0.5c0-0.5,0-1,0-1.4c0-0.1,0-0.3,0-0.4
	c-0.1-0.1-0.2,0-0.3-0.1c-0.1,0-0.1,0-0.1-0.1c0-0.1,0-0.1,0.1-0.1C160.9,34,161,34,161.1,34z"/>
<path class="st114" d="M131.3,32.9c0.3-0.2,0.6-0.1,0.9-0.2c0.1,0,0.1,0,0.1,0.1c0,0.1,0,0.1,0,0.2c0,1.1,0,2.2,0,3.3
	c0,0.3-0.2,0.4-0.5,0.3c-0.1,0-0.1-0.1-0.1-0.2c0-0.1,0-0.2,0-0.3c0-0.9,0-1.8,0-2.6C131.7,33.3,131.7,33,131.3,32.9z"/>
<path class="st114" d="M151.2,27.7c0,0.3,0,0.5,0,0.7c0,0.2,0.1,0.2,0.2,0.2c0.1,0,0.2,0,0.4,0c0.1,0,0.1,0,0.1,0.1
	c0,0.1-0.1,0.1-0.2,0.1c-0.1,0-0.3,0-0.4,0c-0.1,0-0.2,0-0.2,0.1c0,0.6,0,1.2,0,1.7c0,0.3,0.1,0.3,0.5,0.3c0.1,0,0.2,0,0.2,0.1
	c0,0.1-0.1,0.1-0.2,0.1c-0.1,0-0.3,0-0.5,0c-0.4,0-0.6-0.2-0.6-0.6c0-0.5,0-1,0-1.5c0-0.2,0-0.3-0.3-0.3c-0.1,0-0.2,0-0.2-0.1
	c0-0.1,0.1-0.1,0.2-0.1c0.2,0,0.3-0.1,0.3-0.3C150.6,28.1,150.9,28,151.2,27.7z"/>
<path class="st114" d="M122.3,33.1c0,0.3,0,0.6,0,0.8c0,0.1,0,0.2,0.2,0.2c0.1,0,0.3,0,0.5,0c0.1,0,0.1,0,0.1,0.1
	c0,0.1,0,0.1-0.1,0.1c0,0-0.1,0-0.1,0c-0.5,0-0.5,0-0.5,0.5c0,0.4,0,0.7,0,1.1c0,0.5,0,0.5,0.5,0.6c0.1,0,0.1,0,0.2,0.1
	c0,0.1-0.1,0.1-0.1,0.2c-0.3,0.1-0.5,0-0.8-0.1c-0.3-0.1-0.3-0.3-0.3-0.6c0-0.4,0-0.9,0-1.3c0-0.1,0-0.2,0-0.3c0-0.2,0-0.3-0.2-0.3
	c-0.1,0-0.2,0-0.2-0.1c0-0.2,0.1-0.1,0.2-0.1c0.1,0,0.2,0,0.2-0.1C121.7,33.5,122,33.4,122.3,33.1z"/>
<path class="st114" d="M124.3,28.9c0.4-0.2,0.7-0.2,1-0.2c0.1,0,0.2,0,0.1,0.1c0,0.1,0,0.2,0,0.3c0.1,0,0.1-0.1,0.2-0.2
	c0,0,0.1-0.1,0.1-0.1c0.2-0.1,0.5-0.2,0.6-0.1c0.2,0.1,0.1,0.3,0.1,0.5c-0.8,0-1,0.2-1,1c0,0.3,0,0.6,0,0.9c0,0.3-0.1,0.2-0.3,0.2
	c-0.2,0-0.3,0-0.3-0.2c0-0.5,0-1,0-1.6C124.9,29.2,124.8,28.9,124.3,28.9z"/>
<path class="st114" d="M155.4,34c0.1,0.1,0,0.3,0.1,0.4c0.1,0,0.1,0,0.1-0.1c0-0.1,0.1-0.1,0.2-0.2c0.2-0.1,0.4-0.2,0.6-0.1
	c0.2,0.1,0.1,0.3,0.1,0.5c-0.1,0-0.1,0-0.1,0c-0.5,0-0.8,0.2-0.9,0.7c0,0.4,0,0.7,0,1.1c0,0.3,0,0.3-0.3,0.3c-0.2,0-0.2-0.1-0.2-0.3
	c0-0.5,0-1,0-1.5c0-0.5,0-0.5-0.4-0.7C154.8,34.1,155.1,34.1,155.4,34z"/>
<path class="st114" d="M163.1,36.7c0-0.5,0-0.9,0-1.4c0-0.1,0-0.2,0-0.4c0-0.5,0-0.5-0.5-0.7c0.3-0.1,0.6-0.2,0.9-0.2
	c0.1,0,0.1,0,0.1,0.1c0,0.1,0,0.2,0,0.3c0.2,0,0.1-0.1,0.2-0.2c0,0,0.1-0.1,0.1-0.1c0.2-0.2,0.5-0.2,0.6-0.1
	c0.2,0.1,0.1,0.3,0.1,0.5c-0.1,0.1-0.1,0-0.2,0c-0.5,0-0.7,0.2-0.8,0.7c0,0.4,0,0.8,0,1.2s0,0.4-0.4,0.4
	C163.3,36.7,163.2,36.7,163.1,36.7z"/>
<path class="st114" d="M184.9,34.4c0.1,0,0.1,0,0.1-0.1c0.1-0.1,0.1-0.1,0.2-0.2c0.2-0.2,0.5-0.2,0.6-0.1c0.2,0.1,0.1,0.3,0.1,0.5
	c0,0-0.1,0-0.1,0c-0.6-0.1-0.9,0.2-0.9,0.8c0,0.4,0,0.7,0,1.1c0,0.1,0,0.2-0.1,0.3c-0.1,0-0.3,0-0.4,0c-0.1,0-0.1-0.1-0.1-0.2
	c0-0.5,0-1,0-1.6c0-0.5,0-0.5-0.5-0.7c0.3-0.1,0.7-0.2,1-0.2C184.9,34.1,184.7,34.3,184.9,34.4z"/>
<path class="st114" d="M176.1,34.2c0.4-0.1,0.7-0.2,1-0.2c0.1,0.1,0,0.3,0.1,0.4c0.1,0,0.1-0.1,0.2-0.1c0,0,0.1-0.1,0.1-0.1
	c0.2-0.2,0.5-0.2,0.6-0.1c0.1,0.1,0.1,0.1,0.1,0.5c0,0-0.1,0-0.1,0c-0.5-0.1-0.8,0.2-0.9,0.7c0,0.4,0,0.8,0,1.2c0,0.1,0,0.2-0.1,0.3
	c-0.1,0.1-0.3,0-0.4,0c-0.1,0-0.1-0.2-0.1-0.3c0-0.5,0-1,0-1.6C176.6,34.4,176.6,34.4,176.1,34.2z"/>
<path class="st114" d="M160.3,30.4c0,0.8-0.6,1.2-1.3,1c-0.4-0.2-0.6-0.6-0.5-1.2c0.1-0.5,0.3-0.7,0.8-0.8
	C159.9,29.3,160.3,29.6,160.3,30.4z M158.9,30.3c0,0.2,0,0.4,0.1,0.6c0.1,0.2,0.2,0.3,0.4,0.3s0.3-0.1,0.4-0.3
	c0.1-0.4,0.1-0.8,0-1.2c0-0.2-0.2-0.3-0.4-0.3c-0.2,0-0.3,0.1-0.4,0.3C158.9,29.9,158.9,30.1,158.9,30.3z"/>
<path class="st114" d="M156.9,29.4c0.3-0.1,0.3-0.1,0.4-0.5c0.1-0.4,0.2-0.6,0.6-0.6c0.4,0,0.7,0.1,0.8,0.5c-0.2,0-0.4,0.1-0.5-0.2
	c0-0.1-0.1-0.1-0.2-0.1c-0.1,0-0.2,0.1-0.2,0.2c0,0.1,0,0.2,0,0.3c0,0.2,0,0.3,0.3,0.3c0,0,0.1,0,0.1,0c0.1,0,0.2,0,0.2,0.1
	c0,0.1-0.1,0.1-0.2,0.1c0,0-0.1,0-0.1,0c-0.3,0-0.3,0-0.3,0.3c0,0.4,0,0.8,0,1.2c0,0.2-0.1,0.2-0.3,0.2c-0.1,0-0.2,0-0.2-0.2
	c0-0.4,0-0.8,0-1.2C157.3,29.6,157.3,29.6,156.9,29.4z"/>
<path class="st114" d="M156.7,34.2c0.3-0.1,0.6-0.1,0.9-0.2c0.1,0.1,0.1,0.2,0.1,0.3c0,0.7,0,1.4,0,2.1c0,0.1,0,0.2-0.1,0.3
	c-0.1,0-0.3,0.1-0.4,0c-0.1,0-0.1-0.1-0.1-0.2c0-0.4,0-0.8,0-1.2c0-0.1,0-0.2,0-0.4C157.2,34.6,157.1,34.3,156.7,34.2
	C156.7,34.2,156.7,34.2,156.7,34.2z"/>
<path class="st114" d="M146.1,28.8c0.4-0.1,0.7-0.2,1.1-0.2c0,0.8,0,1.7,0,2.5c0,0.2-0.2,0.2-0.3,0.2c-0.1,0-0.3,0.1-0.3-0.2
	c0-0.6,0-1.1,0-1.7C146.6,29.1,146.5,29,146.1,28.8z"/>
<path class="st114" d="M132.7,34.2c0.4-0.1,0.7-0.2,1-0.2c0.1,0.1,0.1,0.2,0.1,0.4c0,0.6,0,1.3,0,1.9c0,0.4,0,0.4-0.3,0.4
	c-0.3,0-0.3,0-0.3-0.4c0-0.5,0-1,0-1.4C133.2,34.4,133.2,34.4,132.7,34.2z"/>
<path class="st114" d="M164.9,34.2c0.3-0.1,0.7-0.2,1-0.2c0,0.2,0,0.5,0,0.7c0,0.6,0,1.2,0,1.8c0,0.3,0,0.2-0.3,0.3
	c-0.2,0-0.3,0-0.3-0.3c0-0.5,0-1,0-1.5C165.4,34.4,165.4,34.4,164.9,34.2z"/>
<path class="st114" d="M126.7,28.9c0.3-0.1,0.6-0.2,0.9-0.2c0.1,0.1,0.1,0.2,0.1,0.3c0,0.7,0,1.3,0,2c0,0.3,0,0.3-0.3,0.3
	c-0.3,0-0.3,0-0.3-0.3c0-0.5,0-1,0-1.5C127.1,29.2,127.1,28.9,126.7,28.9z"/>
<path class="st114" d="M161.9,29.7c-0.6,0-0.7,0.2-0.7,0.7c0,0.2,0,0.5,0,0.7c0,0.2-0.1,0.2-0.2,0.2c-0.2,0-0.2-0.1-0.2-0.2
	c0-0.4,0-0.7,0-1.1c0-0.4,0-0.4-0.3-0.6c0.2,0,0.3-0.1,0.4-0.1c0.3-0.1,0.3-0.1,0.4,0.3c0.1,0,0.1-0.2,0.2-0.2
	c0.1-0.1,0.3-0.1,0.4-0.1C162,29.4,161.9,29.6,161.9,29.7z"/>
<path class="st114" d="M157.8,33.2c0,0.2-0.2,0.4-0.4,0.4c-0.2,0-0.3-0.1-0.4-0.3c0-0.2,0.1-0.4,0.3-0.4
	C157.6,32.8,157.8,33,157.8,33.2z"/>
<path class="st114" d="M127.4,28.2c-0.2,0-0.3-0.2-0.3-0.3c0-0.2,0.2-0.4,0.4-0.4c0.2,0,0.3,0.1,0.3,0.3
	C127.8,28,127.6,28.2,127.4,28.2z"/>
<path class="st114" d="M147.2,27.8c0,0.2-0.2,0.4-0.4,0.3c-0.2,0-0.3-0.2-0.3-0.4c0-0.2,0.2-0.4,0.4-0.3
	C147.1,27.5,147.2,27.6,147.2,27.8z"/>
<path class="st114" d="M133.8,33.2c0,0.2-0.2,0.4-0.4,0.3c-0.2,0-0.3-0.2-0.3-0.4c0-0.2,0.2-0.3,0.4-0.3
	C133.7,32.8,133.8,33,133.8,33.2z"/>
<path class="st114" d="M165.7,33.5c-0.2,0-0.3-0.1-0.4-0.3c0-0.2,0.1-0.4,0.3-0.4c0.2,0,0.3,0.1,0.4,0.3
	C166.1,33.4,165.9,33.5,165.7,33.5z"/>
<line class="st115" x1="101.2" y1="15.7" x2="101.2" y2="39.3"/>
</svg>
