<?xml version="1.0" encoding="utf-8"?>
<!-- Generator: Adobe Illustrator 21.0.0, SVG Export Plug-In . SVG Version: 6.00 Build 0)  -->
<svg version="1.1" id="Layer_1" xmlns="http://www.w3.org/2000/svg" xmlns:xlink="http://www.w3.org/1999/xlink" x="0px" y="0px"
	 viewBox="0 0 184 32.2" style="enable-background:new 0 0 184 32.2;" xml:space="preserve">
<style type="text/css">
	.st0{fill:#A73129;}
	.st1{fill:#262625;}
</style>
<g>
	<path class="st0" d="M26.3,24c0.6-0.9,1.1-1.6,1.6-2.4c0.8-1.2,1.6-2.5,2.4-3.7c1.1-1.7,2.2-3.4,3.3-5.1c1.4-2.2,2.8-4.3,4.2-6.5
		c1-1.6,2-3.1,3-4.7c0.2-0.3,0.4-0.5,0.8-0.5c0.1,0,0.3,0,0.4,0c0.3,0,0.4,0.1,0.5,0.4c0.2,0.8,0.5,1.6,0.7,2.5
		c0.2,0.8,0.4,1.6,0.7,2.4C44,7.3,44.3,8,44.5,8.8c0.2,0.8,0.5,1.5,0.7,2.3c0.3,1.1,0.6,2.2,0.9,3.2c0.2,0.8,0.4,1.5,0.6,2.3
		c0.3,1,0.6,2,0.9,3.1c0.2,0.7,0.4,1.5,0.6,2.3c0.3,1,0.6,2.1,0.9,3.1c0.3,1,0.6,2,0.8,2.9c0.1,0.4,0.2,0.8,0.3,1.1s0.1,0.5-0.3,0.5
		c-1.3,0-2.5,0-3.8,0c-0.6,0-0.6,0-0.8-0.6c-0.4-1.5-0.8-3.1-1.3-4.6c-0.4-1.2-0.7-2.5-1-3.8c0-0.2-0.2-0.2-0.3-0.2
		c-0.4,0-0.8,0-1.2,0c-3.3,0-6.6,0-9.9,0c-0.4,0-0.6,0.2-0.7,0.5c-1.3,1.9-2.5,3.9-3.8,5.8C27,26.7,27,26.9,27,27
		c0.3,0.7,0.4,1.5,0.7,2.3c0.1,0.2,0,0.3-0.2,0.3c-0.1,0-0.3,0-0.4,0c-1.2,0-2.4,0.2-3.6,0.1c-0.6,0-0.6,0-0.7-0.6
		c-0.2-0.8-0.4-1.7-0.7-2.5c-0.2-0.8-0.5-1.6-0.7-2.4c-0.3-1-0.6-2-0.9-3.1c-0.1-0.2,0-0.6-0.3-0.7c-0.2-0.1-0.5,0-0.8,0
		c-3.5,0-7.1,0-10.6,0c-0.3,0-0.4,0.1-0.5,0.3c-1.1,1.6-2.1,3.3-3.2,4.9c-0.8,1.2-1.5,2.4-2.3,3.6c-0.2,0.3-0.4,0.4-0.7,0.4
		c-0.5,0-1.1,0-1.7,0c-0.2,0-0.3,0-0.2-0.3c0.4-0.6,0.7-1.2,1.1-1.7c0.7-1.1,1.5-2.3,2.2-3.4c1.2-1.9,2.5-3.9,3.7-5.8
		c1.4-2.1,2.8-4.2,4.2-6.3c1.3-2,2.6-3.9,3.8-5.9c1-1.5,1.9-3.1,2.9-4.6c0.1-0.2,0.3-0.4,0.6-0.3c0.1,0,0.3,0,0.4,0
		c0.5-0.1,0.6,0.2,0.7,0.6c0.2,0.8,0.4,1.6,0.6,2.3c0.2,0.8,0.4,1.5,0.7,2.3c0.3,1.1,0.6,2.2,0.9,3.3c0.3,1,0.5,2,0.8,3s0.6,2,0.9,3
		c0.2,0.8,0.4,1.6,0.6,2.4c0.3,1,0.6,2,0.9,3c0.2,0.8,0.4,1.5,0.6,2.3C26.1,23.6,26.2,23.8,26.3,24z M16.8,7.8
		c-0.2,0.1-0.3,0.3-0.4,0.5c-1,1.6-2.1,3.2-3.1,4.8c-1.1,1.7-2.2,3.3-3.2,5c-0.1,0.1-0.1,0.2-0.1,0.3c0,0.1,0.2,0.1,0.3,0.1
		c3.1,0,6.1,0,9.2,0c0.2,0,0.3,0,0.3-0.3c-0.1-0.4-0.2-0.8-0.4-1.2c-0.3-1-0.5-2-0.8-3c-0.3-1.1-0.6-2.2-0.9-3.2
		C17.4,9.7,17.1,8.7,16.8,7.8z M37.4,18.4L37.4,18.4c1.5,0,3.1,0,4.6,0c0.3,0,0.4-0.1,0.3-0.4c-0.2-0.8-0.5-1.6-0.7-2.4
		c-0.1-0.6-0.3-1.2-0.5-1.8c-0.2-0.5-0.3-1.1-0.5-1.6c-0.2-0.5-0.3-1.1-0.5-1.6C40,9.8,39.8,9,39.5,8.2c0-0.1,0-0.3-0.2-0.3
		c-0.2,0-0.2,0.2-0.3,0.3c-0.9,1.3-1.8,2.7-2.6,4c-1.3,1.9-2.5,3.9-3.7,5.8c-0.1,0.1-0.2,0.2-0.2,0.3c0.1,0.1,0.2,0,0.4,0
		C34.4,18.4,35.9,18.4,37.4,18.4z"/>
	<path class="st0" d="M93.1,1.2c1.1-0.1,2.1,0,3.1,0.2c1.1,0.3,2.1,0.6,3.1,1.2c2.1,1.2,3.7,2.9,4.8,5c0.1,0.2,0.1,0.3,0.2,0.5
		c0.1,0.1,0.1,0.2-0.1,0.3c-0.6,0.4-1.2,0.8-1.9,1.1c-0.3,0.2-0.4-0.1-0.4-0.3c-0.2-0.5-0.4-1-0.6-1.6c-0.8-1.6-1.8-3-3.4-3.8
		C96.9,3.5,96,3.3,95,3.3c-1.1,0-2.3,0-3.4,0.3c-1.6,0.4-3.2,1.1-4.6,2c-2.3,1.6-3.9,3.7-5,6.1c-0.5,1-0.8,2.1-1.1,3.3
		c-0.4,1.8-0.5,3.6-0.3,5.4c0.2,1.5,0.7,3,1.6,4.2c1.1,1.5,2.6,2.5,4.4,3c1.1,0.3,2.3,0.5,3.4,0.5c0.9,0,1.8-0.2,2.6-0.5
		c1.6-0.5,3-1.5,4.3-2.5c1.1-0.9,2-1.9,2.8-3.1c0.2-0.2,0.3-0.3,0.6-0.1c0.3,0.3,0.7,0.6,1.1,0.8c0.3,0.2,0.3,0.3,0.1,0.5
		c-1.8,2.2-3.8,4-6.4,5.2c-0.9,0.5-1.9,0.8-2.9,1.1c-0.7,0.2-1.4,0.4-2.2,0.4c-0.9,0.1-1.8,0.2-2.7,0.2c-1.2-0.1-2.3-0.2-3.5-0.5
		c-1.8-0.4-3.4-1.2-4.8-2.3c-1.6-1.2-2.7-2.8-3.4-4.7c-0.8-2-0.8-4-0.7-6.1c0.1-1.4,0.5-2.7,1-4c1.4-3.4,3.6-6.1,6.7-8.2
		c1.2-0.8,2.5-1.5,3.8-2c1-0.4,2.1-0.8,3.2-0.9C91,1.3,92.1,1.1,93.1,1.2z"/>
	<path class="st0" d="M66.6,1.2c0.6,0,1.1,0,1.5,0c1.2,0,2.4,0.4,3.5,0.8c2.1,0.8,3.7,2.2,5,3.9c0.5,0.7,0.9,1.4,1.2,2.1
		c0.1,0.2,0,0.3-0.1,0.4c-0.6,0.3-1.2,0.7-1.8,1.1c-0.3,0.2-0.4,0-0.5-0.3c-0.3-1-0.8-2-1.4-2.9c-0.8-1.3-1.9-2.2-3.3-2.7
		c-1.3-0.5-2.7-0.5-4-0.4c-2.7,0.3-5.1,1.3-7.1,3c-1.9,1.6-3.3,3.7-4.3,6c-0.4,1.1-0.7,2.2-0.9,3.4c-0.2,1.1-0.3,2.3-0.3,3.4
		c0.1,2.4,0.7,4.5,2.4,6.3c1,1,2.2,1.7,3.6,2.1c1.1,0.3,2.2,0.5,3.3,0.5c1.7,0,3.3-0.5,4.7-1.4c2-1.2,3.7-2.7,5.1-4.6
		c0.2-0.3,0.4-0.4,0.7-0.1c0.3,0.3,0.7,0.6,1.1,0.8c0.3,0.2,0.3,0.3,0.1,0.6c-0.9,1.1-1.8,2-2.8,2.9c-1.1,1-2.4,1.8-3.7,2.4
		c-1,0.5-2,0.8-3,1.1c-1.6,0.4-3.3,0.6-4.9,0.5c-1-0.1-2-0.2-3-0.5c-2.2-0.5-4.1-1.6-5.7-3.1c-1.2-1.2-2.1-2.6-2.6-4.2
		c-0.5-1.5-0.7-3.1-0.6-4.7c0-1.4,0.3-2.8,0.8-4.2c1.1-3.3,3.1-6,5.7-8.2c1.1-0.9,2.3-1.7,3.6-2.3c1.1-0.5,2.3-1,3.5-1.3
		C63.7,1.3,65.2,1.1,66.6,1.2z"/>
	<path class="st0" d="M112,16.3c0-4.8,0-9.5,0-14.3c0-0.2-0.1-0.4,0.1-0.4c0.2,0,0.1,0.3,0.1,0.4c0,9.6,0,19.1,0,28.7
		c0,0.2,0.1,0.4-0.1,0.4c-0.2,0-0.1-0.3-0.1-0.4C112,26,112,21.1,112,16.3z"/>
	<path class="st1" d="M179.6,12.9c0.2-0.2,0-0.6,0.4-0.5c0.3,0.1,0.1,0.4,0.1,0.6c-0.1,0.8-0.3,1.6-0.4,2.4
		c-0.2,1.2-1.3,1.9-2.4,1.7c-0.4-0.1-0.8-0.3-1-0.7c-0.1-0.1-0.2-0.3,0-0.4c0.1-0.1,0.3-0.1,0.5,0.1c0.5,0.6,0.9,0.7,1.5,0.5
		c0.6-0.2,1-0.8,1-1.5c-0.2,0-0.3,0.2-0.4,0.3c-0.7,0.5-1.7,0.4-2.2-0.2c-0.4-0.4-0.3-0.9-0.3-1.4c0.2-0.9,1-1.6,1.9-1.6
		C178.8,12.2,179.2,12.5,179.6,12.9z M177.9,15.4c0.9,0,1.6-0.7,1.6-1.6c0-0.7-0.5-1.1-1.1-1.1c-0.9,0-1.6,0.7-1.6,1.6
		C176.7,15,177.2,15.4,177.9,15.4z"/>
	<path class="st1" d="M121,15.7c-0.1,0-0.2,0-0.2,0c-0.9,0-0.9,0-0.7-0.8c0.2-1.1,0.4-2.3,0.6-3.4c0-0.3,0.2-0.4,0.4-0.3
		c0.3,0,0.7,0,1,0c0.4,0,0.8,0.1,1,0.6c0.2,0.4,0,1-0.4,1.3c-0.3,0.2-0.3,0.3,0,0.5c0.5,0.4,0.4,1.3-0.2,1.8
		C122.1,15.8,121.5,15.8,121,15.7z M121.4,13.5c-0.6,0-0.6,0-0.7,0.6c0,0.3-0.1,0.6-0.2,0.9c0,0.1-0.1,0.3,0.1,0.3
		c0.5,0,1,0.1,1.5-0.2c0.3-0.2,0.5-0.6,0.4-1c-0.1-0.5-0.4-0.6-0.8-0.6C121.7,13.5,121.5,13.5,121.4,13.5z M121.5,13.1
		c0,0,0.1,0,0.1,0c0.4,0,0.8-0.1,1-0.5c0.1-0.3,0.2-0.6-0.1-0.8c-0.2-0.2-1-0.3-1.3-0.2c-0.1,0-0.2,0.2-0.2,0.3
		c-0.1,0.3-0.1,0.7-0.2,1c-0.1,0.2,0,0.3,0.3,0.3C121.3,13.1,121.4,13.1,121.5,13.1z"/>
	<path class="st1" d="M154.7,19.4c0.4-0.3,0.8-0.5,1.3-0.5c0.3,0,0.6,0.1,0.7,0.4c0.1,0.2,0.2,0.2,0.3,0c0.3-0.4,0.8-0.5,1.3-0.5
		c0.5,0,0.8,0.4,0.8,0.8c0,0.8-0.2,1.6-0.3,2.5c0,0.2-0.2,0.1-0.3,0.1c-0.2,0-0.1-0.2-0.1-0.2c0.1-0.6,0.2-1.1,0.3-1.7
		c0.1-0.5,0-0.9-0.3-1c-0.4-0.2-0.9,0-1.2,0.4c-0.4,0.5-0.3,1.1-0.5,1.6c-0.1,0.2-0.1,0.4-0.1,0.7c0,0.2-0.1,0.3-0.3,0.3
		c-0.3,0-0.1-0.2-0.1-0.3c0.1-0.6,0.2-1.1,0.3-1.7c0.1-0.4,0-0.8-0.4-0.9c-0.4-0.2-0.9,0-1.2,0.4c-0.3,0.5-0.3,1-0.5,1.5
		c-0.1,0.3-0.1,0.5-0.2,0.8c0,0.2-0.1,0.3-0.3,0.2c-0.3,0-0.1-0.2-0.1-0.3c0.2-0.9,0.3-1.8,0.5-2.7c0-0.2,0-0.3,0.3-0.3
		C154.8,19,154.6,19.3,154.7,19.4z"/>
	<path class="st1" d="M126.8,21.9c0,0.1-0.1,0.3-0.1,0.4c0,0.2-0.2,0.1-0.3,0.1c-0.2,0-0.1-0.1-0.1-0.2c0.2-1.2,0.4-2.3,0.6-3.5
		c0-0.2,0.1-0.4,0.1-0.7c0-0.2,0.1-0.2,0.3-0.2c0.2,0,0.2,0.2,0.1,0.3c-0.1,0.5-0.2,1-0.2,1.5c0.5-0.3,0.9-0.6,1.4-0.6
		c1,0,1.7,0.7,1.5,1.7c-0.2,1.1-1.1,1.8-2.2,1.8C127.6,22.5,127.4,22.4,126.8,21.9z M126.9,21c0,0.7,0.4,1.2,1.1,1.2
		c0.8,0,1.6-0.8,1.6-1.6c0-0.7-0.5-1.1-1.1-1.2C127.7,19.3,126.9,20.1,126.9,21z"/>
	<path class="st1" d="M128.9,11.4c0,0.1,0,0.1,0,0.2c0,0.3-0.3,0.6,0,0.8c0.2,0.1,0.5,0.1,0.8,0.1c0.5,0,0.6-0.2,0.6-0.6
		c0-0.2,0-0.3,0.1-0.5c0-0.2,0.2-0.2,0.4-0.2c0.2,0,0.1,0.2,0.1,0.3c0,0.1,0,0.3-0.1,0.4c-0.1,0.4-0.2,0.7,0.4,0.6
		c0.1,0,0.2,0,0.2,0.2c0,0.1-0.1,0.2-0.2,0.2c-0.6-0.1-0.6,0.3-0.7,0.7c-0.1,0.7-0.2,1.3-0.3,2c0,0.2-0.2,0.3-0.3,0.2
		c-0.3,0-0.1-0.2-0.1-0.3c0.1-0.7,0.3-1.5,0.4-2.2c0.1-0.3,0.1-0.5-0.3-0.4c-0.2,0-0.4,0-0.5,0c-0.6-0.1-0.7,0.3-0.7,0.7
		c-0.1,0.6-0.2,1.3-0.3,2c0,0.2-0.1,0.3-0.3,0.3c-0.3,0-0.1-0.2-0.1-0.4c0.1-0.8,0.2-1.5,0.4-2.3c0-0.3,0-0.3-0.2-0.3
		c-0.1,0-0.3,0.1-0.3-0.2c0-0.2,0.2-0.2,0.3-0.2c0.3,0,0.4-0.1,0.4-0.4c0-0.2,0.1-0.4,0.1-0.6c0-0.2,0.1-0.2,0.3-0.2
		C129,11.1,129,11.3,128.9,11.4z"/>
	<path class="st1" d="M166.5,22c-0.5,0.5-1.2,0.7-1.9,0.5c-0.5-0.2-0.9-0.6-0.9-1.1c-0.1-1.4,1-2.5,2.2-2.3c0.4,0,0.8,0.3,1.1,0.6
		c0.2-0.5,0.2-1,0.3-1.5c0-0.2,0.1-0.3,0.3-0.3c0.3,0,0.1,0.2,0.1,0.3c-0.2,1.3-0.5,2.7-0.7,4c0,0.2-0.2,0.2-0.3,0.2
		c-0.3,0-0.1-0.2-0.1-0.3c0-0.1,0-0.1,0-0.2C166.5,21.9,166.5,21.9,166.5,22z M166.9,20.5c0-0.6-0.5-1.1-1.1-1.1
		c-0.8,0-1.6,0.7-1.7,1.6c0,0.7,0.4,1.1,1.1,1.1C166.1,22.1,166.8,21.4,166.9,20.5z"/>
	<path class="st1" d="M149.9,15.2c-0.4,0.3-0.7,0.6-1.2,0.6c-1.2,0.1-1.8-0.6-1.7-1.8c0.1-0.9,1-1.7,1.9-1.8c0.5,0,0.8,0.1,1.4,0.6
		c0,0,0-0.1,0.1-0.1c0.1-0.2,0-0.5,0.4-0.4c0.3,0.1,0.1,0.3,0.1,0.5c-0.1,0.8-0.3,1.7-0.5,2.5c0,0.2,0,0.4-0.3,0.3
		c-0.3,0-0.1-0.3-0.1-0.4C149.9,15.3,149.9,15.3,149.9,15.2z M147.5,14.3c0,0.7,0.4,1.1,1.1,1.1c0.8,0,1.6-0.7,1.6-1.6
		c0-0.7-0.5-1.1-1.2-1.1C148.2,12.7,147.5,13.4,147.5,14.3z"/>
	<path class="st1" d="M139.7,19.6c0.2-0.2,0-0.6,0.5-0.5c0.3,0.1,0.1,0.4,0.1,0.6c-0.1,0.8-0.3,1.6-0.4,2.4c0,0.2,0,0.3-0.3,0.3
		c-0.3,0-0.1-0.2-0.2-0.3c0,0,0-0.1,0-0.1c-0.2,0-0.3,0.2-0.4,0.2c-0.5,0.3-1,0.4-1.5,0.3c-0.8-0.2-1.2-1-1-1.9
		c0.3-1.1,1.2-1.7,2.3-1.6C139.2,19,139.4,19.3,139.7,19.6z M139.6,20.5c0-0.7-0.5-1.1-1.1-1.2c-0.9,0-1.6,0.8-1.6,1.6
		c0,0.7,0.4,1.1,1.1,1.1C138.8,22.1,139.6,21.4,139.6,20.5z"/>
	<path class="st1" d="M125.3,19.6c0.2-0.1,0.2-0.2,0.2-0.4c0-0.2,0.2-0.2,0.3-0.2c0.2,0,0.1,0.1,0.1,0.3c-0.2,0.9-0.3,1.8-0.5,2.7
		c0,0.2,0,0.4-0.3,0.3c-0.1,0-0.2,0-0.2-0.2c0-0.1,0.1-0.2,0-0.2c-0.1-0.1-0.2,0.1-0.2,0.1c-0.3,0.2-0.6,0.4-1,0.4
		c-1.2,0.1-1.9-0.9-1.5-2.1c0.3-1,1.3-1.6,2.3-1.4C124.8,19,125.1,19.3,125.3,19.6z M123.6,22.1c0.8,0,1.6-0.8,1.6-1.6
		c0-0.6-0.5-1.1-1.2-1.1c-0.8,0-1.6,0.8-1.6,1.7C122.4,21.7,122.9,22.1,123.6,22.1z M124.9,21.9C124.9,21.9,124.9,21.9,124.9,21.9
		C124.9,21.9,124.9,21.9,124.9,21.9C124.9,21.9,124.9,21.9,124.9,21.9C124.9,21.9,124.9,21.9,124.9,21.9z"/>
	<path class="st1" d="M162.9,21.5c-0.5,0.7-1.1,1.1-1.9,1c-1,0-1.6-0.9-1.3-1.8c0.3-1.3,1.6-2,2.7-1.6c0.6,0.2,0.9,0.8,0.9,1.3
		c0,0.3-0.1,0.5-0.5,0.5c-0.8,0-1.6,0-2.4,0c-0.3,0-0.3,0.1-0.3,0.3c0,0.6,0.6,1,1.2,1c0.4,0,0.8-0.2,1-0.5
		C162.5,21.4,162.7,21.4,162.9,21.5z M161.5,20.5c0.3,0,0.5,0,0.8,0c0.2,0,0.4,0.1,0.5-0.1c0.1-0.2,0-0.4-0.1-0.6
		c-0.2-0.4-0.7-0.6-1.2-0.5c-0.5,0.1-1.2,0.6-1.3,1c0,0.2,0.1,0.2,0.2,0.2C160.8,20.5,161.2,20.5,161.5,20.5z"/>
	<path class="st1" d="M126.8,14.8c-0.4,0.6-1,1-1.7,1c-1.1,0-1.7-0.6-1.6-1.7c0.1-1.3,1.6-2.2,2.8-1.7c0.6,0.3,0.9,0.9,0.8,1.5
		c0,0.3-0.2,0.2-0.4,0.2c-0.8,0-1.6,0-2.4,0c-0.4,0-0.4,0.2-0.3,0.4c0.1,0.6,0.9,1,1.6,0.7c0.3-0.1,0.5-0.2,0.7-0.4
		C126.4,14.8,126.6,14.7,126.8,14.8z M125.4,13.9L125.4,13.9c0.3,0,0.5,0,0.8,0c0.2,0,0.4,0.1,0.5-0.1c0.1-0.2,0-0.4-0.1-0.6
		c-0.1-0.2-0.2-0.3-0.4-0.4c-0.7-0.3-1.6,0.1-2,0.8c-0.1,0.3,0,0.3,0.2,0.3C124.7,13.8,125.1,13.9,125.4,13.9z"/>
	<path class="st1" d="M145,14.2c-0.4,0-0.8,0-1.2,0c-0.2,0-0.3,0.1-0.3,0.3c0,0.5,0.3,0.9,0.8,1c0.5,0.1,1-0.1,1.3-0.4
		c0.1-0.1,0.1-0.2,0.2-0.2c0.1-0.1,0.3-0.1,0.4,0c0.1,0.1-0.1,0.2-0.1,0.3c-0.5,0.5-1,0.8-1.7,0.8c-0.7,0-1.2-0.4-1.3-1
		c-0.2-0.7,0.1-1.4,0.6-1.9c0.5-0.5,1.2-0.8,1.9-0.6c0.7,0.2,1,0.8,1,1.4c0,0.3-0.1,0.4-0.4,0.4C145.8,14.2,145.4,14.2,145,14.2
		C145,14.2,145,14.2,145,14.2z M144.9,13.9L144.9,13.9c0.3,0,0.6,0,0.9,0c0.4,0,0.4-0.2,0.3-0.5c0-0.1-0.1-0.2-0.2-0.3
		c-0.3-0.4-0.7-0.5-1.2-0.4c-0.6,0.1-1,0.4-1.2,1c-0.1,0.2,0.1,0.2,0.2,0.2C144.2,13.9,144.5,13.9,144.9,13.9z"/>
	<path class="st1" d="M134.5,14.8c-0.4,0.6-0.9,1-1.6,1.1c-0.6,0.1-1.1-0.1-1.5-0.6c-0.5-0.7-0.2-1.9,0.6-2.5
		c0.6-0.4,1.2-0.6,1.9-0.3c0.6,0.3,0.9,1,0.8,1.6c-0.1,0.2-0.2,0.2-0.3,0.2c-0.8,0-1.6,0-2.4,0c-0.3,0-0.4,0.1-0.3,0.4
		c0.2,0.7,0.8,1,1.6,0.8c0.3-0.1,0.5-0.2,0.7-0.5C134.1,14.8,134.3,14.7,134.5,14.8z M133.1,13.9L133.1,13.9c0.3,0,0.6,0,0.9,0
		c0.5,0,0.5-0.1,0.3-0.5c-0.2-0.5-0.6-0.7-1.1-0.7c-0.6,0-1.3,0.5-1.4,1c0,0.2,0,0.2,0.2,0.2C132.4,13.9,132.8,13.9,133.1,13.9z"/>
	<path class="st1" d="M181.8,21.5c-0.4,0.8-1.3,1.2-2.1,1c-0.7-0.1-1.2-0.7-1.2-1.5c0-1.4,1.6-2.5,2.8-1.9c0.5,0.2,0.9,0.8,0.8,1.3
		c0,0.3-0.1,0.5-0.5,0.5c-0.8,0-1.6,0-2.3,0c-0.3,0-0.4,0.1-0.3,0.4c0.1,0.8,1.1,1.1,1.9,0.7c0.1-0.1,0.3-0.2,0.3-0.3
		C181.4,21.4,181.6,21.4,181.8,21.5z M180.4,20.5c0.3,0,0.5,0,0.8,0c0.5,0,0.6-0.2,0.4-0.7c-0.1-0.1-0.2-0.2-0.3-0.3
		c-0.7-0.5-1.9-0.1-2.1,0.7c-0.1,0.2,0,0.3,0.2,0.2C179.7,20.5,180.1,20.5,180.4,20.5z"/>
	<path class="st1" d="M140,12.8c0.5-0.3,0.8-0.5,1.3-0.5c0.8,0,1.2,0.4,1.2,1.2c0,0.7-0.2,1.4-0.3,2.1c0,0.2-0.2,0.2-0.3,0.2
		c-0.2,0-0.2-0.2-0.1-0.3c0.1-0.5,0.2-1,0.3-1.5c0.1-0.6,0-1-0.4-1.1c-0.5-0.2-1.1-0.1-1.5,0.3c-0.4,0.4-0.4,1-0.5,1.5
		c-0.1,0.3-0.1,0.6-0.2,1c0,0.2-0.2,0.2-0.3,0.2c-0.2,0-0.1-0.2-0.1-0.3c0.2-1.3,0.5-2.7,0.7-4c0-0.2,0.1-0.3,0.3-0.3
		c0.3,0,0.2,0.3,0.1,0.4C140.2,11.9,140.1,12.3,140,12.8z"/>
	<path class="st1" d="M181.5,12.7c0.2,0,0.3-0.2,0.5-0.3c0.5-0.2,1-0.3,1.5,0c0.5,0.3,0.5,0.8,0.4,1.3c-0.1,0.6-0.2,1.1-0.3,1.7
		c0,0.2-0.1,0.3-0.3,0.3c-0.3,0-0.2-0.2-0.1-0.4c0.1-0.5,0.2-1,0.3-1.5c0.1-0.4,0.1-0.8-0.4-1.1c-0.4-0.2-1-0.1-1.4,0.2
		c-0.2,0.2-0.4,0.5-0.4,0.8c-0.1,0.6-0.2,1.1-0.3,1.7c0,0.2-0.1,0.2-0.3,0.2c-0.2,0-0.2-0.2-0.1-0.3c0.2-1.4,0.5-2.7,0.7-4.1
		c0-0.2,0.2-0.3,0.3-0.2c0.2,0,0.1,0.2,0.1,0.3C181.6,11.9,181.5,12.3,181.5,12.7z"/>
	<path class="st1" d="M155.6,12.8c0.2-0.2,0.4-0.3,0.6-0.3c0.5-0.2,1-0.3,1.5,0.1c0.5,0.4,0.4,0.9,0.3,1.4c0,0.5-0.2,1-0.3,1.5
		c0,0.2-0.1,0.3-0.3,0.3c-0.3,0-0.2-0.2-0.1-0.3c0.1-0.5,0.2-0.9,0.3-1.4c0.1-0.7,0-1-0.5-1.2c-0.6-0.2-1.2,0-1.5,0.6
		c-0.3,0.6-0.3,1.2-0.4,1.8c0,0.2-0.1,0.3-0.1,0.5c0,0.2-0.2,0.1-0.3,0.2c-0.2,0-0.2-0.1-0.1-0.2c0.2-1.4,0.5-2.8,0.7-4.2
		c0-0.2,0.1-0.2,0.3-0.2c0.3,0,0.2,0.2,0.2,0.3C155.7,11.9,155.6,12.3,155.6,12.8z"/>
	<path class="st1" d="M163.3,12.8c0.5-0.3,0.9-0.5,1.3-0.5c0.8,0,1.2,0.4,1.1,1.2c-0.1,0.7-0.2,1.4-0.3,2.1c0,0.2-0.2,0.2-0.3,0.2
		c-0.2,0-0.1-0.2-0.1-0.3c0.1-0.5,0.2-1,0.3-1.5c0.1-0.7,0-1-0.4-1.2c-0.6-0.2-1.2,0-1.5,0.5c-0.2,0.3-0.2,0.8-0.3,1.1
		c-0.1,0.3-0.1,0.6-0.2,0.9c0,0.2,0,0.5-0.3,0.4c-0.3-0.1-0.2-0.3-0.1-0.5c0.2-1.2,0.4-2.3,0.6-3.5c0-0.2,0-0.3,0.1-0.5
		c0-0.2,0.2-0.2,0.3-0.2c0.2,0,0.1,0.2,0.1,0.3C163.5,11.8,163.4,12.2,163.3,12.8z"/>
	<path class="st1" d="M171.8,13.8c0,1.3-1.4,2.4-2.6,2c-0.6-0.2-0.9-0.6-1-1.2c-0.2-1.3,1.2-2.5,2.4-2.2
		C171.4,12.5,171.8,13,171.8,13.8z M169.7,15.4c0.9,0,1.6-0.7,1.6-1.6c0-0.7-0.4-1.1-1.1-1.1c-0.8,0-1.6,0.7-1.6,1.6
		C168.6,15,169,15.4,169.7,15.4z"/>
	<path class="st1" d="M132.7,19c0.9-0.1,1.7,0.6,1.5,1.8c-0.2,1-1,1.7-2,1.8c-1.1,0.1-1.8-0.8-1.6-1.9C130.8,19.7,131.7,19,132.7,19
		z M132.2,22.1c0.8,0,1.6-0.8,1.6-1.6c0-0.6-0.6-1.1-1.2-1.1c-0.8,0-1.6,0.8-1.6,1.7C131,21.7,131.5,22.1,132.2,22.1z"/>
	<path class="st1" d="M146.1,20.4c0,1.1-1,2.1-2.2,2.1c-1,0-1.6-0.8-1.4-1.8c0.3-1.2,1.3-1.9,2.4-1.7
		C145.6,19.1,146.1,19.7,146.1,20.4z M142.9,21c0,0.6,0.5,1.1,1.1,1.1c0.8,0,1.6-0.8,1.6-1.6c0-0.6-0.5-1.1-1.2-1.1
		C143.7,19.4,142.9,20.2,142.9,21z"/>
	<path class="st1" d="M172.4,14.5c0.1-0.6,0.2-1.2,0.3-1.9c0-0.2,0.2-0.2,0.3-0.2c0.2,0,0.1,0.2,0.1,0.3c-0.1,0.5-0.2,1-0.3,1.5
		c-0.1,0.7,0,1.1,0.5,1.3c0.6,0.2,1.3-0.1,1.5-0.7c0.2-0.6,0.3-1.2,0.4-1.8c0-0.1,0.1-0.2,0.1-0.4c0-0.2,0.2-0.2,0.3-0.2
		c0.2,0,0.2,0.1,0.1,0.2c-0.2,1-0.3,1.9-0.5,2.9c0,0.1-0.1,0.2-0.2,0.2c-0.1,0-0.2,0-0.2-0.2c0-0.3-0.2-0.1-0.3,0
		c-0.4,0.3-0.9,0.4-1.4,0.3C172.6,15.7,172.4,15.3,172.4,14.5z"/>
	<path class="st1" d="M175.5,19.5c0.5-0.4,1-0.6,1.6-0.5c0.5,0,0.9,0.4,0.9,0.9c0.1,0.8-0.2,1.6-0.3,2.4c0,0.2-0.2,0.1-0.3,0.1
		c-0.2,0-0.1-0.2-0.1-0.3c0.1-0.5,0.2-1,0.3-1.5c0.1-0.8-0.1-1.1-0.6-1.2c-0.6-0.1-1.2,0.2-1.5,0.8c-0.1,0.3-0.2,0.7-0.2,1
		c-0.1,0.4-0.2,0.7-0.2,1.1c0,0.3-0.2,0.2-0.3,0.2c-0.2,0-0.1-0.2-0.1-0.3c0.2-0.9,0.3-1.8,0.5-2.7c0-0.1,0-0.3,0.2-0.3
		C175.5,19,175.7,19.1,175.5,19.5z"/>
	<path class="st1" d="M172.7,21.3c-0.4,0.7-1,1.1-1.8,1.2c-1,0.1-1.7-0.6-1.6-1.6c0.1-1.3,1.6-2.3,2.7-1.8c0.4,0.2,0.6,0.4,0.8,0.8
		c0,0.1,0.2,0.3,0,0.3c-0.1,0-0.3,0-0.4-0.1c-0.4-0.6-0.8-0.8-1.4-0.7c-0.7,0.2-1.2,0.8-1.3,1.5c0,0.5,0.2,0.9,0.6,1.1
		c0.5,0.2,1.2,0.1,1.6-0.3C172.2,21.5,172.3,21.1,172.7,21.3z"/>
	<path class="st1" d="M151.9,19.1c-0.5,0.8-0.9,1.5-1.4,2.3c-0.4,0.7-0.8,1.3-1.2,2c-0.2,0.3-0.3,0.4-0.6,0.2c0,0,0,0,0,0
		c0.8-0.8,0.7-1.8,0.4-2.8c-0.1-0.5-0.2-0.9-0.3-1.4c0-0.1-0.2-0.3,0.1-0.3c0.2,0,0.3,0,0.3,0.2c0.1,0.7,0.3,1.3,0.4,2
		c0,0.1,0,0.3,0.1,0.3c0.2,0,0.2-0.2,0.3-0.3c0.4-0.7,0.8-1.3,1.1-2C151.4,19.1,151.6,19,151.9,19.1z"/>
	<path class="st1" d="M161.9,11.3c0,0.2,0,0.3,0,0.4c-0.1,0.6-0.1,0.6,0.4,0.6c0.1,0,0.2,0,0.2,0.2c0,0.1-0.1,0.3-0.2,0.2
		c-0.6-0.1-0.6,0.3-0.7,0.7c-0.1,0.7-0.2,1.3-0.3,2c0,0.2-0.1,0.3-0.3,0.3c-0.3,0-0.1-0.2-0.1-0.4c0.1-0.8,0.2-1.5,0.4-2.3
		c0-0.3,0-0.4-0.3-0.3c-0.1,0-0.3,0.1-0.3-0.1c0-0.2,0.2-0.3,0.3-0.2c0.3,0,0.4-0.1,0.4-0.4c0-0.2,0.1-0.5,0.1-0.7
		c0-0.2,0.2-0.2,0.3-0.2C161.9,11.1,161.9,11.2,161.9,11.3z"/>
	<path class="st1" d="M153.4,12.8c-0.2-0.2-0.6,0.1-0.6-0.2c0-0.4,0.3-0.2,0.5-0.2c0.2,0,0.2-0.1,0.2-0.2c0-0.3,0.1-0.5,0.1-0.8
		c0-0.2,0.2-0.2,0.3-0.2c0.2,0,0.1,0.2,0.1,0.3c0,0.2,0,0.4-0.1,0.6c-0.1,0.3,0,0.4,0.3,0.4c0.1,0,0.3-0.1,0.3,0.1
		c0,0.2-0.2,0.3-0.3,0.2c-0.4-0.1-0.5,0.1-0.5,0.4c-0.1,0.8-0.3,1.5-0.4,2.3c0,0.2-0.1,0.3-0.3,0.2c-0.3,0-0.1-0.2-0.1-0.3
		C153.1,14.6,153.2,13.7,153.4,12.8z"/>
	<path class="st1" d="M140.9,22.1c0.1-0.6,0.2-1.4,0.4-2.1c0.1-0.3,0.2-0.6-0.3-0.5c-0.1,0-0.2,0-0.2-0.2c0-0.1,0.1-0.2,0.2-0.2
		c0.6,0.1,0.6-0.3,0.6-0.7c0-0.1,0.1-0.3,0.1-0.4c0-0.2,0.2-0.1,0.3-0.1c0.2,0,0.1,0.1,0.1,0.2c0,0.1,0,0.3-0.1,0.4
		c-0.1,0.4-0.2,0.8,0.5,0.7c0.1,0,0.2,0.1,0.1,0.2c0,0.1,0,0.2-0.1,0.2c-0.1,0-0.2,0-0.3,0c-0.3-0.1-0.4,0.1-0.5,0.4
		c-0.1,0.8-0.3,1.6-0.4,2.4c0,0.2-0.2,0.2-0.3,0.2C140.9,22.4,140.9,22.3,140.9,22.1z"/>
	<path class="st1" d="M152.5,11.4c-0.2,1.2-0.4,2.3-0.6,3.5c0,0.2-0.1,0.4-0.1,0.7c0,0.2-0.2,0.2-0.3,0.2c-0.2,0-0.2-0.2-0.1-0.3
		c0.2-1.4,0.5-2.7,0.7-4.1c0-0.2,0.1-0.3,0.3-0.3C152.5,11.1,152.5,11.2,152.5,11.4z"/>
	<path class="st1" d="M120.6,22.2c0.2-1,0.4-2.1,0.5-3.1c0.1-0.3,0.1-0.6,0.2-1c0-0.2,0.1-0.4,0.3-0.3c0.3,0.1,0.1,0.3,0.1,0.4
		c-0.2,1.3-0.4,2.6-0.7,3.8c0,0.1-0.1,0.2-0.1,0.2c0,0.2-0.2,0.2-0.3,0.2C120.5,22.4,120.6,22.2,120.6,22.2z"/>
	<path class="st1" d="M166.6,15.7c-0.2,0-0.2-0.1-0.2-0.2c0.2-1,0.4-1.9,0.5-2.9c0-0.2,0.1-0.2,0.2-0.2c0.1,0,0.2,0,0.2,0.2
		c0,0.2,0.1,0.1,0.2,0.1c0.2-0.1,0.3-0.2,0.5-0.3c0.1,0,0.3-0.2,0.4,0c0.1,0.2-0.1,0.4-0.3,0.4c-0.5,0.1-0.8,0.4-0.9,0.8
		c-0.1,0.3-0.1,0.6-0.2,0.9c-0.1,0.3-0.1,0.7-0.2,1C166.8,15.7,166.7,15.8,166.6,15.7z"/>
	<path class="st1" d="M135.2,15.4c0.2-0.9,0.3-1.9,0.5-2.9c0-0.2,0.1-0.2,0.2-0.2c0.1,0,0.2,0,0.2,0.2c0,0.2,0.1,0.2,0.2,0.1
		c0.2-0.1,0.4-0.3,0.6-0.3c0.1,0,0.2-0.1,0.3,0.1c0,0.1,0,0.3-0.2,0.3c-1.1,0.2-1.1,1-1.3,1.8c-0.1,0.3-0.1,0.7-0.2,1
		c0,0.2-0.2,0.2-0.3,0.2C135.2,15.8,135.2,15.6,135.2,15.4z"/>
	<path class="st1" d="M135.6,19.5c0.3-0.3,0.6-0.5,1.1-0.5c0,0.2,0,0.4-0.3,0.4c-0.6,0.1-0.9,0.5-1,1.1c-0.1,0.5-0.2,1.1-0.3,1.6
		c0,0.2-0.1,0.3-0.3,0.3c-0.3,0-0.1-0.2-0.1-0.3c0.1-0.9,0.3-1.8,0.5-2.7c0-0.1,0-0.3,0.3-0.4C135.6,19,135.5,19.3,135.6,19.5z"/>
	<path class="st1" d="M146.5,22.4c0.2-1,0.4-2,0.5-3c0-0.1,0-0.3,0.2-0.3c0.2,0,0.3,0,0.3,0.2c0,0.2,0.1,0.1,0.2,0
		c0.2-0.2,0.4-0.3,0.6-0.3c0.1,0,0.2-0.1,0.2,0.1c0,0.1,0,0.3-0.1,0.3c-1.1,0.1-1.1,1-1.3,1.8c-0.1,0.3-0.1,0.6-0.2,0.9
		C147,22.4,146.8,22.4,146.5,22.4z"/>
	<path class="st1" d="M174.2,19.2c-0.2,1-0.3,2-0.5,2.9c0,0.2-0.2,0.3-0.4,0.2c-0.2,0-0.1-0.2-0.1-0.3c0.2-0.9,0.3-1.8,0.5-2.7
		c0-0.1,0-0.2,0.1-0.2c0-0.2,0.2-0.1,0.3-0.1C174.3,19.1,174.2,19.2,174.2,19.2z"/>
	<path class="st1" d="M168.9,19.2c-0.2,1-0.4,2-0.5,3c0,0.2-0.2,0.2-0.4,0.2c-0.2,0-0.1-0.2,0-0.3c0.2-1,0.3-1.9,0.5-2.9
		c0-0.2,0.1-0.2,0.3-0.2C168.9,19.1,168.9,19.1,168.9,19.2z"/>
	<path class="st1" d="M183,22.4c-0.1,0-0.3,0.1-0.3-0.1c0-0.2-0.1-0.5,0.3-0.5c0.1,0,0.3,0,0.2,0.2C183.2,22.1,183.3,22.4,183,22.4z
		"/>
	<path class="st1" d="M173.9,18.4c0.2-0.2-0.1-0.6,0.4-0.6c0.2,0,0.2,0.1,0.2,0.3C174.4,18.4,174.2,18.5,173.9,18.4z"/>
	<path class="st1" d="M168.6,18.2c0-0.2,0-0.4,0.3-0.4c0.2,0,0.3,0,0.2,0.2c0,0.2,0,0.4-0.3,0.4C168.6,18.4,168.6,18.3,168.6,18.2z"
		/>
</g>
</svg>
