<?xml version="1.0" encoding="utf-8"?>
<!-- Generator: Adobe Illustrator 21.0.0, SVG Export Plug-In . SVG Version: 6.00 Build 0)  -->
<svg version="1.1" id="Layer_1" xmlns="http://www.w3.org/2000/svg" xmlns:xlink="http://www.w3.org/1999/xlink" x="0px" y="0px"
	 viewBox="0 0 82 32" style="enable-background:new 0 0 82 32;" xml:space="preserve">
<style type="text/css">
	.st0{fill:#0B7F65;}
	.st1{fill:#FAC82F;}
	.st2{fill:#108168;}
	.st3{fill:#12836A;}
	.st4{fill:#16846C;}
	.st5{fill:#0B7E64;}
	.st6{fill:#32B14B;}
	.st7{fill:#0C7F63;}
	.st8{fill:#8FC63F;}
	.st9{fill:#D5DF45;}
	.st10{fill:#778321;}
	.st11{display:none;fill:#32B14B;}
	.st12{fill:#C53322;}
</style>
<g>
	<path class="st0" d="M24.5,19.6c0.4-1,0.8-1.9,1.2-2.8c1.5-3.5,3-7,4.5-10.5c0.8-1.8,1.6-3.6,2.3-5.4c0.1-0.2,0.2-0.3,0.4-0.3
		c0.8,0,1.6,0,2.4,0c0.2,0,0.3,0.1,0.4,0.3c1.9,4.5,3.9,9,5.8,13.5c0.7,1.6,1.4,3.2,2.1,4.9c0.1,0.3,0.1,0.3-0.2,0.3
		c-1.1,0-2.2,0-3.2,0c-0.2,0-0.3-0.1-0.3-0.2c-0.5-1.3-1-2.5-1.5-3.8c-0.1-0.3-0.2-0.3-0.5-0.3c-2.5,0-5,0-7.5,0
		c-0.2,0-0.4,0.1-0.5,0.3c-0.5,1.3-1,2.5-1.5,3.8c0,0.1-0.1,0.3-0.3,0.3C26.9,19.6,25.8,19.6,24.5,19.6z M34.2,4.8
		C34.1,4.8,34.1,4.8,34.2,4.8c-0.3,0.6-0.5,1.2-0.8,1.8c-0.7,1.8-1.4,3.7-2.1,5.5c-0.1,0.3,0,0.3,0.2,0.3c1.7,0,3.5,0,5.2,0
		c0.3,0,0.3-0.1,0.2-0.3c-0.6-1.6-1.2-3.2-1.8-4.8C34.8,6.4,34.5,5.6,34.2,4.8z"/>
	<path class="st0" d="M61.8,10.1c0-3,0-6,0-9c0-0.6,0-0.5,0.4-0.5c2.3,0,4.6,0,6.9,0c1.3,0,2.6,0.3,3.7,1C74,2.4,74.7,3.3,75,4.6
		c0.3,1.2,0.3,2.4-0.1,3.6c-0.4,1.5-1.5,2.5-2.9,3c-1,0.4-2,0.5-3.1,0.6c-1.1,0.1-2.3,0-3.4,0c-0.2,0-0.3,0.1-0.3,0.3
		c0,2.4,0,4.8,0,7.2c0,0.2-0.1,0.3-0.3,0.3c-0.9,0-1.8,0-2.8,0c-0.3,0-0.3-0.1-0.3-0.3C61.9,16.2,61.9,13.2,61.8,10.1
		C61.9,10.1,61.9,10.1,61.8,10.1z M65.2,6.2c0,0.8,0,1.5,0,2.3c0,0.3,0.1,0.4,0.3,0.4c0.8,0,1.6,0,2.4,0c0.7,0,1.5-0.1,2.2-0.3
		c1.9-0.6,2-3.2,0.8-4.2c-0.7-0.5-1.5-0.7-2.3-0.8c-1,0-2,0-3.1,0c-0.2,0-0.3,0.1-0.3,0.3C65.2,4.6,65.2,5.4,65.2,6.2z"/>
	<path class="st0" d="M59.8,3.2C59,3.8,58.1,4.4,57.3,5c-0.1,0.1-0.2,0-0.3,0c-0.6-0.5-1.2-1-1.9-1.3c-0.9-0.4-1.8-0.5-2.8-0.3
		c-2,0.3-3.6,1.2-4.7,3c-0.8,1.2-1.1,2.6-1,4.1c0,1.5,0.4,2.9,1.3,4.1c1.1,1.5,2.6,2.4,4.5,2.6c2,0.2,3.5-0.5,4.7-2
		c0.2-0.2,0.3-0.2,0.5-0.1c0.8,0.6,1.5,1.1,2.3,1.6c0.2,0.1,0.2,0.2,0,0.4c-1.1,1.4-2.6,2.4-4.4,2.8c-2.4,0.6-4.8,0.4-7.1-0.6
		c-2.9-1.3-4.6-3.6-5.2-6.7c-0.4-2-0.3-4,0.4-6c1-2.9,3.1-4.8,6-5.8c1.4-0.5,2.9-0.6,4.4-0.5c1.6,0.2,3.1,0.7,4.4,1.8
		C59,2.4,59.4,2.7,59.8,3.2z"/>
	<path class="st1" d="M14.6,0.6c2.3,0,4.6,0,6.9,0C23,0.6,24,1.7,24,3.1c0,4.6,0,9.2,0,13.9c0,1.6-1,2.5-2.5,2.5c-2.9,0-5.8,0-8.7,0
		c-1.7,0-3.5,0-5.2,0c-1,0-1.7-0.4-2.2-1.2c-0.2-0.4-0.3-0.7-0.3-1.1c0-4.6,0-9.2,0-13.8c0-0.5,0-0.9,0.2-1.4c0.4-0.8,1-1.3,2-1.3
		C9.7,0.6,12.1,0.6,14.6,0.6C14.6,0.6,14.6,0.6,14.6,0.6z M5.6,10.4L5.6,10.4c0.1,0.1,0.1,0.1,0.2,0c0.1,0,0.2,0,0.3,0
		c0,0,0,0,0.1,0c3.3,0,6.5,0.1,9.8-0.1c0.5,0,0.9-0.3,1.2-0.8c0.2-0.2,0.3-0.4,0.4-0.7c0.5,0,1-0.1,1.4,0.1
		c-0.1,0.3-0.2,0.5-0.3,0.8c-0.1,0.1-0.1,0.2-0.2,0.3c-0.5,0.7-1,1.5-1.7,2c-0.4,0.3-0.8,0.5-1.2,0.7c-0.1,0-0.1,0-0.2,0
		c-1,0.4-2.1,0.7-3.1,1c-1.1,0.4-2.3,0.7-3.4,1.1c-1.1,0.5-1.4,1.2-1.3,2.3c0.1,0.4,0.2,0.8,0.6,1.1C8.6,18.7,9.2,19,9.8,19
		c0,0,0,0,0,0c0.1,0.1,0.2,0.1,0.3,0.1c3.9,0,7.9,0,11.8,0c0.1,0,0.2,0,0.3-0.1c1-0.3,1.4-1,1.5-1.8c0-2.2,0-4.4,0-6.7
		c0,0,0-0.1,0-0.1c0-2.5,0-5,0-7.5c0-1.3-0.8-2-2.1-2c-1.6,0-3.2,0-4.8,0c-1.1,0-2.3,0-3.4,0c-0.1,0-0.2,0-0.3,0c-2,0-3.9,0-5.9,0
		C7.1,1,7.1,1,7,1.1C6.9,1.1,6.7,1.1,6.6,1.2c-0.8,0.4-1.1,1-1.1,1.9c0,1.3,0,2.5,0,3.7c0,0.3,0.1,0.3,0.3,0.2C6,7,6,6.8,5.9,6.7
		C5.8,6.3,6,6,6.3,5.8c0.2-0.2,0.7-0.2,0.9,0C7.5,6,7.6,6.3,7.5,6.7C7.4,6.9,7.5,7,7.7,7c0.6,0.2,1.1,0.5,1.5,1
		c0.2,0.2,0.4,0.4,0.7,0.4c0.4,0,0.9,0.6,0.9,1c0,0.1,0,0.2-0.2,0.3c0,0,0,0,0,0c-1.6,0-3.2,0-4.8,0c-0.1,0-0.1,0-0.2,0.1
		c0,0,0,0,0,0.1c0,0.1,0,0.2,0,0.3l0,0l0,0C5.5,10.2,5.5,10.3,5.6,10.4C5.5,10.3,5.5,10.4,5.6,10.4C5.5,10.4,5.5,10.4,5.6,10.4z"/>
	<path class="st2" d="M41.3,25.7c-0.7,0.5-1.5,0.2-1.8-0.2c-0.4-0.6-0.3-1.4,0.3-1.8c0.4-0.3,0.9-0.3,1.3,0c0.1,0.1,0.2,0.3,0.3,0
		c0-0.1,0.3,0,0.5-0.1c0.1,0,0.1,0.1,0.1,0.2c0,0.7,0,1.5,0,2.2c0,1.1-0.9,1.4-1.7,1.3c-0.2,0-0.4-0.1-0.5-0.1
		c-0.4-0.2-0.4-0.3-0.1-0.6c0.1-0.1,0.2-0.1,0.3,0c0.1,0.1,0.3,0.2,0.5,0.2C40.9,26.7,41.4,26.5,41.3,25.7z M40.7,24
		c-0.4,0-0.7,0.3-0.7,0.7c0,0.4,0.4,0.7,0.8,0.7c0.4,0,0.7-0.3,0.7-0.7C41.4,24.3,41.1,24,40.7,24z"/>
	<path class="st2" d="M9.6,23.8c0.5-0.4,1-0.4,1.4,0c0.1,0.1,0.1,0,0.2,0c0.3-0.3,0.6-0.3,0.9-0.3c0.4,0.1,0.6,0.4,0.7,0.9
		c0,0.5,0,1,0,1.4c0,0.3-0.2,0.1-0.4,0.2c-0.1,0-0.3,0-0.3-0.2c0-0.4,0-0.8,0-1.2c0-0.4-0.1-0.6-0.4-0.6c-0.3,0-0.5,0.2-0.5,0.5
		c0,0.4,0,0.8,0,1.2c0,0.3-0.2,0.2-0.4,0.2c-0.2,0-0.3-0.1-0.2-0.2c0-0.4,0-0.8,0-1.2c0-0.3-0.1-0.5-0.4-0.5c-0.3,0-0.5,0.2-0.6,0.5
		c0,0.4,0,0.8,0,1.2c0,0.3-0.1,0.3-0.3,0.3C9.1,26,9,26,9,25.7c0-0.6,0-1.2,0-1.9c0-0.1-0.1-0.3,0.1-0.3C9.3,23.5,9.6,23.4,9.6,23.8
		z"/>
	<path class="st2" d="M5.1,25.9c0.2-0.6,0.5-1.1,0.7-1.7c0.3-0.6,0.5-1.1,0.7-1.7c0.1-0.2,0.3-0.2,0.4-0.2c0.2,0,0.3,0.1,0.3,0.2
		c0.4,1.1,0.9,2.1,1.4,3.2C8.8,25.9,8.7,26,8.5,26c-0.4,0-0.6-0.1-0.7-0.5c-0.1-0.3-0.2-0.4-0.6-0.4c-0.3,0-0.6,0-0.9,0
		c-0.2,0-0.3,0.1-0.4,0.3C5.8,26,5.8,26,5.1,25.9z M6.9,24.6c0.1,0,0.2,0,0.3,0c0.3,0,0.3-0.1,0.2-0.3C7.2,24,7.1,23.7,7,23.5
		c0-0.1,0-0.2-0.1-0.2c-0.1,0-0.1,0.1-0.1,0.2c-0.1,0.2-0.2,0.4-0.2,0.6C6.3,24.6,6.3,24.6,6.9,24.6z"/>
	<path class="st3" d="M52.5,24.1c0-0.5,0-1.1,0-1.6c0-0.1,0-0.2,0.1-0.2c0.6,0,1.1-0.1,1.7,0.1c0.6,0.2,0.8,0.5,0.8,1.2
		c-0.1,0.5-0.4,0.8-1,0.8c-0.2,0-0.5,0-0.7,0c-0.2,0-0.2,0.1-0.2,0.2c0,0.3,0,0.7,0,1c0,0.3-0.2,0.2-0.3,0.2c-0.2,0-0.3,0.1-0.3-0.2
		C52.5,25.2,52.5,24.7,52.5,24.1z M53.2,23.4c0,0.1,0,0.2,0,0.3c0,0.1,0,0.2,0.1,0.2c0.3,0,0.6,0.1,0.8-0.1c0.3-0.1,0.4-0.5,0.1-0.8
		c-0.2-0.2-0.4-0.1-0.6-0.1C53.2,22.9,53.2,22.9,53.2,23.4z"/>
	<path class="st2" d="M27.8,24.3c0-1.9,1.7-2.4,2.7-1.9c0,0,0.1,0,0.1,0.1c0.1,0.1,0.3,0.2,0.3,0.3c0,0.2-0.2,0.2-0.4,0.3
		c-0.1,0.1-0.1,0-0.2-0.1c-0.5-0.5-1.6-0.2-1.9,0.7c-0.2,0.9,0.4,1.7,1.3,1.7c0.2,0,0.4-0.1,0.6-0.3c0.3-0.3,0.4,0.1,0.6,0.2
		c0.2,0.1,0,0.2-0.1,0.3c-0.6,0.5-1.3,0.5-2,0.2C28.1,25.6,27.8,25,27.8,24.3z"/>
	<path class="st2" d="M56,23.7c0.2-0.1,0.3-0.3,0.5-0.3c0.6-0.1,1.1,0.3,1.1,0.9c0,0.5,0,0.9,0,1.4c0,0.3-0.2,0.2-0.4,0.2
		c-0.2,0-0.3,0-0.3-0.2c0-0.4,0-0.7,0-1.1c0-0.4-0.2-0.6-0.5-0.6c-0.3,0-0.5,0.2-0.5,0.6c0,0.4,0,0.7,0,1.1c0,0.3-0.2,0.2-0.3,0.2
		c-0.2,0-0.3,0.1-0.3-0.2c0-1.1,0-2.3,0-3.4c0-0.3,0.2-0.2,0.3-0.2c0.2,0,0.3,0,0.3,0.2C56,22.8,56,23.2,56,23.7z"/>
	<path class="st3" d="M57.8,23.5C57.9,23.5,57.9,23.5,57.8,23.5c0.6,0,0.6,0,0.8,0.5c0.1,0.4,0.3,0.7,0.5,1.2
		c0.2-0.4,0.3-0.8,0.4-1.1c0.2-0.6,0.2-0.6,0.8-0.5c-0.3,0.7-0.6,1.5-0.8,2.2c-0.1,0.3-0.2,0.6-0.4,0.9c-0.2,0.5-0.7,0.7-1.2,0.6
		c-0.3-0.1-0.1-0.3-0.1-0.4c0-0.2,0.1-0.2,0.2-0.2c0.4,0.1,0.8-0.4,0.6-0.8c-0.3-0.7-0.6-1.3-0.8-2C57.9,23.7,57.8,23.6,57.8,23.5z"
		/>
	<path class="st3" d="M43.9,25c-0.2,0-0.5,0-0.7,0C43,25,43,25.1,43,25.2c0.2,0.4,0.7,0.4,1.1,0.1c0.2-0.1,0.5,0,0.6,0.2
		c0,0.1,0,0.1-0.1,0.1c-0.3,0.3-0.9,0.5-1.5,0.3c-0.5-0.2-0.8-0.6-0.8-1.2c0-0.5,0.3-1,0.7-1.2c0.9-0.4,1.8,0.2,1.8,1.2
		c0,0.2,0,0.2-0.2,0.2C44.4,25,44.2,25,43.9,25L43.9,25z M43.6,24.5L43.6,24.5c0.1,0,0.3,0,0.4,0c0.2,0,0.2-0.1,0.1-0.2
		c-0.1-0.2-0.2-0.3-0.5-0.3c-0.2,0-0.5,0-0.6,0.2c0,0.1-0.1,0.1-0.1,0.2c0,0.1,0.1,0.1,0.2,0.1C43.3,24.5,43.5,24.5,43.6,24.5z"/>
	<path class="st3" d="M15.5,25.6c-0.3,0.6-1.3,0.6-1.9,0.2c-0.5-0.4-0.7-1.1-0.3-1.7c0.3-0.6,1.1-0.8,1.7-0.5
		c0.4,0.2,0.7,0.8,0.7,1.3c0,0.1-0.1,0.1-0.2,0.1c-0.5,0-0.9,0-1.4,0c-0.1,0-0.2,0-0.2,0.1c0,0.1,0,0.2,0.1,0.3
		c0.2,0.2,0.6,0.3,0.9,0.1c0.1-0.1,0.2-0.2,0.3-0.2C15.3,25.3,15.4,25.4,15.5,25.6z M14.4,24.5L14.4,24.5c0.1,0,0.3,0,0.4,0
		c0.2,0,0.2-0.1,0.1-0.3c-0.2-0.4-0.8-0.4-1.1,0c0,0.1-0.1,0.2-0.1,0.3c0,0.1,0.2,0,0.2,0C14.2,24.5,14.3,24.5,14.4,24.5z"/>
	<path class="st3" d="M38.1,25c-0.2,0-0.5,0-0.7,0c-0.2,0-0.2,0.1-0.1,0.2c0.1,0.4,0.7,0.5,1,0.2c0.3-0.2,0.4,0,0.6,0.1
		c0.2,0.2-0.1,0.2-0.1,0.3c-0.4,0.3-1.1,0.3-1.5,0.1c-0.5-0.3-0.7-0.8-0.6-1.4c0.1-0.5,0.4-0.9,0.9-1c0.5-0.1,0.9-0.1,1.2,0.3
		c0.3,0.3,0.3,0.6,0.3,1c0,0.1-0.1,0.1-0.2,0.1C38.6,25,38.4,25,38.1,25L38.1,25z M37.8,24.5c0.1,0,0.3,0,0.4,0
		c0.3,0,0.3-0.1,0.2-0.3c-0.1-0.2-0.3-0.3-0.5-0.3c-0.2,0-0.4,0.1-0.5,0.3c-0.1,0.2-0.2,0.3,0.2,0.3C37.6,24.5,37.7,24.5,37.8,24.5z
		"/>
	<path class="st2" d="M32.5,23.4c0.8,0,1.3,0.6,1.3,1.3c0,0.8-0.6,1.3-1.4,1.3c-0.8,0-1.3-0.6-1.3-1.3C31.2,24,31.7,23.4,32.5,23.4z
		 M32.5,25.5c0.4,0,0.7-0.3,0.7-0.7c0-0.4-0.3-0.8-0.7-0.8c-0.4,0-0.7,0.3-0.7,0.7C31.8,25.1,32.1,25.5,32.5,25.5z"/>
	<path class="st2" d="M47.7,23.4c0.8,0,1.4,0.5,1.4,1.3c0,0.8-0.6,1.3-1.3,1.3c-0.8,0-1.3-0.5-1.4-1.3C46.4,24,47,23.4,47.7,23.4z
		 M47.7,25.5c0.4,0,0.7-0.3,0.7-0.7c0-0.4-0.3-0.7-0.7-0.7c-0.4,0-0.7,0.3-0.7,0.7C47,25.2,47.3,25.5,47.7,25.5z"/>
	<path class="st3" d="M35,29.1c-0.2,0.6-0.5,1.2-0.7,1.8c0,0.1,0,0.2-0.2,0.2c-0.2,0-0.2-0.1-0.2-0.2c-0.2-0.5-0.4-1-0.6-1.5
		c0-0.1,0-0.2-0.2-0.2c0,0.6,0,1.1,0,1.7c0,0.1,0,0.3-0.2,0.3c-0.2,0-0.2-0.2-0.2-0.3c0-0.7,0-1.4,0-2.1c0-0.1-0.1-0.3,0.1-0.3
		c0.2,0,0.4-0.1,0.5,0.2c0.2,0.6,0.5,1.2,0.8,1.8c0.2-0.4,0.3-0.8,0.5-1.2c0.1-0.2,0.2-0.4,0.3-0.6c0-0.1,0.1-0.2,0.3-0.2
		c0.3,0,0.4,0.1,0.4,0.4c0,0.7,0,1.4,0,2.1c0,0.1,0,0.3-0.2,0.3c-0.2,0-0.2-0.1-0.2-0.3C35.1,30.3,35.1,29.7,35,29.1
		C35.1,29.1,35,29.1,35,29.1z"/>
	<path class="st3" d="M22.9,25.7c-0.4,0.4-0.8,0.4-1.2,0.2c-0.3-0.1-0.5-0.4-0.5-0.7c0-0.3,0.2-0.6,0.5-0.7c0.3-0.1,0.6-0.1,0.9-0.1
		c0.1,0,0.2,0.1,0.3-0.1c0-0.1,0-0.3-0.1-0.3c-0.3-0.2-0.6-0.1-0.9,0c-0.1,0-0.2,0.1-0.3,0c-0.3-0.2-0.3-0.3,0-0.4
		c0.4-0.2,0.8-0.3,1.2-0.2c0.5,0.1,0.7,0.4,0.7,1c0,0.4,0,0.7,0,1.1c0,0.1,0.1,0.3-0.1,0.4C23.2,26,22.9,26.1,22.9,25.7z M22.3,25.6
		c0.2,0,0.3,0,0.4-0.1c0.2-0.1,0.3-0.3,0.2-0.5c0-0.2-0.2-0.1-0.4-0.1c-0.1,0-0.2,0-0.3,0c-0.2,0-0.4,0.1-0.3,0.3
		C21.9,25.5,22.1,25.6,22.3,25.6z"/>
	<path class="st3" d="M68.8,25.7c-0.4,0.3-0.8,0.4-1.2,0.3c-0.3-0.1-0.5-0.3-0.5-0.7c0-0.3,0.2-0.6,0.5-0.7c0.3-0.1,0.6-0.1,1-0.1
		c0.1,0,0.2,0,0.2-0.1c0-0.1,0-0.2-0.1-0.3c-0.2-0.2-0.6-0.2-0.9-0.1c-0.1,0-0.2,0.1-0.3,0.1c-0.1,0-0.2-0.1-0.2-0.2
		c-0.1-0.1,0.1-0.2,0.2-0.2c0.5-0.3,0.9-0.3,1.4-0.1c0.3,0.2,0.4,0.5,0.4,0.8c0,0.4,0,0.9,0,1.3c0,0.1,0.1,0.3-0.2,0.3
		C69.1,25.9,68.8,26.1,68.8,25.7z M68.4,24.9c-0.1,0-0.3,0-0.5,0.1c-0.2,0.1-0.3,0.3-0.1,0.5c0.3,0.2,0.8,0.1,0.9-0.3
		C68.8,24.9,68.8,24.9,68.4,24.9z"/>
	<path class="st0" d="M24.7,23.8c0.2-0.2,0.4-0.3,0.7-0.3c0.6,0,0.9,0.3,0.9,0.8c0,0.5,0,1,0,1.5c0,0.3-0.3,0.1-0.4,0.2
		c-0.1,0-0.2,0-0.2-0.2c0-0.4,0-0.8,0-1.2c0-0.4-0.2-0.6-0.5-0.6c-0.3,0-0.5,0.2-0.6,0.6c0,0.3,0,0.7,0,1c0,0.2,0,0.4-0.3,0.3
		c-0.2,0-0.3,0-0.3-0.3c0-0.6,0-1.2,0-1.8c0-0.1-0.1-0.3,0.1-0.3C24.4,23.5,24.6,23.4,24.7,23.8z"/>
	<path class="st2" d="M69.9,24.7c0-0.3,0-0.7,0-1c0-0.1-0.1-0.3,0.1-0.2c0.2,0,0.4-0.1,0.5,0.1c0.1,0.2,0.1,0.1,0.2,0
		c0.3-0.3,0.6-0.3,1-0.1c0.4,0.2,0.5,0.5,0.5,0.8c0,0.5,0,0.9,0,1.4c0,0.3-0.2,0.2-0.3,0.2c-0.2,0-0.3,0-0.3-0.2c0-0.4,0-0.9,0-1.3
		c-0.1-0.4-0.4-0.5-0.7-0.4c-0.2,0.1-0.3,0.3-0.3,0.5c0,0.4,0,0.8,0,1.2c0,0.3-0.2,0.2-0.3,0.2c-0.2,0-0.3,0.1-0.3-0.2
		C70,25.4,69.9,25.1,69.9,24.7L69.9,24.7z"/>
	<path class="st3" d="M49.5,25c0-0.2,0-0.3,0-0.5c0-0.2,0.1-0.5-0.4-0.5c-0.2,0-0.1-0.2-0.1-0.3c0-0.1,0-0.2,0.2-0.2
		c0.3,0.1,0.3-0.1,0.3-0.4c0-0.1,0-0.3,0-0.4c0.1-0.5,0.7-0.9,1.2-0.7c0.2,0.1,0,0.2,0.1,0.4c0,0.1,0,0.1-0.1,0.1
		c-0.4,0-0.7,0.5-0.5,0.9c0.1,0.1,0.2,0.1,0.3,0.1c0.2,0,0.3,0,0.3,0.3c0,0.2-0.1,0.3-0.3,0.3c-0.3,0-0.3,0.1-0.3,0.3
		c0,0.4,0,0.9,0,1.4c0,0.3-0.1,0.3-0.3,0.3c-0.2,0-0.3,0-0.3-0.3C49.6,25.5,49.5,25.2,49.5,25L49.5,25z"/>
	<path class="st3" d="M73.4,26c-0.3,0-0.5,0-0.7-0.2c-0.1-0.1-0.3-0.1-0.1-0.3c0.1-0.1,0.2-0.4,0.5-0.2c0.2,0.1,0.4,0.2,0.6,0.1
		c0.1,0,0.2-0.1,0.2-0.2c0-0.1-0.1-0.2-0.2-0.2c-0.2-0.1-0.4-0.1-0.6-0.2c-0.3-0.1-0.5-0.3-0.5-0.6c0-0.3,0.1-0.6,0.4-0.7
		c0.4-0.2,0.9-0.2,1.3,0.1c0.1,0.1,0.2,0.1,0.1,0.2c-0.1,0.1-0.2,0.4-0.4,0.2c-0.1-0.1-0.3-0.2-0.5-0.1c-0.1,0-0.2,0.1-0.3,0.2
		c0,0.2,0.1,0.2,0.2,0.3c0.2,0.1,0.4,0.1,0.5,0.1c0.4,0.1,0.5,0.3,0.6,0.7c0,0.3-0.2,0.6-0.5,0.7C73.8,26,73.6,26.1,73.4,26z"/>
	<path class="st3" d="M61.3,26c-0.3,0-0.5,0-0.7-0.2c-0.1-0.1-0.3-0.1-0.2-0.3c0.1-0.1,0.2-0.4,0.5-0.2c0.1,0.1,0.2,0.1,0.3,0.2
		c0.2,0,0.4,0,0.5-0.2c0.1-0.2-0.2-0.3-0.3-0.3c-0.2-0.1-0.4-0.1-0.6-0.2c-0.5-0.2-0.6-0.8-0.2-1.2c0.4-0.3,1.1-0.3,1.4,0
		c0.1,0.1,0.3,0.1,0.1,0.2c-0.1,0.1-0.2,0.4-0.4,0.2c-0.1-0.1-0.3-0.2-0.5-0.1c-0.1,0-0.2,0.1-0.2,0.2c0,0.1,0.1,0.2,0.2,0.2
		c0.2,0.1,0.4,0.1,0.6,0.2c0.4,0.1,0.5,0.3,0.5,0.7c0,0.4-0.2,0.6-0.5,0.7C61.7,26,61.5,26.1,61.3,26z"/>
	<path class="st3" d="M20.2,23.4c0.2,0,0.4,0,0.5,0.1c0.4,0.2,0.4,0.3,0.1,0.6c-0.1,0.1-0.2,0.1-0.3,0c-0.3-0.2-0.7-0.2-0.9,0.1
		c-0.2,0.3-0.2,0.7,0,1c0.2,0.3,0.5,0.3,0.9,0.1c0.3-0.2,0.4,0.2,0.5,0.3c0.1,0.1-0.1,0.2-0.2,0.2c-0.6,0.3-1.3,0.2-1.7-0.3
		c-0.4-0.4-0.4-1.1-0.1-1.6C19.4,23.6,19.8,23.5,20.2,23.4z"/>
	<path class="st3" d="M63.8,24.7c0-0.4,0.2-0.8,0.7-1c0.4-0.2,0.9-0.2,1.3,0c0.1,0.1,0.3,0.1,0.1,0.3c-0.1,0.1-0.2,0.4-0.5,0.2
		c-0.3-0.2-0.6-0.2-0.9,0.1c-0.2,0.3-0.2,0.7,0,1c0.2,0.2,0.6,0.3,0.9,0.2c0.2-0.1,0.5,0.1,0.5,0.3c0,0.1-0.1,0.1-0.1,0.2
		c-0.5,0.3-1,0.3-1.4,0C63.9,25.6,63.8,25.2,63.8,24.7z"/>
	<path class="st4" d="M64.9,30.9c-0.3,0.2-0.5,0.3-0.8,0.2c-0.3-0.1-0.6-0.3-0.6-0.7c-0.1-0.4,0-0.7,0.3-1c0.3-0.2,0.6-0.3,1-0.1
		c0.1,0.1,0.2,0.2,0.3,0c0.1-0.1,0.3,0,0.3,0.2c0,0.5,0,1.1,0,1.6c0,0.5-0.4,0.9-1,0.9c-0.2,0-0.4-0.1-0.6-0.2
		c-0.1,0-0.2-0.1-0.1-0.3s0.2-0.1,0.3,0c0.3,0.2,0.5,0.2,0.8,0.1C64.9,31.5,64.9,31.2,64.9,30.9z M64.9,30.2c0-0.4-0.2-0.6-0.6-0.6
		c-0.4,0-0.6,0.2-0.6,0.6c0,0.4,0.2,0.6,0.5,0.6C64.7,30.8,64.9,30.6,64.9,30.2z"/>
	<path class="st4" d="M17.5,30.9c-0.6,0.3-1.1,0.3-1.4-0.2c-0.2-0.3-0.2-0.8,0-1.1c0.3-0.3,0.6-0.4,1.1-0.2c0.1,0,0.2,0.1,0.3,0
		c0.1-0.1,0.3,0,0.3,0.2c0,0.5,0,1,0,1.5c0,0.4-0.1,0.7-0.5,0.9c-0.4,0.2-0.8,0.1-1.2-0.1c-0.1-0.1-0.1-0.2,0-0.3
		c0.1-0.1,0.1-0.1,0.3,0c0.1,0.1,0.2,0.1,0.4,0.2C17.3,31.7,17.6,31.5,17.5,30.9z M17.5,30.2c0-0.4-0.3-0.6-0.6-0.6
		c-0.4,0-0.6,0.2-0.6,0.6c0,0.4,0.2,0.6,0.6,0.6C17.3,30.8,17.6,30.6,17.5,30.2z"/>
	<path class="st4" d="M50,30.2c0-0.2,0-0.5,0-0.7c0-0.2,0.2-0.2,0.3-0.2c0.1,0.2,0.2,0.1,0.3,0c0.3-0.2,0.6-0.1,0.8,0.1
		c0.1,0.1,0.1,0.1,0.2,0c0.2-0.2,0.5-0.3,0.8-0.1c0.3,0.1,0.3,0.4,0.3,0.6c0,0.3,0,0.6,0,0.9c0,0.1,0,0.2-0.2,0.2
		c-0.1,0-0.2-0.1-0.2-0.2c0-0.3,0-0.6,0-0.9c0-0.3-0.1-0.5-0.4-0.5c-0.3,0-0.4,0.2-0.4,0.5c0,0.3,0,0.5,0,0.8c0,0.1,0,0.2-0.2,0.2
		c-0.2,0-0.2-0.1-0.2-0.2c0-0.3,0-0.6,0-0.9c0-0.2-0.1-0.4-0.3-0.4c-0.2,0-0.4,0.1-0.5,0.3c-0.1,0.3,0,0.6-0.1,0.9
		c0,0.1,0,0.3-0.2,0.3C50,31.1,50,31,50,30.8C50,30.6,50,30.4,50,30.2C50,30.2,50,30.2,50,30.2z"/>
	<path class="st3" d="M36.1,24c0,0.6,0,1.1,0,1.7c0,0.2-0.1,0.2-0.3,0.2c-0.2,0-0.4,0.1-0.4-0.2c0-1.1,0-2.3,0-3.4
		c0-0.3,0.2-0.2,0.3-0.2c0.2,0,0.3,0,0.3,0.2C36.1,22.9,36.1,23.5,36.1,24z"/>
	<path class="st2" d="M34.3,24c0-0.6,0-1.1,0-1.7c0-0.3,0.1-0.3,0.3-0.3c0.2,0,0.3,0,0.3,0.3c0,1.1,0,2.3,0,3.4
		c0,0.3-0.2,0.2-0.3,0.2c-0.2,0-0.3,0-0.3-0.2C34.3,25.2,34.3,24.6,34.3,24z"/>
	<path class="st4" d="M12.4,29.5c0-0.4,0-0.7,0-1.1c0-0.1,0-0.2,0.2-0.2c0.1,0,0.2,0.1,0.2,0.2c0,0.8,0,1.7,0,2.5
		c0,0.2-0.2,0.3-0.3,0.1c-0.1-0.1-0.1-0.1-0.2,0c-0.4,0.2-0.9,0.1-1.1-0.2c-0.3-0.3-0.3-0.9,0-1.3c0.3-0.3,0.7-0.4,1.2-0.2
		C12.3,29.4,12.4,29.5,12.4,29.5z M12.4,30.2c0-0.3-0.3-0.6-0.6-0.6c-0.4,0-0.6,0.3-0.6,0.6c0,0.3,0.3,0.6,0.6,0.6
		C12.2,30.8,12.4,30.5,12.4,30.2z"/>
	<path class="st4" d="M39.3,29.4c0-0.3,0-0.6,0-1c0-0.1,0-0.2,0.2-0.2c0.1,0,0.2,0,0.2,0.2c0,0.8,0,1.7,0,2.5c0,0.2-0.2,0.3-0.3,0.1
		c-0.1-0.1-0.1-0.1-0.2,0c-0.5,0.2-0.9,0.1-1.2-0.2c-0.3-0.3-0.3-0.9,0-1.2c0.3-0.3,0.7-0.4,1.1-0.2C39.2,29.4,39.2,29.5,39.3,29.4z
		 M39.3,30.2c0-0.4-0.2-0.6-0.6-0.6c-0.3,0-0.6,0.3-0.6,0.6c0,0.4,0.2,0.6,0.6,0.6C39.1,30.8,39.3,30.6,39.3,30.2z"/>
	<path class="st3" d="M53.2,30.7c0-0.4,0-0.8,0-1.2c0-0.3,0.2-0.3,0.3-0.2c0.1,0.1,0.2,0.1,0.3,0c0.4-0.2,0.8-0.1,1.1,0.3
		c0.3,0.3,0.3,0.9,0,1.2c-0.3,0.3-0.7,0.4-1.1,0.2c-0.2-0.1-0.2,0-0.2,0.2c0,0.3,0,0.5,0,0.8c0,0.1-0.1,0.2-0.2,0.2
		c-0.2,0-0.2-0.1-0.2-0.2C53.2,31.5,53.2,31.1,53.2,30.7C53.2,30.7,53.2,30.7,53.2,30.7z M53.5,30.2c0,0.4,0.2,0.6,0.6,0.6
		c0.3,0,0.6-0.3,0.6-0.6s-0.3-0.6-0.6-0.6C53.8,29.6,53.5,29.8,53.5,30.2z"/>
	<path class="st3" d="M16,24.7c0-0.3,0-0.6,0-1c0-0.1,0-0.2,0.1-0.2c0.2,0,0.4-0.1,0.5,0.1c0.1,0.2,0.1,0.1,0.2,0
		c0.1-0.1,0.2-0.1,0.3-0.2c0.1,0,0.3-0.1,0.4,0c0.1,0.1,0,0.3,0,0.5c0,0.1-0.1,0.1-0.2,0.1c-0.6,0-0.8,0.2-0.8,0.7
		c0,0.3,0,0.6,0,0.9c0,0.3-0.1,0.3-0.3,0.3c-0.2,0-0.3,0-0.3-0.3C16,25.4,16,25.1,16,24.7C16,24.7,16,24.7,16,24.7z"/>
	<path class="st4" d="M46.7,30.3c-0.2,0-0.3,0-0.5,0c-0.1,0-0.2,0-0.2,0.1c0,0.1,0,0.2,0.1,0.2c0.2,0.2,0.5,0.3,0.8,0.1
		c0.1,0,0.1-0.1,0.1-0.1c0.1-0.1,0.2,0,0.3,0.1c0.1,0.1,0,0.1-0.1,0.2c-0.3,0.3-0.9,0.3-1.3,0c-0.4-0.3-0.4-0.9-0.2-1.3
		c0.2-0.4,0.7-0.5,1.2-0.3c0.3,0.1,0.5,0.5,0.5,0.8c0,0.1-0.1,0.2-0.2,0.2C47.1,30.3,46.9,30.3,46.7,30.3L46.7,30.3z M46.5,30.1
		C46.5,30.1,46.5,30.1,46.5,30.1c0.1,0,0.2,0,0.3,0c0.1,0,0.2,0,0.2-0.1c0-0.1,0-0.2-0.1-0.2c-0.1-0.2-0.5-0.3-0.8-0.1
		C46.1,29.8,46,29.8,46,30c0,0.1,0.2,0.1,0.3,0.1C46.4,30.1,46.4,30.1,46.5,30.1z"/>
	<path class="st4" d="M72.1,30.3c-0.2,0-0.3,0-0.5,0c-0.1,0-0.2,0-0.2,0.1c0,0.1,0,0.2,0.1,0.2c0.2,0.2,0.5,0.3,0.8,0.1
		c0.1-0.1,0.2-0.1,0.3,0c0.1,0.1-0.1,0.2-0.1,0.3c-0.3,0.2-0.8,0.2-1.1,0c-0.3-0.2-0.4-0.6-0.4-1c0.1-0.4,0.3-0.7,0.8-0.8
		c0.5-0.1,1.1,0.4,1,0.9c0,0.1-0.1,0.2-0.2,0.2C72.5,30.3,72.3,30.3,72.1,30.3z M71.9,30.1L71.9,30.1c0.1,0,0.1,0,0.2,0
		c0.1,0,0.3,0.1,0.3-0.1c0-0.2-0.1-0.3-0.3-0.4c-0.2,0-0.4,0-0.5,0.1c-0.1,0.1-0.2,0.2-0.2,0.3c0,0.1,0.2,0.1,0.3,0.1
		C71.8,30.1,71.9,30.1,71.9,30.1z"/>
	<path class="st4" d="M24.6,30.3c-0.2,0-0.3,0-0.5,0c-0.1,0-0.2,0-0.2,0.1c0,0.1,0,0.2,0.1,0.2c0.2,0.2,0.5,0.3,0.8,0.1
		c0.1-0.1,0.3-0.2,0.4,0c0.1,0.2-0.1,0.2-0.2,0.3c-0.4,0.2-0.7,0.2-1.1,0c-0.3-0.2-0.4-0.6-0.4-0.9c0.1-0.4,0.3-0.6,0.7-0.8
		c0.5-0.1,1.1,0.3,1.1,0.9c0,0.1,0,0.2-0.2,0.2C25,30.3,24.8,30.3,24.6,30.3C24.6,30.3,24.6,30.3,24.6,30.3z M24.5,30.1
		C24.5,30.1,24.5,30.1,24.5,30.1c0.1,0,0.1,0,0.2,0c0.1,0,0.3,0.1,0.3-0.1c0-0.2-0.1-0.3-0.3-0.4c-0.2-0.1-0.3,0-0.4,0
		c-0.1,0.1-0.3,0.2-0.2,0.3c0,0.2,0.2,0.1,0.3,0.1C24.3,30.1,24.4,30.1,24.5,30.1z"/>
	<path class="st4" d="M36.9,30.3c-0.2,0-0.3,0-0.5,0c-0.1,0-0.2,0-0.2,0.1c0,0.1,0,0.1,0.1,0.2c0.2,0.3,0.6,0.3,0.8,0.1
		c0.1-0.1,0.2-0.1,0.3,0c0.1,0.2-0.1,0.2-0.1,0.3c-0.4,0.3-0.9,0.2-1.2-0.1c-0.3-0.3-0.4-0.9-0.1-1.2c0.3-0.4,0.7-0.5,1.2-0.3
		c0.3,0.1,0.5,0.5,0.5,0.9c0,0.1-0.1,0.1-0.2,0.1C37.2,30.3,37.1,30.3,36.9,30.3C36.9,30.3,36.9,30.3,36.9,30.3z M36.7,30.1
		c0.1,0,0.1,0,0.2,0c0.1,0,0.3,0.1,0.3-0.1c0-0.2-0.1-0.3-0.3-0.4c-0.2-0.1-0.4,0-0.6,0.1c-0.1,0.1-0.2,0.2-0.1,0.3
		c0,0.1,0.2,0,0.3,0.1C36.6,30.1,36.6,30.1,36.7,30.1z"/>
	<path class="st4" d="M8,30.3c-0.2,0-0.3,0-0.5,0c-0.2,0-0.2,0.1-0.1,0.3c0.2,0.3,0.6,0.3,0.8,0.1c0.1-0.1,0.3-0.1,0.4,0
		c0.1,0.2-0.1,0.2-0.2,0.3c-0.4,0.2-0.8,0.2-1.1,0C7,30.8,6.9,30.4,6.9,30c0.1-0.4,0.3-0.7,0.8-0.8c0.5-0.1,1.1,0.4,1,0.9
		c0,0.1-0.1,0.1-0.2,0.1C8.4,30.3,8.2,30.3,8,30.3z M7.8,30.1c0,0,0.1,0,0.1,0c0.1,0,0.3,0.1,0.4-0.1c0-0.2-0.2-0.3-0.3-0.4
		c-0.2,0-0.3,0-0.4,0.1c-0.1,0.1-0.2,0.2-0.2,0.3c0,0.1,0.2,0.1,0.3,0.1C7.7,30.1,7.8,30.1,7.8,30.1z"/>
	<path class="st4" d="M57.5,31.1c-0.6,0-1-0.4-0.9-1c0-0.5,0.4-0.9,1-0.9c0.5,0,1,0.5,1,1C58.5,30.7,58,31.1,57.5,31.1z M57.5,29.6
		c-0.3,0-0.6,0.2-0.6,0.6c0,0.4,0.2,0.6,0.6,0.6c0.3,0,0.6-0.3,0.6-0.6C58.1,29.9,57.9,29.6,57.5,29.6z"/>
	<path class="st4" d="M30.4,30.4c0,0.2,0,0.3,0,0.5c0,0.2-0.1,0.3-0.2,0.2c-0.1-0.1-0.2-0.1-0.3,0c-0.2,0.1-0.4,0.1-0.6,0.1
		c-0.2-0.1-0.4-0.2-0.4-0.4c0-0.2,0-0.4,0.2-0.6c0.2-0.2,0.5-0.1,0.7-0.1c0.1,0,0.2,0.1,0.2-0.1c0-0.1,0-0.2-0.1-0.3
		c-0.2-0.1-0.4-0.1-0.6,0c-0.1,0.1-0.2,0.1-0.3,0c-0.1-0.2,0.1-0.2,0.2-0.2c0.2-0.1,0.3-0.1,0.5-0.1c0.5,0,0.7,0.2,0.7,0.7
		C30.4,30.1,30.4,30.3,30.4,30.4C30.4,30.4,30.4,30.4,30.4,30.4z M29.8,30.3c-0.4,0-0.6,0.1-0.6,0.3c0,0.2,0.2,0.3,0.4,0.3
		c0.3,0,0.5-0.2,0.5-0.5C30.1,30.1,29.9,30.3,29.8,30.3z"/>
	<path class="st4" d="M10.5,30.4c0,0.2,0,0.4,0,0.5c0,0.3-0.2,0.2-0.3,0.1c-0.1-0.1-0.1-0.1-0.2,0c-0.2,0.1-0.4,0.1-0.6,0.1
		c-0.2,0-0.4-0.2-0.4-0.5c0-0.2,0.1-0.4,0.3-0.5C9.5,30,9.7,30,10,30c0.1,0,0.2,0,0.2-0.1c0-0.1,0-0.2-0.1-0.3
		c-0.2-0.1-0.4-0.1-0.6,0c-0.2,0.1-0.2,0.1-0.3-0.1c-0.1-0.2,0.1-0.2,0.2-0.2c0.2-0.1,0.4-0.1,0.6-0.1c0.5,0,0.7,0.3,0.7,0.7
		C10.5,30.1,10.5,30.3,10.5,30.4z M9.9,30.3c-0.1,0-0.1,0-0.2,0c-0.2,0-0.3,0.1-0.4,0.3c0,0.1,0,0.2,0.1,0.3c0.2,0.1,0.4,0.1,0.5,0
		c0.1,0,0.1-0.1,0.2-0.2C10.3,30.3,10.2,30.2,9.9,30.3z"/>
	<path class="st4" d="M43.7,30.2c0-0.2,0-0.4,0-0.6c0-0.3,0.2-0.3,0.3-0.2c0.1,0.1,0.2,0,0.3,0c0.5-0.2,0.9,0,1,0.6c0,0.3,0,0.7,0,1
		c0,0.1,0,0.2-0.2,0.2c-0.2,0-0.2-0.1-0.2-0.2c0-0.3,0-0.5,0-0.8c0-0.3-0.1-0.5-0.4-0.5c-0.3,0-0.5,0.2-0.5,0.5c0,0.3,0,0.5,0,0.8
		c0,0.1,0.1,0.3-0.2,0.3c-0.2,0-0.2-0.1-0.2-0.3C43.7,30.6,43.7,30.4,43.7,30.2C43.7,30.2,43.7,30.2,43.7,30.2z"/>
	<path class="st4" d="M20.3,30.2c0-0.2,0-0.5,0-0.7c0-0.2,0.1-0.3,0.3-0.2c0.2,0.1,0.3,0,0.4,0c0.5-0.2,0.9,0.1,0.9,0.6
		c0,0.3,0,0.6,0,0.9c0,0.1,0,0.2-0.2,0.2c-0.2,0-0.2-0.1-0.2-0.2c0-0.3,0-0.5,0-0.8c0-0.3-0.1-0.5-0.4-0.5c-0.3,0-0.5,0.1-0.5,0.5
		c0,0.3,0,0.5,0,0.8c0,0.1,0.1,0.3-0.2,0.3c-0.2,0-0.2-0.2-0.2-0.3C20.3,30.6,20.3,30.4,20.3,30.2z"/>
	<path class="st4" d="M14.1,30.2c0-0.2,0-0.4,0-0.7c0-0.2,0.2-0.3,0.3-0.2c0.1,0.1,0.2,0.1,0.3,0c0.6-0.2,1,0,1,0.6
		c0,0.3,0,0.6,0,0.9c0,0.1,0,0.2-0.2,0.2c-0.1,0-0.2-0.1-0.2-0.2c0-0.3,0-0.6,0-0.9c0-0.2-0.1-0.4-0.3-0.4c-0.2,0-0.4,0-0.5,0.3
		c-0.1,0.3,0,0.6-0.1,0.9c0,0.1,0.1,0.3-0.1,0.3c-0.2,0-0.2-0.2-0.2-0.3C14.1,30.6,14.1,30.4,14.1,30.2L14.1,30.2z"/>
	<path class="st3" d="M27,30.2c0-0.2,0-0.4,0-0.7c0-0.2,0.1-0.3,0.3-0.2c0.2,0.1,0.3,0,0.4,0c0.5-0.2,0.9,0,0.9,0.5
		c0,0.4,0,0.7,0,1.1c0,0.1-0.1,0.2-0.2,0.2c-0.1,0-0.2,0-0.2-0.2c0-0.3,0-0.6,0-0.9c0-0.2-0.1-0.4-0.3-0.4c-0.3,0-0.4,0.1-0.5,0.4
		c-0.1,0.3,0,0.6,0,0.9c0,0.1,0,0.2-0.2,0.2C27,31.1,27,31,27,30.9C27,30.6,27,30.4,27,30.2z"/>
	<path class="st4" d="M61.5,30.2c0-0.2,0-0.5,0-0.7c0-0.2,0.1-0.2,0.2-0.2c0.2,0.1,0.3,0,0.4,0c0.5-0.2,0.9,0.1,0.9,0.6
		c0,0.3,0,0.6,0,0.9c0,0.1,0,0.2-0.2,0.2c-0.2,0-0.2-0.1-0.2-0.2c0-0.3,0-0.6,0-0.9c0-0.2-0.1-0.4-0.3-0.4c-0.2,0-0.4,0.1-0.5,0.3
		c-0.1,0.2,0,0.4-0.1,0.7c0,0.2,0.2,0.5-0.2,0.5c-0.3,0-0.1-0.3-0.1-0.5C61.5,30.5,61.5,30.3,61.5,30.2
		C61.5,30.2,61.5,30.2,61.5,30.2z"/>
	<path class="st3" d="M17.9,24.7c0-0.3,0-0.7,0-1c0-0.2,0.1-0.2,0.3-0.2c0.1,0,0.4-0.1,0.4,0.2c0,0.7,0,1.4,0,2.1
		c0,0.3-0.2,0.2-0.4,0.2c-0.1,0-0.3,0-0.3-0.2C17.9,25.4,17.9,25.1,17.9,24.7L17.9,24.7z"/>
	<path class="st0" d="M63.4,24.7c0,0.3,0,0.7,0,1c0,0.2-0.1,0.2-0.3,0.2c-0.1,0-0.4,0.1-0.4-0.2c0-0.7,0-1.4,0-2.1
		c0-0.3,0.2-0.2,0.3-0.2c0.1,0,0.3-0.1,0.3,0.2C63.4,24,63.4,24.4,63.4,24.7L63.4,24.7z"/>
	<path class="st2" d="M66.2,24.8c0-0.3,0-0.7,0-1c0-0.2,0.1-0.2,0.3-0.2c0.1,0,0.4-0.1,0.4,0.2c0,0.7,0,1.4,0,2
		c0,0.3-0.2,0.2-0.4,0.2c-0.1,0-0.3,0-0.3-0.2C66.2,25.4,66.2,25.1,66.2,24.8z"/>
	<path class="st4" d="M73.7,31.1c-0.2,0-0.3,0-0.5-0.1c-0.1,0-0.2-0.1-0.1-0.2c0.1-0.1,0.1-0.2,0.3-0.1c0.1,0.1,0.3,0.2,0.5,0.1
		c0.1,0,0.2-0.1,0.2-0.2s-0.1-0.2-0.2-0.2c-0.2-0.1-0.3-0.1-0.5-0.1c-0.4-0.1-0.4-0.6-0.1-0.8c0.3-0.2,0.7-0.2,1,0
		c0.1,0,0.2,0.1,0.1,0.2c-0.1,0.1-0.1,0.2-0.3,0.1c-0.1-0.1-0.2-0.1-0.4-0.1c-0.1,0-0.2,0.1-0.2,0.2c0,0.1,0.1,0.2,0.2,0.2
		c0.1,0,0.2,0.1,0.4,0.1c0.3,0.1,0.5,0.3,0.4,0.6c0,0.3-0.3,0.4-0.5,0.5C73.9,31.1,73.8,31.1,73.7,31.1z"/>
	<path class="st4" d="M66.6,29.8c0-0.4,0-0.8,0-1.1c0-0.1,0-0.2,0.2-0.2c0.2,0,0.2,0.1,0.2,0.2c0,0.6,0,1.2,0,1.9
		c0,0.2,0,0.3,0.2,0.3c0.3,0,0.5,0,0.8,0c0.1,0,0.2,0,0.2,0.2c0,0.1,0,0.2-0.2,0.2c-0.4,0-0.8,0-1.2,0c-0.2,0-0.2-0.1-0.2-0.2
		C66.6,30.5,66.6,30.2,66.6,29.8L66.6,29.8z"/>
	<path class="st3" d="M5.2,29.7c0-0.4,0-0.7,0-1.1c0-0.1,0-0.2,0.2-0.2c0.2,0,0.2,0.1,0.2,0.2c0,0.6,0,1.2,0,1.9
		c0,0.2,0,0.3,0.2,0.3c0.3,0,0.5,0,0.8,0c0.1,0,0.2,0,0.2,0.2c0,0.1-0.1,0.2-0.2,0.2c-0.4,0-0.8,0-1.2,0c-0.2,0-0.2-0.1-0.2-0.2
		C5.2,30.5,5.2,30.1,5.2,29.7z"/>
	<path class="st4" d="M41.9,31.1c-0.5,0-0.8-0.2-0.9-0.6c-0.1-0.4,0-0.8,0.3-1.1c0.3-0.2,0.8-0.2,1.1-0.1c0.1,0,0.2,0.1,0.1,0.2
		c-0.1,0.1-0.1,0.2-0.3,0.1c-0.5-0.2-0.9,0-0.9,0.5c0,0.5,0.4,0.7,0.8,0.5c0.2-0.1,0.2-0.1,0.3,0c0.1,0.2-0.1,0.2-0.2,0.3
		C42.2,31.1,42,31.2,41.9,31.1z"/>
	<path class="st4" d="M69.1,29.3c0.3-0.1,0.4,0,0.5,0.2c0.1,0.3,0.3,0.7,0.4,1c0.2-0.4,0.3-0.7,0.4-1.1c0.1-0.2,0.2-0.3,0.5-0.2
		c-0.2,0.6-0.4,1.1-0.7,1.7c-0.1,0.2-0.4,0.2-0.4,0C69.5,30.5,69.3,29.9,69.1,29.3z"/>
	<path class="st4" d="M59.5,30.6c0.1-0.4,0.3-0.7,0.4-1c0-0.1,0-0.2,0.1-0.2c0.1-0.1,0.2-0.1,0.3-0.1c0.1,0,0,0.1,0,0.2
		c-0.2,0.5-0.4,0.9-0.5,1.4c-0.1,0.2-0.4,0.3-0.5,0.1c-0.2-0.5-0.5-1.1-0.7-1.7c0.3-0.1,0.4,0,0.5,0.2
		C59.2,29.9,59.3,30.2,59.5,30.6z"/>
	<path class="st4" d="M76.2,1.3c0,0.3,0,0.5,0,0.8c0,0.1,0,0.2-0.1,0.2C76,2.3,76,2.2,76,2.1c0-0.4,0-0.7,0-1.1
		c0-0.1-0.1-0.2,0.1-0.2c0.1,0,0.2,0,0.3,0.2c0.1,0.3,0.2,0.6,0.4,0.9C76.9,1.6,77,1.3,77.2,1c0.1-0.1,0.1-0.2,0.3-0.2
		c0.2,0,0.1,0.2,0.1,0.3c0,0.3,0,0.7,0,1c0,0.1,0,0.2-0.1,0.2c-0.1,0-0.1-0.1-0.1-0.2c0-0.3,0-0.5,0-0.9c-0.2,0.3-0.3,0.6-0.4,0.9
		c0,0.1,0,0.2-0.1,0.2s-0.1-0.1-0.1-0.2C76.5,1.9,76.4,1.6,76.2,1.3z"/>
	<path class="st3" d="M22.4,30.2c0-0.1,0-0.2,0-0.3c0-0.2,0-0.3-0.2-0.3c-0.1,0-0.2,0-0.2-0.1c0-0.1,0-0.2,0.2-0.2
		c0.2,0,0.3-0.1,0.2-0.3c0-0.1,0-0.3,0.2-0.3c0.2,0,0.2,0.1,0.2,0.2c0,0.2,0.1,0.3,0.3,0.3c0.1,0,0.2,0,0.2,0.1
		c0,0.2-0.1,0.2-0.2,0.2c-0.2,0-0.3,0-0.3,0.3c0,0.2,0,0.4,0,0.6c0,0.2,0.1,0.3,0.3,0.3c0.1,0,0.2,0,0.2,0.1c0,0.1-0.1,0.2-0.2,0.2
		c-0.4,0.1-0.6-0.1-0.7-0.5C22.4,30.5,22.4,30.3,22.4,30.2C22.4,30.2,22.4,30.2,22.4,30.2z"/>
	<path class="st4" d="M19.8,29.8c0,0.4,0,0.8,0,1.1c0,0.1,0,0.2-0.2,0.2c-0.2,0-0.2-0.1-0.2-0.2c0-0.8,0-1.5,0-2.3
		c0-0.2,0.1-0.2,0.2-0.2c0.2,0,0.2,0.1,0.2,0.2C19.8,29,19.8,29.4,19.8,29.8L19.8,29.8z"/>
	<path class="st4" d="M49.1,29.8c0-0.4,0-0.8,0-1.1c0-0.1,0-0.2,0.2-0.2c0.1,0,0.2,0.1,0.2,0.2c0,0.8,0,1.5,0,2.3
		c0,0.1,0,0.2-0.2,0.2c-0.2,0-0.2-0.1-0.2-0.2C49.1,30.5,49.1,30.1,49.1,29.8L49.1,29.8z"/>
	<path class="st4" d="M25.6,30.2c0-0.2,0-0.5,0-0.7c0-0.2,0.1-0.2,0.2-0.2c0.2,0.2,0.4,0,0.6,0c0.1,0,0.3-0.1,0.3,0.1
		c0,0.1,0,0.2-0.2,0.2c-0.4,0-0.5,0.2-0.5,0.5c0,0.2,0,0.5,0,0.7c0,0.1,0,0.3-0.2,0.3c-0.2,0-0.2-0.1-0.2-0.3
		C25.6,30.6,25.6,30.4,25.6,30.2z"/>
	<path class="st2" d="M30.9,29.7c0-0.4,0-0.8,0-1.2c0-0.1,0-0.2,0.2-0.2s0.2,0.1,0.2,0.2c0,0.8,0,1.6,0,2.5c0,0.1,0,0.2-0.2,0.2
		c-0.1,0-0.2-0.1-0.2-0.2C30.9,30.5,30.9,30.1,30.9,29.7z"/>
	<path class="st2" d="M55.4,30.2c0-0.2,0-0.5,0-0.7c0-0.2,0.1-0.2,0.2-0.2c0.2,0.2,0.3,0,0.5,0c0.1,0,0.2-0.1,0.3,0s0,0.2,0,0.3
		c0,0.2-0.1,0.1-0.2,0.1c-0.3,0-0.4,0.2-0.5,0.6c0,0.2,0,0.5,0,0.7c0,0.1,0,0.2-0.2,0.2c-0.1,0-0.1-0.1-0.1-0.2
		C55.4,30.7,55.4,30.4,55.4,30.2z"/>
	<path class="st4" d="M75.2,2.3c-0.1,0-0.2,0-0.3-0.1c0,0-0.2-0.1-0.1-0.2C74.8,2,74.9,2,75,2c0,0,0.1,0.1,0.2,0.1
		c0.2,0,0.3,0,0.4-0.2c0-0.2-0.1-0.2-0.2-0.3c-0.2-0.1-0.4-0.1-0.5-0.3c-0.1-0.2,0-0.4,0.1-0.5c0.2-0.1,0.5-0.1,0.7,0
		c0,0,0.1,0.1,0,0.1c0,0.1-0.1,0.1-0.2,0.1C75.3,1,75.1,0.9,75,1.1c-0.1,0.3,0.2,0.3,0.4,0.3c0.2,0.1,0.4,0.2,0.3,0.5
		C75.7,2.2,75.5,2.3,75.2,2.3z"/>
	<path class="st4" d="M61,30.2c0,0.2,0,0.5,0,0.7c0,0.1,0,0.2-0.2,0.2c-0.1,0-0.2,0-0.2-0.2c0-0.5,0-0.9,0-1.4
		c0-0.2,0.1-0.2,0.2-0.2c0.2,0,0.2,0.1,0.2,0.2C61,29.7,61,30,61,30.2z"/>
	<path class="st4" d="M68.8,30.2c0,0.2,0,0.5,0,0.7c0,0.1,0,0.2-0.2,0.2s-0.2,0-0.2-0.2c0-0.5,0-0.9,0-1.4c0-0.2,0.1-0.2,0.2-0.2
		c0.2,0,0.2,0.1,0.2,0.2C68.8,29.7,68.8,30,68.8,30.2z"/>
	<path class="st4" d="M13.6,30.2c0,0.2,0,0.5,0,0.7c0,0.1,0,0.2-0.2,0.2c-0.1,0-0.2,0-0.2-0.2c0-0.5,0-1,0-1.4
		c0-0.2,0.1-0.2,0.2-0.2c0.2,0,0.2,0.1,0.2,0.2C13.6,29.8,13.6,30,13.6,30.2z"/>
	<path class="st4" d="M42.8,30.2c0-0.2,0-0.5,0-0.7c0-0.1,0-0.2,0.2-0.2c0.1,0,0.2,0.1,0.2,0.2c0,0.5,0,0.9,0,1.4
		c0,0.1,0,0.2-0.2,0.2c-0.2,0-0.2-0.1-0.2-0.2C42.8,30.7,42.8,30.4,42.8,30.2z"/>
	<path class="st2" d="M40.5,30.2c0,0.2,0,0.5,0,0.7c0,0.1,0,0.2-0.2,0.2c-0.1,0-0.2-0.1-0.2-0.2c0-0.5,0-1,0-1.4
		c0-0.1,0-0.2,0.2-0.2c0.1,0,0.2,0.1,0.2,0.2C40.5,29.7,40.5,30,40.5,30.2L40.5,30.2z"/>
	<path class="st4" d="M18.6,22.6c0,0.3-0.2,0.4-0.4,0.4c-0.2,0-0.4-0.1-0.4-0.4c0-0.2,0.1-0.4,0.4-0.4
		C18.5,22.3,18.6,22.4,18.6,22.6z"/>
	<path class="st4" d="M66.5,22.3c0.2,0,0.4,0.1,0.4,0.4c0,0.2-0.2,0.4-0.4,0.4c-0.2,0-0.4-0.1-0.4-0.4
		C66.1,22.5,66.2,22.3,66.5,22.3z"/>
	<path class="st3" d="M63.1,22.3c0.2,0,0.4,0.2,0.3,0.4c0,0.2-0.2,0.4-0.4,0.4c-0.2,0-0.4-0.2-0.4-0.4
		C62.7,22.4,62.8,22.3,63.1,22.3z"/>
	<path class="st4" d="M48.1,30.9c-0.1,0.2-0.1,0.4-0.2,0.7c0,0.1-0.2,0.1-0.2,0.1c-0.1,0-0.1-0.1,0-0.2c0.1-0.2,0.1-0.4,0.2-0.6
		c0-0.1,0.2-0.1,0.3-0.1C48,30.7,48.1,30.7,48.1,30.9z"/>
	<path class="st4" d="M43.3,28.7c0,0.1-0.1,0.3-0.3,0.3c-0.1,0-0.2-0.1-0.2-0.2c0-0.1,0.1-0.2,0.2-0.3
		C43.1,28.4,43.2,28.5,43.3,28.7z"/>
	<path class="st4" d="M40.6,28.7c0,0.2-0.1,0.2-0.3,0.2c-0.1,0-0.2-0.1-0.2-0.3c0-0.2,0.1-0.2,0.2-0.2
		C40.5,28.4,40.6,28.5,40.6,28.7z"/>
	<path class="st4" d="M13.7,28.7c0,0.2-0.1,0.2-0.3,0.2c-0.2,0-0.3-0.1-0.2-0.3c0-0.1,0.1-0.2,0.3-0.2
		C13.6,28.4,13.7,28.5,13.7,28.7z"/>
	<path class="st4" d="M68.6,28.4c0.1,0,0.3,0.1,0.3,0.2c0,0.2-0.1,0.3-0.2,0.3c-0.1,0-0.2-0.1-0.2-0.2
		C68.4,28.5,68.5,28.5,68.6,28.4z"/>
	<path class="st4" d="M61.1,28.7c0,0.1-0.1,0.2-0.2,0.2c-0.2,0-0.3-0.1-0.3-0.3c0-0.2,0.1-0.3,0.3-0.2C61,28.4,61.1,28.5,61.1,28.7z
		"/>
	<path class="st5" d="M9.8,19c-0.6-0.1-1.2-0.3-1.7-0.7c-0.4-0.3-0.5-0.7-0.6-1.1c-0.2-1.1,0.2-1.9,1.3-2.3c1.1-0.5,2.3-0.8,3.4-1.1
		c1-0.3,2.1-0.6,3.1-1c0.1,0,0.1,0,0.2,0c0.2,0.1,0.3,0.2,0.5,0.2c0.9,0.2,1.9,0.3,2.9,0.2c0.8-0.1,1.6-0.3,2.3-0.7
		c0.8-0.4,1.6-1,2.2-1.7c0-0.1,0.1-0.1,0.2-0.1c0,2.2,0,4.4,0,6.7c0,0.7-0.5,1.5-1.5,1.8c0,0,0,0-0.1,0c-0.1,0-0.1,0-0.2,0
		c-4,0-7.9,0-11.9,0C10,19,9.9,19,9.8,19z"/>
	<path class="st6" d="M23.6,10.6c-0.1-0.1-0.1,0-0.2,0.1c-0.6,0.7-1.3,1.3-2.2,1.7c-0.7,0.4-1.5,0.6-2.3,0.7c-1,0.1-1.9,0-2.9-0.2
		c-0.2,0-0.3-0.1-0.5-0.2c0.4-0.2,0.8-0.4,1.2-0.7c0.7-0.5,1.2-1.3,1.7-2c0.1-0.1,0.1-0.2,0.2-0.3c0.1,0,0.1,0,0.2,0
		c1.1-0.3,2-0.9,2.5-2c0.5-1.2,0.4-2.4-0.5-3.5c-1-1.2-2.7-1.5-4-0.9c-1.6,0.8-2.2,2.6-1.6,4.2c0.3,0.9,1,1.6,2,1.9
		c-0.3,0.5-0.7,0.8-1.2,0.8c-3.3,0.2-6.5,0.1-9.8,0.1c0,0,0,0-0.1,0c0.1-0.1,0.2,0,0.3,0c1.9,0,3.8,0,5.8,0c0.1,0,0.2,0,0.3-0.1
		c0.1-0.1,0-0.2-0.1-0.3c-0.4-0.6-0.7-1.3-0.9-2c-0.2-0.9-0.3-1.8-0.1-2.7c0.1-0.9,0.4-1.7,0.9-2.5c0.4-0.6,0.8-1.2,1.3-1.7
		c0.2-0.2,0-0.1-0.1-0.2c1.1,0,2.3,0,3.4,0c1.6,0,3.2,0,4.8,0c1.3,0,2.1,0.8,2.1,2c0,2.5,0,5,0,7.5C23.6,10.6,23.6,10.6,23.6,10.6z"
		/>
	<path class="st7" d="M13.4,1c0,0.1,0.2,0,0.1,0.2c-0.5,0.5-0.9,1-1.3,1.7c-0.4,0.8-0.7,1.6-0.9,2.5c-0.1,0.9-0.1,1.8,0.1,2.7
		c0.2,0.7,0.4,1.4,0.9,2c0.1,0.1,0.2,0.2,0.1,0.3c-0.1,0.1-0.2,0.1-0.3,0.1c-1.9,0-3.8,0-5.8,0c-0.1,0-0.2,0-0.3,0
		c-0.1,0-0.2,0-0.3,0c0-0.1-0.1,0-0.2,0l0,0c0,0,0,0,0-0.1c0,0,0-0.1,0-0.1c0,0,0,0,0,0c0-0.1,0-0.2,0-0.3c0.1,0,0.2,0,0.3,0
		c1.5,0,3,0,4.5,0c0.1,0,0.2,0.1,0.2-0.1c0.1,0,0.2-0.1,0.2-0.3c0-0.4-0.5-1-0.9-1c-0.3,0-0.5-0.2-0.7-0.4C8.8,7.5,8.3,7.2,7.7,7
		C7.5,7,7.4,6.9,7.5,6.7c0.1-0.4,0-0.7-0.3-0.9C7,5.6,6.5,5.6,6.3,5.8C6,6,5.9,6.3,6,6.7C6,6.9,6,7,5.8,7c-0.2,0.1-0.3,0-0.3-0.2
		c0-1.2,0-2.5,0-3.7c0-0.8,0.3-1.5,1.1-1.9C6.8,1.1,6.9,1.1,7,1.1c1.9,0,3.9,0,5.8,0c0.1,0,0.2,0,0.2,0C13.2,1,13.3,1,13.4,1z"/>
	<path class="st8" d="M17.1,9.5c-0.9-0.4-1.6-1-2-1.9c-0.6-1.6,0-3.4,1.6-4.2c1.4-0.7,3.1-0.3,4,0.9c0.9,1,1,2.2,0.5,3.5
		c-0.5,1.1-1.3,1.7-2.5,2c0,0-0.1,0-0.2,0c0.1-0.3,0.1-0.5,0.3-0.8c0.1-0.1,0.1-0.2,0.3-0.2c0.7-0.3,1.2-0.8,1.4-1.6
		C21,5.7,20.3,4.4,18.8,4c-0.6-0.1-1.2-0.1-1.7,0.2c-1,0.6-1.6,1.6-1.2,2.9c0.2,0.6,0.5,1.1,1.1,1.4c0.2,0.1,0.4,0.1,0.5,0.3
		C17.4,9.1,17.3,9.3,17.1,9.5z"/>
	<path class="st9" d="M17.5,8.8c-0.1-0.2-0.3-0.2-0.5-0.3c-0.6-0.3-0.9-0.8-1.1-1.4c-0.4-1.3,0.2-2.3,1.2-2.9
		c0.5-0.3,1.1-0.3,1.7-0.2c1.5,0.4,2.1,1.7,1.8,3.1c-0.2,0.8-0.7,1.3-1.4,1.6c-0.1,0.1-0.2,0.1-0.3,0.2C18.5,8.7,18,8.8,17.5,8.8z
		 M19.3,6.7c0-0.5-0.3-1-0.7-1.5c-0.4-0.7-0.4-0.6-0.8,0c-0.4,0.6-0.7,1.2-0.7,1.9c0,0.7,0.7,1.3,1.4,1.1C19,8,19.3,7.5,19.3,6.7z"
		/>
	<path class="st9" d="M22.1,19C22.1,19,22.1,19,22.1,19c0,0.2-0.1,0.1-0.2,0.1c-3.9,0-7.9,0-11.8,0c-0.1,0-0.2,0-0.3-0.1
		c4,0,7.9,0,11.9,0C21.9,19.1,22,19.1,22.1,19z"/>
	<path class="st10" d="M22.1,19c-0.1,0.1-0.2,0-0.3,0c-4,0-7.9,0-11.9,0c0,0,0,0,0,0c0.1,0,0.1,0,0.2,0c4,0,7.9,0,11.9,0
		C22,19,22,19,22.1,19z"/>
	<path class="st11" d="M13.1,1c-0.1,0.1-0.2,0-0.2,0c-1.9,0-3.9,0-5.8,0C7.1,1,7.1,1,7.2,1C9.2,1,11.1,1,13.1,1z"/>
	<path class="st5" d="M10.6,9.7c0,0.2-0.2,0.1-0.2,0.1c-1.5,0-3,0-4.5,0c-0.1,0-0.2,0-0.3,0c0,0,0-0.1,0-0.1c1.6,0,3.2,0,4.8,0
		C10.4,9.8,10.5,9.8,10.6,9.7C10.6,9.7,10.6,9.7,10.6,9.7z"/>
	<path class="st1" d="M10.6,9.7c-0.1,0.1-0.2,0.1-0.2,0.1c-1.6,0-3.2,0-4.8,0c0.1-0.1,0.1-0.1,0.2-0.1C7.4,9.7,9,9.7,10.6,9.7z"/>
	<path class="st6" d="M5.6,10.4c0.1,0,0.1,0,0.2,0C5.7,10.5,5.6,10.5,5.6,10.4z"/>
	<path class="st6" d="M5.5,10.1C5.6,10.2,5.6,10.2,5.5,10.1L5.5,10.1L5.5,10.1z"/>
	<path class="st6" d="M5.5,10.3C5.6,10.4,5.6,10.4,5.5,10.3C5.5,10.4,5.5,10.4,5.5,10.3C5.5,10.4,5.5,10.3,5.5,10.3z"/>
	<path class="st12" d="M19.3,6.7c0,0.8-0.3,1.3-0.8,1.4c-0.6,0.2-1.3-0.4-1.4-1.1c0-0.7,0.3-1.3,0.7-1.9c0.4-0.6,0.3-0.7,0.8,0
		C19,5.7,19.3,6.2,19.3,6.7z M17.7,7.2c0,0.4,0.2,0.7,0.6,0.7c0.3,0,0.6-0.3,0.6-0.7c0-0.5-0.3-0.8-0.5-1.2c-0.1-0.1-0.1,0-0.2,0
		C17.9,6.4,17.6,6.7,17.7,7.2z"/>
	<path class="st1" d="M17.7,7.2c0-0.5,0.3-0.8,0.5-1.2c0-0.1,0.1-0.1,0.2,0c0.3,0.4,0.5,0.7,0.5,1.2c0,0.4-0.3,0.7-0.6,0.7
		C17.9,8,17.7,7.6,17.7,7.2z"/>
</g>
</svg>
