<svg id="Layer_1" data-name="Layer 1" xmlns="http://www.w3.org/2000/svg" viewBox="0 0 251.28 189.11"><defs><style>.cls-1{fill:#5e5fa2;}.cls-2{fill:#5f60a2;}</style></defs><title>laureles</title><path class="cls-1" d="M261.64,104.53c-1.38,2.47-2.69,5-4.14,7.4-2.65,4.43-5.8,8.44-10.27,11.21a19.8,19.8,0,0,1-14.75,2.45,21.33,21.33,0,0,1,2.29-8.42c2.64-5.2,7.12-8.15,12.41-10.08A64.38,64.38,0,0,1,261.64,104Z" transform="translate(-10.36 -11.81)"/><path class="cls-1" d="M200.44,11.81c3.49,1.79,7.07,3.42,10.45,5.4,4.55,2.67,8.39,6.15,10.63,11.09a19.72,19.72,0,0,1,1.43,11.64,21,21,0,0,1-10.82-3.18,21.51,21.51,0,0,1-8.77-11.9c-1.31-4-2.15-8.17-3.19-12.27a3.13,3.13,0,0,1,0-.78Z" transform="translate(-10.36 -11.81)"/><path class="cls-1" d="M219.53,86.13c2.11,2.34,4.09,4.41,5.93,6.6,3.44,4.09,6.25,8.53,7.37,13.85,1.09,5.13,0,9.85-2.65,14.45a21.44,21.44,0,0,1-8.73-6.82,20.18,20.18,0,0,1-3.64-9.84C217.1,98.3,218.23,92.4,219.53,86.13Z" transform="translate(-10.36 -11.81)"/><path class="cls-1" d="M147.46,182c.27-8.3,3.86-14.37,11-18.24,5.17-2.79,10.82-4.09,16.75-5.28-.76,1.8-1.41,3.44-2.14,5-2.26,5-4.9,9.67-9,13.4A19.8,19.8,0,0,1,147.46,182Z" transform="translate(-10.36 -11.81)"/><path class="cls-1" d="M180.17,174.88c-2.68-4.94-3.89-9.94-2.44-15.37a29.23,29.23,0,0,1,7-12c2.19-2.43,4.55-4.7,6.84-7l.36.14c.24,1.74.53,3.47.72,5.22.61,5.5.77,11-.91,16.37C189.92,168.16,186,172.24,180.17,174.88Z" transform="translate(-10.36 -11.81)"/><path class="cls-1" d="M42,121.3a20.18,20.18,0,0,1-3-12.52c.68-6.17,3.8-11.17,7.66-15.8,1.83-2.2,3.82-4.26,5.74-6.39l.5.13c.51,3.91,1.08,7.82,1.51,11.74a25,25,0,0,1-1.62,12.21C50.8,115.69,47,118.91,42,121.3Z" transform="translate(-10.36 -11.81)"/><path class="cls-1" d="M39.74,125.8a19.74,19.74,0,0,1-15-2.56c-4.83-3.06-8.06-7.55-10.85-12.4-1.2-2.07-2.25-4.23-3.54-6.65,1.61.23,2.92.4,4.22.61,5.81.93,11.51,2.21,16.5,5.55C36.53,114,39.06,119.28,39.74,125.8Z" transform="translate(-10.36 -11.81)"/><path class="cls-1" d="M244.44,149.37c-5.19,5.43-10.34,10.47-17.29,13.12-5.88,2.24-11.55,1.62-17.15-1.42a21,21,0,0,1,4.47-7,19.65,19.65,0,0,1,12.16-5.85C232.54,147.36,238.35,148.32,244.44,149.37Z" transform="translate(-10.36 -11.81)"/><path class="cls-1" d="M92,175.08a19.87,19.87,0,0,1-10.75-10.5c-2.11-5-2.37-10.18-2-15.45.2-2.74.6-5.46.92-8.23.22,0,.39,0,.46.06,4,3.73,8,7.48,10.92,12.16,4.2,6.68,4.73,13.55,1.2,20.67-.12.23-.24.46-.37.69S92.16,174.77,92,175.08Z" transform="translate(-10.36 -11.81)"/><path class="cls-1" d="M57.76,111.37c2.16,6.73,4.34,13.46,3.43,20.7-.83,6.6-4.5,11.3-10.12,14.77a20.06,20.06,0,0,1-4.29-10.27c-.65-6.18,1.52-11.61,4.65-16.72,1.82-3,3.92-5.75,5.89-8.62Z" transform="translate(-10.36 -11.81)"/><path class="cls-1" d="M62.23,161.28c-4.77,2.56-9.6,3.5-14.79,2.19-5.83-1.48-10.45-5-14.77-8.92-1.66-1.52-3.23-3.14-5-4.92,7.47-1.25,14.57-2.47,21.72-.4C55.61,151,59.61,155.28,62.23,161.28Z" transform="translate(-10.36 -11.81)"/><path class="cls-1" d="M214.5,110.77c4.93,6.37,9.45,12.51,10.77,20.35a19.61,19.61,0,0,1-4.21,15.44c-4.68-2.89-8.15-6.72-9.58-12.18s-.5-11.1.9-16.55C213,115.57,213.73,113.35,214.5,110.77Z" transform="translate(-10.36 -11.81)"/><path class="cls-1" d="M203.83,126.12c3.26,6.22,6.1,12.26,6.73,19.05s-1.71,12.59-6.87,17.33c-3.47-3.13-6-6.76-6.89-11.35a23.78,23.78,0,0,1,.93-11.76A72.72,72.72,0,0,1,203.83,126.12Z" transform="translate(-10.36 -11.81)"/><path class="cls-1" d="M239.41,106.33c-2.17-7.09-1.31-13.51,3.32-19.27,3.66-4.55,8.45-7.69,13.4-10.62.63-.37,1.26-.72,2.23-1.28-.34,3.13-.56,5.94-1,8.73a33.26,33.26,0,0,1-4.74,13.78C249.54,102.44,245,105.11,239.41,106.33Z" transform="translate(-10.36 -11.81)"/><path class="cls-1" d="M144.18,189.87c7.62-5.36,15.31-5.43,23.19-1.08a65.45,65.45,0,0,1,11.81,8.89,3.31,3.31,0,0,1,.33.52c-2.86.62-5.6,1.3-8.37,1.79-5.17.91-10.34,1.14-15.44-.45S146.89,194.55,144.18,189.87Z" transform="translate(-10.36 -11.81)"/><path class="cls-1" d="M72.11,12.26c-.3,1.57-.57,3.15-.92,4.72C70,22.46,68.42,27.82,65,32.4c-3.9,5.19-9.27,7.44-15.74,7.8a19.65,19.65,0,0,1,3.12-14.66,24.73,24.73,0,0,1,7.87-7.41c3.74-2.22,7.63-4.19,11.46-6.28Z" transform="translate(-10.36 -11.81)"/><path class="cls-1" d="M168.29,182.49c5.6-4.69,11.77-6.44,18.79-4.54,6.47,1.75,11.75,5.63,17.34,9.77-2.94.9-5.56,1.8-8.22,2.51-5,1.33-10.1,2.05-15.29,1C175.52,190.09,171.49,187,168.29,182.49Z" transform="translate(-10.36 -11.81)"/><path class="cls-1" d="M67.89,187.89c5.38-4,10.58-7.81,16.89-9.6,7.14-2,13.43-.33,19.1,4.43-3.53,5.11-8.18,8.24-14.33,9-6.75.85-13.08-.93-19.37-3C69.49,188.49,68.81,188.22,67.89,187.89Z" transform="translate(-10.36 -11.81)"/><path class="cls-1" d="M68.36,126.38c3.24,5.91,6.3,11.61,7.2,18.15,1,7.3-1.57,13.25-7.05,18.21A20.24,20.24,0,0,1,62,152a25,25,0,0,1,.68-12.3A65.62,65.62,0,0,1,68.36,126.38Z" transform="translate(-10.36 -11.81)"/><path class="cls-1" d="M32.79,106.55c-8-1.63-13.05-6.34-15.83-13.67C14.91,87.46,14.28,81.77,14,76a2.66,2.66,0,0,1,.14-.55c2.15,1.33,4.26,2.54,6.28,3.89C25.06,82.5,29.34,86,31.94,91.15,34.45,96.12,34.38,101.23,32.79,106.55Z" transform="translate(-10.36 -11.81)"/><path class="cls-1" d="M218.58,62.88c2,1.34,4,2.63,5.89,4,4.58,3.37,8.7,7.16,11.21,12.42,2.3,4.83,2.29,9.76.77,14.93-5.37-1.16-9.88-3.53-13-8.08-2.82-4.06-4-8.69-4.55-13.51-.35-3.16-.48-6.35-.71-9.52Z" transform="translate(-10.36 -11.81)"/><path class="cls-1" d="M97,158.67c7.25,1.54,14.24,3,20.13,7.52a19,19,0,0,1,7.44,13.35c.11.85.16,1.71.24,2.66A19.73,19.73,0,0,1,108,177c-4.4-4.06-7.11-9.24-9.48-14.62C98,161.26,97.54,160.09,97,158.67Z" transform="translate(-10.36 -11.81)"/><path class="cls-1" d="M53.92,63c-.13,6.67-.42,13-2.78,19-2.75,7-8,10.91-15.32,12.5a19.52,19.52,0,0,1-1-9.3,21.71,21.71,0,0,1,5.76-11.7C44.34,69.26,48.95,66.11,53.92,63Z" transform="translate(-10.36 -11.81)"/><path class="cls-1" d="M247.37,45.45a66.39,66.39,0,0,1,3.08,13.79A25.56,25.56,0,0,1,249,71.35,20.25,20.25,0,0,1,240.57,81a21.14,21.14,0,0,1-4.66-11.41,22.57,22.57,0,0,1,3.82-13.8c2.2-3.51,4.81-6.76,7.25-10.11C247,45.62,247.18,45.58,247.37,45.45Z" transform="translate(-10.36 -11.81)"/><path class="cls-1" d="M45.92,169.7c6.68-2.52,13.23-4.89,20.42-4.5a19.74,19.74,0,0,1,15.45,9.49A20.22,20.22,0,0,1,72,179.37,22.83,22.83,0,0,1,60,177.91,56.32,56.32,0,0,1,45.92,169.7Z" transform="translate(-10.36 -11.81)"/><path class="cls-1" d="M232.68,17.8a60.35,60.35,0,0,1,6.39,14.78,23.66,23.66,0,0,1,.25,11.8,20.44,20.44,0,0,1-6,9.8c-4-3.57-6.85-7.74-7.44-13.18-.73-6.64,1.64-12.56,4.35-18.38C231,21,231.8,19.52,232.68,17.8Z" transform="translate(-10.36 -11.81)"/><path class="cls-1" d="M128,190.09a20,20,0,0,1-15.4,10.55c-6.77.92-13.27-.57-20.1-2.34,2.07-1.74,3.87-3.35,5.76-4.84a35.69,35.69,0,0,1,12.17-6.77C116.83,184.85,122.57,186.34,128,190.09Z" transform="translate(-10.36 -11.81)"/><path class="cls-1" d="M31.62,81.27c-5.53-3.49-8.87-8.25-9.77-14.63s.5-12.51,2.23-18.58c.21-.75.46-1.5.78-2.53,1.08,1.35,2.07,2.53,3,3.75,3.32,4.31,6.34,8.8,7.77,14.15C37.39,70,35.72,75.83,31.62,81.27Z" transform="translate(-10.36 -11.81)"/><path class="cls-1" d="M38.87,54.41A20.08,20.08,0,0,1,32.49,36c.93-6.44,3.79-12.13,7-18,1.13,2.3,2.21,4.35,3.17,6.47a38.3,38.3,0,0,1,3.68,12.65C47,44.19,44.14,49.75,38.87,54.41Z" transform="translate(-10.36 -11.81)"/><path class="cls-1" d="M67.9,37.95C65.94,44.41,64,50.54,60,55.74c-4.5,5.86-10.53,8.22-17.9,7.79a18,18,0,0,1,.66-6.87A19.85,19.85,0,0,1,50.24,46C55.42,42,61.45,39.88,67.9,37.95Z" transform="translate(-10.36 -11.81)"/><path class="cls-1" d="M225.82,144.5c1.26-5.44,3.69-10,8.36-13.09A28.2,28.2,0,0,1,247,127.14c3.34-.37,6.7-.5,10.17-.74,0,.39,0,.58-.1.7-3.37,5.35-7,10.47-12.18,14.3C239.15,145.66,232.87,146.72,225.82,144.5Z" transform="translate(-10.36 -11.81)"/><path class="cls-1" d="M190.33,174.42c4.2-6.1,9.7-9.5,17.09-9.51,5.42,0,10.51,1.51,15.54,3.32,1.06.38,2.12.79,3.52,1.31-2.48,1.62-4.69,3.15-7,4.55a34.21,34.21,0,0,1-13.61,5.16C200,180,195,178.2,190.33,174.42Z" transform="translate(-10.36 -11.81)"/><path class="cls-1" d="M46.28,144.78c-5.93,1.79-11.53,1.45-16.86-1.73-5-3-8.66-7.42-12-12.14-.87-1.24-1.68-2.53-2.68-4,1.71,0,3.16-.06,4.61,0a46.51,46.51,0,0,1,13.77,2.32c7.09,2.56,11.29,7.65,13.07,14.87A5.5,5.5,0,0,1,46.28,144.78Z" transform="translate(-10.36 -11.81)"/><path class="cls-1" d="M204.53,37.79a66,66,0,0,1,12.76,5,26.61,26.61,0,0,1,9.06,7.42,19.84,19.84,0,0,1,3.79,13.06,21.14,21.14,0,0,1-7.54-.6c-6-1.58-9.95-5.62-12.88-10.83a65.22,65.22,0,0,1-5.29-13.66C204.41,38.09,204.47,38,204.53,37.79Z" transform="translate(-10.36 -11.81)"/><path class="cls-2" d="M140.88,186.79a4.82,4.82,0,0,1-4.87,4.92,5,5,0,0,1-4.88-4.84,4.88,4.88,0,0,1,4.93-4.89A4.76,4.76,0,0,1,140.88,186.79Z" transform="translate(-10.36 -11.81)"/></svg>