<svg version="1.1" id="Layer_1" xmlns="http://www.w3.org/2000/svg" x="0" y="0" viewBox="0 0 300 300" xml:space="preserve"><style/><path d="M245.9 141.4L191.6 108c-5.3-3.3-12.2-1.6-15.5 3.7-3.3 5.3-1.6 12.2 3.7 15.5l38.1 23.4-146.6 84V65.9l32.1 19.6c5.3 3.2 12.3 1.6 15.5-3.8 3.2-5.3 1.6-12.2-3.8-15.5l-49.2-30c-3.5-2.1-7.8-2.2-11.4-.2-3.6 2-5.8 5.8-5.8 9.8v208.3c0 4 2.1 7.7 5.6 9.8 1.7 1 3.7 1.5 5.6 1.5 1.9 0 3.9-.5 5.6-1.5l179.9-103.2c3.5-2 5.6-5.6 5.7-9.6.2-3.9-1.9-7.6-5.2-9.7zm-111.7-37.8l14.6 8.3c1.8 1 3.7 1.5 5.6 1.5 3.9 0 7.7-2 9.8-5.7 3.1-5.4 1.2-12.3-4.2-15.4L145.4 84c-5.4-3.1-12.3-1.2-15.4 4.2-3.1 5.5-1.2 12.4 4.2 15.4z"/></svg>