<svg version="1.1" id="Layer_1" xmlns="http://www.w3.org/2000/svg" x="0" y="0" viewBox="0 0 300 300" xml:space="preserve"><style/><path d="M53.1 85.4h193.8c6.7 0 12.1-5.4 12.1-12.1s-5.4-12.1-12.1-12.1H53.1c-6.7 0-12.1 5.4-12.1 12.1s5.4 12.1 12.1 12.1zm0 78.7h163.5c6.7 0 12.1-5.4 12.1-12.1 0-6.7-5.4-12.1-12.1-12.1H53.1c-6.7 0-12.1 5.4-12.1 12.1 0 6.7 5.4 12.1 12.1 12.1zm193.8 52.5H53.1c-6.7 0-12.1 5.4-12.1 12.1 0 6.7 5.4 12.1 12.1 12.1h193.8c6.7 0 12.1-5.4 12.1-12.1 0-6.7-5.4-12.1-12.1-12.1z"/></svg>