<svg version="1.1" id="Layer_1" xmlns="http://www.w3.org/2000/svg" x="0" y="0" viewBox="0 0 300 300" xml:space="preserve"><style>.st0{fill:#231f20}</style><path class="st0" d="M109.3 218.9c-1.3 0-2.5-.7-3.1-1.9-.5-1.1-1.9-5.2 3-13.4.8-1.3 1.5-2.4 2.1-3.4-4.9-.3-11.6-1.4-17-5-9.5-6.3-12.7-14.3-12.9-14.6-.7-1.8.2-3.8 1.9-4.5 1.8-.7 3.8.2 4.5 1.9 0 0 2.7 6.4 10.3 11.4 7.6 5 19.3 3.8 19.4 3.8 1.5-.2 2.8.6 3.5 1.9.6 1.3.4 2.9-.7 3.9 0 0-1.4 1.6-5.3 8-2.8 4.7-2.7 6.8-2.6 7.2.6 1.6-.1 3.5-1.7 4.3-.4.3-.9.4-1.4.4zm3-4.9zm0 0zm15.8 4.9c-1.9 0-3.4-1.5-3.4-3.4s1.3-7 13.2-14.5c11.6-7.2 14.3-9.3 14.3-17.4 0-1.9 1.5-3.4 3.4-3.4s3.4 1.5 3.4 3.4c0 12.2-6.2 16.1-17.5 23.2-8.5 5.3-9.8 8.6-10 9-.2 1.8-1.6 3.1-3.4 3.1zm3.4-3.4zm0 0z"/><path class="st0" d="M146.9 187.1c-21.5 0-28.2-9.2-28.9-10.2-1.1-1.6-.6-3.7 1-4.8 1.6-1.1 3.7-.6 4.8 1 0 0 5.4 7.2 23.2 7.2 19.2 0 25.6-3.9 29.4-7.7 1.3-1.3 5.2-6.1.9-13.2-3-5.1-11.8-8.8-23.5-9.9-13-1.3-26.6 2.5-31.7 8.9-6.6 8.2-19.1 9.9-19.6 9.9-1.9.2-3.6-1.1-3.8-3-.2-1.9 1.1-3.6 3-3.8.1 0 10.3-1.4 15.1-7.4 6.6-8.3 22.1-13 37.8-11.4 14 1.4 24.5 6.2 28.7 13.2 5.4 9 2.3 17.3-2 21.6-4.9 4.7-12.7 9.6-34.4 9.6z"/><path class="st0" d="M99.3 185.5c-10.7 0-19.4-4.5-24.7-13.1-8.5-13.4-1.6-23.8 1.4-28.3 3.6-5.4 11.4-7.1 12.3-7.3 1.9-.4 3.7.8 4 2.7.4 1.9-.8 3.7-2.7 4-1.5.3-6.3 1.8-8 4.3-2.8 4.2-7.5 11.2-1.4 20.9 7.4 11.8 20.8 10.5 28.1 8.6 9.7-2.4 13.5-12.3 13.5-12.4.7-1.8 2.6-2.7 4.4-2 1.8.7 2.7 2.6 2 4.4-.2.5-5.1 13.3-18.3 16.6-3.6 1.1-7.2 1.6-10.6 1.6z"/><path class="st0" d="M80.5 147.6c-1.2 0-2.4-.7-3-1.8-4.6-8.9-5.4-18.1-2.2-26.1 2.8-6.9 8.5-12.2 15.6-14.6 14.5-4.8 24.3 1.6 24.7 1.8 1.6 1.1 2 3.2 1 4.8-1 1.6-3.2 2-4.7 1-.4-.2-7.6-4.8-18.7-1.1-5.3 1.8-9.3 5.5-11.4 10.7-2.4 6.1-1.8 13.3 1.9 20.3.9 1.7.2 3.8-1.4 4.6-.7.3-1.3.4-1.8.4z"/><path class="st0" d="M94.8 153.8c-1.1 0-2.2-.6-2.9-1.6-9.4-14.8-1.6-25.7 3.9-29.3 1.6-1.1 3.7-.6 4.8 1 1 1.6.6 3.7-.9 4.7-1.1.7-9.9 7.4-1.9 19.9 1 1.6.5 3.7-1.1 4.7-.6.4-1.3.6-1.9.6zm2.9-44.9c-.3 0-.7 0-1-.1-1.8-.5-2.8-2.5-2.3-4.3.2-.7 5.1-16.4 19.9-19.7 14.9-3.3 28.9 13.5 29.5 14.2 1.2 1.5 1 3.6-.5 4.8-1.5 1.2-3.6 1-4.8-.5-.1-.1-11.9-14.3-22.7-11.9-10.9 2.4-14.8 14.9-14.8 15-.5 1.6-1.8 2.5-3.3 2.5z"/><path class="st0" d="M171.5 106c-1.2 0-2.4-.7-3-1.8-2.6-4.7-11.2-17-20.1-17-11.1 0-16.6 6-16.7 6-1.2 1.4-3.4 1.6-4.8.3-1.4-1.2-1.6-3.4-.3-4.8.3-.3 7.4-8.4 21.9-8.4 14.9 0 25.7 19.8 26.2 20.6.9 1.7.3 3.7-1.4 4.6-.7.4-1.2.5-1.8.5z"/><path class="st0" d="M194.7 110.4c-1.6 0-3-1.1-3.3-2.7-.7-3-3.6-11-8.8-11.8-7.5-1.3-14.9 2-15 2-1.7.8-3.8 0-4.5-1.7-.8-1.7 0-3.8 1.7-4.5.4-.2 9.3-4.1 18.9-2.5 10.8 1.8 14.2 16.5 14.4 17.1.4 1.9-.8 3.7-2.6 4.1-.3-.1-.6 0-.8 0z"/><path class="st0" d="M195.4 170c-4.1 0-8.6-.6-13.5-2-1.8-.5-2.9-2.4-2.4-4.2.5-1.8 2.4-2.9 4.2-2.4 17.4 4.9 28.4-1.5 32.6-8.5 3.9-6.6 9.2-19.3.2-30.9-8.8-11.3-21.1-10.3-21.6-10.3-19.2 2.6-26 22.1-26 22.3-.6 1.8-2.5 2.8-4.3 2.2-1.8-.6-2.8-2.5-2.2-4.3.3-1 8.2-23.8 31.8-26.9.8-.1 16.6-1.5 27.8 12.9 11.9 15.3 4.1 32.1.2 38.6-4.1 6.9-13.2 13.5-26.8 13.5zm-70.2-15.2h-.2c-11.2-.5-19.1-7.3-19.5-7.6-1.4-1.2-1.6-3.4-.3-4.8 1.2-1.4 3.4-1.6 4.8-.3.1.1 6.6 5.5 15.3 5.9 1.9.1 3.4 1.7 3.3 3.6-.1 1.7-1.6 3.2-3.4 3.2zm38.1 16.4c-2.3 0-6.8-.5-10.3-3.9-3-3-4.3-7.4-3.7-13 .2-1.9 1.9-3.3 3.8-3.1 1.9.2 3.3 1.9 3.1 3.8-.3 3.4.2 5.9 1.7 7.4 2.2 2.2 6.1 1.9 6.1 1.9 1.9-.2 3.6 1.2 3.8 3.1.2 1.9-1.1 3.6-3 3.8h-1.5z"/><path class="st0" d="M148.6 169.2c-10.8 0-17.1-7.6-17.4-8-1.2-1.5-1-3.6.5-4.8 1.5-1.2 3.6-1 4.8.5.3.4 6.8 8 17.7 4.5 1.8-.6 3.7.4 4.3 2.2.6 1.8-.4 3.7-2.2 4.3-2.8.9-5.4 1.3-7.7 1.3zm-4.8-19.8c-.8 0-1.6-.3-2.3-.9-13.6-12.1-7-27.3-1.6-33.7 1.2-1.4 3.4-1.6 4.8-.4 1.4 1.2 1.6 3.4.4 4.8-1.1 1.4-10.8 13.6.9 24.1 1.4 1.3 1.5 3.4.3 4.8-.6.9-1.5 1.3-2.5 1.3z"/><path class="st0" d="M133.7 132.2c-15.5 0-20.1-10.4-20.3-10.9-.7-1.7.1-3.8 1.8-4.5 1.7-.7 3.7.1 4.5 1.8.2.4 3.8 7.8 16.8 6.7 1.9-.2 3.6 1.2 3.7 3.1.2 1.9-1.2 3.6-3.1 3.7-1.2.1-2.3.1-3.4.1zm34.4-5.8c-9.9 0-14.7-8.2-15.8-12.9-.5-1.8.7-3.7 2.5-4.2s3.7.7 4.2 2.5c.2.9 2.5 8.6 10.7 7.6 1.9-.2 3.6 1.1 3.8 3 .2 1.9-1.1 3.6-3 3.8-.8.2-1.6.2-2.4.2zm15 16.4c-2 0-3.8-.3-5.3-.7-1.8-.5-2.9-2.4-2.4-4.2.5-1.8 2.4-2.9 4.2-2.4 1.3.3 13 2.9 17.6-10.8.6-1.8 2.5-2.8 4.3-2.2 1.8.6 2.8 2.5 2.2 4.3-4.2 12.6-13.5 16-20.6 16z"/><path class="st0" d="M203.4 156.7c-5.5 0-16.5-3.6-19.2-17.2-.4-1.9.8-3.7 2.7-4 1.9-.4 3.7.8 4 2.7 2.4 11.6 12.1 11.7 12.5 11.7 1.9 0 3.4 1.5 3.4 3.4s-1.5 3.4-3.4 3.4zM54.8 195.9c-.9 0-1.8-.3-2.4-1-24.8-24.8-24.8-65.1 0-89.9 1.3-1.3 3.5-1.3 4.9 0 1.3 1.3 1.3 3.5 0 4.9-22.1 22.1-22.1 58.1 0 80.2 1.3 1.3 1.3 3.5 0 4.9-.8.6-1.6.9-2.5.9z"/><path class="st0" d="M34.9 220.6c-.9 0-1.8-.3-2.4-1C13.9 201 3.7 176.3 3.7 150c0-26.3 10.2-51 28.8-69.5 1.3-1.3 3.5-1.3 4.9 0 1.3 1.3 1.3 3.5 0 4.9-17.3 17.3-26.8 40.3-26.8 64.7 0 24.4 9.5 47.4 26.8 64.7 1.3 1.3 1.3 3.5 0 4.9-.7.5-1.6.9-2.5.9zm210.4-24.7c-.9 0-1.8-.3-2.4-1-1.3-1.3-1.3-3.5 0-4.9 22.1-22.1 22.1-58.1 0-80.2-1.3-1.3-1.3-3.5 0-4.9 1.3-1.3 3.5-1.3 4.9 0 24.8 24.8 24.8 65.1 0 89.9-.8.8-1.6 1.1-2.5 1.1z"/><path class="st0" d="M265.1 220.6c-.9 0-1.8-.3-2.4-1-1.3-1.3-1.3-3.5 0-4.9 35.7-35.7 35.7-93.7 0-129.4-1.3-1.3-1.3-3.5 0-4.9 1.3-1.3 3.5-1.3 4.9 0 38.3 38.3 38.3 100.7 0 139.1-.7.7-1.6 1.1-2.5 1.1z"/></svg>