<svg version="1.1" id="Layer_1" xmlns="http://www.w3.org/2000/svg" x="0" y="0" viewBox="0 0 300 300" xml:space="preserve"><style/><path d="M226.4 41.5v-.1c0-10.3-8.4-18.7-18.7-18.7-10.3 0-18.7 8.4-18.7 18.7S197.4 60 207.7 60c6.6 0 12.4-3.4 15.7-8.6 8.3 4.5 26.8 16.7 26.8 37.5 0 27.4-11.5 46.5-22.8 61.5-10.3 13.7-29.4 28.5-46.9 28.5s-36.6-14.8-46.9-28.5c-11.3-15-22.8-34-22.8-61.5 0-20.8 18.4-33 26.8-37.5 3.3 5.2 9.1 8.6 15.7 8.6 10.3 0 18.7-8.4 18.7-18.7s-8.4-18.7-18.7-18.7-18.7 8.4-18.7 18.7v.1c-9.1 4.5-34 19.3-34 47.4 0 30.4 12.5 51.2 24.8 67.6 11.2 14.9 30.5 29.9 49.9 32.3v53c0 16.9-7.4 25.5-22.1 25.5-12.7 0-25.5-6.8-25.5-22.1v-37.4c0-8.1-8.6-18-17.1-21.1.1-.9.1-1.8.1-2.7 0-19.7-16-35.7-35.7-35.7s-35.7 16-35.7 35.7 16 35.7 35.7 35.7c15.2 0 28.1-9.5 33.3-22.9 4.1 2.1 9.2 7.8 9.2 11v37.4c0 19 14.7 32.3 35.7 32.3 20.5 0 32.3-13 32.3-35.7v-53c19.4-2.3 38.7-17.3 49.9-32.3 12.3-16.3 24.8-37.2 24.8-67.6.2-28-24.7-42.9-33.8-47.3zm-18.7 8.3c-4.7 0-8.5-3.8-8.5-8.5s3.8-8.5 8.5-8.5 8.5 3.8 8.5 8.5-3.8 8.5-8.5 8.5zm-54.3-17c4.7 0 8.5 3.8 8.5 8.5s-3.8 8.5-8.5 8.5-8.5-3.8-8.5-8.5 3.8-8.5 8.5-8.5zM75.3 209.4c-14 0-25.5-11.4-25.5-25.5 0-14 11.4-25.5 25.5-25.5s25.5 11.4 25.5 25.5-11.5 25.5-25.5 25.5zm0-39c-7.5 0-13.6 6.1-13.6 13.6s6.1 13.6 13.6 13.6 13.6-6.1 13.6-13.6-6.1-13.6-13.6-13.6z"/></svg>