<svg version="1.1" id="Layer_1" xmlns="http://www.w3.org/2000/svg" x="0" y="0" viewBox="0 0 300 300" xml:space="preserve"><style/><path d="M230.8 179.7c-34 40.7-82.4 68.1-93.9 74.2-7.5-4.1-31.5-17.6-65.7-43.3-36.5-27.4-53.5-58-53.5-96.4 0-19.9 9.3-41.4 23.7-54.8 7.5-7 19.8-15.1 36.7-13.9 36.6 2.4 54.2 24.2 54.4 24.4 1 1.3 2.5 2 4.1 2.1 1.5.1 3.2-.5 4.3-1.6.2-.2 25.2-24.9 51.8-24.9 30.1 0 44.8 18.2 50.9 29 10.2 18.3 15.1 34.4 10 62.6-.6 3 1.5 5.9 4.5 6.5 3 .6 5.9-1.5 6.5-4.5 5.7-31.4-.1-50.1-11.2-70.1-7.3-13-24.8-34.7-60.6-34.7-24.4 0-46.4 16.5-55.4 24.3-7.8-7.5-26.8-22.2-58.3-24.3C62.5 33.2 47 39 34 51.2c-16.5 15.5-27.2 40.2-27.2 63 0 41.6 19 76.1 58 105.3 42.4 31.8 68.8 45.1 69.9 45.7.8.4 1.6.6 2.5.6s1.7-.2 2.5-.6c2.4-1.2 59.9-30.3 100-78.4 2-2.4 1.7-5.9-.7-7.9-2.7-1.9-6.2-1.6-8.2.8zm50.7-31c-4 0-7.5 2-9.7 5H197L182.1 89c-.6-2.4-2.7-4.2-5.2-4.3-2.4-.1-4.8 1.4-5.6 3.8l-34.1 102.3-21.6-75.5c-.6-2.3-2.6-3.9-5-4-2.3-.1-4.5 1.2-5.5 3.3L88 153.7H62.5c-3.1 0-5.6 2.5-5.6 5.6s2.5 5.6 5.6 5.6h29.2c2.2 0 4.2-1.3 5.1-3.3l12.4-28.2 22.3 78c.7 2.4 2.8 4 5.3 4.1h.1c2.4 0 4.5-1.5 5.3-3.8L175.7 111l11.5 49.7c.6 2.5 2.8 4.3 5.4 4.3h77.8c1.7 4.5 6 7.7 11.1 7.7 6.6 0 11.9-5.3 11.9-11.9.1-6.7-5.3-12.1-11.9-12.1z"/></svg>