<svg version="1.1" id="Layer_1" xmlns="http://www.w3.org/2000/svg" x="0" y="0" viewBox="0 0 300 300" xml:space="preserve"><style/><path d="M261.8 38.3c-8.4-8.8-21.6-14.6-34.1-14.7h-.4c-10.5 0-19.3 3.9-25.5 11.4C189 50.2 85.9 153.5 65.4 174.1c-3.4 3.4-5.3 8-5.3 12.8V201c0 3.3-1 6.4-2.9 9.1-4.2 5.9-11.3 15-21.4 25.2-20.1 20.1-9.5 34.7-9.1 35.3.4.5.9.9 1.4 1.3.3.6.8 1.1 1.4 1.5.3.2 4.4 3.2 11 3.2 6.2 0 14.6-2.6 24.3-12.2C75 254 84.1 246.9 90 242.7c2.6-1.9 5.8-2.9 9.1-2.9h14.1c4.8 0 9.4-1.9 12.8-5.3C146.5 214.1 249.8 111 265.1 98.3c7.5-6.3 11.5-15.3 11.4-26-.2-12.4-6-25.6-14.7-34zm-3.2 52.2c-15.6 13-119.2 116.3-139.8 136.9-1.5 1.5-3.5 2.3-5.7 2.3h-14c-5.4 0-10.6 1.6-14.9 4.7-6.2 4.4-15.8 11.9-26.5 22.5-13.4 13.4-21.6 8.4-22.1 8.1-.1-.1-.3-.2-.4-.2-.1-.1-.1-.3-.2-.4-.2-.3-5.5-8.6 8.1-22.1 10.7-10.7 18.2-20.3 22.5-26.5 3.1-4.4 4.7-9.5 4.7-14.9v-14.1c0-2.1.8-4.2 2.3-5.7l11.9-11.9 10 10c1 1 2.3 1.5 3.6 1.5 1.3 0 2.6-.5 3.6-1.5 2-2 2-5.2 0-7.2l-10-10c8.2-8.3 18.1-18.2 28.7-28.9l11 11c1 1 2.3 1.5 3.6 1.5s2.6-.5 3.6-1.5c2-2 2-5.2 0-7.2l-11.1-11.1c9.4-9.5 19.1-19.4 28.5-28.9l12.7 12.7c1 1 2.3 1.5 3.6 1.5s2.6-.5 3.6-1.5c2-2 2-5.2 0-7.2L163 90c10-10.1 19.2-19.7 26.9-27.6.1.1.1.2.2.2L203 75.5c1 1 2.3 1.5 3.6 1.5 1.3 0 2.6-.5 3.6-1.5 2-2 2-5.2 0-7.2l-12.9-12.9c-.1-.1-.3-.2-.4-.3 6.1-6.4 10.6-11.3 12.7-13.8 5.4-6.5 12.8-7.7 18.1-7.7 8.7.1 18 3.8 24.6 9.4.2.3.5.6.8.8.6.5 1.1 1 1.6 1.5s1.1 1.1 1.5 1.6c.2.3.5.6.8.8 5.6 6.5 9.3 15.9 9.4 24.6 0 5.4-1.3 12.8-7.8 18.2zm-34.7-18.3L86.4 209.7c-2 2-2 5.2 0 7.2 1 1 2.3 1.5 3.6 1.5 1.3 0 2.6-.5 3.6-1.5L231.1 79.3c2-2 2-5.2 0-7.2-2-1.9-5.2-1.9-7.2.1z"/></svg>