<svg xmlns="http://www.w3.org/2000/svg" viewBox="0 0 667.8 642.2"><path d="M115.9 389.5c2.7-4.9 1.1-11.2-3.6-14.1-3.7-2.2-8.2-1.7-11.3 1.1l-31-18.8c.6-1.4.8-2.9.7-4.4l27.9-16.9c.8 1 1.7 1.9 2.8 2.6 4.7 2.8 10.8 1.2 13.5-3.7 2.7-4.9 1.1-11.2-3.6-14.1-.8-.5-1.6-.8-2.4-1l.1-35.7c2.4-.7 4.5-2.3 5.8-4.7 2.7-4.9 1.1-11.2-3.6-14.1-3.8-2.3-8.6-1.6-11.7 1.3l-30-18.2c1.9-4.7.2-10.2-4.1-12.8-4.7-2.8-10.8-1.2-13.5 3.7-1.6 2.8-1.7 6.1-.7 8.9l-30.6 18.2-1.5-1.2c-4.7-2.8-10.7-1.2-13.4 3.7-2.7 4.9-1.1 11.1 3.5 13.9.6.4 1.2.7 1.9.9l-.1 35.7c-2.2.8-4.1 2.3-5.3 4.5-2.7 4.9-1.1 11.1 3.5 13.9 4.6 2.8 10.4 1.2 13.2-3.4l28.4 17c-.6 2.3-.4 4.7.5 6.9l-29.8 17.8c-.5-.4-.9-.8-1.5-1.1-4.7-2.8-10.8-1.2-13.5 3.7-2.7 4.9-1.1 11.2 3.6 14.1.6.4 1.2.7 1.9.9l-.1 36c-2.2.8-4.1 2.3-5.3 4.5-2.7 4.9-1.1 11.2 3.6 14.1 4.6 2.8 10.5 1.2 13.3-3.4l28.2 16.8c-.9 4.3.9 8.8 4.7 11.1 4.7 2.8 10.8 1.2 13.5-3.7 1.1-2 1.5-4.1 1.3-6.2l28.3-17.1c.8 1 1.7 1.9 2.8 2.6 4.7 2.8 10.8 1.2 13.5-3.7 2.7-4.9 1.1-11.2-3.6-14.1-.8-.5-1.6-.8-2.4-1l.1-35.7c2.5-.8 4.6-2.4 6-4.8zm-92.2-57c1.3-4.4-.4-9.4-4.4-11.8-1.7-1-3.6-1.5-5.4-1.4l.1-34.6c3.5.1 7-1.7 8.9-5 1.9-3.4 1.7-7.6-.3-10.7l30-18c.8 1.1 1.8 2.1 3 2.8 4.3 2.6 9.8 1.4 12.8-2.6l29.7 18c-.1.1-.1.2-.2.3-2.7 4.9-1.1 11.2 3.6 14.1 1.6 1 3.4 1.4 5.1 1.4l-.1 35c-3.4 0-6.7 1.8-8.6 5.1-1.6 2.9-1.7 6.3-.5 9.2l-27.1 16.4c-.7-2.2-2.2-4.2-4.3-5.5-4.7-2.8-10.7-1.2-13.4 3.7v.1c-.1.2-.3.4-.4.7l-28.5-17.2zm83.6 97c-3.4 0-6.7 1.8-8.6 5.1-1.6 2.9-1.7 6.3-.5 9.2l-27.6 16.7c-.8-2.1-2.2-3.9-4.2-5.1-4.7-2.8-10.8-1.2-13.5 3.7-.1.1-.1.2-.2.4l-28-16.7c1.3-4.5-.4-9.4-4.5-11.9-1.7-1.1-3.7-1.5-5.6-1.4l.1-35c3.6.2 7.1-1.7 9-5.1 2-3.5 1.7-7.7-.4-10.9L52.7 361c.7 1 1.6 1.8 2.7 2.4 4.6 2.8 10.5 1.3 13.3-3.4L99 378.4c-.1.2-.3.4-.4.6-2.7 4.9-1.1 11.2 3.6 14.1 1.6 1 3.4 1.4 5.1 1.4v35zm405.6-76c2.7-4.9 1.1-11.2-3.6-14.1-3.7-2.2-8.2-1.7-11.3 1.1l-31-18.8c.6-1.4.8-2.9.7-4.4l27.9-16.9c.8 1 1.7 1.9 2.8 2.6 4.7 2.8 10.8 1.2 13.5-3.7 2.7-4.9 1.1-11.2-3.6-14.1-.8-.5-1.6-.8-2.4-1l.1-35.7c2.4-.7 4.5-2.3 5.8-4.7 2.7-4.9 1.1-11.2-3.6-14.1-3.8-2.3-8.6-1.6-11.7 1.3l-30-18.2c1.9-4.7.2-10.2-4.1-12.8-4.7-2.8-10.8-1.2-13.5 3.7-1.6 2.8-1.7 6.1-.7 8.9l-30.6 18.2-1.5-1.2c-4.7-2.8-10.7-1.2-13.4 3.7-2.7 4.9-1.1 11.1 3.5 13.9.6.4 1.2.7 1.9.9l-.1 35.7c-2.2.8-4.1 2.3-5.3 4.5-2.7 4.9-1.1 11.1 3.5 13.9 4.6 2.8 10.4 1.2 13.2-3.4l28.4 17c-.6 2.3-.4 4.7.5 6.9l-29.8 17.8c-.5-.4-.9-.8-1.5-1.1-4.7-2.8-10.8-1.2-13.5 3.7-2.7 4.9-1.1 11.2 3.6 14.1.6.4 1.2.7 1.9.9l-.1 36c-2.2.8-4.1 2.3-5.3 4.5-2.7 4.9-1.1 11.2 3.6 14.1 4.6 2.8 10.5 1.2 13.3-3.4l28.2 16.8c-.9 4.3.9 8.8 4.7 11.1 4.7 2.8 10.8 1.2 13.5-3.7 1.1-2 1.5-4.1 1.3-6.2l28.3-17.1c.8 1 1.7 1.9 2.8 2.6 4.7 2.8 10.8 1.2 13.5-3.7 2.7-4.9 1.1-11.2-3.6-14.1-.8-.5-1.6-.8-2.4-1l.1-35.7c2.5-.8 4.6-2.4 6-4.8zm-92.2-57c1.3-4.4-.4-9.4-4.4-11.8-1.7-1-3.6-1.5-5.4-1.4l.1-34.6c3.5.1 7-1.7 8.9-5 1.9-3.4 1.7-7.6-.3-10.7l30.1-17.9c.8 1.1 1.8 2.1 3 2.8 4.3 2.6 9.8 1.4 12.8-2.6l29.7 18c-.1.1-.1.2-.2.3-2.7 4.9-1.1 11.2 3.6 14.1 1.6 1 3.4 1.4 5.1 1.4l-.1 35c-3.4 0-6.7 1.8-8.6 5.1-1.6 2.9-1.7 6.3-.5 9.2l-27.1 16.4c-.7-2.2-2.2-4.2-4.3-5.5-4.7-2.8-10.7-1.2-13.4 3.7v.1c-.1.2-.3.4-.4.7l-28.6-17.3zm83.6 97c-3.4 0-6.7 1.8-8.6 5.1-1.6 2.9-1.7 6.3-.5 9.2l-27.6 16.7c-.8-2.1-2.2-3.9-4.2-5.1-4.7-2.8-10.8-1.2-13.5 3.7-.1.1-.1.2-.2.4l-28-16.7c1.3-4.5-.4-9.4-4.5-11.9-1.7-1.1-3.7-1.5-5.6-1.4l.1-35c3.6.2 7.1-1.7 9-5.1 2-3.5 1.7-7.7-.4-10.9l29.4-17.5c.7 1 1.6 1.8 2.7 2.4 4.6 2.8 10.5 1.3 13.3-3.4l30.3 18.4c-.1.2-.3.4-.4.6-2.7 4.9-1.1 11.2 3.6 14.1 1.6 1 3.4 1.4 5.1 1.4v35zm-121.4 159c2.7-4.9 1.1-11.2-3.6-14.1-3.7-2.2-8.2-1.7-11.3 1.1l-31-18.8c.6-1.4.8-2.9.7-4.4l27.9-16.9c.8 1 1.7 1.9 2.8 2.6 4.7 2.8 10.8 1.2 13.5-3.7 2.7-4.9 1.1-11.2-3.6-14.1-.8-.5-1.6-.8-2.4-1l.1-35.7c2.4-.7 4.5-2.3 5.8-4.7 2.7-4.9 1.1-11.2-3.6-14.1-3.8-2.3-8.6-1.6-11.7 1.3l-30-18.2c1.9-4.7.2-10.2-4.1-12.8-4.7-2.8-10.8-1.2-13.5 3.7-1.6 2.8-1.7 6.1-.7 8.9l-30.6 18.2-1.5-1.2c-4.7-2.8-10.7-1.2-13.4 3.7-2.7 4.9-1.1 11.1 3.5 13.9.6.4 1.2.7 1.9.9l-.1 35.7c-2.2.8-4.1 2.3-5.3 4.5-2.7 4.9-1.1 11.1 3.5 13.9 4.6 2.8 10.4 1.2 13.2-3.4l28.4 17c-.6 2.3-.4 4.7.5 6.9l-29.8 17.8c-.5-.4-.9-.8-1.5-1.1-4.7-2.8-10.8-1.2-13.5 3.7-2.7 4.9-1.1 11.2 3.6 14.1.6.4 1.2.7 1.9.9l-.1 36c-2.2.8-4.1 2.3-5.3 4.5-2.7 4.9-1.1 11.2 3.6 14.1 4.6 2.8 10.5 1.2 13.3-3.4l28.2 16.8c-.9 4.3.9 8.8 4.7 11.1 4.7 2.8 10.8 1.2 13.5-3.7 1.1-2 1.5-4.1 1.3-6.2l28.3-17.1c.8 1 1.7 1.9 2.8 2.6 4.7 2.8 10.8 1.2 13.5-3.7 2.7-4.9 1.1-11.2-3.6-14.1-.8-.5-1.6-.8-2.4-1l.1-35.7c2.5-.8 4.6-2.4 6-4.8zm-92.2-57c1.3-4.4-.4-9.4-4.4-11.8-1.7-1-3.6-1.5-5.4-1.4l.1-34.6c3.5.1 7-1.7 8.9-5 1.9-3.4 1.7-7.6-.3-10.7l30.1-17.9c.8 1.1 1.8 2.1 3 2.8 4.3 2.6 9.8 1.4 12.8-2.6l29.7 18c-.1.1-.1.2-.2.3-2.7 4.9-1.1 11.2 3.6 14.1 1.6 1 3.4 1.4 5.1 1.4l-.1 35c-3.4 0-6.7 1.8-8.6 5.1-1.6 2.9-1.7 6.3-.5 9.2l-27.1 16.4c-.7-2.2-2.2-4.2-4.3-5.5-4.7-2.8-10.7-1.2-13.4 3.7v.1c-.1.2-.3.4-.4.7l-28.6-17.3zm83.6 97c-3.4 0-6.7 1.8-8.6 5.1-1.6 2.9-1.7 6.3-.5 9.2l-27.6 16.7c-.8-2.1-2.2-3.9-4.2-5.1-4.7-2.8-10.8-1.2-13.5 3.7-.1.1-.1.2-.2.4l-28-16.7c1.3-4.5-.4-9.4-4.5-11.9-1.7-1.1-3.7-1.5-5.6-1.4l.1-35c3.6.2 7.1-1.7 9-5.1 2-3.5 1.7-7.7-.4-10.9l29.4-17.5c.7 1 1.6 1.8 2.7 2.4 4.6 2.8 10.5 1.3 13.3-3.4l30.3 18.4c-.1.2-.3.4-.4.6-2.7 4.9-1.1 11.2 3.6 14.1 1.6 1 3.4 1.4 5.1 1.4v35zm-120.4-115c2.7-4.9 1.1-11.2-3.6-14.1-3.7-2.2-8.2-1.7-11.3 1.1l-31-18.8c.6-1.4.8-2.9.7-4.4l27.9-16.9c.8 1 1.7 1.9 2.8 2.6 4.7 2.8 10.8 1.2 13.5-3.7 2.7-4.9 1.1-11.2-3.6-14.1-.8-.5-1.6-.8-2.4-1l.1-35.7c2.4-.7 4.5-2.3 5.8-4.7 2.7-4.9 1.1-11.2-3.6-14.1-3.8-2.3-8.6-1.6-11.7 1.3l-30-18.2c1.9-4.7.2-10.2-4.1-12.8-4.7-2.8-10.8-1.2-13.5 3.7-1.6 2.8-1.7 6.1-.7 8.9l-30.6 18.2-1.5-1.2c-4.7-2.8-10.7-1.2-13.4 3.7-2.7 4.9-1.1 11.1 3.5 13.9.6.4 1.2.7 1.9.9l-.1 35.7c-2.2.8-4.1 2.3-5.3 4.5-2.7 4.9-1.1 11.1 3.5 13.9 4.6 2.8 10.4 1.2 13.2-3.4l28.4 17c-.6 2.3-.4 4.7.5 6.9l-29.8 17.8c-.5-.4-.9-.8-1.5-1.1-4.7-2.8-10.8-1.2-13.5 3.7-2.7 4.9-1.1 11.2 3.6 14.1.6.4 1.2.7 1.9.9l-.1 36c-2.2.8-4.1 2.3-5.3 4.5-2.7 4.9-1.1 11.2 3.6 14.1 4.6 2.8 10.5 1.2 13.3-3.4l28.2 16.8c-.9 4.3.9 8.8 4.7 11.1 4.7 2.8 10.8 1.2 13.5-3.7 1.1-2 1.5-4.1 1.3-6.2l28.3-17.1c.8 1 1.7 1.9 2.8 2.6 4.7 2.8 10.8 1.2 13.5-3.7 2.7-4.9 1.1-11.2-3.6-14.1-.8-.5-1.6-.8-2.4-1l.1-35.7c2.5-.8 4.6-2.4 6-4.8zm-92.2-57c1.3-4.4-.4-9.4-4.4-11.8-1.7-1-3.6-1.5-5.4-1.4l.1-34.6c3.5.1 7-1.7 8.9-5 1.9-3.4 1.7-7.6-.3-10.7l30.1-17.9c.8 1.1 1.8 2.1 3 2.8 4.3 2.6 9.8 1.4 12.8-2.6l29.7 18c-.1.1-.1.2-.2.3-2.7 4.9-1.1 11.2 3.6 14.1 1.6 1 3.4 1.4 5.1 1.4l-.1 35c-3.4 0-6.7 1.8-8.6 5.1-1.6 2.9-1.7 6.3-.5 9.2l-27.1 16.4c-.7-2.2-2.2-4.2-4.3-5.5-4.7-2.8-10.7-1.2-13.4 3.7v.1c-.1.2-.3.4-.4.7l-28.6-17.3zm83.6 97c-3.4 0-6.7 1.8-8.6 5.1-1.6 2.9-1.7 6.3-.5 9.2l-27.6 16.7c-.8-2.1-2.2-3.9-4.2-5.1-4.7-2.8-10.8-1.2-13.5 3.7-.1.1-.1.2-.2.4l-28-16.7c1.3-4.5-.4-9.4-4.5-11.9-1.7-1.1-3.7-1.5-5.6-1.4l.1-35c3.6.2 7.1-1.7 9-5.1 2-3.5 1.7-7.7-.4-10.9l29.4-17.5c.7 1 1.6 1.8 2.7 2.4 4.6 2.8 10.5 1.3 13.3-3.4l30.3 18.4c-.1.2-.3.4-.4.6-2.7 4.9-1.1 11.2 3.6 14.1 1.6 1 3.4 1.4 5.1 1.4v35zM142.8 260.6c-2.7 4.9-1.1 11.2 3.6 14.1 4.6 2.8 10.5 1.2 13.3-3.4l28.2 16.8c-.9 4.3.9 8.8 4.7 11.1 4.7 2.8 10.8 1.2 13.5-3.7 1.1-2 1.5-4.1 1.3-6.2l28.3-17.1c.8 1 1.7 1.9 2.8 2.6 4.7 2.8 10.8 1.2 13.5-3.7 2.7-4.9 1.1-11.2-3.6-14.1-.8-.5-1.6-.8-2.4-1l.1-35.7c2.4-.7 4.5-2.3 5.8-4.7 2.7-4.9 1.1-11.2-3.6-14.1-3.7-2.2-8.2-1.7-11.3 1.1l-31-18.8c1.9-4.6.2-10.1-4.1-12.7-4.7-2.8-10.7-1.2-13.4 3.7v.1c-.2.2-.3.5-.4.7-1.6 2.9-1.7 6.4-.5 9.3l-29.8 17.8c-.5-.4-.9-.8-1.5-1.1-4.7-2.8-10.8-1.2-13.5 3.7-2.7 4.9-1.1 11.2 3.6 14.1.6.4 1.2.7 1.9.9l-.1 36c-2.2.6-4.1 2.1-5.4 4.3zm8.1-40c3.6.2 7.1-1.7 9-5.1 2-3.5 1.7-7.7-.4-10.9l29.4-17.5c.7 1 1.6 1.8 2.7 2.4 4.6 2.8 10.5 1.3 13.3-3.4l30.3 18.4c-.1.2-.3.4-.4.6-2.7 4.9-1.1 11.2 3.6 14.1 1.6 1 3.4 1.4 5.1 1.4l-.1 35c-3.4 0-6.7 1.8-8.6 5.1-1.6 2.9-1.7 6.3-.5 9.2l-27.6 16.7c-.8-2.1-2.2-3.9-4.2-5.1-4.7-2.8-10.8-1.2-13.5 3.7-.1.1-.1.2-.2.4l-28-16.7c1.3-4.5-.4-9.4-4.5-11.9-1.7-1.1-3.7-1.5-5.6-1.4l.2-35zm119.9 118c-2.7 4.9-1.1 11.2 3.6 14.1 4.6 2.8 10.5 1.2 13.3-3.4l28.2 16.8c-.9 4.3.9 8.8 4.7 11.1 4.7 2.8 10.8 1.2 13.5-3.7 1.1-2 1.5-4.1 1.3-6.2l28.3-17.1c.8 1 1.7 1.9 2.8 2.6 4.7 2.8 10.8 1.2 13.5-3.7 2.7-4.9 1.1-11.2-3.6-14.1-.8-.5-1.6-.8-2.4-1l.1-35.7c2.4-.7 4.5-2.3 5.8-4.7 2.7-4.9 1.1-11.2-3.6-14.1-3.7-2.2-8.2-1.7-11.3 1.1l-31-18.8c1.9-4.6.2-10.1-4.1-12.7-4.7-2.8-10.7-1.2-13.4 3.7v.1c-.2.2-.3.5-.4.7-1.6 2.9-1.7 6.4-.5 9.3l-29.8 17.8c-.5-.4-.9-.8-1.5-1.1-4.7-2.8-10.8-1.2-13.5 3.7-2.7 4.9-1.1 11.2 3.6 14.1.6.4 1.2.7 1.9.9l-.1 36c-2.2.6-4.1 2.1-5.4 4.3zm8.1-40c3.6.2 7.1-1.7 9-5.1 2-3.5 1.7-7.7-.4-10.9l29.4-17.5c.7 1 1.6 1.8 2.7 2.4 4.6 2.8 10.5 1.3 13.3-3.4l30.3 18.4c-.1.2-.3.4-.4.6-2.7 4.9-1.1 11.2 3.6 14.1 1.6 1 3.4 1.4 5.1 1.4l-.1 35c-3.4 0-6.7 1.8-8.6 5.1-1.6 2.9-1.7 6.3-.5 9.2l-27.6 16.7c-.8-2.1-2.2-3.9-4.2-5.1-4.7-2.8-10.8-1.2-13.5 3.7-.1.1-.1.2-.2.4l-28-16.7c1.3-4.5-.4-9.4-4.5-11.9-1.7-1.1-3.7-1.5-5.6-1.4l.2-35zM399.3 91.9c-.8-.5-1.6-.8-2.4-1l.1-35.7c2.4-.7 4.5-2.3 5.8-4.7 2.7-4.9 1.1-11.2-3.6-14.1-3.7-2.2-8.2-1.7-11.3 1.1l-31-18.8c1.9-4.6.2-10.1-4.1-12.7-4.7-2.8-10.7-1.2-13.4 3.7v.1c-.2.2-.3.5-.4.7-1.6 2.9-1.7 6.4-.5 9.3l-29.8 17.8c-.5-.4-.9-.8-1.5-1.1-4.7-2.8-10.8-1.2-13.5 3.7-2.7 4.9-1.1 11.2 3.6 14.1.6.4 1.2.7 1.9.9l-.1 36c-2.2.8-4.1 2.3-5.3 4.5-2.7 4.9-1.1 11.2 3.6 14.1 4.6 2.8 10.5 1.2 13.3-3.4l28.2 16.8c-.9 4.3.9 8.8 4.7 11.1 4.7 2.8 10.8 1.2 13.5-3.7 1.1-2 1.5-4.1 1.3-6.2l28.3-17.1c.8 1 1.7 1.9 2.8 2.6 4.7 2.8 10.8 1.2 13.5-3.7 2.6-5.1 1-11.4-3.7-14.3zm-5-1.4c-3.4 0-6.7 1.8-8.6 5.1-1.6 2.9-1.7 6.3-.5 9.2l-27.6 16.7c-.8-2.1-2.2-3.9-4.2-5.1-4.7-2.8-10.8-1.2-13.5 3.7-.1.1-.1.2-.2.4l-28-16.7c1.3-4.5-.4-9.4-4.5-11.9-1.7-1.1-3.7-1.5-5.6-1.4l.1-35c3.6.2 7.1-1.7 9-5.1 2-3.5 1.7-7.7-.4-10.9L339.7 22c.7 1 1.6 1.8 2.7 2.4 4.6 2.8 10.5 1.3 13.3-3.4L386 39.4c-.1.2-.3.4-.4.6-2.7 4.9-1.1 11.2 3.6 14.1 1.6 1 3.4 1.4 5.1 1.4v35zm264 379.4c-.8-.5-1.6-.8-2.4-1l.1-35.7c2.4-.7 4.5-2.3 5.8-4.7 2.7-4.9 1.1-11.2-3.6-14.1-3.7-2.2-8.2-1.7-11.3 1.1l-31-18.8c1.9-4.6.2-10.1-4.1-12.7-4.7-2.8-10.7-1.2-13.4 3.7v.1c-.2.2-.3.5-.4.7-1.6 2.9-1.7 6.4-.5 9.3l-29.8 17.8c-.5-.4-.9-.8-1.5-1.1-4.7-2.8-10.8-1.2-13.5 3.7-2.7 4.9-1.1 11.2 3.6 14.1.6.4 1.2.7 1.9.9l-.1 36c-2.2.8-4.1 2.3-5.3 4.5-2.7 4.9-1.1 11.2 3.6 14.1 4.6 2.8 10.5 1.2 13.3-3.4l28.2 16.8c-.9 4.3.9 8.8 4.7 11.1 4.7 2.8 10.8 1.2 13.5-3.7 1.1-2 1.5-4.1 1.3-6.2l28.3-17.1c.8 1 1.7 1.9 2.8 2.6 4.7 2.8 10.8 1.2 13.5-3.7 2.6-5.1 1-11.4-3.7-14.3zm-5-1.4c-3.4 0-6.7 1.8-8.6 5.1-1.6 2.9-1.7 6.3-.5 9.2l-27.6 16.7c-.8-2.1-2.2-3.9-4.2-5.1-4.7-2.8-10.8-1.2-13.5 3.7-.1.1-.1.2-.2.4l-28-16.7c1.3-4.5-.4-9.4-4.5-11.9-1.7-1.1-3.7-1.5-5.6-1.4l.1-35c3.6.2 7.1-1.7 9-5.1 2-3.5 1.7-7.7-.4-10.9l29.4-17.5c.7 1 1.6 1.8 2.7 2.4 4.6 2.8 10.5 1.3 13.3-3.4l30.3 18.4c-.1.2-.3.4-.4.6-2.7 4.9-1.1 11.2 3.6 14.1 1.6 1 3.4 1.4 5.1 1.4v35z" opacity=".1" fill="#4c66af"/></svg>