<?xml version="1.0" encoding="utf-8"?>
<!-- Generator: Adobe Illustrator 21.0.0, SVG Export Plug-In . SVG Version: 6.00 Build 0)  -->
<svg version="1.1" id="Layer_1" xmlns="http://www.w3.org/2000/svg" xmlns:xlink="http://www.w3.org/1999/xlink" x="0px" y="0px"
	 viewBox="0 0 199 47" style="enable-background:new 0 0 199 47;" xml:space="preserve">
<style type="text/css">
	.st0{fill:#7B8FC2;}
	.st1{fill:#453D40;}
</style>
<g>
	<path class="st0" d="M75.2,41h1.8c0,1.1,0.3,1.9,1,2.5c0.6,0.6,1.5,1,2.5,1c1.1,0,1.9-0.2,2.5-0.7c0.6-0.5,1-1.1,1-1.9
		c0-0.7-0.4-1.3-1.1-1.7c-0.6-0.3-1.3-0.6-2.4-0.7c-1.4-0.2-2.5-0.7-3.4-1.4c-1-0.8-1.5-1.7-1.5-2.8c0-1.1,0.4-2,1.3-2.7
		c0.9-0.7,2.1-1,3.6-1c1.5,0,2.7,0.4,3.6,1.2c0.9,0.8,1.3,1.9,1.3,3.2h-1.7c-0.2-0.9-0.5-1.6-1.1-2.1c-0.6-0.5-1.3-0.8-2.1-0.8
		c-1,0-1.7,0.2-2.3,0.6c-0.6,0.4-0.9,0.9-0.9,1.6c0,0.7,0.3,1.3,1,1.8c0.6,0.4,1.3,0.7,2.2,0.9c1.5,0.3,2.7,0.7,3.6,1.2
		c1.1,0.7,1.7,1.6,1.7,2.7c0,1.3-0.5,2.4-1.4,3.2c-1,0.8-2.2,1.2-3.8,1.2c-1.6,0-2.9-0.5-3.8-1.4C75.6,43.8,75.2,42.5,75.2,41"/>
	<path class="st0" d="M91.6,38.7c0-2.2,0.5-4,1.6-5.3c1.1-1.3,2.5-2,4.2-2c1.4,0,2.5,0.4,3.5,1.3c1,0.9,1.6,2,1.7,3.3h-1.8
		c-0.1-0.9-0.5-1.6-1.1-2.2C99,33.3,98.2,33,97.3,33c-1.3,0-2.3,0.6-3,1.8c-0.7,1.1-1,2.4-1,3.9c0,1.5,0.3,2.8,1,3.8
		c0.8,1.2,1.8,1.7,3,1.7c1,0,1.9-0.3,2.5-0.9c0.6-0.6,1-1.4,1-2.5h1.8c0,1.5-0.5,2.7-1.4,3.6c-1,0.9-2.2,1.4-3.8,1.4
		c-1.7,0-3.1-0.7-4.2-2C92.1,42.6,91.6,40.9,91.6,38.7"/>
	<rect x="109.1" y="31.7" class="st0" width="1.8" height="14"/>
	<polygon class="st0" points="119.2,45.7 119.2,31.7 128.8,31.7 128.8,33.4 120.9,33.4 120.9,37.7 127.9,37.7 127.9,39.3 
		120.9,39.3 120.9,44.1 128.8,44.1 128.8,45.7 	"/>
	<polygon class="st0" points="135.3,45.7 135.3,31.7 137.1,31.7 144.1,42.8 144.1,31.7 145.8,31.7 145.8,45.7 144.1,45.7 
		137.1,34.7 137.1,45.7 	"/>
	<path class="st0" d="M152,38.7c0-2.2,0.5-4,1.6-5.3c1.1-1.3,2.5-2,4.2-2c1.4,0,2.5,0.4,3.5,1.3c1,0.9,1.6,2,1.7,3.3h-1.8
		c-0.1-0.9-0.5-1.6-1.1-2.2c-0.7-0.6-1.5-0.9-2.4-0.9c-1.3,0-2.3,0.6-3,1.8c-0.7,1.1-1,2.4-1,3.9c0,1.5,0.3,2.8,1,3.8
		c0.8,1.2,1.8,1.7,3,1.7c1,0,1.9-0.3,2.5-0.9c0.6-0.6,1-1.4,1-2.5h1.8c0,1.5-0.5,2.7-1.4,3.6c-1,0.9-2.2,1.4-3.8,1.4
		c-1.7,0-3.1-0.7-4.2-2C152.6,42.6,152,40.9,152,38.7"/>
	<polygon class="st0" points="169.6,45.7 169.6,31.7 179.2,31.7 179.2,33.4 171.3,33.4 171.3,37.7 178.3,37.7 178.3,39.3 
		171.3,39.3 171.3,44.1 179.2,44.1 179.2,45.7 	"/>
	<path class="st0" d="M184.9,41h1.8c0,1.1,0.3,1.9,1,2.5c0.6,0.6,1.5,1,2.5,1c1.1,0,1.9-0.2,2.5-0.7c0.6-0.5,1-1.1,1-1.9
		c0-0.7-0.4-1.3-1.1-1.7c-0.6-0.3-1.3-0.6-2.4-0.7c-1.4-0.2-2.5-0.7-3.4-1.4c-1-0.8-1.5-1.7-1.5-2.8c0-1.1,0.4-2,1.3-2.7
		c0.9-0.7,2.1-1,3.6-1c1.5,0,2.7,0.4,3.6,1.2c0.9,0.8,1.3,1.9,1.3,3.2h-1.8c-0.2-0.9-0.5-1.6-1.1-2.1c-0.6-0.5-1.3-0.8-2.1-0.8
		c-1,0-1.7,0.2-2.3,0.6c-0.6,0.4-0.9,0.9-0.9,1.6c0,0.7,0.3,1.3,1,1.8c0.6,0.4,1.3,0.7,2.2,0.9c1.5,0.3,2.7,0.7,3.6,1.2
		c1.1,0.7,1.7,1.6,1.7,2.7c0,1.3-0.5,2.4-1.4,3.2c-1,0.8-2.2,1.2-3.8,1.2c-1.6,0-2.9-0.5-3.8-1.4C185.3,43.8,184.9,42.5,184.9,41"/>
	<path class="st1" d="M7.7,15.3V23c0,0.6,0.3,1,0.8,1.2c0.6,0.2,1.4,0.4,2.5,0.6c0.3,0.1,0.5,0.3,0.5,0.6c0,0.2,0,0.4-0.1,0.6
		c-0.7,0-1.6-0.1-2.5-0.1c-0.9,0-1.9-0.1-3-0.1c-0.7,0-1.4,0-2.2,0.1C2.8,26,2,26,1.3,26.1c-0.1-0.3-0.1-0.5-0.1-0.6
		c0-0.4,0.1-0.6,0.4-0.6c1-0.2,1.7-0.4,2-0.6c0.3-0.2,0.5-0.5,0.5-1V4.1C4.1,3.6,4,3.2,3.6,3C3.2,2.7,2.5,2.6,1.5,2.4
		c-0.3,0-0.4-0.3-0.4-0.7c0-0.2,0-0.4,0.1-0.6c0.7,0,1.5,0.1,2.2,0.1c0.8,0,1.5,0.1,2.2,0.1H11c2.7,0,4.7,0.6,6.1,1.9
		c1.4,1.3,2,2.9,2,5c0,0.8-0.2,1.6-0.5,2.4c-0.4,0.8-0.9,1.6-1.6,2.2c-0.7,0.7-1.5,1.2-2.6,1.6c-1,0.4-2.2,0.6-3.4,0.6H7.7z
		 M9.7,13.7c1.8,0,3.1-0.4,4.1-1.2c1-0.8,1.4-2.1,1.4-4c0-0.8-0.1-1.5-0.3-2.2c-0.2-0.7-0.5-1.3-0.9-1.8c-0.4-0.5-1-0.9-1.7-1.2
		c-0.7-0.3-1.6-0.5-2.6-0.5h-2v10.8H9.7z"/>
	<path class="st1" d="M43.4,23.2c0,0.5,0.2,0.8,0.5,1c0.3,0.2,1,0.4,2,0.6c0.2,0,0.4,0.2,0.4,0.5c0,0.2,0,0.4-0.1,0.7
		c-0.6,0-1.4-0.1-2.2-0.1c-0.9,0-1.6-0.1-2.3-0.1c-0.7,0-1.4,0-2.2,0.1c-0.8,0-1.6,0.1-2.3,0.1c-0.1-0.3-0.1-0.5-0.1-0.7
		c0-0.3,0.1-0.5,0.4-0.5c0.9-0.2,1.6-0.4,1.9-0.6c0.4-0.2,0.5-0.6,0.5-1.1v-9.1H28.1v9.1c0,0.5,0.2,0.8,0.5,1c0.3,0.2,1,0.4,2,0.6
		c0.3,0,0.4,0.2,0.4,0.5c0,0.2,0,0.4-0.1,0.7c-0.7,0-1.4-0.1-2.3-0.1c-0.9,0-1.6-0.1-2.3-0.1c-0.7,0-1.4,0-2.2,0.1
		c-0.8,0-1.6,0.1-2.3,0.1c0-0.3-0.1-0.5-0.1-0.7c0-0.3,0.1-0.5,0.4-0.5c1-0.2,1.6-0.4,2-0.6c0.4-0.2,0.5-0.6,0.5-1.1V4.1
		c0-0.2,0-0.5-0.1-0.6c-0.1-0.2-0.2-0.3-0.4-0.4c-0.2-0.1-0.4-0.2-0.7-0.3c-0.3-0.1-0.7-0.2-1.2-0.3c-0.2,0-0.4-0.2-0.4-0.6
		c0-0.2,0-0.4,0.1-0.6c0.6,0,1.4,0.1,2.2,0.1c0.8,0,1.6,0.1,2.3,0.1c0.7,0,1.4,0,2.2-0.1c0.8,0,1.5-0.1,2.3-0.1
		c0.1,0.2,0.1,0.5,0.1,0.6c0,0.4-0.1,0.6-0.4,0.6c-1,0.1-1.6,0.3-1.9,0.6c-0.3,0.2-0.5,0.6-0.5,1.1v8.4h11.8V4.1
		c0-0.4-0.2-0.8-0.5-1c-0.3-0.3-0.9-0.5-1.9-0.6c-0.3,0-0.4-0.2-0.4-0.6c0-0.2,0-0.4,0.1-0.6c0.6,0,1.4,0.1,2.2,0.1
		c0.8,0,1.6,0.1,2.3,0.1c0.7,0,1.4,0,2.2-0.1c0.8,0,1.5-0.1,2.3-0.1c0.1,0.2,0.1,0.5,0.1,0.6c0,0.4-0.1,0.6-0.4,0.6
		c-1,0.1-1.6,0.3-1.9,0.6c-0.3,0.2-0.5,0.6-0.5,1.1V23.2z"/>
	<path class="st1" d="M57.4,2.9v9.6h5.9c0.5,0,0.9-0.2,1.1-0.7c0.2-0.5,0.4-1.1,0.5-1.8c0.1-0.3,0.3-0.5,0.7-0.5c0.1,0,0.2,0,0.3,0
		c0.1,0,0.2,0,0.3,0.1c-0.1,0.6-0.1,1.2-0.1,1.9c0,0.7-0.1,1.3-0.1,1.8c0,0.4,0,0.9,0,1.6c0,0.6,0.1,1.3,0.2,2.1
		c-0.2,0-0.4,0.1-0.6,0.1c-0.4,0-0.6-0.2-0.7-0.5c-0.1-0.7-0.3-1.3-0.5-1.8c-0.2-0.5-0.6-0.7-1.1-0.7h-5.9V23c0,0.5,0.3,0.9,1,1.1
		c0.7,0.2,1.8,0.3,3.4,0.3h2.1c0.7,0,1.4-0.1,1.9-0.3c0.5-0.2,1-0.5,1.4-0.9c0.4-0.4,0.8-0.8,1.1-1.3c0.3-0.5,0.6-1.1,0.9-1.7
		c0.1-0.2,0.3-0.3,0.6-0.3c0.1,0,0.3,0,0.4,0.1c0.1,0.1,0.3,0.2,0.4,0.2c-0.2,0.5-0.4,1-0.6,1.7c-0.2,0.7-0.3,1.3-0.5,1.9
		c-0.1,0.6-0.3,1.1-0.5,1.5c-0.2,0.4-0.4,0.6-0.6,0.6c-0.2,0-0.5,0-0.9,0c-0.4,0-0.8,0-1.2-0.1c-0.4,0-0.9,0-1.3-0.1
		c-0.5,0-0.8,0-1.2,0h-8.3c-0.7,0-1.5,0-2.3,0.1c-0.8,0-1.6,0.1-2.4,0.1c0-0.3-0.1-0.5-0.1-0.6c0-0.4,0.1-0.6,0.4-0.6
		c1-0.2,1.6-0.4,2.1-0.6c0.4-0.2,0.6-0.6,0.6-1.1V4.1c0-0.5-0.2-0.8-0.5-1c-0.4-0.2-1.1-0.4-2.1-0.6c-0.3,0-0.4-0.3-0.4-0.6
		c0-0.1,0-0.2,0-0.3c0-0.1,0-0.2,0.1-0.3c1.1,0.1,2,0.1,2.7,0.2c0.7,0,1.4,0,2,0H63c1.1,0,2.1,0,2.9-0.1c0.8-0.1,1.4-0.1,1.7-0.1
		c0.3,0,0.5,0.2,0.7,0.6c0.1,0.4,0.2,0.9,0.3,1.5c0.1,0.6,0.2,1.2,0.3,1.8c0.1,0.7,0.3,1.2,0.6,1.7C69.2,6.9,68.9,7,68.7,7
		c-0.3,0-0.5-0.1-0.6-0.3C67.8,6,67.5,5.4,67.2,5c-0.3-0.5-0.6-0.8-1-1.1c-0.4-0.3-0.8-0.5-1.3-0.7C64.4,3,63.8,2.9,63,2.9H57.4z"/>
	<path class="st1" d="M92.9,19.9V4.1c0-0.6-0.2-0.9-0.6-1.2c-0.4-0.2-1.1-0.4-2-0.5c-0.3,0-0.4-0.2-0.4-0.6c0-0.2,0-0.4,0.1-0.6
		c0.6,0,1.3,0.1,1.9,0.1c0.7,0,1.3,0.1,1.8,0.1c0.6,0,1.1,0,1.7-0.1c0.6,0,1.2-0.1,1.8-0.1c0.1,0.3,0.1,0.5,0.1,0.6
		c0,0.4-0.1,0.6-0.4,0.6C96,2.6,95.4,2.7,95.1,3c-0.3,0.2-0.5,0.6-0.5,1.1v22.2c-0.1,0-0.1,0-0.3,0.1c-0.1,0-0.2,0-0.3,0
		c-0.2,0-0.3,0-0.5-0.1c-0.1-0.1-0.3-0.3-0.5-0.5L77.8,5.5v17.7c0,0.5,0.2,0.9,0.5,1.1c0.4,0.2,1,0.4,2,0.6c0.2,0,0.4,0.2,0.4,0.6
		c0,0.2,0,0.4-0.1,0.6C80,26,79.4,26,78.7,25.9c-0.6,0-1.2-0.1-1.8-0.1c-0.5,0-1.1,0-1.8,0.1c-0.7,0-1.3,0.1-1.8,0.1
		c0-0.3-0.1-0.5-0.1-0.6c0-0.4,0.1-0.6,0.4-0.6c0.9-0.2,1.5-0.4,1.8-0.6c0.3-0.2,0.5-0.6,0.5-1.1V3.9c0-0.4-0.1-0.7-0.4-0.9
		c-0.3-0.2-0.9-0.4-1.8-0.5c-0.3,0-0.4-0.3-0.4-0.6c0-0.1,0-0.2,0-0.3c0-0.1,0-0.2,0-0.3c0.5,0,1,0.1,1.4,0.1c0.4,0,0.8,0,1.3,0.1
		c0.5,0,0.9,0,1.2,0c0.7,0,1.2,0,1.5,0.1c0.2,0.1,0.4,0.2,0.6,0.4L92.9,19.9z"/>
	<path class="st1" d="M100.7,13.6c0-1.7,0.3-3.4,0.9-4.9c0.6-1.5,1.5-2.9,2.6-4c1.1-1.2,2.3-2.1,3.8-2.8c1.4-0.7,2.9-1,4.5-1
		c2.2,0,4.1,0.3,5.7,1c1.6,0.7,3,1.6,4.1,2.8c1.1,1.2,1.9,2.5,2.4,4.1c0.5,1.5,0.8,3.1,0.8,4.8c0,2-0.3,3.8-1,5.3
		c-0.7,1.6-1.6,2.9-2.7,4c-1.1,1.1-2.5,1.9-4,2.5c-1.5,0.6-3.2,0.9-5,0.9c-1.8,0-3.4-0.3-4.9-0.9c-1.5-0.6-2.8-1.5-3.8-2.6
		c-1.1-1.1-1.9-2.5-2.5-4C101,17.3,100.7,15.5,100.7,13.6 M113.7,24.5c1.2,0,2.3-0.2,3.2-0.7c1-0.5,1.8-1.1,2.5-1.9
		c0.7-0.8,1.2-1.8,1.6-2.9c0.4-1.1,0.6-2.3,0.6-3.6c0-1.8-0.2-3.5-0.6-5c-0.4-1.5-0.9-2.9-1.7-4c-0.8-1.1-1.7-2-2.9-2.7
		c-1.2-0.7-2.5-1-4.1-1c-1,0-2,0.2-3,0.6c-0.9,0.4-1.8,1-2.5,1.7c-0.7,0.7-1.3,1.7-1.7,2.7c-0.4,1.1-0.6,2.3-0.6,3.7
		c0,1.9,0.2,3.6,0.6,5.2c0.4,1.6,1,3,1.8,4.1c0.8,1.2,1.7,2.1,2.8,2.7C110.9,24.2,112.2,24.5,113.7,24.5"/>
	<path class="st1" d="M151.9,2.1c0-0.1,0.1-0.2,0.2-0.3c0.1-0.1,0.2-0.2,0.3-0.2c0.1,0,0.4-0.1,0.6-0.1c0.3,0,0.6-0.1,1.1-0.1
		c0.2,0,0.5,0,0.8,0c0.3,0,0.7,0,1.1,0c0.4,0,0.8,0,1.1-0.1c0.4,0,0.7,0,1.1-0.1c0.1,0.2,0.1,0.5,0.1,0.6c0,0.4-0.1,0.6-0.4,0.6
		c-0.9,0.1-1.5,0.3-1.8,0.5c-0.3,0.2-0.5,0.5-0.5,0.8c0,0,0,0.4,0.1,1c0,0.6,0.1,1.7,0.2,3.2c0.1,1.5,0.2,3.5,0.3,6
		c0.1,2.5,0.2,5.6,0.4,9.3c0,0.5,0.2,0.8,0.5,1.1c0.3,0.2,0.9,0.4,1.8,0.6c0.1,0,0.2,0.1,0.3,0.2c0.1,0.1,0.1,0.2,0.1,0.4
		c0,0.1,0,0.4-0.1,0.6c-0.9,0-1.7-0.1-2.4-0.1c-0.7,0-1.4-0.1-2-0.1c-0.3,0-0.6,0-0.9,0c-0.4,0-0.8,0-1.2,0c-0.4,0-0.8,0-1.2,0.1
		c-0.4,0-0.8,0.1-1.1,0.1c0-0.3-0.1-0.5-0.1-0.6c0-0.4,0.1-0.6,0.4-0.6c1-0.2,1.7-0.4,2.1-0.6c0.4-0.2,0.5-0.5,0.5-1
		c0-0.1,0-0.5-0.1-1.4c0-0.9-0.1-1.9-0.1-3.1c-0.1-1.2-0.1-2.6-0.2-4c-0.1-1.4-0.1-2.8-0.2-4.1c-0.1-1.3-0.1-2.4-0.2-3.3
		c0-0.9-0.1-1.5-0.1-1.7l-8.3,19.9c-0.1,0.2-0.2,0.4-0.3,0.5c-0.1,0.1-0.2,0.2-0.4,0.2c-0.2,0-0.3,0-0.3,0L134,5.1
		c0,0.3-0.1,0.9-0.1,1.8c0,1-0.1,2.1-0.1,3.4c-0.1,1.3-0.1,2.7-0.2,4.2c-0.1,1.5-0.1,2.9-0.2,4.1c-0.1,1.3-0.1,2.3-0.1,3.2
		c0,0.9-0.1,1.3-0.1,1.4c0,0.8,0.9,1.3,2.6,1.6c0.3,0,0.4,0.2,0.4,0.6c0,0.1,0,0.4-0.1,0.6c-0.7,0-1.3-0.1-2-0.1
		c-0.7,0-1.2-0.1-1.7-0.1c-0.4,0-0.9,0-1.6,0.1c-0.7,0-1.3,0.1-1.9,0.1c-0.1-0.3-0.1-0.5-0.1-0.6c0-0.4,0.1-0.6,0.4-0.6
		c0.7-0.1,1.2-0.3,1.6-0.5c0.4-0.2,0.6-0.6,0.7-1.1c0-0.2,0-0.9,0.1-1.9c0-1,0.1-2.3,0.2-3.7c0.1-1.4,0.1-3,0.2-4.6
		c0.1-1.6,0.1-3.1,0.2-4.5c0.1-1.4,0.1-2.5,0.1-3.4c0-0.9,0.1-1.4,0.1-1.4c0-0.4-0.2-0.7-0.5-0.9c-0.3-0.2-0.9-0.4-1.8-0.5
		c-0.3,0-0.4-0.2-0.4-0.6c0-0.2,0-0.4,0.1-0.6c0.3,0,0.7,0,1.1,0.1c0.4,0,0.8,0,1.2,0.1c0.4,0,0.8,0,1.2,0c0.4,0,0.7,0,0.9,0
		c0.5,0,0.8,0,1.1,0.1c0.2,0,0.5,0.1,0.6,0.1c0.2,0.1,0.3,0.1,0.3,0.2c0.1,0.1,0.1,0.2,0.2,0.3l8.1,18.8L151.9,2.1z"/>
	<path class="st1" d="M168.9,23.2c0,0.5,0.2,0.8,0.5,1c0.3,0.2,1,0.4,2,0.6c0.3,0,0.4,0.2,0.4,0.6c0,0.1,0,0.4-0.1,0.6
		c-0.8,0-1.6-0.1-2.3-0.1c-0.8,0-1.5-0.1-2.2-0.1c-0.7,0-1.4,0-2.2,0.1s-1.6,0.1-2.3,0.1c0-0.3-0.1-0.5-0.1-0.6
		c0-0.4,0.1-0.6,0.4-0.6c1-0.2,1.6-0.4,2-0.6c0.4-0.2,0.5-0.6,0.5-1.1V4.1c0-0.5-0.2-0.9-0.5-1.1c-0.4-0.2-1-0.4-2-0.5
		c-0.2,0-0.2-0.1-0.3-0.2c0-0.1-0.1-0.3-0.1-0.4c0-0.1,0-0.4,0.1-0.6c0.8,0,1.5,0.1,2.4,0.1c0.8,0,1.6,0.1,2.2,0.1
		c0.6,0,1.4,0,2.2-0.1c0.8,0,1.6-0.1,2.4-0.1c0.1,0.2,0.1,0.5,0.1,0.6c0,0.4-0.1,0.6-0.4,0.6c-1,0.1-1.6,0.3-2,0.5
		c-0.4,0.2-0.5,0.6-0.5,1.1V23.2z"/>
	<path class="st1" d="M194.5,23.5c0.2,0.4,0.5,0.6,0.9,0.8c0.4,0.2,1,0.3,1.9,0.5c0.1,0,0.2,0.1,0.4,0.2c0.1,0.1,0.2,0.2,0.2,0.4
		c0,0.2,0,0.4-0.1,0.6c-0.4,0-0.8,0-1.2-0.1c-0.4,0-0.9,0-1.3-0.1c-0.4,0-0.9,0-1.3,0c-0.4,0-0.7,0-1,0c-0.7,0-1.5,0-2.4,0.1
		c-0.9,0-1.8,0.1-2.7,0.1c-0.1-0.3-0.1-0.5-0.1-0.6c0-0.4,0.1-0.6,0.4-0.6c0.6-0.1,1.1-0.3,1.5-0.4c0.4-0.2,0.6-0.4,0.6-0.7
		c0-0.2-0.1-0.5-0.3-0.7l-5.2-8l-4.9,7.3c-0.3,0.5-0.5,0.9-0.5,1.2c0,0.7,0.7,1.1,2,1.3c0.3,0,0.4,0.3,0.4,0.6c0,0.1,0,0.4-0.1,0.6
		c-0.7,0-1.4-0.1-2.2-0.1c-0.8,0-1.5-0.1-2.1-0.1c-0.6,0-1.1,0-1.7,0c-0.5,0-1.1,0.1-1.8,0.2c0-0.3-0.1-0.5-0.1-0.6
		c0-0.4,0.1-0.6,0.4-0.6c0.6-0.1,1.1-0.3,1.7-0.5c0.6-0.2,1-0.5,1.2-0.9l6.6-9.9l-6.3-9.7c-0.2-0.3-0.5-0.6-1-0.8
		c-0.4-0.2-1.1-0.4-1.9-0.4c-0.3,0-0.5-0.2-0.5-0.7c0-0.1,0-0.4,0.1-0.6c0.8,0,1.6,0.1,2.5,0.1c0.9,0,1.6,0.1,2.2,0.1
		c0.7,0,1.4,0,2.4-0.1c0.9,0,1.8-0.1,2.7-0.1c0,0.2,0.1,0.5,0.1,0.6c0,0.4-0.1,0.6-0.4,0.6c-0.6,0.1-1.1,0.2-1.5,0.3
		c-0.3,0.1-0.5,0.3-0.5,0.6c0,0.1,0,0.2,0,0.3c0,0.1,0.1,0.2,0.2,0.4l4.6,7l4.5-6.6c0.2-0.4,0.4-0.7,0.4-0.9c0-0.6-0.6-0.9-1.9-1.1
		c-0.3-0.1-0.4-0.3-0.4-0.6c0-0.1,0-0.4,0.1-0.6c0.8,0,1.5,0.1,2.1,0.1c0.7,0,1.2,0.1,1.7,0.1c0.7,0,1.3,0,2-0.1
		c0.7,0,1.3-0.1,1.9-0.1c0,0.2,0.1,0.5,0.1,0.6c0,0.2,0,0.4-0.1,0.5c-0.1,0.1-0.2,0.2-0.3,0.2c-0.7,0.1-1.3,0.2-1.7,0.4
		c-0.5,0.2-0.8,0.5-1.1,1l-6.1,8.9L194.5,23.5z"/>
</g>
</svg>
