<?xml version="1.0" encoding="utf-8"?>
<!-- Generator: Adobe Illustrator 21.0.0, SVG Export Plug-In . SVG Version: 6.00 Build 0)  -->
<svg version="1.1" id="Layer_1" xmlns="http://www.w3.org/2000/svg" xmlns:xlink="http://www.w3.org/1999/xlink" x="0px" y="0px"
	 viewBox="0 0 139 34" style="enable-background:new 0 0 139 34;" xml:space="preserve">
<style type="text/css">
	.st0{fill:#7B8FC2;}
	.st1{fill:#453D40;}
</style>
<g>
	<path class="st0" d="M52.5,28.7h1.2c0,0.7,0.2,1.3,0.7,1.8c0.4,0.4,1,0.7,1.8,0.7c0.7,0,1.3-0.2,1.8-0.5c0.4-0.3,0.7-0.8,0.7-1.3
		c0-0.5-0.3-0.9-0.8-1.2c-0.4-0.2-0.9-0.4-1.6-0.5c-0.9-0.2-1.7-0.5-2.3-0.9c-0.7-0.5-1.1-1.2-1.1-2c0-0.8,0.3-1.4,0.9-1.9
		c0.6-0.5,1.4-0.7,2.5-0.7c1,0,1.9,0.3,2.5,0.8c0.6,0.6,0.9,1.3,0.9,2.3h-1.2c-0.1-0.6-0.4-1.1-0.8-1.5c-0.4-0.4-0.9-0.5-1.4-0.5
		c-0.7,0-1.2,0.1-1.6,0.4c-0.4,0.3-0.6,0.7-0.6,1.1c0,0.5,0.2,0.9,0.7,1.2c0.4,0.3,0.9,0.5,1.5,0.6c1.1,0.2,1.9,0.5,2.5,0.8
		c0.8,0.5,1.2,1.1,1.2,1.9c0,0.9-0.3,1.6-1,2.2c-0.7,0.6-1.6,0.8-2.7,0.8c-1.1,0-2-0.3-2.7-1C52.8,30.6,52.5,29.8,52.5,28.7"/>
	<path class="st0" d="M63.9,27.2c0-1.5,0.4-2.7,1.1-3.7c0.7-0.9,1.7-1.4,2.9-1.4c0.9,0,1.8,0.3,2.5,0.9c0.7,0.6,1.1,1.4,1.2,2.3
		h-1.2c-0.1-0.6-0.3-1.1-0.8-1.5c-0.5-0.4-1-0.6-1.6-0.6c-0.9,0-1.6,0.4-2.1,1.2c-0.5,0.7-0.7,1.6-0.7,2.7c0,1,0.2,1.9,0.7,2.7
		c0.5,0.8,1.2,1.2,2.1,1.2c0.7,0,1.3-0.2,1.7-0.6c0.4-0.4,0.7-1,0.7-1.7h1.2c0,1-0.3,1.9-1,2.5c-0.7,0.6-1.6,0.9-2.7,0.9
		c-1.2,0-2.2-0.5-2.9-1.4C64.2,29.9,63.9,28.7,63.9,27.2"/>
	<rect x="76" y="22.3" class="st0" width="1.2" height="9.7"/>
	<polygon class="st0" points="83,32 83,22.3 89.7,22.3 89.7,23.4 84.2,23.4 84.2,26.4 89.1,26.4 89.1,27.6 84.2,27.6 84.2,30.9 
		89.7,30.9 89.7,32 	"/>
	<polygon class="st0" points="94.2,32 94.2,22.3 95.4,22.3 100.3,29.9 100.3,22.3 101.5,22.3 101.5,32 100.3,32 95.4,24.4 95.4,32 	
		"/>
	<path class="st0" d="M105.8,27.2c0-1.5,0.4-2.7,1.1-3.7c0.7-0.9,1.7-1.4,2.9-1.4c0.9,0,1.8,0.3,2.5,0.9c0.7,0.6,1.1,1.4,1.2,2.3
		h-1.2c-0.1-0.6-0.3-1.1-0.8-1.5c-0.5-0.4-1-0.6-1.6-0.6c-0.9,0-1.6,0.4-2.1,1.2c-0.5,0.7-0.7,1.6-0.7,2.7c0,1,0.2,1.9,0.7,2.7
		c0.5,0.8,1.2,1.2,2.1,1.2c0.7,0,1.3-0.2,1.7-0.6c0.4-0.4,0.7-1,0.7-1.7h1.2c0,1-0.3,1.9-1,2.5c-0.7,0.6-1.6,0.9-2.7,0.9
		c-1.2,0-2.2-0.5-2.9-1.4C106.2,29.9,105.8,28.7,105.8,27.2"/>
	<polygon class="st0" points="118,32 118,22.3 124.7,22.3 124.7,23.4 119.2,23.4 119.2,26.4 124.1,26.4 124.1,27.6 119.2,27.6 
		119.2,30.9 124.7,30.9 124.7,32 	"/>
	<path class="st0" d="M128.6,28.7h1.2c0,0.7,0.2,1.3,0.7,1.8c0.4,0.4,1,0.7,1.8,0.7c0.7,0,1.3-0.2,1.8-0.5c0.4-0.3,0.7-0.8,0.7-1.3
		c0-0.5-0.3-0.9-0.8-1.2c-0.4-0.2-0.9-0.4-1.6-0.5c-0.9-0.2-1.7-0.5-2.3-0.9c-0.7-0.5-1.1-1.2-1.1-2c0-0.8,0.3-1.4,0.9-1.9
		c0.6-0.5,1.4-0.7,2.5-0.7c1,0,1.9,0.3,2.5,0.8c0.6,0.6,0.9,1.3,0.9,2.3h-1.2c-0.1-0.6-0.4-1.1-0.8-1.5c-0.4-0.4-0.9-0.5-1.4-0.5
		c-0.7,0-1.2,0.1-1.6,0.4c-0.4,0.3-0.6,0.7-0.6,1.1c0,0.5,0.2,0.9,0.7,1.2c0.4,0.3,0.9,0.5,1.5,0.6c1.1,0.2,1.9,0.5,2.5,0.8
		c0.8,0.5,1.2,1.1,1.2,1.9c0,0.9-0.3,1.6-1,2.2c-0.7,0.6-1.6,0.8-2.7,0.8c-1.1,0-2-0.3-2.7-1C128.9,30.6,128.6,29.8,128.6,28.7"/>
	<path class="st1" d="M5.7,10.9v5.4c0,0.4,0.2,0.7,0.6,0.9c0.4,0.2,1,0.3,1.7,0.4c0.2,0,0.3,0.2,0.3,0.4c0,0.1,0,0.3-0.1,0.4
		c-0.5,0-1.1-0.1-1.7-0.1c-0.6,0-1.3,0-2.1,0c-0.5,0-1,0-1.5,0c-0.6,0-1.1,0.1-1.6,0.1c0-0.2-0.1-0.3-0.1-0.4c0-0.2,0.1-0.4,0.3-0.4
		c0.7-0.1,1.2-0.3,1.4-0.4c0.2-0.1,0.4-0.4,0.4-0.7V3.1c0-0.3-0.1-0.6-0.4-0.8C2.5,2.2,2.1,2.1,1.4,2c-0.2,0-0.3-0.2-0.3-0.5
		c0-0.1,0-0.3,0.1-0.4c0.5,0,1,0.1,1.6,0.1c0.5,0,1.1,0,1.6,0h3.7c1.9,0,3.3,0.4,4.2,1.3c0.9,0.9,1.4,2,1.4,3.5
		c0,0.6-0.1,1.1-0.4,1.7c-0.3,0.6-0.6,1.1-1.1,1.6c-0.5,0.5-1.1,0.8-1.8,1.1c-0.7,0.3-1.5,0.4-2.4,0.4H5.7z M7.1,9.8
		c1.2,0,2.2-0.3,2.8-0.8c0.7-0.5,1-1.5,1-2.7c0-0.5-0.1-1-0.2-1.5c-0.1-0.5-0.3-0.9-0.6-1.2C9.8,3.1,9.4,2.8,8.9,2.6
		C8.4,2.4,7.8,2.3,7.1,2.3H5.7v7.5H7.1z"/>
	<path class="st1" d="M30.5,16.4c0,0.3,0.1,0.6,0.3,0.7c0.2,0.1,0.7,0.3,1.4,0.4c0.2,0,0.3,0.2,0.3,0.4c0,0.1,0,0.3-0.1,0.5
		c-0.4,0-0.9-0.1-1.5-0.1c-0.6,0-1.1,0-1.6,0c-0.5,0-1,0-1.5,0c-0.5,0-1.1,0.1-1.6,0.1c0-0.2-0.1-0.3-0.1-0.5c0-0.2,0.1-0.3,0.3-0.4
		c0.6-0.1,1.1-0.3,1.3-0.4c0.2-0.1,0.4-0.4,0.4-0.7v-6.3h-8.2v6.3c0,0.3,0.1,0.6,0.3,0.7c0.2,0.1,0.7,0.3,1.4,0.4
		c0.2,0,0.3,0.2,0.3,0.4c0,0.1,0,0.3-0.1,0.5c-0.5,0-1-0.1-1.6-0.1c-0.6,0-1.1,0-1.6,0c-0.5,0-1,0-1.5,0c-0.5,0-1.1,0.1-1.6,0.1
		c0-0.2-0.1-0.3-0.1-0.5c0-0.2,0.1-0.3,0.3-0.4c0.7-0.1,1.1-0.3,1.4-0.4c0.2-0.1,0.4-0.4,0.4-0.7V3.1c0-0.2,0-0.3-0.1-0.4
		c0-0.1-0.1-0.2-0.2-0.3c-0.1-0.1-0.3-0.2-0.5-0.2C16.3,2.1,16,2,15.7,2c-0.2,0-0.3-0.2-0.3-0.4c0-0.1,0-0.3,0.1-0.4
		c0.4,0,0.9,0.1,1.5,0.1c0.6,0,1.1,0,1.6,0c0.5,0,1,0,1.5,0c0.5,0,1.1-0.1,1.6-0.1c0,0.2,0.1,0.3,0.1,0.4c0,0.2-0.1,0.4-0.3,0.4
		c-0.7,0.1-1.1,0.2-1.3,0.4c-0.2,0.2-0.3,0.4-0.3,0.8V9H28V3.1c0-0.3-0.1-0.5-0.3-0.7c-0.2-0.2-0.7-0.3-1.3-0.4
		c-0.2,0-0.3-0.2-0.3-0.4c0-0.1,0-0.3,0.1-0.4c0.4,0,0.9,0.1,1.5,0.1c0.6,0,1.1,0,1.6,0c0.5,0,1,0,1.5,0c0.5,0,1.1-0.1,1.6-0.1
		c0,0.2,0.1,0.3,0.1,0.4c0,0.2-0.1,0.4-0.3,0.4c-0.7,0.1-1.1,0.2-1.3,0.4c-0.2,0.2-0.3,0.4-0.3,0.8V16.4z"/>
	<path class="st1" d="M40.2,2.3V9h4.1c0.3,0,0.6-0.2,0.7-0.5c0.1-0.3,0.3-0.8,0.4-1.2c0.1-0.2,0.2-0.3,0.5-0.3c0.1,0,0.1,0,0.2,0
		c0.1,0,0.2,0,0.2,0.1c0,0.4-0.1,0.8-0.1,1.3c0,0.5,0,0.9,0,1.3c0,0.3,0,0.7,0,1.1c0,0.4,0.1,0.9,0.1,1.5c-0.1,0-0.3,0.1-0.4,0.1
		c-0.3,0-0.4-0.1-0.5-0.3c-0.1-0.5-0.2-0.9-0.4-1.2c-0.1-0.3-0.4-0.5-0.7-0.5h-4.1v6.2c0,0.4,0.2,0.6,0.7,0.7
		c0.5,0.1,1.2,0.2,2.3,0.2h1.4c0.5,0,0.9-0.1,1.3-0.2c0.4-0.1,0.7-0.3,1-0.6c0.3-0.3,0.5-0.6,0.8-0.9c0.2-0.3,0.4-0.7,0.7-1.2
		c0.1-0.1,0.2-0.2,0.4-0.2c0.1,0,0.2,0,0.3,0.1c0.1,0.1,0.2,0.1,0.3,0.2c-0.2,0.3-0.3,0.7-0.4,1.2c-0.1,0.5-0.2,0.9-0.3,1.3
		c-0.1,0.4-0.2,0.8-0.3,1.1c-0.1,0.3-0.3,0.4-0.4,0.4c-0.1,0-0.3,0-0.6,0c-0.3,0-0.5,0-0.9,0c-0.3,0-0.6,0-0.9,0c-0.3,0-0.6,0-0.8,0
		h-5.7c-0.5,0-1,0-1.6,0c-0.6,0-1.1,0.1-1.6,0.1c0-0.2-0.1-0.3-0.1-0.4c0-0.2,0.1-0.4,0.3-0.4c0.7-0.1,1.1-0.3,1.4-0.4
		c0.3-0.1,0.4-0.4,0.4-0.7V3.1c0-0.3-0.1-0.6-0.4-0.7c-0.3-0.1-0.7-0.3-1.5-0.4c-0.2,0-0.3-0.2-0.3-0.4c0-0.1,0-0.2,0-0.2
		c0-0.1,0-0.1,0-0.2c0.7,0.1,1.4,0.1,1.9,0.1c0.5,0,1,0,1.4,0H44c0.8,0,1.5,0,2-0.1c0.6-0.1,1-0.1,1.1-0.1c0.2,0,0.4,0.1,0.5,0.4
		c0.1,0.3,0.1,0.6,0.2,1C47.9,3,48,3.4,48.1,3.8c0.1,0.5,0.2,0.8,0.4,1.2c-0.1,0.1-0.3,0.2-0.5,0.2c-0.2,0-0.4-0.1-0.4-0.2
		c-0.2-0.5-0.4-0.8-0.6-1.2c-0.2-0.3-0.4-0.6-0.7-0.8c-0.3-0.2-0.6-0.4-0.9-0.5C45,2.4,44.6,2.3,44,2.3H40.2z"/>
	<path class="st1" d="M64.8,14.1V3.2c0-0.4-0.1-0.7-0.4-0.8C64.1,2.2,63.6,2.1,63,2c-0.2,0-0.3-0.2-0.3-0.4c0-0.1,0-0.2,0.1-0.4
		c0.4,0,0.9,0.1,1.3,0.1c0.5,0,0.9,0,1.3,0c0.4,0,0.8,0,1.2,0c0.4,0,0.8-0.1,1.2-0.1c0,0.2,0.1,0.3,0.1,0.4c0,0.3-0.1,0.4-0.3,0.4
		c-0.6,0.1-1,0.2-1.2,0.4C66.1,2.5,66,2.8,66,3.1v15.4c0,0-0.1,0-0.2,0c-0.1,0-0.2,0-0.2,0c-0.1,0-0.2,0-0.3-0.1
		c-0.1-0.1-0.2-0.2-0.4-0.4l-10.6-14v12.3c0,0.3,0.1,0.6,0.4,0.7c0.2,0.1,0.7,0.3,1.4,0.4c0.2,0,0.3,0.2,0.3,0.4
		c0,0.1,0,0.2-0.1,0.4c-0.4,0-0.9-0.1-1.3-0.1c-0.4,0-0.9,0-1.2,0c-0.3,0-0.8,0-1.2,0c-0.5,0-0.9,0.1-1.3,0.1c0-0.2-0.1-0.3-0.1-0.4
		c0-0.2,0.1-0.4,0.3-0.4c0.6-0.1,1.1-0.3,1.3-0.4c0.2-0.1,0.3-0.4,0.3-0.7V3c0-0.3-0.1-0.5-0.3-0.6c-0.2-0.1-0.6-0.3-1.2-0.4
		c-0.2,0-0.3-0.2-0.3-0.4c0-0.1,0-0.2,0-0.2c0-0.1,0-0.1,0-0.2c0.3,0,0.7,0.1,1,0.1c0.3,0,0.6,0,0.9,0c0.3,0,0.6,0,0.8,0
		c0.5,0,0.8,0,1,0.1c0.2,0,0.3,0.1,0.4,0.3L64.8,14.1z"/>
	<path class="st1" d="M70.2,9.7c0-1.2,0.2-2.3,0.7-3.4c0.4-1.1,1-2,1.8-2.8c0.7-0.8,1.6-1.4,2.6-1.9c1-0.5,2-0.7,3.1-0.7
		c1.5,0,2.8,0.2,4,0.7c1.1,0.5,2.1,1.1,2.8,1.9c0.7,0.8,1.3,1.7,1.7,2.8c0.4,1.1,0.5,2.2,0.5,3.3c0,1.4-0.2,2.6-0.7,3.7
		c-0.5,1.1-1.1,2-1.9,2.8C84.1,17,83.1,17.6,82,18c-1.1,0.4-2.2,0.6-3.4,0.6c-1.2,0-2.4-0.2-3.4-0.6c-1-0.4-1.9-1-2.7-1.8
		c-0.7-0.8-1.3-1.7-1.7-2.8C70.4,12.3,70.2,11.1,70.2,9.7 M79.2,17.3c0.8,0,1.6-0.2,2.2-0.5c0.7-0.3,1.3-0.7,1.8-1.3
		c0.5-0.6,0.9-1.2,1.1-2c0.3-0.8,0.4-1.6,0.4-2.5c0-1.3-0.1-2.4-0.4-3.5c-0.3-1.1-0.7-2-1.2-2.8c-0.5-0.8-1.2-1.4-2-1.9
		c-0.8-0.5-1.8-0.7-2.8-0.7c-0.7,0-1.4,0.1-2.1,0.4c-0.7,0.3-1.2,0.7-1.7,1.2c-0.5,0.5-0.9,1.1-1.2,1.9c-0.3,0.8-0.4,1.6-0.4,2.6
		c0,1.3,0.1,2.5,0.4,3.6c0.3,1.1,0.7,2.1,1.2,2.9c0.5,0.8,1.2,1.4,2,1.9C77.3,17.1,78.2,17.3,79.2,17.3"/>
	<path class="st1" d="M105.7,1.7c0-0.1,0.1-0.1,0.1-0.2c0-0.1,0.1-0.1,0.2-0.2c0.1,0,0.2-0.1,0.4-0.1c0.2,0,0.4,0,0.7,0
		c0.1,0,0.3,0,0.5,0c0.2,0,0.5,0,0.7,0c0.3,0,0.5,0,0.8,0c0.3,0,0.5,0,0.7-0.1c0,0.2,0.1,0.3,0.1,0.4c0,0.3-0.1,0.4-0.3,0.4
		c-0.6,0.1-1,0.2-1.3,0.4s-0.3,0.3-0.3,0.6c0,0,0,0.2,0,0.7c0,0.4,0.1,1.2,0.1,2.2c0.1,1,0.1,2.4,0.2,4.1c0.1,1.7,0.2,3.9,0.3,6.4
		c0,0.3,0.1,0.6,0.3,0.7c0.2,0.2,0.6,0.3,1.3,0.4c0.1,0,0.2,0.1,0.2,0.1c0,0.1,0.1,0.2,0.1,0.3c0,0.1,0,0.2-0.1,0.4
		c-0.6,0-1.2-0.1-1.7-0.1c-0.5,0-1,0-1.4,0c-0.2,0-0.4,0-0.7,0c-0.3,0-0.5,0-0.8,0c-0.3,0-0.6,0-0.9,0c-0.3,0-0.5,0-0.7,0.1
		c0-0.2-0.1-0.3-0.1-0.4c0-0.3,0.1-0.4,0.3-0.4c0.7-0.1,1.2-0.3,1.4-0.4c0.3-0.1,0.4-0.4,0.4-0.7c0-0.1,0-0.4,0-1
		c0-0.6-0.1-1.3-0.1-2.2c0-0.9-0.1-1.8-0.1-2.8c0-1-0.1-1.9-0.1-2.8c0-0.9-0.1-1.6-0.1-2.3c0-0.6-0.1-1-0.1-1.2l-5.7,13.8
		c-0.1,0.2-0.1,0.3-0.2,0.4c-0.1,0.1-0.1,0.1-0.2,0.1c-0.1,0-0.2,0-0.2,0L93.3,3.8c0,0.2,0,0.6-0.1,1.3c0,0.7-0.1,1.5-0.1,2.4
		c0,0.9-0.1,1.9-0.1,2.9c-0.1,1-0.1,2-0.1,2.8c0,0.9-0.1,1.6-0.1,2.2c0,0.6,0,0.9,0,0.9c0,0.5,0.6,0.9,1.8,1.1
		c0.2,0,0.3,0.2,0.3,0.4c0,0.1,0,0.2-0.1,0.4c-0.5,0-0.9-0.1-1.4-0.1c-0.5,0-0.9,0-1.2,0c-0.3,0-0.7,0-1.1,0c-0.5,0-0.9,0.1-1.3,0.1
		c0-0.2-0.1-0.3-0.1-0.4c0-0.2,0.1-0.4,0.3-0.4c0.5-0.1,0.8-0.2,1.1-0.4c0.3-0.2,0.4-0.4,0.5-0.7c0-0.2,0-0.6,0.1-1.3
		c0-0.7,0.1-1.6,0.1-2.6c0-1,0.1-2,0.1-3.2c0.1-1.1,0.1-2.1,0.1-3.1c0-0.9,0.1-1.7,0.1-2.4c0-0.6,0-0.9,0-1c0-0.3-0.1-0.5-0.3-0.6
		c-0.2-0.1-0.6-0.2-1.2-0.4c-0.2,0-0.3-0.2-0.3-0.4c0-0.1,0-0.2,0.1-0.4c0.2,0,0.5,0,0.8,0.1c0.3,0,0.6,0,0.9,0c0.3,0,0.6,0,0.8,0
		c0.3,0,0.5,0,0.6,0c0.3,0,0.6,0,0.7,0c0.2,0,0.3,0.1,0.4,0.1c0.1,0,0.2,0.1,0.2,0.2c0,0.1,0.1,0.1,0.1,0.2l5.6,13L105.7,1.7z"/>
	<path class="st1" d="M117.5,16.4c0,0.3,0.1,0.6,0.4,0.7c0.2,0.1,0.7,0.3,1.4,0.4c0.2,0,0.3,0.2,0.3,0.4c0,0.1,0,0.2-0.1,0.4
		c-0.5,0-1.1-0.1-1.6-0.1c-0.5,0-1.1,0-1.5,0c-0.5,0-1,0-1.6,0c-0.6,0-1.1,0.1-1.6,0.1c0-0.2-0.1-0.3-0.1-0.4c0-0.2,0.1-0.4,0.3-0.4
		c0.7-0.1,1.1-0.3,1.4-0.4c0.2-0.1,0.4-0.4,0.4-0.7V3.1c0-0.3-0.1-0.6-0.4-0.7c-0.2-0.1-0.7-0.3-1.4-0.4c-0.1,0-0.2-0.1-0.2-0.2
		c0-0.1-0.1-0.2-0.1-0.3c0-0.1,0-0.2,0.1-0.4c0.5,0,1.1,0.1,1.6,0.1c0.6,0,1.1,0,1.5,0c0.4,0,0.9,0,1.5,0c0.6,0,1.1-0.1,1.7-0.1
		c0,0.2,0.1,0.3,0.1,0.4c0,0.3-0.1,0.4-0.3,0.4c-0.7,0.1-1.1,0.2-1.4,0.4c-0.2,0.1-0.4,0.4-0.4,0.7V16.4z"/>
	<path class="st1" d="M135.3,16.6c0.2,0.2,0.4,0.4,0.6,0.5c0.3,0.1,0.7,0.2,1.3,0.3c0.1,0,0.2,0.1,0.2,0.1c0.1,0.1,0.1,0.2,0.1,0.3
		c0,0.1,0,0.3-0.1,0.4c-0.3,0-0.5,0-0.8-0.1c-0.3,0-0.6,0-0.9,0c-0.3,0-0.6,0-0.9,0c-0.3,0-0.5,0-0.7,0c-0.5,0-1,0-1.7,0
		s-1.3,0.1-1.9,0.1c0-0.2-0.1-0.3-0.1-0.4c0-0.2,0.1-0.4,0.3-0.4c0.4-0.1,0.8-0.2,1-0.3c0.3-0.1,0.4-0.3,0.4-0.5
		c0-0.2-0.1-0.3-0.2-0.5l-3.6-5.5l-3.4,5.1c-0.2,0.3-0.3,0.6-0.3,0.8c0,0.5,0.5,0.8,1.4,0.9c0.2,0,0.3,0.2,0.3,0.4
		c0,0.1,0,0.2-0.1,0.4c-0.5,0-1-0.1-1.5-0.1c-0.6,0-1.1,0-1.5,0c-0.4,0-0.8,0-1.2,0c-0.4,0-0.8,0.1-1.3,0.1c0-0.2-0.1-0.3-0.1-0.4
		c0-0.2,0.1-0.4,0.3-0.4c0.4-0.1,0.8-0.2,1.2-0.4c0.4-0.2,0.7-0.4,0.8-0.6l4.6-6.9l-4.4-6.7c-0.1-0.2-0.4-0.4-0.7-0.6
		c-0.3-0.1-0.8-0.2-1.3-0.3c-0.2,0-0.3-0.2-0.3-0.5c0-0.1,0-0.2,0.1-0.4c0.5,0,1.1,0.1,1.7,0.1c0.6,0,1.1,0,1.5,0c0.5,0,1,0,1.6,0
		c0.6,0,1.3-0.1,1.9-0.1c0,0.2,0.1,0.3,0.1,0.4c0,0.3-0.1,0.4-0.3,0.4c-0.4,0.1-0.8,0.1-1,0.2c-0.2,0.1-0.4,0.2-0.4,0.4
		c0,0.1,0,0.1,0,0.2s0.1,0.2,0.2,0.3l3.2,4.9l3.1-4.6c0.2-0.2,0.3-0.5,0.3-0.7c0-0.4-0.4-0.6-1.3-0.8c-0.2,0-0.3-0.2-0.3-0.4
		c0-0.1,0-0.2,0.1-0.4c0.5,0,1,0.1,1.5,0.1c0.5,0,0.8,0,1.1,0c0.5,0,0.9,0,1.4,0c0.5,0,0.9-0.1,1.3-0.1c0,0.2,0.1,0.3,0.1,0.4
		c0,0.1,0,0.2-0.1,0.3c-0.1,0.1-0.1,0.1-0.2,0.1c-0.5,0.1-0.9,0.2-1.2,0.3c-0.3,0.1-0.6,0.4-0.8,0.7l-4.2,6.2L135.3,16.6z"/>
</g>
</svg>
