<svg version="1.1" id="Layer_1" xmlns="http://www.w3.org/2000/svg" x="0" y="0" viewBox="0 0 300 300" xml:space="preserve"><style/><path d="M240.5 20.9h-69.9l-3.1-3.2c-5-5.1-11.6-7.9-18.8-7.9-7.1 0-13.8 2.8-18.8 7.9l-3.1 3.2H59.5c-13.2 0-24 10.8-24 24v221.3c0 13.2 10.8 24 24 24h181.1c13.2 0 24-10.8 24-24V44.9c-.1-13.3-10.8-24-24.1-24zm13.8 245.3c0 7.6-6.2 13.7-13.7 13.7H59.5c-7.6 0-13.7-6.2-13.7-13.7V44.9c0-7.6 6.2-13.7 13.7-13.7h40.1V50c0 .4.1.9.2 1.3-.1.4-.2.8-.2 1.3 0 2.8 2.3 5.1 5.1 5.1h85.5c2.8 0 5.1-2.3 5.1-5.1V40.7c0-2.8-2.3-5.1-5.1-5.1s-5.1 2.3-5.1 5.1v6.5h-75.3V31.1H129c1.4 0 2.7-.6 3.7-1.5l4.6-4.7c3-3.1 7.1-4.8 11.4-4.8 4.3 0 8.4 1.7 11.4 4.8l4.6 4.7c1 1 2.3 1.5 3.7 1.5h72.1c7.6 0 13.7 6.2 13.7 13.7v221.4zM142.5 112.7H82.1c-2.8 0-5.1 2.3-5.1 5.1s2.3 5.1 5.1 5.1h60.4c2.8 0 5.1-2.3 5.1-5.1s-2.3-5.1-5.1-5.1zm71.2-14.9l-27.8 27.8-12.1-12.1c-2-2-5.2-2-7.3 0-2 2-2 5.2 0 7.3l15.7 15.7c1 1 2.3 1.5 3.6 1.5s2.6-.5 3.6-1.5l31.4-31.4c2-2 2-5.3 0-7.3-1.9-2-5.1-2-7.1 0zm-71.2 67.7H82.1c-2.8 0-5.1 2.3-5.1 5.1s2.3 5.1 5.1 5.1h60.4c2.8 0 5.1-2.3 5.1-5.1s-2.3-5.1-5.1-5.1zm71.2-14.9l-27.8 27.8-12.1-12.1c-2-2-5.2-2-7.3 0-2 2-2 5.3 0 7.3l15.7 15.7c1 1 2.3 1.5 3.6 1.5s2.6-.5 3.6-1.5l31.4-31.4c2-2 2-5.3 0-7.3-1.9-2-5.1-2-7.1 0zm-71.2 67.7H82.1c-2.8 0-5.1 2.3-5.1 5.1s2.3 5.1 5.1 5.1h60.4c2.8 0 5.1-2.3 5.1-5.1s-2.3-5.1-5.1-5.1zm71.2-14.8l-27.8 27.8-12.1-12.1c-2-2-5.2-2-7.3 0-2 2-2 5.3 0 7.3l15.7 15.7c1 1 2.3 1.5 3.6 1.5s2.6-.5 3.6-1.5l31.4-31.4c2-2 2-5.3 0-7.3-1.9-2-5.1-2-7.1 0z"/></svg>