<svg version="1.1" id="Layer_1" xmlns="http://www.w3.org/2000/svg" x="0" y="0" viewBox="0 0 300 300" xml:space="preserve"><style/><path d="M258 160c-7.7-23.2-22.1-57.8-57.7-90.8-33.4-31.1-65-54.2-65.3-54.4-1.4-1-3.2-1.2-4.7-.4-1.5.8-2.5 2.3-2.6 4 0 .5-2 46.8-60 106.2-31.7 32.4-40 78.3-21.3 117 20.2 41.6 68 44.5 70 44.6 2.6.1 4.7-1.8 4.8-4.4.1-2.5-1.8-4.7-4.4-4.8-.4 0-44.3-2.7-62.2-39.5-17-35.1-9.3-76.9 19.6-106.5 46.8-47.9 58.6-87.4 61.6-104.1 10.8 8.2 33.9 26.5 58.1 49 34.1 31.6 47.8 64.8 55.2 87 4.1 12.4 21.2 76-47.2 114.7-2.2 1.3-3 4.1-1.7 6.3.8 1.5 2.4 2.3 4 2.3.8 0 1.6-.2 2.3-.6 58-32.8 64-88.2 51.5-125.6zm-57.7 2.3c-11.1-30.7-39.7-57.2-40.9-58.3-1.4-1.3-3.4-1.6-5.1-.8-1.7.8-2.7 2.5-2.7 4.4.9 22.9-1.2 62.3-10.5 70.9-1.7 1.6-3.4 2.2-5.5 1.9-7.3-1.1-16.8-12.9-21-20.1-.8-1.3-2.1-2.1-3.6-2.2-1.5-.1-3 .5-3.9 1.7-.6.8-15.4 19.6-15.4 43.7 0 25 20.4 39.2 21.2 39.8.8.5 1.7.8 2.6.8 1.5 0 2.9-.7 3.8-2 1.4-2.1.9-5-1.2-6.4-.2-.1-17.2-12.1-17.2-32.2 0-13.8 5.8-25.9 9.8-32.6 5 6.8 13.9 17.1 23.7 18.5 4.8.7 9.3-.7 13.1-4.2 11.9-10.9 13.7-47.2 13.7-66.4 9.1 9.9 23.7 27.6 30.5 46.6 10.5 29.1-3.4 55.8-12.7 69.1-1.4 2.1-.9 5 1.2 6.4 2.1 1.4 5 .9 6.4-1.2 10.2-14.8 25.6-44.5 13.7-77.4z"/></svg>