<svg version="1.1" id="Layer_1" xmlns="http://www.w3.org/2000/svg" x="0" y="0" viewBox="0 0 300 300" xml:space="preserve"><style/><path d="M122.4 208.1c.9.5 1.9.8 2.8.8 1.9 0 3.8-1 4.8-2.7 1.6-2.7.7-6.1-2-7.7-10.8-6.5-39-27.1-39-44.7 0-6.8.4-11.2 5.8-17.2H171c3.1 0 5.6-2.5 5.6-5.6s-2.5-5.6-5.6-5.6h-63.1c9.8-7.2 24.6-17 47.1-31.6 65.4-42.3 67.3-66.8 67.3-69.4 0-3.1-2.5-5.6-5.6-5.6s-5.6 2.5-5.6 5.6c0 .1-.8 6-10.1 17.2h-79.5c-3.1 0-5.6 2.5-5.6 5.6s2.5 5.6 5.6 5.6h68.8c-9.2 8.7-22.4 19.2-41.4 31.6-64 41.4-71.1 46.7-71.1 69.4 0 27.1 40 51.6 44.6 54.3zm0-125.6c.9.5 1.9.8 2.9.8 1.9 0 3.8-1 4.8-2.7 1.6-2.7.7-6.1-1.9-7.7-34.9-21-39-48-39.2-49.2-.4-3.1-3.3-5.2-6.2-4.8-3.1.4-5.2 3.2-4.9 6.3.1 1.3 4.5 33.3 44.5 57.3zm51.4 138.8c-2.6-1.6-6.1-.7-7.7 1.9-1.6 2.7-.7 6.1 1.9 7.7 34.8 20.9 39.1 45 39.2 45.5.4 2.8 2.8 4.8 5.5 4.8.3 0 .5 0 .8-.1 3.1-.4 5.2-3.3 4.8-6.3-.1-1.2-4.6-29.6-44.5-53.5zm-.5-122.1c-2.8-1.3-6.1 0-7.4 2.8s-.1 6.1 2.8 7.4c.2.1 17.1 8 29.9 24 9 11.2 11.2 20.1 6.3 30H129c-3.1 0-5.6 2.5-5.6 5.6s2.5 5.6 5.6 5.6h67.9c-1.1 1.2-2.2 2.4-3.4 3.6-16.3 16.2-32.4 25.2-64.6 42.9-4.3 2.4-8.9 4.9-13.9 7.7-23.5 13.1-37.1 24.9-37.1 46.8 0 3.1 2.5 5.6 5.6 5.6s5.6-2.5 5.6-5.6c0-6.6 1.5-12.1 5.3-17.2h72.8c3.1 0 5.6-2.5 5.6-5.6s-2.5-5.6-5.6-5.6h-60.6c3.9-2.7 8.4-5.5 13.9-8.5 4.9-2.7 9.5-5.3 13.8-7.7 33.1-18.3 49.7-27.4 67.1-44.8 21-21 22.8-38.8 6-59.8-14.6-18.1-33.4-26.8-34.1-27.2z"/></svg>