<svg version="1.1" id="Layer_1" xmlns="http://www.w3.org/2000/svg" x="0" y="0" viewBox="0 0 300 300" xml:space="preserve"><style>.st0{fill:#231f20}</style><path class="st0" d="M54.5 197.4c-.9 0-1.8-.3-2.4-1-24.9-24.9-24.9-65.3 0-90.2 1.3-1.3 3.5-1.3 4.9 0 1.3 1.3 1.3 3.5 0 4.9-22.2 22.2-22.2 58.3 0 80.4 1.3 1.3 1.3 3.5 0 4.9-.8.6-1.6 1-2.5 1z"/><path class="st0" d="M34.5 222.1c-.9 0-1.8-.3-2.4-1-18.7-18.7-28.9-43.4-28.9-69.8 0-26.3 10.3-51.1 28.9-69.8 1.3-1.3 3.5-1.3 4.9 0 1.3 1.3 1.3 3.5 0 4.9-17.4 17.4-26.9 40.4-26.9 64.9 0 24.5 9.6 47.6 26.9 64.9 1.3 1.3 1.3 3.5 0 4.9-.7.6-1.6 1-2.5 1zm211.1-24.7c-.9 0-1.8-.3-2.4-1-1.3-1.3-1.3-3.5 0-4.9 22.2-22.2 22.2-58.3 0-80.4-1.3-1.3-1.3-3.5 0-4.9 1.3-1.3 3.5-1.3 4.9 0 24.9 24.9 24.9 65.3 0 90.2-.7.6-1.6 1-2.5 1z"/><path class="st0" d="M265.5 222.1c-.9 0-1.8-.3-2.4-1-1.3-1.3-1.3-3.5 0-4.9 35.8-35.8 35.8-94 0-129.8-1.3-1.3-1.3-3.5 0-4.9 1.3-1.3 3.5-1.3 4.9 0 38.5 38.5 38.5 101.1 0 139.6-.7.6-1.6 1-2.5 1zm-97.7 39c-8.9 0-10-6.9-10.7-10.9-.8-4.5-1.1-5.7-4.8-5.7h-40c-21.3 0-33.5-8.5-33.5-23.5 0-17.5 11-25.7 34.6-25.7h83.4c3.8 0 5.7-1.6 5.7-3.2s-2-3.2-5.7-3.2c-6 0-21.8.1-38 .2-16.9.1-34.2.2-41 .2-13.8 0-24.3-3.8-31.1-11.4-8.8-9.7-8.1-22.2-8-24.2-.1-2.8-.1-27.4 17.2-33.7 13.6-5 25-.5 29.5 1.8 3-1.9 9.4-5.4 16.3-6.6 6.8-1.1 12.5-7.8 13-15.3.4-5.6-4.5-15-7.1-19.3-6.2-1.9-30.7-10.5-34.9-31.7-.4-1.9.8-3.7 2.7-4 1.9-.4 3.7.8 4 2.7 3.8 19.5 30.9 26.6 31.2 26.7.8.2 1.6.7 2 1.5 1 1.5 9.5 15.1 8.9 24.6-.7 10.7-8.8 19.9-18.7 21.6-7.7 1.3-15.2 6.6-15.3 6.6-1.2.8-2.7.9-3.9.1-.5-.3-11.5-7.3-25.4-2.2-13.3 4.8-12.7 26.9-12.7 27.2v.5c0 .1-1 11.1 6.3 19.2 5.4 6 14.1 9 25.9 9 6.8 0 24.1-.1 40.9-.2 16.2-.1 32-.2 38-.2 8.3 0 12.6 5.1 12.6 10.1s-4.3 10.1-12.6 10.1h-83.4c-23 0-27.7 7.5-27.7 18.8 0 14.4 16.7 16.6 26.6 16.6h40c9.7 0 10.9 7.2 11.6 11.5.8 4.7 1.2 5.2 3.9 5.2 1.2 0 1.5-.4 1.7-.5 1.5-1.5 1.2-6.4 1.1-9.7 0-.8-.1-1.7-.1-2.4-.2-8.6-3.2-11.6-11.6-11.6h-53.4c-4.3 0-6.9-1.6-8.4-3-1.9-1.8-3-4.4-3-7.1 0-5.2 4-10.7 11.4-10.7h86.2c23.8 0 26.6-10.1 26.6-17.7 0-4 0-16-22.7-16h-75.5c-9.5 0-16.6-2.6-21.3-7.8-5.8-6.4-5.5-14.4-5.4-15.8 0-6.7 2.2-11.6 6.2-13.8 1.9-1.1 6-2.3 11.5 1.2 5.7 3.7 13.5 1.4 13.5 1.3.8-.3 1.8-.2 2.5.2.3.1 27.6 13.5 45.5 9.5 22.2-5 36.6-16.9 42.7-35.4 7.9-24.1.4-42.8-7.4-54.3-11.6-17.2-30.6-14.9-36.2-13.8-11.2 2.2-16 11.9-16 12-.5 1.1-1.6 1.8-2.8 1.9-.3 0-7.6.6-13.2-3.2-5.2-3.6-9.8-12.7-10.3-13.7-.8-1.7-.2-3.8 1.5-4.6 1.7-.9 3.8-.2 4.6 1.5 1.6 3.3 5.3 9.2 8.1 11.1 2.2 1.5 5.2 1.9 7 2 2.4-3.7 8.6-11.5 19.7-13.8 13.6-2.7 32.2.2 43.3 16.7 8.6 12.8 17 33.6 8.2 60.3-6.8 20.7-23.3 34.5-47.7 40-18.2 4.1-43.2-6.8-48.9-9.5-3.2.7-11.2 1.8-17.9-2.5-1.1-.7-3.1-1.8-4.5-1-1.2.7-2.6 3.1-2.6 7.9v.3s-.5 6.2 3.7 10.8c3.3 3.6 8.7 5.4 16.1 5.4h75.5c25.7 0 29.6 14.3 29.6 22.9 0 11.2-5.8 24.6-33.5 24.6h-86.2c-3.1 0-4.5 2-4.5 3.8 0 .6.2 1.4.9 2.1.8.7 2 1.1 3.6 1.1h53.4c12.2 0 18.2 6 18.5 18.4 0 .7.1 1.4.1 2.2.2 4.9.5 11.1-3 14.8-.9 1.3-3 2.7-6.4 2.7z"/><path class="st0" d="M195 110.6h-37c-1.9 0-3.4-1.5-3.4-3.4s1.5-3.4 3.4-3.4h37c1.9 0 3.4 1.5 3.4 3.4.1 1.8-1.5 3.4-3.4 3.4zm15.6 0h-5.9c-1.9 0-3.4-1.5-3.4-3.4s1.5-3.4 3.4-3.4h5.9c1.9 0 3.4 1.5 3.4 3.4 0 1.8-1.5 3.4-3.4 3.4z"/></svg>