<svg version="1.1" id="Layer_1" xmlns="http://www.w3.org/2000/svg" x="0" y="0" viewBox="0 0 300 300" xml:space="preserve"><style/><path d="M150 54.5c-61.4 0-111.4 50-111.4 111.4s50 111.4 111.4 111.4 111.4-50 111.4-111.4S211.4 54.5 150 54.5zm0 213.3c-56.2 0-101.9-45.7-101.9-101.9S93.8 64 150 64s101.9 45.7 101.9 101.9S206.2 267.8 150 267.8zm71.6-105.1h-68.4V97.5c0-2.6-2.1-4.8-4.8-4.8s-4.8 2.1-4.8 4.8v66.9c0 .6.1 1.1.3 1.6-.2.5-.3 1-.3 1.6 0 2.6 2.1 4.8 4.8 4.8h73.2c2.6 0 4.8-2.1 4.8-4.8s-2.1-4.9-4.8-4.9zM126.1 32.2h17.5v11.1c0 2.6 2.1 4.8 4.8 4.8s4.8-2.1 4.8-4.8V32.2h17.5c2.6 0 4.8-2.1 4.8-4.8s-2.1-4.8-4.8-4.8h-44.6c-2.6 0-4.8 2.1-4.8 4.8s2.2 4.8 4.8 4.8z"/></svg>