<svg version="1.1" id="Layer_1" xmlns="http://www.w3.org/2000/svg" x="0" y="0" viewBox="0 0 300 300" xml:space="preserve"><style/><path d="M150 22.2C122 22.2 99.2 45 99.2 73v50.6c0 28 22.8 50.8 50.8 50.8s50.8-22.8 50.8-50.8V73c0-28-22.8-50.8-50.8-50.8zm38.4 101.4c0 21.2-17.2 38.4-38.4 38.4s-38.4-17.2-38.4-38.4V73c0-21.2 17.2-38.4 38.4-38.4s38.4 17.2 38.4 38.4v50.6zM150 49.8c-3.4 0-6.2 2.8-6.2 6.2v24.8c0 3.4 2.8 6.2 6.2 6.2s6.2-2.8 6.2-6.2V56c0-3.5-2.8-6.2-6.2-6.2zM168.1 201L149 220.1 130 201c-2.4-2.4-6.4-2.4-8.8 0-2.4 2.4-2.4 6.4 0 8.8l23.5 23.5c1.2 1.2 2.8 1.8 4.4 1.8 1.6 0 3.2-.6 4.4-1.8l23.5-23.5c2.4-2.4 2.4-6.4 0-8.8a6.4 6.4 0 0 0-8.9 0zm0 42.8L149 262.9l-19-19.1c-2.4-2.4-6.4-2.4-8.8 0-2.4 2.4-2.4 6.4 0 8.8l23.5 23.5c1.2 1.2 2.8 1.8 4.4 1.8 1.6 0 3.2-.6 4.4-1.8l23.5-23.5c2.4-2.4 2.4-6.4 0-8.8a6.4 6.4 0 0 0-8.9 0z"/></svg>