<svg version="1.1" id="Layer_1" xmlns="http://www.w3.org/2000/svg" x="0" y="0" viewBox="0 0 300 300" xml:space="preserve"><style>.st0{fill:#231f20}</style><path class="st0" d="M213.9 258.1c-2 0-3.6-1.6-3.6-3.6v-56.3c0-16.3 4.8-22.9 10.9-31.3 1.9-2.7 3.9-5.4 6.1-8.8 7.7-12.4 9-34.1 3.2-55.3-4.6-16.8-17-39.1-50.3-50.2-35.1-11.7-62.8 7.8-79.8 26.3-20.2 21.9-15.5 47.5-15.5 47.7.2.8 0 1.7-.3 2.4-7.9 15.2-16.3 33.2-18.2 40.1h13.1c2 0 3.6 1.6 3.6 3.6V200c0 8.1 5.2 20 16.4 20h40c2 0 3.6 1.6 3.6 3.6s-1.6 3.6-3.6 3.6h-40c-14.6 0-23.6-14.1-23.6-27.3v-23.6H63.1c-1.5 0-2.9-.8-3.7-2.1-1.1-1.7-3.5-5.8 18.1-47.6-.8-6-2.8-30.7 17.5-52.7 26.1-28.3 57.2-38.3 87.4-28.2 36.4 12.1 50 36.7 55.1 55.2 5 18.4 6.6 44-4.1 61-2.3 3.6-4.4 6.6-6.3 9.2-5.9 8.1-9.5 13-9.5 27v56.3c0 2.1-1.7 3.7-3.7 3.7z"/><path class="st0" d="M166.6 162.4c-.6 0-1.3-.2-1.8-.5-.6-.4-15.1-8.8-26.6-20.9-12.1-12.7-7.9-27.7-3.9-33.8 3.5-6.3 10-10.1 17.7-10.1 6 0 11.4 3.4 14.5 5.7 2.8-2.3 7.9-5.2 15.3-5.7 5-.3 9.6 1.4 13.5 5 4.8 4.5 7.8 11.5 7.8 18.2 0 11.7-5.3 21.3-16.1 29.4-11.3 8.5-18.4 12.1-18.7 12.2-.6.3-1.2.5-1.7.5zm-14.7-58c-6.5 0-9.8 3.5-11.5 6.5-.4.7-8.2 13.4 2.9 25 8.6 9 19.2 16 23.3 18.6 2.7-1.5 8.3-4.9 15.9-10.6 9-6.8 13.2-14.3 13.2-23.6 0-4.6-2.2-9.7-5.5-12.8-2.4-2.2-5.1-3.3-8-3.1-8.6.6-12.7 5.5-12.7 5.6-.6.8-1.6 1.3-2.6 1.4-1 .1-2.1-.3-2.8-1.1-1.8-1.6-7.2-5.9-12.2-5.9zm-26.1 152.8c-2 0-3.6-1.6-3.6-3.6v-19.4c0-2 1.6-3.6 3.6-3.6s3.6 1.6 3.6 3.6v19.4c0 2-1.6 3.6-3.6 3.6z"/></svg>