<svg version="1.1" id="Layer_1" xmlns="http://www.w3.org/2000/svg" x="0" y="0" viewBox="0 0 300 300" xml:space="preserve"><style/><path d="M150 34.7C86.4 34.7 34.7 86.4 34.7 150c0 63.6 51.7 115.3 115.3 115.3S265.3 213.6 265.3 150c0-63.6-51.7-115.3-115.3-115.3zm0 218.6C93 253.3 46.7 207 46.7 150S93 46.7 150 46.7 253.3 93 253.3 150 207 253.3 150 253.3zm39.8-88.1c-2.4-2.4-5.2-2.7-8-.7s-5.6 4.1-8.4 6.1c-4.1 3-8.4 3.4-12.1-.2-10.7-10.4-21.3-21-31.7-31.7-3.6-3.7-3.2-8-.2-12.1 2.1-2.8 4.7-5.4 6-8.5.9-2.2 1-6-.3-7.5-5.9-6.6-12.3-12.6-18.7-18.7-3-2.8-6.4-3.3-10-.9-4.1 2.8-8.2 5.7-12.3 8.4-4.3 2.8-5.2 6.7-4 11.3.8 3.2 2 6.3 3.5 9.2 6.9 13.5 15.4 25.9 25.6 37.1 18.1 19.9 37.6 38 62 50.1 2.7 1.4 5.7 2.2 8.9 3.2 1.7.5 3.5.5 5.2-.2 1.6-.7 3.2-1.4 4.2-2.5 3.5-4.2 6.3-8.9 9.4-13.4 2.8-4.1 2-7.8-1.4-11.1-5.9-6.1-11.8-12-17.7-17.9z"/></svg>