<svg version="1.1" id="Layer_1" xmlns="http://www.w3.org/2000/svg" x="0" y="0" viewBox="0 0 300 300" xml:space="preserve"><style/><path d="M280.2 54.1c-7.9-7.2-18.7-8.8-25.3-9.1v-6.9c0-9.6-7.8-17.5-17.5-17.5-9.6 0-17.5 7.8-17.5 17.5v7h-87.4v-7c0-9.6-7.8-17.5-17.5-17.5s-17.5 7.8-17.5 17.5v8.7h-14C70 46.8 57.3 59.5 57.3 73v70c0 2.9 2.3 5.2 5.2 5.2s5.2-2.3 5.2-5.2V73.1c0-7.6 8.1-15.7 15.7-15.7h14v5.2c0 9.6 7.8 17.5 17.5 17.5s17.5-7.8 17.5-17.5v-7h87.4v7c0 9.6 7.8 17.5 17.5 17.5 9.6 0 17.5-7.8 17.5-17.5v-7c5 .3 12.9 1.5 18.2 6.4 4.2 3.8 6.2 9.2 6.2 16.4v33.2H85.3c-2.9 0-5.2 2.3-5.2 5.2s2.3 5.2 5.2 5.2h194.1v103.2c0 11.7-8.9 19.2-22.7 19.2H137.8c-2.9 0-5.2 2.3-5.2 5.2 0 2.9 2.3 5.2 5.2 5.2h118.9c19.6 0 33.2-12.2 33.2-29.7V78.3c0-10.2-3.3-18.4-9.7-24.2zM122 62.6c0 3.9-3.1 7-7 7s-7-3.1-7-7V38.1c0-3.9 3.1-7 7-7s7 3.1 7 7v24.5zm122.4 0c0 3.9-3.1 7-7 7s-7-3.1-7-7V38.1c0-3.9 3.1-7 7-7s7 3.1 7 7v24.5zM50.5 218c-2-2-5.4-2-7.4 0s-2 5.4 0 7.4l14 14c1 1 2.4 1.5 3.7 1.5s2.7-.5 3.7-1.5l28-28c2-2 2-5.4 0-7.4s-5.4-2-7.4 0l-24.3 24.3L50.5 218zm64.5-76.7c-6.8 0-12.2 5.5-12.2 12.2s5.5 12.2 12.2 12.2c6.8 0 12.2-5.5 12.2-12.2s-5.4-12.2-12.2-12.2zm59.5 24.4c6.8 0 12.2-5.5 12.2-12.2s-5.5-12.2-12.2-12.2-12.2 5.5-12.2 12.2 5.4 12.2 12.2 12.2zm59.4 0c6.8 0 12.2-5.5 12.2-12.2s-5.5-12.2-12.2-12.2-12.2 5.5-12.2 12.2 5.5 12.2 12.2 12.2zm0 49c6.8 0 12.2-5.5 12.2-12.2s-5.5-12.2-12.2-12.2-12.2 5.5-12.2 12.2 5.5 12.2 12.2 12.2zm-59.4 0c6.8 0 12.2-5.5 12.2-12.2s-5.5-12.2-12.2-12.2-12.2 5.5-12.2 12.2 5.4 12.2 12.2 12.2zm-49 6.4c-.3-27.3-19.7-50.1-45.4-55.7l-4.1 9.9c21.5 3.8 38 22.2 38.9 44.6 0 .3 0 .7.1 1v.8c0 26-21.2 47.2-47.2 47.2-1.4 0-2.8-.1-4.2-.2-.3 0-.6 0-.9-.1-1.3-.1-2.6-.3-3.8-.6-.3-.1-.5-.1-.8-.2-1.3-.3-2.5-.6-3.8-1-.2-.1-.5-.1-.7-.2-1.3-.4-2.5-.9-3.8-1.4-.2-.1-.3-.1-.5-.2-1.3-.6-2.5-1.2-3.8-1.8-.1 0-.2-.1-.3-.1-1.3-.7-2.6-1.5-3.8-2.3h-.1c-12.5-8.5-20.8-22.8-20.8-39.1 0-.4 0-.8.1-1.3 0-1.1.1-2.1.2-3.2.1-1 .2-1.9.4-2.8.1-.5.1-1 .2-1.5.2-1.1.5-2.1.7-3.2.1-.3.2-.7.2-1 .3-1.1.7-2.2 1.1-3.3.1-.2.2-.4.2-.7.5-1.2 1-2.3 1.5-3.4.1-.1.1-.3.2-.4.6-1.2 1.2-2.3 1.9-3.5 0 0 0-.1.1-.1 6.4-10.5 16.8-18.3 29-21.4l-3.9 8.5c-1.2 2.6 0 5.7 2.6 6.9.7.3 1.4.5 2.2.5 2 0 3.9-1.1 4.8-3.1l8.7-19.2v-.1c.1-.2.1-.4.2-.6 0-.2.1-.3.1-.4 0-.2.1-.4.1-.5v-1c0-.2 0-.3-.1-.5 0-.2-.1-.3-.1-.5s-.1-.3-.2-.5-.1-.3-.2-.5-.2-.3-.2-.4c-.1-.1-.2-.3-.3-.4-.1-.1-.2-.3-.3-.4-.1-.1-.2-.2-.4-.3-.1-.1-.3-.2-.4-.4l-.1-.1-19.2-12.2c-2.4-1.5-5.7-.8-7.2 1.6-1.6 2.4-.8 5.7 1.6 7.2l9.7 6.2c-25 6.3-43.6 28.9-43.6 55.9 0 17.9 8.2 33.8 21 44.4 0 0 .1 0 .1.1 1.4 1.1 2.8 2.2 4.3 3.2.1.1.3.2.4.3 1.4.9 2.8 1.8 4.3 2.6.2.1.5.2.7.4 1.4.7 2.8 1.4 4.2 2 .3.1.7.3 1 .4 1.4.6 2.8 1.1 4.2 1.5.4.1.8.2 1.2.4 1.4.4 2.8.8 4.2 1.1.5.1 1 .2 1.4.3 1.4.3 2.8.5 4.2.6.5.1 1 .1 1.6.1 1 .1 2 .2 3 .2v-.1c.6 0 1.2.1 1.7.1 31.2 0 56.6-24.9 57.6-55.9 0-.6.1-1.2.1-1.7.2-.1.2-.3.2-.5z"/></svg>