<svg version="1.1" id="Layer_1" xmlns="http://www.w3.org/2000/svg" x="0" y="0" viewBox="0 0 300 300" xml:space="preserve"><style/><path d="M253.5 91.1c.6-1.9.1-3.9-1.3-5.3l-54.6-54.6c-1.4-1.4-3.4-1.9-5.3-1.3-1.9.6-3.2 2.2-3.6 4.1l-2 11.6-163 163.1c-14.1 14.1-14.1 37 0 51.1 6.8 6.8 15.9 10.5 25.5 10.5s18.7-3.7 25.5-10.5L238.1 96.4l11.3-1.8c1.9-.2 3.5-1.6 4.1-3.5zm-18.7-4.7c-1.1.2-2.1.7-2.9 1.5l-12 12-14.1-14.1c-2-2-5.3-2-7.4 0-2 2-2 5.3 0 7.4l14.1 14.1-22.7 22.7-14.1-14.1c-2-2-5.3-2-7.4 0-2 2-2 5.3 0 7.4l14.1 14.1-115.1 115c-4.8 4.8-11.3 7.5-18.2 7.5s-13.3-2.7-18.2-7.5c-10-10-10-26.3 0-36.3L195.3 51.8c.8-.8 1.3-1.7 1.5-2.8l.6-3.3L237.6 86l-2.8.4zm-194.2 140c-4.3 4.3-4.3 11.3 0 15.7 4.3 4.3 11.3 4.3 15.7 0l68.6-68.6-15.7-15.7-68.6 68.6zm245.1-72.8c-4-12.1-19.3-35-19.9-36-1.9-2.9-6.7-2.9-8.7 0-.3.5-8.1 12.3-16 31.9-5 12.6-2.5 20.5.5 24.9 4 5.9 11.2 9.3 19.8 9.3 9.1 0 17-3.6 21.5-9.9 4.1-5.7 5.1-13.1 2.8-20.2zm-11.3 14.1c-2.6 3.6-7.2 5.6-13 5.6-5 0-9.2-1.8-11.2-4.7-2.9-4.2-1.3-10.6.6-15.2 4-9.9 7.9-17.7 10.8-22.9 4.7 7.6 11.9 19.5 14.2 26.5 1.3 3.9.8 7.7-1.4 10.7z"/></svg>