<svg version="1.1" id="Layer_1" xmlns="http://www.w3.org/2000/svg" x="0" y="0" viewBox="0 0 300 300" xml:space="preserve"><style/><path d="M230 164.3c-6.4-25.6 1.5-60.5 6.2-81.3l1-4.4c2.7-11.9 1.5-21.1-3.4-27.3-3.6-4.5-9.1-7-15.5-7-7.6 0-33.1-1.6-41.8-2.2-2.8-6.3-10.4-20-24.7-21.4-.4-.1-.7-.1-1.1-.1h-1.2c-.4 0-.7.1-1.1.1-14.3 1.4-21.9 15.2-24.7 21.4-8.8.6-34.2 2.2-41.8 2.2-6.3 0-11.8 2.5-15.5 7-4.9 6.2-6.1 15.3-3.4 27.3l1 4.4c4.7 20.9 12.6 55.8 6.2 81.3l-1.7 6.5c-6.2 24.6-10 39.4-.1 54.3 6.5 9.7 32.9 12.9 54.9 13.9v12c0 2.6 2.1 4.8 4.8 4.8h19v19c0 2.6 2.1 4.8 4.8 4.8 2.6 0 4.8-2.1 4.8-4.8v-19h19c2.6 0 4.8-2.1 4.8-4.8v-12c20.6-1 45-4.2 51.5-13.8 9.9-14.9 6.2-29.7-.1-54.3l-1.9-6.6zm-59.3 81.9h-38v-7c2.6 0 5 .1 7.2.1 5.4 0 9.7-.1 12.4-.2 2.5.1 6.6.2 11.6.2 2.1 0 4.4 0 6.8-.1v7zm53.1-26.4c-5.4 8.1-43.4 10.6-69.9 9.8-.3-.1-.7-.1-1-.1h-.9c-.3 0-.6 0-.9.1-32.6.9-69.9-2.5-74.8-9.8-7.6-11.4-4.6-23.1 1.4-46.6l1.7-6.6c6.9-27.8-1.2-64.1-6.1-85.8l-1-4.3c-2-8.9-1.4-15.5 1.6-19.3 2.3-2.8 5.6-3.4 8-3.4 9.6 0 44-2.3 45.5-2.4 1.9-.1 3.6-1.4 4.2-3.2.1-.2 6-17.5 18.6-18.1 12.5.6 18.5 17.9 18.6 18.1.6 1.8 2.3 3.1 4.2 3.2 1.5.1 35.9 2.4 45.5 2.4 2.4 0 5.7.6 8 3.4 3 3.7 3.5 10.4 1.6 19.3l-1 4.3c-4 17.9-10.3 45.6-8.5 70.3H109c-2.6 0-4.8 2.1-4.8 4.8 0 2.6 2.1 4.8 4.8 4.8h110.6c.3 2 .7 4 1.2 5.9l1.7 6.6c5.9 23.5 8.9 35.3 1.3 46.6zM177.9 82.3H204c2.6 0 4.8-2.1 4.8-4.8 0-2.6-2.1-4.8-4.8-4.8h-26.1c-2.6 0-4.8 2.1-4.8 4.8 0 2.7 2.1 4.8 4.8 4.8zm0 23.8H204c2.6 0 4.8-2.1 4.8-4.8 0-2.6-2.1-4.8-4.8-4.8h-26.1c-2.6 0-4.8 2.1-4.8 4.8 0 2.6 2.1 4.8 4.8 4.8zm0 23.7H204c2.6 0 4.8-2.1 4.8-4.8 0-2.6-2.1-4.8-4.8-4.8h-26.1c-2.6 0-4.8 2.1-4.8 4.8 0 2.7 2.1 4.8 4.8 4.8zM151.7 55c3.3 0 5.9-2.7 5.9-5.9 0-3.3-2.7-5.9-5.9-5.9-3.3 0-5.9 2.7-5.9 5.9s2.7 5.9 5.9 5.9z"/></svg>