<svg version="1.1" id="Layer_1" xmlns="http://www.w3.org/2000/svg" x="0" y="0" viewBox="0 0 300 300" xml:space="preserve"><style/><path d="M278.1 55.7c-7.8-7.1-18.4-8.7-24.9-8.9V40c0-9.5-7.7-17.2-17.2-17.2s-17.2 7.7-17.2 17.2v6.9h-86V40c0-9.5-7.7-17.2-17.2-17.2S98.4 30.5 98.4 40v8.6H84.6c-13.3 0-25.8 12.5-25.8 25.8v68.8c0 2.9 2.3 5.2 5.2 5.2s5.2-2.3 5.2-5.2V74.3c0-7.5 8-15.5 15.5-15.5h13.8V64c0 9.5 7.7 17.2 17.2 17.2s17.2-7.7 17.2-17.2v-6.9h86V64c0 9.5 7.7 17.2 17.2 17.2s17.2-7.7 17.2-17.2v-6.9c4.9.3 12.7 1.5 17.9 6.3 4.1 3.7 6.1 9 6.1 16.2v32.7h-191c-2.8 0-5.2 2.3-5.2 5.2s2.3 5.2 5.2 5.2h191V224c0 11.5-8.8 18.9-22.4 18.9H138c-2.8 0-5.2 2.3-5.2 5.2s2.3 5.2 5.2 5.2h117c19.2 0 32.7-12 32.7-29.2V79.5c-.1-10.1-3.3-18.1-9.6-23.8zM122.5 64c0 3.8-3.1 6.9-6.9 6.9-3.8 0-6.9-3.1-6.9-6.9V39.9c0-3.8 3.1-6.9 6.9-6.9 3.8 0 6.9 3.1 6.9 6.9V64zm120.4 0c0 3.8-3.1 6.9-6.9 6.9-3.8 0-6.9-3.1-6.9-6.9V39.9c0-3.8 3.1-6.9 6.9-6.9 3.8 0 6.9 3.1 6.9 6.9V64zM86.1 203.1L62.3 227l-10.1-10.1c-2-2-5.3-2-7.3 0s-2 5.3 0 7.3L58.6 238c1 1 2.3 1.5 3.6 1.5s2.6-.5 3.6-1.5l27.5-27.5c2-2 2-5.3 0-7.3-1.9-2.1-5.2-2.1-7.2-.1zm-17-39.3c-31.3 0-56.8 25.5-56.8 56.8s25.5 56.8 56.8 56.8 56.8-25.5 56.8-56.8-25.5-56.8-56.8-56.8zm0 103.2c-25.6 0-46.5-20.8-46.5-46.5S43.4 174 69.1 174s46.5 20.8 46.5 46.5S94.8 267 69.1 267zm46.5-125.6c-6.7 0-12 5.4-12 12s5.4 12 12 12c6.7 0 12-5.4 12-12s-5.4-12-12-12zm58.5 24.1c6.7 0 12-5.4 12-12s-5.4-12-12-12-12 5.4-12 12 5.3 12 12 12zm58.5 0c6.7 0 12-5.4 12-12s-5.4-12-12-12-12 5.4-12 12 5.3 12 12 12zm0 48.2c6.7 0 12-5.4 12-12 0-6.7-5.4-12-12-12s-12 5.4-12 12c-.1 6.6 5.3 12 12 12zm-58.5 0c6.7 0 12-5.4 12-12 0-6.7-5.4-12-12-12s-12 5.4-12 12c-.1 6.6 5.3 12 12 12z"/></svg>